{"accessors":[{"bufferView":0,"byteOffset":0,"componentType":5126,"count":1,"max":[0],"min":[0],"type":"SCALAR"},{"bufferView":1,"byteOffset":0,"componentType":5123,"count":1476,"type":"SCALAR"},{"bufferView":2,"byteOffset":0,"componentType":5126,"count":274,"max":[0.0725276172161102,0.134596988558769,0.075498528778553],"min":[-0.08226933330297,-0.00501932809129,-0.08321157097816],"type":"VEC3"},{"bufferView":3,"byteOffset":0,"componentType":5126,"count":274,"type":"VEC3"},{"bufferView":4,"byteOffset":0,"componentType":5126,"count":274,"type":"VEC4"},{"bufferView":5,"byteOffset":0,"componentType":5126,"count":274,"type":"VEC2"},{"bufferView":6,"byteOffset":0,"componentType":5126,"count":274,"type":"VEC2"},{"bufferView":7,"byteOffset":0,"componentType":5123,"count":1104,"type":"SCALAR"},{"bufferView":8,"byteOffset":0,"componentType":5126,"count":209,"max":[0.072365827858448,0.135259345173836,0.0757707804441452],"min":[-0.08226933330297,-0.00501932809129,-0.08321157097816],"type":"VEC3"},{"bufferView":9,"byteOffset":0,"componentType":5126,"count":209,"type":"VEC3"},{"bufferView":10,"byteOffset":0,"componentType":5126,"count":209,"type":"VEC4"},{"bufferView":11,"byteOffset":0,"componentType":5126,"count":209,"type":"VEC2"},{"bufferView":12,"byteOffset":0,"componentType":5126,"count":209,"type":"VEC2"},{"bufferView":13,"byteOffset":0,"componentType":5123,"count":738,"type":"SCALAR"},{"bufferView":14,"byteOffset":0,"componentType":5126,"count":145,"max":[0.0744230002164841,0.135259345173836,0.075131006538868],"min":[-0.08226933330297,-0.00508967135102,-0.08321157097816],"type":"VEC3"},{"bufferView":15,"byteOffset":0,"componentType":5126,"count":145,"type":"VEC3"},{"bufferView":16,"byteOffset":0,"componentType":5126,"count":145,"type":"VEC4"},{"bufferView":17,"byteOffset":0,"componentType":5126,"count":145,"type":"VEC2"},{"bufferView":18,"byteOffset":0,"componentType":5126,"count":145,"type":"VEC2"},{"bufferView":19,"byteOffset":0,"componentType":5123,"count":186,"type":"SCALAR"},{"bufferView":20,"byteOffset":0,"componentType":5126,"count":45,"max":[0.0744230002164841,0.135206177830696,0.0776247605681419],"min":[-0.08512473851442,-0.00452637020499,-0.08042296022177],"type":"VEC3"},{"bufferView":21,"byteOffset":0,"componentType":5126,"count":45,"type":"VEC3"},{"bufferView":22,"byteOffset":0,"componentType":5126,"count":45,"type":"VEC4"},{"bufferView":23,"byteOffset":0,"componentType":5126,"count":45,"type":"VEC2"},{"bufferView":24,"byteOffset":0,"componentType":5126,"count":45,"type":"VEC2"},{"bufferView":25,"byteOffset":0,"componentType":5123,"count":84,"type":"SCALAR"},{"bufferView":26,"byteOffset":0,"componentType":5126,"count":16,"max":[0.0714953914284706,0.136702910065651,0.0645557940006256],"min":[-0.08115838468075,-0.00436035869643,-0.06919301301241],"type":"VEC3"},{"bufferView":27,"byteOffset":0,"componentType":5126,"count":16,"type":"VEC3"},{"bufferView":28,"byteOffset":0,"componentType":5126,"count":16,"type":"VEC2"},{"bufferView":29,"byteOffset":0,"componentType":5126,"count":16,"type":"VEC2"}],"animations":[{"channels":[],"name":"Unreal Take","samplers":[]}],"asset":{"generator":"FBX2glTF v0.13.0","version":"2.0"},"bufferViews":[{"buffer":0,"byteLength":4,"byteOffset":0},{"buffer":0,"byteLength":2952,"byteOffset":4,"target":34963},{"buffer":0,"byteLength":3288,"byteOffset":2956,"target":34962},{"buffer":0,"byteLength":3288,"byteOffset":6244,"target":34962},{"buffer":0,"byteLength":4384,"byteOffset":9532,"target":34962},{"buffer":0,"byteLength":2192,"byteOffset":13916,"target":34962},{"buffer":0,"byteLength":2192,"byteOffset":16108,"target":34962},{"buffer":0,"byteLength":2208,"byteOffset":18300,"target":34963},{"buffer":0,"byteLength":2508,"byteOffset":20508,"target":34962},{"buffer":0,"byteLength":2508,"byteOffset":23016,"target":34962},{"buffer":0,"byteLength":3344,"byteOffset":25524,"target":34962},{"buffer":0,"byteLength":1672,"byteOffset":28868,"target":34962},{"buffer":0,"byteLength":1672,"byteOffset":30540,"target":34962},{"buffer":0,"byteLength":1476,"byteOffset":32212,"target":34963},{"buffer":0,"byteLength":1740,"byteOffset":33688,"target":34962},{"buffer":0,"byteLength":1740,"byteOffset":35428,"target":34962},{"buffer":0,"byteLength":2320,"byteOffset":37168,"target":34962},{"buffer":0,"byteLength":1160,"byteOffset":39488,"target":34962},{"buffer":0,"byteLength":1160,"byteOffset":40648,"target":34962},{"buffer":0,"byteLength":372,"byteOffset":41808,"target":34963},{"buffer":0,"byteLength":540,"byteOffset":42180,"target":34962},{"buffer":0,"byteLength":540,"byteOffset":42720,"target":34962},{"buffer":0,"byteLength":720,"byteOffset":43260,"target":34962},{"buffer":0,"byteLength":360,"byteOffset":43980,"target":34962},{"buffer":0,"byteLength":360,"byteOffset":44340,"target":34962},{"buffer":0,"byteLength":168,"byteOffset":44700,"target":34963},{"buffer":0,"byteLength":192,"byteOffset":44868,"target":34962},{"buffer":0,"byteLength":192,"byteOffset":45060,"target":34962},{"buffer":0,"byteLength":128,"byteOffset":45252,"target":34962},{"buffer":0,"byteLength":128,"byteOffset":45380,"target":34962}],"buffers":[{"byteLength":45508,"uri":"SM_Apple.bin"}],"images":[{"name":"T_Food_N","uri":"T_Food_N.png"},{"name":"T_Food_B","uri":"T_Food_B.png"}],"materials":[{"alphaMode":"OPAQUE","doubleSided":false,"extras":{"fromFBX":{"isTruePBR":false,"shadingModel":"Phong"}},"name":"MI_Food_02","normalTexture":{"index":0,"texCoord":0},"pbrMetallicRoughness":{"baseColorFactor":[1,1,1,1],"baseColorTexture":{"index":1,"texCoord":0},"metallicFactor":0.400000005960464,"roughnessFactor":0.301511347293854}},{"alphaMode":"OPAQUE","doubleSided":false,"extras":{"fromFBX":{"isTruePBR":false,"shadingModel":"Lambert"}},"name":"DefaultMaterial","pbrMetallicRoughness":{"baseColorFactor":[0.5,0.5,0.5,1],"metallicFactor":0.200000002980232,"roughnessFactor":0.800000011920929}}],"meshes":[{"name":"SM_Apple_LOD0","primitives":[{"attributes":{"NORMAL":3,"POSITION":2,"TANGENT":4,"TEXCOORD_0":5,"TEXCOORD_1":6},"indices":1,"material":0,"mode":4}]},{"name":"SM_Apple_LOD1","primitives":[{"attributes":{"NORMAL":9,"POSITION":8,"TANGENT":10,"TEXCOORD_0":11,"TEXCOORD_1":12},"indices":7,"material":0,"mode":4}]},{"name":"SM_Apple_LOD2","primitives":[{"attributes":{"NORMAL":15,"POSITION":14,"TANGENT":16,"TEXCOORD_0":17,"TEXCOORD_1":18},"indices":13,"material":0,"mode":4}]},{"name":"SM_Apple_LOD3","primitives":[{"attributes":{"NORMAL":21,"POSITION":20,"TANGENT":22,"TEXCOORD_0":23,"TEXCOORD_1":24},"indices":19,"material":0,"mode":4}]},{"name":"SM_Apple_ConvexHulls","primitives":[{"attributes":{"NORMAL":27,"POSITION":26,"TEXCOORD_0":28,"TEXCOORD_1":29},"indices":25,"material":1,"mode":4}]}],"nodes":[{"children":[1,2,3,4,5],"name":"SM_Apple_0","originalUnits":0.00999999977648258,"pivot":[0,0,0],"rotation":[0,0,0,1],"scale":[1,1,1],"translation":[0,0,0]},{"mesh":0,"name":"SM_Apple_LOD0","originalUnits":0.00999999977648258,"pivot":[0,0,0],"rotation":[0,0,0,1],"scale":[1,1,1],"translation":[0,0,0]},{"mesh":4,"name":"SM_Apple_ConvexHulls","originalUnits":0.00999999977648258,"pivot":[0,0,0],"rotation":[0,0,0,1],"scale":[1,1,1],"translation":[0,0,0]},{"mesh":1,"name":"SM_Apple_LOD1","originalUnits":0.00999999977648258,"pivot":[0,0,0],"rotation":[0,0,0,1],"scale":[1,1,1],"translation":[0,0,0]},{"mesh":2,"name":"SM_Apple_LOD2","originalUnits":0.00999999977648258,"pivot":[0,0,0],"rotation":[0,0,0,1],"scale":[1,1,1],"translation":[0,0,0]},{"mesh":3,"name":"SM_Apple_LOD3","originalUnits":0.00999999977648258,"pivot":[0,0,0],"rotation":[0,0,0,1],"scale":[1,1,1],"translation":[0,0,0]}],"samplers":[{}],"scene":0,"scenes":[{"name":"Root Scene","nodes":[0]}],"textures":[{"name":"MI_Food_02","sampler":0,"source":0},{"name":"MI_Food_02","sampler":0,"source":1}]}