{"accessors":[{"bufferView":0,"byteOffset":0,"componentType":5126,"count":1,"max":[0],"min":[0],"type":"SCALAR"},{"bufferView":1,"byteOffset":0,"componentType":5123,"count":7344,"type":"SCALAR"},{"bufferView":2,"byteOffset":0,"componentType":5126,"count":1584,"max":[0.125590205192566,0.738647878170013,0.738648355007172],"min":[-0.12559020519257,-0.11099198460579,-0.11099196970463],"type":"VEC3"},{"bufferView":3,"byteOffset":0,"componentType":5126,"count":1584,"type":"VEC3"},{"bufferView":4,"byteOffset":0,"componentType":5126,"count":1584,"type":"VEC4"},{"bufferView":5,"byteOffset":0,"componentType":5126,"count":1584,"type":"VEC2"},{"bufferView":6,"byteOffset":0,"componentType":5126,"count":1584,"type":"VEC2"},{"bufferView":7,"byteOffset":0,"componentType":5123,"count":5508,"type":"SCALAR"},{"bufferView":8,"byteOffset":0,"componentType":5126,"count":1236,"max":[0.125650271773338,0.738647878170013,0.738648355007172],"min":[-0.12559020519257,-0.11099198460579,-0.11099196970463],"type":"VEC3"},{"bufferView":9,"byteOffset":0,"componentType":5126,"count":1236,"type":"VEC3"},{"bufferView":10,"byteOffset":0,"componentType":5126,"count":1236,"type":"VEC4"},{"bufferView":11,"byteOffset":0,"componentType":5126,"count":1236,"type":"VEC2"},{"bufferView":12,"byteOffset":0,"componentType":5126,"count":1236,"type":"VEC2"},{"bufferView":13,"byteOffset":0,"componentType":5123,"count":3672,"type":"SCALAR"},{"bufferView":14,"byteOffset":0,"componentType":5126,"count":840,"max":[0.125697165727615,0.738647878170013,0.738648355007172],"min":[-0.12573680281639,-0.11099198460579,-0.11177979409695],"type":"VEC3"},{"bufferView":15,"byteOffset":0,"componentType":5126,"count":840,"type":"VEC3"},{"bufferView":16,"byteOffset":0,"componentType":5126,"count":840,"type":"VEC4"},{"bufferView":17,"byteOffset":0,"componentType":5126,"count":840,"type":"VEC2"},{"bufferView":18,"byteOffset":0,"componentType":5126,"count":840,"type":"VEC2"},{"bufferView":19,"byteOffset":0,"componentType":5123,"count":915,"type":"SCALAR"},{"bufferView":20,"byteOffset":0,"componentType":5126,"count":272,"max":[0.12664869427681,0.738647878170013,0.738648355007172],"min":[-0.12699082493782,-0.1239373087883,-0.11253339797258],"type":"VEC3"},{"bufferView":21,"byteOffset":0,"componentType":5126,"count":272,"type":"VEC3"},{"bufferView":22,"byteOffset":0,"componentType":5126,"count":272,"type":"VEC4"},{"bufferView":23,"byteOffset":0,"componentType":5126,"count":272,"type":"VEC2"},{"bufferView":24,"byteOffset":0,"componentType":5126,"count":272,"type":"VEC2"},{"bufferView":25,"byteOffset":0,"componentType":5123,"count":312,"type":"SCALAR"},{"bufferView":26,"byteOffset":0,"componentType":5126,"count":60,"max":[0.122437961399555,0.732745587825775,0.732774794101715],"min":[-0.12045136094093,-0.10903421789408,-0.11196698993444],"type":"VEC3"},{"bufferView":27,"byteOffset":0,"componentType":5126,"count":60,"type":"VEC3"},{"bufferView":28,"byteOffset":0,"componentType":5126,"count":60,"type":"VEC2"},{"bufferView":29,"byteOffset":0,"componentType":5126,"count":60,"type":"VEC2"}],"animations":[{"channels":[],"name":"Unreal Take","samplers":[]}],"asset":{"generator":"FBX2glTF v0.13.0","version":"2.0"},"bufferViews":[{"buffer":0,"byteLength":4,"byteOffset":0},{"buffer":0,"byteLength":14688,"byteOffset":4,"target":34963},{"buffer":0,"byteLength":19008,"byteOffset":14692,"target":34962},{"buffer":0,"byteLength":19008,"byteOffset":33700,"target":34962},{"buffer":0,"byteLength":25344,"byteOffset":52708,"target":34962},{"buffer":0,"byteLength":12672,"byteOffset":78052,"target":34962},{"buffer":0,"byteLength":12672,"byteOffset":90724,"target":34962},{"buffer":0,"byteLength":11016,"byteOffset":103396,"target":34963},{"buffer":0,"byteLength":14832,"byteOffset":114412,"target":34962},{"buffer":0,"byteLength":14832,"byteOffset":129244,"target":34962},{"buffer":0,"byteLength":19776,"byteOffset":144076,"target":34962},{"buffer":0,"byteLength":9888,"byteOffset":163852,"target":34962},{"buffer":0,"byteLength":9888,"byteOffset":173740,"target":34962},{"buffer":0,"byteLength":7344,"byteOffset":183628,"target":34963},{"buffer":0,"byteLength":10080,"byteOffset":190972,"target":34962},{"buffer":0,"byteLength":10080,"byteOffset":201052,"target":34962},{"buffer":0,"byteLength":13440,"byteOffset":211132,"target":34962},{"buffer":0,"byteLength":6720,"byteOffset":224572,"target":34962},{"buffer":0,"byteLength":6720,"byteOffset":231292,"target":34962},{"buffer":0,"byteLength":1830,"byteOffset":238012,"target":34963},{"buffer":0,"byteLength":3264,"byteOffset":239844,"target":34962},{"buffer":0,"byteLength":3264,"byteOffset":243108,"target":34962},{"buffer":0,"byteLength":4352,"byteOffset":246372,"target":34962},{"buffer":0,"byteLength":2176,"byteOffset":250724,"target":34962},{"buffer":0,"byteLength":2176,"byteOffset":252900,"target":34962},{"buffer":0,"byteLength":624,"byteOffset":255076,"target":34963},{"buffer":0,"byteLength":720,"byteOffset":255700,"target":34962},{"buffer":0,"byteLength":720,"byteOffset":256420,"target":34962},{"buffer":0,"byteLength":480,"byteOffset":257140,"target":34962},{"buffer":0,"byteLength":480,"byteOffset":257620,"target":34962}],"buffers":[{"byteLength":258100,"uri":"SM_Broken_Wheel.bin"}],"images":[{"name":"T_Woodprops_01_N","uri":"T_Woodprops_01_N.png"},{"name":"T_Woodprops_01_B","uri":"T_Woodprops_01_B.png"}],"materials":[{"alphaMode":"OPAQUE","doubleSided":false,"extras":{"fromFBX":{"isTruePBR":false,"shadingModel":"Phong"}},"name":"MI_Wheel","normalTexture":{"index":0,"texCoord":0},"pbrMetallicRoughness":{"baseColorFactor":[1,1,1,1],"baseColorTexture":{"index":1,"texCoord":0},"metallicFactor":0.400000005960464,"roughnessFactor":0.301511347293854}},{"alphaMode":"OPAQUE","doubleSided":false,"extras":{"fromFBX":{"isTruePBR":false,"shadingModel":"Lambert"}},"name":"DefaultMaterial","pbrMetallicRoughness":{"baseColorFactor":[0.5,0.5,0.5,1],"metallicFactor":0.200000002980232,"roughnessFactor":0.800000011920929}}],"meshes":[{"name":"SM_Broken_Wheel_LOD0","primitives":[{"attributes":{"NORMAL":3,"POSITION":2,"TANGENT":4,"TEXCOORD_0":5,"TEXCOORD_1":6},"indices":1,"material":0,"mode":4}]},{"name":"SM_Broken_Wheel_LOD1","primitives":[{"attributes":{"NORMAL":9,"POSITION":8,"TANGENT":10,"TEXCOORD_0":11,"TEXCOORD_1":12},"indices":7,"material":0,"mode":4}]},{"name":"SM_Broken_Wheel_LOD2","primitives":[{"attributes":{"NORMAL":15,"POSITION":14,"TANGENT":16,"TEXCOORD_0":17,"TEXCOORD_1":18},"indices":13,"material":0,"mode":4}]},{"name":"SM_Broken_Wheel_LOD3","primitives":[{"attributes":{"NORMAL":21,"POSITION":20,"TANGENT":22,"TEXCOORD_0":23,"TEXCOORD_1":24},"indices":19,"material":0,"mode":4}]},{"name":"SM_Broken_Wheel_ConvexHulls","primitives":[{"attributes":{"NORMAL":27,"POSITION":26,"TEXCOORD_0":28,"TEXCOORD_1":29},"indices":25,"material":1,"mode":4}]}],"nodes":[{"children":[1,2,3,4,5],"name":"SM_Broken_Wheel_11","originalUnits":0.00999999977648258,"pivot":[0,0,0],"rotation":[0,0,0,1],"scale":[1,1,1],"translation":[0,0,0]},{"mesh":0,"name":"SM_Broken_Wheel_LOD0","originalUnits":0.00999999977648258,"pivot":[0,0,0],"rotation":[0,0,0,1],"scale":[1,1,1],"translation":[0,0,0]},{"mesh":4,"name":"SM_Broken_Wheel_ConvexHulls","originalUnits":0.00999999977648258,"pivot":[0,0,0],"rotation":[0,0,0,1],"scale":[1,1,1],"translation":[0,0,0]},{"mesh":1,"name":"SM_Broken_Wheel_LOD1","originalUnits":0.00999999977648258,"pivot":[0,0,0],"rotation":[0,0,0,1],"scale":[1,1,1],"translation":[0,0,0]},{"mesh":2,"name":"SM_Broken_Wheel_LOD2","originalUnits":0.00999999977648258,"pivot":[0,0,0],"rotation":[0,0,0,1],"scale":[1,1,1],"translation":[0,0,0]},{"mesh":3,"name":"SM_Broken_Wheel_LOD3","originalUnits":0.00999999977648258,"pivot":[0,0,0],"rotation":[0,0,0,1],"scale":[1,1,1],"translation":[0,0,0]}],"samplers":[{}],"scene":0,"scenes":[{"name":"Root Scene","nodes":[0]}],"textures":[{"name":"MI_Wheel","sampler":0,"source":0},{"name":"MI_Wheel","sampler":0,"source":1}]}