{"accessors":[{"bufferView":0,"byteOffset":0,"componentType":5126,"count":1,"max":[0],"min":[0],"type":"SCALAR"},{"bufferView":1,"byteOffset":0,"componentType":5123,"count":1866,"type":"SCALAR"},{"bufferView":2,"byteOffset":0,"componentType":5126,"count":430,"max":[0.0177093986421824,0.32576110959053,0.133886098861694],"min":[-0.01770939491689,0.0000684202896081842,-0.13388609886169],"type":"VEC3"},{"bufferView":3,"byteOffset":0,"componentType":5126,"count":430,"type":"VEC3"},{"bufferView":4,"byteOffset":0,"componentType":5126,"count":430,"type":"VEC4"},{"bufferView":5,"byteOffset":0,"componentType":5126,"count":430,"type":"VEC2"},{"bufferView":6,"byteOffset":0,"componentType":5126,"count":430,"type":"VEC2"},{"bufferView":7,"byteOffset":0,"componentType":5123,"count":1398,"type":"SCALAR"},{"bufferView":8,"byteOffset":0,"componentType":5126,"count":342,"max":[0.0177093986421824,0.327298194169998,0.133886098861694],"min":[-0.01835380122066,0.0000684202896081842,-0.13388609886169],"type":"VEC3"},{"bufferView":9,"byteOffset":0,"componentType":5126,"count":342,"type":"VEC3"},{"bufferView":10,"byteOffset":0,"componentType":5126,"count":342,"type":"VEC4"},{"bufferView":11,"byteOffset":0,"componentType":5126,"count":342,"type":"VEC2"},{"bufferView":12,"byteOffset":0,"componentType":5126,"count":342,"type":"VEC2"},{"bufferView":13,"byteOffset":0,"componentType":5123,"count":930,"type":"SCALAR"},{"bufferView":14,"byteOffset":0,"componentType":5126,"count":257,"max":[0.019424906000495,0.326552182435989,0.133886098861694],"min":[-0.01878849416971,0.0000684202896081842,-0.13388609886169],"type":"VEC3"},{"bufferView":15,"byteOffset":0,"componentType":5126,"count":257,"type":"VEC3"},{"bufferView":16,"byteOffset":0,"componentType":5126,"count":257,"type":"VEC4"},{"bufferView":17,"byteOffset":0,"componentType":5126,"count":257,"type":"VEC2"},{"bufferView":18,"byteOffset":0,"componentType":5126,"count":257,"type":"VEC2"},{"bufferView":19,"byteOffset":0,"componentType":5123,"count":234,"type":"SCALAR"},{"bufferView":20,"byteOffset":0,"componentType":5126,"count":95,"max":[0.0204080436378717,0.330570071935654,0.133707270026207],"min":[-0.01866273395717,-0.00229406822473,-0.13385425508022],"type":"VEC3"},{"bufferView":21,"byteOffset":0,"componentType":5126,"count":95,"type":"VEC3"},{"bufferView":22,"byteOffset":0,"componentType":5126,"count":95,"type":"VEC4"},{"bufferView":23,"byteOffset":0,"componentType":5126,"count":95,"type":"VEC2"},{"bufferView":24,"byteOffset":0,"componentType":5126,"count":95,"type":"VEC2"},{"bufferView":25,"byteOffset":0,"componentType":5123,"count":240,"type":"SCALAR"},{"bufferView":26,"byteOffset":0,"componentType":5126,"count":46,"max":[0.0190458558499813,0.324540585279465,0.133834317326546],"min":[-0.0182221159339,0.00211224518716335,-0.13017807900906],"type":"VEC3"},{"bufferView":27,"byteOffset":0,"componentType":5126,"count":46,"type":"VEC3"},{"bufferView":28,"byteOffset":0,"componentType":5126,"count":46,"type":"VEC2"},{"bufferView":29,"byteOffset":0,"componentType":5126,"count":46,"type":"VEC2"}],"animations":[{"channels":[],"name":"Unreal Take","samplers":[]}],"asset":{"generator":"FBX2glTF v0.13.0","version":"2.0"},"bufferViews":[{"buffer":0,"byteLength":4,"byteOffset":0},{"buffer":0,"byteLength":3732,"byteOffset":4,"target":34963},{"buffer":0,"byteLength":5160,"byteOffset":3736,"target":34962},{"buffer":0,"byteLength":5160,"byteOffset":8896,"target":34962},{"buffer":0,"byteLength":6880,"byteOffset":14056,"target":34962},{"buffer":0,"byteLength":3440,"byteOffset":20936,"target":34962},{"buffer":0,"byteLength":3440,"byteOffset":24376,"target":34962},{"buffer":0,"byteLength":2796,"byteOffset":27816,"target":34963},{"buffer":0,"byteLength":4104,"byteOffset":30612,"target":34962},{"buffer":0,"byteLength":4104,"byteOffset":34716,"target":34962},{"buffer":0,"byteLength":5472,"byteOffset":38820,"target":34962},{"buffer":0,"byteLength":2736,"byteOffset":44292,"target":34962},{"buffer":0,"byteLength":2736,"byteOffset":47028,"target":34962},{"buffer":0,"byteLength":1860,"byteOffset":49764,"target":34963},{"buffer":0,"byteLength":3084,"byteOffset":51624,"target":34962},{"buffer":0,"byteLength":3084,"byteOffset":54708,"target":34962},{"buffer":0,"byteLength":4112,"byteOffset":57792,"target":34962},{"buffer":0,"byteLength":2056,"byteOffset":61904,"target":34962},{"buffer":0,"byteLength":2056,"byteOffset":63960,"target":34962},{"buffer":0,"byteLength":468,"byteOffset":66016,"target":34963},{"buffer":0,"byteLength":1140,"byteOffset":66484,"target":34962},{"buffer":0,"byteLength":1140,"byteOffset":67624,"target":34962},{"buffer":0,"byteLength":1520,"byteOffset":68764,"target":34962},{"buffer":0,"byteLength":760,"byteOffset":70284,"target":34962},{"buffer":0,"byteLength":760,"byteOffset":71044,"target":34962},{"buffer":0,"byteLength":480,"byteOffset":71804,"target":34963},{"buffer":0,"byteLength":552,"byteOffset":72284,"target":34962},{"buffer":0,"byteLength":552,"byteOffset":72836,"target":34962},{"buffer":0,"byteLength":368,"byteOffset":73388,"target":34962},{"buffer":0,"byteLength":368,"byteOffset":73756,"target":34962}],"buffers":[{"byteLength":74124,"uri":"SM_Brush01.bin"}],"images":[{"name":"T_Woodprops_02_N","uri":"T_Woodprops_02_N.png"},{"name":"T_Woodprops_02_B","uri":"T_Woodprops_02_B.png"}],"materials":[{"alphaMode":"OPAQUE","doubleSided":false,"extras":{"fromFBX":{"isTruePBR":false,"shadingModel":"Phong"}},"name":"MI_Brush_01","normalTexture":{"index":0,"texCoord":0},"pbrMetallicRoughness":{"baseColorFactor":[1,1,1,1],"baseColorTexture":{"index":1,"texCoord":0},"metallicFactor":0.400000005960464,"roughnessFactor":0.301511347293854}},{"alphaMode":"OPAQUE","doubleSided":false,"extras":{"fromFBX":{"isTruePBR":false,"shadingModel":"Lambert"}},"name":"DefaultMaterial","pbrMetallicRoughness":{"baseColorFactor":[0.5,0.5,0.5,1],"metallicFactor":0.200000002980232,"roughnessFactor":0.800000011920929}}],"meshes":[{"name":"SM_Brush01_LOD0","primitives":[{"attributes":{"NORMAL":3,"POSITION":2,"TANGENT":4,"TEXCOORD_0":5,"TEXCOORD_1":6},"indices":1,"material":0,"mode":4}]},{"name":"SM_Brush01_LOD1","primitives":[{"attributes":{"NORMAL":9,"POSITION":8,"TANGENT":10,"TEXCOORD_0":11,"TEXCOORD_1":12},"indices":7,"material":0,"mode":4}]},{"name":"SM_Brush01_LOD2","primitives":[{"attributes":{"NORMAL":15,"POSITION":14,"TANGENT":16,"TEXCOORD_0":17,"TEXCOORD_1":18},"indices":13,"material":0,"mode":4}]},{"name":"SM_Brush01_LOD3","primitives":[{"attributes":{"NORMAL":21,"POSITION":20,"TANGENT":22,"TEXCOORD_0":23,"TEXCOORD_1":24},"indices":19,"material":0,"mode":4}]},{"name":"SM_Brush01_ConvexHulls","primitives":[{"attributes":{"NORMAL":27,"POSITION":26,"TEXCOORD_0":28,"TEXCOORD_1":29},"indices":25,"material":1,"mode":4}]}],"nodes":[{"children":[1,2,3,4,5],"name":"SM_Brush01_12","originalUnits":0.00999999977648258,"pivot":[0,0,0],"rotation":[0,0,0,1],"scale":[1,1,1],"translation":[0,0,0]},{"mesh":0,"name":"SM_Brush01_LOD0","originalUnits":0.00999999977648258,"pivot":[0,0,0],"rotation":[0,0,0,1],"scale":[1,1,1],"translation":[0,0,0]},{"mesh":4,"name":"SM_Brush01_ConvexHulls","originalUnits":0.00999999977648258,"pivot":[0,0,0],"rotation":[0,0,0,1],"scale":[1,1,1],"translation":[0,0,0]},{"mesh":1,"name":"SM_Brush01_LOD1","originalUnits":0.00999999977648258,"pivot":[0,0,0],"rotation":[0,0,0,1],"scale":[1,1,1],"translation":[0,0,0]},{"mesh":2,"name":"SM_Brush01_LOD2","originalUnits":0.00999999977648258,"pivot":[0,0,0],"rotation":[0,0,0,1],"scale":[1,1,1],"translation":[0,0,0]},{"mesh":3,"name":"SM_Brush01_LOD3","originalUnits":0.00999999977648258,"pivot":[0,0,0],"rotation":[0,0,0,1],"scale":[1,1,1],"translation":[0,0,0]}],"samplers":[{}],"scene":0,"scenes":[{"name":"Root Scene","nodes":[0]}],"textures":[{"name":"MI_Brush_01","sampler":0,"source":0},{"name":"MI_Brush_01","sampler":0,"source":1}]}