{"accessors":[{"bufferView":0,"byteOffset":0,"componentType":5126,"count":1,"max":[0],"min":[0],"type":"SCALAR"},{"bufferView":1,"byteOffset":0,"componentType":5123,"count":864,"type":"SCALAR"},{"bufferView":2,"byteOffset":0,"componentType":5126,"count":196,"max":[0.0472231321036816,0.174552947282791,0.0472231507301331],"min":[-0.04722315818071,0.0118005452677608,-0.04722316563129],"type":"VEC3"},{"bufferView":3,"byteOffset":0,"componentType":5126,"count":196,"type":"VEC3"},{"bufferView":4,"byteOffset":0,"componentType":5126,"count":196,"type":"VEC4"},{"bufferView":5,"byteOffset":0,"componentType":5126,"count":196,"type":"VEC2"},{"bufferView":6,"byteOffset":0,"componentType":5126,"count":196,"type":"VEC2"},{"bufferView":7,"byteOffset":0,"componentType":5123,"count":666,"type":"SCALAR"},{"bufferView":8,"byteOffset":0,"componentType":5126,"count":163,"max":[0.0472231321036816,0.174552947282791,0.0472231507301331],"min":[-0.04722315818071,0.0118005452677608,-0.04722316563129],"type":"VEC3"},{"bufferView":9,"byteOffset":0,"componentType":5126,"count":163,"type":"VEC3"},{"bufferView":10,"byteOffset":0,"componentType":5126,"count":163,"type":"VEC4"},{"bufferView":11,"byteOffset":0,"componentType":5126,"count":163,"type":"VEC2"},{"bufferView":12,"byteOffset":0,"componentType":5126,"count":163,"type":"VEC2"},{"bufferView":13,"byteOffset":0,"componentType":5123,"count":510,"type":"SCALAR"},{"bufferView":14,"byteOffset":0,"componentType":5126,"count":137,"max":[0.0472231321036816,0.174588263034821,0.0472231507301331],"min":[-0.04722315818071,0.0118005452677608,-0.04722316563129],"type":"VEC3"},{"bufferView":15,"byteOffset":0,"componentType":5126,"count":137,"type":"VEC3"},{"bufferView":16,"byteOffset":0,"componentType":5126,"count":137,"type":"VEC4"},{"bufferView":17,"byteOffset":0,"componentType":5126,"count":137,"type":"VEC2"},{"bufferView":18,"byteOffset":0,"componentType":5126,"count":137,"type":"VEC2"},{"bufferView":19,"byteOffset":0,"componentType":5123,"count":168,"type":"SCALAR"},{"bufferView":20,"byteOffset":0,"componentType":5126,"count":61,"max":[0.0472231321036816,0.174643620848656,0.0484655946493149],"min":[-0.04722315818071,0.0118005452677608,-0.04722316563129],"type":"VEC3"},{"bufferView":21,"byteOffset":0,"componentType":5126,"count":61,"type":"VEC3"},{"bufferView":22,"byteOffset":0,"componentType":5126,"count":61,"type":"VEC4"},{"bufferView":23,"byteOffset":0,"componentType":5126,"count":61,"type":"VEC2"},{"bufferView":24,"byteOffset":0,"componentType":5126,"count":61,"type":"VEC2"},{"bufferView":25,"byteOffset":0,"componentType":5123,"count":480,"type":"SCALAR"},{"bufferView":26,"byteOffset":0,"componentType":5126,"count":126,"max":[0.0166446771472692,0.404089719057083,0.0166446547955275],"min":[-0.01664465852082,0.345720589160919,-0.01664466969669],"type":"VEC3"},{"bufferView":27,"byteOffset":0,"componentType":5126,"count":126,"type":"VEC3"},{"bufferView":28,"byteOffset":0,"componentType":5126,"count":126,"type":"VEC4"},{"bufferView":29,"byteOffset":0,"componentType":5126,"count":126,"type":"VEC2"},{"bufferView":30,"byteOffset":0,"componentType":5126,"count":126,"type":"VEC2"},{"bufferView":31,"byteOffset":0,"componentType":5123,"count":294,"type":"SCALAR"},{"bufferView":32,"byteOffset":0,"componentType":5126,"count":83,"max":[0.0167852900922298,0.404089719057083,0.016103258356452],"min":[-0.01692206412554,0.345684349536896,-0.01678399369121],"type":"VEC3"},{"bufferView":33,"byteOffset":0,"componentType":5126,"count":83,"type":"VEC3"},{"bufferView":34,"byteOffset":0,"componentType":5126,"count":83,"type":"VEC4"},{"bufferView":35,"byteOffset":0,"componentType":5126,"count":83,"type":"VEC2"},{"bufferView":36,"byteOffset":0,"componentType":5126,"count":83,"type":"VEC2"},{"bufferView":37,"byteOffset":0,"componentType":5123,"count":174,"type":"SCALAR"},{"bufferView":38,"byteOffset":0,"componentType":5126,"count":54,"max":[0.0162061471492052,0.404062330722809,0.0162616297602654],"min":[-0.01656943373382,0.345672786235809,-0.01627974770963],"type":"VEC3"},{"bufferView":39,"byteOffset":0,"componentType":5126,"count":54,"type":"VEC3"},{"bufferView":40,"byteOffset":0,"componentType":5126,"count":54,"type":"VEC4"},{"bufferView":41,"byteOffset":0,"componentType":5126,"count":54,"type":"VEC2"},{"bufferView":42,"byteOffset":0,"componentType":5126,"count":54,"type":"VEC2"},{"bufferView":43,"byteOffset":0,"componentType":5123,"count":42,"type":"SCALAR"},{"bufferView":44,"byteOffset":0,"componentType":5126,"count":20,"max":[0.0180776622146368,0.404730588197708,0.0152851659804583],"min":[-0.01593750156462,0.342689841985703,-0.01715037599206],"type":"VEC3"},{"bufferView":45,"byteOffset":0,"componentType":5126,"count":20,"type":"VEC3"},{"bufferView":46,"byteOffset":0,"componentType":5126,"count":20,"type":"VEC4"},{"bufferView":47,"byteOffset":0,"componentType":5126,"count":20,"type":"VEC2"},{"bufferView":48,"byteOffset":0,"componentType":5126,"count":20,"type":"VEC2"},{"bufferView":49,"byteOffset":0,"componentType":5123,"count":4032,"type":"SCALAR"},{"bufferView":50,"byteOffset":0,"componentType":5126,"count":772,"max":[0.0557401590049267,0.385487884283066,0.0557401739060879],"min":[-0.05574015900493,-0.00000000058041,-0.05574017390609],"type":"VEC3"},{"bufferView":51,"byteOffset":0,"componentType":5126,"count":772,"type":"VEC3"},{"bufferView":52,"byteOffset":0,"componentType":5126,"count":772,"type":"VEC4"},{"bufferView":53,"byteOffset":0,"componentType":5126,"count":772,"type":"VEC2"},{"bufferView":54,"byteOffset":0,"componentType":5126,"count":772,"type":"VEC2"},{"bufferView":55,"byteOffset":0,"componentType":5123,"count":3072,"type":"SCALAR"},{"bufferView":56,"byteOffset":0,"componentType":5126,"count":612,"max":[0.0557401590049267,0.385487884283066,0.0557401739060879],"min":[-0.05574015900493,-0.00000000056063,-0.05574017390609],"type":"VEC3"},{"bufferView":57,"byteOffset":0,"componentType":5126,"count":612,"type":"VEC3"},{"bufferView":58,"byteOffset":0,"componentType":5126,"count":612,"type":"VEC4"},{"bufferView":59,"byteOffset":0,"componentType":5126,"count":612,"type":"VEC2"},{"bufferView":60,"byteOffset":0,"componentType":5126,"count":612,"type":"VEC2"},{"bufferView":61,"byteOffset":0,"componentType":5123,"count":2004,"type":"SCALAR"},{"bufferView":62,"byteOffset":0,"componentType":5126,"count":431,"max":[0.0557401590049267,0.385625690221786,0.0560980029404163],"min":[-0.05614052712917,-0.0000069949715,-0.05618958175182],"type":"VEC3"},{"bufferView":63,"byteOffset":0,"componentType":5126,"count":431,"type":"VEC3"},{"bufferView":64,"byteOffset":0,"componentType":5126,"count":431,"type":"VEC4"},{"bufferView":65,"byteOffset":0,"componentType":5126,"count":431,"type":"VEC2"},{"bufferView":66,"byteOffset":0,"componentType":5126,"count":431,"type":"VEC2"},{"bufferView":67,"byteOffset":0,"componentType":5123,"count":462,"type":"SCALAR"},{"bufferView":68,"byteOffset":0,"componentType":5126,"count":115,"max":[0.0546604990959167,0.388319879770279,0.0571309141814709],"min":[-0.05790368467569,-0.0000031311713,-0.05612335726619],"type":"VEC3"},{"bufferView":69,"byteOffset":0,"componentType":5126,"count":115,"type":"VEC3"},{"bufferView":70,"byteOffset":0,"componentType":5126,"count":115,"type":"VEC4"},{"bufferView":71,"byteOffset":0,"componentType":5126,"count":115,"type":"VEC2"},{"bufferView":72,"byteOffset":0,"componentType":5126,"count":115,"type":"VEC2"},{"bufferView":73,"byteOffset":0,"componentType":5123,"count":84,"type":"SCALAR"},{"bufferView":74,"byteOffset":0,"componentType":5126,"count":16,"max":[0.0528543516993523,0.38628363609314,0.0540374219417572],"min":[-0.05200023949146,0.00465789623558521,-0.05377141013741],"type":"VEC3"},{"bufferView":75,"byteOffset":0,"componentType":5126,"count":16,"type":"VEC3"},{"bufferView":76,"byteOffset":0,"componentType":5126,"count":16,"type":"VEC2"},{"bufferView":77,"byteOffset":0,"componentType":5126,"count":16,"type":"VEC2"}],"animations":[{"channels":[],"name":"Unreal Take","samplers":[]}],"asset":{"generator":"FBX2glTF v0.13.0","version":"2.0"},"bufferViews":[{"buffer":0,"byteLength":4,"byteOffset":0},{"buffer":0,"byteLength":1728,"byteOffset":4,"target":34963},{"buffer":0,"byteLength":2352,"byteOffset":1732,"target":34962},{"buffer":0,"byteLength":2352,"byteOffset":4084,"target":34962},{"buffer":0,"byteLength":3136,"byteOffset":6436,"target":34962},{"buffer":0,"byteLength":1568,"byteOffset":9572,"target":34962},{"buffer":0,"byteLength":1568,"byteOffset":11140,"target":34962},{"buffer":0,"byteLength":1332,"byteOffset":12708,"target":34963},{"buffer":0,"byteLength":1956,"byteOffset":14040,"target":34962},{"buffer":0,"byteLength":1956,"byteOffset":15996,"target":34962},{"buffer":0,"byteLength":2608,"byteOffset":17952,"target":34962},{"buffer":0,"byteLength":1304,"byteOffset":20560,"target":34962},{"buffer":0,"byteLength":1304,"byteOffset":21864,"target":34962},{"buffer":0,"byteLength":1020,"byteOffset":23168,"target":34963},{"buffer":0,"byteLength":1644,"byteOffset":24188,"target":34962},{"buffer":0,"byteLength":1644,"byteOffset":25832,"target":34962},{"buffer":0,"byteLength":2192,"byteOffset":27476,"target":34962},{"buffer":0,"byteLength":1096,"byteOffset":29668,"target":34962},{"buffer":0,"byteLength":1096,"byteOffset":30764,"target":34962},{"buffer":0,"byteLength":336,"byteOffset":31860,"target":34963},{"buffer":0,"byteLength":732,"byteOffset":32196,"target":34962},{"buffer":0,"byteLength":732,"byteOffset":32928,"target":34962},{"buffer":0,"byteLength":976,"byteOffset":33660,"target":34962},{"buffer":0,"byteLength":488,"byteOffset":34636,"target":34962},{"buffer":0,"byteLength":488,"byteOffset":35124,"target":34962},{"buffer":0,"byteLength":960,"byteOffset":35612,"target":34963},{"buffer":0,"byteLength":1512,"byteOffset":36572,"target":34962},{"buffer":0,"byteLength":1512,"byteOffset":38084,"target":34962},{"buffer":0,"byteLength":2016,"byteOffset":39596,"target":34962},{"buffer":0,"byteLength":1008,"byteOffset":41612,"target":34962},{"buffer":0,"byteLength":1008,"byteOffset":42620,"target":34962},{"buffer":0,"byteLength":588,"byteOffset":43628,"target":34963},{"buffer":0,"byteLength":996,"byteOffset":44216,"target":34962},{"buffer":0,"byteLength":996,"byteOffset":45212,"target":34962},{"buffer":0,"byteLength":1328,"byteOffset":46208,"target":34962},{"buffer":0,"byteLength":664,"byteOffset":47536,"target":34962},{"buffer":0,"byteLength":664,"byteOffset":48200,"target":34962},{"buffer":0,"byteLength":348,"byteOffset":48864,"target":34963},{"buffer":0,"byteLength":648,"byteOffset":49212,"target":34962},{"buffer":0,"byteLength":648,"byteOffset":49860,"target":34962},{"buffer":0,"byteLength":864,"byteOffset":50508,"target":34962},{"buffer":0,"byteLength":432,"byteOffset":51372,"target":34962},{"buffer":0,"byteLength":432,"byteOffset":51804,"target":34962},{"buffer":0,"byteLength":84,"byteOffset":52236,"target":34963},{"buffer":0,"byteLength":240,"byteOffset":52320,"target":34962},{"buffer":0,"byteLength":240,"byteOffset":52560,"target":34962},{"buffer":0,"byteLength":320,"byteOffset":52800,"target":34962},{"buffer":0,"byteLength":160,"byteOffset":53120,"target":34962},{"buffer":0,"byteLength":160,"byteOffset":53280,"target":34962},{"buffer":0,"byteLength":8064,"byteOffset":53440,"target":34963},{"buffer":0,"byteLength":9264,"byteOffset":61504,"target":34962},{"buffer":0,"byteLength":9264,"byteOffset":70768,"target":34962},{"buffer":0,"byteLength":12352,"byteOffset":80032,"target":34962},{"buffer":0,"byteLength":6176,"byteOffset":92384,"target":34962},{"buffer":0,"byteLength":6176,"byteOffset":98560,"target":34962},{"buffer":0,"byteLength":6144,"byteOffset":104736,"target":34963},{"buffer":0,"byteLength":7344,"byteOffset":110880,"target":34962},{"buffer":0,"byteLength":7344,"byteOffset":118224,"target":34962},{"buffer":0,"byteLength":9792,"byteOffset":125568,"target":34962},{"buffer":0,"byteLength":4896,"byteOffset":135360,"target":34962},{"buffer":0,"byteLength":4896,"byteOffset":140256,"target":34962},{"buffer":0,"byteLength":4008,"byteOffset":145152,"target":34963},{"buffer":0,"byteLength":5172,"byteOffset":149160,"target":34962},{"buffer":0,"byteLength":5172,"byteOffset":154332,"target":34962},{"buffer":0,"byteLength":6896,"byteOffset":159504,"target":34962},{"buffer":0,"byteLength":3448,"byteOffset":166400,"target":34962},{"buffer":0,"byteLength":3448,"byteOffset":169848,"target":34962},{"buffer":0,"byteLength":924,"byteOffset":173296,"target":34963},{"buffer":0,"byteLength":1380,"byteOffset":174220,"target":34962},{"buffer":0,"byteLength":1380,"byteOffset":175600,"target":34962},{"buffer":0,"byteLength":1840,"byteOffset":176980,"target":34962},{"buffer":0,"byteLength":920,"byteOffset":178820,"target":34962},{"buffer":0,"byteLength":920,"byteOffset":179740,"target":34962},{"buffer":0,"byteLength":168,"byteOffset":180660,"target":34963},{"buffer":0,"byteLength":192,"byteOffset":180828,"target":34962},{"buffer":0,"byteLength":192,"byteOffset":181020,"target":34962},{"buffer":0,"byteLength":128,"byteOffset":181212,"target":34962},{"buffer":0,"byteLength":128,"byteOffset":181340,"target":34962}],"buffers":[{"byteLength":181468,"uri":"SM_Bottle.bin"}],"images":[{"name":"T_Default_Material_Grid_N","uri":"T_Default_Material_Grid_N.png"},{"name":"T_Default_Material_Grid_M","uri":"T_Default_Material_Grid_M.png"},{"name":"T_GlassProps_N","uri":"T_GlassProps_N.png"},{"name":"T_GlassProps_B","uri":"T_GlassProps_B.png"}],"materials":[{"alphaMode":"OPAQUE","doubleSided":false,"extras":{"fromFBX":{"isTruePBR":false,"shadingModel":"Phong"}},"name":"WorldGridMaterial","normalTexture":{"index":0,"texCoord":0},"pbrMetallicRoughness":{"baseColorFactor":[1,1,1,1],"baseColorTexture":{"index":1,"texCoord":0},"metallicFactor":0.400000005960464,"roughnessFactor":0.301511347293854}},{"alphaMode":"OPAQUE","doubleSided":false,"extras":{"fromFBX":{"isTruePBR":false,"shadingModel":"Phong"}},"name":"MI_GlassProps","normalTexture":{"index":2,"texCoord":0},"pbrMetallicRoughness":{"baseColorFactor":[1,1,1,1],"baseColorTexture":{"index":3,"texCoord":0},"metallicFactor":0.400000005960464,"roughnessFactor":0.301511347293854}},{"alphaMode":"OPAQUE","doubleSided":false,"extras":{"fromFBX":{"isTruePBR":false,"shadingModel":"Phong"}},"name":"MI_Bulb","pbrMetallicRoughness":{"baseColorFactor":[0.800000011920929,0.800000011920929,0.800000011920929,1],"metallicFactor":0.400000005960464,"roughnessFactor":0.301511347293854}},{"alphaMode":"OPAQUE","doubleSided":false,"extras":{"fromFBX":{"isTruePBR":false,"shadingModel":"Lambert"}},"name":"DefaultMaterial","pbrMetallicRoughness":{"baseColorFactor":[0.5,0.5,0.5,1],"metallicFactor":0.200000002980232,"roughnessFactor":0.800000011920929}}],"meshes":[{"name":"SM_Bottle_LOD0","primitives":[{"attributes":{"NORMAL":3,"POSITION":2,"TANGENT":4,"TEXCOORD_0":5,"TEXCOORD_1":6},"indices":1,"material":0,"mode":4},{"attributes":{"NORMAL":27,"POSITION":26,"TANGENT":28,"TEXCOORD_0":29,"TEXCOORD_1":30},"indices":25,"material":1,"mode":4},{"attributes":{"NORMAL":51,"POSITION":50,"TANGENT":52,"TEXCOORD_0":53,"TEXCOORD_1":54},"indices":49,"material":2,"mode":4}]},{"name":"SM_Bottle_LOD1","primitives":[{"attributes":{"NORMAL":9,"POSITION":8,"TANGENT":10,"TEXCOORD_0":11,"TEXCOORD_1":12},"indices":7,"material":0,"mode":4},{"attributes":{"NORMAL":33,"POSITION":32,"TANGENT":34,"TEXCOORD_0":35,"TEXCOORD_1":36},"indices":31,"material":1,"mode":4},{"attributes":{"NORMAL":57,"POSITION":56,"TANGENT":58,"TEXCOORD_0":59,"TEXCOORD_1":60},"indices":55,"material":2,"mode":4}]},{"name":"SM_Bottle_LOD2","primitives":[{"attributes":{"NORMAL":15,"POSITION":14,"TANGENT":16,"TEXCOORD_0":17,"TEXCOORD_1":18},"indices":13,"material":0,"mode":4},{"attributes":{"NORMAL":39,"POSITION":38,"TANGENT":40,"TEXCOORD_0":41,"TEXCOORD_1":42},"indices":37,"material":1,"mode":4},{"attributes":{"NORMAL":63,"POSITION":62,"TANGENT":64,"TEXCOORD_0":65,"TEXCOORD_1":66},"indices":61,"material":2,"mode":4}]},{"name":"SM_Bottle_LOD3","primitives":[{"attributes":{"NORMAL":21,"POSITION":20,"TANGENT":22,"TEXCOORD_0":23,"TEXCOORD_1":24},"indices":19,"material":0,"mode":4},{"attributes":{"NORMAL":45,"POSITION":44,"TANGENT":46,"TEXCOORD_0":47,"TEXCOORD_1":48},"indices":43,"material":1,"mode":4},{"attributes":{"NORMAL":69,"POSITION":68,"TANGENT":70,"TEXCOORD_0":71,"TEXCOORD_1":72},"indices":67,"material":2,"mode":4}]},{"name":"SM_Bottle_ConvexHulls","primitives":[{"attributes":{"NORMAL":75,"POSITION":74,"TEXCOORD_0":76,"TEXCOORD_1":77},"indices":73,"material":3,"mode":4}]}],"nodes":[{"children":[1,2,3,4,5],"name":"SM_Bottle_5","originalUnits":0.00999999977648258,"pivot":[0,0,0],"rotation":[0,0,0,1],"scale":[1,1,1],"translation":[0,0,0]},{"mesh":0,"name":"SM_Bottle_LOD0","originalUnits":0.00999999977648258,"pivot":[0,0,0],"rotation":[0,0,0,1],"scale":[1,1,1],"translation":[0,0,0]},{"mesh":4,"name":"SM_Bottle_ConvexHulls","originalUnits":0.00999999977648258,"pivot":[0,0,0],"rotation":[0,0,0,1],"scale":[1,1,1],"translation":[0,0,0]},{"mesh":1,"name":"SM_Bottle_LOD1","originalUnits":0.00999999977648258,"pivot":[0,0,0],"rotation":[0,0,0,1],"scale":[1,1,1],"translation":[0,0,0]},{"mesh":2,"name":"SM_Bottle_LOD2","originalUnits":0.00999999977648258,"pivot":[0,0,0],"rotation":[0,0,0,1],"scale":[1,1,1],"translation":[0,0,0]},{"mesh":3,"name":"SM_Bottle_LOD3","originalUnits":0.00999999977648258,"pivot":[0,0,0],"rotation":[0,0,0,1],"scale":[1,1,1],"translation":[0,0,0]}],"samplers":[{}],"scene":0,"scenes":[{"name":"Root Scene","nodes":[0]}],"textures":[{"name":"WorldGridMaterial","sampler":0,"source":0},{"name":"WorldGridMaterial","sampler":0,"source":1},{"name":"MI_GlassProps","sampler":0,"source":2},{"name":"MI_GlassProps","sampler":0,"source":3}]}