{"accessors":[{"bufferView":0,"byteOffset":0,"componentType":5126,"count":1,"max":[0],"min":[0],"type":"SCALAR"},{"bufferView":1,"byteOffset":0,"componentType":5123,"count":288,"type":"SCALAR"},{"bufferView":2,"byteOffset":0,"componentType":5126,"count":84,"max":[0.0140609191730618,0.0987038388848305,0.192291617393494],"min":[-0.18266984820366,0.00190287828445435,-0.20487023890018],"type":"VEC3"},{"bufferView":3,"byteOffset":0,"componentType":5126,"count":84,"type":"VEC3"},{"bufferView":4,"byteOffset":0,"componentType":5126,"count":84,"type":"VEC4"},{"bufferView":5,"byteOffset":0,"componentType":5126,"count":84,"type":"VEC2"},{"bufferView":6,"byteOffset":0,"componentType":5126,"count":84,"type":"VEC2"},{"bufferView":7,"byteOffset":0,"componentType":5123,"count":216,"type":"SCALAR"},{"bufferView":8,"byteOffset":0,"componentType":5126,"count":68,"max":[0.0140609191730618,0.0987038388848305,0.192291617393494],"min":[-0.18348088860512,0.00190287828445435,-0.20487023890018],"type":"VEC3"},{"bufferView":9,"byteOffset":0,"componentType":5126,"count":68,"type":"VEC3"},{"bufferView":10,"byteOffset":0,"componentType":5126,"count":68,"type":"VEC4"},{"bufferView":11,"byteOffset":0,"componentType":5126,"count":68,"type":"VEC2"},{"bufferView":12,"byteOffset":0,"componentType":5126,"count":68,"type":"VEC2"},{"bufferView":13,"byteOffset":0,"componentType":5123,"count":144,"type":"SCALAR"},{"bufferView":14,"byteOffset":0,"componentType":5126,"count":46,"max":[0.0140609191730618,0.0987366735935211,0.195391580462456],"min":[-0.18348088860512,0.00190287828445435,-0.21530997753143],"type":"VEC3"},{"bufferView":15,"byteOffset":0,"componentType":5126,"count":46,"type":"VEC3"},{"bufferView":16,"byteOffset":0,"componentType":5126,"count":46,"type":"VEC4"},{"bufferView":17,"byteOffset":0,"componentType":5126,"count":46,"type":"VEC2"},{"bufferView":18,"byteOffset":0,"componentType":5126,"count":46,"type":"VEC2"},{"bufferView":19,"byteOffset":0,"componentType":5123,"count":36,"type":"SCALAR"},{"bufferView":20,"byteOffset":0,"componentType":5126,"count":18,"max":[0.0137829296290874,0.0966329425573349,0.209328889846802],"min":[-0.19361087679863,-0.00370638235472,-0.2129515260458],"type":"VEC3"},{"bufferView":21,"byteOffset":0,"componentType":5126,"count":18,"type":"VEC3"},{"bufferView":22,"byteOffset":0,"componentType":5126,"count":18,"type":"VEC4"},{"bufferView":23,"byteOffset":0,"componentType":5126,"count":18,"type":"VEC2"},{"bufferView":24,"byteOffset":0,"componentType":5126,"count":18,"type":"VEC2"},{"bufferView":25,"byteOffset":0,"componentType":5123,"count":312,"type":"SCALAR"},{"bufferView":26,"byteOffset":0,"componentType":5126,"count":60,"max":[0.0126720424741507,0.0975153222680092,0.189527064561844],"min":[-0.18243469297886,0.0052213273011148,-0.20455825328827],"type":"VEC3"},{"bufferView":27,"byteOffset":0,"componentType":5126,"count":60,"type":"VEC3"},{"bufferView":28,"byteOffset":0,"componentType":5126,"count":60,"type":"VEC2"},{"bufferView":29,"byteOffset":0,"componentType":5126,"count":60,"type":"VEC2"}],"animations":[{"channels":[],"name":"Unreal Take","samplers":[]}],"asset":{"generator":"FBX2glTF v0.13.0","version":"2.0"},"bufferViews":[{"buffer":0,"byteLength":4,"byteOffset":0},{"buffer":0,"byteLength":576,"byteOffset":4,"target":34963},{"buffer":0,"byteLength":1008,"byteOffset":580,"target":34962},{"buffer":0,"byteLength":1008,"byteOffset":1588,"target":34962},{"buffer":0,"byteLength":1344,"byteOffset":2596,"target":34962},{"buffer":0,"byteLength":672,"byteOffset":3940,"target":34962},{"buffer":0,"byteLength":672,"byteOffset":4612,"target":34962},{"buffer":0,"byteLength":432,"byteOffset":5284,"target":34963},{"buffer":0,"byteLength":816,"byteOffset":5716,"target":34962},{"buffer":0,"byteLength":816,"byteOffset":6532,"target":34962},{"buffer":0,"byteLength":1088,"byteOffset":7348,"target":34962},{"buffer":0,"byteLength":544,"byteOffset":8436,"target":34962},{"buffer":0,"byteLength":544,"byteOffset":8980,"target":34962},{"buffer":0,"byteLength":288,"byteOffset":9524,"target":34963},{"buffer":0,"byteLength":552,"byteOffset":9812,"target":34962},{"buffer":0,"byteLength":552,"byteOffset":10364,"target":34962},{"buffer":0,"byteLength":736,"byteOffset":10916,"target":34962},{"buffer":0,"byteLength":368,"byteOffset":11652,"target":34962},{"buffer":0,"byteLength":368,"byteOffset":12020,"target":34962},{"buffer":0,"byteLength":72,"byteOffset":12388,"target":34963},{"buffer":0,"byteLength":216,"byteOffset":12460,"target":34962},{"buffer":0,"byteLength":216,"byteOffset":12676,"target":34962},{"buffer":0,"byteLength":288,"byteOffset":12892,"target":34962},{"buffer":0,"byteLength":144,"byteOffset":13180,"target":34962},{"buffer":0,"byteLength":144,"byteOffset":13324,"target":34962},{"buffer":0,"byteLength":624,"byteOffset":13468,"target":34963},{"buffer":0,"byteLength":720,"byteOffset":14092,"target":34962},{"buffer":0,"byteLength":720,"byteOffset":14812,"target":34962},{"buffer":0,"byteLength":480,"byteOffset":15532,"target":34962},{"buffer":0,"byteLength":480,"byteOffset":16012,"target":34962}],"buffers":[{"byteLength":16492,"uri":"SM_Bread_Slice.bin"}],"images":[{"name":"T_Food_N","uri":"T_Food_N.png"},{"name":"T_Food_B","uri":"T_Food_B.png"}],"materials":[{"alphaMode":"OPAQUE","doubleSided":false,"extras":{"fromFBX":{"isTruePBR":false,"shadingModel":"Phong"}},"name":"MI_Food_02","normalTexture":{"index":0,"texCoord":0},"pbrMetallicRoughness":{"baseColorFactor":[1,1,1,1],"baseColorTexture":{"index":1,"texCoord":0},"metallicFactor":0.400000005960464,"roughnessFactor":0.301511347293854}},{"alphaMode":"OPAQUE","doubleSided":false,"extras":{"fromFBX":{"isTruePBR":false,"shadingModel":"Lambert"}},"name":"DefaultMaterial","pbrMetallicRoughness":{"baseColorFactor":[0.5,0.5,0.5,1],"metallicFactor":0.200000002980232,"roughnessFactor":0.800000011920929}}],"meshes":[{"name":"SM_Bread_Slice_LOD0","primitives":[{"attributes":{"NORMAL":3,"POSITION":2,"TANGENT":4,"TEXCOORD_0":5,"TEXCOORD_1":6},"indices":1,"material":0,"mode":4}]},{"name":"SM_Bread_Slice_LOD1","primitives":[{"attributes":{"NORMAL":9,"POSITION":8,"TANGENT":10,"TEXCOORD_0":11,"TEXCOORD_1":12},"indices":7,"material":0,"mode":4}]},{"name":"SM_Bread_Slice_LOD2","primitives":[{"attributes":{"NORMAL":15,"POSITION":14,"TANGENT":16,"TEXCOORD_0":17,"TEXCOORD_1":18},"indices":13,"material":0,"mode":4}]},{"name":"SM_Bread_Slice_LOD3","primitives":[{"attributes":{"NORMAL":21,"POSITION":20,"TANGENT":22,"TEXCOORD_0":23,"TEXCOORD_1":24},"indices":19,"material":0,"mode":4}]},{"name":"SM_Bread_Slice_ConvexHulls","primitives":[{"attributes":{"NORMAL":27,"POSITION":26,"TEXCOORD_0":28,"TEXCOORD_1":29},"indices":25,"material":1,"mode":4}]}],"nodes":[{"children":[1,2,3,4,5],"name":"SM_Bread_Slice_7","originalUnits":0.00999999977648258,"pivot":[0,0,0],"rotation":[0,0,0,1],"scale":[1,1,1],"translation":[0,0,0]},{"mesh":0,"name":"SM_Bread_Slice_LOD0","originalUnits":0.00999999977648258,"pivot":[0,0,0],"rotation":[0,0,0,1],"scale":[1,1,1],"translation":[0,0,0]},{"mesh":4,"name":"SM_Bread_Slice_ConvexHulls","originalUnits":0.00999999977648258,"pivot":[0,0,0],"rotation":[0,0,0,1],"scale":[1,1,1],"translation":[0,0,0]},{"mesh":1,"name":"SM_Bread_Slice_LOD1","originalUnits":0.00999999977648258,"pivot":[0,0,0],"rotation":[0,0,0,1],"scale":[1,1,1],"translation":[0,0,0]},{"mesh":2,"name":"SM_Bread_Slice_LOD2","originalUnits":0.00999999977648258,"pivot":[0,0,0],"rotation":[0,0,0,1],"scale":[1,1,1],"translation":[0,0,0]},{"mesh":3,"name":"SM_Bread_Slice_LOD3","originalUnits":0.00999999977648258,"pivot":[0,0,0],"rotation":[0,0,0,1],"scale":[1,1,1],"translation":[0,0,0]}],"samplers":[{}],"scene":0,"scenes":[{"name":"Root Scene","nodes":[0]}],"textures":[{"name":"MI_Food_02","sampler":0,"source":0},{"name":"MI_Food_02","sampler":0,"source":1}]}