{"accessors":[{"bufferView":0,"byteOffset":0,"componentType":5126,"count":1,"max":[0],"min":[0],"type":"SCALAR"},{"bufferView":1,"byteOffset":0,"componentType":5123,"count":1656,"type":"SCALAR"},{"bufferView":2,"byteOffset":0,"componentType":5126,"count":491,"max":[0.0731030106544495,1.88505637645721,0.278979778289795],"min":[-0.07314625382423,0.00932938139885664,-0.27897995710373],"type":"VEC3"},{"bufferView":3,"byteOffset":0,"componentType":5126,"count":491,"type":"VEC3"},{"bufferView":4,"byteOffset":0,"componentType":5126,"count":491,"type":"VEC4"},{"bufferView":5,"byteOffset":0,"componentType":5126,"count":491,"type":"VEC2"},{"bufferView":6,"byteOffset":0,"componentType":5126,"count":491,"type":"VEC2"},{"bufferView":7,"byteOffset":0,"componentType":5123,"count":1242,"type":"SCALAR"},{"bufferView":8,"byteOffset":0,"componentType":5126,"count":390,"max":[0.0731030106544495,1.88809907436371,0.279398620128632],"min":[-0.07314625382423,0.00932938139885664,-0.27917602658272],"type":"VEC3"},{"bufferView":9,"byteOffset":0,"componentType":5126,"count":390,"type":"VEC3"},{"bufferView":10,"byteOffset":0,"componentType":5126,"count":390,"type":"VEC4"},{"bufferView":11,"byteOffset":0,"componentType":5126,"count":390,"type":"VEC2"},{"bufferView":12,"byteOffset":0,"componentType":5126,"count":390,"type":"VEC2"},{"bufferView":13,"byteOffset":0,"componentType":5123,"count":825,"type":"SCALAR"},{"bufferView":14,"byteOffset":0,"componentType":5126,"count":286,"max":[0.0731030106544495,1.89030301570892,0.281477957963943],"min":[-0.07314625382423,0.00926012080162764,-0.28042224049568],"type":"VEC3"},{"bufferView":15,"byteOffset":0,"componentType":5126,"count":286,"type":"VEC3"},{"bufferView":16,"byteOffset":0,"componentType":5126,"count":286,"type":"VEC4"},{"bufferView":17,"byteOffset":0,"componentType":5126,"count":286,"type":"VEC2"},{"bufferView":18,"byteOffset":0,"componentType":5126,"count":286,"type":"VEC2"},{"bufferView":19,"byteOffset":0,"componentType":5123,"count":207,"type":"SCALAR"},{"bufferView":20,"byteOffset":0,"componentType":5126,"count":115,"max":[0.075403019785881,1.88629424571991,0.268504232168198],"min":[-0.07314625382423,0.00908142793923616,-0.28244289755821],"type":"VEC3"},{"bufferView":21,"byteOffset":0,"componentType":5126,"count":115,"type":"VEC3"},{"bufferView":22,"byteOffset":0,"componentType":5126,"count":115,"type":"VEC4"},{"bufferView":23,"byteOffset":0,"componentType":5126,"count":115,"type":"VEC2"},{"bufferView":24,"byteOffset":0,"componentType":5126,"count":115,"type":"VEC2"},{"bufferView":25,"byteOffset":0,"componentType":5123,"count":252,"type":"SCALAR"},{"bufferView":26,"byteOffset":0,"componentType":5126,"count":48,"max":[0.0792238861322403,1.88884842395782,0.272490411996841],"min":[-0.07228774577379,0.00305011565797031,-0.26181289553642],"type":"VEC3"},{"bufferView":27,"byteOffset":0,"componentType":5126,"count":48,"type":"VEC3"},{"bufferView":28,"byteOffset":0,"componentType":5126,"count":48,"type":"VEC2"},{"bufferView":29,"byteOffset":0,"componentType":5126,"count":48,"type":"VEC2"}],"animations":[{"channels":[],"name":"Unreal Take","samplers":[]}],"asset":{"generator":"FBX2glTF v0.13.0","version":"2.0"},"bufferViews":[{"buffer":0,"byteLength":4,"byteOffset":0},{"buffer":0,"byteLength":3312,"byteOffset":4,"target":34963},{"buffer":0,"byteLength":5892,"byteOffset":3316,"target":34962},{"buffer":0,"byteLength":5892,"byteOffset":9208,"target":34962},{"buffer":0,"byteLength":7856,"byteOffset":15100,"target":34962},{"buffer":0,"byteLength":3928,"byteOffset":22956,"target":34962},{"buffer":0,"byteLength":3928,"byteOffset":26884,"target":34962},{"buffer":0,"byteLength":2484,"byteOffset":30812,"target":34963},{"buffer":0,"byteLength":4680,"byteOffset":33296,"target":34962},{"buffer":0,"byteLength":4680,"byteOffset":37976,"target":34962},{"buffer":0,"byteLength":6240,"byteOffset":42656,"target":34962},{"buffer":0,"byteLength":3120,"byteOffset":48896,"target":34962},{"buffer":0,"byteLength":3120,"byteOffset":52016,"target":34962},{"buffer":0,"byteLength":1650,"byteOffset":55136,"target":34963},{"buffer":0,"byteLength":3432,"byteOffset":56788,"target":34962},{"buffer":0,"byteLength":3432,"byteOffset":60220,"target":34962},{"buffer":0,"byteLength":4576,"byteOffset":63652,"target":34962},{"buffer":0,"byteLength":2288,"byteOffset":68228,"target":34962},{"buffer":0,"byteLength":2288,"byteOffset":70516,"target":34962},{"buffer":0,"byteLength":414,"byteOffset":72804,"target":34963},{"buffer":0,"byteLength":1380,"byteOffset":73220,"target":34962},{"buffer":0,"byteLength":1380,"byteOffset":74600,"target":34962},{"buffer":0,"byteLength":1840,"byteOffset":75980,"target":34962},{"buffer":0,"byteLength":920,"byteOffset":77820,"target":34962},{"buffer":0,"byteLength":920,"byteOffset":78740,"target":34962},{"buffer":0,"byteLength":504,"byteOffset":79660,"target":34963},{"buffer":0,"byteLength":576,"byteOffset":80164,"target":34962},{"buffer":0,"byteLength":576,"byteOffset":80740,"target":34962},{"buffer":0,"byteLength":384,"byteOffset":81316,"target":34962},{"buffer":0,"byteLength":384,"byteOffset":81700,"target":34962}],"buffers":[{"byteLength":82084,"uri":"SM_Big_Brush.bin"}],"images":[{"name":"T_Woodprops_02_N","uri":"T_Woodprops_02_N.png"},{"name":"T_Woodprops_02_B","uri":"T_Woodprops_02_B.png"}],"materials":[{"alphaMode":"OPAQUE","doubleSided":false,"extras":{"fromFBX":{"isTruePBR":false,"shadingModel":"Phong"}},"name":"MI_Brush_02","normalTexture":{"index":0,"texCoord":0},"pbrMetallicRoughness":{"baseColorFactor":[1,1,1,1],"baseColorTexture":{"index":1,"texCoord":0},"metallicFactor":0.400000005960464,"roughnessFactor":0.301511347293854}},{"alphaMode":"OPAQUE","doubleSided":false,"extras":{"fromFBX":{"isTruePBR":false,"shadingModel":"Lambert"}},"name":"DefaultMaterial","pbrMetallicRoughness":{"baseColorFactor":[0.5,0.5,0.5,1],"metallicFactor":0.200000002980232,"roughnessFactor":0.800000011920929}}],"meshes":[{"name":"SM_Big_Brush_LOD0","primitives":[{"attributes":{"NORMAL":3,"POSITION":2,"TANGENT":4,"TEXCOORD_0":5,"TEXCOORD_1":6},"indices":1,"material":0,"mode":4}]},{"name":"SM_Big_Brush_LOD1","primitives":[{"attributes":{"NORMAL":9,"POSITION":8,"TANGENT":10,"TEXCOORD_0":11,"TEXCOORD_1":12},"indices":7,"material":0,"mode":4}]},{"name":"SM_Big_Brush_LOD2","primitives":[{"attributes":{"NORMAL":15,"POSITION":14,"TANGENT":16,"TEXCOORD_0":17,"TEXCOORD_1":18},"indices":13,"material":0,"mode":4}]},{"name":"SM_Big_Brush_LOD3","primitives":[{"attributes":{"NORMAL":21,"POSITION":20,"TANGENT":22,"TEXCOORD_0":23,"TEXCOORD_1":24},"indices":19,"material":0,"mode":4}]},{"name":"SM_Big_Brush_ConvexHulls","primitives":[{"attributes":{"NORMAL":27,"POSITION":26,"TEXCOORD_0":28,"TEXCOORD_1":29},"indices":25,"material":1,"mode":4}]}],"nodes":[{"children":[1,2,3,4,5],"name":"SM_Big_Brush_4","originalUnits":0.00999999977648258,"pivot":[0,0,0],"rotation":[0,0,0,1],"scale":[1,1,1],"translation":[0,0,0]},{"mesh":0,"name":"SM_Big_Brush_LOD0","originalUnits":0.00999999977648258,"pivot":[0,0,0],"rotation":[0,0,0,1],"scale":[1,1,1],"translation":[0,0,0]},{"mesh":4,"name":"SM_Big_Brush_ConvexHulls","originalUnits":0.00999999977648258,"pivot":[0,0,0],"rotation":[0,0,0,1],"scale":[1,1,1],"translation":[0,0,0]},{"mesh":1,"name":"SM_Big_Brush_LOD1","originalUnits":0.00999999977648258,"pivot":[0,0,0],"rotation":[0,0,0,1],"scale":[1,1,1],"translation":[0,0,0]},{"mesh":2,"name":"SM_Big_Brush_LOD2","originalUnits":0.00999999977648258,"pivot":[0,0,0],"rotation":[0,0,0,1],"scale":[1,1,1],"translation":[0,0,0]},{"mesh":3,"name":"SM_Big_Brush_LOD3","originalUnits":0.00999999977648258,"pivot":[0,0,0],"rotation":[0,0,0,1],"scale":[1,1,1],"translation":[0,0,0]}],"samplers":[{}],"scene":0,"scenes":[{"name":"Root Scene","nodes":[0]}],"textures":[{"name":"MI_Brush_02","sampler":0,"source":0},{"name":"MI_Brush_02","sampler":0,"source":1}]}