{"accessors":[{"bufferView":0,"byteOffset":0,"componentType":5126,"count":1,"max":[0],"min":[0],"type":"SCALAR"},{"bufferView":1,"byteOffset":0,"componentType":5123,"count":27096,"type":"SCALAR"},{"bufferView":2,"byteOffset":0,"componentType":5126,"count":8171,"max":[0.496869802474976,2.55360960960388,0.78170520067215],"min":[-0.49686980247498,-0.04028346017003,-0.78170520067215],"type":"VEC3"},{"bufferView":3,"byteOffset":0,"componentType":5126,"count":8171,"type":"VEC3"},{"bufferView":4,"byteOffset":0,"componentType":5126,"count":8171,"type":"VEC4"},{"bufferView":5,"byteOffset":0,"componentType":5126,"count":8171,"type":"VEC2"},{"bufferView":6,"byteOffset":0,"componentType":5126,"count":8171,"type":"VEC2"},{"bufferView":7,"byteOffset":0,"componentType":5123,"count":20322,"type":"SCALAR"},{"bufferView":8,"byteOffset":0,"componentType":5126,"count":6569,"max":[0.496869802474976,2.55360960960388,0.78170520067215],"min":[-0.49686980247498,-0.04028346017003,-0.78170520067215],"type":"VEC3"},{"bufferView":9,"byteOffset":0,"componentType":5126,"count":6569,"type":"VEC3"},{"bufferView":10,"byteOffset":0,"componentType":5126,"count":6569,"type":"VEC4"},{"bufferView":11,"byteOffset":0,"componentType":5126,"count":6569,"type":"VEC2"},{"bufferView":12,"byteOffset":0,"componentType":5126,"count":6569,"type":"VEC2"},{"bufferView":13,"byteOffset":0,"componentType":5123,"count":13548,"type":"SCALAR"},{"bufferView":14,"byteOffset":0,"componentType":5126,"count":4823,"max":[0.496869802474976,2.55360960960388,0.781750857830048],"min":[-0.49792298674583,-0.04032310470939,-0.78427535295486],"type":"VEC3"},{"bufferView":15,"byteOffset":0,"componentType":5126,"count":4823,"type":"VEC3"},{"bufferView":16,"byteOffset":0,"componentType":5126,"count":4823,"type":"VEC4"},{"bufferView":17,"byteOffset":0,"componentType":5126,"count":4823,"type":"VEC2"},{"bufferView":18,"byteOffset":0,"componentType":5126,"count":4823,"type":"VEC2"},{"bufferView":19,"byteOffset":0,"componentType":5123,"count":3387,"type":"SCALAR"},{"bufferView":20,"byteOffset":0,"componentType":5126,"count":1644,"max":[0.515285551548004,2.58694171905518,0.781013011932373],"min":[-0.50083094835281,-0.00404813839123,-0.78427535295486],"type":"VEC3"},{"bufferView":21,"byteOffset":0,"componentType":5126,"count":1644,"type":"VEC3"},{"bufferView":22,"byteOffset":0,"componentType":5126,"count":1644,"type":"VEC4"},{"bufferView":23,"byteOffset":0,"componentType":5126,"count":1644,"type":"VEC2"},{"bufferView":24,"byteOffset":0,"componentType":5126,"count":1644,"type":"VEC2"},{"bufferView":25,"byteOffset":0,"componentType":5123,"count":846,"type":"SCALAR"},{"bufferView":26,"byteOffset":0,"componentType":5126,"count":173,"max":[0.495010942220688,2.53047871589661,0.787694990634918],"min":[-0.49315956234932,-0.04623156785965,-0.7811906337738],"type":"VEC3"},{"bufferView":27,"byteOffset":0,"componentType":5126,"count":173,"type":"VEC3"},{"bufferView":28,"byteOffset":0,"componentType":5126,"count":173,"type":"VEC2"},{"bufferView":29,"byteOffset":0,"componentType":5126,"count":173,"type":"VEC2"}],"animations":[{"channels":[],"name":"Unreal Take","samplers":[]}],"asset":{"generator":"FBX2glTF v0.13.0","version":"2.0"},"bufferViews":[{"buffer":0,"byteLength":4,"byteOffset":0},{"buffer":0,"byteLength":54192,"byteOffset":4,"target":34963},{"buffer":0,"byteLength":98052,"byteOffset":54196,"target":34962},{"buffer":0,"byteLength":98052,"byteOffset":152248,"target":34962},{"buffer":0,"byteLength":130736,"byteOffset":250300,"target":34962},{"buffer":0,"byteLength":65368,"byteOffset":381036,"target":34962},{"buffer":0,"byteLength":65368,"byteOffset":446404,"target":34962},{"buffer":0,"byteLength":40644,"byteOffset":511772,"target":34963},{"buffer":0,"byteLength":78828,"byteOffset":552416,"target":34962},{"buffer":0,"byteLength":78828,"byteOffset":631244,"target":34962},{"buffer":0,"byteLength":105104,"byteOffset":710072,"target":34962},{"buffer":0,"byteLength":52552,"byteOffset":815176,"target":34962},{"buffer":0,"byteLength":52552,"byteOffset":867728,"target":34962},{"buffer":0,"byteLength":27096,"byteOffset":920280,"target":34963},{"buffer":0,"byteLength":57876,"byteOffset":947376,"target":34962},{"buffer":0,"byteLength":57876,"byteOffset":1005252,"target":34962},{"buffer":0,"byteLength":77168,"byteOffset":1063128,"target":34962},{"buffer":0,"byteLength":38584,"byteOffset":1140296,"target":34962},{"buffer":0,"byteLength":38584,"byteOffset":1178880,"target":34962},{"buffer":0,"byteLength":6774,"byteOffset":1217464,"target":34963},{"buffer":0,"byteLength":19728,"byteOffset":1224240,"target":34962},{"buffer":0,"byteLength":19728,"byteOffset":1243968,"target":34962},{"buffer":0,"byteLength":26304,"byteOffset":1263696,"target":34962},{"buffer":0,"byteLength":13152,"byteOffset":1290000,"target":34962},{"buffer":0,"byteLength":13152,"byteOffset":1303152,"target":34962},{"buffer":0,"byteLength":1692,"byteOffset":1316304,"target":34963},{"buffer":0,"byteLength":2076,"byteOffset":1317996,"target":34962},{"buffer":0,"byteLength":2076,"byteOffset":1320072,"target":34962},{"buffer":0,"byteLength":1384,"byteOffset":1322148,"target":34962},{"buffer":0,"byteLength":1384,"byteOffset":1323532,"target":34962}],"buffers":[{"byteLength":1324916,"uri":"SM_Band_Saw.bin"}],"images":[{"name":"T_BandSaw_N","uri":"T_BandSaw_N.png"},{"name":"T_BandSaw_B","uri":"T_BandSaw_B.png"}],"materials":[{"alphaMode":"OPAQUE","doubleSided":false,"extras":{"fromFBX":{"isTruePBR":false,"shadingModel":"Phong"}},"name":"MI_BandSaw","normalTexture":{"index":0,"texCoord":0},"pbrMetallicRoughness":{"baseColorFactor":[1,1,1,1],"baseColorTexture":{"index":1,"texCoord":0},"metallicFactor":0.400000005960464,"roughnessFactor":0.301511347293854}},{"alphaMode":"OPAQUE","doubleSided":false,"extras":{"fromFBX":{"isTruePBR":false,"shadingModel":"Lambert"}},"name":"DefaultMaterial","pbrMetallicRoughness":{"baseColorFactor":[0.5,0.5,0.5,1],"metallicFactor":0.200000002980232,"roughnessFactor":0.800000011920929}}],"meshes":[{"name":"SM_Band_Saw_LOD0","primitives":[{"attributes":{"NORMAL":3,"POSITION":2,"TANGENT":4,"TEXCOORD_0":5,"TEXCOORD_1":6},"indices":1,"material":0,"mode":4}]},{"name":"SM_Band_Saw_LOD1","primitives":[{"attributes":{"NORMAL":9,"POSITION":8,"TANGENT":10,"TEXCOORD_0":11,"TEXCOORD_1":12},"indices":7,"material":0,"mode":4}]},{"name":"SM_Band_Saw_LOD2","primitives":[{"attributes":{"NORMAL":15,"POSITION":14,"TANGENT":16,"TEXCOORD_0":17,"TEXCOORD_1":18},"indices":13,"material":0,"mode":4}]},{"name":"SM_Band_Saw_LOD3","primitives":[{"attributes":{"NORMAL":21,"POSITION":20,"TANGENT":22,"TEXCOORD_0":23,"TEXCOORD_1":24},"indices":19,"material":0,"mode":4}]},{"name":"SM_Band_Saw_ConvexHulls","primitives":[{"attributes":{"NORMAL":27,"POSITION":26,"TEXCOORD_0":28,"TEXCOORD_1":29},"indices":25,"material":1,"mode":4}]}],"nodes":[{"children":[1,2,3,4,5],"name":"SM_Band_Saw_2","originalUnits":0.00999999977648258,"pivot":[0,0,0],"rotation":[0,0,0,1],"scale":[1,1,1],"translation":[0,0,0]},{"mesh":0,"name":"SM_Band_Saw_LOD0","originalUnits":0.00999999977648258,"pivot":[0,0,0],"rotation":[0,0,0,1],"scale":[1,1,1],"translation":[0,0,0]},{"mesh":4,"name":"SM_Band_Saw_ConvexHulls","originalUnits":0.00999999977648258,"pivot":[0,0,0],"rotation":[0,0,0,1],"scale":[1,1,1],"translation":[0,0,0]},{"mesh":1,"name":"SM_Band_Saw_LOD1","originalUnits":0.00999999977648258,"pivot":[0,0,0],"rotation":[0,0,0,1],"scale":[1,1,1],"translation":[0,0,0]},{"mesh":2,"name":"SM_Band_Saw_LOD2","originalUnits":0.00999999977648258,"pivot":[0,0,0],"rotation":[0,0,0,1],"scale":[1,1,1],"translation":[0,0,0]},{"mesh":3,"name":"SM_Band_Saw_LOD3","originalUnits":0.00999999977648258,"pivot":[0,0,0],"rotation":[0,0,0,1],"scale":[1,1,1],"translation":[0,0,0]}],"samplers":[{}],"scene":0,"scenes":[{"name":"Root Scene","nodes":[0]}],"textures":[{"name":"MI_BandSaw","sampler":0,"source":0},{"name":"MI_BandSaw","sampler":0,"source":1}]}