{"accessors":[{"bufferView":0,"byteOffset":0,"componentType":5126,"count":1,"max":[0],"min":[0],"type":"SCALAR"},{"bufferView":1,"byteOffset":0,"componentType":5123,"count":3138,"type":"SCALAR"},{"bufferView":2,"byteOffset":0,"componentType":5126,"count":764,"max":[0.0693327188491821,0.495357811450958,0.14855483174324],"min":[-0.24268384277821,-0.00089356477838,-0.14855483174324],"type":"VEC3"},{"bufferView":3,"byteOffset":0,"componentType":5126,"count":764,"type":"VEC3"},{"bufferView":4,"byteOffset":0,"componentType":5126,"count":764,"type":"VEC4"},{"bufferView":5,"byteOffset":0,"componentType":5126,"count":764,"type":"VEC2"},{"bufferView":6,"byteOffset":0,"componentType":5126,"count":764,"type":"VEC2"},{"bufferView":7,"byteOffset":0,"componentType":5123,"count":2352,"type":"SCALAR"},{"bufferView":8,"byteOffset":0,"componentType":5126,"count":574,"max":[0.0693327188491821,0.495538771152496,0.14855483174324],"min":[-0.24268384277821,-0.00089356477838,-0.14855483174324],"type":"VEC3"},{"bufferView":9,"byteOffset":0,"componentType":5126,"count":574,"type":"VEC3"},{"bufferView":10,"byteOffset":0,"componentType":5126,"count":574,"type":"VEC4"},{"bufferView":11,"byteOffset":0,"componentType":5126,"count":574,"type":"VEC2"},{"bufferView":12,"byteOffset":0,"componentType":5126,"count":574,"type":"VEC2"},{"bufferView":13,"byteOffset":0,"componentType":5123,"count":1566,"type":"SCALAR"},{"bufferView":14,"byteOffset":0,"componentType":5126,"count":400,"max":[0.0693327188491821,0.494301795959473,0.14855483174324],"min":[-0.24268384277821,-0.00190134579316,-0.14912571012974],"type":"VEC3"},{"bufferView":15,"byteOffset":0,"componentType":5126,"count":400,"type":"VEC3"},{"bufferView":16,"byteOffset":0,"componentType":5126,"count":400,"type":"VEC4"},{"bufferView":17,"byteOffset":0,"componentType":5126,"count":400,"type":"VEC2"},{"bufferView":18,"byteOffset":0,"componentType":5126,"count":400,"type":"VEC2"},{"bufferView":19,"byteOffset":0,"componentType":5123,"count":390,"type":"SCALAR"},{"bufferView":20,"byteOffset":0,"componentType":5126,"count":135,"max":[0.0674846097826958,0.492095023393631,0.148218184709549],"min":[-0.24260964989662,-0.00102248671465,-0.14821067452431],"type":"VEC3"},{"bufferView":21,"byteOffset":0,"componentType":5126,"count":135,"type":"VEC3"},{"bufferView":22,"byteOffset":0,"componentType":5126,"count":135,"type":"VEC4"},{"bufferView":23,"byteOffset":0,"componentType":5126,"count":135,"type":"VEC2"},{"bufferView":24,"byteOffset":0,"componentType":5126,"count":135,"type":"VEC2"},{"bufferView":25,"byteOffset":0,"componentType":5123,"count":336,"type":"SCALAR"},{"bufferView":26,"byteOffset":0,"componentType":5126,"count":64,"max":[0.0720363780856133,0.493178844451904,0.150863170623779],"min":[-0.24461035430431,-0.00376627338119,-0.15068350732326],"type":"VEC3"},{"bufferView":27,"byteOffset":0,"componentType":5126,"count":64,"type":"VEC3"},{"bufferView":28,"byteOffset":0,"componentType":5126,"count":64,"type":"VEC2"},{"bufferView":29,"byteOffset":0,"componentType":5126,"count":64,"type":"VEC2"}],"animations":[{"channels":[],"name":"Unreal Take","samplers":[]}],"asset":{"generator":"FBX2glTF v0.13.0","version":"2.0"},"bufferViews":[{"buffer":0,"byteLength":4,"byteOffset":0},{"buffer":0,"byteLength":6276,"byteOffset":4,"target":34963},{"buffer":0,"byteLength":9168,"byteOffset":6280,"target":34962},{"buffer":0,"byteLength":9168,"byteOffset":15448,"target":34962},{"buffer":0,"byteLength":12224,"byteOffset":24616,"target":34962},{"buffer":0,"byteLength":6112,"byteOffset":36840,"target":34962},{"buffer":0,"byteLength":6112,"byteOffset":42952,"target":34962},{"buffer":0,"byteLength":4704,"byteOffset":49064,"target":34963},{"buffer":0,"byteLength":6888,"byteOffset":53768,"target":34962},{"buffer":0,"byteLength":6888,"byteOffset":60656,"target":34962},{"buffer":0,"byteLength":9184,"byteOffset":67544,"target":34962},{"buffer":0,"byteLength":4592,"byteOffset":76728,"target":34962},{"buffer":0,"byteLength":4592,"byteOffset":81320,"target":34962},{"buffer":0,"byteLength":3132,"byteOffset":85912,"target":34963},{"buffer":0,"byteLength":4800,"byteOffset":89044,"target":34962},{"buffer":0,"byteLength":4800,"byteOffset":93844,"target":34962},{"buffer":0,"byteLength":6400,"byteOffset":98644,"target":34962},{"buffer":0,"byteLength":3200,"byteOffset":105044,"target":34962},{"buffer":0,"byteLength":3200,"byteOffset":108244,"target":34962},{"buffer":0,"byteLength":780,"byteOffset":111444,"target":34963},{"buffer":0,"byteLength":1620,"byteOffset":112224,"target":34962},{"buffer":0,"byteLength":1620,"byteOffset":113844,"target":34962},{"buffer":0,"byteLength":2160,"byteOffset":115464,"target":34962},{"buffer":0,"byteLength":1080,"byteOffset":117624,"target":34962},{"buffer":0,"byteLength":1080,"byteOffset":118704,"target":34962},{"buffer":0,"byteLength":672,"byteOffset":119784,"target":34963},{"buffer":0,"byteLength":768,"byteOffset":120456,"target":34962},{"buffer":0,"byteLength":768,"byteOffset":121224,"target":34962},{"buffer":0,"byteLength":512,"byteOffset":121992,"target":34962},{"buffer":0,"byteLength":512,"byteOffset":122504,"target":34962}],"buffers":[{"byteLength":123016,"uri":"SM_Bucket.bin"}],"images":[{"name":"T_Woodprops_02_N","uri":"T_Woodprops_02_N.png"},{"name":"T_Woodprops_02_B","uri":"T_Woodprops_02_B.png"}],"materials":[{"alphaMode":"OPAQUE","doubleSided":false,"extras":{"fromFBX":{"isTruePBR":false,"shadingModel":"Phong"}},"name":"MI_Brush_02","normalTexture":{"index":0,"texCoord":0},"pbrMetallicRoughness":{"baseColorFactor":[1,1,1,1],"baseColorTexture":{"index":1,"texCoord":0},"metallicFactor":0.400000005960464,"roughnessFactor":0.301511347293854}},{"alphaMode":"OPAQUE","doubleSided":false,"extras":{"fromFBX":{"isTruePBR":false,"shadingModel":"Lambert"}},"name":"DefaultMaterial","pbrMetallicRoughness":{"baseColorFactor":[0.5,0.5,0.5,1],"metallicFactor":0.200000002980232,"roughnessFactor":0.800000011920929}}],"meshes":[{"name":"SM_Bucket_LOD0","primitives":[{"attributes":{"NORMAL":3,"POSITION":2,"TANGENT":4,"TEXCOORD_0":5,"TEXCOORD_1":6},"indices":1,"material":0,"mode":4}]},{"name":"SM_Bucket_LOD1","primitives":[{"attributes":{"NORMAL":9,"POSITION":8,"TANGENT":10,"TEXCOORD_0":11,"TEXCOORD_1":12},"indices":7,"material":0,"mode":4}]},{"name":"SM_Bucket_LOD2","primitives":[{"attributes":{"NORMAL":15,"POSITION":14,"TANGENT":16,"TEXCOORD_0":17,"TEXCOORD_1":18},"indices":13,"material":0,"mode":4}]},{"name":"SM_Bucket_LOD3","primitives":[{"attributes":{"NORMAL":21,"POSITION":20,"TANGENT":22,"TEXCOORD_0":23,"TEXCOORD_1":24},"indices":19,"material":0,"mode":4}]},{"name":"SM_Bucket_ConvexHulls","primitives":[{"attributes":{"NORMAL":27,"POSITION":26,"TEXCOORD_0":28,"TEXCOORD_1":29},"indices":25,"material":1,"mode":4}]}],"nodes":[{"children":[1,2,3,4,5],"name":"SM_Bucket_15","originalUnits":0.00999999977648258,"pivot":[0,0,0],"rotation":[0,0,0,1],"scale":[1,1,1],"translation":[0,0,0]},{"mesh":0,"name":"SM_Bucket_LOD0","originalUnits":0.00999999977648258,"pivot":[0,0,0],"rotation":[0,0,0,1],"scale":[1,1,1],"translation":[0,0,0]},{"mesh":4,"name":"SM_Bucket_ConvexHulls","originalUnits":0.00999999977648258,"pivot":[0,0,0],"rotation":[0,0,0,1],"scale":[1,1,1],"translation":[0,0,0]},{"mesh":1,"name":"SM_Bucket_LOD1","originalUnits":0.00999999977648258,"pivot":[0,0,0],"rotation":[0,0,0,1],"scale":[1,1,1],"translation":[0,0,0]},{"mesh":2,"name":"SM_Bucket_LOD2","originalUnits":0.00999999977648258,"pivot":[0,0,0],"rotation":[0,0,0,1],"scale":[1,1,1],"translation":[0,0,0]},{"mesh":3,"name":"SM_Bucket_LOD3","originalUnits":0.00999999977648258,"pivot":[0,0,0],"rotation":[0,0,0,1],"scale":[1,1,1],"translation":[0,0,0]}],"samplers":[{}],"scene":0,"scenes":[{"name":"Root Scene","nodes":[0]}],"textures":[{"name":"MI_Brush_02","sampler":0,"source":0},{"name":"MI_Brush_02","sampler":0,"source":1}]}