{"accessors":[{"bufferView":0,"byteOffset":0,"componentType":5126,"count":1,"max":[0],"min":[0],"type":"SCALAR"},{"bufferView":1,"byteOffset":0,"componentType":5123,"count":222,"type":"SCALAR"},{"bufferView":2,"byteOffset":0,"componentType":5126,"count":58,"max":[0.229010611772537,0.239302024245262,0.194344043731689],"min":[-0.20199152827263,0.0111987292766571,-0.221246778965],"type":"VEC3"},{"bufferView":3,"byteOffset":0,"componentType":5126,"count":58,"type":"VEC3"},{"bufferView":4,"byteOffset":0,"componentType":5126,"count":58,"type":"VEC4"},{"bufferView":5,"byteOffset":0,"componentType":5126,"count":58,"type":"VEC2"},{"bufferView":6,"byteOffset":0,"componentType":5126,"count":58,"type":"VEC2"},{"bufferView":7,"byteOffset":0,"componentType":5123,"count":168,"type":"SCALAR"},{"bufferView":8,"byteOffset":0,"componentType":5126,"count":48,"max":[0.229010611772537,0.239302024245262,0.194344043731689],"min":[-0.20199152827263,0.0111987292766571,-0.221246778965],"type":"VEC3"},{"bufferView":9,"byteOffset":0,"componentType":5126,"count":48,"type":"VEC3"},{"bufferView":10,"byteOffset":0,"componentType":5126,"count":48,"type":"VEC4"},{"bufferView":11,"byteOffset":0,"componentType":5126,"count":48,"type":"VEC2"},{"bufferView":12,"byteOffset":0,"componentType":5126,"count":48,"type":"VEC2"},{"bufferView":13,"byteOffset":0,"componentType":5123,"count":108,"type":"SCALAR"},{"bufferView":14,"byteOffset":0,"componentType":5126,"count":35,"max":[0.247044637799263,0.239302024245262,0.211471900343895],"min":[-0.20199152827263,0.0111987292766571,-0.221246778965],"type":"VEC3"},{"bufferView":15,"byteOffset":0,"componentType":5126,"count":35,"type":"VEC3"},{"bufferView":16,"byteOffset":0,"componentType":5126,"count":35,"type":"VEC4"},{"bufferView":17,"byteOffset":0,"componentType":5126,"count":35,"type":"VEC2"},{"bufferView":18,"byteOffset":0,"componentType":5126,"count":35,"type":"VEC2"},{"bufferView":19,"byteOffset":0,"componentType":5123,"count":30,"type":"SCALAR"},{"bufferView":20,"byteOffset":0,"componentType":5126,"count":15,"max":[0.236309617757797,0.243037790060043,0.228424906730652],"min":[-0.20511327683926,-0.00089776742971,-0.21840436756611],"type":"VEC3"},{"bufferView":21,"byteOffset":0,"componentType":5126,"count":15,"type":"VEC3"},{"bufferView":22,"byteOffset":0,"componentType":5126,"count":15,"type":"VEC4"},{"bufferView":23,"byteOffset":0,"componentType":5126,"count":15,"type":"VEC2"},{"bufferView":24,"byteOffset":0,"componentType":5126,"count":15,"type":"VEC2"},{"bufferView":25,"byteOffset":0,"componentType":5123,"count":84,"type":"SCALAR"},{"bufferView":26,"byteOffset":0,"componentType":5126,"count":16,"max":[0.219872131943703,0.238471940159798,0.188601985573769],"min":[-0.20177720487118,0.0133166033774614,-0.21996892988682],"type":"VEC3"},{"bufferView":27,"byteOffset":0,"componentType":5126,"count":16,"type":"VEC3"},{"bufferView":28,"byteOffset":0,"componentType":5126,"count":16,"type":"VEC2"},{"bufferView":29,"byteOffset":0,"componentType":5126,"count":16,"type":"VEC2"}],"animations":[{"channels":[],"name":"Unreal Take","samplers":[]}],"asset":{"generator":"FBX2glTF v0.13.0","version":"2.0"},"bufferViews":[{"buffer":0,"byteLength":4,"byteOffset":0},{"buffer":0,"byteLength":444,"byteOffset":4,"target":34963},{"buffer":0,"byteLength":696,"byteOffset":448,"target":34962},{"buffer":0,"byteLength":696,"byteOffset":1144,"target":34962},{"buffer":0,"byteLength":928,"byteOffset":1840,"target":34962},{"buffer":0,"byteLength":464,"byteOffset":2768,"target":34962},{"buffer":0,"byteLength":464,"byteOffset":3232,"target":34962},{"buffer":0,"byteLength":336,"byteOffset":3696,"target":34963},{"buffer":0,"byteLength":576,"byteOffset":4032,"target":34962},{"buffer":0,"byteLength":576,"byteOffset":4608,"target":34962},{"buffer":0,"byteLength":768,"byteOffset":5184,"target":34962},{"buffer":0,"byteLength":384,"byteOffset":5952,"target":34962},{"buffer":0,"byteLength":384,"byteOffset":6336,"target":34962},{"buffer":0,"byteLength":216,"byteOffset":6720,"target":34963},{"buffer":0,"byteLength":420,"byteOffset":6936,"target":34962},{"buffer":0,"byteLength":420,"byteOffset":7356,"target":34962},{"buffer":0,"byteLength":560,"byteOffset":7776,"target":34962},{"buffer":0,"byteLength":280,"byteOffset":8336,"target":34962},{"buffer":0,"byteLength":280,"byteOffset":8616,"target":34962},{"buffer":0,"byteLength":60,"byteOffset":8896,"target":34963},{"buffer":0,"byteLength":180,"byteOffset":8956,"target":34962},{"buffer":0,"byteLength":180,"byteOffset":9136,"target":34962},{"buffer":0,"byteLength":240,"byteOffset":9316,"target":34962},{"buffer":0,"byteLength":120,"byteOffset":9556,"target":34962},{"buffer":0,"byteLength":120,"byteOffset":9676,"target":34962},{"buffer":0,"byteLength":168,"byteOffset":9796,"target":34963},{"buffer":0,"byteLength":192,"byteOffset":9964,"target":34962},{"buffer":0,"byteLength":192,"byteOffset":10156,"target":34962},{"buffer":0,"byteLength":128,"byteOffset":10348,"target":34962},{"buffer":0,"byteLength":128,"byteOffset":10476,"target":34962}],"buffers":[{"byteLength":10604,"uri":"SM_Bread_Half.bin"}],"images":[{"name":"T_Food_N","uri":"T_Food_N.png"},{"name":"T_Food_B","uri":"T_Food_B.png"}],"materials":[{"alphaMode":"OPAQUE","doubleSided":false,"extras":{"fromFBX":{"isTruePBR":false,"shadingModel":"Phong"}},"name":"MI_Food_02","normalTexture":{"index":0,"texCoord":0},"pbrMetallicRoughness":{"baseColorFactor":[1,1,1,1],"baseColorTexture":{"index":1,"texCoord":0},"metallicFactor":0.400000005960464,"roughnessFactor":0.301511347293854}},{"alphaMode":"OPAQUE","doubleSided":false,"extras":{"fromFBX":{"isTruePBR":false,"shadingModel":"Lambert"}},"name":"DefaultMaterial","pbrMetallicRoughness":{"baseColorFactor":[0.5,0.5,0.5,1],"metallicFactor":0.200000002980232,"roughnessFactor":0.800000011920929}}],"meshes":[{"name":"SM_Bread_Half_LOD0","primitives":[{"attributes":{"NORMAL":3,"POSITION":2,"TANGENT":4,"TEXCOORD_0":5,"TEXCOORD_1":6},"indices":1,"material":0,"mode":4}]},{"name":"SM_Bread_Half_LOD1","primitives":[{"attributes":{"NORMAL":9,"POSITION":8,"TANGENT":10,"TEXCOORD_0":11,"TEXCOORD_1":12},"indices":7,"material":0,"mode":4}]},{"name":"SM_Bread_Half_LOD2","primitives":[{"attributes":{"NORMAL":15,"POSITION":14,"TANGENT":16,"TEXCOORD_0":17,"TEXCOORD_1":18},"indices":13,"material":0,"mode":4}]},{"name":"SM_Bread_Half_LOD3","primitives":[{"attributes":{"NORMAL":21,"POSITION":20,"TANGENT":22,"TEXCOORD_0":23,"TEXCOORD_1":24},"indices":19,"material":0,"mode":4}]},{"name":"SM_Bread_Half_ConvexHulls","primitives":[{"attributes":{"NORMAL":27,"POSITION":26,"TEXCOORD_0":28,"TEXCOORD_1":29},"indices":25,"material":1,"mode":4}]}],"nodes":[{"children":[1,2,3,4,5],"name":"SM_Bread_Half_6","originalUnits":0.00999999977648258,"pivot":[0,0,0],"rotation":[0,0,0,1],"scale":[1,1,1],"translation":[0,0,0]},{"mesh":0,"name":"SM_Bread_Half_LOD0","originalUnits":0.00999999977648258,"pivot":[0,0,0],"rotation":[0,0,0,1],"scale":[1,1,1],"translation":[0,0,0]},{"mesh":4,"name":"SM_Bread_Half_ConvexHulls","originalUnits":0.00999999977648258,"pivot":[0,0,0],"rotation":[0,0,0,1],"scale":[1,1,1],"translation":[0,0,0]},{"mesh":1,"name":"SM_Bread_Half_LOD1","originalUnits":0.00999999977648258,"pivot":[0,0,0],"rotation":[0,0,0,1],"scale":[1,1,1],"translation":[0,0,0]},{"mesh":2,"name":"SM_Bread_Half_LOD2","originalUnits":0.00999999977648258,"pivot":[0,0,0],"rotation":[0,0,0,1],"scale":[1,1,1],"translation":[0,0,0]},{"mesh":3,"name":"SM_Bread_Half_LOD3","originalUnits":0.00999999977648258,"pivot":[0,0,0],"rotation":[0,0,0,1],"scale":[1,1,1],"translation":[0,0,0]}],"samplers":[{}],"scene":0,"scenes":[{"name":"Root Scene","nodes":[0]}],"textures":[{"name":"MI_Food_02","sampler":0,"source":0},{"name":"MI_Food_02","sampler":0,"source":1}]}