{"accessors":[{"bufferView":0,"byteOffset":0,"componentType":5126,"count":1,"max":[0],"min":[0],"type":"SCALAR"},{"bufferView":1,"byteOffset":0,"componentType":5123,"count":1224,"type":"SCALAR"},{"bufferView":2,"byteOffset":0,"componentType":5126,"count":398,"max":[0.286635935306549,0.757434904575348,0.730545163154602],"min":[-0.167903855443,0.00764012010768056,-0.73128598928452],"type":"VEC3"},{"bufferView":3,"byteOffset":0,"componentType":5126,"count":398,"type":"VEC3"},{"bufferView":4,"byteOffset":0,"componentType":5126,"count":398,"type":"VEC4"},{"bufferView":5,"byteOffset":0,"componentType":5126,"count":398,"type":"VEC2"},{"bufferView":6,"byteOffset":0,"componentType":5126,"count":398,"type":"VEC2"},{"bufferView":7,"byteOffset":0,"componentType":5123,"count":918,"type":"SCALAR"},{"bufferView":8,"byteOffset":0,"componentType":5126,"count":333,"max":[0.286682337522507,0.757434904575348,0.730545163154602],"min":[-0.16827571392059,0.00392503943294287,-0.727215051651],"type":"VEC3"},{"bufferView":9,"byteOffset":0,"componentType":5126,"count":333,"type":"VEC3"},{"bufferView":10,"byteOffset":0,"componentType":5126,"count":333,"type":"VEC4"},{"bufferView":11,"byteOffset":0,"componentType":5126,"count":333,"type":"VEC2"},{"bufferView":12,"byteOffset":0,"componentType":5126,"count":333,"type":"VEC2"},{"bufferView":13,"byteOffset":0,"componentType":5123,"count":612,"type":"SCALAR"},{"bufferView":14,"byteOffset":0,"componentType":5126,"count":257,"max":[0.286682337522507,0.757213056087494,0.724315106868744],"min":[-0.16827571392059,-0.00348061369732,-0.72559684514999],"type":"VEC3"},{"bufferView":15,"byteOffset":0,"componentType":5126,"count":257,"type":"VEC3"},{"bufferView":16,"byteOffset":0,"componentType":5126,"count":257,"type":"VEC4"},{"bufferView":17,"byteOffset":0,"componentType":5126,"count":257,"type":"VEC2"},{"bufferView":18,"byteOffset":0,"componentType":5126,"count":257,"type":"VEC2"},{"bufferView":19,"byteOffset":0,"componentType":5123,"count":150,"type":"SCALAR"},{"bufferView":20,"byteOffset":0,"componentType":5126,"count":98,"max":[0.316521555185318,0.759164392948151,0.724315106868744],"min":[-0.20250037312508,0.159017398953438,-0.72971838712692],"type":"VEC3"},{"bufferView":21,"byteOffset":0,"componentType":5126,"count":98,"type":"VEC3"},{"bufferView":22,"byteOffset":0,"componentType":5126,"count":98,"type":"VEC4"},{"bufferView":23,"byteOffset":0,"componentType":5126,"count":98,"type":"VEC2"},{"bufferView":24,"byteOffset":0,"componentType":5126,"count":98,"type":"VEC2"},{"bufferView":25,"byteOffset":0,"componentType":5123,"count":276,"type":"SCALAR"},{"bufferView":26,"byteOffset":0,"componentType":5126,"count":54,"max":[0.292210966348648,0.763662397861481,0.736787080764771],"min":[-0.17434205114842,0.00186391489114612,-0.72661405801773],"type":"VEC3"},{"bufferView":27,"byteOffset":0,"componentType":5126,"count":54,"type":"VEC3"},{"bufferView":28,"byteOffset":0,"componentType":5126,"count":54,"type":"VEC2"},{"bufferView":29,"byteOffset":0,"componentType":5126,"count":54,"type":"VEC2"}],"animations":[{"channels":[],"name":"Unreal Take","samplers":[]}],"asset":{"generator":"FBX2glTF v0.13.0","version":"2.0"},"bufferViews":[{"buffer":0,"byteLength":4,"byteOffset":0},{"buffer":0,"byteLength":2448,"byteOffset":4,"target":34963},{"buffer":0,"byteLength":4776,"byteOffset":2452,"target":34962},{"buffer":0,"byteLength":4776,"byteOffset":7228,"target":34962},{"buffer":0,"byteLength":6368,"byteOffset":12004,"target":34962},{"buffer":0,"byteLength":3184,"byteOffset":18372,"target":34962},{"buffer":0,"byteLength":3184,"byteOffset":21556,"target":34962},{"buffer":0,"byteLength":1836,"byteOffset":24740,"target":34963},{"buffer":0,"byteLength":3996,"byteOffset":26576,"target":34962},{"buffer":0,"byteLength":3996,"byteOffset":30572,"target":34962},{"buffer":0,"byteLength":5328,"byteOffset":34568,"target":34962},{"buffer":0,"byteLength":2664,"byteOffset":39896,"target":34962},{"buffer":0,"byteLength":2664,"byteOffset":42560,"target":34962},{"buffer":0,"byteLength":1224,"byteOffset":45224,"target":34963},{"buffer":0,"byteLength":3084,"byteOffset":46448,"target":34962},{"buffer":0,"byteLength":3084,"byteOffset":49532,"target":34962},{"buffer":0,"byteLength":4112,"byteOffset":52616,"target":34962},{"buffer":0,"byteLength":2056,"byteOffset":56728,"target":34962},{"buffer":0,"byteLength":2056,"byteOffset":58784,"target":34962},{"buffer":0,"byteLength":300,"byteOffset":60840,"target":34963},{"buffer":0,"byteLength":1176,"byteOffset":61140,"target":34962},{"buffer":0,"byteLength":1176,"byteOffset":62316,"target":34962},{"buffer":0,"byteLength":1568,"byteOffset":63492,"target":34962},{"buffer":0,"byteLength":784,"byteOffset":65060,"target":34962},{"buffer":0,"byteLength":784,"byteOffset":65844,"target":34962},{"buffer":0,"byteLength":552,"byteOffset":66628,"target":34963},{"buffer":0,"byteLength":648,"byteOffset":67180,"target":34962},{"buffer":0,"byteLength":648,"byteOffset":67828,"target":34962},{"buffer":0,"byteLength":432,"byteOffset":68476,"target":34962},{"buffer":0,"byteLength":432,"byteOffset":68908,"target":34962}],"buffers":[{"byteLength":69340,"uri":"SM_Bench.bin"}],"images":[{"name":"T_ShelfandBench_N","uri":"T_ShelfandBench_N.png"},{"name":"T_ShelfandBench_B","uri":"T_ShelfandBench_B.png"}],"materials":[{"alphaMode":"OPAQUE","doubleSided":false,"extras":{"fromFBX":{"isTruePBR":false,"shadingModel":"Phong"}},"name":"MI_Bench","normalTexture":{"index":0,"texCoord":0},"pbrMetallicRoughness":{"baseColorFactor":[1,1,1,1],"baseColorTexture":{"index":1,"texCoord":0},"metallicFactor":0.400000005960464,"roughnessFactor":0.301511347293854}},{"alphaMode":"OPAQUE","doubleSided":false,"extras":{"fromFBX":{"isTruePBR":false,"shadingModel":"Lambert"}},"name":"DefaultMaterial","pbrMetallicRoughness":{"baseColorFactor":[0.5,0.5,0.5,1],"metallicFactor":0.200000002980232,"roughnessFactor":0.800000011920929}}],"meshes":[{"name":"SM_Bench_LOD0","primitives":[{"attributes":{"NORMAL":3,"POSITION":2,"TANGENT":4,"TEXCOORD_0":5,"TEXCOORD_1":6},"indices":1,"material":0,"mode":4}]},{"name":"SM_Bench_LOD1","primitives":[{"attributes":{"NORMAL":9,"POSITION":8,"TANGENT":10,"TEXCOORD_0":11,"TEXCOORD_1":12},"indices":7,"material":0,"mode":4}]},{"name":"SM_Bench_LOD2","primitives":[{"attributes":{"NORMAL":15,"POSITION":14,"TANGENT":16,"TEXCOORD_0":17,"TEXCOORD_1":18},"indices":13,"material":0,"mode":4}]},{"name":"SM_Bench_LOD3","primitives":[{"attributes":{"NORMAL":21,"POSITION":20,"TANGENT":22,"TEXCOORD_0":23,"TEXCOORD_1":24},"indices":19,"material":0,"mode":4}]},{"name":"SM_Bench_ConvexHulls","primitives":[{"attributes":{"NORMAL":27,"POSITION":26,"TEXCOORD_0":28,"TEXCOORD_1":29},"indices":25,"material":1,"mode":4}]}],"nodes":[{"children":[1,2,3,4,5],"name":"SM_Bench_3","originalUnits":0.00999999977648258,"pivot":[0,0,0],"rotation":[0,0,0,1],"scale":[1,1,1],"translation":[0,0,0]},{"mesh":0,"name":"SM_Bench_LOD0","originalUnits":0.00999999977648258,"pivot":[0,0,0],"rotation":[0,0,0,1],"scale":[1,1,1],"translation":[0,0,0]},{"mesh":4,"name":"SM_Bench_ConvexHulls","originalUnits":0.00999999977648258,"pivot":[0,0,0],"rotation":[0,0,0,1],"scale":[1,1,1],"translation":[0,0,0]},{"mesh":1,"name":"SM_Bench_LOD1","originalUnits":0.00999999977648258,"pivot":[0,0,0],"rotation":[0,0,0,1],"scale":[1,1,1],"translation":[0,0,0]},{"mesh":2,"name":"SM_Bench_LOD2","originalUnits":0.00999999977648258,"pivot":[0,0,0],"rotation":[0,0,0,1],"scale":[1,1,1],"translation":[0,0,0]},{"mesh":3,"name":"SM_Bench_LOD3","originalUnits":0.00999999977648258,"pivot":[0,0,0],"rotation":[0,0,0,1],"scale":[1,1,1],"translation":[0,0,0]}],"samplers":[{}],"scene":0,"scenes":[{"name":"Root Scene","nodes":[0]}],"textures":[{"name":"MI_Bench","sampler":0,"source":0},{"name":"MI_Bench","sampler":0,"source":1}]}