{"accessors":[{"bufferView":0,"byteOffset":0,"componentType":5126,"count":1,"max":[0],"min":[0],"type":"SCALAR"},{"bufferView":1,"byteOffset":0,"componentType":5123,"count":2454,"type":"SCALAR"},{"bufferView":2,"byteOffset":0,"componentType":5126,"count":594,"max":[0.0128344772383571,0.366458207368851,0.0960864201188087],"min":[-0.01283446885645,0.0000684203041600995,-0.09608642011881],"type":"VEC3"},{"bufferView":3,"byteOffset":0,"componentType":5126,"count":594,"type":"VEC3"},{"bufferView":4,"byteOffset":0,"componentType":5126,"count":594,"type":"VEC4"},{"bufferView":5,"byteOffset":0,"componentType":5126,"count":594,"type":"VEC2"},{"bufferView":6,"byteOffset":0,"componentType":5126,"count":594,"type":"VEC2"},{"bufferView":7,"byteOffset":0,"componentType":5123,"count":1842,"type":"SCALAR"},{"bufferView":8,"byteOffset":0,"componentType":5126,"count":487,"max":[0.0128344772383571,0.366458207368851,0.0960653647780418],"min":[-0.01283446885645,0.0000684203041600995,-0.09606505930424],"type":"VEC3"},{"bufferView":9,"byteOffset":0,"componentType":5126,"count":487,"type":"VEC3"},{"bufferView":10,"byteOffset":0,"componentType":5126,"count":487,"type":"VEC4"},{"bufferView":11,"byteOffset":0,"componentType":5126,"count":487,"type":"VEC2"},{"bufferView":12,"byteOffset":0,"componentType":5126,"count":487,"type":"VEC2"},{"bufferView":13,"byteOffset":0,"componentType":5123,"count":1227,"type":"SCALAR"},{"bufferView":14,"byteOffset":0,"componentType":5126,"count":358,"max":[0.0128344763070345,0.36546790599823,0.09534702450037],"min":[-0.01283446885645,0.0000684203041600995,-0.09538879990578],"type":"VEC3"},{"bufferView":15,"byteOffset":0,"componentType":5126,"count":358,"type":"VEC3"},{"bufferView":16,"byteOffset":0,"componentType":5126,"count":358,"type":"VEC4"},{"bufferView":17,"byteOffset":0,"componentType":5126,"count":358,"type":"VEC2"},{"bufferView":18,"byteOffset":0,"componentType":5126,"count":358,"type":"VEC2"},{"bufferView":19,"byteOffset":0,"componentType":5123,"count":306,"type":"SCALAR"},{"bufferView":20,"byteOffset":0,"componentType":5126,"count":115,"max":[0.0119014224037528,0.367910265922546,0.095405213534832],"min":[-0.01226781122386,-0.00214726640843,-0.09508047252893],"type":"VEC3"},{"bufferView":21,"byteOffset":0,"componentType":5126,"count":115,"type":"VEC3"},{"bufferView":22,"byteOffset":0,"componentType":5126,"count":115,"type":"VEC4"},{"bufferView":23,"byteOffset":0,"componentType":5126,"count":115,"type":"VEC2"},{"bufferView":24,"byteOffset":0,"componentType":5126,"count":115,"type":"VEC2"},{"bufferView":25,"byteOffset":0,"componentType":5123,"count":168,"type":"SCALAR"},{"bufferView":26,"byteOffset":0,"componentType":5126,"count":32,"max":[0.0123257683590055,0.364306777715683,0.0939007103443146],"min":[-0.01412952970713,0.00693393079563975,-0.0946257263422],"type":"VEC3"},{"bufferView":27,"byteOffset":0,"componentType":5126,"count":32,"type":"VEC3"},{"bufferView":28,"byteOffset":0,"componentType":5126,"count":32,"type":"VEC2"},{"bufferView":29,"byteOffset":0,"componentType":5126,"count":32,"type":"VEC2"}],"animations":[{"channels":[],"name":"Unreal Take","samplers":[]}],"asset":{"generator":"FBX2glTF v0.13.0","version":"2.0"},"bufferViews":[{"buffer":0,"byteLength":4,"byteOffset":0},{"buffer":0,"byteLength":4908,"byteOffset":4,"target":34963},{"buffer":0,"byteLength":7128,"byteOffset":4912,"target":34962},{"buffer":0,"byteLength":7128,"byteOffset":12040,"target":34962},{"buffer":0,"byteLength":9504,"byteOffset":19168,"target":34962},{"buffer":0,"byteLength":4752,"byteOffset":28672,"target":34962},{"buffer":0,"byteLength":4752,"byteOffset":33424,"target":34962},{"buffer":0,"byteLength":3684,"byteOffset":38176,"target":34963},{"buffer":0,"byteLength":5844,"byteOffset":41860,"target":34962},{"buffer":0,"byteLength":5844,"byteOffset":47704,"target":34962},{"buffer":0,"byteLength":7792,"byteOffset":53548,"target":34962},{"buffer":0,"byteLength":3896,"byteOffset":61340,"target":34962},{"buffer":0,"byteLength":3896,"byteOffset":65236,"target":34962},{"buffer":0,"byteLength":2454,"byteOffset":69132,"target":34963},{"buffer":0,"byteLength":4296,"byteOffset":71588,"target":34962},{"buffer":0,"byteLength":4296,"byteOffset":75884,"target":34962},{"buffer":0,"byteLength":5728,"byteOffset":80180,"target":34962},{"buffer":0,"byteLength":2864,"byteOffset":85908,"target":34962},{"buffer":0,"byteLength":2864,"byteOffset":88772,"target":34962},{"buffer":0,"byteLength":612,"byteOffset":91636,"target":34963},{"buffer":0,"byteLength":1380,"byteOffset":92248,"target":34962},{"buffer":0,"byteLength":1380,"byteOffset":93628,"target":34962},{"buffer":0,"byteLength":1840,"byteOffset":95008,"target":34962},{"buffer":0,"byteLength":920,"byteOffset":96848,"target":34962},{"buffer":0,"byteLength":920,"byteOffset":97768,"target":34962},{"buffer":0,"byteLength":336,"byteOffset":98688,"target":34963},{"buffer":0,"byteLength":384,"byteOffset":99024,"target":34962},{"buffer":0,"byteLength":384,"byteOffset":99408,"target":34962},{"buffer":0,"byteLength":256,"byteOffset":99792,"target":34962},{"buffer":0,"byteLength":256,"byteOffset":100048,"target":34962}],"buffers":[{"byteLength":100304,"uri":"SM_Brush02.bin"}],"images":[{"name":"T_Woodprops_02_N","uri":"T_Woodprops_02_N.png"},{"name":"T_Woodprops_02_B","uri":"T_Woodprops_02_B.png"}],"materials":[{"alphaMode":"OPAQUE","doubleSided":false,"extras":{"fromFBX":{"isTruePBR":false,"shadingModel":"Phong"}},"name":"MI_Brush_01","normalTexture":{"index":0,"texCoord":0},"pbrMetallicRoughness":{"baseColorFactor":[1,1,1,1],"baseColorTexture":{"index":1,"texCoord":0},"metallicFactor":0.400000005960464,"roughnessFactor":0.301511347293854}},{"alphaMode":"OPAQUE","doubleSided":false,"extras":{"fromFBX":{"isTruePBR":false,"shadingModel":"Lambert"}},"name":"DefaultMaterial","pbrMetallicRoughness":{"baseColorFactor":[0.5,0.5,0.5,1],"metallicFactor":0.200000002980232,"roughnessFactor":0.800000011920929}}],"meshes":[{"name":"SM_Brush02_LOD0","primitives":[{"attributes":{"NORMAL":3,"POSITION":2,"TANGENT":4,"TEXCOORD_0":5,"TEXCOORD_1":6},"indices":1,"material":0,"mode":4}]},{"name":"SM_Brush02_LOD1","primitives":[{"attributes":{"NORMAL":9,"POSITION":8,"TANGENT":10,"TEXCOORD_0":11,"TEXCOORD_1":12},"indices":7,"material":0,"mode":4}]},{"name":"SM_Brush02_LOD2","primitives":[{"attributes":{"NORMAL":15,"POSITION":14,"TANGENT":16,"TEXCOORD_0":17,"TEXCOORD_1":18},"indices":13,"material":0,"mode":4}]},{"name":"SM_Brush02_LOD3","primitives":[{"attributes":{"NORMAL":21,"POSITION":20,"TANGENT":22,"TEXCOORD_0":23,"TEXCOORD_1":24},"indices":19,"material":0,"mode":4}]},{"name":"SM_Brush02_ConvexHulls","primitives":[{"attributes":{"NORMAL":27,"POSITION":26,"TEXCOORD_0":28,"TEXCOORD_1":29},"indices":25,"material":1,"mode":4}]}],"nodes":[{"children":[1,2,3,4,5],"name":"SM_Brush2_13","originalUnits":0.00999999977648258,"pivot":[0,0,0],"rotation":[0,0,0,1],"scale":[1,1,1],"translation":[0,0,0]},{"mesh":0,"name":"SM_Brush02_LOD0","originalUnits":0.00999999977648258,"pivot":[0,0,0],"rotation":[0,0,0,1],"scale":[1,1,1],"translation":[0,0,0]},{"mesh":4,"name":"SM_Brush02_ConvexHulls","originalUnits":0.00999999977648258,"pivot":[0,0,0],"rotation":[0,0,0,1],"scale":[1,1,1],"translation":[0,0,0]},{"mesh":1,"name":"SM_Brush02_LOD1","originalUnits":0.00999999977648258,"pivot":[0,0,0],"rotation":[0,0,0,1],"scale":[1,1,1],"translation":[0,0,0]},{"mesh":2,"name":"SM_Brush02_LOD2","originalUnits":0.00999999977648258,"pivot":[0,0,0],"rotation":[0,0,0,1],"scale":[1,1,1],"translation":[0,0,0]},{"mesh":3,"name":"SM_Brush02_LOD3","originalUnits":0.00999999977648258,"pivot":[0,0,0],"rotation":[0,0,0,1],"scale":[1,1,1],"translation":[0,0,0]}],"samplers":[{}],"scene":0,"scenes":[{"name":"Root Scene","nodes":[0]}],"textures":[{"name":"MI_Brush_01","sampler":0,"source":0},{"name":"MI_Brush_01","sampler":0,"source":1}]}