{"accessors":[{"bufferView":0,"byteOffset":0,"componentType":5126,"count":1,"max":[0],"min":[0],"type":"SCALAR"},{"bufferView":1,"byteOffset":0,"componentType":5123,"count":852,"type":"SCALAR"},{"bufferView":2,"byteOffset":0,"componentType":5126,"count":210,"max":[0.0703753679990768,0.0762761533260345,0.343549102544785],"min":[-0.07037536799908,0.00105070346035063,-0.34354910254478],"type":"VEC3"},{"bufferView":3,"byteOffset":0,"componentType":5126,"count":210,"type":"VEC3"},{"bufferView":4,"byteOffset":0,"componentType":5126,"count":210,"type":"VEC4"},{"bufferView":5,"byteOffset":0,"componentType":5126,"count":210,"type":"VEC2"},{"bufferView":6,"byteOffset":0,"componentType":5126,"count":210,"type":"VEC2"},{"bufferView":7,"byteOffset":0,"componentType":5123,"count":636,"type":"SCALAR"},{"bufferView":8,"byteOffset":0,"componentType":5126,"count":173,"max":[0.0703753679990768,0.0769185125827789,0.343549102544785],"min":[-0.07037536799908,0.00137254141736776,-0.34354910254478],"type":"VEC3"},{"bufferView":9,"byteOffset":0,"componentType":5126,"count":173,"type":"VEC3"},{"bufferView":10,"byteOffset":0,"componentType":5126,"count":173,"type":"VEC4"},{"bufferView":11,"byteOffset":0,"componentType":5126,"count":173,"type":"VEC2"},{"bufferView":12,"byteOffset":0,"componentType":5126,"count":173,"type":"VEC2"},{"bufferView":13,"byteOffset":0,"componentType":5123,"count":426,"type":"SCALAR"},{"bufferView":14,"byteOffset":0,"componentType":5126,"count":122,"max":[0.0703753679990768,0.0805967673659325,0.34464693069458],"min":[-0.07431214302778,0.00123929290566593,-0.34464555978775],"type":"VEC3"},{"bufferView":15,"byteOffset":0,"componentType":5126,"count":122,"type":"VEC3"},{"bufferView":16,"byteOffset":0,"componentType":5126,"count":122,"type":"VEC4"},{"bufferView":17,"byteOffset":0,"componentType":5126,"count":122,"type":"VEC2"},{"bufferView":18,"byteOffset":0,"componentType":5126,"count":122,"type":"VEC2"},{"bufferView":19,"byteOffset":0,"componentType":5123,"count":108,"type":"SCALAR"},{"bufferView":20,"byteOffset":0,"componentType":5126,"count":43,"max":[0.0703485384583473,0.0852348431944847,0.344913810491562],"min":[-0.07565663009882,0.00224402290768921,-0.34516975283623],"type":"VEC3"},{"bufferView":21,"byteOffset":0,"componentType":5126,"count":43,"type":"VEC3"},{"bufferView":22,"byteOffset":0,"componentType":5126,"count":43,"type":"VEC4"},{"bufferView":23,"byteOffset":0,"componentType":5126,"count":43,"type":"VEC2"},{"bufferView":24,"byteOffset":0,"componentType":5126,"count":43,"type":"VEC2"},{"bufferView":25,"byteOffset":0,"componentType":5123,"count":336,"type":"SCALAR"},{"bufferView":26,"byteOffset":0,"componentType":5126,"count":64,"max":[0.0719074159860611,0.0779217928647995,0.341877669095993],"min":[-0.07170360535383,0.00187764433212578,-0.33846092224121],"type":"VEC3"},{"bufferView":27,"byteOffset":0,"componentType":5126,"count":64,"type":"VEC3"},{"bufferView":28,"byteOffset":0,"componentType":5126,"count":64,"type":"VEC2"},{"bufferView":29,"byteOffset":0,"componentType":5126,"count":64,"type":"VEC2"}],"animations":[{"channels":[],"name":"Unreal Take","samplers":[]}],"asset":{"generator":"FBX2glTF v0.13.0","version":"2.0"},"bufferViews":[{"buffer":0,"byteLength":4,"byteOffset":0},{"buffer":0,"byteLength":1704,"byteOffset":4,"target":34963},{"buffer":0,"byteLength":2520,"byteOffset":1708,"target":34962},{"buffer":0,"byteLength":2520,"byteOffset":4228,"target":34962},{"buffer":0,"byteLength":3360,"byteOffset":6748,"target":34962},{"buffer":0,"byteLength":1680,"byteOffset":10108,"target":34962},{"buffer":0,"byteLength":1680,"byteOffset":11788,"target":34962},{"buffer":0,"byteLength":1272,"byteOffset":13468,"target":34963},{"buffer":0,"byteLength":2076,"byteOffset":14740,"target":34962},{"buffer":0,"byteLength":2076,"byteOffset":16816,"target":34962},{"buffer":0,"byteLength":2768,"byteOffset":18892,"target":34962},{"buffer":0,"byteLength":1384,"byteOffset":21660,"target":34962},{"buffer":0,"byteLength":1384,"byteOffset":23044,"target":34962},{"buffer":0,"byteLength":852,"byteOffset":24428,"target":34963},{"buffer":0,"byteLength":1464,"byteOffset":25280,"target":34962},{"buffer":0,"byteLength":1464,"byteOffset":26744,"target":34962},{"buffer":0,"byteLength":1952,"byteOffset":28208,"target":34962},{"buffer":0,"byteLength":976,"byteOffset":30160,"target":34962},{"buffer":0,"byteLength":976,"byteOffset":31136,"target":34962},{"buffer":0,"byteLength":216,"byteOffset":32112,"target":34963},{"buffer":0,"byteLength":516,"byteOffset":32328,"target":34962},{"buffer":0,"byteLength":516,"byteOffset":32844,"target":34962},{"buffer":0,"byteLength":688,"byteOffset":33360,"target":34962},{"buffer":0,"byteLength":344,"byteOffset":34048,"target":34962},{"buffer":0,"byteLength":344,"byteOffset":34392,"target":34962},{"buffer":0,"byteLength":672,"byteOffset":34736,"target":34963},{"buffer":0,"byteLength":768,"byteOffset":35408,"target":34962},{"buffer":0,"byteLength":768,"byteOffset":36176,"target":34962},{"buffer":0,"byteLength":512,"byteOffset":36944,"target":34962},{"buffer":0,"byteLength":512,"byteOffset":37456,"target":34962}],"buffers":[{"byteLength":37968,"uri":"SM_Broken_Chair_Top.bin"}],"images":[{"name":"T_DrawingTable_N","uri":"T_DrawingTable_N.png"},{"name":"T_DrawingTable_B","uri":"T_DrawingTable_B.png"}],"materials":[{"alphaMode":"OPAQUE","doubleSided":false,"extras":{"fromFBX":{"isTruePBR":false,"shadingModel":"Phong"}},"name":"MI_Chair","normalTexture":{"index":0,"texCoord":0},"pbrMetallicRoughness":{"baseColorFactor":[1,1,1,1],"baseColorTexture":{"index":1,"texCoord":0},"metallicFactor":0.400000005960464,"roughnessFactor":0.301511347293854}},{"alphaMode":"OPAQUE","doubleSided":false,"extras":{"fromFBX":{"isTruePBR":false,"shadingModel":"Lambert"}},"name":"DefaultMaterial","pbrMetallicRoughness":{"baseColorFactor":[0.5,0.5,0.5,1],"metallicFactor":0.200000002980232,"roughnessFactor":0.800000011920929}}],"meshes":[{"name":"SM_Broken_Chair_Top_LOD0","primitives":[{"attributes":{"NORMAL":3,"POSITION":2,"TANGENT":4,"TEXCOORD_0":5,"TEXCOORD_1":6},"indices":1,"material":0,"mode":4}]},{"name":"SM_Broken_Chair_Top_LOD1","primitives":[{"attributes":{"NORMAL":9,"POSITION":8,"TANGENT":10,"TEXCOORD_0":11,"TEXCOORD_1":12},"indices":7,"material":0,"mode":4}]},{"name":"SM_Broken_Chair_Top_LOD2","primitives":[{"attributes":{"NORMAL":15,"POSITION":14,"TANGENT":16,"TEXCOORD_0":17,"TEXCOORD_1":18},"indices":13,"material":0,"mode":4}]},{"name":"SM_Broken_Chair_Top_LOD3","primitives":[{"attributes":{"NORMAL":21,"POSITION":20,"TANGENT":22,"TEXCOORD_0":23,"TEXCOORD_1":24},"indices":19,"material":0,"mode":4}]},{"name":"SM_Broken_Chair_Top_ConvexHulls","primitives":[{"attributes":{"NORMAL":27,"POSITION":26,"TEXCOORD_0":28,"TEXCOORD_1":29},"indices":25,"material":1,"mode":4}]}],"nodes":[{"children":[1,2,3,4,5],"name":"SM_Broken_Chair_Top_10","originalUnits":0.00999999977648258,"pivot":[0,0,0],"rotation":[0,0,0,1],"scale":[1,1,1],"translation":[0,0,0]},{"mesh":0,"name":"SM_Broken_Chair_Top_LOD0","originalUnits":0.00999999977648258,"pivot":[0,0,0],"rotation":[0,0,0,1],"scale":[1,1,1],"translation":[0,0,0]},{"mesh":4,"name":"SM_Broken_Chair_Top_ConvexHulls","originalUnits":0.00999999977648258,"pivot":[0,0,0],"rotation":[0,0,0,1],"scale":[1,1,1],"translation":[0,0,0]},{"mesh":1,"name":"SM_Broken_Chair_Top_LOD1","originalUnits":0.00999999977648258,"pivot":[0,0,0],"rotation":[0,0,0,1],"scale":[1,1,1],"translation":[0,0,0]},{"mesh":2,"name":"SM_Broken_Chair_Top_LOD2","originalUnits":0.00999999977648258,"pivot":[0,0,0],"rotation":[0,0,0,1],"scale":[1,1,1],"translation":[0,0,0]},{"mesh":3,"name":"SM_Broken_Chair_Top_LOD3","originalUnits":0.00999999977648258,"pivot":[0,0,0],"rotation":[0,0,0,1],"scale":[1,1,1],"translation":[0,0,0]}],"samplers":[{}],"scene":0,"scenes":[{"name":"Root Scene","nodes":[0]}],"textures":[{"name":"MI_Chair","sampler":0,"source":0},{"name":"MI_Chair","sampler":0,"source":1}]}