{"accessors":[{"bufferView":0,"byteOffset":0,"componentType":5126,"count":1,"max":[0],"min":[0],"type":"SCALAR"},{"bufferView":1,"byteOffset":0,"componentType":5123,"count":2196,"type":"SCALAR"},{"bufferView":2,"byteOffset":0,"componentType":5126,"count":540,"max":[0.011189273558557,0.336279988288879,0.0527107231318951],"min":[-0.01112929917872,0.00174229755066335,-0.0527107231319],"type":"VEC3"},{"bufferView":3,"byteOffset":0,"componentType":5126,"count":540,"type":"VEC3"},{"bufferView":4,"byteOffset":0,"componentType":5126,"count":540,"type":"VEC4"},{"bufferView":5,"byteOffset":0,"componentType":5126,"count":540,"type":"VEC2"},{"bufferView":6,"byteOffset":0,"componentType":5126,"count":540,"type":"VEC2"},{"bufferView":7,"byteOffset":0,"componentType":5123,"count":1644,"type":"SCALAR"},{"bufferView":8,"byteOffset":0,"componentType":5126,"count":432,"max":[0.011189273558557,0.336279988288879,0.052699126303196],"min":[-0.01112929917872,0.00174229755066335,-0.0526991263032],"type":"VEC3"},{"bufferView":9,"byteOffset":0,"componentType":5126,"count":432,"type":"VEC3"},{"bufferView":10,"byteOffset":0,"componentType":5126,"count":432,"type":"VEC4"},{"bufferView":11,"byteOffset":0,"componentType":5126,"count":432,"type":"VEC2"},{"bufferView":12,"byteOffset":0,"componentType":5126,"count":432,"type":"VEC2"},{"bufferView":13,"byteOffset":0,"componentType":5123,"count":1095,"type":"SCALAR"},{"bufferView":14,"byteOffset":0,"componentType":5126,"count":325,"max":[0.0111367832869291,0.335220485925674,0.052781518548727],"min":[-0.01112929917872,0.00174229755066335,-0.05313141271472],"type":"VEC3"},{"bufferView":15,"byteOffset":0,"componentType":5126,"count":325,"type":"VEC3"},{"bufferView":16,"byteOffset":0,"componentType":5126,"count":325,"type":"VEC4"},{"bufferView":17,"byteOffset":0,"componentType":5126,"count":325,"type":"VEC2"},{"bufferView":18,"byteOffset":0,"componentType":5126,"count":325,"type":"VEC2"},{"bufferView":19,"byteOffset":0,"componentType":5123,"count":273,"type":"SCALAR"},{"bufferView":20,"byteOffset":0,"componentType":5126,"count":112,"max":[0.0107506569474936,0.337596356868744,0.0506289042532444],"min":[-0.01047804113477,-0.00003716081847,-0.05431645363569],"type":"VEC3"},{"bufferView":21,"byteOffset":0,"componentType":5126,"count":112,"type":"VEC3"},{"bufferView":22,"byteOffset":0,"componentType":5126,"count":112,"type":"VEC4"},{"bufferView":23,"byteOffset":0,"componentType":5126,"count":112,"type":"VEC2"},{"bufferView":24,"byteOffset":0,"componentType":5126,"count":112,"type":"VEC2"},{"bufferView":25,"byteOffset":0,"componentType":5123,"count":168,"type":"SCALAR"},{"bufferView":26,"byteOffset":0,"componentType":5126,"count":32,"max":[0.0121034951880574,0.33245712518692,0.0523091740906239],"min":[-0.01010835543275,0.0039580324664712,-0.05152323096991],"type":"VEC3"},{"bufferView":27,"byteOffset":0,"componentType":5126,"count":32,"type":"VEC3"},{"bufferView":28,"byteOffset":0,"componentType":5126,"count":32,"type":"VEC2"},{"bufferView":29,"byteOffset":0,"componentType":5126,"count":32,"type":"VEC2"}],"animations":[{"channels":[],"name":"Unreal Take","samplers":[]}],"asset":{"generator":"FBX2glTF v0.13.0","version":"2.0"},"bufferViews":[{"buffer":0,"byteLength":4,"byteOffset":0},{"buffer":0,"byteLength":4392,"byteOffset":4,"target":34963},{"buffer":0,"byteLength":6480,"byteOffset":4396,"target":34962},{"buffer":0,"byteLength":6480,"byteOffset":10876,"target":34962},{"buffer":0,"byteLength":8640,"byteOffset":17356,"target":34962},{"buffer":0,"byteLength":4320,"byteOffset":25996,"target":34962},{"buffer":0,"byteLength":4320,"byteOffset":30316,"target":34962},{"buffer":0,"byteLength":3288,"byteOffset":34636,"target":34963},{"buffer":0,"byteLength":5184,"byteOffset":37924,"target":34962},{"buffer":0,"byteLength":5184,"byteOffset":43108,"target":34962},{"buffer":0,"byteLength":6912,"byteOffset":48292,"target":34962},{"buffer":0,"byteLength":3456,"byteOffset":55204,"target":34962},{"buffer":0,"byteLength":3456,"byteOffset":58660,"target":34962},{"buffer":0,"byteLength":2190,"byteOffset":62116,"target":34963},{"buffer":0,"byteLength":3900,"byteOffset":64308,"target":34962},{"buffer":0,"byteLength":3900,"byteOffset":68208,"target":34962},{"buffer":0,"byteLength":5200,"byteOffset":72108,"target":34962},{"buffer":0,"byteLength":2600,"byteOffset":77308,"target":34962},{"buffer":0,"byteLength":2600,"byteOffset":79908,"target":34962},{"buffer":0,"byteLength":546,"byteOffset":82508,"target":34963},{"buffer":0,"byteLength":1344,"byteOffset":83056,"target":34962},{"buffer":0,"byteLength":1344,"byteOffset":84400,"target":34962},{"buffer":0,"byteLength":1792,"byteOffset":85744,"target":34962},{"buffer":0,"byteLength":896,"byteOffset":87536,"target":34962},{"buffer":0,"byteLength":896,"byteOffset":88432,"target":34962},{"buffer":0,"byteLength":336,"byteOffset":89328,"target":34963},{"buffer":0,"byteLength":384,"byteOffset":89664,"target":34962},{"buffer":0,"byteLength":384,"byteOffset":90048,"target":34962},{"buffer":0,"byteLength":256,"byteOffset":90432,"target":34962},{"buffer":0,"byteLength":256,"byteOffset":90688,"target":34962}],"buffers":[{"byteLength":90944,"uri":"SM_Brush03.bin"}],"images":[{"name":"T_Woodprops_02_N","uri":"T_Woodprops_02_N.png"},{"name":"T_Woodprops_02_B","uri":"T_Woodprops_02_B.png"}],"materials":[{"alphaMode":"OPAQUE","doubleSided":false,"extras":{"fromFBX":{"isTruePBR":false,"shadingModel":"Phong"}},"name":"MI_Brush_01","normalTexture":{"index":0,"texCoord":0},"pbrMetallicRoughness":{"baseColorFactor":[1,1,1,1],"baseColorTexture":{"index":1,"texCoord":0},"metallicFactor":0.400000005960464,"roughnessFactor":0.301511347293854}},{"alphaMode":"OPAQUE","doubleSided":false,"extras":{"fromFBX":{"isTruePBR":false,"shadingModel":"Lambert"}},"name":"DefaultMaterial","pbrMetallicRoughness":{"baseColorFactor":[0.5,0.5,0.5,1],"metallicFactor":0.200000002980232,"roughnessFactor":0.800000011920929}}],"meshes":[{"name":"SM_Brush03_LOD0","primitives":[{"attributes":{"NORMAL":3,"POSITION":2,"TANGENT":4,"TEXCOORD_0":5,"TEXCOORD_1":6},"indices":1,"material":0,"mode":4}]},{"name":"SM_Brush03_LOD1","primitives":[{"attributes":{"NORMAL":9,"POSITION":8,"TANGENT":10,"TEXCOORD_0":11,"TEXCOORD_1":12},"indices":7,"material":0,"mode":4}]},{"name":"SM_Brush03_LOD2","primitives":[{"attributes":{"NORMAL":15,"POSITION":14,"TANGENT":16,"TEXCOORD_0":17,"TEXCOORD_1":18},"indices":13,"material":0,"mode":4}]},{"name":"SM_Brush03_LOD3","primitives":[{"attributes":{"NORMAL":21,"POSITION":20,"TANGENT":22,"TEXCOORD_0":23,"TEXCOORD_1":24},"indices":19,"material":0,"mode":4}]},{"name":"SM_Brush03_ConvexHulls","primitives":[{"attributes":{"NORMAL":27,"POSITION":26,"TEXCOORD_0":28,"TEXCOORD_1":29},"indices":25,"material":1,"mode":4}]}],"nodes":[{"children":[1,2,3,4,5],"name":"SM_Brush3_14","originalUnits":0.00999999977648258,"pivot":[0,0,0],"rotation":[0,0,0,1],"scale":[1,1,1],"translation":[0,0,0]},{"mesh":0,"name":"SM_Brush03_LOD0","originalUnits":0.00999999977648258,"pivot":[0,0,0],"rotation":[0,0,0,1],"scale":[1,1,1],"translation":[0,0,0]},{"mesh":4,"name":"SM_Brush03_ConvexHulls","originalUnits":0.00999999977648258,"pivot":[0,0,0],"rotation":[0,0,0,1],"scale":[1,1,1],"translation":[0,0,0]},{"mesh":1,"name":"SM_Brush03_LOD1","originalUnits":0.00999999977648258,"pivot":[0,0,0],"rotation":[0,0,0,1],"scale":[1,1,1],"translation":[0,0,0]},{"mesh":2,"name":"SM_Brush03_LOD2","originalUnits":0.00999999977648258,"pivot":[0,0,0],"rotation":[0,0,0,1],"scale":[1,1,1],"translation":[0,0,0]},{"mesh":3,"name":"SM_Brush03_LOD3","originalUnits":0.00999999977648258,"pivot":[0,0,0],"rotation":[0,0,0,1],"scale":[1,1,1],"translation":[0,0,0]}],"samplers":[{}],"scene":0,"scenes":[{"name":"Root Scene","nodes":[0]}],"textures":[{"name":"MI_Brush_01","sampler":0,"source":0},{"name":"MI_Brush_01","sampler":0,"source":1}]}