{"accessors":[{"bufferView":0,"byteOffset":0,"componentType":5126,"count":1,"max":[0],"min":[0],"type":"SCALAR"},{"bufferView":1,"byteOffset":0,"componentType":5123,"count":2448,"type":"SCALAR"},{"bufferView":2,"byteOffset":0,"componentType":5126,"count":477,"max":[0.0292495992034674,0.04221261292696,0.362351059913635],"min":[-0.02457864023745,-0.01319250278175,-0.36422020196915],"type":"VEC3"},{"bufferView":3,"byteOffset":0,"componentType":5126,"count":477,"type":"VEC3"},{"bufferView":4,"byteOffset":0,"componentType":5126,"count":477,"type":"VEC4"},{"bufferView":5,"byteOffset":0,"componentType":5126,"count":477,"type":"VEC2"},{"bufferView":6,"byteOffset":0,"componentType":5126,"count":477,"type":"VEC2"},{"bufferView":7,"byteOffset":0,"componentType":5123,"count":1836,"type":"SCALAR"},{"bufferView":8,"byteOffset":0,"componentType":5126,"count":372,"max":[0.0292495992034674,0.04221261292696,0.362351059913635],"min":[-0.02457864023745,-0.01319250278175,-0.36422020196915],"type":"VEC3"},{"bufferView":9,"byteOffset":0,"componentType":5126,"count":372,"type":"VEC3"},{"bufferView":10,"byteOffset":0,"componentType":5126,"count":372,"type":"VEC4"},{"bufferView":11,"byteOffset":0,"componentType":5126,"count":372,"type":"VEC2"},{"bufferView":12,"byteOffset":0,"componentType":5126,"count":372,"type":"VEC2"},{"bufferView":13,"byteOffset":0,"componentType":5123,"count":1224,"type":"SCALAR"},{"bufferView":14,"byteOffset":0,"componentType":5126,"count":273,"max":[0.0312163028866053,0.0448648147284985,0.362351059913635],"min":[-0.02633380517364,-0.01584743149579,-0.36422020196915],"type":"VEC3"},{"bufferView":15,"byteOffset":0,"componentType":5126,"count":273,"type":"VEC3"},{"bufferView":16,"byteOffset":0,"componentType":5126,"count":273,"type":"VEC4"},{"bufferView":17,"byteOffset":0,"componentType":5126,"count":273,"type":"VEC2"},{"bufferView":18,"byteOffset":0,"componentType":5126,"count":273,"type":"VEC2"},{"bufferView":19,"byteOffset":0,"componentType":5123,"count":306,"type":"SCALAR"},{"bufferView":20,"byteOffset":0,"componentType":5126,"count":81,"max":[0.0302284751087427,0.0476661920547485,0.362608760595322],"min":[-0.02726656571031,-0.01785355992615,-0.3677981197834],"type":"VEC3"},{"bufferView":21,"byteOffset":0,"componentType":5126,"count":81,"type":"VEC3"},{"bufferView":22,"byteOffset":0,"componentType":5126,"count":81,"type":"VEC4"},{"bufferView":23,"byteOffset":0,"componentType":5126,"count":81,"type":"VEC2"},{"bufferView":24,"byteOffset":0,"componentType":5126,"count":81,"type":"VEC2"},{"bufferView":25,"byteOffset":0,"componentType":5123,"count":168,"type":"SCALAR"},{"bufferView":26,"byteOffset":0,"componentType":5126,"count":32,"max":[0.0281008444726467,0.0406735837459564,0.363791108131409],"min":[-0.02323755435646,-0.01134773343802,-0.36533236503601],"type":"VEC3"},{"bufferView":27,"byteOffset":0,"componentType":5126,"count":32,"type":"VEC3"},{"bufferView":28,"byteOffset":0,"componentType":5126,"count":32,"type":"VEC2"},{"bufferView":29,"byteOffset":0,"componentType":5126,"count":32,"type":"VEC2"}],"animations":[{"channels":[],"name":"Unreal Take","samplers":[]}],"asset":{"generator":"FBX2glTF v0.13.0","version":"2.0"},"bufferViews":[{"buffer":0,"byteLength":4,"byteOffset":0},{"buffer":0,"byteLength":4896,"byteOffset":4,"target":34963},{"buffer":0,"byteLength":5724,"byteOffset":4900,"target":34962},{"buffer":0,"byteLength":5724,"byteOffset":10624,"target":34962},{"buffer":0,"byteLength":7632,"byteOffset":16348,"target":34962},{"buffer":0,"byteLength":3816,"byteOffset":23980,"target":34962},{"buffer":0,"byteLength":3816,"byteOffset":27796,"target":34962},{"buffer":0,"byteLength":3672,"byteOffset":31612,"target":34963},{"buffer":0,"byteLength":4464,"byteOffset":35284,"target":34962},{"buffer":0,"byteLength":4464,"byteOffset":39748,"target":34962},{"buffer":0,"byteLength":5952,"byteOffset":44212,"target":34962},{"buffer":0,"byteLength":2976,"byteOffset":50164,"target":34962},{"buffer":0,"byteLength":2976,"byteOffset":53140,"target":34962},{"buffer":0,"byteLength":2448,"byteOffset":56116,"target":34963},{"buffer":0,"byteLength":3276,"byteOffset":58564,"target":34962},{"buffer":0,"byteLength":3276,"byteOffset":61840,"target":34962},{"buffer":0,"byteLength":4368,"byteOffset":65116,"target":34962},{"buffer":0,"byteLength":2184,"byteOffset":69484,"target":34962},{"buffer":0,"byteLength":2184,"byteOffset":71668,"target":34962},{"buffer":0,"byteLength":612,"byteOffset":73852,"target":34963},{"buffer":0,"byteLength":972,"byteOffset":74464,"target":34962},{"buffer":0,"byteLength":972,"byteOffset":75436,"target":34962},{"buffer":0,"byteLength":1296,"byteOffset":76408,"target":34962},{"buffer":0,"byteLength":648,"byteOffset":77704,"target":34962},{"buffer":0,"byteLength":648,"byteOffset":78352,"target":34962},{"buffer":0,"byteLength":336,"byteOffset":79000,"target":34963},{"buffer":0,"byteLength":384,"byteOffset":79336,"target":34962},{"buffer":0,"byteLength":384,"byteOffset":79720,"target":34962},{"buffer":0,"byteLength":256,"byteOffset":80104,"target":34962},{"buffer":0,"byteLength":256,"byteOffset":80360,"target":34962}],"buffers":[{"byteLength":80616,"uri":"SM_Broken_Chair_Pillar.bin"}],"images":[{"name":"T_DrawingTable_N","uri":"T_DrawingTable_N.png"},{"name":"T_DrawingTable_B","uri":"T_DrawingTable_B.png"}],"materials":[{"alphaMode":"OPAQUE","doubleSided":false,"extras":{"fromFBX":{"isTruePBR":false,"shadingModel":"Phong"}},"name":"MI_Chair","normalTexture":{"index":0,"texCoord":0},"pbrMetallicRoughness":{"baseColorFactor":[1,1,1,1],"baseColorTexture":{"index":1,"texCoord":0},"metallicFactor":0.400000005960464,"roughnessFactor":0.301511347293854}},{"alphaMode":"OPAQUE","doubleSided":false,"extras":{"fromFBX":{"isTruePBR":false,"shadingModel":"Lambert"}},"name":"DefaultMaterial","pbrMetallicRoughness":{"baseColorFactor":[0.5,0.5,0.5,1],"metallicFactor":0.200000002980232,"roughnessFactor":0.800000011920929}}],"meshes":[{"name":"SM_Broken_Chair_Pillar_LOD0","primitives":[{"attributes":{"NORMAL":3,"POSITION":2,"TANGENT":4,"TEXCOORD_0":5,"TEXCOORD_1":6},"indices":1,"material":0,"mode":4}]},{"name":"SM_Broken_Chair_Pillar_LOD1","primitives":[{"attributes":{"NORMAL":9,"POSITION":8,"TANGENT":10,"TEXCOORD_0":11,"TEXCOORD_1":12},"indices":7,"material":0,"mode":4}]},{"name":"SM_Broken_Chair_Pillar_LOD2","primitives":[{"attributes":{"NORMAL":15,"POSITION":14,"TANGENT":16,"TEXCOORD_0":17,"TEXCOORD_1":18},"indices":13,"material":0,"mode":4}]},{"name":"SM_Broken_Chair_Pillar_LOD3","primitives":[{"attributes":{"NORMAL":21,"POSITION":20,"TANGENT":22,"TEXCOORD_0":23,"TEXCOORD_1":24},"indices":19,"material":0,"mode":4}]},{"name":"SM_Broken_Chair_Pillar_ConvexHulls","primitives":[{"attributes":{"NORMAL":27,"POSITION":26,"TEXCOORD_0":28,"TEXCOORD_1":29},"indices":25,"material":1,"mode":4}]}],"nodes":[{"children":[1,2,3,4,5],"name":"SM_Broken_Chair_Pillar_9","originalUnits":0.00999999977648258,"pivot":[0,0,0],"rotation":[0,0,0,1],"scale":[1,1,1],"translation":[0,0,0]},{"mesh":0,"name":"SM_Broken_Chair_Pillar_LOD0","originalUnits":0.00999999977648258,"pivot":[0,0,0],"rotation":[0,0,0,1],"scale":[1,1,1],"translation":[0,0,0]},{"mesh":4,"name":"SM_Broken_Chair_Pillar_ConvexHulls","originalUnits":0.00999999977648258,"pivot":[0,0,0],"rotation":[0,0,0,1],"scale":[1,1,1],"translation":[0,0,0]},{"mesh":1,"name":"SM_Broken_Chair_Pillar_LOD1","originalUnits":0.00999999977648258,"pivot":[0,0,0],"rotation":[0,0,0,1],"scale":[1,1,1],"translation":[0,0,0]},{"mesh":2,"name":"SM_Broken_Chair_Pillar_LOD2","originalUnits":0.00999999977648258,"pivot":[0,0,0],"rotation":[0,0,0,1],"scale":[1,1,1],"translation":[0,0,0]},{"mesh":3,"name":"SM_Broken_Chair_Pillar_LOD3","originalUnits":0.00999999977648258,"pivot":[0,0,0],"rotation":[0,0,0,1],"scale":[1,1,1],"translation":[0,0,0]}],"samplers":[{}],"scene":0,"scenes":[{"name":"Root Scene","nodes":[0]}],"textures":[{"name":"MI_Chair","sampler":0,"source":0},{"name":"MI_Chair","sampler":0,"source":1}]}