{"accessors":[{"bufferView":0,"byteOffset":0,"componentType":5126,"count":1,"max":[0],"min":[0],"type":"SCALAR"},{"bufferView":1,"byteOffset":0,"componentType":5123,"count":13704,"type":"SCALAR"},{"bufferView":2,"byteOffset":0,"componentType":5126,"count":3052,"max":[0.338315427303314,0.369162738323212,0.282067090272903],"min":[-0.24473929405212,-0.04355612769723,-0.27793288230896],"type":"VEC3"},{"bufferView":3,"byteOffset":0,"componentType":5126,"count":3052,"type":"VEC3"},{"bufferView":4,"byteOffset":0,"componentType":5126,"count":3052,"type":"VEC4"},{"bufferView":5,"byteOffset":0,"componentType":5126,"count":3052,"type":"VEC2"},{"bufferView":6,"byteOffset":0,"componentType":5126,"count":3052,"type":"VEC2"},{"bufferView":7,"byteOffset":0,"componentType":5123,"count":10278,"type":"SCALAR"},{"bufferView":8,"byteOffset":0,"componentType":5126,"count":2425,"max":[0.338315427303314,0.369162738323212,0.282067090272903],"min":[-0.24506112933159,-0.04355612769723,-0.27793288230896],"type":"VEC3"},{"bufferView":9,"byteOffset":0,"componentType":5126,"count":2425,"type":"VEC3"},{"bufferView":10,"byteOffset":0,"componentType":5126,"count":2425,"type":"VEC4"},{"bufferView":11,"byteOffset":0,"componentType":5126,"count":2425,"type":"VEC2"},{"bufferView":12,"byteOffset":0,"componentType":5126,"count":2425,"type":"VEC2"},{"bufferView":13,"byteOffset":0,"componentType":5123,"count":6852,"type":"SCALAR"},{"bufferView":14,"byteOffset":0,"componentType":5126,"count":1731,"max":[0.338315427303314,0.367227971553802,0.282067090272903],"min":[-0.24506105482578,-0.04288385435939,-0.27793288230896],"type":"VEC3"},{"bufferView":15,"byteOffset":0,"componentType":5126,"count":1731,"type":"VEC3"},{"bufferView":16,"byteOffset":0,"componentType":5126,"count":1731,"type":"VEC4"},{"bufferView":17,"byteOffset":0,"componentType":5126,"count":1731,"type":"VEC2"},{"bufferView":18,"byteOffset":0,"componentType":5126,"count":1731,"type":"VEC2"},{"bufferView":19,"byteOffset":0,"componentType":5123,"count":1710,"type":"SCALAR"},{"bufferView":20,"byteOffset":0,"componentType":5126,"count":595,"max":[0.338823795318604,0.367227971553802,0.282067090272903],"min":[-0.24386493861675,-0.0430725812912,-0.27793288230896],"type":"VEC3"},{"bufferView":21,"byteOffset":0,"componentType":5126,"count":595,"type":"VEC3"},{"bufferView":22,"byteOffset":0,"componentType":5126,"count":595,"type":"VEC4"},{"bufferView":23,"byteOffset":0,"componentType":5126,"count":595,"type":"VEC2"},{"bufferView":24,"byteOffset":0,"componentType":5126,"count":595,"type":"VEC2"},{"bufferView":25,"byteOffset":0,"componentType":5123,"count":324,"type":"SCALAR"},{"bufferView":26,"byteOffset":0,"componentType":5126,"count":62,"max":[0.331502795219421,0.368103235960007,0.284816652536392],"min":[-0.24564602971077,-0.0472355671227,-0.26972442865372],"type":"VEC3"},{"bufferView":27,"byteOffset":0,"componentType":5126,"count":62,"type":"VEC3"},{"bufferView":28,"byteOffset":0,"componentType":5126,"count":62,"type":"VEC2"},{"bufferView":29,"byteOffset":0,"componentType":5126,"count":62,"type":"VEC2"}],"animations":[{"channels":[],"name":"Unreal Take","samplers":[]}],"asset":{"generator":"FBX2glTF v0.13.0","version":"2.0"},"bufferViews":[{"buffer":0,"byteLength":4,"byteOffset":0},{"buffer":0,"byteLength":27408,"byteOffset":4,"target":34963},{"buffer":0,"byteLength":36624,"byteOffset":27412,"target":34962},{"buffer":0,"byteLength":36624,"byteOffset":64036,"target":34962},{"buffer":0,"byteLength":48832,"byteOffset":100660,"target":34962},{"buffer":0,"byteLength":24416,"byteOffset":149492,"target":34962},{"buffer":0,"byteLength":24416,"byteOffset":173908,"target":34962},{"buffer":0,"byteLength":20556,"byteOffset":198324,"target":34963},{"buffer":0,"byteLength":29100,"byteOffset":218880,"target":34962},{"buffer":0,"byteLength":29100,"byteOffset":247980,"target":34962},{"buffer":0,"byteLength":38800,"byteOffset":277080,"target":34962},{"buffer":0,"byteLength":19400,"byteOffset":315880,"target":34962},{"buffer":0,"byteLength":19400,"byteOffset":335280,"target":34962},{"buffer":0,"byteLength":13704,"byteOffset":354680,"target":34963},{"buffer":0,"byteLength":20772,"byteOffset":368384,"target":34962},{"buffer":0,"byteLength":20772,"byteOffset":389156,"target":34962},{"buffer":0,"byteLength":27696,"byteOffset":409928,"target":34962},{"buffer":0,"byteLength":13848,"byteOffset":437624,"target":34962},{"buffer":0,"byteLength":13848,"byteOffset":451472,"target":34962},{"buffer":0,"byteLength":3420,"byteOffset":465320,"target":34963},{"buffer":0,"byteLength":7140,"byteOffset":468740,"target":34962},{"buffer":0,"byteLength":7140,"byteOffset":475880,"target":34962},{"buffer":0,"byteLength":9520,"byteOffset":483020,"target":34962},{"buffer":0,"byteLength":4760,"byteOffset":492540,"target":34962},{"buffer":0,"byteLength":4760,"byteOffset":497300,"target":34962},{"buffer":0,"byteLength":648,"byteOffset":502060,"target":34963},{"buffer":0,"byteLength":744,"byteOffset":502708,"target":34962},{"buffer":0,"byteLength":744,"byteOffset":503452,"target":34962},{"buffer":0,"byteLength":496,"byteOffset":504196,"target":34962},{"buffer":0,"byteLength":496,"byteOffset":504692,"target":34962}],"buffers":[{"byteLength":505188,"uri":"SM_Broken_Chair.bin"}],"images":[{"name":"T_DrawingTable_N","uri":"T_DrawingTable_N.png"},{"name":"T_DrawingTable_B","uri":"T_DrawingTable_B.png"}],"materials":[{"alphaMode":"OPAQUE","doubleSided":false,"extras":{"fromFBX":{"isTruePBR":false,"shadingModel":"Phong"}},"name":"MI_Chair","normalTexture":{"index":0,"texCoord":0},"pbrMetallicRoughness":{"baseColorFactor":[1,1,1,1],"baseColorTexture":{"index":1,"texCoord":0},"metallicFactor":0.400000005960464,"roughnessFactor":0.301511347293854}},{"alphaMode":"OPAQUE","doubleSided":false,"extras":{"fromFBX":{"isTruePBR":false,"shadingModel":"Lambert"}},"name":"DefaultMaterial","pbrMetallicRoughness":{"baseColorFactor":[0.5,0.5,0.5,1],"metallicFactor":0.200000002980232,"roughnessFactor":0.800000011920929}}],"meshes":[{"name":"SM_Broken_Chair_LOD0","primitives":[{"attributes":{"NORMAL":3,"POSITION":2,"TANGENT":4,"TEXCOORD_0":5,"TEXCOORD_1":6},"indices":1,"material":0,"mode":4}]},{"name":"SM_Broken_Chair_LOD1","primitives":[{"attributes":{"NORMAL":9,"POSITION":8,"TANGENT":10,"TEXCOORD_0":11,"TEXCOORD_1":12},"indices":7,"material":0,"mode":4}]},{"name":"SM_Broken_Chair_LOD2","primitives":[{"attributes":{"NORMAL":15,"POSITION":14,"TANGENT":16,"TEXCOORD_0":17,"TEXCOORD_1":18},"indices":13,"material":0,"mode":4}]},{"name":"SM_Broken_Chair_LOD3","primitives":[{"attributes":{"NORMAL":21,"POSITION":20,"TANGENT":22,"TEXCOORD_0":23,"TEXCOORD_1":24},"indices":19,"material":0,"mode":4}]},{"name":"SM_Broken_Chair_ConvexHulls","primitives":[{"attributes":{"NORMAL":27,"POSITION":26,"TEXCOORD_0":28,"TEXCOORD_1":29},"indices":25,"material":1,"mode":4}]}],"nodes":[{"children":[1,2,3,4,5],"name":"SM_Broken_Chair_8","originalUnits":0.00999999977648258,"pivot":[0,0,0],"rotation":[0,0,0,1],"scale":[1,1,1],"translation":[0,0,0]},{"mesh":0,"name":"SM_Broken_Chair_LOD0","originalUnits":0.00999999977648258,"pivot":[0,0,0],"rotation":[0,0,0,1],"scale":[1,1,1],"translation":[0,0,0]},{"mesh":4,"name":"SM_Broken_Chair_ConvexHulls","originalUnits":0.00999999977648258,"pivot":[0,0,0],"rotation":[0,0,0,1],"scale":[1,1,1],"translation":[0,0,0]},{"mesh":1,"name":"SM_Broken_Chair_LOD1","originalUnits":0.00999999977648258,"pivot":[0,0,0],"rotation":[0,0,0,1],"scale":[1,1,1],"translation":[0,0,0]},{"mesh":2,"name":"SM_Broken_Chair_LOD2","originalUnits":0.00999999977648258,"pivot":[0,0,0],"rotation":[0,0,0,1],"scale":[1,1,1],"translation":[0,0,0]},{"mesh":3,"name":"SM_Broken_Chair_LOD3","originalUnits":0.00999999977648258,"pivot":[0,0,0],"rotation":[0,0,0,1],"scale":[1,1,1],"translation":[0,0,0]}],"samplers":[{}],"scene":0,"scenes":[{"name":"Root Scene","nodes":[0]}],"textures":[{"name":"MI_Chair","sampler":0,"source":0},{"name":"MI_Chair","sampler":0,"source":1}]}