{"accessors":[{"bufferView":0,"byteOffset":0,"componentType":5126,"count":1,"max":[0],"min":[0],"type":"SCALAR"},{"bufferView":1,"byteOffset":0,"componentType":5123,"count":31548,"type":"SCALAR"},{"bufferView":2,"byteOffset":0,"componentType":5126,"count":8223,"max":[0.520870625972748,0.286545187234879,0.432922959327698],"min":[-0.01905189268291,-0.04672992601991,-0.42984312772751],"type":"VEC3"},{"bufferView":3,"byteOffset":0,"componentType":5126,"count":8223,"type":"VEC3"},{"bufferView":4,"byteOffset":0,"componentType":5126,"count":8223,"type":"VEC4"},{"bufferView":5,"byteOffset":0,"componentType":5126,"count":8223,"type":"VEC2"},{"bufferView":6,"byteOffset":0,"componentType":5126,"count":8223,"type":"VEC2"},{"bufferView":7,"byteOffset":0,"componentType":5123,"count":23652,"type":"SCALAR"},{"bufferView":8,"byteOffset":0,"componentType":5126,"count":6356,"max":[0.520870625972748,0.286591500043869,0.432922959327698],"min":[-0.01905189268291,-0.04659692570567,-0.42984312772751],"type":"VEC3"},{"bufferView":9,"byteOffset":0,"componentType":5126,"count":6356,"type":"VEC3"},{"bufferView":10,"byteOffset":0,"componentType":5126,"count":6356,"type":"VEC4"},{"bufferView":11,"byteOffset":0,"componentType":5126,"count":6356,"type":"VEC2"},{"bufferView":12,"byteOffset":0,"componentType":5126,"count":6356,"type":"VEC2"},{"bufferView":13,"byteOffset":0,"componentType":5123,"count":15756,"type":"SCALAR"},{"bufferView":14,"byteOffset":0,"componentType":5126,"count":4342,"max":[0.520834922790527,0.286884248256683,0.432922959327698],"min":[-0.01905189268291,-0.04670141264796,-0.42984312772751],"type":"VEC3"},{"bufferView":15,"byteOffset":0,"componentType":5126,"count":4342,"type":"VEC3"},{"bufferView":16,"byteOffset":0,"componentType":5126,"count":4342,"type":"VEC4"},{"bufferView":17,"byteOffset":0,"componentType":5126,"count":4342,"type":"VEC2"},{"bufferView":18,"byteOffset":0,"componentType":5126,"count":4342,"type":"VEC2"},{"bufferView":19,"byteOffset":0,"componentType":5123,"count":3912,"type":"SCALAR"},{"bufferView":20,"byteOffset":0,"componentType":5126,"count":1422,"max":[0.520811557769775,0.287641435861588,0.432886332273483],"min":[-0.01901519671083,-0.04914055392146,-0.42980650067329],"type":"VEC3"},{"bufferView":21,"byteOffset":0,"componentType":5126,"count":1422,"type":"VEC3"},{"bufferView":22,"byteOffset":0,"componentType":5126,"count":1422,"type":"VEC4"},{"bufferView":23,"byteOffset":0,"componentType":5126,"count":1422,"type":"VEC2"},{"bufferView":24,"byteOffset":0,"componentType":5126,"count":1422,"type":"VEC2"},{"bufferView":25,"byteOffset":0,"componentType":5123,"count":36,"type":"SCALAR"},{"bufferView":26,"byteOffset":0,"componentType":5126,"count":24,"max":[0.516469895839691,-0.04465668648481,0.42113584280014],"min":[-0.01623589172959,-0.06961351633072,-0.42009580135345],"type":"VEC3"},{"bufferView":27,"byteOffset":0,"componentType":5126,"count":24,"type":"VEC3"},{"bufferView":28,"byteOffset":0,"componentType":5126,"count":24,"type":"VEC4"},{"bufferView":29,"byteOffset":0,"componentType":5126,"count":24,"type":"VEC2"},{"bufferView":30,"byteOffset":0,"componentType":5126,"count":24,"type":"VEC2"},{"bufferView":31,"byteOffset":0,"componentType":5123,"count":36,"type":"SCALAR"},{"bufferView":32,"byteOffset":0,"componentType":5126,"count":24,"max":[0.516469895839691,-0.04465668648481,0.42113584280014],"min":[-0.01623589172959,-0.06961351633072,-0.42009580135345],"type":"VEC3"},{"bufferView":33,"byteOffset":0,"componentType":5126,"count":24,"type":"VEC3"},{"bufferView":34,"byteOffset":0,"componentType":5126,"count":24,"type":"VEC4"},{"bufferView":35,"byteOffset":0,"componentType":5126,"count":24,"type":"VEC2"},{"bufferView":36,"byteOffset":0,"componentType":5126,"count":24,"type":"VEC2"},{"bufferView":37,"byteOffset":0,"componentType":5123,"count":36,"type":"SCALAR"},{"bufferView":38,"byteOffset":0,"componentType":5126,"count":24,"max":[0.516469895839691,-0.04465668648481,0.42113584280014],"min":[-0.01623589172959,-0.06961351633072,-0.42009580135345],"type":"VEC3"},{"bufferView":39,"byteOffset":0,"componentType":5126,"count":24,"type":"VEC3"},{"bufferView":40,"byteOffset":0,"componentType":5126,"count":24,"type":"VEC4"},{"bufferView":41,"byteOffset":0,"componentType":5126,"count":24,"type":"VEC2"},{"bufferView":42,"byteOffset":0,"componentType":5126,"count":24,"type":"VEC2"},{"bufferView":43,"byteOffset":0,"componentType":5123,"count":36,"type":"SCALAR"},{"bufferView":44,"byteOffset":0,"componentType":5126,"count":24,"max":[0.516469895839691,-0.04465668648481,0.42113584280014],"min":[-0.01623589172959,-0.06961351633072,-0.42009580135345],"type":"VEC3"},{"bufferView":45,"byteOffset":0,"componentType":5126,"count":24,"type":"VEC3"},{"bufferView":46,"byteOffset":0,"componentType":5126,"count":24,"type":"VEC4"},{"bufferView":47,"byteOffset":0,"componentType":5126,"count":24,"type":"VEC2"},{"bufferView":48,"byteOffset":0,"componentType":5126,"count":24,"type":"VEC2"},{"bufferView":49,"byteOffset":0,"componentType":5123,"count":336,"type":"SCALAR"},{"bufferView":50,"byteOffset":0,"componentType":5126,"count":64,"max":[0.524633407592773,0.292249619960785,0.437130331993103],"min":[-0.01676605828106,-0.07665231823921,-0.42755264043808],"type":"VEC3"},{"bufferView":51,"byteOffset":0,"componentType":5126,"count":64,"type":"VEC3"},{"bufferView":52,"byteOffset":0,"componentType":5126,"count":64,"type":"VEC2"},{"bufferView":53,"byteOffset":0,"componentType":5126,"count":64,"type":"VEC2"}],"animations":[{"channels":[],"name":"Unreal Take","samplers":[]}],"asset":{"generator":"FBX2glTF v0.13.0","version":"2.0"},"bufferViews":[{"buffer":0,"byteLength":4,"byteOffset":0},{"buffer":0,"byteLength":63096,"byteOffset":4,"target":34963},{"buffer":0,"byteLength":98676,"byteOffset":63100,"target":34962},{"buffer":0,"byteLength":98676,"byteOffset":161776,"target":34962},{"buffer":0,"byteLength":131568,"byteOffset":260452,"target":34962},{"buffer":0,"byteLength":65784,"byteOffset":392020,"target":34962},{"buffer":0,"byteLength":65784,"byteOffset":457804,"target":34962},{"buffer":0,"byteLength":47304,"byteOffset":523588,"target":34963},{"buffer":0,"byteLength":76272,"byteOffset":570892,"target":34962},{"buffer":0,"byteLength":76272,"byteOffset":647164,"target":34962},{"buffer":0,"byteLength":101696,"byteOffset":723436,"target":34962},{"buffer":0,"byteLength":50848,"byteOffset":825132,"target":34962},{"buffer":0,"byteLength":50848,"byteOffset":875980,"target":34962},{"buffer":0,"byteLength":31512,"byteOffset":926828,"target":34963},{"buffer":0,"byteLength":52104,"byteOffset":958340,"target":34962},{"buffer":0,"byteLength":52104,"byteOffset":1010444,"target":34962},{"buffer":0,"byteLength":69472,"byteOffset":1062548,"target":34962},{"buffer":0,"byteLength":34736,"byteOffset":1132020,"target":34962},{"buffer":0,"byteLength":34736,"byteOffset":1166756,"target":34962},{"buffer":0,"byteLength":7824,"byteOffset":1201492,"target":34963},{"buffer":0,"byteLength":17064,"byteOffset":1209316,"target":34962},{"buffer":0,"byteLength":17064,"byteOffset":1226380,"target":34962},{"buffer":0,"byteLength":22752,"byteOffset":1243444,"target":34962},{"buffer":0,"byteLength":11376,"byteOffset":1266196,"target":34962},{"buffer":0,"byteLength":11376,"byteOffset":1277572,"target":34962},{"buffer":0,"byteLength":72,"byteOffset":1288948,"target":34963},{"buffer":0,"byteLength":288,"byteOffset":1289020,"target":34962},{"buffer":0,"byteLength":288,"byteOffset":1289308,"target":34962},{"buffer":0,"byteLength":384,"byteOffset":1289596,"target":34962},{"buffer":0,"byteLength":192,"byteOffset":1289980,"target":34962},{"buffer":0,"byteLength":192,"byteOffset":1290172,"target":34962},{"buffer":0,"byteLength":72,"byteOffset":1290364,"target":34963},{"buffer":0,"byteLength":288,"byteOffset":1290436,"target":34962},{"buffer":0,"byteLength":288,"byteOffset":1290724,"target":34962},{"buffer":0,"byteLength":384,"byteOffset":1291012,"target":34962},{"buffer":0,"byteLength":192,"byteOffset":1291396,"target":34962},{"buffer":0,"byteLength":192,"byteOffset":1291588,"target":34962},{"buffer":0,"byteLength":72,"byteOffset":1291780,"target":34963},{"buffer":0,"byteLength":288,"byteOffset":1291852,"target":34962},{"buffer":0,"byteLength":288,"byteOffset":1292140,"target":34962},{"buffer":0,"byteLength":384,"byteOffset":1292428,"target":34962},{"buffer":0,"byteLength":192,"byteOffset":1292812,"target":34962},{"buffer":0,"byteLength":192,"byteOffset":1293004,"target":34962},{"buffer":0,"byteLength":72,"byteOffset":1293196,"target":34963},{"buffer":0,"byteLength":288,"byteOffset":1293268,"target":34962},{"buffer":0,"byteLength":288,"byteOffset":1293556,"target":34962},{"buffer":0,"byteLength":384,"byteOffset":1293844,"target":34962},{"buffer":0,"byteLength":192,"byteOffset":1294228,"target":34962},{"buffer":0,"byteLength":192,"byteOffset":1294420,"target":34962},{"buffer":0,"byteLength":672,"byteOffset":1294612,"target":34963},{"buffer":0,"byteLength":768,"byteOffset":1295284,"target":34962},{"buffer":0,"byteLength":768,"byteOffset":1296052,"target":34962},{"buffer":0,"byteLength":512,"byteOffset":1296820,"target":34962},{"buffer":0,"byteLength":512,"byteOffset":1297332,"target":34962}],"buffers":[{"byteLength":1297844,"uri":"SM_Crate.bin"}],"images":[{"name":"T_Woodprops_01_N","uri":"T_Woodprops_01_N.png"},{"name":"T_Woodprops_01_B","uri":"T_Woodprops_01_B.png"},{"name":"T_Woodprops_02_N","uri":"T_Woodprops_02_N.png"},{"name":"T_Woodprops_02_B","uri":"T_Woodprops_02_B.png"}],"materials":[{"alphaMode":"OPAQUE","doubleSided":false,"extras":{"fromFBX":{"isTruePBR":false,"shadingModel":"Phong"}},"name":"MI_Crate","normalTexture":{"index":0,"texCoord":0},"pbrMetallicRoughness":{"baseColorFactor":[1,1,1,1],"baseColorTexture":{"index":1,"texCoord":0},"metallicFactor":0.400000005960464,"roughnessFactor":0.301511347293854}},{"alphaMode":"OPAQUE","doubleSided":false,"extras":{"fromFBX":{"isTruePBR":false,"shadingModel":"Phong"}},"name":"MI_Plywood","normalTexture":{"index":2,"texCoord":0},"pbrMetallicRoughness":{"baseColorFactor":[1,1,1,1],"baseColorTexture":{"index":3,"texCoord":0},"metallicFactor":0.400000005960464,"roughnessFactor":0.301511347293854}},{"alphaMode":"OPAQUE","doubleSided":false,"extras":{"fromFBX":{"isTruePBR":false,"shadingModel":"Lambert"}},"name":"DefaultMaterial","pbrMetallicRoughness":{"baseColorFactor":[0.5,0.5,0.5,1],"metallicFactor":0.200000002980232,"roughnessFactor":0.800000011920929}}],"meshes":[{"name":"SM_Crate_LOD0","primitives":[{"attributes":{"NORMAL":3,"POSITION":2,"TANGENT":4,"TEXCOORD_0":5,"TEXCOORD_1":6},"indices":1,"material":0,"mode":4},{"attributes":{"NORMAL":27,"POSITION":26,"TANGENT":28,"TEXCOORD_0":29,"TEXCOORD_1":30},"indices":25,"material":1,"mode":4}]},{"name":"SM_Crate_LOD1","primitives":[{"attributes":{"NORMAL":9,"POSITION":8,"TANGENT":10,"TEXCOORD_0":11,"TEXCOORD_1":12},"indices":7,"material":0,"mode":4},{"attributes":{"NORMAL":33,"POSITION":32,"TANGENT":34,"TEXCOORD_0":35,"TEXCOORD_1":36},"indices":31,"material":1,"mode":4}]},{"name":"SM_Crate_LOD2","primitives":[{"attributes":{"NORMAL":15,"POSITION":14,"TANGENT":16,"TEXCOORD_0":17,"TEXCOORD_1":18},"indices":13,"material":0,"mode":4},{"attributes":{"NORMAL":39,"POSITION":38,"TANGENT":40,"TEXCOORD_0":41,"TEXCOORD_1":42},"indices":37,"material":1,"mode":4}]},{"name":"SM_Crate_LOD3","primitives":[{"attributes":{"NORMAL":21,"POSITION":20,"TANGENT":22,"TEXCOORD_0":23,"TEXCOORD_1":24},"indices":19,"material":0,"mode":4},{"attributes":{"NORMAL":45,"POSITION":44,"TANGENT":46,"TEXCOORD_0":47,"TEXCOORD_1":48},"indices":43,"material":1,"mode":4}]},{"name":"SM_Crate_ConvexHulls","primitives":[{"attributes":{"NORMAL":51,"POSITION":50,"TEXCOORD_0":52,"TEXCOORD_1":53},"indices":49,"material":2,"mode":4}]}],"nodes":[{"children":[1,2,3,4,5],"name":"SM_Crate_20","originalUnits":0.00999999977648258,"pivot":[0,0,0],"rotation":[0,0,0,1],"scale":[1,1,1],"translation":[0,0,0]},{"mesh":0,"name":"SM_Crate_LOD0","originalUnits":0.00999999977648258,"pivot":[0,0,0],"rotation":[0,0,0,1],"scale":[1,1,1],"translation":[0,0,0]},{"mesh":4,"name":"SM_Crate_ConvexHulls","originalUnits":0.00999999977648258,"pivot":[0,0,0],"rotation":[0,0,0,1],"scale":[1,1,1],"translation":[0,0,0]},{"mesh":1,"name":"SM_Crate_LOD1","originalUnits":0.00999999977648258,"pivot":[0,0,0],"rotation":[0,0,0,1],"scale":[1,1,1],"translation":[0,0,0]},{"mesh":2,"name":"SM_Crate_LOD2","originalUnits":0.00999999977648258,"pivot":[0,0,0],"rotation":[0,0,0,1],"scale":[1,1,1],"translation":[0,0,0]},{"mesh":3,"name":"SM_Crate_LOD3","originalUnits":0.00999999977648258,"pivot":[0,0,0],"rotation":[0,0,0,1],"scale":[1,1,1],"translation":[0,0,0]}],"samplers":[{}],"scene":0,"scenes":[{"name":"Root Scene","nodes":[0]}],"textures":[{"name":"MI_Crate","sampler":0,"source":0},{"name":"MI_Crate","sampler":0,"source":1},{"name":"MI_Plywood","sampler":0,"source":2},{"name":"MI_Plywood","sampler":0,"source":3}]}