{"accessors":[{"bufferView":0,"byteOffset":0,"componentType":5126,"count":1,"max":[0],"min":[0],"type":"SCALAR"},{"bufferView":1,"byteOffset":0,"componentType":5123,"count":54528,"type":"SCALAR"},{"bufferView":2,"byteOffset":0,"componentType":5126,"count":11195,"max":[0.420000225305557,4.04933738708496,0.420000195503235],"min":[-0.42000022530556,0.0254511740058661,-0.42000019550323],"type":"VEC3"},{"bufferView":3,"byteOffset":0,"componentType":5126,"count":11195,"type":"VEC3"},{"bufferView":4,"byteOffset":0,"componentType":5126,"count":11195,"type":"VEC4"},{"bufferView":5,"byteOffset":0,"componentType":5126,"count":11195,"type":"VEC2"},{"bufferView":6,"byteOffset":0,"componentType":5126,"count":11195,"type":"VEC2"},{"bufferView":7,"byteOffset":0,"componentType":5123,"count":41094,"type":"SCALAR"},{"bufferView":8,"byteOffset":0,"componentType":5126,"count":8529,"max":[0.420000225305557,4.04995822906494,0.420000195503235],"min":[-0.42000022530556,0.0254500526934862,-0.42000019550323],"type":"VEC3"},{"bufferView":9,"byteOffset":0,"componentType":5126,"count":8529,"type":"VEC3"},{"bufferView":10,"byteOffset":0,"componentType":5126,"count":8529,"type":"VEC4"},{"bufferView":11,"byteOffset":0,"componentType":5126,"count":8529,"type":"VEC2"},{"bufferView":12,"byteOffset":0,"componentType":5126,"count":8529,"type":"VEC2"},{"bufferView":13,"byteOffset":0,"componentType":5123,"count":27513,"type":"SCALAR"},{"bufferView":14,"byteOffset":0,"componentType":5126,"count":6016,"max":[0.420000225305557,4.0498251914978,0.420000195503235],"min":[-0.42000022530556,0.0254500526934862,-0.42000019550323],"type":"VEC3"},{"bufferView":15,"byteOffset":0,"componentType":5126,"count":6016,"type":"VEC3"},{"bufferView":16,"byteOffset":0,"componentType":5126,"count":6016,"type":"VEC4"},{"bufferView":17,"byteOffset":0,"componentType":5126,"count":6016,"type":"VEC2"},{"bufferView":18,"byteOffset":0,"componentType":5126,"count":6016,"type":"VEC2"},{"bufferView":19,"byteOffset":0,"componentType":5123,"count":6855,"type":"SCALAR"},{"bufferView":20,"byteOffset":0,"componentType":5126,"count":1981,"max":[0.421435713768005,4.05309534072876,0.43627718091011],"min":[-0.42000022530556,0.0260416828095913,-0.4284987449646],"type":"VEC3"},{"bufferView":21,"byteOffset":0,"componentType":5126,"count":1981,"type":"VEC3"},{"bufferView":22,"byteOffset":0,"componentType":5126,"count":1981,"type":"VEC4"},{"bufferView":23,"byteOffset":0,"componentType":5126,"count":1981,"type":"VEC2"},{"bufferView":24,"byteOffset":0,"componentType":5126,"count":1981,"type":"VEC2"},{"bufferView":25,"byteOffset":0,"componentType":5123,"count":1536,"type":"SCALAR"},{"bufferView":26,"byteOffset":0,"componentType":5126,"count":291,"max":[0.0772510543465614,0.192064046859741,0.0775341168045998],"min":[-0.07752174884081,-0.00464620115235,-0.07724269479513],"type":"VEC3"},{"bufferView":27,"byteOffset":0,"componentType":5126,"count":291,"type":"VEC3"},{"bufferView":28,"byteOffset":0,"componentType":5126,"count":291,"type":"VEC4"},{"bufferView":29,"byteOffset":0,"componentType":5126,"count":291,"type":"VEC2"},{"bufferView":30,"byteOffset":0,"componentType":5126,"count":291,"type":"VEC2"},{"bufferView":31,"byteOffset":0,"componentType":5123,"count":954,"type":"SCALAR"},{"bufferView":32,"byteOffset":0,"componentType":5126,"count":184,"max":[0.0772510543465614,0.192051351070404,0.0775341168045998],"min":[-0.07752174884081,-0.00464620115235,-0.07724269479513],"type":"VEC3"},{"bufferView":33,"byteOffset":0,"componentType":5126,"count":184,"type":"VEC3"},{"bufferView":34,"byteOffset":0,"componentType":5126,"count":184,"type":"VEC4"},{"bufferView":35,"byteOffset":0,"componentType":5126,"count":184,"type":"VEC2"},{"bufferView":36,"byteOffset":0,"componentType":5126,"count":184,"type":"VEC2"},{"bufferView":37,"byteOffset":0,"componentType":5123,"count":519,"type":"SCALAR"},{"bufferView":38,"byteOffset":0,"componentType":5126,"count":105,"max":[0.0776736289262772,0.192051351070404,0.0783087313175201],"min":[-0.07884642481804,-0.00560546852648,-0.07802822440863],"type":"VEC3"},{"bufferView":39,"byteOffset":0,"componentType":5126,"count":105,"type":"VEC3"},{"bufferView":40,"byteOffset":0,"componentType":5126,"count":105,"type":"VEC4"},{"bufferView":41,"byteOffset":0,"componentType":5126,"count":105,"type":"VEC2"},{"bufferView":42,"byteOffset":0,"componentType":5126,"count":105,"type":"VEC2"},{"bufferView":43,"byteOffset":0,"componentType":5123,"count":150,"type":"SCALAR"},{"bufferView":44,"byteOffset":0,"componentType":5126,"count":36,"max":[0.086675651371479,0.191258460283279,0.079723559319973],"min":[-0.08496706187725,-0.01135191787034,-0.08540392667055],"type":"VEC3"},{"bufferView":45,"byteOffset":0,"componentType":5126,"count":36,"type":"VEC3"},{"bufferView":46,"byteOffset":0,"componentType":5126,"count":36,"type":"VEC4"},{"bufferView":47,"byteOffset":0,"componentType":5126,"count":36,"type":"VEC2"},{"bufferView":48,"byteOffset":0,"componentType":5126,"count":36,"type":"VEC2"},{"bufferView":49,"byteOffset":0,"componentType":5123,"count":306,"type":"SCALAR"},{"bufferView":50,"byteOffset":0,"componentType":5126,"count":59,"max":[0.41856923699379,4.05695486068726,0.436746090650558],"min":[-0.40846809744835,0.00648426078259945,-0.43469026684761],"type":"VEC3"},{"bufferView":51,"byteOffset":0,"componentType":5126,"count":59,"type":"VEC3"},{"bufferView":52,"byteOffset":0,"componentType":5126,"count":59,"type":"VEC2"},{"bufferView":53,"byteOffset":0,"componentType":5126,"count":59,"type":"VEC2"}],"animations":[{"channels":[],"name":"Unreal Take","samplers":[]}],"asset":{"generator":"FBX2glTF v0.13.0","version":"2.0"},"bufferViews":[{"buffer":0,"byteLength":4,"byteOffset":0},{"buffer":0,"byteLength":109056,"byteOffset":4,"target":34963},{"buffer":0,"byteLength":134340,"byteOffset":109060,"target":34962},{"buffer":0,"byteLength":134340,"byteOffset":243400,"target":34962},{"buffer":0,"byteLength":179120,"byteOffset":377740,"target":34962},{"buffer":0,"byteLength":89560,"byteOffset":556860,"target":34962},{"buffer":0,"byteLength":89560,"byteOffset":646420,"target":34962},{"buffer":0,"byteLength":82188,"byteOffset":735980,"target":34963},{"buffer":0,"byteLength":102348,"byteOffset":818168,"target":34962},{"buffer":0,"byteLength":102348,"byteOffset":920516,"target":34962},{"buffer":0,"byteLength":136464,"byteOffset":1022864,"target":34962},{"buffer":0,"byteLength":68232,"byteOffset":1159328,"target":34962},{"buffer":0,"byteLength":68232,"byteOffset":1227560,"target":34962},{"buffer":0,"byteLength":55026,"byteOffset":1295792,"target":34963},{"buffer":0,"byteLength":72192,"byteOffset":1350820,"target":34962},{"buffer":0,"byteLength":72192,"byteOffset":1423012,"target":34962},{"buffer":0,"byteLength":96256,"byteOffset":1495204,"target":34962},{"buffer":0,"byteLength":48128,"byteOffset":1591460,"target":34962},{"buffer":0,"byteLength":48128,"byteOffset":1639588,"target":34962},{"buffer":0,"byteLength":13710,"byteOffset":1687716,"target":34963},{"buffer":0,"byteLength":23772,"byteOffset":1701428,"target":34962},{"buffer":0,"byteLength":23772,"byteOffset":1725200,"target":34962},{"buffer":0,"byteLength":31696,"byteOffset":1748972,"target":34962},{"buffer":0,"byteLength":15848,"byteOffset":1780668,"target":34962},{"buffer":0,"byteLength":15848,"byteOffset":1796516,"target":34962},{"buffer":0,"byteLength":3072,"byteOffset":1812364,"target":34963},{"buffer":0,"byteLength":3492,"byteOffset":1815436,"target":34962},{"buffer":0,"byteLength":3492,"byteOffset":1818928,"target":34962},{"buffer":0,"byteLength":4656,"byteOffset":1822420,"target":34962},{"buffer":0,"byteLength":2328,"byteOffset":1827076,"target":34962},{"buffer":0,"byteLength":2328,"byteOffset":1829404,"target":34962},{"buffer":0,"byteLength":1908,"byteOffset":1831732,"target":34963},{"buffer":0,"byteLength":2208,"byteOffset":1833640,"target":34962},{"buffer":0,"byteLength":2208,"byteOffset":1835848,"target":34962},{"buffer":0,"byteLength":2944,"byteOffset":1838056,"target":34962},{"buffer":0,"byteLength":1472,"byteOffset":1841000,"target":34962},{"buffer":0,"byteLength":1472,"byteOffset":1842472,"target":34962},{"buffer":0,"byteLength":1038,"byteOffset":1843944,"target":34963},{"buffer":0,"byteLength":1260,"byteOffset":1844984,"target":34962},{"buffer":0,"byteLength":1260,"byteOffset":1846244,"target":34962},{"buffer":0,"byteLength":1680,"byteOffset":1847504,"target":34962},{"buffer":0,"byteLength":840,"byteOffset":1849184,"target":34962},{"buffer":0,"byteLength":840,"byteOffset":1850024,"target":34962},{"buffer":0,"byteLength":300,"byteOffset":1850864,"target":34963},{"buffer":0,"byteLength":432,"byteOffset":1851164,"target":34962},{"buffer":0,"byteLength":432,"byteOffset":1851596,"target":34962},{"buffer":0,"byteLength":576,"byteOffset":1852028,"target":34962},{"buffer":0,"byteLength":288,"byteOffset":1852604,"target":34962},{"buffer":0,"byteLength":288,"byteOffset":1852892,"target":34962},{"buffer":0,"byteLength":612,"byteOffset":1853180,"target":34963},{"buffer":0,"byteLength":708,"byteOffset":1853792,"target":34962},{"buffer":0,"byteLength":708,"byteOffset":1854500,"target":34962},{"buffer":0,"byteLength":472,"byteOffset":1855208,"target":34962},{"buffer":0,"byteLength":472,"byteOffset":1855680,"target":34962}],"buffers":[{"byteLength":1856152,"uri":"SM_Cieling_Light.bin"}],"images":[{"name":"T_Metal_N","uri":"T_Metal_N.png"},{"name":"T_Metal_B","uri":"T_Metal_B.png"}],"materials":[{"alphaMode":"OPAQUE","doubleSided":false,"extras":{"fromFBX":{"isTruePBR":false,"shadingModel":"Phong"}},"name":"MI_Lamp","normalTexture":{"index":0,"texCoord":0},"pbrMetallicRoughness":{"baseColorFactor":[1,1,1,1],"baseColorTexture":{"index":1,"texCoord":0},"metallicFactor":0.400000005960464,"roughnessFactor":0.301511347293854}},{"alphaMode":"OPAQUE","doubleSided":false,"extras":{"fromFBX":{"isTruePBR":false,"shadingModel":"Phong"}},"name":"MI_Bulb","pbrMetallicRoughness":{"baseColorFactor":[0.800000011920929,0.800000011920929,0.800000011920929,1],"metallicFactor":0.400000005960464,"roughnessFactor":0.301511347293854}},{"alphaMode":"OPAQUE","doubleSided":false,"extras":{"fromFBX":{"isTruePBR":false,"shadingModel":"Lambert"}},"name":"DefaultMaterial","pbrMetallicRoughness":{"baseColorFactor":[0.5,0.5,0.5,1],"metallicFactor":0.200000002980232,"roughnessFactor":0.800000011920929}}],"meshes":[{"name":"SM_Cieling_Light_LOD0","primitives":[{"attributes":{"NORMAL":3,"POSITION":2,"TANGENT":4,"TEXCOORD_0":5,"TEXCOORD_1":6},"indices":1,"material":0,"mode":4},{"attributes":{"NORMAL":27,"POSITION":26,"TANGENT":28,"TEXCOORD_0":29,"TEXCOORD_1":30},"indices":25,"material":1,"mode":4}]},{"name":"SM_Cieling_Light_LOD1","primitives":[{"attributes":{"NORMAL":9,"POSITION":8,"TANGENT":10,"TEXCOORD_0":11,"TEXCOORD_1":12},"indices":7,"material":0,"mode":4},{"attributes":{"NORMAL":33,"POSITION":32,"TANGENT":34,"TEXCOORD_0":35,"TEXCOORD_1":36},"indices":31,"material":1,"mode":4}]},{"name":"SM_Cieling_Light_LOD2","primitives":[{"attributes":{"NORMAL":15,"POSITION":14,"TANGENT":16,"TEXCOORD_0":17,"TEXCOORD_1":18},"indices":13,"material":0,"mode":4},{"attributes":{"NORMAL":39,"POSITION":38,"TANGENT":40,"TEXCOORD_0":41,"TEXCOORD_1":42},"indices":37,"material":1,"mode":4}]},{"name":"SM_Cieling_Light_LOD3","primitives":[{"attributes":{"NORMAL":21,"POSITION":20,"TANGENT":22,"TEXCOORD_0":23,"TEXCOORD_1":24},"indices":19,"material":0,"mode":4},{"attributes":{"NORMAL":45,"POSITION":44,"TANGENT":46,"TEXCOORD_0":47,"TEXCOORD_1":48},"indices":43,"material":1,"mode":4}]},{"name":"SM_Cieling_Light_ConvexHulls","primitives":[{"attributes":{"NORMAL":51,"POSITION":50,"TEXCOORD_0":52,"TEXCOORD_1":53},"indices":49,"material":2,"mode":4}]}],"nodes":[{"children":[1,2,3,4,5],"name":"SM_Cieling_Light_19","originalUnits":0.00999999977648258,"pivot":[0,0,0],"rotation":[0,0,0,1],"scale":[1,1,1],"translation":[0,0,0]},{"mesh":0,"name":"SM_Cieling_Light_LOD0","originalUnits":0.00999999977648258,"pivot":[0,0,0],"rotation":[0,0,0,1],"scale":[1,1,1],"translation":[0,0,0]},{"mesh":4,"name":"SM_Cieling_Light_ConvexHulls","originalUnits":0.00999999977648258,"pivot":[0,0,0],"rotation":[0,0,0,1],"scale":[1,1,1],"translation":[0,0,0]},{"mesh":1,"name":"SM_Cieling_Light_LOD1","originalUnits":0.00999999977648258,"pivot":[0,0,0],"rotation":[0,0,0,1],"scale":[1,1,1],"translation":[0,0,0]},{"mesh":2,"name":"SM_Cieling_Light_LOD2","originalUnits":0.00999999977648258,"pivot":[0,0,0],"rotation":[0,0,0,1],"scale":[1,1,1],"translation":[0,0,0]},{"mesh":3,"name":"SM_Cieling_Light_LOD3","originalUnits":0.00999999977648258,"pivot":[0,0,0],"rotation":[0,0,0,1],"scale":[1,1,1],"translation":[0,0,0]}],"samplers":[{}],"scene":0,"scenes":[{"name":"Root Scene","nodes":[0]}],"textures":[{"name":"MI_Lamp","sampler":0,"source":0},{"name":"MI_Lamp","sampler":0,"source":1}]}