{"accessors":[{"bufferView":0,"byteOffset":0,"componentType":5126,"count":1,"max":[0],"min":[0],"type":"SCALAR"},{"bufferView":1,"byteOffset":0,"componentType":5123,"count":1560,"type":"SCALAR"},{"bufferView":2,"byteOffset":0,"componentType":5126,"count":337,"max":[0.168949693441391,0.38952174782753,0.16894967854023],"min":[-0.1689497679472,-0.00632065534592,-0.16894973814487],"type":"VEC3"},{"bufferView":3,"byteOffset":0,"componentType":5126,"count":337,"type":"VEC3"},{"bufferView":4,"byteOffset":0,"componentType":5126,"count":337,"type":"VEC4"},{"bufferView":5,"byteOffset":0,"componentType":5126,"count":337,"type":"VEC2"},{"bufferView":6,"byteOffset":0,"componentType":5126,"count":337,"type":"VEC2"},{"bufferView":7,"byteOffset":0,"componentType":5123,"count":1170,"type":"SCALAR"},{"bufferView":8,"byteOffset":0,"componentType":5126,"count":272,"max":[0.16682992875576,0.38952174782753,0.16894967854023],"min":[-0.17029246687889,-0.00632065534592,-0.1668299138546],"type":"VEC3"},{"bufferView":9,"byteOffset":0,"componentType":5126,"count":272,"type":"VEC3"},{"bufferView":10,"byteOffset":0,"componentType":5126,"count":272,"type":"VEC4"},{"bufferView":11,"byteOffset":0,"componentType":5126,"count":272,"type":"VEC2"},{"bufferView":12,"byteOffset":0,"componentType":5126,"count":272,"type":"VEC2"},{"bufferView":13,"byteOffset":0,"componentType":5123,"count":780,"type":"SCALAR"},{"bufferView":14,"byteOffset":0,"componentType":5126,"count":188,"max":[0.16682992875576,0.38952174782753,0.166829913854599],"min":[-0.16682998836041,-0.00632065534592,-0.1668299138546],"type":"VEC3"},{"bufferView":15,"byteOffset":0,"componentType":5126,"count":188,"type":"VEC3"},{"bufferView":16,"byteOffset":0,"componentType":5126,"count":188,"type":"VEC4"},{"bufferView":17,"byteOffset":0,"componentType":5126,"count":188,"type":"VEC2"},{"bufferView":18,"byteOffset":0,"componentType":5126,"count":188,"type":"VEC2"},{"bufferView":19,"byteOffset":0,"componentType":5123,"count":192,"type":"SCALAR"},{"bufferView":20,"byteOffset":0,"componentType":5126,"count":63,"max":[0.176189228892326,0.392452955245972,0.175461053848267],"min":[-0.17387771606445,-0.00965319480747,-0.16326229274273],"type":"VEC3"},{"bufferView":21,"byteOffset":0,"componentType":5126,"count":63,"type":"VEC3"},{"bufferView":22,"byteOffset":0,"componentType":5126,"count":63,"type":"VEC4"},{"bufferView":23,"byteOffset":0,"componentType":5126,"count":63,"type":"VEC2"},{"bufferView":24,"byteOffset":0,"componentType":5126,"count":63,"type":"VEC2"},{"bufferView":25,"byteOffset":0,"componentType":5123,"count":336,"type":"SCALAR"},{"bufferView":26,"byteOffset":0,"componentType":5126,"count":64,"max":[0.173058599233627,0.391952127218246,0.173000782728195],"min":[-0.16699706017971,-0.00402428628877,-0.16661849617958],"type":"VEC3"},{"bufferView":27,"byteOffset":0,"componentType":5126,"count":64,"type":"VEC3"},{"bufferView":28,"byteOffset":0,"componentType":5126,"count":64,"type":"VEC2"},{"bufferView":29,"byteOffset":0,"componentType":5126,"count":64,"type":"VEC2"}],"animations":[{"channels":[],"name":"Unreal Take","samplers":[]}],"asset":{"generator":"FBX2glTF v0.13.0","version":"2.0"},"bufferViews":[{"buffer":0,"byteLength":4,"byteOffset":0},{"buffer":0,"byteLength":3120,"byteOffset":4,"target":34963},{"buffer":0,"byteLength":4044,"byteOffset":3124,"target":34962},{"buffer":0,"byteLength":4044,"byteOffset":7168,"target":34962},{"buffer":0,"byteLength":5392,"byteOffset":11212,"target":34962},{"buffer":0,"byteLength":2696,"byteOffset":16604,"target":34962},{"buffer":0,"byteLength":2696,"byteOffset":19300,"target":34962},{"buffer":0,"byteLength":2340,"byteOffset":21996,"target":34963},{"buffer":0,"byteLength":3264,"byteOffset":24336,"target":34962},{"buffer":0,"byteLength":3264,"byteOffset":27600,"target":34962},{"buffer":0,"byteLength":4352,"byteOffset":30864,"target":34962},{"buffer":0,"byteLength":2176,"byteOffset":35216,"target":34962},{"buffer":0,"byteLength":2176,"byteOffset":37392,"target":34962},{"buffer":0,"byteLength":1560,"byteOffset":39568,"target":34963},{"buffer":0,"byteLength":2256,"byteOffset":41128,"target":34962},{"buffer":0,"byteLength":2256,"byteOffset":43384,"target":34962},{"buffer":0,"byteLength":3008,"byteOffset":45640,"target":34962},{"buffer":0,"byteLength":1504,"byteOffset":48648,"target":34962},{"buffer":0,"byteLength":1504,"byteOffset":50152,"target":34962},{"buffer":0,"byteLength":384,"byteOffset":51656,"target":34963},{"buffer":0,"byteLength":756,"byteOffset":52040,"target":34962},{"buffer":0,"byteLength":756,"byteOffset":52796,"target":34962},{"buffer":0,"byteLength":1008,"byteOffset":53552,"target":34962},{"buffer":0,"byteLength":504,"byteOffset":54560,"target":34962},{"buffer":0,"byteLength":504,"byteOffset":55064,"target":34962},{"buffer":0,"byteLength":672,"byteOffset":55568,"target":34963},{"buffer":0,"byteLength":768,"byteOffset":56240,"target":34962},{"buffer":0,"byteLength":768,"byteOffset":57008,"target":34962},{"buffer":0,"byteLength":512,"byteOffset":57776,"target":34962},{"buffer":0,"byteLength":512,"byteOffset":58288,"target":34962}],"buffers":[{"byteLength":58800,"uri":"SM_Cup.bin"}],"images":[{"name":"T_Wooden_N","uri":"T_Wooden_N.png"},{"name":"T_Wooden_B","uri":"T_Wooden_B.png"}],"materials":[{"alphaMode":"OPAQUE","doubleSided":false,"extras":{"fromFBX":{"isTruePBR":false,"shadingModel":"Phong"}},"name":"MI_Wood_Stuff","normalTexture":{"index":0,"texCoord":0},"pbrMetallicRoughness":{"baseColorFactor":[1,1,1,1],"baseColorTexture":{"index":1,"texCoord":0},"metallicFactor":0.400000005960464,"roughnessFactor":0.301511347293854}},{"alphaMode":"OPAQUE","doubleSided":false,"extras":{"fromFBX":{"isTruePBR":false,"shadingModel":"Lambert"}},"name":"DefaultMaterial","pbrMetallicRoughness":{"baseColorFactor":[0.5,0.5,0.5,1],"metallicFactor":0.200000002980232,"roughnessFactor":0.800000011920929}}],"meshes":[{"name":"SM_Cup_LOD0","primitives":[{"attributes":{"NORMAL":3,"POSITION":2,"TANGENT":4,"TEXCOORD_0":5,"TEXCOORD_1":6},"indices":1,"material":0,"mode":4}]},{"name":"SM_Cup_LOD1","primitives":[{"attributes":{"NORMAL":9,"POSITION":8,"TANGENT":10,"TEXCOORD_0":11,"TEXCOORD_1":12},"indices":7,"material":0,"mode":4}]},{"name":"SM_Cup_LOD2","primitives":[{"attributes":{"NORMAL":15,"POSITION":14,"TANGENT":16,"TEXCOORD_0":17,"TEXCOORD_1":18},"indices":13,"material":0,"mode":4}]},{"name":"SM_Cup_LOD3","primitives":[{"attributes":{"NORMAL":21,"POSITION":20,"TANGENT":22,"TEXCOORD_0":23,"TEXCOORD_1":24},"indices":19,"material":0,"mode":4}]},{"name":"SM_Cup_ConvexHulls","primitives":[{"attributes":{"NORMAL":27,"POSITION":26,"TEXCOORD_0":28,"TEXCOORD_1":29},"indices":25,"material":1,"mode":4}]}],"nodes":[{"children":[1,2,3,4,5],"name":"SM_Cup_22","originalUnits":0.00999999977648258,"pivot":[0,0,0],"rotation":[0,0,0,1],"scale":[1,1,1],"translation":[0,0,0]},{"mesh":0,"name":"SM_Cup_LOD0","originalUnits":0.00999999977648258,"pivot":[0,0,0],"rotation":[0,0,0,1],"scale":[1,1,1],"translation":[0,0,0]},{"mesh":4,"name":"SM_Cup_ConvexHulls","originalUnits":0.00999999977648258,"pivot":[0,0,0],"rotation":[0,0,0,1],"scale":[1,1,1],"translation":[0,0,0]},{"mesh":1,"name":"SM_Cup_LOD1","originalUnits":0.00999999977648258,"pivot":[0,0,0],"rotation":[0,0,0,1],"scale":[1,1,1],"translation":[0,0,0]},{"mesh":2,"name":"SM_Cup_LOD2","originalUnits":0.00999999977648258,"pivot":[0,0,0],"rotation":[0,0,0,1],"scale":[1,1,1],"translation":[0,0,0]},{"mesh":3,"name":"SM_Cup_LOD3","originalUnits":0.00999999977648258,"pivot":[0,0,0],"rotation":[0,0,0,1],"scale":[1,1,1],"translation":[0,0,0]}],"samplers":[{}],"scene":0,"scenes":[{"name":"Root Scene","nodes":[0]}],"textures":[{"name":"MI_Wood_Stuff","sampler":0,"source":0},{"name":"MI_Wood_Stuff","sampler":0,"source":1}]}