{"accessors":[{"bufferView":0,"byteOffset":0,"componentType":5126,"count":1,"max":[0],"min":[0],"type":"SCALAR"},{"bufferView":1,"byteOffset":0,"componentType":5123,"count":32688,"type":"SCALAR"},{"bufferView":2,"byteOffset":0,"componentType":5126,"count":9658,"max":[0.316466927528381,0.253549575805664,0.627065718173981],"min":[-0.31832641363144,0.00149540044367313,-0.5983721613884],"type":"VEC3"},{"bufferView":3,"byteOffset":0,"componentType":5126,"count":9658,"type":"VEC3"},{"bufferView":4,"byteOffset":0,"componentType":5126,"count":9658,"type":"VEC4"},{"bufferView":5,"byteOffset":0,"componentType":5126,"count":9658,"type":"VEC2"},{"bufferView":6,"byteOffset":0,"componentType":5126,"count":9658,"type":"VEC2"},{"bufferView":7,"byteOffset":0,"componentType":5123,"count":24516,"type":"SCALAR"},{"bufferView":8,"byteOffset":0,"componentType":5126,"count":7712,"max":[0.316472887992859,0.253549575805664,0.627389490604401],"min":[-0.31834530830383,0.00149540044367313,-0.5983721613884],"type":"VEC3"},{"bufferView":9,"byteOffset":0,"componentType":5126,"count":7712,"type":"VEC3"},{"bufferView":10,"byteOffset":0,"componentType":5126,"count":7712,"type":"VEC4"},{"bufferView":11,"byteOffset":0,"componentType":5126,"count":7712,"type":"VEC2"},{"bufferView":12,"byteOffset":0,"componentType":5126,"count":7712,"type":"VEC2"},{"bufferView":13,"byteOffset":0,"componentType":5123,"count":16344,"type":"SCALAR"},{"bufferView":14,"byteOffset":0,"componentType":5126,"count":5693,"max":[0.316466927528381,0.253455370664597,0.629396021366119],"min":[-0.31834530830383,0.00149540044367313,-0.60070526599884],"type":"VEC3"},{"bufferView":15,"byteOffset":0,"componentType":5126,"count":5693,"type":"VEC3"},{"bufferView":16,"byteOffset":0,"componentType":5126,"count":5693,"type":"VEC4"},{"bufferView":17,"byteOffset":0,"componentType":5126,"count":5693,"type":"VEC2"},{"bufferView":18,"byteOffset":0,"componentType":5126,"count":5693,"type":"VEC2"},{"bufferView":19,"byteOffset":0,"componentType":5123,"count":4083,"type":"SCALAR"},{"bufferView":20,"byteOffset":0,"componentType":5126,"count":2634,"max":[0.317961692810059,0.253909021615982,0.628615498542786],"min":[-0.3212568461895,0.00172516400925815,-0.59992462396622],"type":"VEC3"},{"bufferView":21,"byteOffset":0,"componentType":5126,"count":2634,"type":"VEC3"},{"bufferView":22,"byteOffset":0,"componentType":5126,"count":2634,"type":"VEC4"},{"bufferView":23,"byteOffset":0,"componentType":5126,"count":2634,"type":"VEC2"},{"bufferView":24,"byteOffset":0,"componentType":5126,"count":2634,"type":"VEC2"},{"bufferView":25,"byteOffset":0,"componentType":5123,"count":84,"type":"SCALAR"},{"bufferView":26,"byteOffset":0,"componentType":5126,"count":16,"max":[0.309830367565155,0.253993928432465,0.63330066204071],"min":[-0.31100285053253,-0.0065990164876,-0.60593670606613],"type":"VEC3"},{"bufferView":27,"byteOffset":0,"componentType":5126,"count":16,"type":"VEC3"},{"bufferView":28,"byteOffset":0,"componentType":5126,"count":16,"type":"VEC2"},{"bufferView":29,"byteOffset":0,"componentType":5126,"count":16,"type":"VEC2"}],"animations":[{"channels":[],"name":"Unreal Take","samplers":[]}],"asset":{"generator":"FBX2glTF v0.13.0","version":"2.0"},"bufferViews":[{"buffer":0,"byteLength":4,"byteOffset":0},{"buffer":0,"byteLength":65376,"byteOffset":4,"target":34963},{"buffer":0,"byteLength":115896,"byteOffset":65380,"target":34962},{"buffer":0,"byteLength":115896,"byteOffset":181276,"target":34962},{"buffer":0,"byteLength":154528,"byteOffset":297172,"target":34962},{"buffer":0,"byteLength":77264,"byteOffset":451700,"target":34962},{"buffer":0,"byteLength":77264,"byteOffset":528964,"target":34962},{"buffer":0,"byteLength":49032,"byteOffset":606228,"target":34963},{"buffer":0,"byteLength":92544,"byteOffset":655260,"target":34962},{"buffer":0,"byteLength":92544,"byteOffset":747804,"target":34962},{"buffer":0,"byteLength":123392,"byteOffset":840348,"target":34962},{"buffer":0,"byteLength":61696,"byteOffset":963740,"target":34962},{"buffer":0,"byteLength":61696,"byteOffset":1025436,"target":34962},{"buffer":0,"byteLength":32688,"byteOffset":1087132,"target":34963},{"buffer":0,"byteLength":68316,"byteOffset":1119820,"target":34962},{"buffer":0,"byteLength":68316,"byteOffset":1188136,"target":34962},{"buffer":0,"byteLength":91088,"byteOffset":1256452,"target":34962},{"buffer":0,"byteLength":45544,"byteOffset":1347540,"target":34962},{"buffer":0,"byteLength":45544,"byteOffset":1393084,"target":34962},{"buffer":0,"byteLength":8166,"byteOffset":1438628,"target":34963},{"buffer":0,"byteLength":31608,"byteOffset":1446796,"target":34962},{"buffer":0,"byteLength":31608,"byteOffset":1478404,"target":34962},{"buffer":0,"byteLength":42144,"byteOffset":1510012,"target":34962},{"buffer":0,"byteLength":21072,"byteOffset":1552156,"target":34962},{"buffer":0,"byteLength":21072,"byteOffset":1573228,"target":34962},{"buffer":0,"byteLength":168,"byteOffset":1594300,"target":34963},{"buffer":0,"byteLength":192,"byteOffset":1594468,"target":34962},{"buffer":0,"byteLength":192,"byteOffset":1594660,"target":34962},{"buffer":0,"byteLength":128,"byteOffset":1594852,"target":34962},{"buffer":0,"byteLength":128,"byteOffset":1594980,"target":34962}],"buffers":[{"byteLength":1595108,"uri":"SM_Chest_02.bin"}],"images":[{"name":"T_Woodprops_01_N","uri":"T_Woodprops_01_N.png"},{"name":"T_Woodprops_01_B","uri":"T_Woodprops_01_B.png"}],"materials":[{"alphaMode":"OPAQUE","doubleSided":false,"extras":{"fromFBX":{"isTruePBR":false,"shadingModel":"Phong"}},"name":"MI_Chest_02","normalTexture":{"index":0,"texCoord":0},"pbrMetallicRoughness":{"baseColorFactor":[1,1,1,1],"baseColorTexture":{"index":1,"texCoord":0},"metallicFactor":0.400000005960464,"roughnessFactor":0.301511347293854}},{"alphaMode":"OPAQUE","doubleSided":false,"extras":{"fromFBX":{"isTruePBR":false,"shadingModel":"Lambert"}},"name":"DefaultMaterial","pbrMetallicRoughness":{"baseColorFactor":[0.5,0.5,0.5,1],"metallicFactor":0.200000002980232,"roughnessFactor":0.800000011920929}}],"meshes":[{"name":"SM_Chest_02_LOD0","primitives":[{"attributes":{"NORMAL":3,"POSITION":2,"TANGENT":4,"TEXCOORD_0":5,"TEXCOORD_1":6},"indices":1,"material":0,"mode":4}]},{"name":"SM_Chest_02_LOD1","primitives":[{"attributes":{"NORMAL":9,"POSITION":8,"TANGENT":10,"TEXCOORD_0":11,"TEXCOORD_1":12},"indices":7,"material":0,"mode":4}]},{"name":"SM_Chest_02_LOD2","primitives":[{"attributes":{"NORMAL":15,"POSITION":14,"TANGENT":16,"TEXCOORD_0":17,"TEXCOORD_1":18},"indices":13,"material":0,"mode":4}]},{"name":"SM_Chest_02_LOD3","primitives":[{"attributes":{"NORMAL":21,"POSITION":20,"TANGENT":22,"TEXCOORD_0":23,"TEXCOORD_1":24},"indices":19,"material":0,"mode":4}]},{"name":"SM_Chest_02_ConvexHulls","primitives":[{"attributes":{"NORMAL":27,"POSITION":26,"TEXCOORD_0":28,"TEXCOORD_1":29},"indices":25,"material":1,"mode":4}]}],"nodes":[{"children":[1,2,3,4,5],"name":"SM_Chest_02_18","originalUnits":0.00999999977648258,"pivot":[0,0,0],"rotation":[0,0,0,1],"scale":[1,1,1],"translation":[0,0,0]},{"mesh":0,"name":"SM_Chest_02_LOD0","originalUnits":0.00999999977648258,"pivot":[0,0,0],"rotation":[0,0,0,1],"scale":[1,1,1],"translation":[0,0,0]},{"mesh":4,"name":"SM_Chest_02_ConvexHulls","originalUnits":0.00999999977648258,"pivot":[0,0,0],"rotation":[0,0,0,1],"scale":[1,1,1],"translation":[0,0,0]},{"mesh":1,"name":"SM_Chest_02_LOD1","originalUnits":0.00999999977648258,"pivot":[0,0,0],"rotation":[0,0,0,1],"scale":[1,1,1],"translation":[0,0,0]},{"mesh":2,"name":"SM_Chest_02_LOD2","originalUnits":0.00999999977648258,"pivot":[0,0,0],"rotation":[0,0,0,1],"scale":[1,1,1],"translation":[0,0,0]},{"mesh":3,"name":"SM_Chest_02_LOD3","originalUnits":0.00999999977648258,"pivot":[0,0,0],"rotation":[0,0,0,1],"scale":[1,1,1],"translation":[0,0,0]}],"samplers":[{}],"scene":0,"scenes":[{"name":"Root Scene","nodes":[0]}],"textures":[{"name":"MI_Chest_02","sampler":0,"source":0},{"name":"MI_Chest_02","sampler":0,"source":1}]}