{"accessors":[{"bufferView":0,"byteOffset":0,"componentType":5126,"count":1,"max":[0],"min":[0],"type":"SCALAR"},{"bufferView":1,"byteOffset":0,"componentType":5123,"count":39267,"type":"SCALAR"},{"bufferView":2,"byteOffset":0,"componentType":5126,"count":8567,"max":[0.311297804117203,0.596731245517731,0.721575140953064],"min":[-0.28699234127998,-0.02218769304454,-0.72070050239563],"type":"VEC3"},{"bufferView":3,"byteOffset":0,"componentType":5126,"count":8567,"type":"VEC3"},{"bufferView":4,"byteOffset":0,"componentType":5126,"count":8567,"type":"VEC4"},{"bufferView":5,"byteOffset":0,"componentType":5126,"count":8567,"type":"VEC2"},{"bufferView":6,"byteOffset":0,"componentType":5126,"count":8567,"type":"VEC2"},{"bufferView":7,"byteOffset":0,"componentType":5123,"count":29451,"type":"SCALAR"},{"bufferView":8,"byteOffset":0,"componentType":5126,"count":6763,"max":[0.311297804117203,0.596731245517731,0.721575140953064],"min":[-0.28699234127998,-0.02218769304454,-0.72070050239563],"type":"VEC3"},{"bufferView":9,"byteOffset":0,"componentType":5126,"count":6763,"type":"VEC3"},{"bufferView":10,"byteOffset":0,"componentType":5126,"count":6763,"type":"VEC4"},{"bufferView":11,"byteOffset":0,"componentType":5126,"count":6763,"type":"VEC2"},{"bufferView":12,"byteOffset":0,"componentType":5126,"count":6763,"type":"VEC2"},{"bufferView":13,"byteOffset":0,"componentType":5123,"count":19635,"type":"SCALAR"},{"bufferView":14,"byteOffset":0,"componentType":5126,"count":4764,"max":[0.311902672052383,0.596731245517731,0.721575140953064],"min":[-0.28713291883469,-0.02218769304454,-0.72070050239563],"type":"VEC3"},{"bufferView":15,"byteOffset":0,"componentType":5126,"count":4764,"type":"VEC3"},{"bufferView":16,"byteOffset":0,"componentType":5126,"count":4764,"type":"VEC4"},{"bufferView":17,"byteOffset":0,"componentType":5126,"count":4764,"type":"VEC2"},{"bufferView":18,"byteOffset":0,"componentType":5126,"count":4764,"type":"VEC2"},{"bufferView":19,"byteOffset":0,"componentType":5123,"count":4911,"type":"SCALAR"},{"bufferView":20,"byteOffset":0,"componentType":5126,"count":1555,"max":[0.311851561069489,0.598523199558258,0.721449315547943],"min":[-0.28715232014656,-0.02397970668972,-0.72057467699051],"type":"VEC3"},{"bufferView":21,"byteOffset":0,"componentType":5126,"count":1555,"type":"VEC3"},{"bufferView":22,"byteOffset":0,"componentType":5126,"count":1555,"type":"VEC4"},{"bufferView":23,"byteOffset":0,"componentType":5126,"count":1555,"type":"VEC2"},{"bufferView":24,"byteOffset":0,"componentType":5126,"count":1555,"type":"VEC2"},{"bufferView":25,"byteOffset":0,"componentType":5123,"count":84,"type":"SCALAR"},{"bufferView":26,"byteOffset":0,"componentType":5126,"count":16,"max":[0.309428244829178,0.593027889728546,0.701546370983124],"min":[-0.30240473151207,-0.01735031418502,-0.69889968633652],"type":"VEC3"},{"bufferView":27,"byteOffset":0,"componentType":5126,"count":16,"type":"VEC3"},{"bufferView":28,"byteOffset":0,"componentType":5126,"count":16,"type":"VEC2"},{"bufferView":29,"byteOffset":0,"componentType":5126,"count":16,"type":"VEC2"}],"animations":[{"channels":[],"name":"Unreal Take","samplers":[]}],"asset":{"generator":"FBX2glTF v0.13.0","version":"2.0"},"bufferViews":[{"buffer":0,"byteLength":4,"byteOffset":0},{"buffer":0,"byteLength":78534,"byteOffset":4,"target":34963},{"buffer":0,"byteLength":102804,"byteOffset":78540,"target":34962},{"buffer":0,"byteLength":102804,"byteOffset":181344,"target":34962},{"buffer":0,"byteLength":137072,"byteOffset":284148,"target":34962},{"buffer":0,"byteLength":68536,"byteOffset":421220,"target":34962},{"buffer":0,"byteLength":68536,"byteOffset":489756,"target":34962},{"buffer":0,"byteLength":58902,"byteOffset":558292,"target":34963},{"buffer":0,"byteLength":81156,"byteOffset":617196,"target":34962},{"buffer":0,"byteLength":81156,"byteOffset":698352,"target":34962},{"buffer":0,"byteLength":108208,"byteOffset":779508,"target":34962},{"buffer":0,"byteLength":54104,"byteOffset":887716,"target":34962},{"buffer":0,"byteLength":54104,"byteOffset":941820,"target":34962},{"buffer":0,"byteLength":39270,"byteOffset":995924,"target":34963},{"buffer":0,"byteLength":57168,"byteOffset":1035196,"target":34962},{"buffer":0,"byteLength":57168,"byteOffset":1092364,"target":34962},{"buffer":0,"byteLength":76224,"byteOffset":1149532,"target":34962},{"buffer":0,"byteLength":38112,"byteOffset":1225756,"target":34962},{"buffer":0,"byteLength":38112,"byteOffset":1263868,"target":34962},{"buffer":0,"byteLength":9822,"byteOffset":1301980,"target":34963},{"buffer":0,"byteLength":18660,"byteOffset":1311804,"target":34962},{"buffer":0,"byteLength":18660,"byteOffset":1330464,"target":34962},{"buffer":0,"byteLength":24880,"byteOffset":1349124,"target":34962},{"buffer":0,"byteLength":12440,"byteOffset":1374004,"target":34962},{"buffer":0,"byteLength":12440,"byteOffset":1386444,"target":34962},{"buffer":0,"byteLength":168,"byteOffset":1398884,"target":34963},{"buffer":0,"byteLength":192,"byteOffset":1399052,"target":34962},{"buffer":0,"byteLength":192,"byteOffset":1399244,"target":34962},{"buffer":0,"byteLength":128,"byteOffset":1399436,"target":34962},{"buffer":0,"byteLength":128,"byteOffset":1399564,"target":34962}],"buffers":[{"byteLength":1399692,"uri":"SM_Chest_01.bin"}],"images":[{"name":"T_Woodprops_01_N","uri":"T_Woodprops_01_N.png"},{"name":"T_Woodprops_01_B","uri":"T_Woodprops_01_B.png"}],"materials":[{"alphaMode":"OPAQUE","doubleSided":false,"extras":{"fromFBX":{"isTruePBR":false,"shadingModel":"Phong"}},"name":"MI_Chest_01","normalTexture":{"index":0,"texCoord":0},"pbrMetallicRoughness":{"baseColorFactor":[1,1,1,1],"baseColorTexture":{"index":1,"texCoord":0},"metallicFactor":0.400000005960464,"roughnessFactor":0.301511347293854}},{"alphaMode":"OPAQUE","doubleSided":false,"extras":{"fromFBX":{"isTruePBR":false,"shadingModel":"Lambert"}},"name":"DefaultMaterial","pbrMetallicRoughness":{"baseColorFactor":[0.5,0.5,0.5,1],"metallicFactor":0.200000002980232,"roughnessFactor":0.800000011920929}}],"meshes":[{"name":"SM_Chest_01_LOD0","primitives":[{"attributes":{"NORMAL":3,"POSITION":2,"TANGENT":4,"TEXCOORD_0":5,"TEXCOORD_1":6},"indices":1,"material":0,"mode":4}]},{"name":"SM_Chest_01_LOD1","primitives":[{"attributes":{"NORMAL":9,"POSITION":8,"TANGENT":10,"TEXCOORD_0":11,"TEXCOORD_1":12},"indices":7,"material":0,"mode":4}]},{"name":"SM_Chest_01_LOD2","primitives":[{"attributes":{"NORMAL":15,"POSITION":14,"TANGENT":16,"TEXCOORD_0":17,"TEXCOORD_1":18},"indices":13,"material":0,"mode":4}]},{"name":"SM_Chest_01_LOD3","primitives":[{"attributes":{"NORMAL":21,"POSITION":20,"TANGENT":22,"TEXCOORD_0":23,"TEXCOORD_1":24},"indices":19,"material":0,"mode":4}]},{"name":"SM_Chest_01_ConvexHulls","primitives":[{"attributes":{"NORMAL":27,"POSITION":26,"TEXCOORD_0":28,"TEXCOORD_1":29},"indices":25,"material":1,"mode":4}]}],"nodes":[{"children":[1,2,3,4,5],"name":"SM_Chest_01_17","originalUnits":0.00999999977648258,"pivot":[0,0,0],"rotation":[0,0,0,1],"scale":[1,1,1],"translation":[0,0,0]},{"mesh":0,"name":"SM_Chest_01_LOD0","originalUnits":0.00999999977648258,"pivot":[0,0,0],"rotation":[0,0,0,1],"scale":[1,1,1],"translation":[0,0,0]},{"mesh":4,"name":"SM_Chest_01_ConvexHulls","originalUnits":0.00999999977648258,"pivot":[0,0,0],"rotation":[0,0,0,1],"scale":[1,1,1],"translation":[0,0,0]},{"mesh":1,"name":"SM_Chest_01_LOD1","originalUnits":0.00999999977648258,"pivot":[0,0,0],"rotation":[0,0,0,1],"scale":[1,1,1],"translation":[0,0,0]},{"mesh":2,"name":"SM_Chest_01_LOD2","originalUnits":0.00999999977648258,"pivot":[0,0,0],"rotation":[0,0,0,1],"scale":[1,1,1],"translation":[0,0,0]},{"mesh":3,"name":"SM_Chest_01_LOD3","originalUnits":0.00999999977648258,"pivot":[0,0,0],"rotation":[0,0,0,1],"scale":[1,1,1],"translation":[0,0,0]}],"samplers":[{}],"scene":0,"scenes":[{"name":"Root Scene","nodes":[0]}],"textures":[{"name":"MI_Chest_01","sampler":0,"source":0},{"name":"MI_Chest_01","sampler":0,"source":1}]}