{"accessors":[{"bufferView":0,"byteOffset":0,"componentType":5126,"count":1,"max":[0],"min":[0],"type":"SCALAR"},{"bufferView":1,"byteOffset":0,"componentType":5123,"count":86532,"type":"SCALAR"},{"bufferView":2,"byteOffset":0,"componentType":5126,"count":22610,"max":[0.404382824897766,4.11950302124023,4.70294618606567],"min":[-1.20653343200684,-0.00159119127784,-1.0006822347641],"type":"VEC3"},{"bufferView":3,"byteOffset":0,"componentType":5126,"count":22610,"type":"VEC3"},{"bufferView":4,"byteOffset":0,"componentType":5126,"count":22610,"type":"VEC4"},{"bufferView":5,"byteOffset":0,"componentType":5126,"count":22610,"type":"VEC2"},{"bufferView":6,"byteOffset":0,"componentType":5126,"count":22610,"type":"VEC2"},{"bufferView":7,"byteOffset":0,"componentType":5123,"count":64896,"type":"SCALAR"},{"bufferView":8,"byteOffset":0,"componentType":5126,"count":17392,"max":[0.404382824897766,4.11950302124023,4.70294618606567],"min":[-1.20653343200684,-0.00159119127784,-1.0006822347641],"type":"VEC3"},{"bufferView":9,"byteOffset":0,"componentType":5126,"count":17392,"type":"VEC3"},{"bufferView":10,"byteOffset":0,"componentType":5126,"count":17392,"type":"VEC4"},{"bufferView":11,"byteOffset":0,"componentType":5126,"count":17392,"type":"VEC2"},{"bufferView":12,"byteOffset":0,"componentType":5126,"count":17392,"type":"VEC2"},{"bufferView":13,"byteOffset":0,"componentType":5123,"count":43263,"type":"SCALAR"},{"bufferView":14,"byteOffset":0,"componentType":5126,"count":12684,"max":[0.404382824897766,4.11950302124023,4.70294618606567],"min":[-1.20653343200684,-0.00159119127784,-1.0006822347641],"type":"VEC3"},{"bufferView":15,"byteOffset":0,"componentType":5126,"count":12684,"type":"VEC3"},{"bufferView":16,"byteOffset":0,"componentType":5126,"count":12684,"type":"VEC4"},{"bufferView":17,"byteOffset":0,"componentType":5126,"count":12684,"type":"VEC2"},{"bufferView":18,"byteOffset":0,"componentType":5126,"count":12684,"type":"VEC2"},{"bufferView":19,"byteOffset":0,"componentType":5123,"count":10815,"type":"SCALAR"},{"bufferView":20,"byteOffset":0,"componentType":5126,"count":4547,"max":[0.404382824897766,4.11953735351562,4.70437431335449],"min":[-1.20683526992798,-0.00159119127784,-1.00211024284363],"type":"VEC3"},{"bufferView":21,"byteOffset":0,"componentType":5126,"count":4547,"type":"VEC3"},{"bufferView":22,"byteOffset":0,"componentType":5126,"count":4547,"type":"VEC4"},{"bufferView":23,"byteOffset":0,"componentType":5126,"count":4547,"type":"VEC2"},{"bufferView":24,"byteOffset":0,"componentType":5126,"count":4547,"type":"VEC2"},{"bufferView":25,"byteOffset":0,"componentType":5123,"count":396,"type":"SCALAR"},{"bufferView":26,"byteOffset":0,"componentType":5126,"count":80,"max":[0.445056766271591,4.16344165802002,4.73911046981812],"min":[-1.24909019470215,-0.04714690521359,-1.03708493709564],"type":"VEC3"},{"bufferView":27,"byteOffset":0,"componentType":5126,"count":80,"type":"VEC3"},{"bufferView":28,"byteOffset":0,"componentType":5126,"count":80,"type":"VEC2"},{"bufferView":29,"byteOffset":0,"componentType":5126,"count":80,"type":"VEC2"}],"animations":[{"channels":[],"name":"Unreal Take","samplers":[]}],"asset":{"generator":"FBX2glTF v0.13.0","version":"2.0"},"bufferViews":[{"buffer":0,"byteLength":4,"byteOffset":0},{"buffer":0,"byteLength":173064,"byteOffset":4,"target":34963},{"buffer":0,"byteLength":271320,"byteOffset":173068,"target":34962},{"buffer":0,"byteLength":271320,"byteOffset":444388,"target":34962},{"buffer":0,"byteLength":361760,"byteOffset":715708,"target":34962},{"buffer":0,"byteLength":180880,"byteOffset":1077468,"target":34962},{"buffer":0,"byteLength":180880,"byteOffset":1258348,"target":34962},{"buffer":0,"byteLength":129792,"byteOffset":1439228,"target":34963},{"buffer":0,"byteLength":208704,"byteOffset":1569020,"target":34962},{"buffer":0,"byteLength":208704,"byteOffset":1777724,"target":34962},{"buffer":0,"byteLength":278272,"byteOffset":1986428,"target":34962},{"buffer":0,"byteLength":139136,"byteOffset":2264700,"target":34962},{"buffer":0,"byteLength":139136,"byteOffset":2403836,"target":34962},{"buffer":0,"byteLength":86526,"byteOffset":2542972,"target":34963},{"buffer":0,"byteLength":152208,"byteOffset":2629500,"target":34962},{"buffer":0,"byteLength":152208,"byteOffset":2781708,"target":34962},{"buffer":0,"byteLength":202944,"byteOffset":2933916,"target":34962},{"buffer":0,"byteLength":101472,"byteOffset":3136860,"target":34962},{"buffer":0,"byteLength":101472,"byteOffset":3238332,"target":34962},{"buffer":0,"byteLength":21630,"byteOffset":3339804,"target":34963},{"buffer":0,"byteLength":54564,"byteOffset":3361436,"target":34962},{"buffer":0,"byteLength":54564,"byteOffset":3416000,"target":34962},{"buffer":0,"byteLength":72752,"byteOffset":3470564,"target":34962},{"buffer":0,"byteLength":36376,"byteOffset":3543316,"target":34962},{"buffer":0,"byteLength":36376,"byteOffset":3579692,"target":34962},{"buffer":0,"byteLength":792,"byteOffset":3616068,"target":34963},{"buffer":0,"byteLength":960,"byteOffset":3616860,"target":34962},{"buffer":0,"byteLength":960,"byteOffset":3617820,"target":34962},{"buffer":0,"byteLength":640,"byteOffset":3618780,"target":34962},{"buffer":0,"byteLength":640,"byteOffset":3619420,"target":34962}],"buffers":[{"byteLength":3620060,"uri":"SM_Cupboard.bin"}],"images":[{"name":"T_Cupboard_N","uri":"T_Cupboard_N.png"},{"name":"T_Cupboard_B","uri":"T_Cupboard_B.png"}],"materials":[{"alphaMode":"OPAQUE","doubleSided":false,"extras":{"fromFBX":{"isTruePBR":false,"shadingModel":"Phong"}},"name":"MI_CupBoard","normalTexture":{"index":0,"texCoord":0},"pbrMetallicRoughness":{"baseColorFactor":[1,1,1,1],"baseColorTexture":{"index":1,"texCoord":0},"metallicFactor":0.400000005960464,"roughnessFactor":0.301511347293854}},{"alphaMode":"OPAQUE","doubleSided":false,"extras":{"fromFBX":{"isTruePBR":false,"shadingModel":"Lambert"}},"name":"DefaultMaterial","pbrMetallicRoughness":{"baseColorFactor":[0.5,0.5,0.5,1],"metallicFactor":0.200000002980232,"roughnessFactor":0.800000011920929}}],"meshes":[{"name":"SM_Cupboard_LOD0","primitives":[{"attributes":{"NORMAL":3,"POSITION":2,"TANGENT":4,"TEXCOORD_0":5,"TEXCOORD_1":6},"indices":1,"material":0,"mode":4}]},{"name":"SM_Cupboard_LOD1","primitives":[{"attributes":{"NORMAL":9,"POSITION":8,"TANGENT":10,"TEXCOORD_0":11,"TEXCOORD_1":12},"indices":7,"material":0,"mode":4}]},{"name":"SM_Cupboard_LOD2","primitives":[{"attributes":{"NORMAL":15,"POSITION":14,"TANGENT":16,"TEXCOORD_0":17,"TEXCOORD_1":18},"indices":13,"material":0,"mode":4}]},{"name":"SM_Cupboard_LOD3","primitives":[{"attributes":{"NORMAL":21,"POSITION":20,"TANGENT":22,"TEXCOORD_0":23,"TEXCOORD_1":24},"indices":19,"material":0,"mode":4}]},{"name":"SM_Cupboard_ConvexHulls","primitives":[{"attributes":{"NORMAL":27,"POSITION":26,"TEXCOORD_0":28,"TEXCOORD_1":29},"indices":25,"material":1,"mode":4}]}],"nodes":[{"children":[1,2,3,4,5],"name":"SM_Cupboard_23","originalUnits":0.00999999977648258,"pivot":[0,0,0],"rotation":[0,0,0,1],"scale":[1,1,1],"translation":[0,0,0]},{"mesh":0,"name":"SM_Cupboard_LOD0","originalUnits":0.00999999977648258,"pivot":[0,0,0],"rotation":[0,0,0,1],"scale":[1,1,1],"translation":[0,0,0]},{"mesh":4,"name":"SM_Cupboard_ConvexHulls","originalUnits":0.00999999977648258,"pivot":[0,0,0],"rotation":[0,0,0,1],"scale":[1,1,1],"translation":[0,0,0]},{"mesh":1,"name":"SM_Cupboard_LOD1","originalUnits":0.00999999977648258,"pivot":[0,0,0],"rotation":[0,0,0,1],"scale":[1,1,1],"translation":[0,0,0]},{"mesh":2,"name":"SM_Cupboard_LOD2","originalUnits":0.00999999977648258,"pivot":[0,0,0],"rotation":[0,0,0,1],"scale":[1,1,1],"translation":[0,0,0]},{"mesh":3,"name":"SM_Cupboard_LOD3","originalUnits":0.00999999977648258,"pivot":[0,0,0],"rotation":[0,0,0,1],"scale":[1,1,1],"translation":[0,0,0]}],"samplers":[{}],"scene":0,"scenes":[{"name":"Root Scene","nodes":[0]}],"textures":[{"name":"MI_CupBoard","sampler":0,"source":0},{"name":"MI_CupBoard","sampler":0,"source":1}]}