{"accessors":[{"bufferView":0,"byteOffset":0,"componentType":5126,"count":1,"max":[0],"min":[0],"type":"SCALAR"},{"bufferView":1,"byteOffset":0,"componentType":5123,"count":3606,"type":"SCALAR"},{"bufferView":2,"byteOffset":0,"componentType":5126,"count":1336,"max":[0.0922754257917404,2.67108464241028,0.597502589225769],"min":[-0.44271886348724,-0.00350034795702,-0.59750252962112],"type":"VEC3"},{"bufferView":3,"byteOffset":0,"componentType":5126,"count":1336,"type":"VEC3"},{"bufferView":4,"byteOffset":0,"componentType":5126,"count":1336,"type":"VEC4"},{"bufferView":5,"byteOffset":0,"componentType":5126,"count":1336,"type":"VEC2"},{"bufferView":6,"byteOffset":0,"componentType":5126,"count":1336,"type":"VEC2"},{"bufferView":7,"byteOffset":0,"componentType":5123,"count":2706,"type":"SCALAR"},{"bufferView":8,"byteOffset":0,"componentType":5126,"count":1127,"max":[0.0922754257917404,2.67108464241028,0.597502648830414],"min":[-0.44271886348724,-0.00368536799215,-0.59750252962112],"type":"VEC3"},{"bufferView":9,"byteOffset":0,"componentType":5126,"count":1127,"type":"VEC3"},{"bufferView":10,"byteOffset":0,"componentType":5126,"count":1127,"type":"VEC4"},{"bufferView":11,"byteOffset":0,"componentType":5126,"count":1127,"type":"VEC2"},{"bufferView":12,"byteOffset":0,"componentType":5126,"count":1127,"type":"VEC2"},{"bufferView":13,"byteOffset":0,"componentType":5123,"count":1800,"type":"SCALAR"},{"bufferView":14,"byteOffset":0,"componentType":5126,"count":941,"max":[0.0922754257917404,2.67108464241028,0.597502648830414],"min":[-0.44271886348724,-0.0044354936108,-0.59750252962112],"type":"VEC3"},{"bufferView":15,"byteOffset":0,"componentType":5126,"count":941,"type":"VEC3"},{"bufferView":16,"byteOffset":0,"componentType":5126,"count":941,"type":"VEC4"},{"bufferView":17,"byteOffset":0,"componentType":5126,"count":941,"type":"VEC2"},{"bufferView":18,"byteOffset":0,"componentType":5126,"count":941,"type":"VEC2"},{"bufferView":19,"byteOffset":0,"componentType":5123,"count":453,"type":"SCALAR"},{"bufferView":20,"byteOffset":0,"componentType":5126,"count":309,"max":[0.0917813926935196,2.67124199867249,0.5966796875],"min":[-0.44245705008507,-0.02562809921801,-0.59666693210602],"type":"VEC3"},{"bufferView":21,"byteOffset":0,"componentType":5126,"count":309,"type":"VEC3"},{"bufferView":22,"byteOffset":0,"componentType":5126,"count":309,"type":"VEC4"},{"bufferView":23,"byteOffset":0,"componentType":5126,"count":309,"type":"VEC2"},{"bufferView":24,"byteOffset":0,"componentType":5126,"count":309,"type":"VEC2"},{"bufferView":25,"byteOffset":0,"componentType":5123,"count":288,"type":"SCALAR"},{"bufferView":26,"byteOffset":0,"componentType":5126,"count":56,"max":[0.103310219943523,2.68720889091492,0.611543893814087],"min":[-0.46314761042595,-0.00350034795702,-0.60840481519699],"type":"VEC3"},{"bufferView":27,"byteOffset":0,"componentType":5126,"count":56,"type":"VEC3"},{"bufferView":28,"byteOffset":0,"componentType":5126,"count":56,"type":"VEC2"},{"bufferView":29,"byteOffset":0,"componentType":5126,"count":56,"type":"VEC2"}],"animations":[{"channels":[],"name":"Unreal Take","samplers":[]}],"asset":{"generator":"FBX2glTF v0.13.0","version":"2.0"},"bufferViews":[{"buffer":0,"byteLength":4,"byteOffset":0},{"buffer":0,"byteLength":7212,"byteOffset":4,"target":34963},{"buffer":0,"byteLength":16032,"byteOffset":7216,"target":34962},{"buffer":0,"byteLength":16032,"byteOffset":23248,"target":34962},{"buffer":0,"byteLength":21376,"byteOffset":39280,"target":34962},{"buffer":0,"byteLength":10688,"byteOffset":60656,"target":34962},{"buffer":0,"byteLength":10688,"byteOffset":71344,"target":34962},{"buffer":0,"byteLength":5412,"byteOffset":82032,"target":34963},{"buffer":0,"byteLength":13524,"byteOffset":87444,"target":34962},{"buffer":0,"byteLength":13524,"byteOffset":100968,"target":34962},{"buffer":0,"byteLength":18032,"byteOffset":114492,"target":34962},{"buffer":0,"byteLength":9016,"byteOffset":132524,"target":34962},{"buffer":0,"byteLength":9016,"byteOffset":141540,"target":34962},{"buffer":0,"byteLength":3600,"byteOffset":150556,"target":34963},{"buffer":0,"byteLength":11292,"byteOffset":154156,"target":34962},{"buffer":0,"byteLength":11292,"byteOffset":165448,"target":34962},{"buffer":0,"byteLength":15056,"byteOffset":176740,"target":34962},{"buffer":0,"byteLength":7528,"byteOffset":191796,"target":34962},{"buffer":0,"byteLength":7528,"byteOffset":199324,"target":34962},{"buffer":0,"byteLength":906,"byteOffset":206852,"target":34963},{"buffer":0,"byteLength":3708,"byteOffset":207760,"target":34962},{"buffer":0,"byteLength":3708,"byteOffset":211468,"target":34962},{"buffer":0,"byteLength":4944,"byteOffset":215176,"target":34962},{"buffer":0,"byteLength":2472,"byteOffset":220120,"target":34962},{"buffer":0,"byteLength":2472,"byteOffset":222592,"target":34962},{"buffer":0,"byteLength":576,"byteOffset":225064,"target":34963},{"buffer":0,"byteLength":672,"byteOffset":225640,"target":34962},{"buffer":0,"byteLength":672,"byteOffset":226312,"target":34962},{"buffer":0,"byteLength":448,"byteOffset":226984,"target":34962},{"buffer":0,"byteLength":448,"byteOffset":227432,"target":34962}],"buffers":[{"byteLength":227880,"uri":"SM_Cuboard_Small.bin"}],"images":[{"name":"T_ShelfandBench_N","uri":"T_ShelfandBench_N.png"},{"name":"T_ShelfandBench_B","uri":"T_ShelfandBench_B.png"}],"materials":[{"alphaMode":"OPAQUE","doubleSided":false,"extras":{"fromFBX":{"isTruePBR":false,"shadingModel":"Phong"}},"name":"MI_Scroll_Case","normalTexture":{"index":0,"texCoord":0},"pbrMetallicRoughness":{"baseColorFactor":[1,1,1,1],"baseColorTexture":{"index":1,"texCoord":0},"metallicFactor":0.400000005960464,"roughnessFactor":0.301511347293854}},{"alphaMode":"OPAQUE","doubleSided":false,"extras":{"fromFBX":{"isTruePBR":false,"shadingModel":"Lambert"}},"name":"DefaultMaterial","pbrMetallicRoughness":{"baseColorFactor":[0.5,0.5,0.5,1],"metallicFactor":0.200000002980232,"roughnessFactor":0.800000011920929}}],"meshes":[{"name":"SM_Cuboard_Small_LOD0","primitives":[{"attributes":{"NORMAL":3,"POSITION":2,"TANGENT":4,"TEXCOORD_0":5,"TEXCOORD_1":6},"indices":1,"material":0,"mode":4}]},{"name":"SM_Cuboard_Small_LOD1","primitives":[{"attributes":{"NORMAL":9,"POSITION":8,"TANGENT":10,"TEXCOORD_0":11,"TEXCOORD_1":12},"indices":7,"material":0,"mode":4}]},{"name":"SM_Cuboard_Small_LOD2","primitives":[{"attributes":{"NORMAL":15,"POSITION":14,"TANGENT":16,"TEXCOORD_0":17,"TEXCOORD_1":18},"indices":13,"material":0,"mode":4}]},{"name":"SM_Cuboard_Small_LOD3","primitives":[{"attributes":{"NORMAL":21,"POSITION":20,"TANGENT":22,"TEXCOORD_0":23,"TEXCOORD_1":24},"indices":19,"material":0,"mode":4}]},{"name":"SM_Cuboard_Small_ConvexHulls","primitives":[{"attributes":{"NORMAL":27,"POSITION":26,"TEXCOORD_0":28,"TEXCOORD_1":29},"indices":25,"material":1,"mode":4}]}],"nodes":[{"children":[1,2,3,4,5],"name":"SM_Cuboard_Small_21","originalUnits":0.00999999977648258,"pivot":[0,0,0],"rotation":[0,0,0,1],"scale":[1,1,1],"translation":[0,0,0]},{"mesh":0,"name":"SM_Cuboard_Small_LOD0","originalUnits":0.00999999977648258,"pivot":[0,0,0],"rotation":[0,0,0,1],"scale":[1,1,1],"translation":[0,0,0]},{"mesh":4,"name":"SM_Cuboard_Small_ConvexHulls","originalUnits":0.00999999977648258,"pivot":[0,0,0],"rotation":[0,0,0,1],"scale":[1,1,1],"translation":[0,0,0]},{"mesh":1,"name":"SM_Cuboard_Small_LOD1","originalUnits":0.00999999977648258,"pivot":[0,0,0],"rotation":[0,0,0,1],"scale":[1,1,1],"translation":[0,0,0]},{"mesh":2,"name":"SM_Cuboard_Small_LOD2","originalUnits":0.00999999977648258,"pivot":[0,0,0],"rotation":[0,0,0,1],"scale":[1,1,1],"translation":[0,0,0]},{"mesh":3,"name":"SM_Cuboard_Small_LOD3","originalUnits":0.00999999977648258,"pivot":[0,0,0],"rotation":[0,0,0,1],"scale":[1,1,1],"translation":[0,0,0]}],"samplers":[{}],"scene":0,"scenes":[{"name":"Root Scene","nodes":[0]}],"textures":[{"name":"MI_Scroll_Case","sampler":0,"source":0},{"name":"MI_Scroll_Case","sampler":0,"source":1}]}