{"accessors":[{"bufferView":0,"byteOffset":0,"componentType":5126,"count":1,"max":[0],"min":[0],"type":"SCALAR"},{"bufferView":1,"byteOffset":0,"componentType":5123,"count":32856,"type":"SCALAR"},{"bufferView":2,"byteOffset":0,"componentType":5126,"count":7376,"max":[0.539679884910583,1.23281562328339,0.343549102544785],"min":[-0.44416290521622,0.00152041716501117,-0.34354910254478],"type":"VEC3"},{"bufferView":3,"byteOffset":0,"componentType":5126,"count":7376,"type":"VEC3"},{"bufferView":4,"byteOffset":0,"componentType":5126,"count":7376,"type":"VEC4"},{"bufferView":5,"byteOffset":0,"componentType":5126,"count":7376,"type":"VEC2"},{"bufferView":6,"byteOffset":0,"componentType":5126,"count":7376,"type":"VEC2"},{"bufferView":7,"byteOffset":0,"componentType":5123,"count":24642,"type":"SCALAR"},{"bufferView":8,"byteOffset":0,"componentType":5126,"count":5868,"max":[0.539679884910583,1.23281562328339,0.343549102544785],"min":[-0.44416290521622,0.00152041716501117,-0.34354910254478],"type":"VEC3"},{"bufferView":9,"byteOffset":0,"componentType":5126,"count":5868,"type":"VEC3"},{"bufferView":10,"byteOffset":0,"componentType":5126,"count":5868,"type":"VEC4"},{"bufferView":11,"byteOffset":0,"componentType":5126,"count":5868,"type":"VEC2"},{"bufferView":12,"byteOffset":0,"componentType":5126,"count":5868,"type":"VEC2"},{"bufferView":13,"byteOffset":0,"componentType":5123,"count":16428,"type":"SCALAR"},{"bufferView":14,"byteOffset":0,"componentType":5126,"count":4279,"max":[0.539679884910583,1.2335159778595,0.343336254358292],"min":[-0.44416290521622,0.00152041716501117,-0.34333652257919],"type":"VEC3"},{"bufferView":15,"byteOffset":0,"componentType":5126,"count":4279,"type":"VEC3"},{"bufferView":16,"byteOffset":0,"componentType":5126,"count":4279,"type":"VEC4"},{"bufferView":17,"byteOffset":0,"componentType":5126,"count":4279,"type":"VEC2"},{"bufferView":18,"byteOffset":0,"componentType":5126,"count":4279,"type":"VEC2"},{"bufferView":19,"byteOffset":0,"componentType":5123,"count":4107,"type":"SCALAR"},{"bufferView":20,"byteOffset":0,"componentType":5126,"count":1462,"max":[0.540295779705048,1.23989570140839,0.346390634775162],"min":[-0.44581931829452,0.00152041716501117,-0.34639143943787],"type":"VEC3"},{"bufferView":21,"byteOffset":0,"componentType":5126,"count":1462,"type":"VEC3"},{"bufferView":22,"byteOffset":0,"componentType":5126,"count":1462,"type":"VEC4"},{"bufferView":23,"byteOffset":0,"componentType":5126,"count":1462,"type":"VEC2"},{"bufferView":24,"byteOffset":0,"componentType":5126,"count":1462,"type":"VEC2"},{"bufferView":25,"byteOffset":0,"componentType":5123,"count":684,"type":"SCALAR"},{"bufferView":26,"byteOffset":0,"componentType":5126,"count":136,"max":[0.538489162921906,1.23888719081879,0.330132067203522],"min":[-0.45019853115082,-0.00531820207834,-0.34751808643341],"type":"VEC3"},{"bufferView":27,"byteOffset":0,"componentType":5126,"count":136,"type":"VEC3"},{"bufferView":28,"byteOffset":0,"componentType":5126,"count":136,"type":"VEC2"},{"bufferView":29,"byteOffset":0,"componentType":5126,"count":136,"type":"VEC2"}],"animations":[{"channels":[],"name":"Unreal Take","samplers":[]}],"asset":{"generator":"FBX2glTF v0.13.0","version":"2.0"},"bufferViews":[{"buffer":0,"byteLength":4,"byteOffset":0},{"buffer":0,"byteLength":65712,"byteOffset":4,"target":34963},{"buffer":0,"byteLength":88512,"byteOffset":65716,"target":34962},{"buffer":0,"byteLength":88512,"byteOffset":154228,"target":34962},{"buffer":0,"byteLength":118016,"byteOffset":242740,"target":34962},{"buffer":0,"byteLength":59008,"byteOffset":360756,"target":34962},{"buffer":0,"byteLength":59008,"byteOffset":419764,"target":34962},{"buffer":0,"byteLength":49284,"byteOffset":478772,"target":34963},{"buffer":0,"byteLength":70416,"byteOffset":528056,"target":34962},{"buffer":0,"byteLength":70416,"byteOffset":598472,"target":34962},{"buffer":0,"byteLength":93888,"byteOffset":668888,"target":34962},{"buffer":0,"byteLength":46944,"byteOffset":762776,"target":34962},{"buffer":0,"byteLength":46944,"byteOffset":809720,"target":34962},{"buffer":0,"byteLength":32856,"byteOffset":856664,"target":34963},{"buffer":0,"byteLength":51348,"byteOffset":889520,"target":34962},{"buffer":0,"byteLength":51348,"byteOffset":940868,"target":34962},{"buffer":0,"byteLength":68464,"byteOffset":992216,"target":34962},{"buffer":0,"byteLength":34232,"byteOffset":1060680,"target":34962},{"buffer":0,"byteLength":34232,"byteOffset":1094912,"target":34962},{"buffer":0,"byteLength":8214,"byteOffset":1129144,"target":34963},{"buffer":0,"byteLength":17544,"byteOffset":1137360,"target":34962},{"buffer":0,"byteLength":17544,"byteOffset":1154904,"target":34962},{"buffer":0,"byteLength":23392,"byteOffset":1172448,"target":34962},{"buffer":0,"byteLength":11696,"byteOffset":1195840,"target":34962},{"buffer":0,"byteLength":11696,"byteOffset":1207536,"target":34962},{"buffer":0,"byteLength":1368,"byteOffset":1219232,"target":34963},{"buffer":0,"byteLength":1632,"byteOffset":1220600,"target":34962},{"buffer":0,"byteLength":1632,"byteOffset":1222232,"target":34962},{"buffer":0,"byteLength":1088,"byteOffset":1223864,"target":34962},{"buffer":0,"byteLength":1088,"byteOffset":1224952,"target":34962}],"buffers":[{"byteLength":1226040,"uri":"SM_Chair.bin"}],"images":[{"name":"T_DrawingTable_N","uri":"T_DrawingTable_N.png"},{"name":"T_DrawingTable_B","uri":"T_DrawingTable_B.png"}],"materials":[{"alphaMode":"OPAQUE","doubleSided":false,"extras":{"fromFBX":{"isTruePBR":false,"shadingModel":"Phong"}},"name":"MI_Chair","normalTexture":{"index":0,"texCoord":0},"pbrMetallicRoughness":{"baseColorFactor":[1,1,1,1],"baseColorTexture":{"index":1,"texCoord":0},"metallicFactor":0.400000005960464,"roughnessFactor":0.301511347293854}},{"alphaMode":"OPAQUE","doubleSided":false,"extras":{"fromFBX":{"isTruePBR":false,"shadingModel":"Lambert"}},"name":"DefaultMaterial","pbrMetallicRoughness":{"baseColorFactor":[0.5,0.5,0.5,1],"metallicFactor":0.200000002980232,"roughnessFactor":0.800000011920929}}],"meshes":[{"name":"SM_Chair_LOD0","primitives":[{"attributes":{"NORMAL":3,"POSITION":2,"TANGENT":4,"TEXCOORD_0":5,"TEXCOORD_1":6},"indices":1,"material":0,"mode":4}]},{"name":"SM_Chair_LOD1","primitives":[{"attributes":{"NORMAL":9,"POSITION":8,"TANGENT":10,"TEXCOORD_0":11,"TEXCOORD_1":12},"indices":7,"material":0,"mode":4}]},{"name":"SM_Chair_LOD2","primitives":[{"attributes":{"NORMAL":15,"POSITION":14,"TANGENT":16,"TEXCOORD_0":17,"TEXCOORD_1":18},"indices":13,"material":0,"mode":4}]},{"name":"SM_Chair_LOD3","primitives":[{"attributes":{"NORMAL":21,"POSITION":20,"TANGENT":22,"TEXCOORD_0":23,"TEXCOORD_1":24},"indices":19,"material":0,"mode":4}]},{"name":"SM_Chair_ConvexHulls","primitives":[{"attributes":{"NORMAL":27,"POSITION":26,"TEXCOORD_0":28,"TEXCOORD_1":29},"indices":25,"material":1,"mode":4}]}],"nodes":[{"children":[1,2,3,4,5],"name":"SM_Chair_16","originalUnits":0.00999999977648258,"pivot":[0,0,0],"rotation":[0,0,0,1],"scale":[1,1,1],"translation":[0,0,0]},{"mesh":0,"name":"SM_Chair_LOD0","originalUnits":0.00999999977648258,"pivot":[0,0,0],"rotation":[0,0,0,1],"scale":[1,1,1],"translation":[0,0,0]},{"mesh":4,"name":"SM_Chair_ConvexHulls","originalUnits":0.00999999977648258,"pivot":[0,0,0],"rotation":[0,0,0,1],"scale":[1,1,1],"translation":[0,0,0]},{"mesh":1,"name":"SM_Chair_LOD1","originalUnits":0.00999999977648258,"pivot":[0,0,0],"rotation":[0,0,0,1],"scale":[1,1,1],"translation":[0,0,0]},{"mesh":2,"name":"SM_Chair_LOD2","originalUnits":0.00999999977648258,"pivot":[0,0,0],"rotation":[0,0,0,1],"scale":[1,1,1],"translation":[0,0,0]},{"mesh":3,"name":"SM_Chair_LOD3","originalUnits":0.00999999977648258,"pivot":[0,0,0],"rotation":[0,0,0,1],"scale":[1,1,1],"translation":[0,0,0]}],"samplers":[{}],"scene":0,"scenes":[{"name":"Root Scene","nodes":[0]}],"textures":[{"name":"MI_Chair","sampler":0,"source":0},{"name":"MI_Chair","sampler":0,"source":1}]}