{"accessors":[{"bufferView":0,"byteOffset":0,"componentType":5126,"count":1,"max":[0],"min":[0],"type":"SCALAR"},{"bufferView":1,"byteOffset":0,"componentType":5123,"count":28410,"type":"SCALAR"},{"bufferView":2,"byteOffset":0,"componentType":5126,"count":7102,"max":[0.513359665870667,1.31798255443573,0.992649674415588],"min":[-0.62031924724579,-0.00016037868045,-0.99264967441559],"type":"VEC3"},{"bufferView":3,"byteOffset":0,"componentType":5126,"count":7102,"type":"VEC3"},{"bufferView":4,"byteOffset":0,"componentType":5126,"count":7102,"type":"VEC4"},{"bufferView":5,"byteOffset":0,"componentType":5126,"count":7102,"type":"VEC2"},{"bufferView":6,"byteOffset":0,"componentType":5126,"count":7102,"type":"VEC2"},{"bufferView":7,"byteOffset":0,"componentType":5123,"count":21306,"type":"SCALAR"},{"bufferView":8,"byteOffset":0,"componentType":5126,"count":5736,"max":[0.513359665870667,1.31798255443573,0.992675960063934],"min":[-0.61884766817093,-0.00016037868045,-0.99267596006393],"type":"VEC3"},{"bufferView":9,"byteOffset":0,"componentType":5126,"count":5736,"type":"VEC3"},{"bufferView":10,"byteOffset":0,"componentType":5126,"count":5736,"type":"VEC4"},{"bufferView":11,"byteOffset":0,"componentType":5126,"count":5736,"type":"VEC2"},{"bufferView":12,"byteOffset":0,"componentType":5126,"count":5736,"type":"VEC2"},{"bufferView":13,"byteOffset":0,"componentType":5123,"count":14202,"type":"SCALAR"},{"bufferView":14,"byteOffset":0,"componentType":5126,"count":4140,"max":[0.513359665870667,1.31798255443573,0.992782771587372],"min":[-0.61884766817093,-0.00016037868045,-0.99278277158737],"type":"VEC3"},{"bufferView":15,"byteOffset":0,"componentType":5126,"count":4140,"type":"VEC3"},{"bufferView":16,"byteOffset":0,"componentType":5126,"count":4140,"type":"VEC4"},{"bufferView":17,"byteOffset":0,"componentType":5126,"count":4140,"type":"VEC2"},{"bufferView":18,"byteOffset":0,"componentType":5126,"count":4140,"type":"VEC2"},{"bufferView":19,"byteOffset":0,"componentType":5123,"count":3549,"type":"SCALAR"},{"bufferView":20,"byteOffset":0,"componentType":5126,"count":1454,"max":[0.512693524360657,1.32295501232147,0.992851912975311],"min":[-0.61942082643509,-0.00023550025071,-0.99285197257996],"type":"VEC3"},{"bufferView":21,"byteOffset":0,"componentType":5126,"count":1454,"type":"VEC3"},{"bufferView":22,"byteOffset":0,"componentType":5126,"count":1454,"type":"VEC4"},{"bufferView":23,"byteOffset":0,"componentType":5126,"count":1454,"type":"VEC2"},{"bufferView":24,"byteOffset":0,"componentType":5126,"count":1454,"type":"VEC2"},{"bufferView":25,"byteOffset":0,"componentType":5123,"count":540,"type":"SCALAR"},{"bufferView":26,"byteOffset":0,"componentType":5126,"count":108,"max":[0.520550668239594,1.33029019832611,1.00095963478088],"min":[-0.6334610581398,-0.01146650873125,-1.00186264514923],"type":"VEC3"},{"bufferView":27,"byteOffset":0,"componentType":5126,"count":108,"type":"VEC3"},{"bufferView":28,"byteOffset":0,"componentType":5126,"count":108,"type":"VEC2"},{"bufferView":29,"byteOffset":0,"componentType":5126,"count":108,"type":"VEC2"}],"animations":[{"channels":[],"name":"Unreal Take","samplers":[]}],"asset":{"generator":"FBX2glTF v0.13.0","version":"2.0"},"bufferViews":[{"buffer":0,"byteLength":4,"byteOffset":0},{"buffer":0,"byteLength":56820,"byteOffset":4,"target":34963},{"buffer":0,"byteLength":85224,"byteOffset":56824,"target":34962},{"buffer":0,"byteLength":85224,"byteOffset":142048,"target":34962},{"buffer":0,"byteLength":113632,"byteOffset":227272,"target":34962},{"buffer":0,"byteLength":56816,"byteOffset":340904,"target":34962},{"buffer":0,"byteLength":56816,"byteOffset":397720,"target":34962},{"buffer":0,"byteLength":42612,"byteOffset":454536,"target":34963},{"buffer":0,"byteLength":68832,"byteOffset":497148,"target":34962},{"buffer":0,"byteLength":68832,"byteOffset":565980,"target":34962},{"buffer":0,"byteLength":91776,"byteOffset":634812,"target":34962},{"buffer":0,"byteLength":45888,"byteOffset":726588,"target":34962},{"buffer":0,"byteLength":45888,"byteOffset":772476,"target":34962},{"buffer":0,"byteLength":28404,"byteOffset":818364,"target":34963},{"buffer":0,"byteLength":49680,"byteOffset":846768,"target":34962},{"buffer":0,"byteLength":49680,"byteOffset":896448,"target":34962},{"buffer":0,"byteLength":66240,"byteOffset":946128,"target":34962},{"buffer":0,"byteLength":33120,"byteOffset":1012368,"target":34962},{"buffer":0,"byteLength":33120,"byteOffset":1045488,"target":34962},{"buffer":0,"byteLength":7098,"byteOffset":1078608,"target":34963},{"buffer":0,"byteLength":17448,"byteOffset":1085708,"target":34962},{"buffer":0,"byteLength":17448,"byteOffset":1103156,"target":34962},{"buffer":0,"byteLength":23264,"byteOffset":1120604,"target":34962},{"buffer":0,"byteLength":11632,"byteOffset":1143868,"target":34962},{"buffer":0,"byteLength":11632,"byteOffset":1155500,"target":34962},{"buffer":0,"byteLength":1080,"byteOffset":1167132,"target":34963},{"buffer":0,"byteLength":1296,"byteOffset":1168212,"target":34962},{"buffer":0,"byteLength":1296,"byteOffset":1169508,"target":34962},{"buffer":0,"byteLength":864,"byteOffset":1170804,"target":34962},{"buffer":0,"byteLength":864,"byteOffset":1171668,"target":34962}],"buffers":[{"byteLength":1172532,"uri":"SM_Drawing_Table.bin"}],"images":[{"name":"T_DrawingTable_N","uri":"T_DrawingTable_N.png"},{"name":"T_DrawingTable_B","uri":"T_DrawingTable_B.png"}],"materials":[{"alphaMode":"OPAQUE","doubleSided":false,"extras":{"fromFBX":{"isTruePBR":false,"shadingModel":"Phong"}},"name":"MI_DrawingTable","normalTexture":{"index":0,"texCoord":0},"pbrMetallicRoughness":{"baseColorFactor":[1,1,1,1],"baseColorTexture":{"index":1,"texCoord":0},"metallicFactor":0.400000005960464,"roughnessFactor":0.301511347293854}},{"alphaMode":"OPAQUE","doubleSided":false,"extras":{"fromFBX":{"isTruePBR":false,"shadingModel":"Lambert"}},"name":"DefaultMaterial","pbrMetallicRoughness":{"baseColorFactor":[0.5,0.5,0.5,1],"metallicFactor":0.200000002980232,"roughnessFactor":0.800000011920929}}],"meshes":[{"name":"SM_Drawing_Table_LOD0","primitives":[{"attributes":{"NORMAL":3,"POSITION":2,"TANGENT":4,"TEXCOORD_0":5,"TEXCOORD_1":6},"indices":1,"material":0,"mode":4}]},{"name":"SM_Drawing_Table_LOD1","primitives":[{"attributes":{"NORMAL":9,"POSITION":8,"TANGENT":10,"TEXCOORD_0":11,"TEXCOORD_1":12},"indices":7,"material":0,"mode":4}]},{"name":"SM_Drawing_Table_LOD2","primitives":[{"attributes":{"NORMAL":15,"POSITION":14,"TANGENT":16,"TEXCOORD_0":17,"TEXCOORD_1":18},"indices":13,"material":0,"mode":4}]},{"name":"SM_Drawing_Table_LOD3","primitives":[{"attributes":{"NORMAL":21,"POSITION":20,"TANGENT":22,"TEXCOORD_0":23,"TEXCOORD_1":24},"indices":19,"material":0,"mode":4}]},{"name":"SM_Drawing_Table_ConvexHulls","primitives":[{"attributes":{"NORMAL":27,"POSITION":26,"TEXCOORD_0":28,"TEXCOORD_1":29},"indices":25,"material":1,"mode":4}]}],"nodes":[{"children":[1,2,3,4,5],"name":"SM_Drawing_Table_26","originalUnits":0.00999999977648258,"pivot":[0,0,0],"rotation":[0,0,0,1],"scale":[1,1,1],"translation":[0,0,0]},{"mesh":0,"name":"SM_Drawing_Table_LOD0","originalUnits":0.00999999977648258,"pivot":[0,0,0],"rotation":[0,0,0,1],"scale":[1,1,1],"translation":[0,0,0]},{"mesh":4,"name":"SM_Drawing_Table_ConvexHulls","originalUnits":0.00999999977648258,"pivot":[0,0,0],"rotation":[0,0,0,1],"scale":[1,1,1],"translation":[0,0,0]},{"mesh":1,"name":"SM_Drawing_Table_LOD1","originalUnits":0.00999999977648258,"pivot":[0,0,0],"rotation":[0,0,0,1],"scale":[1,1,1],"translation":[0,0,0]},{"mesh":2,"name":"SM_Drawing_Table_LOD2","originalUnits":0.00999999977648258,"pivot":[0,0,0],"rotation":[0,0,0,1],"scale":[1,1,1],"translation":[0,0,0]},{"mesh":3,"name":"SM_Drawing_Table_LOD3","originalUnits":0.00999999977648258,"pivot":[0,0,0],"rotation":[0,0,0,1],"scale":[1,1,1],"translation":[0,0,0]}],"samplers":[{}],"scene":0,"scenes":[{"name":"Root Scene","nodes":[0]}],"textures":[{"name":"MI_DrawingTable","sampler":0,"source":0},{"name":"MI_DrawingTable","sampler":0,"source":1}]}