{"accessors":[{"bufferView":0,"byteOffset":0,"componentType":5126,"count":1,"max":[0],"min":[0],"type":"SCALAR"},{"bufferView":1,"byteOffset":0,"componentType":5123,"count":19764,"type":"SCALAR"},{"bufferView":2,"byteOffset":0,"componentType":5126,"count":4516,"max":[0.0895788297057152,4.21282911300659,1.04832780361176],"min":[-0.31532093882561,-0.00000000108999,-1.04811525344849],"type":"VEC3"},{"bufferView":3,"byteOffset":0,"componentType":5126,"count":4516,"type":"VEC3"},{"bufferView":4,"byteOffset":0,"componentType":5126,"count":4516,"type":"VEC4"},{"bufferView":5,"byteOffset":0,"componentType":5126,"count":4516,"type":"VEC2"},{"bufferView":6,"byteOffset":0,"componentType":5126,"count":4516,"type":"VEC2"},{"bufferView":7,"byteOffset":0,"componentType":5123,"count":14814,"type":"SCALAR"},{"bufferView":8,"byteOffset":0,"componentType":5126,"count":3515,"max":[0.0895788297057152,4.21282911300659,1.04832780361176],"min":[-0.31532093882561,-0.00000000108999,-1.04811525344849],"type":"VEC3"},{"bufferView":9,"byteOffset":0,"componentType":5126,"count":3515,"type":"VEC3"},{"bufferView":10,"byteOffset":0,"componentType":5126,"count":3515,"type":"VEC4"},{"bufferView":11,"byteOffset":0,"componentType":5126,"count":3515,"type":"VEC2"},{"bufferView":12,"byteOffset":0,"componentType":5126,"count":3515,"type":"VEC2"},{"bufferView":13,"byteOffset":0,"componentType":5123,"count":9870,"type":"SCALAR"},{"bufferView":14,"byteOffset":0,"componentType":5126,"count":2499,"max":[0.0895788297057152,4.21282911300659,1.04832780361176],"min":[-0.31532093882561,-0.00000000108999,-1.04811525344849],"type":"VEC3"},{"bufferView":15,"byteOffset":0,"componentType":5126,"count":2499,"type":"VEC3"},{"bufferView":16,"byteOffset":0,"componentType":5126,"count":2499,"type":"VEC4"},{"bufferView":17,"byteOffset":0,"componentType":5126,"count":2499,"type":"VEC2"},{"bufferView":18,"byteOffset":0,"componentType":5126,"count":2499,"type":"VEC2"},{"bufferView":19,"byteOffset":0,"componentType":5123,"count":2451,"type":"SCALAR"},{"bufferView":20,"byteOffset":0,"componentType":5126,"count":1032,"max":[0.0895788297057152,4.21282911300659,1.04832780361176],"min":[-0.31889989972115,-0.00000000108999,-1.04811525344849],"type":"VEC3"},{"bufferView":21,"byteOffset":0,"componentType":5126,"count":1032,"type":"VEC3"},{"bufferView":22,"byteOffset":0,"componentType":5126,"count":1032,"type":"VEC4"},{"bufferView":23,"byteOffset":0,"componentType":5126,"count":1032,"type":"VEC2"},{"bufferView":24,"byteOffset":0,"componentType":5126,"count":1032,"type":"VEC2"},{"bufferView":25,"byteOffset":0,"componentType":5123,"count":24,"type":"SCALAR"},{"bufferView":26,"byteOffset":0,"componentType":5126,"count":16,"max":[0.0334213525056839,3.60692000389099,0.970327496528625],"min":[0.0334213227033615,3.07302260398865,-0.96401566267014],"type":"VEC3"},{"bufferView":27,"byteOffset":0,"componentType":5126,"count":16,"type":"VEC3"},{"bufferView":28,"byteOffset":0,"componentType":5126,"count":16,"type":"VEC4"},{"bufferView":29,"byteOffset":0,"componentType":5126,"count":16,"type":"VEC2"},{"bufferView":30,"byteOffset":0,"componentType":5123,"count":24,"type":"SCALAR"},{"bufferView":31,"byteOffset":0,"componentType":5126,"count":16,"max":[0.0334213525056839,3.60692000389099,0.970327496528625],"min":[0.0334213227033615,3.07302260398865,-0.96401566267014],"type":"VEC3"},{"bufferView":32,"byteOffset":0,"componentType":5126,"count":16,"type":"VEC3"},{"bufferView":33,"byteOffset":0,"componentType":5126,"count":16,"type":"VEC4"},{"bufferView":34,"byteOffset":0,"componentType":5126,"count":16,"type":"VEC2"},{"bufferView":35,"byteOffset":0,"componentType":5123,"count":24,"type":"SCALAR"},{"bufferView":36,"byteOffset":0,"componentType":5126,"count":16,"max":[0.0334213525056839,3.60692000389099,0.970327496528625],"min":[0.0334213227033615,3.07302260398865,-0.96401566267014],"type":"VEC3"},{"bufferView":37,"byteOffset":0,"componentType":5126,"count":16,"type":"VEC3"},{"bufferView":38,"byteOffset":0,"componentType":5126,"count":16,"type":"VEC4"},{"bufferView":39,"byteOffset":0,"componentType":5126,"count":16,"type":"VEC2"},{"bufferView":40,"byteOffset":0,"componentType":5123,"count":24,"type":"SCALAR"},{"bufferView":41,"byteOffset":0,"componentType":5126,"count":16,"max":[0.0334213525056839,3.60692000389099,0.970327496528625],"min":[0.0334213227033615,3.07302260398865,-0.96401566267014],"type":"VEC3"},{"bufferView":42,"byteOffset":0,"componentType":5126,"count":16,"type":"VEC3"},{"bufferView":43,"byteOffset":0,"componentType":5126,"count":16,"type":"VEC4"},{"bufferView":44,"byteOffset":0,"componentType":5126,"count":16,"type":"VEC2"},{"bufferView":45,"byteOffset":0,"componentType":5123,"count":618,"type":"SCALAR"},{"bufferView":46,"byteOffset":0,"componentType":5126,"count":118,"max":[0.117245897650719,4.23583221435547,1.0764045715332],"min":[-0.32321605086327,-0.02590683102608,-1.07448983192444],"type":"VEC3"},{"bufferView":47,"byteOffset":0,"componentType":5126,"count":118,"type":"VEC3"},{"bufferView":48,"byteOffset":0,"componentType":5126,"count":118,"type":"VEC2"},{"bufferView":49,"byteOffset":0,"componentType":5126,"count":118,"type":"VEC2"}],"animations":[{"channels":[],"name":"Unreal Take","samplers":[]}],"asset":{"generator":"FBX2glTF v0.13.0","version":"2.0"},"bufferViews":[{"buffer":0,"byteLength":4,"byteOffset":0},{"buffer":0,"byteLength":39528,"byteOffset":4,"target":34963},{"buffer":0,"byteLength":54192,"byteOffset":39532,"target":34962},{"buffer":0,"byteLength":54192,"byteOffset":93724,"target":34962},{"buffer":0,"byteLength":72256,"byteOffset":147916,"target":34962},{"buffer":0,"byteLength":36128,"byteOffset":220172,"target":34962},{"buffer":0,"byteLength":36128,"byteOffset":256300,"target":34962},{"buffer":0,"byteLength":29628,"byteOffset":292428,"target":34963},{"buffer":0,"byteLength":42180,"byteOffset":322056,"target":34962},{"buffer":0,"byteLength":42180,"byteOffset":364236,"target":34962},{"buffer":0,"byteLength":56240,"byteOffset":406416,"target":34962},{"buffer":0,"byteLength":28120,"byteOffset":462656,"target":34962},{"buffer":0,"byteLength":28120,"byteOffset":490776,"target":34962},{"buffer":0,"byteLength":19740,"byteOffset":518896,"target":34963},{"buffer":0,"byteLength":29988,"byteOffset":538636,"target":34962},{"buffer":0,"byteLength":29988,"byteOffset":568624,"target":34962},{"buffer":0,"byteLength":39984,"byteOffset":598612,"target":34962},{"buffer":0,"byteLength":19992,"byteOffset":638596,"target":34962},{"buffer":0,"byteLength":19992,"byteOffset":658588,"target":34962},{"buffer":0,"byteLength":4902,"byteOffset":678580,"target":34963},{"buffer":0,"byteLength":12384,"byteOffset":683484,"target":34962},{"buffer":0,"byteLength":12384,"byteOffset":695868,"target":34962},{"buffer":0,"byteLength":16512,"byteOffset":708252,"target":34962},{"buffer":0,"byteLength":8256,"byteOffset":724764,"target":34962},{"buffer":0,"byteLength":8256,"byteOffset":733020,"target":34962},{"buffer":0,"byteLength":48,"byteOffset":741276,"target":34963},{"buffer":0,"byteLength":192,"byteOffset":741324,"target":34962},{"buffer":0,"byteLength":192,"byteOffset":741516,"target":34962},{"buffer":0,"byteLength":256,"byteOffset":741708,"target":34962},{"buffer":0,"byteLength":128,"byteOffset":741964,"target":34962},{"buffer":0,"byteLength":48,"byteOffset":742092,"target":34963},{"buffer":0,"byteLength":192,"byteOffset":742140,"target":34962},{"buffer":0,"byteLength":192,"byteOffset":742332,"target":34962},{"buffer":0,"byteLength":256,"byteOffset":742524,"target":34962},{"buffer":0,"byteLength":128,"byteOffset":742780,"target":34962},{"buffer":0,"byteLength":48,"byteOffset":742908,"target":34963},{"buffer":0,"byteLength":192,"byteOffset":742956,"target":34962},{"buffer":0,"byteLength":192,"byteOffset":743148,"target":34962},{"buffer":0,"byteLength":256,"byteOffset":743340,"target":34962},{"buffer":0,"byteLength":128,"byteOffset":743596,"target":34962},{"buffer":0,"byteLength":48,"byteOffset":743724,"target":34963},{"buffer":0,"byteLength":192,"byteOffset":743772,"target":34962},{"buffer":0,"byteLength":192,"byteOffset":743964,"target":34962},{"buffer":0,"byteLength":256,"byteOffset":744156,"target":34962},{"buffer":0,"byteLength":128,"byteOffset":744412,"target":34962},{"buffer":0,"byteLength":1236,"byteOffset":744540,"target":34963},{"buffer":0,"byteLength":1416,"byteOffset":745776,"target":34962},{"buffer":0,"byteLength":1416,"byteOffset":747192,"target":34962},{"buffer":0,"byteLength":944,"byteOffset":748608,"target":34962},{"buffer":0,"byteLength":944,"byteOffset":749552,"target":34962}],"buffers":[{"byteLength":750496,"uri":"SM_Door_Frame.bin"}],"images":[{"name":"T_Door_N","uri":"T_Door_N.png"},{"name":"T_Door_B","uri":"T_Door_B.png"},{"name":"T_DoorFrame_N","uri":"T_DoorFrame_N.png"},{"name":"T_DoorFrame_B","uri":"T_DoorFrame_B.png"}],"materials":[{"alphaMode":"OPAQUE","doubleSided":false,"extras":{"fromFBX":{"isTruePBR":false,"shadingModel":"Phong"}},"name":"MI_Door","normalTexture":{"index":0,"texCoord":0},"pbrMetallicRoughness":{"baseColorFactor":[1,1,1,1],"baseColorTexture":{"index":1,"texCoord":0},"metallicFactor":0.400000005960464,"roughnessFactor":0.301511347293854}},{"alphaMode":"OPAQUE","doubleSided":false,"extras":{"fromFBX":{"isTruePBR":false,"shadingModel":"Phong"}},"name":"MI_WindowGlass_04","normalTexture":{"index":2,"texCoord":0},"pbrMetallicRoughness":{"baseColorFactor":[1,1,1,1],"baseColorTexture":{"index":3,"texCoord":0},"metallicFactor":0.400000005960464,"roughnessFactor":0.301511347293854}},{"alphaMode":"OPAQUE","doubleSided":false,"extras":{"fromFBX":{"isTruePBR":false,"shadingModel":"Lambert"}},"name":"DefaultMaterial","pbrMetallicRoughness":{"baseColorFactor":[0.5,0.5,0.5,1],"metallicFactor":0.200000002980232,"roughnessFactor":0.800000011920929}}],"meshes":[{"name":"SM_Door_Frame_LOD0","primitives":[{"attributes":{"NORMAL":3,"POSITION":2,"TANGENT":4,"TEXCOORD_0":5,"TEXCOORD_1":6},"indices":1,"material":0,"mode":4},{"attributes":{"NORMAL":27,"POSITION":26,"TANGENT":28,"TEXCOORD_0":29},"indices":25,"material":1,"mode":4}]},{"name":"SM_Door_Frame_LOD1","primitives":[{"attributes":{"NORMAL":9,"POSITION":8,"TANGENT":10,"TEXCOORD_0":11,"TEXCOORD_1":12},"indices":7,"material":0,"mode":4},{"attributes":{"NORMAL":32,"POSITION":31,"TANGENT":33,"TEXCOORD_0":34},"indices":30,"material":1,"mode":4}]},{"name":"SM_Door_Frame_LOD2","primitives":[{"attributes":{"NORMAL":15,"POSITION":14,"TANGENT":16,"TEXCOORD_0":17,"TEXCOORD_1":18},"indices":13,"material":0,"mode":4},{"attributes":{"NORMAL":37,"POSITION":36,"TANGENT":38,"TEXCOORD_0":39},"indices":35,"material":1,"mode":4}]},{"name":"SM_Door_Frame_LOD3","primitives":[{"attributes":{"NORMAL":21,"POSITION":20,"TANGENT":22,"TEXCOORD_0":23,"TEXCOORD_1":24},"indices":19,"material":0,"mode":4},{"attributes":{"NORMAL":42,"POSITION":41,"TANGENT":43,"TEXCOORD_0":44},"indices":40,"material":1,"mode":4}]},{"name":"SM_Door_Frame_ConvexHulls","primitives":[{"attributes":{"NORMAL":47,"POSITION":46,"TEXCOORD_0":48,"TEXCOORD_1":49},"indices":45,"material":2,"mode":4}]}],"nodes":[{"children":[1,2,3,4,5],"name":"SM_Door_Frame2_25","originalUnits":0.00999999977648258,"pivot":[0,0,0],"rotation":[0,0,0,1],"scale":[1,1,1],"translation":[0,0,0]},{"mesh":0,"name":"SM_Door_Frame_LOD0","originalUnits":0.00999999977648258,"pivot":[0,0,0],"rotation":[0,0,0,1],"scale":[1,1,1],"translation":[0,0,0]},{"mesh":4,"name":"SM_Door_Frame_ConvexHulls","originalUnits":0.00999999977648258,"pivot":[0,0,0],"rotation":[0,0,0,1],"scale":[1,1,1],"translation":[0,0,0]},{"mesh":1,"name":"SM_Door_Frame_LOD1","originalUnits":0.00999999977648258,"pivot":[0,0,0],"rotation":[0,0,0,1],"scale":[1,1,1],"translation":[0,0,0]},{"mesh":2,"name":"SM_Door_Frame_LOD2","originalUnits":0.00999999977648258,"pivot":[0,0,0],"rotation":[0,0,0,1],"scale":[1,1,1],"translation":[0,0,0]},{"mesh":3,"name":"SM_Door_Frame_LOD3","originalUnits":0.00999999977648258,"pivot":[0,0,0],"rotation":[0,0,0,1],"scale":[1,1,1],"translation":[0,0,0]}],"samplers":[{}],"scene":0,"scenes":[{"name":"Root Scene","nodes":[0]}],"textures":[{"name":"MI_Door","sampler":0,"source":0},{"name":"MI_Door","sampler":0,"source":1},{"name":"MI_WindowGlass_04","sampler":0,"source":2},{"name":"MI_WindowGlass_04","sampler":0,"source":3}]}