{"accessors":[{"bufferView":0,"byteOffset":0,"componentType":5126,"count":1,"max":[0],"min":[0],"type":"SCALAR"},{"bufferView":1,"byteOffset":0,"componentType":5123,"count":114,"type":"SCALAR"},{"bufferView":2,"byteOffset":0,"componentType":5126,"count":76,"max":[-0.1661369651556,4.58021116256714,-1.11731517314911],"min":[-0.18551898002625,4.03263711929321,-3.3068208694458],"type":"VEC3"},{"bufferView":3,"byteOffset":0,"componentType":5126,"count":76,"type":"VEC3"},{"bufferView":4,"byteOffset":0,"componentType":5126,"count":76,"type":"VEC4"},{"bufferView":5,"byteOffset":0,"componentType":5126,"count":76,"type":"VEC2"},{"bufferView":6,"byteOffset":0,"componentType":5126,"count":76,"type":"VEC2"},{"bufferView":7,"byteOffset":0,"componentType":5123,"count":84,"type":"SCALAR"},{"bufferView":8,"byteOffset":0,"componentType":5126,"count":54,"max":[-0.18542006611824,4.58021116256714,-1.11731517314911],"min":[-0.18551898002625,4.0648341178894,-3.3068208694458],"type":"VEC3"},{"bufferView":9,"byteOffset":0,"componentType":5126,"count":54,"type":"VEC3"},{"bufferView":10,"byteOffset":0,"componentType":5126,"count":54,"type":"VEC4"},{"bufferView":11,"byteOffset":0,"componentType":5126,"count":54,"type":"VEC2"},{"bufferView":12,"byteOffset":0,"componentType":5126,"count":54,"type":"VEC2"},{"bufferView":13,"byteOffset":0,"componentType":5123,"count":288,"type":"SCALAR"},{"bufferView":14,"byteOffset":0,"componentType":5126,"count":100,"max":[0.182718381285667,5,-0.01000011153519],"min":[-0.18271884322166,0.0030361725948751,-4.41295623779297],"type":"VEC3"},{"bufferView":15,"byteOffset":0,"componentType":5126,"count":100,"type":"VEC3"},{"bufferView":16,"byteOffset":0,"componentType":5126,"count":100,"type":"VEC4"},{"bufferView":17,"byteOffset":0,"componentType":5126,"count":100,"type":"VEC2"},{"bufferView":18,"byteOffset":0,"componentType":5126,"count":100,"type":"VEC2"},{"bufferView":19,"byteOffset":0,"componentType":5123,"count":222,"type":"SCALAR"},{"bufferView":20,"byteOffset":0,"componentType":5126,"count":78,"max":[0.182718381285667,5,-0.01000011153519],"min":[-0.18271884322166,0.0030361725948751,-4.41295623779297],"type":"VEC3"},{"bufferView":21,"byteOffset":0,"componentType":5126,"count":78,"type":"VEC3"},{"bufferView":22,"byteOffset":0,"componentType":5126,"count":78,"type":"VEC4"},{"bufferView":23,"byteOffset":0,"componentType":5126,"count":78,"type":"VEC2"},{"bufferView":24,"byteOffset":0,"componentType":5126,"count":78,"type":"VEC2"},{"bufferView":25,"byteOffset":0,"componentType":5123,"count":174,"type":"SCALAR"},{"bufferView":26,"byteOffset":0,"componentType":5126,"count":62,"max":[0.182719379663467,4.99696254730225,-0.01000011153519],"min":[-0.18271987140179,0.0030361725948751,-4.41295623779297],"type":"VEC3"},{"bufferView":27,"byteOffset":0,"componentType":5126,"count":62,"type":"VEC3"},{"bufferView":28,"byteOffset":0,"componentType":5126,"count":62,"type":"VEC4"},{"bufferView":29,"byteOffset":0,"componentType":5126,"count":62,"type":"VEC2"},{"bufferView":30,"byteOffset":0,"componentType":5126,"count":62,"type":"VEC2"},{"bufferView":31,"byteOffset":0,"componentType":5123,"count":75,"type":"SCALAR"},{"bufferView":32,"byteOffset":0,"componentType":5126,"count":35,"max":[0.196114674210548,4.99696254730225,-0.01000011153519],"min":[-0.23595203459263,0.00303420913405716,-4.41295623779297],"type":"VEC3"},{"bufferView":33,"byteOffset":0,"componentType":5126,"count":35,"type":"VEC3"},{"bufferView":34,"byteOffset":0,"componentType":5126,"count":35,"type":"VEC4"},{"bufferView":35,"byteOffset":0,"componentType":5126,"count":35,"type":"VEC2"},{"bufferView":36,"byteOffset":0,"componentType":5126,"count":35,"type":"VEC2"},{"bufferView":37,"byteOffset":0,"componentType":5123,"count":720,"type":"SCALAR"},{"bufferView":38,"byteOffset":0,"componentType":5126,"count":288,"max":[0.182718366384506,4.57173490524292,-1.12593948841095],"min":[-0.18271878361702,4.04000806808472,-3.29817414283752],"type":"VEC3"},{"bufferView":39,"byteOffset":0,"componentType":5126,"count":288,"type":"VEC3"},{"bufferView":40,"byteOffset":0,"componentType":5126,"count":288,"type":"VEC4"},{"bufferView":41,"byteOffset":0,"componentType":5126,"count":288,"type":"VEC2"},{"bufferView":42,"byteOffset":0,"componentType":5126,"count":288,"type":"VEC2"},{"bufferView":43,"byteOffset":0,"componentType":5123,"count":534,"type":"SCALAR"},{"bufferView":44,"byteOffset":0,"componentType":5126,"count":226,"max":[0.182718366384506,4.57173490524292,-1.12593948841095],"min":[-0.18271878361702,4.04000806808472,-3.29817414283752],"type":"VEC3"},{"bufferView":45,"byteOffset":0,"componentType":5126,"count":226,"type":"VEC3"},{"bufferView":46,"byteOffset":0,"componentType":5126,"count":226,"type":"VEC4"},{"bufferView":47,"byteOffset":0,"componentType":5126,"count":226,"type":"VEC2"},{"bufferView":48,"byteOffset":0,"componentType":5126,"count":226,"type":"VEC2"},{"bufferView":49,"byteOffset":0,"componentType":5123,"count":384,"type":"SCALAR"},{"bufferView":50,"byteOffset":0,"componentType":5126,"count":176,"max":[0.183041796088219,4.57173490524292,-1.12593948841095],"min":[-0.1830421090126,4.04000806808472,-3.29817414283752],"type":"VEC3"},{"bufferView":51,"byteOffset":0,"componentType":5126,"count":176,"type":"VEC3"},{"bufferView":52,"byteOffset":0,"componentType":5126,"count":176,"type":"VEC4"},{"bufferView":53,"byteOffset":0,"componentType":5126,"count":176,"type":"VEC2"},{"bufferView":54,"byteOffset":0,"componentType":5126,"count":176,"type":"VEC2"},{"bufferView":55,"byteOffset":0,"componentType":5123,"count":66,"type":"SCALAR"},{"bufferView":56,"byteOffset":0,"componentType":5126,"count":56,"max":[0.196114674210548,4.57658720016479,-1.18420112133026],"min":[-0.23595203459263,3.89734721183777,-3.2634334564209],"type":"VEC3"},{"bufferView":57,"byteOffset":0,"componentType":5126,"count":56,"type":"VEC3"},{"bufferView":58,"byteOffset":0,"componentType":5126,"count":56,"type":"VEC4"},{"bufferView":59,"byteOffset":0,"componentType":5126,"count":56,"type":"VEC2"},{"bufferView":60,"byteOffset":0,"componentType":5126,"count":56,"type":"VEC2"}],"animations":[{"channels":[],"name":"Unreal Take","samplers":[]}],"asset":{"generator":"FBX2glTF v0.13.0","version":"2.0"},"bufferViews":[{"buffer":0,"byteLength":4,"byteOffset":0},{"buffer":0,"byteLength":228,"byteOffset":4,"target":34963},{"buffer":0,"byteLength":912,"byteOffset":232,"target":34962},{"buffer":0,"byteLength":912,"byteOffset":1144,"target":34962},{"buffer":0,"byteLength":1216,"byteOffset":2056,"target":34962},{"buffer":0,"byteLength":608,"byteOffset":3272,"target":34962},{"buffer":0,"byteLength":608,"byteOffset":3880,"target":34962},{"buffer":0,"byteLength":168,"byteOffset":4488,"target":34963},{"buffer":0,"byteLength":648,"byteOffset":4656,"target":34962},{"buffer":0,"byteLength":648,"byteOffset":5304,"target":34962},{"buffer":0,"byteLength":864,"byteOffset":5952,"target":34962},{"buffer":0,"byteLength":432,"byteOffset":6816,"target":34962},{"buffer":0,"byteLength":432,"byteOffset":7248,"target":34962},{"buffer":0,"byteLength":576,"byteOffset":7680,"target":34963},{"buffer":0,"byteLength":1200,"byteOffset":8256,"target":34962},{"buffer":0,"byteLength":1200,"byteOffset":9456,"target":34962},{"buffer":0,"byteLength":1600,"byteOffset":10656,"target":34962},{"buffer":0,"byteLength":800,"byteOffset":12256,"target":34962},{"buffer":0,"byteLength":800,"byteOffset":13056,"target":34962},{"buffer":0,"byteLength":444,"byteOffset":13856,"target":34963},{"buffer":0,"byteLength":936,"byteOffset":14300,"target":34962},{"buffer":0,"byteLength":936,"byteOffset":15236,"target":34962},{"buffer":0,"byteLength":1248,"byteOffset":16172,"target":34962},{"buffer":0,"byteLength":624,"byteOffset":17420,"target":34962},{"buffer":0,"byteLength":624,"byteOffset":18044,"target":34962},{"buffer":0,"byteLength":348,"byteOffset":18668,"target":34963},{"buffer":0,"byteLength":744,"byteOffset":19016,"target":34962},{"buffer":0,"byteLength":744,"byteOffset":19760,"target":34962},{"buffer":0,"byteLength":992,"byteOffset":20504,"target":34962},{"buffer":0,"byteLength":496,"byteOffset":21496,"target":34962},{"buffer":0,"byteLength":496,"byteOffset":21992,"target":34962},{"buffer":0,"byteLength":150,"byteOffset":22488,"target":34963},{"buffer":0,"byteLength":420,"byteOffset":22640,"target":34962},{"buffer":0,"byteLength":420,"byteOffset":23060,"target":34962},{"buffer":0,"byteLength":560,"byteOffset":23480,"target":34962},{"buffer":0,"byteLength":280,"byteOffset":24040,"target":34962},{"buffer":0,"byteLength":280,"byteOffset":24320,"target":34962},{"buffer":0,"byteLength":1440,"byteOffset":24600,"target":34963},{"buffer":0,"byteLength":3456,"byteOffset":26040,"target":34962},{"buffer":0,"byteLength":3456,"byteOffset":29496,"target":34962},{"buffer":0,"byteLength":4608,"byteOffset":32952,"target":34962},{"buffer":0,"byteLength":2304,"byteOffset":37560,"target":34962},{"buffer":0,"byteLength":2304,"byteOffset":39864,"target":34962},{"buffer":0,"byteLength":1068,"byteOffset":42168,"target":34963},{"buffer":0,"byteLength":2712,"byteOffset":43236,"target":34962},{"buffer":0,"byteLength":2712,"byteOffset":45948,"target":34962},{"buffer":0,"byteLength":3616,"byteOffset":48660,"target":34962},{"buffer":0,"byteLength":1808,"byteOffset":52276,"target":34962},{"buffer":0,"byteLength":1808,"byteOffset":54084,"target":34962},{"buffer":0,"byteLength":768,"byteOffset":55892,"target":34963},{"buffer":0,"byteLength":2112,"byteOffset":56660,"target":34962},{"buffer":0,"byteLength":2112,"byteOffset":58772,"target":34962},{"buffer":0,"byteLength":2816,"byteOffset":60884,"target":34962},{"buffer":0,"byteLength":1408,"byteOffset":63700,"target":34962},{"buffer":0,"byteLength":1408,"byteOffset":65108,"target":34962},{"buffer":0,"byteLength":132,"byteOffset":66516,"target":34963},{"buffer":0,"byteLength":672,"byteOffset":66648,"target":34962},{"buffer":0,"byteLength":672,"byteOffset":67320,"target":34962},{"buffer":0,"byteLength":896,"byteOffset":67992,"target":34962},{"buffer":0,"byteLength":448,"byteOffset":68888,"target":34962},{"buffer":0,"byteLength":448,"byteOffset":69336,"target":34962}],"buffers":[{"byteLength":69784,"uri":"SM_Door_Wall.bin"}],"images":[{"name":"T_Default_Material_Grid_N","uri":"T_Default_Material_Grid_N.png"},{"name":"T_Default_Material_Grid_M","uri":"T_Default_Material_Grid_M.png"},{"name":"T_Bricks_N","uri":"T_Bricks_N.png"},{"name":"T_Bricks_B","uri":"T_Bricks_B.png"},{"name":"T_Bricks_N 1","uri":"T_Bricks_N.png"},{"name":"T_Bricks_B 1","uri":"T_Bricks_B.png"}],"materials":[{"alphaMode":"OPAQUE","doubleSided":false,"extras":{"fromFBX":{"isTruePBR":false,"shadingModel":"Phong"}},"name":"WorldGridMaterial","normalTexture":{"index":0,"texCoord":0},"pbrMetallicRoughness":{"baseColorFactor":[1,1,1,1],"baseColorTexture":{"index":1,"texCoord":0},"metallicFactor":0.400000005960464,"roughnessFactor":0.301511347293854}},{"alphaMode":"OPAQUE","doubleSided":false,"extras":{"fromFBX":{"isTruePBR":false,"shadingModel":"Phong"}},"name":"MI_Brick_01","normalTexture":{"index":2,"texCoord":0},"pbrMetallicRoughness":{"baseColorFactor":[1,1,1,1],"baseColorTexture":{"index":3,"texCoord":0},"metallicFactor":0.400000005960464,"roughnessFactor":0.301511347293854}},{"alphaMode":"OPAQUE","doubleSided":false,"extras":{"fromFBX":{"isTruePBR":false,"shadingModel":"Phong"}},"name":"MI_Brick_02","normalTexture":{"index":4,"texCoord":0},"pbrMetallicRoughness":{"baseColorFactor":[1,1,1,1],"baseColorTexture":{"index":5,"texCoord":0},"metallicFactor":0.400000005960464,"roughnessFactor":0.301511347293854}}],"meshes":[{"name":"SM_Door_Wall_LOD0","primitives":[{"attributes":{"NORMAL":3,"POSITION":2,"TANGENT":4,"TEXCOORD_0":5,"TEXCOORD_1":6},"indices":1,"material":0,"mode":4},{"attributes":{"NORMAL":15,"POSITION":14,"TANGENT":16,"TEXCOORD_0":17,"TEXCOORD_1":18},"indices":13,"material":1,"mode":4},{"attributes":{"NORMAL":39,"POSITION":38,"TANGENT":40,"TEXCOORD_0":41,"TEXCOORD_1":42},"indices":37,"material":2,"mode":4}]},{"name":"SM_Door_Wall_LOD1","primitives":[{"attributes":{"NORMAL":9,"POSITION":8,"TANGENT":10,"TEXCOORD_0":11,"TEXCOORD_1":12},"indices":7,"material":0,"mode":4},{"attributes":{"NORMAL":21,"POSITION":20,"TANGENT":22,"TEXCOORD_0":23,"TEXCOORD_1":24},"indices":19,"material":1,"mode":4},{"attributes":{"NORMAL":45,"POSITION":44,"TANGENT":46,"TEXCOORD_0":47,"TEXCOORD_1":48},"indices":43,"material":2,"mode":4}]},{"name":"SM_Door_Wall_LOD2","primitives":[{"attributes":{"NORMAL":27,"POSITION":26,"TANGENT":28,"TEXCOORD_0":29,"TEXCOORD_1":30},"indices":25,"material":1,"mode":4},{"attributes":{"NORMAL":51,"POSITION":50,"TANGENT":52,"TEXCOORD_0":53,"TEXCOORD_1":54},"indices":49,"material":2,"mode":4}]},{"name":"SM_Door_Wall_LOD3","primitives":[{"attributes":{"NORMAL":33,"POSITION":32,"TANGENT":34,"TEXCOORD_0":35,"TEXCOORD_1":36},"indices":31,"material":1,"mode":4},{"attributes":{"NORMAL":57,"POSITION":56,"TANGENT":58,"TEXCOORD_0":59,"TEXCOORD_1":60},"indices":55,"material":2,"mode":4}]}],"nodes":[{"children":[1,2,3,4,5],"name":"SM_Door_Frame_24","originalUnits":0.00999999977648258,"pivot":[0,0,0],"rotation":[0,0,0,1],"scale":[1,1,1],"translation":[0,0,0]},{"mesh":0,"name":"SM_Door_Wall_LOD0","originalUnits":0.00999999977648258,"pivot":[0,0,0],"rotation":[0,0,0,1],"scale":[1,1,1],"translation":[0,0,0]},{"name":"SM_Door_Wall_ConvexHulls","originalUnits":0.00999999977648258,"pivot":[0,0,0],"rotation":[0,0,0,1],"scale":[1,1,1],"translation":[0,0,0]},{"mesh":1,"name":"SM_Door_Wall_LOD1","originalUnits":0.00999999977648258,"pivot":[0,0,0],"rotation":[0,0,0,1],"scale":[1,1,1],"translation":[0,0,0]},{"mesh":2,"name":"SM_Door_Wall_LOD2","originalUnits":0.00999999977648258,"pivot":[0,0,0],"rotation":[0,0,0,1],"scale":[1,1,1],"translation":[0,0,0]},{"mesh":3,"name":"SM_Door_Wall_LOD3","originalUnits":0.00999999977648258,"pivot":[0,0,0],"rotation":[0,0,0,1],"scale":[1,1,1],"translation":[0,0,0]}],"samplers":[{}],"scene":0,"scenes":[{"name":"Root Scene","nodes":[0]}],"textures":[{"name":"WorldGridMaterial","sampler":0,"source":0},{"name":"WorldGridMaterial","sampler":0,"source":1},{"name":"MI_Brick_01","sampler":0,"source":2},{"name":"MI_Brick_01","sampler":0,"source":3},{"name":"MI_Brick_02","sampler":0,"source":4},{"name":"MI_Brick_02","sampler":0,"source":5}]}