{"accessors":[{"bufferView":0,"byteOffset":0,"componentType":5126,"count":1,"max":[0],"min":[0],"type":"SCALAR"},{"bufferView":1,"byteOffset":0,"componentType":5123,"count":2760,"type":"SCALAR"},{"bufferView":2,"byteOffset":0,"componentType":5126,"count":546,"max":[0.0231588762253523,0.268051832914352,0.0231589507311583],"min":[-0.02315887250006,-0.26805183291435,-0.02315895073116],"type":"VEC3"},{"bufferView":3,"byteOffset":0,"componentType":5126,"count":546,"type":"VEC3"},{"bufferView":4,"byteOffset":0,"componentType":5126,"count":546,"type":"VEC4"},{"bufferView":5,"byteOffset":0,"componentType":5126,"count":546,"type":"VEC2"},{"bufferView":6,"byteOffset":0,"componentType":5126,"count":546,"type":"VEC2"},{"bufferView":7,"byteOffset":0,"componentType":5123,"count":2070,"type":"SCALAR"},{"bufferView":8,"byteOffset":0,"componentType":5126,"count":419,"max":[0.0231588762253523,0.268051832914352,0.0231589507311583],"min":[-0.02315887250006,-0.2680521607399,-0.02315895073116],"type":"VEC3"},{"bufferView":9,"byteOffset":0,"componentType":5126,"count":419,"type":"VEC3"},{"bufferView":10,"byteOffset":0,"componentType":5126,"count":419,"type":"VEC4"},{"bufferView":11,"byteOffset":0,"componentType":5126,"count":419,"type":"VEC2"},{"bufferView":12,"byteOffset":0,"componentType":5126,"count":419,"type":"VEC2"},{"bufferView":13,"byteOffset":0,"componentType":5123,"count":1380,"type":"SCALAR"},{"bufferView":14,"byteOffset":0,"componentType":5126,"count":288,"max":[0.0225785542279482,0.268096625804901,0.0226133428514004],"min":[-0.02243304997683,-0.26966917514801,-0.02259086258709],"type":"VEC3"},{"bufferView":15,"byteOffset":0,"componentType":5126,"count":288,"type":"VEC3"},{"bufferView":16,"byteOffset":0,"componentType":5126,"count":288,"type":"VEC4"},{"bufferView":17,"byteOffset":0,"componentType":5126,"count":288,"type":"VEC2"},{"bufferView":18,"byteOffset":0,"componentType":5126,"count":288,"type":"VEC2"},{"bufferView":19,"byteOffset":0,"componentType":5123,"count":342,"type":"SCALAR"},{"bufferView":20,"byteOffset":0,"componentType":5126,"count":87,"max":[0.0206110123544931,0.26825213432312,0.0222588032484055],"min":[-0.02218232303858,-0.27038642764091,-0.02336424775422],"type":"VEC3"},{"bufferView":21,"byteOffset":0,"componentType":5126,"count":87,"type":"VEC3"},{"bufferView":22,"byteOffset":0,"componentType":5126,"count":87,"type":"VEC4"},{"bufferView":23,"byteOffset":0,"componentType":5126,"count":87,"type":"VEC2"},{"bufferView":24,"byteOffset":0,"componentType":5126,"count":87,"type":"VEC2"},{"bufferView":25,"byteOffset":0,"componentType":5123,"count":168,"type":"SCALAR"},{"bufferView":26,"byteOffset":0,"componentType":5126,"count":32,"max":[0.0196158792823553,0.263296753168106,0.0221735686063766],"min":[-0.01992129907012,-0.26906630396843,-0.02106738835573],"type":"VEC3"},{"bufferView":27,"byteOffset":0,"componentType":5126,"count":32,"type":"VEC3"},{"bufferView":28,"byteOffset":0,"componentType":5126,"count":32,"type":"VEC2"},{"bufferView":29,"byteOffset":0,"componentType":5126,"count":32,"type":"VEC2"}],"animations":[{"channels":[],"name":"Unreal Take","samplers":[]}],"asset":{"generator":"FBX2glTF v0.13.0","version":"2.0"},"bufferViews":[{"buffer":0,"byteLength":4,"byteOffset":0},{"buffer":0,"byteLength":5520,"byteOffset":4,"target":34963},{"buffer":0,"byteLength":6552,"byteOffset":5524,"target":34962},{"buffer":0,"byteLength":6552,"byteOffset":12076,"target":34962},{"buffer":0,"byteLength":8736,"byteOffset":18628,"target":34962},{"buffer":0,"byteLength":4368,"byteOffset":27364,"target":34962},{"buffer":0,"byteLength":4368,"byteOffset":31732,"target":34962},{"buffer":0,"byteLength":4140,"byteOffset":36100,"target":34963},{"buffer":0,"byteLength":5028,"byteOffset":40240,"target":34962},{"buffer":0,"byteLength":5028,"byteOffset":45268,"target":34962},{"buffer":0,"byteLength":6704,"byteOffset":50296,"target":34962},{"buffer":0,"byteLength":3352,"byteOffset":57000,"target":34962},{"buffer":0,"byteLength":3352,"byteOffset":60352,"target":34962},{"buffer":0,"byteLength":2760,"byteOffset":63704,"target":34963},{"buffer":0,"byteLength":3456,"byteOffset":66464,"target":34962},{"buffer":0,"byteLength":3456,"byteOffset":69920,"target":34962},{"buffer":0,"byteLength":4608,"byteOffset":73376,"target":34962},{"buffer":0,"byteLength":2304,"byteOffset":77984,"target":34962},{"buffer":0,"byteLength":2304,"byteOffset":80288,"target":34962},{"buffer":0,"byteLength":684,"byteOffset":82592,"target":34963},{"buffer":0,"byteLength":1044,"byteOffset":83276,"target":34962},{"buffer":0,"byteLength":1044,"byteOffset":84320,"target":34962},{"buffer":0,"byteLength":1392,"byteOffset":85364,"target":34962},{"buffer":0,"byteLength":696,"byteOffset":86756,"target":34962},{"buffer":0,"byteLength":696,"byteOffset":87452,"target":34962},{"buffer":0,"byteLength":336,"byteOffset":88148,"target":34963},{"buffer":0,"byteLength":384,"byteOffset":88484,"target":34962},{"buffer":0,"byteLength":384,"byteOffset":88868,"target":34962},{"buffer":0,"byteLength":256,"byteOffset":89252,"target":34962},{"buffer":0,"byteLength":256,"byteOffset":89508,"target":34962}],"buffers":[{"byteLength":89764,"uri":"SM_Drill01.bin"}],"images":[{"name":"T_Tools_N","uri":"T_Tools_N.png"},{"name":"T_Tools_B","uri":"T_Tools_B.png"}],"materials":[{"alphaMode":"OPAQUE","doubleSided":false,"extras":{"fromFBX":{"isTruePBR":false,"shadingModel":"Phong"}},"name":"MI_Tools_02","normalTexture":{"index":0,"texCoord":0},"pbrMetallicRoughness":{"baseColorFactor":[1,1,1,1],"baseColorTexture":{"index":1,"texCoord":0},"metallicFactor":0.400000005960464,"roughnessFactor":0.301511347293854}},{"alphaMode":"OPAQUE","doubleSided":false,"extras":{"fromFBX":{"isTruePBR":false,"shadingModel":"Lambert"}},"name":"DefaultMaterial","pbrMetallicRoughness":{"baseColorFactor":[0.5,0.5,0.5,1],"metallicFactor":0.200000002980232,"roughnessFactor":0.800000011920929}}],"meshes":[{"name":"SM_Drill01_LOD0","primitives":[{"attributes":{"NORMAL":3,"POSITION":2,"TANGENT":4,"TEXCOORD_0":5,"TEXCOORD_1":6},"indices":1,"material":0,"mode":4}]},{"name":"SM_Drill01_LOD1","primitives":[{"attributes":{"NORMAL":9,"POSITION":8,"TANGENT":10,"TEXCOORD_0":11,"TEXCOORD_1":12},"indices":7,"material":0,"mode":4}]},{"name":"SM_Drill01_LOD2","primitives":[{"attributes":{"NORMAL":15,"POSITION":14,"TANGENT":16,"TEXCOORD_0":17,"TEXCOORD_1":18},"indices":13,"material":0,"mode":4}]},{"name":"SM_Drill01_LOD3","primitives":[{"attributes":{"NORMAL":21,"POSITION":20,"TANGENT":22,"TEXCOORD_0":23,"TEXCOORD_1":24},"indices":19,"material":0,"mode":4}]},{"name":"SM_Drill01_ConvexHulls","primitives":[{"attributes":{"NORMAL":27,"POSITION":26,"TEXCOORD_0":28,"TEXCOORD_1":29},"indices":25,"material":1,"mode":4}]}],"nodes":[{"children":[1,2,3,4,5],"name":"SM_Drill01_27","originalUnits":0.00999999977648258,"pivot":[0,0,0],"rotation":[0,0,0,1],"scale":[1,1,1],"translation":[0,0,0]},{"mesh":0,"name":"SM_Drill01_LOD0","originalUnits":0.00999999977648258,"pivot":[0,0,0],"rotation":[0,0,0,1],"scale":[1,1,1],"translation":[0,0,0]},{"mesh":4,"name":"SM_Drill01_ConvexHulls","originalUnits":0.00999999977648258,"pivot":[0,0,0],"rotation":[0,0,0,1],"scale":[1,1,1],"translation":[0,0,0]},{"mesh":1,"name":"SM_Drill01_LOD1","originalUnits":0.00999999977648258,"pivot":[0,0,0],"rotation":[0,0,0,1],"scale":[1,1,1],"translation":[0,0,0]},{"mesh":2,"name":"SM_Drill01_LOD2","originalUnits":0.00999999977648258,"pivot":[0,0,0],"rotation":[0,0,0,1],"scale":[1,1,1],"translation":[0,0,0]},{"mesh":3,"name":"SM_Drill01_LOD3","originalUnits":0.00999999977648258,"pivot":[0,0,0],"rotation":[0,0,0,1],"scale":[1,1,1],"translation":[0,0,0]}],"samplers":[{}],"scene":0,"scenes":[{"name":"Root Scene","nodes":[0]}],"textures":[{"name":"MI_Tools_02","sampler":0,"source":0},{"name":"MI_Tools_02","sampler":0,"source":1}]}