{"accessors":[{"bufferView":0,"byteOffset":0,"componentType":5126,"count":1,"max":[0],"min":[0],"type":"SCALAR"},{"bufferView":1,"byteOffset":0,"componentType":5123,"count":150,"type":"SCALAR"},{"bufferView":2,"byteOffset":0,"componentType":5126,"count":48,"max":[0.0652724280953407,0.0901587530970573,0.394601851701736],"min":[-0.06527242809534,-0.00000000075887,-0.39460185170174],"type":"VEC3"},{"bufferView":3,"byteOffset":0,"componentType":5126,"count":48,"type":"VEC3"},{"bufferView":4,"byteOffset":0,"componentType":5126,"count":48,"type":"VEC4"},{"bufferView":5,"byteOffset":0,"componentType":5126,"count":48,"type":"VEC2"},{"bufferView":6,"byteOffset":0,"componentType":5126,"count":48,"type":"VEC2"},{"bufferView":7,"byteOffset":0,"componentType":5123,"count":114,"type":"SCALAR"},{"bufferView":8,"byteOffset":0,"componentType":5126,"count":39,"max":[0.0652724280953407,0.0901587530970573,0.39461824297905],"min":[-0.06527242809534,-0.00000130138301,-0.39506369829178],"type":"VEC3"},{"bufferView":9,"byteOffset":0,"componentType":5126,"count":39,"type":"VEC3"},{"bufferView":10,"byteOffset":0,"componentType":5126,"count":39,"type":"VEC4"},{"bufferView":11,"byteOffset":0,"componentType":5126,"count":39,"type":"VEC2"},{"bufferView":12,"byteOffset":0,"componentType":5126,"count":39,"type":"VEC2"},{"bufferView":13,"byteOffset":0,"componentType":5123,"count":72,"type":"SCALAR"},{"bufferView":14,"byteOffset":0,"componentType":5126,"count":28,"max":[0.0652724280953407,0.0953415110707283,0.394807875156403],"min":[-0.06527242064476,-0.00000130138301,-0.39506369829178],"type":"VEC3"},{"bufferView":15,"byteOffset":0,"componentType":5126,"count":28,"type":"VEC3"},{"bufferView":16,"byteOffset":0,"componentType":5126,"count":28,"type":"VEC4"},{"bufferView":17,"byteOffset":0,"componentType":5126,"count":28,"type":"VEC2"},{"bufferView":18,"byteOffset":0,"componentType":5126,"count":28,"type":"VEC2"},{"bufferView":19,"byteOffset":0,"componentType":5123,"count":18,"type":"SCALAR"},{"bufferView":20,"byteOffset":0,"componentType":5126,"count":10,"max":[0.10942292958498,0.187346398830414,0.397547483444214],"min":[-0.04594722762704,-0.00876946002245,-0.42046225070953],"type":"VEC3"},{"bufferView":21,"byteOffset":0,"componentType":5126,"count":10,"type":"VEC3"},{"bufferView":22,"byteOffset":0,"componentType":5126,"count":10,"type":"VEC4"},{"bufferView":23,"byteOffset":0,"componentType":5126,"count":10,"type":"VEC2"},{"bufferView":24,"byteOffset":0,"componentType":5126,"count":10,"type":"VEC2"},{"bufferView":25,"byteOffset":0,"componentType":5123,"count":84,"type":"SCALAR"},{"bufferView":26,"byteOffset":0,"componentType":5126,"count":16,"max":[0.0656194910407066,0.09559166431427,0.396831780672073],"min":[-0.06543163210154,-0.00622368091717,-0.39683178067207],"type":"VEC3"},{"bufferView":27,"byteOffset":0,"componentType":5126,"count":16,"type":"VEC3"},{"bufferView":28,"byteOffset":0,"componentType":5126,"count":16,"type":"VEC2"},{"bufferView":29,"byteOffset":0,"componentType":5126,"count":16,"type":"VEC2"}],"animations":[{"channels":[],"name":"Unreal Take","samplers":[]}],"asset":{"generator":"FBX2glTF v0.13.0","version":"2.0"},"bufferViews":[{"buffer":0,"byteLength":4,"byteOffset":0},{"buffer":0,"byteLength":300,"byteOffset":4,"target":34963},{"buffer":0,"byteLength":576,"byteOffset":304,"target":34962},{"buffer":0,"byteLength":576,"byteOffset":880,"target":34962},{"buffer":0,"byteLength":768,"byteOffset":1456,"target":34962},{"buffer":0,"byteLength":384,"byteOffset":2224,"target":34962},{"buffer":0,"byteLength":384,"byteOffset":2608,"target":34962},{"buffer":0,"byteLength":228,"byteOffset":2992,"target":34963},{"buffer":0,"byteLength":468,"byteOffset":3220,"target":34962},{"buffer":0,"byteLength":468,"byteOffset":3688,"target":34962},{"buffer":0,"byteLength":624,"byteOffset":4156,"target":34962},{"buffer":0,"byteLength":312,"byteOffset":4780,"target":34962},{"buffer":0,"byteLength":312,"byteOffset":5092,"target":34962},{"buffer":0,"byteLength":144,"byteOffset":5404,"target":34963},{"buffer":0,"byteLength":336,"byteOffset":5548,"target":34962},{"buffer":0,"byteLength":336,"byteOffset":5884,"target":34962},{"buffer":0,"byteLength":448,"byteOffset":6220,"target":34962},{"buffer":0,"byteLength":224,"byteOffset":6668,"target":34962},{"buffer":0,"byteLength":224,"byteOffset":6892,"target":34962},{"buffer":0,"byteLength":36,"byteOffset":7116,"target":34963},{"buffer":0,"byteLength":120,"byteOffset":7152,"target":34962},{"buffer":0,"byteLength":120,"byteOffset":7272,"target":34962},{"buffer":0,"byteLength":160,"byteOffset":7392,"target":34962},{"buffer":0,"byteLength":80,"byteOffset":7552,"target":34962},{"buffer":0,"byteLength":80,"byteOffset":7632,"target":34962},{"buffer":0,"byteLength":168,"byteOffset":7712,"target":34963},{"buffer":0,"byteLength":192,"byteOffset":7880,"target":34962},{"buffer":0,"byteLength":192,"byteOffset":8072,"target":34962},{"buffer":0,"byteLength":128,"byteOffset":8264,"target":34962},{"buffer":0,"byteLength":128,"byteOffset":8392,"target":34962}],"buffers":[{"byteLength":8520,"uri":"SM_Firewood.bin"}],"images":[{"name":"T_Wooden_N","uri":"T_Wooden_N.png"},{"name":"T_Wooden_B","uri":"T_Wooden_B.png"}],"materials":[{"alphaMode":"OPAQUE","doubleSided":false,"extras":{"fromFBX":{"isTruePBR":false,"shadingModel":"Phong"}},"name":"MI_Wood_Stuff","normalTexture":{"index":0,"texCoord":0},"pbrMetallicRoughness":{"baseColorFactor":[1,1,1,1],"baseColorTexture":{"index":1,"texCoord":0},"metallicFactor":0.400000005960464,"roughnessFactor":0.301511347293854}},{"alphaMode":"OPAQUE","doubleSided":false,"extras":{"fromFBX":{"isTruePBR":false,"shadingModel":"Lambert"}},"name":"DefaultMaterial","pbrMetallicRoughness":{"baseColorFactor":[0.5,0.5,0.5,1],"metallicFactor":0.200000002980232,"roughnessFactor":0.800000011920929}}],"meshes":[{"name":"SM_Firewood_LOD0","primitives":[{"attributes":{"NORMAL":3,"POSITION":2,"TANGENT":4,"TEXCOORD_0":5,"TEXCOORD_1":6},"indices":1,"material":0,"mode":4}]},{"name":"SM_Firewood_LOD1","primitives":[{"attributes":{"NORMAL":9,"POSITION":8,"TANGENT":10,"TEXCOORD_0":11,"TEXCOORD_1":12},"indices":7,"material":0,"mode":4}]},{"name":"SM_Firewood_LOD2","primitives":[{"attributes":{"NORMAL":15,"POSITION":14,"TANGENT":16,"TEXCOORD_0":17,"TEXCOORD_1":18},"indices":13,"material":0,"mode":4}]},{"name":"SM_Firewood_LOD3","primitives":[{"attributes":{"NORMAL":21,"POSITION":20,"TANGENT":22,"TEXCOORD_0":23,"TEXCOORD_1":24},"indices":19,"material":0,"mode":4}]},{"name":"SM_Firewood_ConvexHulls","primitives":[{"attributes":{"NORMAL":27,"POSITION":26,"TEXCOORD_0":28,"TEXCOORD_1":29},"indices":25,"material":1,"mode":4}]}],"nodes":[{"children":[1,2,3,4,5],"name":"SM_Firewood_28","originalUnits":0.00999999977648258,"pivot":[0,0,0],"rotation":[0,0,0,1],"scale":[1,1,1],"translation":[0,0,0]},{"mesh":0,"name":"SM_Firewood_LOD0","originalUnits":0.00999999977648258,"pivot":[0,0,0],"rotation":[0,0,0,1],"scale":[1,1,1],"translation":[0,0,0]},{"mesh":4,"name":"SM_Firewood_ConvexHulls","originalUnits":0.00999999977648258,"pivot":[0,0,0],"rotation":[0,0,0,1],"scale":[1,1,1],"translation":[0,0,0]},{"mesh":1,"name":"SM_Firewood_LOD1","originalUnits":0.00999999977648258,"pivot":[0,0,0],"rotation":[0,0,0,1],"scale":[1,1,1],"translation":[0,0,0]},{"mesh":2,"name":"SM_Firewood_LOD2","originalUnits":0.00999999977648258,"pivot":[0,0,0],"rotation":[0,0,0,1],"scale":[1,1,1],"translation":[0,0,0]},{"mesh":3,"name":"SM_Firewood_LOD3","originalUnits":0.00999999977648258,"pivot":[0,0,0],"rotation":[0,0,0,1],"scale":[1,1,1],"translation":[0,0,0]}],"samplers":[{}],"scene":0,"scenes":[{"name":"Root Scene","nodes":[0]}],"textures":[{"name":"MI_Wood_Stuff","sampler":0,"source":0},{"name":"MI_Wood_Stuff","sampler":0,"source":1}]}