{"accessors":[{"bufferView":0,"byteOffset":0,"componentType":5126,"count":1,"max":[0],"min":[0],"type":"SCALAR"},{"bufferView":1,"byteOffset":0,"componentType":5123,"count":6144,"type":"SCALAR"},{"bufferView":2,"byteOffset":0,"componentType":5126,"count":1089,"max":[4.25,0.0170141998678446,5.50153017044067],"min":[-4.39054250717163,0.0170138813555241,-8.29580020904541],"type":"VEC3"},{"bufferView":3,"byteOffset":0,"componentType":5126,"count":1089,"type":"VEC3"},{"bufferView":4,"byteOffset":0,"componentType":5126,"count":1089,"type":"VEC4"},{"bufferView":5,"byteOffset":0,"componentType":5126,"count":1089,"type":"VEC2"},{"bufferView":6,"byteOffset":0,"componentType":5126,"count":1089,"type":"VEC2"},{"bufferView":7,"byteOffset":0,"componentType":5123,"count":4608,"type":"SCALAR"},{"bufferView":8,"byteOffset":0,"componentType":5126,"count":828,"max":[4.25,0.0170141998678446,5.50153017044067],"min":[-4.39054250717163,0.0170138813555241,-8.29580020904541],"type":"VEC3"},{"bufferView":9,"byteOffset":0,"componentType":5126,"count":828,"type":"VEC3"},{"bufferView":10,"byteOffset":0,"componentType":5126,"count":828,"type":"VEC4"},{"bufferView":11,"byteOffset":0,"componentType":5126,"count":828,"type":"VEC2"},{"bufferView":12,"byteOffset":0,"componentType":5126,"count":828,"type":"VEC2"},{"bufferView":13,"byteOffset":0,"componentType":5123,"count":3072,"type":"SCALAR"},{"bufferView":14,"byteOffset":0,"componentType":5126,"count":569,"max":[4.25,0.0170141998678446,5.50153017044067],"min":[-4.39054250717163,0.0170138813555241,-8.29580020904541],"type":"VEC3"},{"bufferView":15,"byteOffset":0,"componentType":5126,"count":569,"type":"VEC3"},{"bufferView":16,"byteOffset":0,"componentType":5126,"count":569,"type":"VEC4"},{"bufferView":17,"byteOffset":0,"componentType":5126,"count":569,"type":"VEC2"},{"bufferView":18,"byteOffset":0,"componentType":5126,"count":569,"type":"VEC2"},{"bufferView":19,"byteOffset":0,"componentType":5123,"count":768,"type":"SCALAR"},{"bufferView":20,"byteOffset":0,"componentType":5126,"count":174,"max":[4.25,0.0170142035931349,5.50153017044067],"min":[-4.39054250717163,0.0170138813555241,-8.29580020904541],"type":"VEC3"},{"bufferView":21,"byteOffset":0,"componentType":5126,"count":174,"type":"VEC3"},{"bufferView":22,"byteOffset":0,"componentType":5126,"count":174,"type":"VEC4"},{"bufferView":23,"byteOffset":0,"componentType":5126,"count":174,"type":"VEC2"},{"bufferView":24,"byteOffset":0,"componentType":5126,"count":174,"type":"VEC2"}],"animations":[{"channels":[],"name":"Unreal Take","samplers":[]}],"asset":{"generator":"FBX2glTF v0.13.0","version":"2.0"},"bufferViews":[{"buffer":0,"byteLength":4,"byteOffset":0},{"buffer":0,"byteLength":12288,"byteOffset":4,"target":34963},{"buffer":0,"byteLength":13068,"byteOffset":12292,"target":34962},{"buffer":0,"byteLength":13068,"byteOffset":25360,"target":34962},{"buffer":0,"byteLength":17424,"byteOffset":38428,"target":34962},{"buffer":0,"byteLength":8712,"byteOffset":55852,"target":34962},{"buffer":0,"byteLength":8712,"byteOffset":64564,"target":34962},{"buffer":0,"byteLength":9216,"byteOffset":73276,"target":34963},{"buffer":0,"byteLength":9936,"byteOffset":82492,"target":34962},{"buffer":0,"byteLength":9936,"byteOffset":92428,"target":34962},{"buffer":0,"byteLength":13248,"byteOffset":102364,"target":34962},{"buffer":0,"byteLength":6624,"byteOffset":115612,"target":34962},{"buffer":0,"byteLength":6624,"byteOffset":122236,"target":34962},{"buffer":0,"byteLength":6144,"byteOffset":128860,"target":34963},{"buffer":0,"byteLength":6828,"byteOffset":135004,"target":34962},{"buffer":0,"byteLength":6828,"byteOffset":141832,"target":34962},{"buffer":0,"byteLength":9104,"byteOffset":148660,"target":34962},{"buffer":0,"byteLength":4552,"byteOffset":157764,"target":34962},{"buffer":0,"byteLength":4552,"byteOffset":162316,"target":34962},{"buffer":0,"byteLength":1536,"byteOffset":166868,"target":34963},{"buffer":0,"byteLength":2088,"byteOffset":168404,"target":34962},{"buffer":0,"byteLength":2088,"byteOffset":170492,"target":34962},{"buffer":0,"byteLength":2784,"byteOffset":172580,"target":34962},{"buffer":0,"byteLength":1392,"byteOffset":175364,"target":34962},{"buffer":0,"byteLength":1392,"byteOffset":176756,"target":34962}],"buffers":[{"byteLength":178148,"uri":"SM_Ground.bin"}],"images":[{"name":"T_WoodenPlanks_N","uri":"T_WoodenPlanks_N.png"},{"name":"T_WoodenPlanks_B","uri":"T_WoodenPlanks_B.png"}],"materials":[{"alphaMode":"OPAQUE","doubleSided":false,"extras":{"fromFBX":{"isTruePBR":false,"shadingModel":"Phong"}},"name":"MI_FloorPlanks","normalTexture":{"index":0,"texCoord":0},"pbrMetallicRoughness":{"baseColorFactor":[1,1,1,1],"baseColorTexture":{"index":1,"texCoord":0},"metallicFactor":0.400000005960464,"roughnessFactor":0.301511347293854}}],"meshes":[{"name":"SM_Ground_LOD0","primitives":[{"attributes":{"NORMAL":3,"POSITION":2,"TANGENT":4,"TEXCOORD_0":5,"TEXCOORD_1":6},"indices":1,"material":0,"mode":4}]},{"name":"SM_Ground_LOD1","primitives":[{"attributes":{"NORMAL":9,"POSITION":8,"TANGENT":10,"TEXCOORD_0":11,"TEXCOORD_1":12},"indices":7,"material":0,"mode":4}]},{"name":"SM_Ground_LOD2","primitives":[{"attributes":{"NORMAL":15,"POSITION":14,"TANGENT":16,"TEXCOORD_0":17,"TEXCOORD_1":18},"indices":13,"material":0,"mode":4}]},{"name":"SM_Ground_LOD3","primitives":[{"attributes":{"NORMAL":21,"POSITION":20,"TANGENT":22,"TEXCOORD_0":23,"TEXCOORD_1":24},"indices":19,"material":0,"mode":4}]}],"nodes":[{"children":[1,2,3,4,5],"name":"SM_Ground_30","originalUnits":0.00999999977648258,"pivot":[0,0,0],"rotation":[0,0,0,1],"scale":[1,1,1],"translation":[0,0,0]},{"mesh":0,"name":"SM_Ground_LOD0","originalUnits":0.00999999977648258,"pivot":[0,0,0],"rotation":[0,0,0,1],"scale":[1,1,1],"translation":[0,0,0]},{"name":"SM_Ground_ConvexHulls","originalUnits":0.00999999977648258,"pivot":[0,0,0],"rotation":[0,0,0,1],"scale":[1,1,1],"translation":[0,0,0]},{"mesh":1,"name":"SM_Ground_LOD1","originalUnits":0.00999999977648258,"pivot":[0,0,0],"rotation":[0,0,0,1],"scale":[1,1,1],"translation":[0,0,0]},{"mesh":2,"name":"SM_Ground_LOD2","originalUnits":0.00999999977648258,"pivot":[0,0,0],"rotation":[0,0,0,1],"scale":[1,1,1],"translation":[0,0,0]},{"mesh":3,"name":"SM_Ground_LOD3","originalUnits":0.00999999977648258,"pivot":[0,0,0],"rotation":[0,0,0,1],"scale":[1,1,1],"translation":[0,0,0]}],"samplers":[{}],"scene":0,"scenes":[{"name":"Root Scene","nodes":[0]}],"textures":[{"name":"MI_FloorPlanks","sampler":0,"source":0},{"name":"MI_FloorPlanks","sampler":0,"source":1}]}