{"accessors":[{"bufferView":0,"byteOffset":0,"componentType":5126,"count":1,"max":[0],"min":[0],"type":"SCALAR"},{"bufferView":1,"byteOffset":0,"componentType":5123,"count":6144,"type":"SCALAR"},{"bufferView":2,"byteOffset":0,"componentType":5126,"count":1089,"max":[4.25,0.0170141998678446,5.50153017044067],"min":[-4.39054250717163,0.0170138813555241,-8.29580020904541],"type":"VEC3"},{"bufferView":3,"byteOffset":0,"componentType":5126,"count":1089,"type":"VEC3"},{"bufferView":4,"byteOffset":0,"componentType":5126,"count":1089,"type":"VEC4"},{"bufferView":5,"byteOffset":0,"componentType":5126,"count":1089,"type":"VEC4"},{"bufferView":6,"byteOffset":0,"componentType":5126,"count":1089,"type":"VEC2"},{"bufferView":7,"byteOffset":0,"componentType":5126,"count":1089,"type":"VEC2"},{"bufferView":8,"byteOffset":0,"componentType":5123,"count":4608,"type":"SCALAR"},{"bufferView":9,"byteOffset":0,"componentType":5126,"count":828,"max":[4.25,0.0170141998678446,5.50153017044067],"min":[-4.39054250717163,0.0170138813555241,-8.29580020904541],"type":"VEC3"},{"bufferView":10,"byteOffset":0,"componentType":5126,"count":828,"type":"VEC3"},{"bufferView":11,"byteOffset":0,"componentType":5126,"count":828,"type":"VEC4"},{"bufferView":12,"byteOffset":0,"componentType":5126,"count":828,"type":"VEC4"},{"bufferView":13,"byteOffset":0,"componentType":5126,"count":828,"type":"VEC2"},{"bufferView":14,"byteOffset":0,"componentType":5126,"count":828,"type":"VEC2"},{"bufferView":15,"byteOffset":0,"componentType":5123,"count":3072,"type":"SCALAR"},{"bufferView":16,"byteOffset":0,"componentType":5126,"count":569,"max":[4.25,0.0170141998678446,5.50153017044067],"min":[-4.39054250717163,0.0170138813555241,-8.29580020904541],"type":"VEC3"},{"bufferView":17,"byteOffset":0,"componentType":5126,"count":569,"type":"VEC3"},{"bufferView":18,"byteOffset":0,"componentType":5126,"count":569,"type":"VEC4"},{"bufferView":19,"byteOffset":0,"componentType":5126,"count":569,"type":"VEC4"},{"bufferView":20,"byteOffset":0,"componentType":5126,"count":569,"type":"VEC2"},{"bufferView":21,"byteOffset":0,"componentType":5126,"count":569,"type":"VEC2"},{"bufferView":22,"byteOffset":0,"componentType":5123,"count":768,"type":"SCALAR"},{"bufferView":23,"byteOffset":0,"componentType":5126,"count":174,"max":[4.25,0.0170142035931349,5.50153017044067],"min":[-4.39054250717163,0.0170138813555241,-8.29580020904541],"type":"VEC3"},{"bufferView":24,"byteOffset":0,"componentType":5126,"count":174,"type":"VEC3"},{"bufferView":25,"byteOffset":0,"componentType":5126,"count":174,"type":"VEC4"},{"bufferView":26,"byteOffset":0,"componentType":5126,"count":174,"type":"VEC4"},{"bufferView":27,"byteOffset":0,"componentType":5126,"count":174,"type":"VEC2"},{"bufferView":28,"byteOffset":0,"componentType":5126,"count":174,"type":"VEC2"}],"animations":[{"channels":[],"name":"Unreal Take","samplers":[]}],"asset":{"generator":"FBX2glTF v0.13.0","version":"2.0"},"bufferViews":[{"buffer":0,"byteLength":4,"byteOffset":0},{"buffer":0,"byteLength":12288,"byteOffset":4,"target":34963},{"buffer":0,"byteLength":13068,"byteOffset":12292,"target":34962},{"buffer":0,"byteLength":13068,"byteOffset":25360,"target":34962},{"buffer":0,"byteLength":17424,"byteOffset":38428,"target":34962},{"buffer":0,"byteLength":17424,"byteOffset":55852,"target":34962},{"buffer":0,"byteLength":8712,"byteOffset":73276,"target":34962},{"buffer":0,"byteLength":8712,"byteOffset":81988,"target":34962},{"buffer":0,"byteLength":9216,"byteOffset":90700,"target":34963},{"buffer":0,"byteLength":9936,"byteOffset":99916,"target":34962},{"buffer":0,"byteLength":9936,"byteOffset":109852,"target":34962},{"buffer":0,"byteLength":13248,"byteOffset":119788,"target":34962},{"buffer":0,"byteLength":13248,"byteOffset":133036,"target":34962},{"buffer":0,"byteLength":6624,"byteOffset":146284,"target":34962},{"buffer":0,"byteLength":6624,"byteOffset":152908,"target":34962},{"buffer":0,"byteLength":6144,"byteOffset":159532,"target":34963},{"buffer":0,"byteLength":6828,"byteOffset":165676,"target":34962},{"buffer":0,"byteLength":6828,"byteOffset":172504,"target":34962},{"buffer":0,"byteLength":9104,"byteOffset":179332,"target":34962},{"buffer":0,"byteLength":9104,"byteOffset":188436,"target":34962},{"buffer":0,"byteLength":4552,"byteOffset":197540,"target":34962},{"buffer":0,"byteLength":4552,"byteOffset":202092,"target":34962},{"buffer":0,"byteLength":1536,"byteOffset":206644,"target":34963},{"buffer":0,"byteLength":2088,"byteOffset":208180,"target":34962},{"buffer":0,"byteLength":2088,"byteOffset":210268,"target":34962},{"buffer":0,"byteLength":2784,"byteOffset":212356,"target":34962},{"buffer":0,"byteLength":2784,"byteOffset":215140,"target":34962},{"buffer":0,"byteLength":1392,"byteOffset":217924,"target":34962},{"buffer":0,"byteLength":1392,"byteOffset":219316,"target":34962}],"buffers":[{"byteLength":220708,"uri":"SM_Ground@00000B6CE3A1AF00.bin"}],"images":[{"name":"T_WoodenPlanks_N","uri":"T_WoodenPlanks_N.png"},{"name":"T_WoodenPlanks_B","uri":"T_WoodenPlanks_B.png"}],"materials":[{"alphaMode":"OPAQUE","doubleSided":false,"extras":{"fromFBX":{"isTruePBR":false,"shadingModel":"Phong"}},"name":"MI_FloorPlanks","normalTexture":{"index":0,"texCoord":0},"pbrMetallicRoughness":{"baseColorFactor":[1,1,1,1],"baseColorTexture":{"index":1,"texCoord":0},"metallicFactor":0.400000005960464,"roughnessFactor":0.301511347293854}}],"meshes":[{"name":"SM_Ground_LOD0","primitives":[{"attributes":{"COLOR_0":5,"NORMAL":3,"POSITION":2,"TANGENT":4,"TEXCOORD_0":6,"TEXCOORD_1":7},"indices":1,"material":0,"mode":4}]},{"name":"SM_Ground_LOD1","primitives":[{"attributes":{"COLOR_0":12,"NORMAL":10,"POSITION":9,"TANGENT":11,"TEXCOORD_0":13,"TEXCOORD_1":14},"indices":8,"material":0,"mode":4}]},{"name":"SM_Ground_LOD2","primitives":[{"attributes":{"COLOR_0":19,"NORMAL":17,"POSITION":16,"TANGENT":18,"TEXCOORD_0":20,"TEXCOORD_1":21},"indices":15,"material":0,"mode":4}]},{"name":"SM_Ground_LOD3","primitives":[{"attributes":{"COLOR_0":26,"NORMAL":24,"POSITION":23,"TANGENT":25,"TEXCOORD_0":27,"TEXCOORD_1":28},"indices":22,"material":0,"mode":4}]}],"nodes":[{"children":[1,2,3,4,5],"name":"Base_pCube7_77","originalUnits":0.00999999977648258,"pivot":[0,0,0],"rotation":[0,0,0,1],"scale":[1,1,1],"translation":[0,0,0]},{"mesh":0,"name":"SM_Ground_LOD0","originalUnits":0.00999999977648258,"pivot":[0,0,0],"rotation":[0,0,0,1],"scale":[1,1,1],"translation":[0,0,0]},{"name":"SM_Ground_ConvexHulls","originalUnits":0.00999999977648258,"pivot":[0,0,0],"rotation":[0,0,0,1],"scale":[1,1,1],"translation":[0,0,0]},{"mesh":1,"name":"SM_Ground_LOD1","originalUnits":0.00999999977648258,"pivot":[0,0,0],"rotation":[0,0,0,1],"scale":[1,1,1],"translation":[0,0,0]},{"mesh":2,"name":"SM_Ground_LOD2","originalUnits":0.00999999977648258,"pivot":[0,0,0],"rotation":[0,0,0,1],"scale":[1,1,1],"translation":[0,0,0]},{"mesh":3,"name":"SM_Ground_LOD3","originalUnits":0.00999999977648258,"pivot":[0,0,0],"rotation":[0,0,0,1],"scale":[1,1,1],"translation":[0,0,0]}],"samplers":[{}],"scene":0,"scenes":[{"name":"Root Scene","nodes":[0]}],"textures":[{"name":"MI_FloorPlanks","sampler":0,"source":0},{"name":"MI_FloorPlanks","sampler":0,"source":1}]}