{"accessors":[{"bufferView":0,"byteOffset":0,"componentType":5126,"count":1,"max":[0],"min":[0],"type":"SCALAR"},{"bufferView":1,"byteOffset":0,"componentType":5123,"count":14484,"type":"SCALAR"},{"bufferView":2,"byteOffset":0,"componentType":5126,"count":3381,"max":[0.235312148928642,0.963145911693573,0.677176833152771],"min":[-0.35577163100243,-0.00648465845734,-0.67717617750168],"type":"VEC3"},{"bufferView":3,"byteOffset":0,"componentType":5126,"count":3381,"type":"VEC3"},{"bufferView":4,"byteOffset":0,"componentType":5126,"count":3381,"type":"VEC4"},{"bufferView":5,"byteOffset":0,"componentType":5126,"count":3381,"type":"VEC2"},{"bufferView":6,"byteOffset":0,"componentType":5126,"count":3381,"type":"VEC2"},{"bufferView":7,"byteOffset":0,"componentType":5123,"count":10863,"type":"SCALAR"},{"bufferView":8,"byteOffset":0,"componentType":5126,"count":2688,"max":[0.235312148928642,0.963145911693573,0.677176833152771],"min":[-0.35577163100243,-0.00648465845734,-0.67717617750168],"type":"VEC3"},{"bufferView":9,"byteOffset":0,"componentType":5126,"count":2688,"type":"VEC3"},{"bufferView":10,"byteOffset":0,"componentType":5126,"count":2688,"type":"VEC4"},{"bufferView":11,"byteOffset":0,"componentType":5126,"count":2688,"type":"VEC2"},{"bufferView":12,"byteOffset":0,"componentType":5126,"count":2688,"type":"VEC2"},{"bufferView":13,"byteOffset":0,"componentType":5123,"count":7242,"type":"SCALAR"},{"bufferView":14,"byteOffset":0,"componentType":5126,"count":1955,"max":[0.235312148928642,0.963145911693573,0.677176833152771],"min":[-0.35577163100243,-0.00648465845734,-0.67717617750168],"type":"VEC3"},{"bufferView":15,"byteOffset":0,"componentType":5126,"count":1955,"type":"VEC3"},{"bufferView":16,"byteOffset":0,"componentType":5126,"count":1955,"type":"VEC4"},{"bufferView":17,"byteOffset":0,"componentType":5126,"count":1955,"type":"VEC2"},{"bufferView":18,"byteOffset":0,"componentType":5126,"count":1955,"type":"VEC2"},{"bufferView":19,"byteOffset":0,"componentType":5123,"count":1809,"type":"SCALAR"},{"bufferView":20,"byteOffset":0,"componentType":5126,"count":754,"max":[0.235312148928642,0.964956998825073,0.686129510402679],"min":[-0.35620403289795,-0.01234602089971,-0.68628859519958],"type":"VEC3"},{"bufferView":21,"byteOffset":0,"componentType":5126,"count":754,"type":"VEC3"},{"bufferView":22,"byteOffset":0,"componentType":5126,"count":754,"type":"VEC4"},{"bufferView":23,"byteOffset":0,"componentType":5126,"count":754,"type":"VEC2"},{"bufferView":24,"byteOffset":0,"componentType":5126,"count":754,"type":"VEC2"},{"bufferView":25,"byteOffset":0,"componentType":5123,"count":294,"type":"SCALAR"},{"bufferView":26,"byteOffset":0,"componentType":5126,"count":57,"max":[0.230640977621078,0.956048667430878,0.672429919242859],"min":[-0.36616957187653,-0.01435897219926,-0.66989463567734],"type":"VEC3"},{"bufferView":27,"byteOffset":0,"componentType":5126,"count":57,"type":"VEC3"},{"bufferView":28,"byteOffset":0,"componentType":5126,"count":57,"type":"VEC2"},{"bufferView":29,"byteOffset":0,"componentType":5126,"count":57,"type":"VEC2"}],"animations":[{"channels":[],"name":"Unreal Take","samplers":[]}],"asset":{"generator":"FBX2glTF v0.13.0","version":"2.0"},"bufferViews":[{"buffer":0,"byteLength":4,"byteOffset":0},{"buffer":0,"byteLength":28968,"byteOffset":4,"target":34963},{"buffer":0,"byteLength":40572,"byteOffset":28972,"target":34962},{"buffer":0,"byteLength":40572,"byteOffset":69544,"target":34962},{"buffer":0,"byteLength":54096,"byteOffset":110116,"target":34962},{"buffer":0,"byteLength":27048,"byteOffset":164212,"target":34962},{"buffer":0,"byteLength":27048,"byteOffset":191260,"target":34962},{"buffer":0,"byteLength":21726,"byteOffset":218308,"target":34963},{"buffer":0,"byteLength":32256,"byteOffset":240036,"target":34962},{"buffer":0,"byteLength":32256,"byteOffset":272292,"target":34962},{"buffer":0,"byteLength":43008,"byteOffset":304548,"target":34962},{"buffer":0,"byteLength":21504,"byteOffset":347556,"target":34962},{"buffer":0,"byteLength":21504,"byteOffset":369060,"target":34962},{"buffer":0,"byteLength":14484,"byteOffset":390564,"target":34963},{"buffer":0,"byteLength":23460,"byteOffset":405048,"target":34962},{"buffer":0,"byteLength":23460,"byteOffset":428508,"target":34962},{"buffer":0,"byteLength":31280,"byteOffset":451968,"target":34962},{"buffer":0,"byteLength":15640,"byteOffset":483248,"target":34962},{"buffer":0,"byteLength":15640,"byteOffset":498888,"target":34962},{"buffer":0,"byteLength":3618,"byteOffset":514528,"target":34963},{"buffer":0,"byteLength":9048,"byteOffset":518148,"target":34962},{"buffer":0,"byteLength":9048,"byteOffset":527196,"target":34962},{"buffer":0,"byteLength":12064,"byteOffset":536244,"target":34962},{"buffer":0,"byteLength":6032,"byteOffset":548308,"target":34962},{"buffer":0,"byteLength":6032,"byteOffset":554340,"target":34962},{"buffer":0,"byteLength":588,"byteOffset":560372,"target":34963},{"buffer":0,"byteLength":684,"byteOffset":560960,"target":34962},{"buffer":0,"byteLength":684,"byteOffset":561644,"target":34962},{"buffer":0,"byteLength":456,"byteOffset":562328,"target":34962},{"buffer":0,"byteLength":456,"byteOffset":562784,"target":34962}],"buffers":[{"byteLength":563240,"uri":"SM_GrindStone.bin"}],"images":[{"name":"T_Woodprops_02_N","uri":"T_Woodprops_02_N.png"},{"name":"T_Woodprops_02_B","uri":"T_Woodprops_02_B.png"}],"materials":[{"alphaMode":"OPAQUE","doubleSided":false,"extras":{"fromFBX":{"isTruePBR":false,"shadingModel":"Phong"}},"name":"MI_Brush_02","normalTexture":{"index":0,"texCoord":0},"pbrMetallicRoughness":{"baseColorFactor":[1,1,1,1],"baseColorTexture":{"index":1,"texCoord":0},"metallicFactor":0.400000005960464,"roughnessFactor":0.301511347293854}},{"alphaMode":"OPAQUE","doubleSided":false,"extras":{"fromFBX":{"isTruePBR":false,"shadingModel":"Lambert"}},"name":"DefaultMaterial","pbrMetallicRoughness":{"baseColorFactor":[0.5,0.5,0.5,1],"metallicFactor":0.200000002980232,"roughnessFactor":0.800000011920929}}],"meshes":[{"name":"SM_GrindStone_LOD0","primitives":[{"attributes":{"NORMAL":3,"POSITION":2,"TANGENT":4,"TEXCOORD_0":5,"TEXCOORD_1":6},"indices":1,"material":0,"mode":4}]},{"name":"SM_GrindStone_LOD1","primitives":[{"attributes":{"NORMAL":9,"POSITION":8,"TANGENT":10,"TEXCOORD_0":11,"TEXCOORD_1":12},"indices":7,"material":0,"mode":4}]},{"name":"SM_GrindStone_LOD2","primitives":[{"attributes":{"NORMAL":15,"POSITION":14,"TANGENT":16,"TEXCOORD_0":17,"TEXCOORD_1":18},"indices":13,"material":0,"mode":4}]},{"name":"SM_GrindStone_LOD3","primitives":[{"attributes":{"NORMAL":21,"POSITION":20,"TANGENT":22,"TEXCOORD_0":23,"TEXCOORD_1":24},"indices":19,"material":0,"mode":4}]},{"name":"SM_GrindStone_ConvexHulls","primitives":[{"attributes":{"NORMAL":27,"POSITION":26,"TEXCOORD_0":28,"TEXCOORD_1":29},"indices":25,"material":1,"mode":4}]}],"nodes":[{"children":[1,2,3,4,5],"name":"SM_GrindStone_29","originalUnits":0.00999999977648258,"pivot":[0,0,0],"rotation":[0,0,0,1],"scale":[1,1,1],"translation":[0,0,0]},{"mesh":0,"name":"SM_GrindStone_LOD0","originalUnits":0.00999999977648258,"pivot":[0,0,0],"rotation":[0,0,0,1],"scale":[1,1,1],"translation":[0,0,0]},{"mesh":4,"name":"SM_GrindStone_ConvexHulls","originalUnits":0.00999999977648258,"pivot":[0,0,0],"rotation":[0,0,0,1],"scale":[1,1,1],"translation":[0,0,0]},{"mesh":1,"name":"SM_GrindStone_LOD1","originalUnits":0.00999999977648258,"pivot":[0,0,0],"rotation":[0,0,0,1],"scale":[1,1,1],"translation":[0,0,0]},{"mesh":2,"name":"SM_GrindStone_LOD2","originalUnits":0.00999999977648258,"pivot":[0,0,0],"rotation":[0,0,0,1],"scale":[1,1,1],"translation":[0,0,0]},{"mesh":3,"name":"SM_GrindStone_LOD3","originalUnits":0.00999999977648258,"pivot":[0,0,0],"rotation":[0,0,0,1],"scale":[1,1,1],"translation":[0,0,0]}],"samplers":[{}],"scene":0,"scenes":[{"name":"Root Scene","nodes":[0]}],"textures":[{"name":"MI_Brush_02","sampler":0,"source":0},{"name":"MI_Brush_02","sampler":0,"source":1}]}