{"accessors":[{"bufferView":0,"byteOffset":0,"componentType":5126,"count":1,"max":[0],"min":[0],"type":"SCALAR"},{"bufferView":1,"byteOffset":0,"componentType":5123,"count":1008,"type":"SCALAR"},{"bufferView":2,"byteOffset":0,"componentType":5126,"count":222,"max":[0.0336671471595764,0.362145304679871,0.118044927716255],"min":[-0.033667139709,-0.36214530467987,-0.11804492771625],"type":"VEC3"},{"bufferView":3,"byteOffset":0,"componentType":5126,"count":222,"type":"VEC3"},{"bufferView":4,"byteOffset":0,"componentType":5126,"count":222,"type":"VEC4"},{"bufferView":5,"byteOffset":0,"componentType":5126,"count":222,"type":"VEC2"},{"bufferView":6,"byteOffset":0,"componentType":5126,"count":222,"type":"VEC2"},{"bufferView":7,"byteOffset":0,"componentType":5123,"count":756,"type":"SCALAR"},{"bufferView":8,"byteOffset":0,"componentType":5126,"count":180,"max":[0.0336671471595764,0.361789613962173,0.123156972229481],"min":[-0.033667139709,-0.36214530467987,-0.11804492771625],"type":"VEC3"},{"bufferView":9,"byteOffset":0,"componentType":5126,"count":180,"type":"VEC3"},{"bufferView":10,"byteOffset":0,"componentType":5126,"count":180,"type":"VEC4"},{"bufferView":11,"byteOffset":0,"componentType":5126,"count":180,"type":"VEC2"},{"bufferView":12,"byteOffset":0,"componentType":5126,"count":180,"type":"VEC2"},{"bufferView":13,"byteOffset":0,"componentType":5123,"count":504,"type":"SCALAR"},{"bufferView":14,"byteOffset":0,"componentType":5126,"count":132,"max":[0.0343881398439407,0.361567616462708,0.124316439032555],"min":[-0.03449323028326,-0.36214530467987,-0.12293631583452],"type":"VEC3"},{"bufferView":15,"byteOffset":0,"componentType":5126,"count":132,"type":"VEC3"},{"bufferView":16,"byteOffset":0,"componentType":5126,"count":132,"type":"VEC4"},{"bufferView":17,"byteOffset":0,"componentType":5126,"count":132,"type":"VEC2"},{"bufferView":18,"byteOffset":0,"componentType":5126,"count":132,"type":"VEC2"},{"bufferView":19,"byteOffset":0,"componentType":5123,"count":126,"type":"SCALAR"},{"bufferView":20,"byteOffset":0,"componentType":5126,"count":48,"max":[0.0360311269760132,0.363137036561966,0.113655023276806],"min":[-0.03591394424438,-0.3634644150734,-0.11945130676031],"type":"VEC3"},{"bufferView":21,"byteOffset":0,"componentType":5126,"count":48,"type":"VEC3"},{"bufferView":22,"byteOffset":0,"componentType":5126,"count":48,"type":"VEC4"},{"bufferView":23,"byteOffset":0,"componentType":5126,"count":48,"type":"VEC2"},{"bufferView":24,"byteOffset":0,"componentType":5126,"count":48,"type":"VEC2"},{"bufferView":25,"byteOffset":0,"componentType":5123,"count":252,"type":"SCALAR"},{"bufferView":26,"byteOffset":0,"componentType":5126,"count":48,"max":[0.032860554754734,0.36114576458931,0.113802090287209],"min":[-0.03163832426071,-0.36397677659988,-0.11226338148117],"type":"VEC3"},{"bufferView":27,"byteOffset":0,"componentType":5126,"count":48,"type":"VEC3"},{"bufferView":28,"byteOffset":0,"componentType":5126,"count":48,"type":"VEC2"},{"bufferView":29,"byteOffset":0,"componentType":5126,"count":48,"type":"VEC2"}],"animations":[{"channels":[],"name":"Unreal Take","samplers":[]}],"asset":{"generator":"FBX2glTF v0.13.0","version":"2.0"},"bufferViews":[{"buffer":0,"byteLength":4,"byteOffset":0},{"buffer":0,"byteLength":2016,"byteOffset":4,"target":34963},{"buffer":0,"byteLength":2664,"byteOffset":2020,"target":34962},{"buffer":0,"byteLength":2664,"byteOffset":4684,"target":34962},{"buffer":0,"byteLength":3552,"byteOffset":7348,"target":34962},{"buffer":0,"byteLength":1776,"byteOffset":10900,"target":34962},{"buffer":0,"byteLength":1776,"byteOffset":12676,"target":34962},{"buffer":0,"byteLength":1512,"byteOffset":14452,"target":34963},{"buffer":0,"byteLength":2160,"byteOffset":15964,"target":34962},{"buffer":0,"byteLength":2160,"byteOffset":18124,"target":34962},{"buffer":0,"byteLength":2880,"byteOffset":20284,"target":34962},{"buffer":0,"byteLength":1440,"byteOffset":23164,"target":34962},{"buffer":0,"byteLength":1440,"byteOffset":24604,"target":34962},{"buffer":0,"byteLength":1008,"byteOffset":26044,"target":34963},{"buffer":0,"byteLength":1584,"byteOffset":27052,"target":34962},{"buffer":0,"byteLength":1584,"byteOffset":28636,"target":34962},{"buffer":0,"byteLength":2112,"byteOffset":30220,"target":34962},{"buffer":0,"byteLength":1056,"byteOffset":32332,"target":34962},{"buffer":0,"byteLength":1056,"byteOffset":33388,"target":34962},{"buffer":0,"byteLength":252,"byteOffset":34444,"target":34963},{"buffer":0,"byteLength":576,"byteOffset":34696,"target":34962},{"buffer":0,"byteLength":576,"byteOffset":35272,"target":34962},{"buffer":0,"byteLength":768,"byteOffset":35848,"target":34962},{"buffer":0,"byteLength":384,"byteOffset":36616,"target":34962},{"buffer":0,"byteLength":384,"byteOffset":37000,"target":34962},{"buffer":0,"byteLength":504,"byteOffset":37384,"target":34963},{"buffer":0,"byteLength":576,"byteOffset":37888,"target":34962},{"buffer":0,"byteLength":576,"byteOffset":38464,"target":34962},{"buffer":0,"byteLength":384,"byteOffset":39040,"target":34962},{"buffer":0,"byteLength":384,"byteOffset":39424,"target":34962}],"buffers":[{"byteLength":39808,"uri":"SM_Hammer_01.bin"}],"images":[{"name":"T_Tools_N","uri":"T_Tools_N.png"},{"name":"T_Tools_B","uri":"T_Tools_B.png"}],"materials":[{"alphaMode":"OPAQUE","doubleSided":false,"extras":{"fromFBX":{"isTruePBR":false,"shadingModel":"Phong"}},"name":"MI_Tools_02","normalTexture":{"index":0,"texCoord":0},"pbrMetallicRoughness":{"baseColorFactor":[1,1,1,1],"baseColorTexture":{"index":1,"texCoord":0},"metallicFactor":0.400000005960464,"roughnessFactor":0.301511347293854}},{"alphaMode":"OPAQUE","doubleSided":false,"extras":{"fromFBX":{"isTruePBR":false,"shadingModel":"Lambert"}},"name":"DefaultMaterial","pbrMetallicRoughness":{"baseColorFactor":[0.5,0.5,0.5,1],"metallicFactor":0.200000002980232,"roughnessFactor":0.800000011920929}}],"meshes":[{"name":"SM_Hammer_01_LOD0","primitives":[{"attributes":{"NORMAL":3,"POSITION":2,"TANGENT":4,"TEXCOORD_0":5,"TEXCOORD_1":6},"indices":1,"material":0,"mode":4}]},{"name":"SM_Hammer_01_LOD1","primitives":[{"attributes":{"NORMAL":9,"POSITION":8,"TANGENT":10,"TEXCOORD_0":11,"TEXCOORD_1":12},"indices":7,"material":0,"mode":4}]},{"name":"SM_Hammer_01_LOD2","primitives":[{"attributes":{"NORMAL":15,"POSITION":14,"TANGENT":16,"TEXCOORD_0":17,"TEXCOORD_1":18},"indices":13,"material":0,"mode":4}]},{"name":"SM_Hammer_01_LOD3","primitives":[{"attributes":{"NORMAL":21,"POSITION":20,"TANGENT":22,"TEXCOORD_0":23,"TEXCOORD_1":24},"indices":19,"material":0,"mode":4}]},{"name":"SM_Hammer_01_ConvexHulls","primitives":[{"attributes":{"NORMAL":27,"POSITION":26,"TEXCOORD_0":28,"TEXCOORD_1":29},"indices":25,"material":1,"mode":4}]}],"nodes":[{"children":[1,2,3,4,5],"name":"SM_Hammer_01_31","originalUnits":0.00999999977648258,"pivot":[0,0,0],"rotation":[0,0,0,1],"scale":[1,1,1],"translation":[0,0,0]},{"mesh":0,"name":"SM_Hammer_01_LOD0","originalUnits":0.00999999977648258,"pivot":[0,0,0],"rotation":[0,0,0,1],"scale":[1,1,1],"translation":[0,0,0]},{"mesh":4,"name":"SM_Hammer_01_ConvexHulls","originalUnits":0.00999999977648258,"pivot":[0,0,0],"rotation":[0,0,0,1],"scale":[1,1,1],"translation":[0,0,0]},{"mesh":1,"name":"SM_Hammer_01_LOD1","originalUnits":0.00999999977648258,"pivot":[0,0,0],"rotation":[0,0,0,1],"scale":[1,1,1],"translation":[0,0,0]},{"mesh":2,"name":"SM_Hammer_01_LOD2","originalUnits":0.00999999977648258,"pivot":[0,0,0],"rotation":[0,0,0,1],"scale":[1,1,1],"translation":[0,0,0]},{"mesh":3,"name":"SM_Hammer_01_LOD3","originalUnits":0.00999999977648258,"pivot":[0,0,0],"rotation":[0,0,0,1],"scale":[1,1,1],"translation":[0,0,0]}],"samplers":[{}],"scene":0,"scenes":[{"name":"Root Scene","nodes":[0]}],"textures":[{"name":"MI_Tools_02","sampler":0,"source":0},{"name":"MI_Tools_02","sampler":0,"source":1}]}