{"accessors":[{"bufferView":0,"byteOffset":0,"componentType":5126,"count":1,"max":[0],"min":[0],"type":"SCALAR"},{"bufferView":1,"byteOffset":0,"componentType":5123,"count":198534,"type":"SCALAR"},{"bufferView":2,"byteOffset":0,"componentType":5126,"count":38675,"max":[0.0365430675446987,0.523736298084259,0.553316533565521],"min":[-0.23103679716587,-2.00080704689026,-3.4384388923645],"type":"VEC3"},{"bufferView":3,"byteOffset":0,"componentType":5126,"count":38675,"type":"VEC3"},{"bufferView":4,"byteOffset":0,"componentType":5126,"count":38675,"type":"VEC4"},{"bufferView":5,"byteOffset":0,"componentType":5126,"count":38675,"type":"VEC2"},{"bufferView":6,"byteOffset":0,"componentType":5126,"count":38675,"type":"VEC2"},{"bufferView":7,"byteOffset":0,"componentType":5123,"count":148899,"type":"SCALAR"},{"bufferView":8,"byteOffset":0,"componentType":5126,"count":29126,"max":[0.0365430675446987,0.524462819099426,0.552805364131927],"min":[-0.23103718459606,-2.00134873390198,-3.43894147872925],"type":"VEC3"},{"bufferView":9,"byteOffset":0,"componentType":5126,"count":29126,"type":"VEC3"},{"bufferView":10,"byteOffset":0,"componentType":5126,"count":29126,"type":"VEC4"},{"bufferView":11,"byteOffset":0,"componentType":5126,"count":29126,"type":"VEC2"},{"bufferView":12,"byteOffset":0,"componentType":5126,"count":29126,"type":"VEC2"},{"bufferView":13,"byteOffset":0,"componentType":5123,"count":99267,"type":"SCALAR"},{"bufferView":14,"byteOffset":0,"componentType":5126,"count":20334,"max":[0.0365430675446987,0.524462819099426,0.55322003364563],"min":[-0.23103718459606,-2.00098347663879,-3.43857192993164],"type":"VEC3"},{"bufferView":15,"byteOffset":0,"componentType":5126,"count":20334,"type":"VEC3"},{"bufferView":16,"byteOffset":0,"componentType":5126,"count":20334,"type":"VEC4"},{"bufferView":17,"byteOffset":0,"componentType":5126,"count":20334,"type":"VEC2"},{"bufferView":18,"byteOffset":0,"componentType":5126,"count":20334,"type":"VEC2"},{"bufferView":19,"byteOffset":0,"componentType":5123,"count":24816,"type":"SCALAR"},{"bufferView":20,"byteOffset":0,"componentType":5126,"count":6211,"max":[0.0368400029838085,0.524337887763977,0.55570787191391],"min":[-0.23133663833141,-2.01111555099487,-3.4421226978302],"type":"VEC3"},{"bufferView":21,"byteOffset":0,"componentType":5126,"count":6211,"type":"VEC3"},{"bufferView":22,"byteOffset":0,"componentType":5126,"count":6211,"type":"VEC4"},{"bufferView":23,"byteOffset":0,"componentType":5126,"count":6211,"type":"VEC2"},{"bufferView":24,"byteOffset":0,"componentType":5126,"count":6211,"type":"VEC2"},{"bufferView":25,"byteOffset":0,"componentType":5123,"count":606,"type":"SCALAR"},{"bufferView":26,"byteOffset":0,"componentType":5126,"count":147,"max":[0.0423143170773983,0.526201486587524,0.555179297924042],"min":[-0.238610714674,-1.91156411170959,-3.3699939250946],"type":"VEC3"},{"bufferView":27,"byteOffset":0,"componentType":5126,"count":147,"type":"VEC3"},{"bufferView":28,"byteOffset":0,"componentType":5126,"count":147,"type":"VEC2"},{"bufferView":29,"byteOffset":0,"componentType":5126,"count":147,"type":"VEC2"}],"animations":[{"channels":[],"name":"Unreal Take","samplers":[]}],"asset":{"generator":"FBX2glTF v0.13.0","version":"2.0"},"bufferViews":[{"buffer":0,"byteLength":4,"byteOffset":0},{"buffer":0,"byteLength":397068,"byteOffset":4,"target":34963},{"buffer":0,"byteLength":464100,"byteOffset":397072,"target":34962},{"buffer":0,"byteLength":464100,"byteOffset":861172,"target":34962},{"buffer":0,"byteLength":618800,"byteOffset":1325272,"target":34962},{"buffer":0,"byteLength":309400,"byteOffset":1944072,"target":34962},{"buffer":0,"byteLength":309400,"byteOffset":2253472,"target":34962},{"buffer":0,"byteLength":297798,"byteOffset":2562872,"target":34963},{"buffer":0,"byteLength":349512,"byteOffset":2860672,"target":34962},{"buffer":0,"byteLength":349512,"byteOffset":3210184,"target":34962},{"buffer":0,"byteLength":466016,"byteOffset":3559696,"target":34962},{"buffer":0,"byteLength":233008,"byteOffset":4025712,"target":34962},{"buffer":0,"byteLength":233008,"byteOffset":4258720,"target":34962},{"buffer":0,"byteLength":198534,"byteOffset":4491728,"target":34963},{"buffer":0,"byteLength":244008,"byteOffset":4690264,"target":34962},{"buffer":0,"byteLength":244008,"byteOffset":4934272,"target":34962},{"buffer":0,"byteLength":325344,"byteOffset":5178280,"target":34962},{"buffer":0,"byteLength":162672,"byteOffset":5503624,"target":34962},{"buffer":0,"byteLength":162672,"byteOffset":5666296,"target":34962},{"buffer":0,"byteLength":49632,"byteOffset":5828968,"target":34963},{"buffer":0,"byteLength":74532,"byteOffset":5878600,"target":34962},{"buffer":0,"byteLength":74532,"byteOffset":5953132,"target":34962},{"buffer":0,"byteLength":99376,"byteOffset":6027664,"target":34962},{"buffer":0,"byteLength":49688,"byteOffset":6127040,"target":34962},{"buffer":0,"byteLength":49688,"byteOffset":6176728,"target":34962},{"buffer":0,"byteLength":1212,"byteOffset":6226416,"target":34963},{"buffer":0,"byteLength":1764,"byteOffset":6227628,"target":34962},{"buffer":0,"byteLength":1764,"byteOffset":6229392,"target":34962},{"buffer":0,"byteLength":1176,"byteOffset":6231156,"target":34962},{"buffer":0,"byteLength":1176,"byteOffset":6232332,"target":34962}],"buffers":[{"byteLength":6233508,"uri":"SM_Hook_Mech.bin"}],"images":[{"name":"T_Metal_N","uri":"T_Metal_N.png"},{"name":"T_Metal_B","uri":"T_Metal_B.png"}],"materials":[{"alphaMode":"OPAQUE","doubleSided":false,"extras":{"fromFBX":{"isTruePBR":false,"shadingModel":"Phong"}},"name":"MI_Hook","normalTexture":{"index":0,"texCoord":0},"pbrMetallicRoughness":{"baseColorFactor":[1,1,1,1],"baseColorTexture":{"index":1,"texCoord":0},"metallicFactor":0.400000005960464,"roughnessFactor":0.301511347293854}},{"alphaMode":"OPAQUE","doubleSided":false,"extras":{"fromFBX":{"isTruePBR":false,"shadingModel":"Lambert"}},"name":"DefaultMaterial","pbrMetallicRoughness":{"baseColorFactor":[0.5,0.5,0.5,1],"metallicFactor":0.200000002980232,"roughnessFactor":0.800000011920929}}],"meshes":[{"name":"SM_Hook_Mech_LOD0","primitives":[{"attributes":{"NORMAL":3,"POSITION":2,"TANGENT":4,"TEXCOORD_0":5,"TEXCOORD_1":6},"indices":1,"material":0,"mode":4}]},{"name":"SM_Hook_Mech_LOD1","primitives":[{"attributes":{"NORMAL":9,"POSITION":8,"TANGENT":10,"TEXCOORD_0":11,"TEXCOORD_1":12},"indices":7,"material":0,"mode":4}]},{"name":"SM_Hook_Mech_LOD2","primitives":[{"attributes":{"NORMAL":15,"POSITION":14,"TANGENT":16,"TEXCOORD_0":17,"TEXCOORD_1":18},"indices":13,"material":0,"mode":4}]},{"name":"SM_Hook_Mech_LOD3","primitives":[{"attributes":{"NORMAL":21,"POSITION":20,"TANGENT":22,"TEXCOORD_0":23,"TEXCOORD_1":24},"indices":19,"material":0,"mode":4}]},{"name":"SM_Hook_Mech_ConvexHulls","primitives":[{"attributes":{"NORMAL":27,"POSITION":26,"TEXCOORD_0":28,"TEXCOORD_1":29},"indices":25,"material":1,"mode":4}]}],"nodes":[{"children":[1,2,3,4,5],"name":"SM_Hook_Mech_38","originalUnits":0.00999999977648258,"pivot":[0,0,0],"rotation":[0,0,0,1],"scale":[1,1,1],"translation":[0,0,0]},{"mesh":0,"name":"SM_Hook_Mech_LOD0","originalUnits":0.00999999977648258,"pivot":[0,0,0],"rotation":[0,0,0,1],"scale":[1,1,1],"translation":[0,0,0]},{"mesh":4,"name":"SM_Hook_Mech_ConvexHulls","originalUnits":0.00999999977648258,"pivot":[0,0,0],"rotation":[0,0,0,1],"scale":[1,1,1],"translation":[0,0,0]},{"mesh":1,"name":"SM_Hook_Mech_LOD1","originalUnits":0.00999999977648258,"pivot":[0,0,0],"rotation":[0,0,0,1],"scale":[1,1,1],"translation":[0,0,0]},{"mesh":2,"name":"SM_Hook_Mech_LOD2","originalUnits":0.00999999977648258,"pivot":[0,0,0],"rotation":[0,0,0,1],"scale":[1,1,1],"translation":[0,0,0]},{"mesh":3,"name":"SM_Hook_Mech_LOD3","originalUnits":0.00999999977648258,"pivot":[0,0,0],"rotation":[0,0,0,1],"scale":[1,1,1],"translation":[0,0,0]}],"samplers":[{}],"scene":0,"scenes":[{"name":"Root Scene","nodes":[0]}],"textures":[{"name":"MI_Hook","sampler":0,"source":0},{"name":"MI_Hook","sampler":0,"source":1}]}