{"accessors":[{"bufferView":0,"byteOffset":0,"componentType":5126,"count":1,"max":[0],"min":[0],"type":"SCALAR"},{"bufferView":1,"byteOffset":0,"componentType":5123,"count":852,"type":"SCALAR"},{"bufferView":2,"byteOffset":0,"componentType":5126,"count":192,"max":[0.0211248807609081,0.189250439405441,0.0618107579648495],"min":[-0.02112487517297,-0.18925043940544,-0.06181075796485],"type":"VEC3"},{"bufferView":3,"byteOffset":0,"componentType":5126,"count":192,"type":"VEC3"},{"bufferView":4,"byteOffset":0,"componentType":5126,"count":192,"type":"VEC4"},{"bufferView":5,"byteOffset":0,"componentType":5126,"count":192,"type":"VEC2"},{"bufferView":6,"byteOffset":0,"componentType":5126,"count":192,"type":"VEC2"},{"bufferView":7,"byteOffset":0,"componentType":5123,"count":636,"type":"SCALAR"},{"bufferView":8,"byteOffset":0,"componentType":5126,"count":150,"max":[0.0211248807609081,0.189250439405441,0.0618107579648495],"min":[-0.02112487517297,-0.18940185010433,-0.06181075796485],"type":"VEC3"},{"bufferView":9,"byteOffset":0,"componentType":5126,"count":150,"type":"VEC3"},{"bufferView":10,"byteOffset":0,"componentType":5126,"count":150,"type":"VEC4"},{"bufferView":11,"byteOffset":0,"componentType":5126,"count":150,"type":"VEC2"},{"bufferView":12,"byteOffset":0,"componentType":5126,"count":150,"type":"VEC2"},{"bufferView":13,"byteOffset":0,"componentType":5123,"count":423,"type":"SCALAR"},{"bufferView":14,"byteOffset":0,"componentType":5126,"count":109,"max":[0.0211248807609081,0.189250439405441,0.064567469060421],"min":[-0.02123533003032,-0.19036170840263,-0.06298811733723],"type":"VEC3"},{"bufferView":15,"byteOffset":0,"componentType":5126,"count":109,"type":"VEC3"},{"bufferView":16,"byteOffset":0,"componentType":5126,"count":109,"type":"VEC4"},{"bufferView":17,"byteOffset":0,"componentType":5126,"count":109,"type":"VEC2"},{"bufferView":18,"byteOffset":0,"componentType":5126,"count":109,"type":"VEC2"},{"bufferView":19,"byteOffset":0,"componentType":5123,"count":108,"type":"SCALAR"},{"bufferView":20,"byteOffset":0,"componentType":5126,"count":42,"max":[0.0234851520508528,0.19069629907608,0.0627392306923866],"min":[-0.02093335427344,-0.19108733534813,-0.06175183132291],"type":"VEC3"},{"bufferView":21,"byteOffset":0,"componentType":5126,"count":42,"type":"VEC3"},{"bufferView":22,"byteOffset":0,"componentType":5126,"count":42,"type":"VEC4"},{"bufferView":23,"byteOffset":0,"componentType":5126,"count":42,"type":"VEC2"},{"bufferView":24,"byteOffset":0,"componentType":5126,"count":42,"type":"VEC2"},{"bufferView":25,"byteOffset":0,"componentType":5123,"count":168,"type":"SCALAR"},{"bufferView":26,"byteOffset":0,"componentType":5126,"count":32,"max":[0.020411629229784,0.188547432422638,0.0601034760475159],"min":[-0.02108361385763,-0.18473590910435,-0.05865060165524],"type":"VEC3"},{"bufferView":27,"byteOffset":0,"componentType":5126,"count":32,"type":"VEC3"},{"bufferView":28,"byteOffset":0,"componentType":5126,"count":32,"type":"VEC2"},{"bufferView":29,"byteOffset":0,"componentType":5126,"count":32,"type":"VEC2"}],"animations":[{"channels":[],"name":"Unreal Take","samplers":[]}],"asset":{"generator":"FBX2glTF v0.13.0","version":"2.0"},"bufferViews":[{"buffer":0,"byteLength":4,"byteOffset":0},{"buffer":0,"byteLength":1704,"byteOffset":4,"target":34963},{"buffer":0,"byteLength":2304,"byteOffset":1708,"target":34962},{"buffer":0,"byteLength":2304,"byteOffset":4012,"target":34962},{"buffer":0,"byteLength":3072,"byteOffset":6316,"target":34962},{"buffer":0,"byteLength":1536,"byteOffset":9388,"target":34962},{"buffer":0,"byteLength":1536,"byteOffset":10924,"target":34962},{"buffer":0,"byteLength":1272,"byteOffset":12460,"target":34963},{"buffer":0,"byteLength":1800,"byteOffset":13732,"target":34962},{"buffer":0,"byteLength":1800,"byteOffset":15532,"target":34962},{"buffer":0,"byteLength":2400,"byteOffset":17332,"target":34962},{"buffer":0,"byteLength":1200,"byteOffset":19732,"target":34962},{"buffer":0,"byteLength":1200,"byteOffset":20932,"target":34962},{"buffer":0,"byteLength":846,"byteOffset":22132,"target":34963},{"buffer":0,"byteLength":1308,"byteOffset":22980,"target":34962},{"buffer":0,"byteLength":1308,"byteOffset":24288,"target":34962},{"buffer":0,"byteLength":1744,"byteOffset":25596,"target":34962},{"buffer":0,"byteLength":872,"byteOffset":27340,"target":34962},{"buffer":0,"byteLength":872,"byteOffset":28212,"target":34962},{"buffer":0,"byteLength":216,"byteOffset":29084,"target":34963},{"buffer":0,"byteLength":504,"byteOffset":29300,"target":34962},{"buffer":0,"byteLength":504,"byteOffset":29804,"target":34962},{"buffer":0,"byteLength":672,"byteOffset":30308,"target":34962},{"buffer":0,"byteLength":336,"byteOffset":30980,"target":34962},{"buffer":0,"byteLength":336,"byteOffset":31316,"target":34962},{"buffer":0,"byteLength":336,"byteOffset":31652,"target":34963},{"buffer":0,"byteLength":384,"byteOffset":31988,"target":34962},{"buffer":0,"byteLength":384,"byteOffset":32372,"target":34962},{"buffer":0,"byteLength":256,"byteOffset":32756,"target":34962},{"buffer":0,"byteLength":256,"byteOffset":33012,"target":34962}],"buffers":[{"byteLength":33268,"uri":"SM_Hammer_03.bin"}],"images":[{"name":"T_Tools_N","uri":"T_Tools_N.png"},{"name":"T_Tools_B","uri":"T_Tools_B.png"}],"materials":[{"alphaMode":"OPAQUE","doubleSided":false,"extras":{"fromFBX":{"isTruePBR":false,"shadingModel":"Phong"}},"name":"MI_Tools_02","normalTexture":{"index":0,"texCoord":0},"pbrMetallicRoughness":{"baseColorFactor":[1,1,1,1],"baseColorTexture":{"index":1,"texCoord":0},"metallicFactor":0.400000005960464,"roughnessFactor":0.301511347293854}},{"alphaMode":"OPAQUE","doubleSided":false,"extras":{"fromFBX":{"isTruePBR":false,"shadingModel":"Lambert"}},"name":"DefaultMaterial","pbrMetallicRoughness":{"baseColorFactor":[0.5,0.5,0.5,1],"metallicFactor":0.200000002980232,"roughnessFactor":0.800000011920929}}],"meshes":[{"name":"SM_Hammer_03_LOD0","primitives":[{"attributes":{"NORMAL":3,"POSITION":2,"TANGENT":4,"TEXCOORD_0":5,"TEXCOORD_1":6},"indices":1,"material":0,"mode":4}]},{"name":"SM_Hammer_03_LOD1","primitives":[{"attributes":{"NORMAL":9,"POSITION":8,"TANGENT":10,"TEXCOORD_0":11,"TEXCOORD_1":12},"indices":7,"material":0,"mode":4}]},{"name":"SM_Hammer_03_LOD2","primitives":[{"attributes":{"NORMAL":15,"POSITION":14,"TANGENT":16,"TEXCOORD_0":17,"TEXCOORD_1":18},"indices":13,"material":0,"mode":4}]},{"name":"SM_Hammer_03_LOD3","primitives":[{"attributes":{"NORMAL":21,"POSITION":20,"TANGENT":22,"TEXCOORD_0":23,"TEXCOORD_1":24},"indices":19,"material":0,"mode":4}]},{"name":"SM_Hammer_03_ConvexHulls","primitives":[{"attributes":{"NORMAL":27,"POSITION":26,"TEXCOORD_0":28,"TEXCOORD_1":29},"indices":25,"material":1,"mode":4}]}],"nodes":[{"children":[1,2,3,4,5],"name":"SM_Hammer_33","originalUnits":0.00999999977648258,"pivot":[0,0,0],"rotation":[0,0,0,1],"scale":[1,1,1],"translation":[0,0,0]},{"mesh":0,"name":"SM_Hammer_03_LOD0","originalUnits":0.00999999977648258,"pivot":[0,0,0],"rotation":[0,0,0,1],"scale":[1,1,1],"translation":[0,0,0]},{"mesh":4,"name":"SM_Hammer_03_ConvexHulls","originalUnits":0.00999999977648258,"pivot":[0,0,0],"rotation":[0,0,0,1],"scale":[1,1,1],"translation":[0,0,0]},{"mesh":1,"name":"SM_Hammer_03_LOD1","originalUnits":0.00999999977648258,"pivot":[0,0,0],"rotation":[0,0,0,1],"scale":[1,1,1],"translation":[0,0,0]},{"mesh":2,"name":"SM_Hammer_03_LOD2","originalUnits":0.00999999977648258,"pivot":[0,0,0],"rotation":[0,0,0,1],"scale":[1,1,1],"translation":[0,0,0]},{"mesh":3,"name":"SM_Hammer_03_LOD3","originalUnits":0.00999999977648258,"pivot":[0,0,0],"rotation":[0,0,0,1],"scale":[1,1,1],"translation":[0,0,0]}],"samplers":[{}],"scene":0,"scenes":[{"name":"Root Scene","nodes":[0]}],"textures":[{"name":"MI_Tools_02","sampler":0,"source":0},{"name":"MI_Tools_02","sampler":0,"source":1}]}