{"accessors":[{"bufferView":0,"byteOffset":0,"componentType":5126,"count":1,"max":[0],"min":[0],"type":"SCALAR"},{"bufferView":1,"byteOffset":0,"componentType":5123,"count":648,"type":"SCALAR"},{"bufferView":2,"byteOffset":0,"componentType":5126,"count":152,"max":[0.0157937612384558,0.107384622097015,0.0783468633890152],"min":[-0.0157937631011,-0.10738462209702,-0.07834686338902],"type":"VEC3"},{"bufferView":3,"byteOffset":0,"componentType":5126,"count":152,"type":"VEC3"},{"bufferView":4,"byteOffset":0,"componentType":5126,"count":152,"type":"VEC4"},{"bufferView":5,"byteOffset":0,"componentType":5126,"count":152,"type":"VEC2"},{"bufferView":6,"byteOffset":0,"componentType":5126,"count":152,"type":"VEC2"},{"bufferView":7,"byteOffset":0,"componentType":5123,"count":486,"type":"SCALAR"},{"bufferView":8,"byteOffset":0,"componentType":5126,"count":123,"max":[0.0149427270516753,0.107384622097015,0.0783468633890152],"min":[-0.01615281589329,-0.10738458484411,-0.07834686338902],"type":"VEC3"},{"bufferView":9,"byteOffset":0,"componentType":5126,"count":123,"type":"VEC3"},{"bufferView":10,"byteOffset":0,"componentType":5126,"count":123,"type":"VEC4"},{"bufferView":11,"byteOffset":0,"componentType":5126,"count":123,"type":"VEC2"},{"bufferView":12,"byteOffset":0,"componentType":5126,"count":123,"type":"VEC2"},{"bufferView":13,"byteOffset":0,"componentType":5123,"count":324,"type":"SCALAR"},{"bufferView":14,"byteOffset":0,"componentType":5126,"count":91,"max":[0.0149427270516753,0.107660330832005,0.0794006362557411],"min":[-0.01556655857712,-0.10738458484411,-0.07889302819967],"type":"VEC3"},{"bufferView":15,"byteOffset":0,"componentType":5126,"count":91,"type":"VEC3"},{"bufferView":16,"byteOffset":0,"componentType":5126,"count":91,"type":"VEC4"},{"bufferView":17,"byteOffset":0,"componentType":5126,"count":91,"type":"VEC2"},{"bufferView":18,"byteOffset":0,"componentType":5126,"count":91,"type":"VEC2"},{"bufferView":19,"byteOffset":0,"componentType":5123,"count":78,"type":"SCALAR"},{"bufferView":20,"byteOffset":0,"componentType":5126,"count":38,"max":[0.0168226268142462,0.109553046524525,0.0831543132662773],"min":[-0.01751296967268,-0.1137608140707,-0.07966804504395],"type":"VEC3"},{"bufferView":21,"byteOffset":0,"componentType":5126,"count":38,"type":"VEC3"},{"bufferView":22,"byteOffset":0,"componentType":5126,"count":38,"type":"VEC4"},{"bufferView":23,"byteOffset":0,"componentType":5126,"count":38,"type":"VEC2"},{"bufferView":24,"byteOffset":0,"componentType":5126,"count":38,"type":"VEC2"},{"bufferView":25,"byteOffset":0,"componentType":5123,"count":168,"type":"SCALAR"},{"bufferView":26,"byteOffset":0,"componentType":5126,"count":32,"max":[0.0149864600971341,0.107380464673042,0.0785470530390739],"min":[-0.01451119873673,-0.10367118567228,-0.07559327036142],"type":"VEC3"},{"bufferView":27,"byteOffset":0,"componentType":5126,"count":32,"type":"VEC3"},{"bufferView":28,"byteOffset":0,"componentType":5126,"count":32,"type":"VEC2"},{"bufferView":29,"byteOffset":0,"componentType":5126,"count":32,"type":"VEC2"}],"animations":[{"channels":[],"name":"Unreal Take","samplers":[]}],"asset":{"generator":"FBX2glTF v0.13.0","version":"2.0"},"bufferViews":[{"buffer":0,"byteLength":4,"byteOffset":0},{"buffer":0,"byteLength":1296,"byteOffset":4,"target":34963},{"buffer":0,"byteLength":1824,"byteOffset":1300,"target":34962},{"buffer":0,"byteLength":1824,"byteOffset":3124,"target":34962},{"buffer":0,"byteLength":2432,"byteOffset":4948,"target":34962},{"buffer":0,"byteLength":1216,"byteOffset":7380,"target":34962},{"buffer":0,"byteLength":1216,"byteOffset":8596,"target":34962},{"buffer":0,"byteLength":972,"byteOffset":9812,"target":34963},{"buffer":0,"byteLength":1476,"byteOffset":10784,"target":34962},{"buffer":0,"byteLength":1476,"byteOffset":12260,"target":34962},{"buffer":0,"byteLength":1968,"byteOffset":13736,"target":34962},{"buffer":0,"byteLength":984,"byteOffset":15704,"target":34962},{"buffer":0,"byteLength":984,"byteOffset":16688,"target":34962},{"buffer":0,"byteLength":648,"byteOffset":17672,"target":34963},{"buffer":0,"byteLength":1092,"byteOffset":18320,"target":34962},{"buffer":0,"byteLength":1092,"byteOffset":19412,"target":34962},{"buffer":0,"byteLength":1456,"byteOffset":20504,"target":34962},{"buffer":0,"byteLength":728,"byteOffset":21960,"target":34962},{"buffer":0,"byteLength":728,"byteOffset":22688,"target":34962},{"buffer":0,"byteLength":156,"byteOffset":23416,"target":34963},{"buffer":0,"byteLength":456,"byteOffset":23572,"target":34962},{"buffer":0,"byteLength":456,"byteOffset":24028,"target":34962},{"buffer":0,"byteLength":608,"byteOffset":24484,"target":34962},{"buffer":0,"byteLength":304,"byteOffset":25092,"target":34962},{"buffer":0,"byteLength":304,"byteOffset":25396,"target":34962},{"buffer":0,"byteLength":336,"byteOffset":25700,"target":34963},{"buffer":0,"byteLength":384,"byteOffset":26036,"target":34962},{"buffer":0,"byteLength":384,"byteOffset":26420,"target":34962},{"buffer":0,"byteLength":256,"byteOffset":26804,"target":34962},{"buffer":0,"byteLength":256,"byteOffset":27060,"target":34962}],"buffers":[{"byteLength":27316,"uri":"SM_Hammer_04.bin"}],"images":[{"name":"T_Tools_N","uri":"T_Tools_N.png"},{"name":"T_Tools_B","uri":"T_Tools_B.png"}],"materials":[{"alphaMode":"OPAQUE","doubleSided":false,"extras":{"fromFBX":{"isTruePBR":false,"shadingModel":"Phong"}},"name":"MI_Tools_02","normalTexture":{"index":0,"texCoord":0},"pbrMetallicRoughness":{"baseColorFactor":[1,1,1,1],"baseColorTexture":{"index":1,"texCoord":0},"metallicFactor":0.400000005960464,"roughnessFactor":0.301511347293854}},{"alphaMode":"OPAQUE","doubleSided":false,"extras":{"fromFBX":{"isTruePBR":false,"shadingModel":"Lambert"}},"name":"DefaultMaterial","pbrMetallicRoughness":{"baseColorFactor":[0.5,0.5,0.5,1],"metallicFactor":0.200000002980232,"roughnessFactor":0.800000011920929}}],"meshes":[{"name":"SM_Hammer_04_LOD0","primitives":[{"attributes":{"NORMAL":3,"POSITION":2,"TANGENT":4,"TEXCOORD_0":5,"TEXCOORD_1":6},"indices":1,"material":0,"mode":4}]},{"name":"SM_Hammer_04_LOD1","primitives":[{"attributes":{"NORMAL":9,"POSITION":8,"TANGENT":10,"TEXCOORD_0":11,"TEXCOORD_1":12},"indices":7,"material":0,"mode":4}]},{"name":"SM_Hammer_04_LOD2","primitives":[{"attributes":{"NORMAL":15,"POSITION":14,"TANGENT":16,"TEXCOORD_0":17,"TEXCOORD_1":18},"indices":13,"material":0,"mode":4}]},{"name":"SM_Hammer_04_LOD3","primitives":[{"attributes":{"NORMAL":21,"POSITION":20,"TANGENT":22,"TEXCOORD_0":23,"TEXCOORD_1":24},"indices":19,"material":0,"mode":4}]},{"name":"SM_Hammer_04_ConvexHulls","primitives":[{"attributes":{"NORMAL":27,"POSITION":26,"TEXCOORD_0":28,"TEXCOORD_1":29},"indices":25,"material":1,"mode":4}]}],"nodes":[{"children":[1,2,3,4,5],"name":"SM_Hammer_34","originalUnits":0.00999999977648258,"pivot":[0,0,0],"rotation":[0,0,0,1],"scale":[1,1,1],"translation":[0,0,0]},{"mesh":0,"name":"SM_Hammer_04_LOD0","originalUnits":0.00999999977648258,"pivot":[0,0,0],"rotation":[0,0,0,1],"scale":[1,1,1],"translation":[0,0,0]},{"mesh":4,"name":"SM_Hammer_04_ConvexHulls","originalUnits":0.00999999977648258,"pivot":[0,0,0],"rotation":[0,0,0,1],"scale":[1,1,1],"translation":[0,0,0]},{"mesh":1,"name":"SM_Hammer_04_LOD1","originalUnits":0.00999999977648258,"pivot":[0,0,0],"rotation":[0,0,0,1],"scale":[1,1,1],"translation":[0,0,0]},{"mesh":2,"name":"SM_Hammer_04_LOD2","originalUnits":0.00999999977648258,"pivot":[0,0,0],"rotation":[0,0,0,1],"scale":[1,1,1],"translation":[0,0,0]},{"mesh":3,"name":"SM_Hammer_04_LOD3","originalUnits":0.00999999977648258,"pivot":[0,0,0],"rotation":[0,0,0,1],"scale":[1,1,1],"translation":[0,0,0]}],"samplers":[{}],"scene":0,"scenes":[{"name":"Root Scene","nodes":[0]}],"textures":[{"name":"MI_Tools_02","sampler":0,"source":0},{"name":"MI_Tools_02","sampler":0,"source":1}]}