{"accessors":[{"bufferView":0,"byteOffset":0,"componentType":5126,"count":1,"max":[0],"min":[0],"type":"SCALAR"},{"bufferView":1,"byteOffset":0,"componentType":5123,"count":1716,"type":"SCALAR"},{"bufferView":2,"byteOffset":0,"componentType":5126,"count":374,"max":[0.0268125925213099,0.18106085062027,0.0534378811717033],"min":[-0.02681258879602,-0.18106085062027,-0.0534378811717],"type":"VEC3"},{"bufferView":3,"byteOffset":0,"componentType":5126,"count":374,"type":"VEC3"},{"bufferView":4,"byteOffset":0,"componentType":5126,"count":374,"type":"VEC4"},{"bufferView":5,"byteOffset":0,"componentType":5126,"count":374,"type":"VEC2"},{"bufferView":6,"byteOffset":0,"componentType":5126,"count":374,"type":"VEC2"},{"bufferView":7,"byteOffset":0,"componentType":5123,"count":1284,"type":"SCALAR"},{"bufferView":8,"byteOffset":0,"componentType":5126,"count":293,"max":[0.0268125925213099,0.18106085062027,0.053508322685957],"min":[-0.02681258879602,-0.18110944330692,-0.05358805879951],"type":"VEC3"},{"bufferView":9,"byteOffset":0,"componentType":5126,"count":293,"type":"VEC3"},{"bufferView":10,"byteOffset":0,"componentType":5126,"count":293,"type":"VEC4"},{"bufferView":11,"byteOffset":0,"componentType":5126,"count":293,"type":"VEC2"},{"bufferView":12,"byteOffset":0,"componentType":5126,"count":293,"type":"VEC2"},{"bufferView":13,"byteOffset":0,"componentType":5123,"count":858,"type":"SCALAR"},{"bufferView":14,"byteOffset":0,"componentType":5126,"count":213,"max":[0.0268125925213099,0.18106085062027,0.05376261100173],"min":[-0.02681258879602,-0.18153375387192,-0.05409716442227],"type":"VEC3"},{"bufferView":15,"byteOffset":0,"componentType":5126,"count":213,"type":"VEC3"},{"bufferView":16,"byteOffset":0,"componentType":5126,"count":213,"type":"VEC4"},{"bufferView":17,"byteOffset":0,"componentType":5126,"count":213,"type":"VEC2"},{"bufferView":18,"byteOffset":0,"componentType":5126,"count":213,"type":"VEC2"},{"bufferView":19,"byteOffset":0,"componentType":5123,"count":213,"type":"SCALAR"},{"bufferView":20,"byteOffset":0,"componentType":5126,"count":79,"max":[0.0262314677238464,0.180823430418968,0.05376261100173],"min":[-0.03328145295382,-0.18138580024242,-0.05312178656459],"type":"VEC3"},{"bufferView":21,"byteOffset":0,"componentType":5126,"count":79,"type":"VEC3"},{"bufferView":22,"byteOffset":0,"componentType":5126,"count":79,"type":"VEC4"},{"bufferView":23,"byteOffset":0,"componentType":5126,"count":79,"type":"VEC2"},{"bufferView":24,"byteOffset":0,"componentType":5126,"count":79,"type":"VEC2"},{"bufferView":25,"byteOffset":0,"componentType":5123,"count":336,"type":"SCALAR"},{"bufferView":26,"byteOffset":0,"componentType":5126,"count":64,"max":[0.0253448951989412,0.179130300879478,0.0515206307172775],"min":[-0.02651490829885,-0.17921178042889,-0.0534378811717],"type":"VEC3"},{"bufferView":27,"byteOffset":0,"componentType":5126,"count":64,"type":"VEC3"},{"bufferView":28,"byteOffset":0,"componentType":5126,"count":64,"type":"VEC2"},{"bufferView":29,"byteOffset":0,"componentType":5126,"count":64,"type":"VEC2"}],"animations":[{"channels":[],"name":"Unreal Take","samplers":[]}],"asset":{"generator":"FBX2glTF v0.13.0","version":"2.0"},"bufferViews":[{"buffer":0,"byteLength":4,"byteOffset":0},{"buffer":0,"byteLength":3432,"byteOffset":4,"target":34963},{"buffer":0,"byteLength":4488,"byteOffset":3436,"target":34962},{"buffer":0,"byteLength":4488,"byteOffset":7924,"target":34962},{"buffer":0,"byteLength":5984,"byteOffset":12412,"target":34962},{"buffer":0,"byteLength":2992,"byteOffset":18396,"target":34962},{"buffer":0,"byteLength":2992,"byteOffset":21388,"target":34962},{"buffer":0,"byteLength":2568,"byteOffset":24380,"target":34963},{"buffer":0,"byteLength":3516,"byteOffset":26948,"target":34962},{"buffer":0,"byteLength":3516,"byteOffset":30464,"target":34962},{"buffer":0,"byteLength":4688,"byteOffset":33980,"target":34962},{"buffer":0,"byteLength":2344,"byteOffset":38668,"target":34962},{"buffer":0,"byteLength":2344,"byteOffset":41012,"target":34962},{"buffer":0,"byteLength":1716,"byteOffset":43356,"target":34963},{"buffer":0,"byteLength":2556,"byteOffset":45072,"target":34962},{"buffer":0,"byteLength":2556,"byteOffset":47628,"target":34962},{"buffer":0,"byteLength":3408,"byteOffset":50184,"target":34962},{"buffer":0,"byteLength":1704,"byteOffset":53592,"target":34962},{"buffer":0,"byteLength":1704,"byteOffset":55296,"target":34962},{"buffer":0,"byteLength":426,"byteOffset":57000,"target":34963},{"buffer":0,"byteLength":948,"byteOffset":57428,"target":34962},{"buffer":0,"byteLength":948,"byteOffset":58376,"target":34962},{"buffer":0,"byteLength":1264,"byteOffset":59324,"target":34962},{"buffer":0,"byteLength":632,"byteOffset":60588,"target":34962},{"buffer":0,"byteLength":632,"byteOffset":61220,"target":34962},{"buffer":0,"byteLength":672,"byteOffset":61852,"target":34963},{"buffer":0,"byteLength":768,"byteOffset":62524,"target":34962},{"buffer":0,"byteLength":768,"byteOffset":63292,"target":34962},{"buffer":0,"byteLength":512,"byteOffset":64060,"target":34962},{"buffer":0,"byteLength":512,"byteOffset":64572,"target":34962}],"buffers":[{"byteLength":65084,"uri":"SM_Hammer_05.bin"}],"images":[{"name":"T_Tools_N","uri":"T_Tools_N.png"},{"name":"T_Tools_B","uri":"T_Tools_B.png"}],"materials":[{"alphaMode":"OPAQUE","doubleSided":false,"extras":{"fromFBX":{"isTruePBR":false,"shadingModel":"Phong"}},"name":"MI_Tools_02","normalTexture":{"index":0,"texCoord":0},"pbrMetallicRoughness":{"baseColorFactor":[1,1,1,1],"baseColorTexture":{"index":1,"texCoord":0},"metallicFactor":0.400000005960464,"roughnessFactor":0.301511347293854}},{"alphaMode":"OPAQUE","doubleSided":false,"extras":{"fromFBX":{"isTruePBR":false,"shadingModel":"Lambert"}},"name":"DefaultMaterial","pbrMetallicRoughness":{"baseColorFactor":[0.5,0.5,0.5,1],"metallicFactor":0.200000002980232,"roughnessFactor":0.800000011920929}}],"meshes":[{"name":"SM_Hammer_05_LOD0","primitives":[{"attributes":{"NORMAL":3,"POSITION":2,"TANGENT":4,"TEXCOORD_0":5,"TEXCOORD_1":6},"indices":1,"material":0,"mode":4}]},{"name":"SM_Hammer_05_LOD1","primitives":[{"attributes":{"NORMAL":9,"POSITION":8,"TANGENT":10,"TEXCOORD_0":11,"TEXCOORD_1":12},"indices":7,"material":0,"mode":4}]},{"name":"SM_Hammer_05_LOD2","primitives":[{"attributes":{"NORMAL":15,"POSITION":14,"TANGENT":16,"TEXCOORD_0":17,"TEXCOORD_1":18},"indices":13,"material":0,"mode":4}]},{"name":"SM_Hammer_05_LOD3","primitives":[{"attributes":{"NORMAL":21,"POSITION":20,"TANGENT":22,"TEXCOORD_0":23,"TEXCOORD_1":24},"indices":19,"material":0,"mode":4}]},{"name":"SM_Hammer_05_ConvexHulls","primitives":[{"attributes":{"NORMAL":27,"POSITION":26,"TEXCOORD_0":28,"TEXCOORD_1":29},"indices":25,"material":1,"mode":4}]}],"nodes":[{"children":[1,2,3,4,5],"name":"SM_Hammer_35","originalUnits":0.00999999977648258,"pivot":[0,0,0],"rotation":[0,0,0,1],"scale":[1,1,1],"translation":[0,0,0]},{"mesh":0,"name":"SM_Hammer_05_LOD0","originalUnits":0.00999999977648258,"pivot":[0,0,0],"rotation":[0,0,0,1],"scale":[1,1,1],"translation":[0,0,0]},{"mesh":4,"name":"SM_Hammer_05_ConvexHulls","originalUnits":0.00999999977648258,"pivot":[0,0,0],"rotation":[0,0,0,1],"scale":[1,1,1],"translation":[0,0,0]},{"mesh":1,"name":"SM_Hammer_05_LOD1","originalUnits":0.00999999977648258,"pivot":[0,0,0],"rotation":[0,0,0,1],"scale":[1,1,1],"translation":[0,0,0]},{"mesh":2,"name":"SM_Hammer_05_LOD2","originalUnits":0.00999999977648258,"pivot":[0,0,0],"rotation":[0,0,0,1],"scale":[1,1,1],"translation":[0,0,0]},{"mesh":3,"name":"SM_Hammer_05_LOD3","originalUnits":0.00999999977648258,"pivot":[0,0,0],"rotation":[0,0,0,1],"scale":[1,1,1],"translation":[0,0,0]}],"samplers":[{}],"scene":0,"scenes":[{"name":"Root Scene","nodes":[0]}],"textures":[{"name":"MI_Tools_02","sampler":0,"source":0},{"name":"MI_Tools_02","sampler":0,"source":1}]}