{"accessors":[{"bufferView":0,"byteOffset":0,"componentType":5126,"count":1,"max":[0],"min":[0],"type":"SCALAR"},{"bufferView":1,"byteOffset":0,"componentType":5123,"count":852,"type":"SCALAR"},{"bufferView":2,"byteOffset":0,"componentType":5126,"count":192,"max":[0.0107595846056938,0.17835696041584,0.0618107989430428],"min":[-0.01075957994908,-0.17835696041584,-0.06181079894304],"type":"VEC3"},{"bufferView":3,"byteOffset":0,"componentType":5126,"count":192,"type":"VEC3"},{"bufferView":4,"byteOffset":0,"componentType":5126,"count":192,"type":"VEC4"},{"bufferView":5,"byteOffset":0,"componentType":5126,"count":192,"type":"VEC2"},{"bufferView":6,"byteOffset":0,"componentType":5126,"count":192,"type":"VEC2"},{"bufferView":7,"byteOffset":0,"componentType":5123,"count":636,"type":"SCALAR"},{"bufferView":8,"byteOffset":0,"componentType":5126,"count":149,"max":[0.0107595846056938,0.17835696041584,0.0618107989430428],"min":[-0.01075957994908,-0.1789086908102,-0.06181079894304],"type":"VEC3"},{"bufferView":9,"byteOffset":0,"componentType":5126,"count":149,"type":"VEC3"},{"bufferView":10,"byteOffset":0,"componentType":5126,"count":149,"type":"VEC4"},{"bufferView":11,"byteOffset":0,"componentType":5126,"count":149,"type":"VEC2"},{"bufferView":12,"byteOffset":0,"componentType":5126,"count":149,"type":"VEC2"},{"bufferView":13,"byteOffset":0,"componentType":5123,"count":426,"type":"SCALAR"},{"bufferView":14,"byteOffset":0,"componentType":5126,"count":111,"max":[0.0107595846056938,0.17835696041584,0.0618107989430428],"min":[-0.01075957994908,-0.17937098443508,-0.06531989574432],"type":"VEC3"},{"bufferView":15,"byteOffset":0,"componentType":5126,"count":111,"type":"VEC3"},{"bufferView":16,"byteOffset":0,"componentType":5126,"count":111,"type":"VEC4"},{"bufferView":17,"byteOffset":0,"componentType":5126,"count":111,"type":"VEC2"},{"bufferView":18,"byteOffset":0,"componentType":5126,"count":111,"type":"VEC2"},{"bufferView":19,"byteOffset":0,"componentType":5123,"count":108,"type":"SCALAR"},{"bufferView":20,"byteOffset":0,"componentType":5126,"count":44,"max":[0.0124981235712767,0.181299895048141,0.0591892898082733],"min":[-0.01097941957414,-0.17937098443508,-0.06180934235454],"type":"VEC3"},{"bufferView":21,"byteOffset":0,"componentType":5126,"count":44,"type":"VEC3"},{"bufferView":22,"byteOffset":0,"componentType":5126,"count":44,"type":"VEC4"},{"bufferView":23,"byteOffset":0,"componentType":5126,"count":44,"type":"VEC2"},{"bufferView":24,"byteOffset":0,"componentType":5126,"count":44,"type":"VEC2"},{"bufferView":25,"byteOffset":0,"componentType":5123,"count":168,"type":"SCALAR"},{"bufferView":26,"byteOffset":0,"componentType":5126,"count":32,"max":[0.0103876544162631,0.177389070391655,0.0614214614033699],"min":[-0.01025408972055,-0.17126363515854,-0.05998158827424],"type":"VEC3"},{"bufferView":27,"byteOffset":0,"componentType":5126,"count":32,"type":"VEC3"},{"bufferView":28,"byteOffset":0,"componentType":5126,"count":32,"type":"VEC2"},{"bufferView":29,"byteOffset":0,"componentType":5126,"count":32,"type":"VEC2"}],"animations":[{"channels":[],"name":"Unreal Take","samplers":[]}],"asset":{"generator":"FBX2glTF v0.13.0","version":"2.0"},"bufferViews":[{"buffer":0,"byteLength":4,"byteOffset":0},{"buffer":0,"byteLength":1704,"byteOffset":4,"target":34963},{"buffer":0,"byteLength":2304,"byteOffset":1708,"target":34962},{"buffer":0,"byteLength":2304,"byteOffset":4012,"target":34962},{"buffer":0,"byteLength":3072,"byteOffset":6316,"target":34962},{"buffer":0,"byteLength":1536,"byteOffset":9388,"target":34962},{"buffer":0,"byteLength":1536,"byteOffset":10924,"target":34962},{"buffer":0,"byteLength":1272,"byteOffset":12460,"target":34963},{"buffer":0,"byteLength":1788,"byteOffset":13732,"target":34962},{"buffer":0,"byteLength":1788,"byteOffset":15520,"target":34962},{"buffer":0,"byteLength":2384,"byteOffset":17308,"target":34962},{"buffer":0,"byteLength":1192,"byteOffset":19692,"target":34962},{"buffer":0,"byteLength":1192,"byteOffset":20884,"target":34962},{"buffer":0,"byteLength":852,"byteOffset":22076,"target":34963},{"buffer":0,"byteLength":1332,"byteOffset":22928,"target":34962},{"buffer":0,"byteLength":1332,"byteOffset":24260,"target":34962},{"buffer":0,"byteLength":1776,"byteOffset":25592,"target":34962},{"buffer":0,"byteLength":888,"byteOffset":27368,"target":34962},{"buffer":0,"byteLength":888,"byteOffset":28256,"target":34962},{"buffer":0,"byteLength":216,"byteOffset":29144,"target":34963},{"buffer":0,"byteLength":528,"byteOffset":29360,"target":34962},{"buffer":0,"byteLength":528,"byteOffset":29888,"target":34962},{"buffer":0,"byteLength":704,"byteOffset":30416,"target":34962},{"buffer":0,"byteLength":352,"byteOffset":31120,"target":34962},{"buffer":0,"byteLength":352,"byteOffset":31472,"target":34962},{"buffer":0,"byteLength":336,"byteOffset":31824,"target":34963},{"buffer":0,"byteLength":384,"byteOffset":32160,"target":34962},{"buffer":0,"byteLength":384,"byteOffset":32544,"target":34962},{"buffer":0,"byteLength":256,"byteOffset":32928,"target":34962},{"buffer":0,"byteLength":256,"byteOffset":33184,"target":34962}],"buffers":[{"byteLength":33440,"uri":"SM_Hammer_02.bin"}],"images":[{"name":"T_Tools_N","uri":"T_Tools_N.png"},{"name":"T_Tools_B","uri":"T_Tools_B.png"}],"materials":[{"alphaMode":"OPAQUE","doubleSided":false,"extras":{"fromFBX":{"isTruePBR":false,"shadingModel":"Phong"}},"name":"MI_Tools_02","normalTexture":{"index":0,"texCoord":0},"pbrMetallicRoughness":{"baseColorFactor":[1,1,1,1],"baseColorTexture":{"index":1,"texCoord":0},"metallicFactor":0.400000005960464,"roughnessFactor":0.301511347293854}},{"alphaMode":"OPAQUE","doubleSided":false,"extras":{"fromFBX":{"isTruePBR":false,"shadingModel":"Lambert"}},"name":"DefaultMaterial","pbrMetallicRoughness":{"baseColorFactor":[0.5,0.5,0.5,1],"metallicFactor":0.200000002980232,"roughnessFactor":0.800000011920929}}],"meshes":[{"name":"SM_Hammer_02_LOD0","primitives":[{"attributes":{"NORMAL":3,"POSITION":2,"TANGENT":4,"TEXCOORD_0":5,"TEXCOORD_1":6},"indices":1,"material":0,"mode":4}]},{"name":"SM_Hammer_02_LOD1","primitives":[{"attributes":{"NORMAL":9,"POSITION":8,"TANGENT":10,"TEXCOORD_0":11,"TEXCOORD_1":12},"indices":7,"material":0,"mode":4}]},{"name":"SM_Hammer_02_LOD2","primitives":[{"attributes":{"NORMAL":15,"POSITION":14,"TANGENT":16,"TEXCOORD_0":17,"TEXCOORD_1":18},"indices":13,"material":0,"mode":4}]},{"name":"SM_Hammer_02_LOD3","primitives":[{"attributes":{"NORMAL":21,"POSITION":20,"TANGENT":22,"TEXCOORD_0":23,"TEXCOORD_1":24},"indices":19,"material":0,"mode":4}]},{"name":"SM_Hammer_02_ConvexHulls","primitives":[{"attributes":{"NORMAL":27,"POSITION":26,"TEXCOORD_0":28,"TEXCOORD_1":29},"indices":25,"material":1,"mode":4}]}],"nodes":[{"children":[1,2,3,4,5],"name":"SM_Hammer_32","originalUnits":0.00999999977648258,"pivot":[0,0,0],"rotation":[0,0,0,1],"scale":[1,1,1],"translation":[0,0,0]},{"mesh":0,"name":"SM_Hammer_02_LOD0","originalUnits":0.00999999977648258,"pivot":[0,0,0],"rotation":[0,0,0,1],"scale":[1,1,1],"translation":[0,0,0]},{"mesh":4,"name":"SM_Hammer_02_ConvexHulls","originalUnits":0.00999999977648258,"pivot":[0,0,0],"rotation":[0,0,0,1],"scale":[1,1,1],"translation":[0,0,0]},{"mesh":1,"name":"SM_Hammer_02_LOD1","originalUnits":0.00999999977648258,"pivot":[0,0,0],"rotation":[0,0,0,1],"scale":[1,1,1],"translation":[0,0,0]},{"mesh":2,"name":"SM_Hammer_02_LOD2","originalUnits":0.00999999977648258,"pivot":[0,0,0],"rotation":[0,0,0,1],"scale":[1,1,1],"translation":[0,0,0]},{"mesh":3,"name":"SM_Hammer_02_LOD3","originalUnits":0.00999999977648258,"pivot":[0,0,0],"rotation":[0,0,0,1],"scale":[1,1,1],"translation":[0,0,0]}],"samplers":[{}],"scene":0,"scenes":[{"name":"Root Scene","nodes":[0]}],"textures":[{"name":"MI_Tools_02","sampler":0,"source":0},{"name":"MI_Tools_02","sampler":0,"source":1}]}