{"accessors":[{"bufferView":0,"byteOffset":0,"componentType":5126,"count":1,"max":[0],"min":[0],"type":"SCALAR"},{"bufferView":1,"byteOffset":0,"componentType":5123,"count":88524,"type":"SCALAR"},{"bufferView":2,"byteOffset":0,"componentType":5126,"count":29574,"max":[0.0482687279582024,0.505892872810364,0.301730126142502],"min":[-0.2232973575592,-1.91853713989258,-0.33661499619484],"type":"VEC3"},{"bufferView":3,"byteOffset":0,"componentType":5126,"count":29574,"type":"VEC3"},{"bufferView":4,"byteOffset":0,"componentType":5126,"count":29574,"type":"VEC4"},{"bufferView":5,"byteOffset":0,"componentType":5126,"count":29574,"type":"VEC2"},{"bufferView":6,"byteOffset":0,"componentType":5126,"count":29574,"type":"VEC2"},{"bufferView":7,"byteOffset":0,"componentType":5123,"count":66390,"type":"SCALAR"},{"bufferView":8,"byteOffset":0,"componentType":5126,"count":25363,"max":[0.0482687279582024,0.506739854812622,0.301457762718201],"min":[-0.22330358624458,-1.91853713989258,-0.33634260296822],"type":"VEC3"},{"bufferView":9,"byteOffset":0,"componentType":5126,"count":25363,"type":"VEC3"},{"bufferView":10,"byteOffset":0,"componentType":5126,"count":25363,"type":"VEC4"},{"bufferView":11,"byteOffset":0,"componentType":5126,"count":25363,"type":"VEC2"},{"bufferView":12,"byteOffset":0,"componentType":5126,"count":25363,"type":"VEC2"},{"bufferView":13,"byteOffset":0,"componentType":5123,"count":44262,"type":"SCALAR"},{"bufferView":14,"byteOffset":0,"componentType":5126,"count":19893,"max":[0.0483923479914665,0.506739854812622,0.301457762718201],"min":[-0.22332079708576,-1.91853713989258,-0.33634260296822],"type":"VEC3"},{"bufferView":15,"byteOffset":0,"componentType":5126,"count":19893,"type":"VEC3"},{"bufferView":16,"byteOffset":0,"componentType":5126,"count":19893,"type":"VEC4"},{"bufferView":17,"byteOffset":0,"componentType":5126,"count":19893,"type":"VEC2"},{"bufferView":18,"byteOffset":0,"componentType":5126,"count":19893,"type":"VEC2"},{"bufferView":19,"byteOffset":0,"componentType":5123,"count":11058,"type":"SCALAR"},{"bufferView":20,"byteOffset":0,"componentType":5126,"count":5958,"max":[0.0498538538813591,0.512647986412048,0.307436257600784],"min":[-0.22534719109535,-1.92867004871368,-0.3423210978508],"type":"VEC3"},{"bufferView":21,"byteOffset":0,"componentType":5126,"count":5958,"type":"VEC3"},{"bufferView":22,"byteOffset":0,"componentType":5126,"count":5958,"type":"VEC4"},{"bufferView":23,"byteOffset":0,"componentType":5126,"count":5958,"type":"VEC2"},{"bufferView":24,"byteOffset":0,"componentType":5126,"count":5958,"type":"VEC2"},{"bufferView":25,"byteOffset":0,"componentType":5123,"count":546,"type":"SCALAR"},{"bufferView":26,"byteOffset":0,"componentType":5126,"count":107,"max":[0.0396261215209961,0.489479005336761,0.303084701299667],"min":[-0.2232973575592,-1.92234206199646,-0.34016424417496],"type":"VEC3"},{"bufferView":27,"byteOffset":0,"componentType":5126,"count":107,"type":"VEC3"},{"bufferView":28,"byteOffset":0,"componentType":5126,"count":107,"type":"VEC2"},{"bufferView":29,"byteOffset":0,"componentType":5126,"count":107,"type":"VEC2"}],"animations":[{"channels":[],"name":"Unreal Take","samplers":[]}],"asset":{"generator":"FBX2glTF v0.13.0","version":"2.0"},"bufferViews":[{"buffer":0,"byteLength":4,"byteOffset":0},{"buffer":0,"byteLength":177048,"byteOffset":4,"target":34963},{"buffer":0,"byteLength":354888,"byteOffset":177052,"target":34962},{"buffer":0,"byteLength":354888,"byteOffset":531940,"target":34962},{"buffer":0,"byteLength":473184,"byteOffset":886828,"target":34962},{"buffer":0,"byteLength":236592,"byteOffset":1360012,"target":34962},{"buffer":0,"byteLength":236592,"byteOffset":1596604,"target":34962},{"buffer":0,"byteLength":132780,"byteOffset":1833196,"target":34963},{"buffer":0,"byteLength":304356,"byteOffset":1965976,"target":34962},{"buffer":0,"byteLength":304356,"byteOffset":2270332,"target":34962},{"buffer":0,"byteLength":405808,"byteOffset":2574688,"target":34962},{"buffer":0,"byteLength":202904,"byteOffset":2980496,"target":34962},{"buffer":0,"byteLength":202904,"byteOffset":3183400,"target":34962},{"buffer":0,"byteLength":88524,"byteOffset":3386304,"target":34963},{"buffer":0,"byteLength":238716,"byteOffset":3474828,"target":34962},{"buffer":0,"byteLength":238716,"byteOffset":3713544,"target":34962},{"buffer":0,"byteLength":318288,"byteOffset":3952260,"target":34962},{"buffer":0,"byteLength":159144,"byteOffset":4270548,"target":34962},{"buffer":0,"byteLength":159144,"byteOffset":4429692,"target":34962},{"buffer":0,"byteLength":22116,"byteOffset":4588836,"target":34963},{"buffer":0,"byteLength":71496,"byteOffset":4610952,"target":34962},{"buffer":0,"byteLength":71496,"byteOffset":4682448,"target":34962},{"buffer":0,"byteLength":95328,"byteOffset":4753944,"target":34962},{"buffer":0,"byteLength":47664,"byteOffset":4849272,"target":34962},{"buffer":0,"byteLength":47664,"byteOffset":4896936,"target":34962},{"buffer":0,"byteLength":1092,"byteOffset":4944600,"target":34963},{"buffer":0,"byteLength":1284,"byteOffset":4945692,"target":34962},{"buffer":0,"byteLength":1284,"byteOffset":4946976,"target":34962},{"buffer":0,"byteLength":856,"byteOffset":4948260,"target":34962},{"buffer":0,"byteLength":856,"byteOffset":4949116,"target":34962}],"buffers":[{"byteLength":4949972,"uri":"SM_Hook.bin"}],"images":[{"name":"T_Metal_N","uri":"T_Metal_N.png"},{"name":"T_Metal_B","uri":"T_Metal_B.png"}],"materials":[{"alphaMode":"OPAQUE","doubleSided":false,"extras":{"fromFBX":{"isTruePBR":false,"shadingModel":"Phong"}},"name":"MI_Hook","normalTexture":{"index":0,"texCoord":0},"pbrMetallicRoughness":{"baseColorFactor":[1,1,1,1],"baseColorTexture":{"index":1,"texCoord":0},"metallicFactor":0.400000005960464,"roughnessFactor":0.301511347293854}},{"alphaMode":"OPAQUE","doubleSided":false,"extras":{"fromFBX":{"isTruePBR":false,"shadingModel":"Lambert"}},"name":"DefaultMaterial","pbrMetallicRoughness":{"baseColorFactor":[0.5,0.5,0.5,1],"metallicFactor":0.200000002980232,"roughnessFactor":0.800000011920929}}],"meshes":[{"name":"SM_Hook_LOD0","primitives":[{"attributes":{"NORMAL":3,"POSITION":2,"TANGENT":4,"TEXCOORD_0":5,"TEXCOORD_1":6},"indices":1,"material":0,"mode":4}]},{"name":"SM_Hook_LOD1","primitives":[{"attributes":{"NORMAL":9,"POSITION":8,"TANGENT":10,"TEXCOORD_0":11,"TEXCOORD_1":12},"indices":7,"material":0,"mode":4}]},{"name":"SM_Hook_LOD2","primitives":[{"attributes":{"NORMAL":15,"POSITION":14,"TANGENT":16,"TEXCOORD_0":17,"TEXCOORD_1":18},"indices":13,"material":0,"mode":4}]},{"name":"SM_Hook_LOD3","primitives":[{"attributes":{"NORMAL":21,"POSITION":20,"TANGENT":22,"TEXCOORD_0":23,"TEXCOORD_1":24},"indices":19,"material":0,"mode":4}]},{"name":"SM_Hook_ConvexHulls","primitives":[{"attributes":{"NORMAL":27,"POSITION":26,"TEXCOORD_0":28,"TEXCOORD_1":29},"indices":25,"material":1,"mode":4}]}],"nodes":[{"children":[1,2,3,4,5],"name":"SM_Hook_Mech2_39","originalUnits":0.00999999977648258,"pivot":[0,0,0],"rotation":[0,0,0,1],"scale":[1,1,1],"translation":[0,0,0]},{"mesh":0,"name":"SM_Hook_LOD0","originalUnits":0.00999999977648258,"pivot":[0,0,0],"rotation":[0,0,0,1],"scale":[1,1,1],"translation":[0,0,0]},{"mesh":4,"name":"SM_Hook_ConvexHulls","originalUnits":0.00999999977648258,"pivot":[0,0,0],"rotation":[0,0,0,1],"scale":[1,1,1],"translation":[0,0,0]},{"mesh":1,"name":"SM_Hook_LOD1","originalUnits":0.00999999977648258,"pivot":[0,0,0],"rotation":[0,0,0,1],"scale":[1,1,1],"translation":[0,0,0]},{"mesh":2,"name":"SM_Hook_LOD2","originalUnits":0.00999999977648258,"pivot":[0,0,0],"rotation":[0,0,0,1],"scale":[1,1,1],"translation":[0,0,0]},{"mesh":3,"name":"SM_Hook_LOD3","originalUnits":0.00999999977648258,"pivot":[0,0,0],"rotation":[0,0,0,1],"scale":[1,1,1],"translation":[0,0,0]}],"samplers":[{}],"scene":0,"scenes":[{"name":"Root Scene","nodes":[0]}],"textures":[{"name":"MI_Hook","sampler":0,"source":0},{"name":"MI_Hook","sampler":0,"source":1}]}