{"accessors":[{"bufferView":0,"byteOffset":0,"componentType":5126,"count":1,"max":[0],"min":[0],"type":"SCALAR"},{"bufferView":1,"byteOffset":0,"componentType":5123,"count":720,"type":"SCALAR"},{"bufferView":2,"byteOffset":0,"componentType":5126,"count":164,"max":[0.0820125788450241,0.126512214541435,-0.29167637228966],"min":[-0.08201253414154,0.0128667820245028,-0.46020144224167],"type":"VEC3"},{"bufferView":3,"byteOffset":0,"componentType":5126,"count":164,"type":"VEC3"},{"bufferView":4,"byteOffset":0,"componentType":5126,"count":164,"type":"VEC4"},{"bufferView":5,"byteOffset":0,"componentType":5126,"count":164,"type":"VEC2"},{"bufferView":6,"byteOffset":0,"componentType":5126,"count":164,"type":"VEC2"},{"bufferView":7,"byteOffset":0,"componentType":5123,"count":456,"type":"SCALAR"},{"bufferView":8,"byteOffset":0,"componentType":5126,"count":120,"max":[0.0820125788450241,0.126512214541435,-0.29167637228966],"min":[-0.08201253414154,0.0128667820245028,-0.46020144224167],"type":"VEC3"},{"bufferView":9,"byteOffset":0,"componentType":5126,"count":120,"type":"VEC3"},{"bufferView":10,"byteOffset":0,"componentType":5126,"count":120,"type":"VEC4"},{"bufferView":11,"byteOffset":0,"componentType":5126,"count":120,"type":"VEC2"},{"bufferView":12,"byteOffset":0,"componentType":5126,"count":120,"type":"VEC2"},{"bufferView":13,"byteOffset":0,"componentType":5123,"count":252,"type":"SCALAR"},{"bufferView":14,"byteOffset":0,"componentType":5126,"count":87,"max":[0.0832028388977051,0.126512214541435,-0.29167637228966],"min":[-0.08357267826796,0.0128081329166889,-0.46073630452156],"type":"VEC3"},{"bufferView":15,"byteOffset":0,"componentType":5126,"count":87,"type":"VEC3"},{"bufferView":16,"byteOffset":0,"componentType":5126,"count":87,"type":"VEC4"},{"bufferView":17,"byteOffset":0,"componentType":5126,"count":87,"type":"VEC2"},{"bufferView":18,"byteOffset":0,"componentType":5126,"count":87,"type":"VEC2"},{"bufferView":19,"byteOffset":0,"componentType":5123,"count":96,"type":"SCALAR"},{"bufferView":20,"byteOffset":0,"componentType":5126,"count":35,"max":[0.0868720635771751,0.127876847982407,-0.28946807980537],"min":[-0.08448927104473,0.010687530040741,-0.46074512600899],"type":"VEC3"},{"bufferView":21,"byteOffset":0,"componentType":5126,"count":35,"type":"VEC3"},{"bufferView":22,"byteOffset":0,"componentType":5126,"count":35,"type":"VEC4"},{"bufferView":23,"byteOffset":0,"componentType":5126,"count":35,"type":"VEC2"},{"bufferView":24,"byteOffset":0,"componentType":5126,"count":35,"type":"VEC2"},{"bufferView":25,"byteOffset":0,"componentType":5123,"count":960,"type":"SCALAR"},{"bufferView":26,"byteOffset":0,"componentType":5126,"count":249,"max":[0.0927338451147079,0.230878978967667,-0.28545501828194],"min":[-0.09273379296064,0.190635204315186,-0.47092264890671],"type":"VEC3"},{"bufferView":27,"byteOffset":0,"componentType":5126,"count":249,"type":"VEC3"},{"bufferView":28,"byteOffset":0,"componentType":5126,"count":249,"type":"VEC4"},{"bufferView":29,"byteOffset":0,"componentType":5126,"count":249,"type":"VEC2"},{"bufferView":30,"byteOffset":0,"componentType":5126,"count":249,"type":"VEC2"},{"bufferView":31,"byteOffset":0,"componentType":5123,"count":696,"type":"SCALAR"},{"bufferView":32,"byteOffset":0,"componentType":5126,"count":205,"max":[0.0927338451147079,0.230851173400879,-0.28545501828194],"min":[-0.09273379296064,0.190635204315186,-0.47092264890671],"type":"VEC3"},{"bufferView":33,"byteOffset":0,"componentType":5126,"count":205,"type":"VEC3"},{"bufferView":34,"byteOffset":0,"componentType":5126,"count":205,"type":"VEC4"},{"bufferView":35,"byteOffset":0,"componentType":5126,"count":205,"type":"VEC2"},{"bufferView":36,"byteOffset":0,"componentType":5126,"count":205,"type":"VEC2"},{"bufferView":37,"byteOffset":0,"componentType":5123,"count":486,"type":"SCALAR"},{"bufferView":38,"byteOffset":0,"componentType":5126,"count":163,"max":[0.0927338451147079,0.230851173400879,-0.28457251191139],"min":[-0.09361746907234,0.190538987517357,-0.47180518507957],"type":"VEC3"},{"bufferView":39,"byteOffset":0,"componentType":5126,"count":163,"type":"VEC3"},{"bufferView":40,"byteOffset":0,"componentType":5126,"count":163,"type":"VEC4"},{"bufferView":41,"byteOffset":0,"componentType":5126,"count":163,"type":"VEC2"},{"bufferView":42,"byteOffset":0,"componentType":5126,"count":163,"type":"VEC2"},{"bufferView":43,"byteOffset":0,"componentType":5123,"count":132,"type":"SCALAR"},{"bufferView":44,"byteOffset":0,"componentType":5126,"count":55,"max":[0.0951400995254517,0.235105991363525,-0.28257495164871],"min":[-0.09914100170135,0.190187126398087,-0.47820895910263],"type":"VEC3"},{"bufferView":45,"byteOffset":0,"componentType":5126,"count":55,"type":"VEC3"},{"bufferView":46,"byteOffset":0,"componentType":5126,"count":55,"type":"VEC4"},{"bufferView":47,"byteOffset":0,"componentType":5126,"count":55,"type":"VEC2"},{"bufferView":48,"byteOffset":0,"componentType":5126,"count":55,"type":"VEC2"},{"bufferView":49,"byteOffset":0,"componentType":5123,"count":2160,"type":"SCALAR"},{"bufferView":50,"byteOffset":0,"componentType":5126,"count":500,"max":[0.0947272554039955,0.221696510910988,-0.28346163034439],"min":[-0.09472721070051,-0.00106871128082,-0.4729160964489],"type":"VEC3"},{"bufferView":51,"byteOffset":0,"componentType":5126,"count":500,"type":"VEC3"},{"bufferView":52,"byteOffset":0,"componentType":5126,"count":500,"type":"VEC4"},{"bufferView":53,"byteOffset":0,"componentType":5126,"count":500,"type":"VEC2"},{"bufferView":54,"byteOffset":0,"componentType":5126,"count":500,"type":"VEC2"},{"bufferView":55,"byteOffset":0,"componentType":5123,"count":1728,"type":"SCALAR"},{"bufferView":56,"byteOffset":0,"componentType":5126,"count":428,"max":[0.0947272554039955,0.221696510910988,-0.28346163034439],"min":[-0.09472721070051,-0.00106871128082,-0.4729160964489],"type":"VEC3"},{"bufferView":57,"byteOffset":0,"componentType":5126,"count":428,"type":"VEC3"},{"bufferView":58,"byteOffset":0,"componentType":5126,"count":428,"type":"VEC4"},{"bufferView":59,"byteOffset":0,"componentType":5126,"count":428,"type":"VEC2"},{"bufferView":60,"byteOffset":0,"componentType":5126,"count":428,"type":"VEC2"},{"bufferView":61,"byteOffset":0,"componentType":5123,"count":1182,"type":"SCALAR"},{"bufferView":62,"byteOffset":0,"componentType":5126,"count":316,"max":[0.0964851677417755,0.221719905734062,-0.28060182929039],"min":[-0.09640247374773,-0.00101217220072,-0.47577565908432],"type":"VEC3"},{"bufferView":63,"byteOffset":0,"componentType":5126,"count":316,"type":"VEC3"},{"bufferView":64,"byteOffset":0,"componentType":5126,"count":316,"type":"VEC4"},{"bufferView":65,"byteOffset":0,"componentType":5126,"count":316,"type":"VEC2"},{"bufferView":66,"byteOffset":0,"componentType":5126,"count":316,"type":"VEC2"},{"bufferView":67,"byteOffset":0,"componentType":5123,"count":252,"type":"SCALAR"},{"bufferView":68,"byteOffset":0,"componentType":5126,"count":97,"max":[0.0902843475341797,0.225264221429825,-0.28309682011604],"min":[-0.09878148883581,0.00264408485963941,-0.47636699676514],"type":"VEC3"},{"bufferView":69,"byteOffset":0,"componentType":5126,"count":97,"type":"VEC3"},{"bufferView":70,"byteOffset":0,"componentType":5126,"count":97,"type":"VEC4"},{"bufferView":71,"byteOffset":0,"componentType":5126,"count":97,"type":"VEC2"},{"bufferView":72,"byteOffset":0,"componentType":5126,"count":97,"type":"VEC2"},{"bufferView":73,"byteOffset":0,"componentType":5123,"count":84,"type":"SCALAR"},{"bufferView":74,"byteOffset":0,"componentType":5126,"count":16,"max":[0.0983839854598045,0.22268895804882,-0.2809254527092],"min":[-0.09837431460619,0.00259553268551826,-0.47767829895019],"type":"VEC3"},{"bufferView":75,"byteOffset":0,"componentType":5126,"count":16,"type":"VEC3"},{"bufferView":76,"byteOffset":0,"componentType":5126,"count":16,"type":"VEC2"},{"bufferView":77,"byteOffset":0,"componentType":5126,"count":16,"type":"VEC2"}],"animations":[{"channels":[],"name":"Unreal Take","samplers":[]}],"asset":{"generator":"FBX2glTF v0.13.0","version":"2.0"},"bufferViews":[{"buffer":0,"byteLength":4,"byteOffset":0},{"buffer":0,"byteLength":1440,"byteOffset":4,"target":34963},{"buffer":0,"byteLength":1968,"byteOffset":1444,"target":34962},{"buffer":0,"byteLength":1968,"byteOffset":3412,"target":34962},{"buffer":0,"byteLength":2624,"byteOffset":5380,"target":34962},{"buffer":0,"byteLength":1312,"byteOffset":8004,"target":34962},{"buffer":0,"byteLength":1312,"byteOffset":9316,"target":34962},{"buffer":0,"byteLength":912,"byteOffset":10628,"target":34963},{"buffer":0,"byteLength":1440,"byteOffset":11540,"target":34962},{"buffer":0,"byteLength":1440,"byteOffset":12980,"target":34962},{"buffer":0,"byteLength":1920,"byteOffset":14420,"target":34962},{"buffer":0,"byteLength":960,"byteOffset":16340,"target":34962},{"buffer":0,"byteLength":960,"byteOffset":17300,"target":34962},{"buffer":0,"byteLength":504,"byteOffset":18260,"target":34963},{"buffer":0,"byteLength":1044,"byteOffset":18764,"target":34962},{"buffer":0,"byteLength":1044,"byteOffset":19808,"target":34962},{"buffer":0,"byteLength":1392,"byteOffset":20852,"target":34962},{"buffer":0,"byteLength":696,"byteOffset":22244,"target":34962},{"buffer":0,"byteLength":696,"byteOffset":22940,"target":34962},{"buffer":0,"byteLength":192,"byteOffset":23636,"target":34963},{"buffer":0,"byteLength":420,"byteOffset":23828,"target":34962},{"buffer":0,"byteLength":420,"byteOffset":24248,"target":34962},{"buffer":0,"byteLength":560,"byteOffset":24668,"target":34962},{"buffer":0,"byteLength":280,"byteOffset":25228,"target":34962},{"buffer":0,"byteLength":280,"byteOffset":25508,"target":34962},{"buffer":0,"byteLength":1920,"byteOffset":25788,"target":34963},{"buffer":0,"byteLength":2988,"byteOffset":27708,"target":34962},{"buffer":0,"byteLength":2988,"byteOffset":30696,"target":34962},{"buffer":0,"byteLength":3984,"byteOffset":33684,"target":34962},{"buffer":0,"byteLength":1992,"byteOffset":37668,"target":34962},{"buffer":0,"byteLength":1992,"byteOffset":39660,"target":34962},{"buffer":0,"byteLength":1392,"byteOffset":41652,"target":34963},{"buffer":0,"byteLength":2460,"byteOffset":43044,"target":34962},{"buffer":0,"byteLength":2460,"byteOffset":45504,"target":34962},{"buffer":0,"byteLength":3280,"byteOffset":47964,"target":34962},{"buffer":0,"byteLength":1640,"byteOffset":51244,"target":34962},{"buffer":0,"byteLength":1640,"byteOffset":52884,"target":34962},{"buffer":0,"byteLength":972,"byteOffset":54524,"target":34963},{"buffer":0,"byteLength":1956,"byteOffset":55496,"target":34962},{"buffer":0,"byteLength":1956,"byteOffset":57452,"target":34962},{"buffer":0,"byteLength":2608,"byteOffset":59408,"target":34962},{"buffer":0,"byteLength":1304,"byteOffset":62016,"target":34962},{"buffer":0,"byteLength":1304,"byteOffset":63320,"target":34962},{"buffer":0,"byteLength":264,"byteOffset":64624,"target":34963},{"buffer":0,"byteLength":660,"byteOffset":64888,"target":34962},{"buffer":0,"byteLength":660,"byteOffset":65548,"target":34962},{"buffer":0,"byteLength":880,"byteOffset":66208,"target":34962},{"buffer":0,"byteLength":440,"byteOffset":67088,"target":34962},{"buffer":0,"byteLength":440,"byteOffset":67528,"target":34962},{"buffer":0,"byteLength":4320,"byteOffset":67968,"target":34963},{"buffer":0,"byteLength":6000,"byteOffset":72288,"target":34962},{"buffer":0,"byteLength":6000,"byteOffset":78288,"target":34962},{"buffer":0,"byteLength":8000,"byteOffset":84288,"target":34962},{"buffer":0,"byteLength":4000,"byteOffset":92288,"target":34962},{"buffer":0,"byteLength":4000,"byteOffset":96288,"target":34962},{"buffer":0,"byteLength":3456,"byteOffset":100288,"target":34963},{"buffer":0,"byteLength":5136,"byteOffset":103744,"target":34962},{"buffer":0,"byteLength":5136,"byteOffset":108880,"target":34962},{"buffer":0,"byteLength":6848,"byteOffset":114016,"target":34962},{"buffer":0,"byteLength":3424,"byteOffset":120864,"target":34962},{"buffer":0,"byteLength":3424,"byteOffset":124288,"target":34962},{"buffer":0,"byteLength":2364,"byteOffset":127712,"target":34963},{"buffer":0,"byteLength":3792,"byteOffset":130076,"target":34962},{"buffer":0,"byteLength":3792,"byteOffset":133868,"target":34962},{"buffer":0,"byteLength":5056,"byteOffset":137660,"target":34962},{"buffer":0,"byteLength":2528,"byteOffset":142716,"target":34962},{"buffer":0,"byteLength":2528,"byteOffset":145244,"target":34962},{"buffer":0,"byteLength":504,"byteOffset":147772,"target":34963},{"buffer":0,"byteLength":1164,"byteOffset":148276,"target":34962},{"buffer":0,"byteLength":1164,"byteOffset":149440,"target":34962},{"buffer":0,"byteLength":1552,"byteOffset":150604,"target":34962},{"buffer":0,"byteLength":776,"byteOffset":152156,"target":34962},{"buffer":0,"byteLength":776,"byteOffset":152932,"target":34962},{"buffer":0,"byteLength":168,"byteOffset":153708,"target":34963},{"buffer":0,"byteLength":192,"byteOffset":153876,"target":34962},{"buffer":0,"byteLength":192,"byteOffset":154068,"target":34962},{"buffer":0,"byteLength":128,"byteOffset":154260,"target":34962},{"buffer":0,"byteLength":128,"byteOffset":154388,"target":34962}],"buffers":[{"byteLength":154516,"uri":"SM_Jar.bin"}],"images":[{"name":"T_Default_Material_Grid_N","uri":"T_Default_Material_Grid_N.png"},{"name":"T_Default_Material_Grid_M","uri":"T_Default_Material_Grid_M.png"},{"name":"T_GlassProps_N","uri":"T_GlassProps_N.png"},{"name":"T_GlassProps_B","uri":"T_GlassProps_B.png"}],"materials":[{"alphaMode":"OPAQUE","doubleSided":false,"extras":{"fromFBX":{"isTruePBR":false,"shadingModel":"Phong"}},"name":"WorldGridMaterial","normalTexture":{"index":0,"texCoord":0},"pbrMetallicRoughness":{"baseColorFactor":[1,1,1,1],"baseColorTexture":{"index":1,"texCoord":0},"metallicFactor":0.400000005960464,"roughnessFactor":0.301511347293854}},{"alphaMode":"OPAQUE","doubleSided":false,"extras":{"fromFBX":{"isTruePBR":false,"shadingModel":"Phong"}},"name":"MI_Bulb","pbrMetallicRoughness":{"baseColorFactor":[0.800000011920929,0.800000011920929,0.800000011920929,1],"metallicFactor":0.400000005960464,"roughnessFactor":0.301511347293854}},{"alphaMode":"OPAQUE","doubleSided":false,"extras":{"fromFBX":{"isTruePBR":false,"shadingModel":"Phong"}},"name":"MI_GlassProps","normalTexture":{"index":2,"texCoord":0},"pbrMetallicRoughness":{"baseColorFactor":[1,1,1,1],"baseColorTexture":{"index":3,"texCoord":0},"metallicFactor":0.400000005960464,"roughnessFactor":0.301511347293854}},{"alphaMode":"OPAQUE","doubleSided":false,"extras":{"fromFBX":{"isTruePBR":false,"shadingModel":"Lambert"}},"name":"DefaultMaterial","pbrMetallicRoughness":{"baseColorFactor":[0.5,0.5,0.5,1],"metallicFactor":0.200000002980232,"roughnessFactor":0.800000011920929}}],"meshes":[{"name":"SM_Jar_LOD0","primitives":[{"attributes":{"NORMAL":3,"POSITION":2,"TANGENT":4,"TEXCOORD_0":5,"TEXCOORD_1":6},"indices":1,"material":0,"mode":4},{"attributes":{"NORMAL":27,"POSITION":26,"TANGENT":28,"TEXCOORD_0":29,"TEXCOORD_1":30},"indices":25,"material":2,"mode":4},{"attributes":{"NORMAL":51,"POSITION":50,"TANGENT":52,"TEXCOORD_0":53,"TEXCOORD_1":54},"indices":49,"material":1,"mode":4}]},{"name":"SM_Jar_LOD1","primitives":[{"attributes":{"NORMAL":9,"POSITION":8,"TANGENT":10,"TEXCOORD_0":11,"TEXCOORD_1":12},"indices":7,"material":0,"mode":4},{"attributes":{"NORMAL":33,"POSITION":32,"TANGENT":34,"TEXCOORD_0":35,"TEXCOORD_1":36},"indices":31,"material":2,"mode":4},{"attributes":{"NORMAL":57,"POSITION":56,"TANGENT":58,"TEXCOORD_0":59,"TEXCOORD_1":60},"indices":55,"material":1,"mode":4}]},{"name":"SM_Jar_LOD2","primitives":[{"attributes":{"NORMAL":15,"POSITION":14,"TANGENT":16,"TEXCOORD_0":17,"TEXCOORD_1":18},"indices":13,"material":0,"mode":4},{"attributes":{"NORMAL":39,"POSITION":38,"TANGENT":40,"TEXCOORD_0":41,"TEXCOORD_1":42},"indices":37,"material":2,"mode":4},{"attributes":{"NORMAL":63,"POSITION":62,"TANGENT":64,"TEXCOORD_0":65,"TEXCOORD_1":66},"indices":61,"material":1,"mode":4}]},{"name":"SM_Jar_LOD3","primitives":[{"attributes":{"NORMAL":21,"POSITION":20,"TANGENT":22,"TEXCOORD_0":23,"TEXCOORD_1":24},"indices":19,"material":0,"mode":4},{"attributes":{"NORMAL":45,"POSITION":44,"TANGENT":46,"TEXCOORD_0":47,"TEXCOORD_1":48},"indices":43,"material":2,"mode":4},{"attributes":{"NORMAL":69,"POSITION":68,"TANGENT":70,"TEXCOORD_0":71,"TEXCOORD_1":72},"indices":67,"material":1,"mode":4}]},{"name":"SM_Jar_ConvexHulls","primitives":[{"attributes":{"NORMAL":75,"POSITION":74,"TEXCOORD_0":76,"TEXCOORD_1":77},"indices":73,"material":3,"mode":4}]}],"nodes":[{"children":[1,2,3,4,5],"name":"SM_Jar_37","originalUnits":0.00999999977648258,"pivot":[0,0,0],"rotation":[0,0,0,1],"scale":[1,1,1],"translation":[0,0,0]},{"mesh":0,"name":"SM_Jar_LOD0","originalUnits":0.00999999977648258,"pivot":[0,0,0],"rotation":[0,0,0,1],"scale":[1,1,1],"translation":[0,0,0]},{"mesh":4,"name":"SM_Jar_ConvexHulls","originalUnits":0.00999999977648258,"pivot":[0,0,0],"rotation":[0,0,0,1],"scale":[1,1,1],"translation":[0,0,0]},{"mesh":1,"name":"SM_Jar_LOD1","originalUnits":0.00999999977648258,"pivot":[0,0,0],"rotation":[0,0,0,1],"scale":[1,1,1],"translation":[0,0,0]},{"mesh":2,"name":"SM_Jar_LOD2","originalUnits":0.00999999977648258,"pivot":[0,0,0],"rotation":[0,0,0,1],"scale":[1,1,1],"translation":[0,0,0]},{"mesh":3,"name":"SM_Jar_LOD3","originalUnits":0.00999999977648258,"pivot":[0,0,0],"rotation":[0,0,0,1],"scale":[1,1,1],"translation":[0,0,0]}],"samplers":[{}],"scene":0,"scenes":[{"name":"Root Scene","nodes":[0]}],"textures":[{"name":"WorldGridMaterial","sampler":0,"source":0},{"name":"WorldGridMaterial","sampler":0,"source":1},{"name":"MI_GlassProps","sampler":0,"source":2},{"name":"MI_GlassProps","sampler":0,"source":3}]}