{"accessors":[{"bufferView":0,"byteOffset":0,"componentType":5126,"count":1,"max":[0],"min":[0],"type":"SCALAR"},{"bufferView":1,"byteOffset":0,"componentType":5123,"count":20346,"type":"SCALAR"},{"bufferView":2,"byteOffset":0,"componentType":5126,"count":4894,"max":[0.624485015869141,4.12376356124878,0.419927597045898],"min":[-0.358942091465,0.0140583403408527,-0.418358117342],"type":"VEC3"},{"bufferView":3,"byteOffset":0,"componentType":5126,"count":4894,"type":"VEC3"},{"bufferView":4,"byteOffset":0,"componentType":5126,"count":4894,"type":"VEC4"},{"bufferView":5,"byteOffset":0,"componentType":5126,"count":4894,"type":"VEC2"},{"bufferView":6,"byteOffset":0,"componentType":5126,"count":4894,"type":"VEC2"},{"bufferView":7,"byteOffset":0,"componentType":5123,"count":15258,"type":"SCALAR"},{"bufferView":8,"byteOffset":0,"componentType":5126,"count":3880,"max":[0.624485015869141,4.12376356124878,0.419927597045898],"min":[-0.358942091465,0.0140583403408527,-0.418358117342],"type":"VEC3"},{"bufferView":9,"byteOffset":0,"componentType":5126,"count":3880,"type":"VEC3"},{"bufferView":10,"byteOffset":0,"componentType":5126,"count":3880,"type":"VEC4"},{"bufferView":11,"byteOffset":0,"componentType":5126,"count":3880,"type":"VEC2"},{"bufferView":12,"byteOffset":0,"componentType":5126,"count":3880,"type":"VEC2"},{"bufferView":13,"byteOffset":0,"componentType":5123,"count":10170,"type":"SCALAR"},{"bufferView":14,"byteOffset":0,"componentType":5126,"count":2691,"max":[0.624485015869141,4.12376356124878,0.420166969299316],"min":[-0.36009427905083,0.0117894792929292,-0.41858804225922],"type":"VEC3"},{"bufferView":15,"byteOffset":0,"componentType":5126,"count":2691,"type":"VEC3"},{"bufferView":16,"byteOffset":0,"componentType":5126,"count":2691,"type":"VEC4"},{"bufferView":17,"byteOffset":0,"componentType":5126,"count":2691,"type":"VEC2"},{"bufferView":18,"byteOffset":0,"componentType":5126,"count":2691,"type":"VEC2"},{"bufferView":19,"byteOffset":0,"componentType":5123,"count":2544,"type":"SCALAR"},{"bufferView":20,"byteOffset":0,"componentType":5126,"count":943,"max":[0.630466103553772,4.12832641601562,0.419866442680359],"min":[-0.37189584970474,0.0149599490687251,-0.41829639673233],"type":"VEC3"},{"bufferView":21,"byteOffset":0,"componentType":5126,"count":943,"type":"VEC3"},{"bufferView":22,"byteOffset":0,"componentType":5126,"count":943,"type":"VEC4"},{"bufferView":23,"byteOffset":0,"componentType":5126,"count":943,"type":"VEC2"},{"bufferView":24,"byteOffset":0,"componentType":5126,"count":943,"type":"VEC2"},{"bufferView":25,"byteOffset":0,"componentType":5123,"count":336,"type":"SCALAR"},{"bufferView":26,"byteOffset":0,"componentType":5126,"count":64,"max":[0.642754912376404,4.13763618469238,0.432859867811203],"min":[-0.37954697012901,0.0130537832155824,-0.42811238765717],"type":"VEC3"},{"bufferView":27,"byteOffset":0,"componentType":5126,"count":64,"type":"VEC3"},{"bufferView":28,"byteOffset":0,"componentType":5126,"count":64,"type":"VEC2"},{"bufferView":29,"byteOffset":0,"componentType":5126,"count":64,"type":"VEC2"}],"animations":[{"channels":[],"name":"Unreal Take","samplers":[]}],"asset":{"generator":"FBX2glTF v0.13.0","version":"2.0"},"bufferViews":[{"buffer":0,"byteLength":4,"byteOffset":0},{"buffer":0,"byteLength":40692,"byteOffset":4,"target":34963},{"buffer":0,"byteLength":58728,"byteOffset":40696,"target":34962},{"buffer":0,"byteLength":58728,"byteOffset":99424,"target":34962},{"buffer":0,"byteLength":78304,"byteOffset":158152,"target":34962},{"buffer":0,"byteLength":39152,"byteOffset":236456,"target":34962},{"buffer":0,"byteLength":39152,"byteOffset":275608,"target":34962},{"buffer":0,"byteLength":30516,"byteOffset":314760,"target":34963},{"buffer":0,"byteLength":46560,"byteOffset":345276,"target":34962},{"buffer":0,"byteLength":46560,"byteOffset":391836,"target":34962},{"buffer":0,"byteLength":62080,"byteOffset":438396,"target":34962},{"buffer":0,"byteLength":31040,"byteOffset":500476,"target":34962},{"buffer":0,"byteLength":31040,"byteOffset":531516,"target":34962},{"buffer":0,"byteLength":20340,"byteOffset":562556,"target":34963},{"buffer":0,"byteLength":32292,"byteOffset":582896,"target":34962},{"buffer":0,"byteLength":32292,"byteOffset":615188,"target":34962},{"buffer":0,"byteLength":43056,"byteOffset":647480,"target":34962},{"buffer":0,"byteLength":21528,"byteOffset":690536,"target":34962},{"buffer":0,"byteLength":21528,"byteOffset":712064,"target":34962},{"buffer":0,"byteLength":5088,"byteOffset":733592,"target":34963},{"buffer":0,"byteLength":11316,"byteOffset":738680,"target":34962},{"buffer":0,"byteLength":11316,"byteOffset":749996,"target":34962},{"buffer":0,"byteLength":15088,"byteOffset":761312,"target":34962},{"buffer":0,"byteLength":7544,"byteOffset":776400,"target":34962},{"buffer":0,"byteLength":7544,"byteOffset":783944,"target":34962},{"buffer":0,"byteLength":672,"byteOffset":791488,"target":34963},{"buffer":0,"byteLength":768,"byteOffset":792160,"target":34962},{"buffer":0,"byteLength":768,"byteOffset":792928,"target":34962},{"buffer":0,"byteLength":512,"byteOffset":793696,"target":34962},{"buffer":0,"byteLength":512,"byteOffset":794208,"target":34962}],"buffers":[{"byteLength":794720,"uri":"SM_Ladder.bin"}],"images":[{"name":"T_Woodprops_01_N","uri":"T_Woodprops_01_N.png"},{"name":"T_Woodprops_01_B","uri":"T_Woodprops_01_B.png"}],"materials":[{"alphaMode":"OPAQUE","doubleSided":false,"extras":{"fromFBX":{"isTruePBR":false,"shadingModel":"Phong"}},"name":"MI_Ladder","normalTexture":{"index":0,"texCoord":0},"pbrMetallicRoughness":{"baseColorFactor":[1,1,1,1],"baseColorTexture":{"index":1,"texCoord":0},"metallicFactor":0.400000005960464,"roughnessFactor":0.301511347293854}},{"alphaMode":"OPAQUE","doubleSided":false,"extras":{"fromFBX":{"isTruePBR":false,"shadingModel":"Lambert"}},"name":"DefaultMaterial","pbrMetallicRoughness":{"baseColorFactor":[0.5,0.5,0.5,1],"metallicFactor":0.200000002980232,"roughnessFactor":0.800000011920929}}],"meshes":[{"name":"SM_Ladder_LOD0","primitives":[{"attributes":{"NORMAL":3,"POSITION":2,"TANGENT":4,"TEXCOORD_0":5,"TEXCOORD_1":6},"indices":1,"material":0,"mode":4}]},{"name":"SM_Ladder_LOD1","primitives":[{"attributes":{"NORMAL":9,"POSITION":8,"TANGENT":10,"TEXCOORD_0":11,"TEXCOORD_1":12},"indices":7,"material":0,"mode":4}]},{"name":"SM_Ladder_LOD2","primitives":[{"attributes":{"NORMAL":15,"POSITION":14,"TANGENT":16,"TEXCOORD_0":17,"TEXCOORD_1":18},"indices":13,"material":0,"mode":4}]},{"name":"SM_Ladder_LOD3","primitives":[{"attributes":{"NORMAL":21,"POSITION":20,"TANGENT":22,"TEXCOORD_0":23,"TEXCOORD_1":24},"indices":19,"material":0,"mode":4}]},{"name":"SM_Ladder_ConvexHulls","primitives":[{"attributes":{"NORMAL":27,"POSITION":26,"TEXCOORD_0":28,"TEXCOORD_1":29},"indices":25,"material":1,"mode":4}]}],"nodes":[{"children":[1,2,3,4,5],"name":"Ladder3_34","originalUnits":0.00999999977648258,"pivot":[0,0,0],"rotation":[0,0,0,1],"scale":[1,1,1],"translation":[0,0,0]},{"mesh":0,"name":"SM_Ladder_LOD0","originalUnits":0.00999999977648258,"pivot":[0,0,0],"rotation":[0,0,0,1],"scale":[1,1,1],"translation":[0,0,0]},{"mesh":4,"name":"SM_Ladder_ConvexHulls","originalUnits":0.00999999977648258,"pivot":[0,0,0],"rotation":[0,0,0,1],"scale":[1,1,1],"translation":[0,0,0]},{"mesh":1,"name":"SM_Ladder_LOD1","originalUnits":0.00999999977648258,"pivot":[0,0,0],"rotation":[0,0,0,1],"scale":[1,1,1],"translation":[0,0,0]},{"mesh":2,"name":"SM_Ladder_LOD2","originalUnits":0.00999999977648258,"pivot":[0,0,0],"rotation":[0,0,0,1],"scale":[1,1,1],"translation":[0,0,0]},{"mesh":3,"name":"SM_Ladder_LOD3","originalUnits":0.00999999977648258,"pivot":[0,0,0],"rotation":[0,0,0,1],"scale":[1,1,1],"translation":[0,0,0]}],"samplers":[{}],"scene":0,"scenes":[{"name":"Root Scene","nodes":[0]}],"textures":[{"name":"MI_Ladder","sampler":0,"source":0},{"name":"MI_Ladder","sampler":0,"source":1}]}