{"accessors":[{"bufferView":0,"byteOffset":0,"componentType":5126,"count":1,"max":[0],"min":[0],"type":"SCALAR"},{"bufferView":1,"byteOffset":0,"componentType":5123,"count":120,"type":"SCALAR"},{"bufferView":2,"byteOffset":0,"componentType":5126,"count":56,"max":[0.00000000273478062418064,0.170835569500923,0.192882433533669],"min":[-2.8749475479126,-0.17083556950092,-0.19288243353367],"type":"VEC3"},{"bufferView":3,"byteOffset":0,"componentType":5126,"count":56,"type":"VEC3"},{"bufferView":4,"byteOffset":0,"componentType":5126,"count":56,"type":"VEC4"},{"bufferView":5,"byteOffset":0,"componentType":5126,"count":56,"type":"VEC2"},{"bufferView":6,"byteOffset":0,"componentType":5126,"count":56,"type":"VEC2"},{"bufferView":7,"byteOffset":0,"componentType":5123,"count":90,"type":"SCALAR"},{"bufferView":8,"byteOffset":0,"componentType":5126,"count":46,"max":[0.0000122203837236157,0.170835569500923,0.192882433533669],"min":[-2.8749520778656,-0.17083556950092,-0.19288243353367],"type":"VEC3"},{"bufferView":9,"byteOffset":0,"componentType":5126,"count":46,"type":"VEC3"},{"bufferView":10,"byteOffset":0,"componentType":5126,"count":46,"type":"VEC4"},{"bufferView":11,"byteOffset":0,"componentType":5126,"count":46,"type":"VEC2"},{"bufferView":12,"byteOffset":0,"componentType":5126,"count":46,"type":"VEC2"},{"bufferView":13,"byteOffset":0,"componentType":5123,"count":60,"type":"SCALAR"},{"bufferView":14,"byteOffset":0,"componentType":5126,"count":36,"max":[0.00000000568421709701283,0.145127326250076,0.193242967128754],"min":[-2.8749520778656,-0.17081573605537,-0.19288243353367],"type":"VEC3"},{"bufferView":15,"byteOffset":0,"componentType":5126,"count":36,"type":"VEC3"},{"bufferView":16,"byteOffset":0,"componentType":5126,"count":36,"type":"VEC4"},{"bufferView":17,"byteOffset":0,"componentType":5126,"count":36,"type":"VEC2"},{"bufferView":18,"byteOffset":0,"componentType":5126,"count":36,"type":"VEC2"},{"bufferView":19,"byteOffset":0,"componentType":5123,"count":12,"type":"SCALAR"},{"bufferView":20,"byteOffset":0,"componentType":5126,"count":12,"max":[0.00433722324669361,0.287374019622803,0.190126851201057],"min":[-2.64014983177185,-0.20023958384991,-0.2872174680233],"type":"VEC3"},{"bufferView":21,"byteOffset":0,"componentType":5126,"count":12,"type":"VEC3"},{"bufferView":22,"byteOffset":0,"componentType":5126,"count":12,"type":"VEC4"},{"bufferView":23,"byteOffset":0,"componentType":5126,"count":12,"type":"VEC2"},{"bufferView":24,"byteOffset":0,"componentType":5126,"count":12,"type":"VEC2"},{"bufferView":25,"byteOffset":0,"componentType":5123,"count":312,"type":"SCALAR"},{"bufferView":26,"byteOffset":0,"componentType":5126,"count":60,"max":[0.00992827862501144,0.191219747066498,0.212450608611107],"min":[-2.88456463813782,-0.19108287990093,-0.21335281431675],"type":"VEC3"},{"bufferView":27,"byteOffset":0,"componentType":5126,"count":60,"type":"VEC3"},{"bufferView":28,"byteOffset":0,"componentType":5126,"count":60,"type":"VEC2"},{"bufferView":29,"byteOffset":0,"componentType":5126,"count":60,"type":"VEC2"}],"animations":[{"channels":[],"name":"Unreal Take","samplers":[]}],"asset":{"generator":"FBX2glTF v0.13.0","version":"2.0"},"bufferViews":[{"buffer":0,"byteLength":4,"byteOffset":0},{"buffer":0,"byteLength":240,"byteOffset":4,"target":34963},{"buffer":0,"byteLength":672,"byteOffset":244,"target":34962},{"buffer":0,"byteLength":672,"byteOffset":916,"target":34962},{"buffer":0,"byteLength":896,"byteOffset":1588,"target":34962},{"buffer":0,"byteLength":448,"byteOffset":2484,"target":34962},{"buffer":0,"byteLength":448,"byteOffset":2932,"target":34962},{"buffer":0,"byteLength":180,"byteOffset":3380,"target":34963},{"buffer":0,"byteLength":552,"byteOffset":3560,"target":34962},{"buffer":0,"byteLength":552,"byteOffset":4112,"target":34962},{"buffer":0,"byteLength":736,"byteOffset":4664,"target":34962},{"buffer":0,"byteLength":368,"byteOffset":5400,"target":34962},{"buffer":0,"byteLength":368,"byteOffset":5768,"target":34962},{"buffer":0,"byteLength":120,"byteOffset":6136,"target":34963},{"buffer":0,"byteLength":432,"byteOffset":6256,"target":34962},{"buffer":0,"byteLength":432,"byteOffset":6688,"target":34962},{"buffer":0,"byteLength":576,"byteOffset":7120,"target":34962},{"buffer":0,"byteLength":288,"byteOffset":7696,"target":34962},{"buffer":0,"byteLength":288,"byteOffset":7984,"target":34962},{"buffer":0,"byteLength":24,"byteOffset":8272,"target":34963},{"buffer":0,"byteLength":144,"byteOffset":8296,"target":34962},{"buffer":0,"byteLength":144,"byteOffset":8440,"target":34962},{"buffer":0,"byteLength":192,"byteOffset":8584,"target":34962},{"buffer":0,"byteLength":96,"byteOffset":8776,"target":34962},{"buffer":0,"byteLength":96,"byteOffset":8872,"target":34962},{"buffer":0,"byteLength":624,"byteOffset":8968,"target":34963},{"buffer":0,"byteLength":720,"byteOffset":9592,"target":34962},{"buffer":0,"byteLength":720,"byteOffset":10312,"target":34962},{"buffer":0,"byteLength":480,"byteOffset":11032,"target":34962},{"buffer":0,"byteLength":480,"byteOffset":11512,"target":34962}],"buffers":[{"byteLength":11992,"uri":"SM_Metal_beams_Short.bin"}],"images":[{"name":"T_Structures_N","uri":"T_Structures_N.png"},{"name":"T_Structures_B","uri":"T_Structures_B.png"}],"materials":[{"alphaMode":"OPAQUE","doubleSided":false,"extras":{"fromFBX":{"isTruePBR":false,"shadingModel":"Phong"}},"name":"MI_MetalBeams","normalTexture":{"index":0,"texCoord":0},"pbrMetallicRoughness":{"baseColorFactor":[1,1,1,1],"baseColorTexture":{"index":1,"texCoord":0},"metallicFactor":0.400000005960464,"roughnessFactor":0.301511347293854}},{"alphaMode":"OPAQUE","doubleSided":false,"extras":{"fromFBX":{"isTruePBR":false,"shadingModel":"Lambert"}},"name":"DefaultMaterial","pbrMetallicRoughness":{"baseColorFactor":[0.5,0.5,0.5,1],"metallicFactor":0.200000002980232,"roughnessFactor":0.800000011920929}}],"meshes":[{"name":"SM_Metal_beams_Short_LOD0","primitives":[{"attributes":{"NORMAL":3,"POSITION":2,"TANGENT":4,"TEXCOORD_0":5,"TEXCOORD_1":6},"indices":1,"material":0,"mode":4}]},{"name":"SM_Metal_beams_Short_LOD1","primitives":[{"attributes":{"NORMAL":9,"POSITION":8,"TANGENT":10,"TEXCOORD_0":11,"TEXCOORD_1":12},"indices":7,"material":0,"mode":4}]},{"name":"SM_Metal_beams_Short_LOD2","primitives":[{"attributes":{"NORMAL":15,"POSITION":14,"TANGENT":16,"TEXCOORD_0":17,"TEXCOORD_1":18},"indices":13,"material":0,"mode":4}]},{"name":"SM_Metal_beams_Short_LOD3","primitives":[{"attributes":{"NORMAL":21,"POSITION":20,"TANGENT":22,"TEXCOORD_0":23,"TEXCOORD_1":24},"indices":19,"material":0,"mode":4}]},{"name":"SM_Metal_beams_Short_ConvexHulls","primitives":[{"attributes":{"NORMAL":27,"POSITION":26,"TEXCOORD_0":28,"TEXCOORD_1":29},"indices":25,"material":1,"mode":4}]}],"nodes":[{"children":[1,2,3,4,5],"name":"SM_Metal_beams_Short_42","originalUnits":0.00999999977648258,"pivot":[0,0,0],"rotation":[0,0,0,1],"scale":[1,1,1],"translation":[0,0,0]},{"mesh":0,"name":"SM_Metal_beams_Short_LOD0","originalUnits":0.00999999977648258,"pivot":[0,0,0],"rotation":[0,0,0,1],"scale":[1,1,1],"translation":[0,0,0]},{"mesh":4,"name":"SM_Metal_beams_Short_ConvexHulls","originalUnits":0.00999999977648258,"pivot":[0,0,0],"rotation":[0,0,0,1],"scale":[1,1,1],"translation":[0,0,0]},{"mesh":1,"name":"SM_Metal_beams_Short_LOD1","originalUnits":0.00999999977648258,"pivot":[0,0,0],"rotation":[0,0,0,1],"scale":[1,1,1],"translation":[0,0,0]},{"mesh":2,"name":"SM_Metal_beams_Short_LOD2","originalUnits":0.00999999977648258,"pivot":[0,0,0],"rotation":[0,0,0,1],"scale":[1,1,1],"translation":[0,0,0]},{"mesh":3,"name":"SM_Metal_beams_Short_LOD3","originalUnits":0.00999999977648258,"pivot":[0,0,0],"rotation":[0,0,0,1],"scale":[1,1,1],"translation":[0,0,0]}],"samplers":[{}],"scene":0,"scenes":[{"name":"Root Scene","nodes":[0]}],"textures":[{"name":"MI_MetalBeams","sampler":0,"source":0},{"name":"MI_MetalBeams","sampler":0,"source":1}]}