{"accessors":[{"bufferView":0,"byteOffset":0,"componentType":5126,"count":1,"max":[0],"min":[0],"type":"SCALAR"},{"bufferView":1,"byteOffset":0,"componentType":5123,"count":2622,"type":"SCALAR"},{"bufferView":2,"byteOffset":0,"componentType":5126,"count":507,"max":[0.00000000461871740853326,0.0639514178037643,0.345065176486969],"min":[-0.3042454123497,-0.06395110487938,-0.34506517648697],"type":"VEC3"},{"bufferView":3,"byteOffset":0,"componentType":5126,"count":507,"type":"VEC3"},{"bufferView":4,"byteOffset":0,"componentType":5126,"count":507,"type":"VEC4"},{"bufferView":5,"byteOffset":0,"componentType":5126,"count":507,"type":"VEC2"},{"bufferView":6,"byteOffset":0,"componentType":5126,"count":507,"type":"VEC2"},{"bufferView":7,"byteOffset":0,"componentType":5123,"count":1968,"type":"SCALAR"},{"bufferView":8,"byteOffset":0,"componentType":5126,"count":398,"max":[0.00000000461871740853326,0.0639514178037643,0.345065176486969],"min":[-0.3042454123497,-0.06395110487938,-0.34506517648697],"type":"VEC3"},{"bufferView":9,"byteOffset":0,"componentType":5126,"count":398,"type":"VEC3"},{"bufferView":10,"byteOffset":0,"componentType":5126,"count":398,"type":"VEC4"},{"bufferView":11,"byteOffset":0,"componentType":5126,"count":398,"type":"VEC2"},{"bufferView":12,"byteOffset":0,"componentType":5126,"count":398,"type":"VEC2"},{"bufferView":13,"byteOffset":0,"componentType":5123,"count":1308,"type":"SCALAR"},{"bufferView":14,"byteOffset":0,"componentType":5126,"count":288,"max":[0.00000000461871740853326,0.0639514178037643,0.345065176486969],"min":[-0.3042454123497,-0.06395110487938,-0.34506517648697],"type":"VEC3"},{"bufferView":15,"byteOffset":0,"componentType":5126,"count":288,"type":"VEC3"},{"bufferView":16,"byteOffset":0,"componentType":5126,"count":288,"type":"VEC4"},{"bufferView":17,"byteOffset":0,"componentType":5126,"count":288,"type":"VEC2"},{"bufferView":18,"byteOffset":0,"componentType":5126,"count":288,"type":"VEC2"},{"bufferView":19,"byteOffset":0,"componentType":5123,"count":327,"type":"SCALAR"},{"bufferView":20,"byteOffset":0,"componentType":5126,"count":123,"max":[0.0000174442411662312,0.0639514178037643,0.354732155799866],"min":[-0.29531401395798,-0.06444761902094,-0.34915453195572],"type":"VEC3"},{"bufferView":21,"byteOffset":0,"componentType":5126,"count":123,"type":"VEC3"},{"bufferView":22,"byteOffset":0,"componentType":5126,"count":123,"type":"VEC4"},{"bufferView":23,"byteOffset":0,"componentType":5126,"count":123,"type":"VEC2"},{"bufferView":24,"byteOffset":0,"componentType":5126,"count":123,"type":"VEC2"},{"bufferView":25,"byteOffset":0,"componentType":5123,"count":288,"type":"SCALAR"},{"bufferView":26,"byteOffset":0,"componentType":5126,"count":56,"max":[0.00260056764818728,0.0673782974481583,0.34672424197197],"min":[-0.3053677380085,-0.0666576102376,-0.34672477841377],"type":"VEC3"},{"bufferView":27,"byteOffset":0,"componentType":5126,"count":56,"type":"VEC3"},{"bufferView":28,"byteOffset":0,"componentType":5126,"count":56,"type":"VEC2"},{"bufferView":29,"byteOffset":0,"componentType":5126,"count":56,"type":"VEC2"}],"animations":[{"channels":[],"name":"Unreal Take","samplers":[]}],"asset":{"generator":"FBX2glTF v0.13.0","version":"2.0"},"bufferViews":[{"buffer":0,"byteLength":4,"byteOffset":0},{"buffer":0,"byteLength":5244,"byteOffset":4,"target":34963},{"buffer":0,"byteLength":6084,"byteOffset":5248,"target":34962},{"buffer":0,"byteLength":6084,"byteOffset":11332,"target":34962},{"buffer":0,"byteLength":8112,"byteOffset":17416,"target":34962},{"buffer":0,"byteLength":4056,"byteOffset":25528,"target":34962},{"buffer":0,"byteLength":4056,"byteOffset":29584,"target":34962},{"buffer":0,"byteLength":3936,"byteOffset":33640,"target":34963},{"buffer":0,"byteLength":4776,"byteOffset":37576,"target":34962},{"buffer":0,"byteLength":4776,"byteOffset":42352,"target":34962},{"buffer":0,"byteLength":6368,"byteOffset":47128,"target":34962},{"buffer":0,"byteLength":3184,"byteOffset":53496,"target":34962},{"buffer":0,"byteLength":3184,"byteOffset":56680,"target":34962},{"buffer":0,"byteLength":2616,"byteOffset":59864,"target":34963},{"buffer":0,"byteLength":3456,"byteOffset":62480,"target":34962},{"buffer":0,"byteLength":3456,"byteOffset":65936,"target":34962},{"buffer":0,"byteLength":4608,"byteOffset":69392,"target":34962},{"buffer":0,"byteLength":2304,"byteOffset":74000,"target":34962},{"buffer":0,"byteLength":2304,"byteOffset":76304,"target":34962},{"buffer":0,"byteLength":654,"byteOffset":78608,"target":34963},{"buffer":0,"byteLength":1476,"byteOffset":79264,"target":34962},{"buffer":0,"byteLength":1476,"byteOffset":80740,"target":34962},{"buffer":0,"byteLength":1968,"byteOffset":82216,"target":34962},{"buffer":0,"byteLength":984,"byteOffset":84184,"target":34962},{"buffer":0,"byteLength":984,"byteOffset":85168,"target":34962},{"buffer":0,"byteLength":576,"byteOffset":86152,"target":34963},{"buffer":0,"byteLength":672,"byteOffset":86728,"target":34962},{"buffer":0,"byteLength":672,"byteOffset":87400,"target":34962},{"buffer":0,"byteLength":448,"byteOffset":88072,"target":34962},{"buffer":0,"byteLength":448,"byteOffset":88520,"target":34962}],"buffers":[{"byteLength":88968,"uri":"SM_Metal_Plate.bin"}],"images":[{"name":"T_Structures_N","uri":"T_Structures_N.png"},{"name":"T_Structures_B","uri":"T_Structures_B.png"}],"materials":[{"alphaMode":"OPAQUE","doubleSided":false,"extras":{"fromFBX":{"isTruePBR":false,"shadingModel":"Phong"}},"name":"MI_MetalPlates","normalTexture":{"index":0,"texCoord":0},"pbrMetallicRoughness":{"baseColorFactor":[1,1,1,1],"baseColorTexture":{"index":1,"texCoord":0},"metallicFactor":0.400000005960464,"roughnessFactor":0.301511347293854}},{"alphaMode":"OPAQUE","doubleSided":false,"extras":{"fromFBX":{"isTruePBR":false,"shadingModel":"Lambert"}},"name":"DefaultMaterial","pbrMetallicRoughness":{"baseColorFactor":[0.5,0.5,0.5,1],"metallicFactor":0.200000002980232,"roughnessFactor":0.800000011920929}}],"meshes":[{"name":"SM_Metal_Plate_LOD0","primitives":[{"attributes":{"NORMAL":3,"POSITION":2,"TANGENT":4,"TEXCOORD_0":5,"TEXCOORD_1":6},"indices":1,"material":0,"mode":4}]},{"name":"SM_Metal_Plate_LOD1","primitives":[{"attributes":{"NORMAL":9,"POSITION":8,"TANGENT":10,"TEXCOORD_0":11,"TEXCOORD_1":12},"indices":7,"material":0,"mode":4}]},{"name":"SM_Metal_Plate_LOD2","primitives":[{"attributes":{"NORMAL":15,"POSITION":14,"TANGENT":16,"TEXCOORD_0":17,"TEXCOORD_1":18},"indices":13,"material":0,"mode":4}]},{"name":"SM_Metal_Plate_LOD3","primitives":[{"attributes":{"NORMAL":21,"POSITION":20,"TANGENT":22,"TEXCOORD_0":23,"TEXCOORD_1":24},"indices":19,"material":0,"mode":4}]},{"name":"SM_Metal_Plate_ConvexHulls","primitives":[{"attributes":{"NORMAL":27,"POSITION":26,"TEXCOORD_0":28,"TEXCOORD_1":29},"indices":25,"material":1,"mode":4}]}],"nodes":[{"children":[1,2,3,4,5],"name":"SM_Metal_Plate_43","originalUnits":0.00999999977648258,"pivot":[0,0,0],"rotation":[0,0,0,1],"scale":[1,1,1],"translation":[0,0,0]},{"mesh":0,"name":"SM_Metal_Plate_LOD0","originalUnits":0.00999999977648258,"pivot":[0,0,0],"rotation":[0,0,0,1],"scale":[1,1,1],"translation":[0,0,0]},{"mesh":4,"name":"SM_Metal_Plate_ConvexHulls","originalUnits":0.00999999977648258,"pivot":[0,0,0],"rotation":[0,0,0,1],"scale":[1,1,1],"translation":[0,0,0]},{"mesh":1,"name":"SM_Metal_Plate_LOD1","originalUnits":0.00999999977648258,"pivot":[0,0,0],"rotation":[0,0,0,1],"scale":[1,1,1],"translation":[0,0,0]},{"mesh":2,"name":"SM_Metal_Plate_LOD2","originalUnits":0.00999999977648258,"pivot":[0,0,0],"rotation":[0,0,0,1],"scale":[1,1,1],"translation":[0,0,0]},{"mesh":3,"name":"SM_Metal_Plate_LOD3","originalUnits":0.00999999977648258,"pivot":[0,0,0],"rotation":[0,0,0,1],"scale":[1,1,1],"translation":[0,0,0]}],"samplers":[{}],"scene":0,"scenes":[{"name":"Root Scene","nodes":[0]}],"textures":[{"name":"MI_MetalPlates","sampler":0,"source":0},{"name":"MI_MetalPlates","sampler":0,"source":1}]}