{"accessors":[{"bufferView":0,"byteOffset":0,"componentType":5126,"count":1,"max":[0],"min":[0],"type":"SCALAR"},{"bufferView":1,"byteOffset":0,"componentType":5123,"count":2196,"type":"SCALAR"},{"bufferView":2,"byteOffset":0,"componentType":5126,"count":472,"max":[0.0353280641138554,0.172253623604774,0.0608220100402832],"min":[-0.03532806038857,-0.17225362360477,-0.06082201004028],"type":"VEC3"},{"bufferView":3,"byteOffset":0,"componentType":5126,"count":472,"type":"VEC3"},{"bufferView":4,"byteOffset":0,"componentType":5126,"count":472,"type":"VEC4"},{"bufferView":5,"byteOffset":0,"componentType":5126,"count":472,"type":"VEC2"},{"bufferView":6,"byteOffset":0,"componentType":5126,"count":472,"type":"VEC2"},{"bufferView":7,"byteOffset":0,"componentType":5123,"count":1647,"type":"SCALAR"},{"bufferView":8,"byteOffset":0,"componentType":5126,"count":373,"max":[0.0354662239551544,0.172231152653694,0.0610381923615932],"min":[-0.03549401834607,-0.17225356400013,-0.06091215834022],"type":"VEC3"},{"bufferView":9,"byteOffset":0,"componentType":5126,"count":373,"type":"VEC3"},{"bufferView":10,"byteOffset":0,"componentType":5126,"count":373,"type":"VEC4"},{"bufferView":11,"byteOffset":0,"componentType":5126,"count":373,"type":"VEC2"},{"bufferView":12,"byteOffset":0,"componentType":5126,"count":373,"type":"VEC2"},{"bufferView":13,"byteOffset":0,"componentType":5123,"count":1098,"type":"SCALAR"},{"bufferView":14,"byteOffset":0,"componentType":5126,"count":255,"max":[0.0362055860459805,0.171971648931503,0.0615218691527843],"min":[-0.03549401834607,-0.17225356400013,-0.06074304506183],"type":"VEC3"},{"bufferView":15,"byteOffset":0,"componentType":5126,"count":255,"type":"VEC3"},{"bufferView":16,"byteOffset":0,"componentType":5126,"count":255,"type":"VEC4"},{"bufferView":17,"byteOffset":0,"componentType":5126,"count":255,"type":"VEC2"},{"bufferView":18,"byteOffset":0,"componentType":5126,"count":255,"type":"VEC2"},{"bufferView":19,"byteOffset":0,"componentType":5123,"count":276,"type":"SCALAR"},{"bufferView":20,"byteOffset":0,"componentType":5126,"count":83,"max":[0.0361756384372711,0.172844380140305,0.0608220100402832],"min":[-0.03706422448158,-0.17234440147877,-0.0601827763021],"type":"VEC3"},{"bufferView":21,"byteOffset":0,"componentType":5126,"count":83,"type":"VEC3"},{"bufferView":22,"byteOffset":0,"componentType":5126,"count":83,"type":"VEC4"},{"bufferView":23,"byteOffset":0,"componentType":5126,"count":83,"type":"VEC2"},{"bufferView":24,"byteOffset":0,"componentType":5126,"count":83,"type":"VEC2"},{"bufferView":25,"byteOffset":0,"componentType":5123,"count":168,"type":"SCALAR"},{"bufferView":26,"byteOffset":0,"componentType":5126,"count":32,"max":[0.0328536666929722,0.171256601810455,0.0583836250007153],"min":[-0.03205022588372,-0.17127256095409,-0.05931859835982],"type":"VEC3"},{"bufferView":27,"byteOffset":0,"componentType":5126,"count":32,"type":"VEC3"},{"bufferView":28,"byteOffset":0,"componentType":5126,"count":32,"type":"VEC2"},{"bufferView":29,"byteOffset":0,"componentType":5126,"count":32,"type":"VEC2"}],"animations":[{"channels":[],"name":"Unreal Take","samplers":[]}],"asset":{"generator":"FBX2glTF v0.13.0","version":"2.0"},"bufferViews":[{"buffer":0,"byteLength":4,"byteOffset":0},{"buffer":0,"byteLength":4392,"byteOffset":4,"target":34963},{"buffer":0,"byteLength":5664,"byteOffset":4396,"target":34962},{"buffer":0,"byteLength":5664,"byteOffset":10060,"target":34962},{"buffer":0,"byteLength":7552,"byteOffset":15724,"target":34962},{"buffer":0,"byteLength":3776,"byteOffset":23276,"target":34962},{"buffer":0,"byteLength":3776,"byteOffset":27052,"target":34962},{"buffer":0,"byteLength":3294,"byteOffset":30828,"target":34963},{"buffer":0,"byteLength":4476,"byteOffset":34124,"target":34962},{"buffer":0,"byteLength":4476,"byteOffset":38600,"target":34962},{"buffer":0,"byteLength":5968,"byteOffset":43076,"target":34962},{"buffer":0,"byteLength":2984,"byteOffset":49044,"target":34962},{"buffer":0,"byteLength":2984,"byteOffset":52028,"target":34962},{"buffer":0,"byteLength":2196,"byteOffset":55012,"target":34963},{"buffer":0,"byteLength":3060,"byteOffset":57208,"target":34962},{"buffer":0,"byteLength":3060,"byteOffset":60268,"target":34962},{"buffer":0,"byteLength":4080,"byteOffset":63328,"target":34962},{"buffer":0,"byteLength":2040,"byteOffset":67408,"target":34962},{"buffer":0,"byteLength":2040,"byteOffset":69448,"target":34962},{"buffer":0,"byteLength":552,"byteOffset":71488,"target":34963},{"buffer":0,"byteLength":996,"byteOffset":72040,"target":34962},{"buffer":0,"byteLength":996,"byteOffset":73036,"target":34962},{"buffer":0,"byteLength":1328,"byteOffset":74032,"target":34962},{"buffer":0,"byteLength":664,"byteOffset":75360,"target":34962},{"buffer":0,"byteLength":664,"byteOffset":76024,"target":34962},{"buffer":0,"byteLength":336,"byteOffset":76688,"target":34963},{"buffer":0,"byteLength":384,"byteOffset":77024,"target":34962},{"buffer":0,"byteLength":384,"byteOffset":77408,"target":34962},{"buffer":0,"byteLength":256,"byteOffset":77792,"target":34962},{"buffer":0,"byteLength":256,"byteOffset":78048,"target":34962}],"buffers":[{"byteLength":78304,"uri":"SM_Mallet_01.bin"}],"images":[{"name":"T_Tools_N","uri":"T_Tools_N.png"},{"name":"T_Tools_B","uri":"T_Tools_B.png"}],"materials":[{"alphaMode":"OPAQUE","doubleSided":false,"extras":{"fromFBX":{"isTruePBR":false,"shadingModel":"Phong"}},"name":"MI_Tools_02","normalTexture":{"index":0,"texCoord":0},"pbrMetallicRoughness":{"baseColorFactor":[1,1,1,1],"baseColorTexture":{"index":1,"texCoord":0},"metallicFactor":0.400000005960464,"roughnessFactor":0.301511347293854}},{"alphaMode":"OPAQUE","doubleSided":false,"extras":{"fromFBX":{"isTruePBR":false,"shadingModel":"Lambert"}},"name":"DefaultMaterial","pbrMetallicRoughness":{"baseColorFactor":[0.5,0.5,0.5,1],"metallicFactor":0.200000002980232,"roughnessFactor":0.800000011920929}}],"meshes":[{"name":"SM_Mallet_01_LOD0","primitives":[{"attributes":{"NORMAL":3,"POSITION":2,"TANGENT":4,"TEXCOORD_0":5,"TEXCOORD_1":6},"indices":1,"material":0,"mode":4}]},{"name":"SM_Mallet_01_LOD1","primitives":[{"attributes":{"NORMAL":9,"POSITION":8,"TANGENT":10,"TEXCOORD_0":11,"TEXCOORD_1":12},"indices":7,"material":0,"mode":4}]},{"name":"SM_Mallet_01_LOD2","primitives":[{"attributes":{"NORMAL":15,"POSITION":14,"TANGENT":16,"TEXCOORD_0":17,"TEXCOORD_1":18},"indices":13,"material":0,"mode":4}]},{"name":"SM_Mallet_01_LOD3","primitives":[{"attributes":{"NORMAL":21,"POSITION":20,"TANGENT":22,"TEXCOORD_0":23,"TEXCOORD_1":24},"indices":19,"material":0,"mode":4}]},{"name":"SM_Mallet_01_ConvexHulls","primitives":[{"attributes":{"NORMAL":27,"POSITION":26,"TEXCOORD_0":28,"TEXCOORD_1":29},"indices":25,"material":1,"mode":4}]}],"nodes":[{"children":[1,2,3,4,5],"name":"SM_Mallet_01_40","originalUnits":0.00999999977648258,"pivot":[0,0,0],"rotation":[0,0,0,1],"scale":[1,1,1],"translation":[0,0,0]},{"mesh":0,"name":"SM_Mallet_01_LOD0","originalUnits":0.00999999977648258,"pivot":[0,0,0],"rotation":[0,0,0,1],"scale":[1,1,1],"translation":[0,0,0]},{"mesh":4,"name":"SM_Mallet_01_ConvexHulls","originalUnits":0.00999999977648258,"pivot":[0,0,0],"rotation":[0,0,0,1],"scale":[1,1,1],"translation":[0,0,0]},{"mesh":1,"name":"SM_Mallet_01_LOD1","originalUnits":0.00999999977648258,"pivot":[0,0,0],"rotation":[0,0,0,1],"scale":[1,1,1],"translation":[0,0,0]},{"mesh":2,"name":"SM_Mallet_01_LOD2","originalUnits":0.00999999977648258,"pivot":[0,0,0],"rotation":[0,0,0,1],"scale":[1,1,1],"translation":[0,0,0]},{"mesh":3,"name":"SM_Mallet_01_LOD3","originalUnits":0.00999999977648258,"pivot":[0,0,0],"rotation":[0,0,0,1],"scale":[1,1,1],"translation":[0,0,0]}],"samplers":[{}],"scene":0,"scenes":[{"name":"Root Scene","nodes":[0]}],"textures":[{"name":"MI_Tools_02","sampler":0,"source":0},{"name":"MI_Tools_02","sampler":0,"source":1}]}