{"accessors":[{"bufferView":0,"byteOffset":0,"componentType":5126,"count":1,"max":[0],"min":[0],"type":"SCALAR"},{"bufferView":1,"byteOffset":0,"componentType":5123,"count":360,"type":"SCALAR"},{"bufferView":2,"byteOffset":0,"componentType":5126,"count":180,"max":[8.62494564056396,0.170835569500923,0.192883417010307],"min":[-0.00000000435197,-0.17083564400673,-0.19288325309753],"type":"VEC3"},{"bufferView":3,"byteOffset":0,"componentType":5126,"count":180,"type":"VEC3"},{"bufferView":4,"byteOffset":0,"componentType":5126,"count":180,"type":"VEC4"},{"bufferView":5,"byteOffset":0,"componentType":5126,"count":180,"type":"VEC2"},{"bufferView":6,"byteOffset":0,"componentType":5126,"count":180,"type":"VEC2"},{"bufferView":7,"byteOffset":0,"componentType":5123,"count":270,"type":"SCALAR"},{"bufferView":8,"byteOffset":0,"componentType":5126,"count":150,"max":[8.62495136260986,0.170835569500923,0.192883417010307],"min":[-0.00001181590687,-0.17083564400673,-0.19288325309753],"type":"VEC3"},{"bufferView":9,"byteOffset":0,"componentType":5126,"count":150,"type":"VEC3"},{"bufferView":10,"byteOffset":0,"componentType":5126,"count":150,"type":"VEC4"},{"bufferView":11,"byteOffset":0,"componentType":5126,"count":150,"type":"VEC2"},{"bufferView":12,"byteOffset":0,"componentType":5126,"count":150,"type":"VEC2"},{"bufferView":13,"byteOffset":0,"componentType":5123,"count":180,"type":"SCALAR"},{"bufferView":14,"byteOffset":0,"componentType":5126,"count":120,"max":[8.62497997283936,0.145128160715103,0.198873966932297],"min":[-0.00000016165406,-0.26934272050858,-0.19326190650463],"type":"VEC3"},{"bufferView":15,"byteOffset":0,"componentType":5126,"count":120,"type":"VEC3"},{"bufferView":16,"byteOffset":0,"componentType":5126,"count":120,"type":"VEC4"},{"bufferView":17,"byteOffset":0,"componentType":5126,"count":120,"type":"VEC2"},{"bufferView":18,"byteOffset":0,"componentType":5126,"count":120,"type":"VEC2"},{"bufferView":19,"byteOffset":0,"componentType":5123,"count":45,"type":"SCALAR"},{"bufferView":20,"byteOffset":0,"componentType":5126,"count":45,"max":[8.63845443725586,0.334080904722214,0.208591341972351],"min":[0.238518550992012,-0.26341670751572,-0.28292834758759],"type":"VEC3"},{"bufferView":21,"byteOffset":0,"componentType":5126,"count":45,"type":"VEC3"},{"bufferView":22,"byteOffset":0,"componentType":5126,"count":45,"type":"VEC4"},{"bufferView":23,"byteOffset":0,"componentType":5126,"count":45,"type":"VEC2"},{"bufferView":24,"byteOffset":0,"componentType":5126,"count":45,"type":"VEC2"},{"bufferView":25,"byteOffset":0,"componentType":5123,"count":150,"type":"SCALAR"},{"bufferView":26,"byteOffset":0,"componentType":5126,"count":33,"max":[8.64034748077393,0.183403298258781,0.222920209169388],"min":[-0.01540161576122,-0.18622833490372,-0.20828498899937],"type":"VEC3"},{"bufferView":27,"byteOffset":0,"componentType":5126,"count":33,"type":"VEC3"},{"bufferView":28,"byteOffset":0,"componentType":5126,"count":33,"type":"VEC2"},{"bufferView":29,"byteOffset":0,"componentType":5126,"count":33,"type":"VEC2"}],"animations":[{"channels":[],"name":"Unreal Take","samplers":[]}],"asset":{"generator":"FBX2glTF v0.13.0","version":"2.0"},"bufferViews":[{"buffer":0,"byteLength":4,"byteOffset":0},{"buffer":0,"byteLength":720,"byteOffset":4,"target":34963},{"buffer":0,"byteLength":2160,"byteOffset":724,"target":34962},{"buffer":0,"byteLength":2160,"byteOffset":2884,"target":34962},{"buffer":0,"byteLength":2880,"byteOffset":5044,"target":34962},{"buffer":0,"byteLength":1440,"byteOffset":7924,"target":34962},{"buffer":0,"byteLength":1440,"byteOffset":9364,"target":34962},{"buffer":0,"byteLength":540,"byteOffset":10804,"target":34963},{"buffer":0,"byteLength":1800,"byteOffset":11344,"target":34962},{"buffer":0,"byteLength":1800,"byteOffset":13144,"target":34962},{"buffer":0,"byteLength":2400,"byteOffset":14944,"target":34962},{"buffer":0,"byteLength":1200,"byteOffset":17344,"target":34962},{"buffer":0,"byteLength":1200,"byteOffset":18544,"target":34962},{"buffer":0,"byteLength":360,"byteOffset":19744,"target":34963},{"buffer":0,"byteLength":1440,"byteOffset":20104,"target":34962},{"buffer":0,"byteLength":1440,"byteOffset":21544,"target":34962},{"buffer":0,"byteLength":1920,"byteOffset":22984,"target":34962},{"buffer":0,"byteLength":960,"byteOffset":24904,"target":34962},{"buffer":0,"byteLength":960,"byteOffset":25864,"target":34962},{"buffer":0,"byteLength":90,"byteOffset":26824,"target":34963},{"buffer":0,"byteLength":540,"byteOffset":26916,"target":34962},{"buffer":0,"byteLength":540,"byteOffset":27456,"target":34962},{"buffer":0,"byteLength":720,"byteOffset":27996,"target":34962},{"buffer":0,"byteLength":360,"byteOffset":28716,"target":34962},{"buffer":0,"byteLength":360,"byteOffset":29076,"target":34962},{"buffer":0,"byteLength":300,"byteOffset":29436,"target":34963},{"buffer":0,"byteLength":396,"byteOffset":29736,"target":34962},{"buffer":0,"byteLength":396,"byteOffset":30132,"target":34962},{"buffer":0,"byteLength":264,"byteOffset":30528,"target":34962},{"buffer":0,"byteLength":264,"byteOffset":30792,"target":34962}],"buffers":[{"byteLength":31056,"uri":"SM_Metal_beams.bin"}],"images":[{"name":"T_Structures_N","uri":"T_Structures_N.png"},{"name":"T_Structures_B","uri":"T_Structures_B.png"}],"materials":[{"alphaMode":"OPAQUE","doubleSided":false,"extras":{"fromFBX":{"isTruePBR":false,"shadingModel":"Phong"}},"name":"MI_MetalBeams","normalTexture":{"index":0,"texCoord":0},"pbrMetallicRoughness":{"baseColorFactor":[1,1,1,1],"baseColorTexture":{"index":1,"texCoord":0},"metallicFactor":0.400000005960464,"roughnessFactor":0.301511347293854}},{"alphaMode":"OPAQUE","doubleSided":false,"extras":{"fromFBX":{"isTruePBR":false,"shadingModel":"Lambert"}},"name":"DefaultMaterial","pbrMetallicRoughness":{"baseColorFactor":[0.5,0.5,0.5,1],"metallicFactor":0.200000002980232,"roughnessFactor":0.800000011920929}}],"meshes":[{"name":"SM_Metal_beams_LOD0","primitives":[{"attributes":{"NORMAL":3,"POSITION":2,"TANGENT":4,"TEXCOORD_0":5,"TEXCOORD_1":6},"indices":1,"material":0,"mode":4}]},{"name":"SM_Metal_beams_LOD1","primitives":[{"attributes":{"NORMAL":9,"POSITION":8,"TANGENT":10,"TEXCOORD_0":11,"TEXCOORD_1":12},"indices":7,"material":0,"mode":4}]},{"name":"SM_Metal_beams_LOD2","primitives":[{"attributes":{"NORMAL":15,"POSITION":14,"TANGENT":16,"TEXCOORD_0":17,"TEXCOORD_1":18},"indices":13,"material":0,"mode":4}]},{"name":"SM_Metal_beams_LOD3","primitives":[{"attributes":{"NORMAL":21,"POSITION":20,"TANGENT":22,"TEXCOORD_0":23,"TEXCOORD_1":24},"indices":19,"material":0,"mode":4}]},{"name":"SM_Metal_beams_ConvexHulls","primitives":[{"attributes":{"NORMAL":27,"POSITION":26,"TEXCOORD_0":28,"TEXCOORD_1":29},"indices":25,"material":1,"mode":4}]}],"nodes":[{"children":[1,2,3,4,5],"name":"SM_Metal_beams_41","originalUnits":0.00999999977648258,"pivot":[0,0,0],"rotation":[0,0,0,1],"scale":[1,1,1],"translation":[0,0,0]},{"mesh":0,"name":"SM_Metal_beams_LOD0","originalUnits":0.00999999977648258,"pivot":[0,0,0],"rotation":[0,0,0,1],"scale":[1,1,1],"translation":[0,0,0]},{"mesh":4,"name":"SM_Metal_beams_ConvexHulls","originalUnits":0.00999999977648258,"pivot":[0,0,0],"rotation":[0,0,0,1],"scale":[1,1,1],"translation":[0,0,0]},{"mesh":1,"name":"SM_Metal_beams_LOD1","originalUnits":0.00999999977648258,"pivot":[0,0,0],"rotation":[0,0,0,1],"scale":[1,1,1],"translation":[0,0,0]},{"mesh":2,"name":"SM_Metal_beams_LOD2","originalUnits":0.00999999977648258,"pivot":[0,0,0],"rotation":[0,0,0,1],"scale":[1,1,1],"translation":[0,0,0]},{"mesh":3,"name":"SM_Metal_beams_LOD3","originalUnits":0.00999999977648258,"pivot":[0,0,0],"rotation":[0,0,0,1],"scale":[1,1,1],"translation":[0,0,0]}],"samplers":[{}],"scene":0,"scenes":[{"name":"Root Scene","nodes":[0]}],"textures":[{"name":"MI_MetalBeams","sampler":0,"source":0},{"name":"MI_MetalBeams","sampler":0,"source":1}]}