{"accessors":[{"bufferView":0,"byteOffset":0,"componentType":5126,"count":1,"max":[0],"min":[0],"type":"SCALAR"},{"bufferView":1,"byteOffset":0,"componentType":5123,"count":19680,"type":"SCALAR"},{"bufferView":2,"byteOffset":0,"componentType":5126,"count":4108,"max":[0.0849085971713066,0.146465674042702,0.600319981575012],"min":[-0.08409408479929,-0.00082023546565,-0.59726363420486],"type":"VEC3"},{"bufferView":3,"byteOffset":0,"componentType":5126,"count":4108,"type":"VEC3"},{"bufferView":4,"byteOffset":0,"componentType":5126,"count":4108,"type":"VEC4"},{"bufferView":5,"byteOffset":0,"componentType":5126,"count":4108,"type":"VEC2"},{"bufferView":6,"byteOffset":0,"componentType":5126,"count":4108,"type":"VEC2"},{"bufferView":7,"byteOffset":0,"componentType":5123,"count":14757,"type":"SCALAR"},{"bufferView":8,"byteOffset":0,"componentType":5126,"count":3240,"max":[0.0849085971713066,0.146465674042702,0.600319981575012],"min":[-0.08409408479929,-0.00082023546565,-0.59726363420486],"type":"VEC3"},{"bufferView":9,"byteOffset":0,"componentType":5126,"count":3240,"type":"VEC3"},{"bufferView":10,"byteOffset":0,"componentType":5126,"count":3240,"type":"VEC4"},{"bufferView":11,"byteOffset":0,"componentType":5126,"count":3240,"type":"VEC2"},{"bufferView":12,"byteOffset":0,"componentType":5126,"count":3240,"type":"VEC2"},{"bufferView":13,"byteOffset":0,"componentType":5123,"count":9837,"type":"SCALAR"},{"bufferView":14,"byteOffset":0,"componentType":5126,"count":2362,"max":[0.0849085971713066,0.146465674042702,0.600417494773865],"min":[-0.08409408479929,-0.00082023546565,-0.59736126661301],"type":"VEC3"},{"bufferView":15,"byteOffset":0,"componentType":5126,"count":2362,"type":"VEC3"},{"bufferView":16,"byteOffset":0,"componentType":5126,"count":2362,"type":"VEC4"},{"bufferView":17,"byteOffset":0,"componentType":5126,"count":2362,"type":"VEC2"},{"bufferView":18,"byteOffset":0,"componentType":5126,"count":2362,"type":"VEC2"},{"bufferView":19,"byteOffset":0,"componentType":5123,"count":2460,"type":"SCALAR"},{"bufferView":20,"byteOffset":0,"componentType":5126,"count":757,"max":[0.0849085971713066,0.145973965525627,0.600546300411224],"min":[-0.08409408479929,-0.00084265030455,-0.59795516729355],"type":"VEC3"},{"bufferView":21,"byteOffset":0,"componentType":5126,"count":757,"type":"VEC3"},{"bufferView":22,"byteOffset":0,"componentType":5126,"count":757,"type":"VEC4"},{"bufferView":23,"byteOffset":0,"componentType":5126,"count":757,"type":"VEC2"},{"bufferView":24,"byteOffset":0,"componentType":5126,"count":757,"type":"VEC2"}],"animations":[{"channels":[],"name":"Unreal Take","samplers":[]}],"asset":{"generator":"FBX2glTF v0.13.0","version":"2.0"},"bufferViews":[{"buffer":0,"byteLength":4,"byteOffset":0},{"buffer":0,"byteLength":39360,"byteOffset":4,"target":34963},{"buffer":0,"byteLength":49296,"byteOffset":39364,"target":34962},{"buffer":0,"byteLength":49296,"byteOffset":88660,"target":34962},{"buffer":0,"byteLength":65728,"byteOffset":137956,"target":34962},{"buffer":0,"byteLength":32864,"byteOffset":203684,"target":34962},{"buffer":0,"byteLength":32864,"byteOffset":236548,"target":34962},{"buffer":0,"byteLength":29514,"byteOffset":269412,"target":34963},{"buffer":0,"byteLength":38880,"byteOffset":298928,"target":34962},{"buffer":0,"byteLength":38880,"byteOffset":337808,"target":34962},{"buffer":0,"byteLength":51840,"byteOffset":376688,"target":34962},{"buffer":0,"byteLength":25920,"byteOffset":428528,"target":34962},{"buffer":0,"byteLength":25920,"byteOffset":454448,"target":34962},{"buffer":0,"byteLength":19674,"byteOffset":480368,"target":34963},{"buffer":0,"byteLength":28344,"byteOffset":500044,"target":34962},{"buffer":0,"byteLength":28344,"byteOffset":528388,"target":34962},{"buffer":0,"byteLength":37792,"byteOffset":556732,"target":34962},{"buffer":0,"byteLength":18896,"byteOffset":594524,"target":34962},{"buffer":0,"byteLength":18896,"byteOffset":613420,"target":34962},{"buffer":0,"byteLength":4920,"byteOffset":632316,"target":34963},{"buffer":0,"byteLength":9084,"byteOffset":637236,"target":34962},{"buffer":0,"byteLength":9084,"byteOffset":646320,"target":34962},{"buffer":0,"byteLength":12112,"byteOffset":655404,"target":34962},{"buffer":0,"byteLength":6056,"byteOffset":667516,"target":34962},{"buffer":0,"byteLength":6056,"byteOffset":673572,"target":34962}],"buffers":[{"byteLength":679628,"uri":"SM_Organiser.bin"}],"images":[{"name":"T_Woodprops_01_N","uri":"T_Woodprops_01_N.png"},{"name":"T_Woodprops_01_B","uri":"T_Woodprops_01_B.png"}],"materials":[{"alphaMode":"OPAQUE","doubleSided":false,"extras":{"fromFBX":{"isTruePBR":false,"shadingModel":"Phong"}},"name":"MI_Pallet","normalTexture":{"index":0,"texCoord":0},"pbrMetallicRoughness":{"baseColorFactor":[1,1,1,1],"baseColorTexture":{"index":1,"texCoord":0},"metallicFactor":0.400000005960464,"roughnessFactor":0.301511347293854}}],"meshes":[{"name":"SM_Organiser_LOD0","primitives":[{"attributes":{"NORMAL":3,"POSITION":2,"TANGENT":4,"TEXCOORD_0":5,"TEXCOORD_1":6},"indices":1,"material":0,"mode":4}]},{"name":"SM_Organiser_LOD1","primitives":[{"attributes":{"NORMAL":9,"POSITION":8,"TANGENT":10,"TEXCOORD_0":11,"TEXCOORD_1":12},"indices":7,"material":0,"mode":4}]},{"name":"SM_Organiser_LOD2","primitives":[{"attributes":{"NORMAL":15,"POSITION":14,"TANGENT":16,"TEXCOORD_0":17,"TEXCOORD_1":18},"indices":13,"material":0,"mode":4}]},{"name":"SM_Organiser_LOD3","primitives":[{"attributes":{"NORMAL":21,"POSITION":20,"TANGENT":22,"TEXCOORD_0":23,"TEXCOORD_1":24},"indices":19,"material":0,"mode":4}]}],"nodes":[{"children":[1,2,3,4,5],"name":"SM_Organiser_44","originalUnits":0.00999999977648258,"pivot":[0,0,0],"rotation":[0,0,0,1],"scale":[1,1,1],"translation":[0,0,0]},{"mesh":0,"name":"SM_Organiser_LOD0","originalUnits":0.00999999977648258,"pivot":[0,0,0],"rotation":[0,0,0,1],"scale":[1,1,1],"translation":[0,0,0]},{"name":"SM_Organiser_ConvexHulls","originalUnits":0.00999999977648258,"pivot":[0,0,0],"rotation":[0,0,0,1],"scale":[1,1,1],"translation":[0,0,0]},{"mesh":1,"name":"SM_Organiser_LOD1","originalUnits":0.00999999977648258,"pivot":[0,0,0],"rotation":[0,0,0,1],"scale":[1,1,1],"translation":[0,0,0]},{"mesh":2,"name":"SM_Organiser_LOD2","originalUnits":0.00999999977648258,"pivot":[0,0,0],"rotation":[0,0,0,1],"scale":[1,1,1],"translation":[0,0,0]},{"mesh":3,"name":"SM_Organiser_LOD3","originalUnits":0.00999999977648258,"pivot":[0,0,0],"rotation":[0,0,0,1],"scale":[1,1,1],"translation":[0,0,0]}],"samplers":[{}],"scene":0,"scenes":[{"name":"Root Scene","nodes":[0]}],"textures":[{"name":"MI_Pallet","sampler":0,"source":0},{"name":"MI_Pallet","sampler":0,"source":1}]}