{"accessors":[{"bufferView":0,"byteOffset":0,"componentType":5126,"count":1,"max":[0],"min":[0],"type":"SCALAR"},{"bufferView":1,"byteOffset":0,"componentType":5123,"count":96,"type":"SCALAR"},{"bufferView":2,"byteOffset":0,"componentType":5126,"count":25,"max":[0.246396422386169,0.0107623552903533,0.170342594385147],"min":[-0.23332463204861,-0.0225357376039,-0.1738369166851],"type":"VEC3"},{"bufferView":3,"byteOffset":0,"componentType":5126,"count":25,"type":"VEC3"},{"bufferView":4,"byteOffset":0,"componentType":5126,"count":25,"type":"VEC4"},{"bufferView":5,"byteOffset":0,"componentType":5126,"count":25,"type":"VEC2"},{"bufferView":6,"byteOffset":0,"componentType":5126,"count":25,"type":"VEC2"},{"bufferView":7,"byteOffset":0,"componentType":5123,"count":69,"type":"SCALAR"},{"bufferView":8,"byteOffset":0,"componentType":5126,"count":19,"max":[0.246396422386169,0.0107623552903533,0.170342594385147],"min":[-0.23334281146526,-0.0225357376039,-0.1738369166851],"type":"VEC3"},{"bufferView":9,"byteOffset":0,"componentType":5126,"count":19,"type":"VEC3"},{"bufferView":10,"byteOffset":0,"componentType":5126,"count":19,"type":"VEC4"},{"bufferView":11,"byteOffset":0,"componentType":5126,"count":19,"type":"VEC2"},{"bufferView":12,"byteOffset":0,"componentType":5126,"count":19,"type":"VEC2"},{"bufferView":13,"byteOffset":0,"componentType":5123,"count":48,"type":"SCALAR"},{"bufferView":14,"byteOffset":0,"componentType":5126,"count":14,"max":[0.246396422386169,0.0105990106239915,0.170342162251472],"min":[-0.23334281146526,-0.0225357376039,-0.1738369166851],"type":"VEC3"},{"bufferView":15,"byteOffset":0,"componentType":5126,"count":14,"type":"VEC3"},{"bufferView":16,"byteOffset":0,"componentType":5126,"count":14,"type":"VEC4"},{"bufferView":17,"byteOffset":0,"componentType":5126,"count":14,"type":"VEC2"},{"bufferView":18,"byteOffset":0,"componentType":5126,"count":14,"type":"VEC2"},{"bufferView":19,"byteOffset":0,"componentType":5123,"count":9,"type":"SCALAR"},{"bufferView":20,"byteOffset":0,"componentType":5126,"count":5,"max":[0.247664287686348,0.00531047489494085,0.170620784163475],"min":[-0.23342142999172,-0.00625079777092,-0.17602510750294],"type":"VEC3"},{"bufferView":21,"byteOffset":0,"componentType":5126,"count":5,"type":"VEC3"},{"bufferView":22,"byteOffset":0,"componentType":5126,"count":5,"type":"VEC4"},{"bufferView":23,"byteOffset":0,"componentType":5126,"count":5,"type":"VEC2"},{"bufferView":24,"byteOffset":0,"componentType":5126,"count":5,"type":"VEC2"},{"bufferView":25,"byteOffset":0,"componentType":5123,"count":336,"type":"SCALAR"},{"bufferView":26,"byteOffset":0,"componentType":5126,"count":64,"max":[0.249150037765503,0.0134246787056327,0.17315836250782],"min":[-0.23609703779221,-0.02391376905143,-0.17662988603115],"type":"VEC3"},{"bufferView":27,"byteOffset":0,"componentType":5126,"count":64,"type":"VEC3"},{"bufferView":28,"byteOffset":0,"componentType":5126,"count":64,"type":"VEC2"},{"bufferView":29,"byteOffset":0,"componentType":5126,"count":64,"type":"VEC2"}],"animations":[{"channels":[],"name":"Unreal Take","samplers":[]}],"asset":{"generator":"FBX2glTF v0.13.0","version":"2.0"},"bufferViews":[{"buffer":0,"byteLength":4,"byteOffset":0},{"buffer":0,"byteLength":192,"byteOffset":4,"target":34963},{"buffer":0,"byteLength":300,"byteOffset":196,"target":34962},{"buffer":0,"byteLength":300,"byteOffset":496,"target":34962},{"buffer":0,"byteLength":400,"byteOffset":796,"target":34962},{"buffer":0,"byteLength":200,"byteOffset":1196,"target":34962},{"buffer":0,"byteLength":200,"byteOffset":1396,"target":34962},{"buffer":0,"byteLength":138,"byteOffset":1596,"target":34963},{"buffer":0,"byteLength":228,"byteOffset":1736,"target":34962},{"buffer":0,"byteLength":228,"byteOffset":1964,"target":34962},{"buffer":0,"byteLength":304,"byteOffset":2192,"target":34962},{"buffer":0,"byteLength":152,"byteOffset":2496,"target":34962},{"buffer":0,"byteLength":152,"byteOffset":2648,"target":34962},{"buffer":0,"byteLength":96,"byteOffset":2800,"target":34963},{"buffer":0,"byteLength":168,"byteOffset":2896,"target":34962},{"buffer":0,"byteLength":168,"byteOffset":3064,"target":34962},{"buffer":0,"byteLength":224,"byteOffset":3232,"target":34962},{"buffer":0,"byteLength":112,"byteOffset":3456,"target":34962},{"buffer":0,"byteLength":112,"byteOffset":3568,"target":34962},{"buffer":0,"byteLength":18,"byteOffset":3680,"target":34963},{"buffer":0,"byteLength":60,"byteOffset":3700,"target":34962},{"buffer":0,"byteLength":60,"byteOffset":3760,"target":34962},{"buffer":0,"byteLength":80,"byteOffset":3820,"target":34962},{"buffer":0,"byteLength":40,"byteOffset":3900,"target":34962},{"buffer":0,"byteLength":40,"byteOffset":3940,"target":34962},{"buffer":0,"byteLength":672,"byteOffset":3980,"target":34963},{"buffer":0,"byteLength":768,"byteOffset":4652,"target":34962},{"buffer":0,"byteLength":768,"byteOffset":5420,"target":34962},{"buffer":0,"byteLength":512,"byteOffset":6188,"target":34962},{"buffer":0,"byteLength":512,"byteOffset":6700,"target":34962}],"buffers":[{"byteLength":7212,"uri":"SM_Paper_06.bin"}],"images":[{"name":"T_Paper_N","uri":"T_Paper_N.png"},{"name":"T_Paper_B","uri":"T_Paper_B.png"}],"materials":[{"alphaMode":"OPAQUE","doubleSided":false,"extras":{"fromFBX":{"isTruePBR":false,"shadingModel":"Lambert"}},"name":"MI_Paper_02","normalTexture":{"index":0,"texCoord":0},"pbrMetallicRoughness":{"baseColorFactor":[1,1,1,1],"baseColorTexture":{"index":1,"texCoord":0},"metallicFactor":0.200000002980232,"roughnessFactor":0.800000011920929}},{"alphaMode":"OPAQUE","doubleSided":false,"extras":{"fromFBX":{"isTruePBR":false,"shadingModel":"Lambert"}},"name":"DefaultMaterial","pbrMetallicRoughness":{"baseColorFactor":[0.5,0.5,0.5,1],"metallicFactor":0.200000002980232,"roughnessFactor":0.800000011920929}}],"meshes":[{"name":"SM_Paper_06_LOD0","primitives":[{"attributes":{"NORMAL":3,"POSITION":2,"TANGENT":4,"TEXCOORD_0":5,"TEXCOORD_1":6},"indices":1,"material":0,"mode":4}]},{"name":"SM_Paper_06_LOD1","primitives":[{"attributes":{"NORMAL":9,"POSITION":8,"TANGENT":10,"TEXCOORD_0":11,"TEXCOORD_1":12},"indices":7,"material":0,"mode":4}]},{"name":"SM_Paper_06_LOD2","primitives":[{"attributes":{"NORMAL":15,"POSITION":14,"TANGENT":16,"TEXCOORD_0":17,"TEXCOORD_1":18},"indices":13,"material":0,"mode":4}]},{"name":"SM_Paper_06_LOD3","primitives":[{"attributes":{"NORMAL":21,"POSITION":20,"TANGENT":22,"TEXCOORD_0":23,"TEXCOORD_1":24},"indices":19,"material":0,"mode":4}]},{"name":"SM_Paper_06_ConvexHulls","primitives":[{"attributes":{"NORMAL":27,"POSITION":26,"TEXCOORD_0":28,"TEXCOORD_1":29},"indices":25,"material":1,"mode":4}]}],"nodes":[{"children":[1,2,3,4,5],"name":"SM_Paper_51","originalUnits":0.00999999977648258,"pivot":[0,0,0],"rotation":[0,0,0,1],"scale":[1,1,1],"translation":[0,0,0]},{"mesh":0,"name":"SM_Paper_06_LOD0","originalUnits":0.00999999977648258,"pivot":[0,0,0],"rotation":[0,0,0,1],"scale":[1,1,1],"translation":[0,0,0]},{"mesh":4,"name":"SM_Paper_06_ConvexHulls","originalUnits":0.00999999977648258,"pivot":[0,0,0],"rotation":[0,0,0,1],"scale":[1,1,1],"translation":[0,0,0]},{"mesh":1,"name":"SM_Paper_06_LOD1","originalUnits":0.00999999977648258,"pivot":[0,0,0],"rotation":[0,0,0,1],"scale":[1,1,1],"translation":[0,0,0]},{"mesh":2,"name":"SM_Paper_06_LOD2","originalUnits":0.00999999977648258,"pivot":[0,0,0],"rotation":[0,0,0,1],"scale":[1,1,1],"translation":[0,0,0]},{"mesh":3,"name":"SM_Paper_06_LOD3","originalUnits":0.00999999977648258,"pivot":[0,0,0],"rotation":[0,0,0,1],"scale":[1,1,1],"translation":[0,0,0]}],"samplers":[{}],"scene":0,"scenes":[{"name":"Root Scene","nodes":[0]}],"textures":[{"name":"MI_Paper_02","sampler":0,"source":0},{"name":"MI_Paper_02","sampler":0,"source":1}]}