{"accessors":[{"bufferView":0,"byteOffset":0,"componentType":5126,"count":1,"max":[0],"min":[0],"type":"SCALAR"},{"bufferView":1,"byteOffset":0,"componentType":5123,"count":25026,"type":"SCALAR"},{"bufferView":2,"byteOffset":0,"componentType":5126,"count":6576,"max":[0.610809028148651,0.238639801740646,0.696882128715515],"min":[-0.53731518983841,0.00344449933618307,-0.69688230752945],"type":"VEC3"},{"bufferView":3,"byteOffset":0,"componentType":5126,"count":6576,"type":"VEC3"},{"bufferView":4,"byteOffset":0,"componentType":5126,"count":6576,"type":"VEC4"},{"bufferView":5,"byteOffset":0,"componentType":5126,"count":6576,"type":"VEC2"},{"bufferView":6,"byteOffset":0,"componentType":5126,"count":6576,"type":"VEC2"},{"bufferView":7,"byteOffset":0,"componentType":5123,"count":18768,"type":"SCALAR"},{"bufferView":8,"byteOffset":0,"componentType":5126,"count":5171,"max":[0.610809028148651,0.238639801740646,0.698130011558533],"min":[-0.53777980804443,0.00341406627558172,-0.69726103544235],"type":"VEC3"},{"bufferView":9,"byteOffset":0,"componentType":5126,"count":5171,"type":"VEC3"},{"bufferView":10,"byteOffset":0,"componentType":5126,"count":5171,"type":"VEC4"},{"bufferView":11,"byteOffset":0,"componentType":5126,"count":5171,"type":"VEC2"},{"bufferView":12,"byteOffset":0,"componentType":5126,"count":5171,"type":"VEC2"},{"bufferView":13,"byteOffset":0,"componentType":5123,"count":12510,"type":"SCALAR"},{"bufferView":14,"byteOffset":0,"componentType":5126,"count":3666,"max":[0.612492263317108,0.238639801740646,0.698911368846893],"min":[-0.53830808401108,0.00341406627558172,-0.69949191808701],"type":"VEC3"},{"bufferView":15,"byteOffset":0,"componentType":5126,"count":3666,"type":"VEC3"},{"bufferView":16,"byteOffset":0,"componentType":5126,"count":3666,"type":"VEC4"},{"bufferView":17,"byteOffset":0,"componentType":5126,"count":3666,"type":"VEC2"},{"bufferView":18,"byteOffset":0,"componentType":5126,"count":3666,"type":"VEC2"},{"bufferView":19,"byteOffset":0,"componentType":5123,"count":3126,"type":"SCALAR"},{"bufferView":20,"byteOffset":0,"componentType":5126,"count":1229,"max":[0.609582602977753,0.239043638110161,0.699213922023773],"min":[-0.5389444231987,0.00218331813812256,-0.69663852453232],"type":"VEC3"},{"bufferView":21,"byteOffset":0,"componentType":5126,"count":1229,"type":"VEC3"},{"bufferView":22,"byteOffset":0,"componentType":5126,"count":1229,"type":"VEC4"},{"bufferView":23,"byteOffset":0,"componentType":5126,"count":1229,"type":"VEC2"},{"bufferView":24,"byteOffset":0,"componentType":5126,"count":1229,"type":"VEC2"},{"bufferView":25,"byteOffset":0,"componentType":5123,"count":180,"type":"SCALAR"},{"bufferView":26,"byteOffset":0,"componentType":5126,"count":32,"max":[0.611809015274048,0.239639803767204,0.697882115840912],"min":[-0.53831517696381,0.00244449288584292,-0.69788229465485],"type":"VEC3"},{"bufferView":27,"byteOffset":0,"componentType":5126,"count":32,"type":"VEC3"},{"bufferView":28,"byteOffset":0,"componentType":5126,"count":32,"type":"VEC2"},{"bufferView":29,"byteOffset":0,"componentType":5126,"count":32,"type":"VEC2"}],"animations":[{"channels":[],"name":"Unreal Take","samplers":[]}],"asset":{"generator":"FBX2glTF v0.13.0","version":"2.0"},"bufferViews":[{"buffer":0,"byteLength":4,"byteOffset":0},{"buffer":0,"byteLength":50052,"byteOffset":4,"target":34963},{"buffer":0,"byteLength":78912,"byteOffset":50056,"target":34962},{"buffer":0,"byteLength":78912,"byteOffset":128968,"target":34962},{"buffer":0,"byteLength":105216,"byteOffset":207880,"target":34962},{"buffer":0,"byteLength":52608,"byteOffset":313096,"target":34962},{"buffer":0,"byteLength":52608,"byteOffset":365704,"target":34962},{"buffer":0,"byteLength":37536,"byteOffset":418312,"target":34963},{"buffer":0,"byteLength":62052,"byteOffset":455848,"target":34962},{"buffer":0,"byteLength":62052,"byteOffset":517900,"target":34962},{"buffer":0,"byteLength":82736,"byteOffset":579952,"target":34962},{"buffer":0,"byteLength":41368,"byteOffset":662688,"target":34962},{"buffer":0,"byteLength":41368,"byteOffset":704056,"target":34962},{"buffer":0,"byteLength":25020,"byteOffset":745424,"target":34963},{"buffer":0,"byteLength":43992,"byteOffset":770444,"target":34962},{"buffer":0,"byteLength":43992,"byteOffset":814436,"target":34962},{"buffer":0,"byteLength":58656,"byteOffset":858428,"target":34962},{"buffer":0,"byteLength":29328,"byteOffset":917084,"target":34962},{"buffer":0,"byteLength":29328,"byteOffset":946412,"target":34962},{"buffer":0,"byteLength":6252,"byteOffset":975740,"target":34963},{"buffer":0,"byteLength":14748,"byteOffset":981992,"target":34962},{"buffer":0,"byteLength":14748,"byteOffset":996740,"target":34962},{"buffer":0,"byteLength":19664,"byteOffset":1011488,"target":34962},{"buffer":0,"byteLength":9832,"byteOffset":1031152,"target":34962},{"buffer":0,"byteLength":9832,"byteOffset":1040984,"target":34962},{"buffer":0,"byteLength":360,"byteOffset":1050816,"target":34963},{"buffer":0,"byteLength":384,"byteOffset":1051176,"target":34962},{"buffer":0,"byteLength":384,"byteOffset":1051560,"target":34962},{"buffer":0,"byteLength":256,"byteOffset":1051944,"target":34962},{"buffer":0,"byteLength":256,"byteOffset":1052200,"target":34962}],"buffers":[{"byteLength":1052456,"uri":"SM_Pallet.bin"}],"images":[{"name":"T_Woodprops_01_N","uri":"T_Woodprops_01_N.png"},{"name":"T_Woodprops_01_B","uri":"T_Woodprops_01_B.png"}],"materials":[{"alphaMode":"OPAQUE","doubleSided":false,"extras":{"fromFBX":{"isTruePBR":false,"shadingModel":"Phong"}},"name":"MI_Pallet","normalTexture":{"index":0,"texCoord":0},"pbrMetallicRoughness":{"baseColorFactor":[1,1,1,1],"baseColorTexture":{"index":1,"texCoord":0},"metallicFactor":0.400000005960464,"roughnessFactor":0.301511347293854}},{"alphaMode":"OPAQUE","doubleSided":false,"extras":{"fromFBX":{"isTruePBR":false,"shadingModel":"Lambert"}},"name":"DefaultMaterial","pbrMetallicRoughness":{"baseColorFactor":[0.5,0.5,0.5,1],"metallicFactor":0.200000002980232,"roughnessFactor":0.800000011920929}}],"meshes":[{"name":"SM_Pallet_LOD0","primitives":[{"attributes":{"NORMAL":3,"POSITION":2,"TANGENT":4,"TEXCOORD_0":5,"TEXCOORD_1":6},"indices":1,"material":0,"mode":4}]},{"name":"SM_Pallet_LOD1","primitives":[{"attributes":{"NORMAL":9,"POSITION":8,"TANGENT":10,"TEXCOORD_0":11,"TEXCOORD_1":12},"indices":7,"material":0,"mode":4}]},{"name":"SM_Pallet_LOD2","primitives":[{"attributes":{"NORMAL":15,"POSITION":14,"TANGENT":16,"TEXCOORD_0":17,"TEXCOORD_1":18},"indices":13,"material":0,"mode":4}]},{"name":"SM_Pallet_LOD3","primitives":[{"attributes":{"NORMAL":21,"POSITION":20,"TANGENT":22,"TEXCOORD_0":23,"TEXCOORD_1":24},"indices":19,"material":0,"mode":4}]},{"name":"SM_Pallet_ConvexHulls","primitives":[{"attributes":{"NORMAL":27,"POSITION":26,"TEXCOORD_0":28,"TEXCOORD_1":29},"indices":25,"material":1,"mode":4}]}],"nodes":[{"children":[1,2,3,4,5],"name":"SM_Pallet_45","originalUnits":0.00999999977648258,"pivot":[0,0,0],"rotation":[0,0,0,1],"scale":[1,1,1],"translation":[0,0,0]},{"mesh":0,"name":"SM_Pallet_LOD0","originalUnits":0.00999999977648258,"pivot":[0,0,0],"rotation":[0,0,0,1],"scale":[1,1,1],"translation":[0,0,0]},{"mesh":4,"name":"SM_Pallet_ConvexHulls","originalUnits":0.00999999977648258,"pivot":[0,0,0],"rotation":[0,0,0,1],"scale":[1,1,1],"translation":[0,0,0]},{"mesh":1,"name":"SM_Pallet_LOD1","originalUnits":0.00999999977648258,"pivot":[0,0,0],"rotation":[0,0,0,1],"scale":[1,1,1],"translation":[0,0,0]},{"mesh":2,"name":"SM_Pallet_LOD2","originalUnits":0.00999999977648258,"pivot":[0,0,0],"rotation":[0,0,0,1],"scale":[1,1,1],"translation":[0,0,0]},{"mesh":3,"name":"SM_Pallet_LOD3","originalUnits":0.00999999977648258,"pivot":[0,0,0],"rotation":[0,0,0,1],"scale":[1,1,1],"translation":[0,0,0]}],"samplers":[{}],"scene":0,"scenes":[{"name":"Root Scene","nodes":[0]}],"textures":[{"name":"MI_Pallet","sampler":0,"source":0},{"name":"MI_Pallet","sampler":0,"source":1}]}