{"accessors":[{"bufferView":0,"byteOffset":0,"componentType":5126,"count":1,"max":[0],"min":[0],"type":"SCALAR"},{"bufferView":1,"byteOffset":0,"componentType":5123,"count":840,"type":"SCALAR"},{"bufferView":2,"byteOffset":0,"componentType":5126,"count":168,"max":[0.0182342119514942,0.0182343721389771,0.174860790371895],"min":[-0.01823421381414,-0.01823405735195,-0.00000002840823],"type":"VEC3"},{"bufferView":3,"byteOffset":0,"componentType":5126,"count":168,"type":"VEC3"},{"bufferView":4,"byteOffset":0,"componentType":5126,"count":168,"type":"VEC4"},{"bufferView":5,"byteOffset":0,"componentType":5126,"count":168,"type":"VEC2"},{"bufferView":6,"byteOffset":0,"componentType":5126,"count":168,"type":"VEC2"},{"bufferView":7,"byteOffset":0,"componentType":5123,"count":630,"type":"SCALAR"},{"bufferView":8,"byteOffset":0,"componentType":5126,"count":131,"max":[0.018295930698514,0.0182343721389771,0.174860790371895],"min":[-0.01823421381414,-0.01823405735195,-0.00000002840823],"type":"VEC3"},{"bufferView":9,"byteOffset":0,"componentType":5126,"count":131,"type":"VEC3"},{"bufferView":10,"byteOffset":0,"componentType":5126,"count":131,"type":"VEC4"},{"bufferView":11,"byteOffset":0,"componentType":5126,"count":131,"type":"VEC2"},{"bufferView":12,"byteOffset":0,"componentType":5126,"count":131,"type":"VEC2"},{"bufferView":13,"byteOffset":0,"componentType":5123,"count":420,"type":"SCALAR"},{"bufferView":14,"byteOffset":0,"componentType":5126,"count":88,"max":[0.0183138195425272,0.0183000173419714,0.175998896360397],"min":[-0.0183243881911,-0.01831348985434,-0.00001273629914],"type":"VEC3"},{"bufferView":15,"byteOffset":0,"componentType":5126,"count":88,"type":"VEC3"},{"bufferView":16,"byteOffset":0,"componentType":5126,"count":88,"type":"VEC4"},{"bufferView":17,"byteOffset":0,"componentType":5126,"count":88,"type":"VEC2"},{"bufferView":18,"byteOffset":0,"componentType":5126,"count":88,"type":"VEC2"},{"bufferView":19,"byteOffset":0,"componentType":5123,"count":102,"type":"SCALAR"},{"bufferView":20,"byteOffset":0,"componentType":5126,"count":25,"max":[0.0206616949290037,0.0238654520362616,0.174963891506195],"min":[-0.01862090267241,-0.02003045007586,-0.0000571580822],"type":"VEC3"},{"bufferView":21,"byteOffset":0,"componentType":5126,"count":25,"type":"VEC3"},{"bufferView":22,"byteOffset":0,"componentType":5126,"count":25,"type":"VEC4"},{"bufferView":23,"byteOffset":0,"componentType":5126,"count":25,"type":"VEC2"},{"bufferView":24,"byteOffset":0,"componentType":5126,"count":25,"type":"VEC2"},{"bufferView":25,"byteOffset":0,"componentType":5123,"count":90,"type":"SCALAR"},{"bufferView":26,"byteOffset":0,"componentType":5126,"count":17,"max":[0.0193046070635319,0.0191943552345037,0.175937488675117],"min":[-0.01968750171363,-0.01909540779889,-0.00100002868567],"type":"VEC3"},{"bufferView":27,"byteOffset":0,"componentType":5126,"count":17,"type":"VEC3"},{"bufferView":28,"byteOffset":0,"componentType":5126,"count":17,"type":"VEC2"},{"bufferView":29,"byteOffset":0,"componentType":5126,"count":17,"type":"VEC2"}],"animations":[{"channels":[],"name":"Unreal Take","samplers":[]}],"asset":{"generator":"FBX2glTF v0.13.0","version":"2.0"},"bufferViews":[{"buffer":0,"byteLength":4,"byteOffset":0},{"buffer":0,"byteLength":1680,"byteOffset":4,"target":34963},{"buffer":0,"byteLength":2016,"byteOffset":1684,"target":34962},{"buffer":0,"byteLength":2016,"byteOffset":3700,"target":34962},{"buffer":0,"byteLength":2688,"byteOffset":5716,"target":34962},{"buffer":0,"byteLength":1344,"byteOffset":8404,"target":34962},{"buffer":0,"byteLength":1344,"byteOffset":9748,"target":34962},{"buffer":0,"byteLength":1260,"byteOffset":11092,"target":34963},{"buffer":0,"byteLength":1572,"byteOffset":12352,"target":34962},{"buffer":0,"byteLength":1572,"byteOffset":13924,"target":34962},{"buffer":0,"byteLength":2096,"byteOffset":15496,"target":34962},{"buffer":0,"byteLength":1048,"byteOffset":17592,"target":34962},{"buffer":0,"byteLength":1048,"byteOffset":18640,"target":34962},{"buffer":0,"byteLength":840,"byteOffset":19688,"target":34963},{"buffer":0,"byteLength":1056,"byteOffset":20528,"target":34962},{"buffer":0,"byteLength":1056,"byteOffset":21584,"target":34962},{"buffer":0,"byteLength":1408,"byteOffset":22640,"target":34962},{"buffer":0,"byteLength":704,"byteOffset":24048,"target":34962},{"buffer":0,"byteLength":704,"byteOffset":24752,"target":34962},{"buffer":0,"byteLength":204,"byteOffset":25456,"target":34963},{"buffer":0,"byteLength":300,"byteOffset":25660,"target":34962},{"buffer":0,"byteLength":300,"byteOffset":25960,"target":34962},{"buffer":0,"byteLength":400,"byteOffset":26260,"target":34962},{"buffer":0,"byteLength":200,"byteOffset":26660,"target":34962},{"buffer":0,"byteLength":200,"byteOffset":26860,"target":34962},{"buffer":0,"byteLength":180,"byteOffset":27060,"target":34963},{"buffer":0,"byteLength":204,"byteOffset":27240,"target":34962},{"buffer":0,"byteLength":204,"byteOffset":27444,"target":34962},{"buffer":0,"byteLength":136,"byteOffset":27648,"target":34962},{"buffer":0,"byteLength":136,"byteOffset":27784,"target":34962}],"buffers":[{"byteLength":27920,"uri":"SM_Pipesml_Long.bin"}],"images":[{"name":"T_Metal_N","uri":"T_Metal_N.png"},{"name":"T_Metal_B","uri":"T_Metal_B.png"}],"materials":[{"alphaMode":"OPAQUE","doubleSided":false,"extras":{"fromFBX":{"isTruePBR":false,"shadingModel":"Phong"}},"name":"MI_PipeSmall","normalTexture":{"index":0,"texCoord":0},"pbrMetallicRoughness":{"baseColorFactor":[1,1,1,1],"baseColorTexture":{"index":1,"texCoord":0},"metallicFactor":0.400000005960464,"roughnessFactor":0.301511347293854}},{"alphaMode":"OPAQUE","doubleSided":false,"extras":{"fromFBX":{"isTruePBR":false,"shadingModel":"Lambert"}},"name":"DefaultMaterial","pbrMetallicRoughness":{"baseColorFactor":[0.5,0.5,0.5,1],"metallicFactor":0.200000002980232,"roughnessFactor":0.800000011920929}}],"meshes":[{"name":"SM_Pipesml_Long_LOD0","primitives":[{"attributes":{"NORMAL":3,"POSITION":2,"TANGENT":4,"TEXCOORD_0":5,"TEXCOORD_1":6},"indices":1,"material":0,"mode":4}]},{"name":"SM_Pipesml_Long_LOD1","primitives":[{"attributes":{"NORMAL":9,"POSITION":8,"TANGENT":10,"TEXCOORD_0":11,"TEXCOORD_1":12},"indices":7,"material":0,"mode":4}]},{"name":"SM_Pipesml_Long_LOD2","primitives":[{"attributes":{"NORMAL":15,"POSITION":14,"TANGENT":16,"TEXCOORD_0":17,"TEXCOORD_1":18},"indices":13,"material":0,"mode":4}]},{"name":"SM_Pipesml_Long_LOD3","primitives":[{"attributes":{"NORMAL":21,"POSITION":20,"TANGENT":22,"TEXCOORD_0":23,"TEXCOORD_1":24},"indices":19,"material":0,"mode":4}]},{"name":"SM_Pipesml_Long_ConvexHulls","primitives":[{"attributes":{"NORMAL":27,"POSITION":26,"TEXCOORD_0":28,"TEXCOORD_1":29},"indices":25,"material":1,"mode":4}]}],"nodes":[{"children":[1,2,3,4,5],"name":"SM_Pipesml_Long_62","originalUnits":0.00999999977648258,"pivot":[0,0,0],"rotation":[0,0,0,1],"scale":[1,1,1],"translation":[0,0,0]},{"mesh":0,"name":"SM_Pipesml_Long_LOD0","originalUnits":0.00999999977648258,"pivot":[0,0,0],"rotation":[0,0,0,1],"scale":[1,1,1],"translation":[0,0,0]},{"mesh":4,"name":"SM_Pipesml_Long_ConvexHulls","originalUnits":0.00999999977648258,"pivot":[0,0,0],"rotation":[0,0,0,1],"scale":[1,1,1],"translation":[0,0,0]},{"mesh":1,"name":"SM_Pipesml_Long_LOD1","originalUnits":0.00999999977648258,"pivot":[0,0,0],"rotation":[0,0,0,1],"scale":[1,1,1],"translation":[0,0,0]},{"mesh":2,"name":"SM_Pipesml_Long_LOD2","originalUnits":0.00999999977648258,"pivot":[0,0,0],"rotation":[0,0,0,1],"scale":[1,1,1],"translation":[0,0,0]},{"mesh":3,"name":"SM_Pipesml_Long_LOD3","originalUnits":0.00999999977648258,"pivot":[0,0,0],"rotation":[0,0,0,1],"scale":[1,1,1],"translation":[0,0,0]}],"samplers":[{}],"scene":0,"scenes":[{"name":"Root Scene","nodes":[0]}],"textures":[{"name":"MI_PipeSmall","sampler":0,"source":0},{"name":"MI_PipeSmall","sampler":0,"source":1}]}