{"accessors":[{"bufferView":0,"byteOffset":0,"componentType":5126,"count":1,"max":[0],"min":[0],"type":"SCALAR"},{"bufferView":1,"byteOffset":0,"componentType":5123,"count":96,"type":"SCALAR"},{"bufferView":2,"byteOffset":0,"componentType":5126,"count":25,"max":[0.245137706398964,0.0141492038965225,0.163125962018967],"min":[-0.24513770639896,-0.01414920669049,-0.16312596201897],"type":"VEC3"},{"bufferView":3,"byteOffset":0,"componentType":5126,"count":25,"type":"VEC3"},{"bufferView":4,"byteOffset":0,"componentType":5126,"count":25,"type":"VEC4"},{"bufferView":5,"byteOffset":0,"componentType":5126,"count":25,"type":"VEC2"},{"bufferView":6,"byteOffset":0,"componentType":5126,"count":25,"type":"VEC2"},{"bufferView":7,"byteOffset":0,"componentType":5123,"count":72,"type":"SCALAR"},{"bufferView":8,"byteOffset":0,"componentType":5126,"count":19,"max":[0.245137706398964,0.0144868958741426,0.163125962018967],"min":[-0.24513947963715,-0.01414920669049,-0.16312943398953],"type":"VEC3"},{"bufferView":9,"byteOffset":0,"componentType":5126,"count":19,"type":"VEC3"},{"bufferView":10,"byteOffset":0,"componentType":5126,"count":19,"type":"VEC4"},{"bufferView":11,"byteOffset":0,"componentType":5126,"count":19,"type":"VEC2"},{"bufferView":12,"byteOffset":0,"componentType":5126,"count":19,"type":"VEC2"},{"bufferView":13,"byteOffset":0,"componentType":5123,"count":48,"type":"SCALAR"},{"bufferView":14,"byteOffset":0,"componentType":5126,"count":14,"max":[0.245234102010727,0.0144868958741426,0.16314984858036],"min":[-0.24513947963715,-0.01414920669049,-0.16318614780903],"type":"VEC3"},{"bufferView":15,"byteOffset":0,"componentType":5126,"count":14,"type":"VEC3"},{"bufferView":16,"byteOffset":0,"componentType":5126,"count":14,"type":"VEC4"},{"bufferView":17,"byteOffset":0,"componentType":5126,"count":14,"type":"VEC2"},{"bufferView":18,"byteOffset":0,"componentType":5126,"count":14,"type":"VEC2"},{"bufferView":19,"byteOffset":0,"componentType":5123,"count":12,"type":"SCALAR"},{"bufferView":20,"byteOffset":0,"componentType":5126,"count":6,"max":[0.245258033275604,0.0112729053944349,0.163126155734062],"min":[-0.24516047537327,-0.0121407173574,-0.16335925459862],"type":"VEC3"},{"bufferView":21,"byteOffset":0,"componentType":5126,"count":6,"type":"VEC3"},{"bufferView":22,"byteOffset":0,"componentType":5126,"count":6,"type":"VEC4"},{"bufferView":23,"byteOffset":0,"componentType":5126,"count":6,"type":"VEC2"},{"bufferView":24,"byteOffset":0,"componentType":5126,"count":6,"type":"VEC2"},{"bufferView":25,"byteOffset":0,"componentType":5123,"count":318,"type":"SCALAR"},{"bufferView":26,"byteOffset":0,"componentType":5126,"count":61,"max":[0.247826993465424,0.0159099139273167,0.165917545557022],"min":[-0.24798695743084,-0.01554384920746,-0.1659597158432],"type":"VEC3"},{"bufferView":27,"byteOffset":0,"componentType":5126,"count":61,"type":"VEC3"},{"bufferView":28,"byteOffset":0,"componentType":5126,"count":61,"type":"VEC2"},{"bufferView":29,"byteOffset":0,"componentType":5126,"count":61,"type":"VEC2"}],"animations":[{"channels":[],"name":"Unreal Take","samplers":[]}],"asset":{"generator":"FBX2glTF v0.13.0","version":"2.0"},"bufferViews":[{"buffer":0,"byteLength":4,"byteOffset":0},{"buffer":0,"byteLength":192,"byteOffset":4,"target":34963},{"buffer":0,"byteLength":300,"byteOffset":196,"target":34962},{"buffer":0,"byteLength":300,"byteOffset":496,"target":34962},{"buffer":0,"byteLength":400,"byteOffset":796,"target":34962},{"buffer":0,"byteLength":200,"byteOffset":1196,"target":34962},{"buffer":0,"byteLength":200,"byteOffset":1396,"target":34962},{"buffer":0,"byteLength":144,"byteOffset":1596,"target":34963},{"buffer":0,"byteLength":228,"byteOffset":1740,"target":34962},{"buffer":0,"byteLength":228,"byteOffset":1968,"target":34962},{"buffer":0,"byteLength":304,"byteOffset":2196,"target":34962},{"buffer":0,"byteLength":152,"byteOffset":2500,"target":34962},{"buffer":0,"byteLength":152,"byteOffset":2652,"target":34962},{"buffer":0,"byteLength":96,"byteOffset":2804,"target":34963},{"buffer":0,"byteLength":168,"byteOffset":2900,"target":34962},{"buffer":0,"byteLength":168,"byteOffset":3068,"target":34962},{"buffer":0,"byteLength":224,"byteOffset":3236,"target":34962},{"buffer":0,"byteLength":112,"byteOffset":3460,"target":34962},{"buffer":0,"byteLength":112,"byteOffset":3572,"target":34962},{"buffer":0,"byteLength":24,"byteOffset":3684,"target":34963},{"buffer":0,"byteLength":72,"byteOffset":3708,"target":34962},{"buffer":0,"byteLength":72,"byteOffset":3780,"target":34962},{"buffer":0,"byteLength":96,"byteOffset":3852,"target":34962},{"buffer":0,"byteLength":48,"byteOffset":3948,"target":34962},{"buffer":0,"byteLength":48,"byteOffset":3996,"target":34962},{"buffer":0,"byteLength":636,"byteOffset":4044,"target":34963},{"buffer":0,"byteLength":732,"byteOffset":4680,"target":34962},{"buffer":0,"byteLength":732,"byteOffset":5412,"target":34962},{"buffer":0,"byteLength":488,"byteOffset":6144,"target":34962},{"buffer":0,"byteLength":488,"byteOffset":6632,"target":34962}],"buffers":[{"byteLength":7120,"uri":"SM_Paper_05.bin"}],"images":[{"name":"T_Paper_N","uri":"T_Paper_N.png"},{"name":"T_Paper_B","uri":"T_Paper_B.png"}],"materials":[{"alphaMode":"OPAQUE","doubleSided":false,"extras":{"fromFBX":{"isTruePBR":false,"shadingModel":"Lambert"}},"name":"MI_Paper_02","normalTexture":{"index":0,"texCoord":0},"pbrMetallicRoughness":{"baseColorFactor":[1,1,1,1],"baseColorTexture":{"index":1,"texCoord":0},"metallicFactor":0.200000002980232,"roughnessFactor":0.800000011920929}},{"alphaMode":"OPAQUE","doubleSided":false,"extras":{"fromFBX":{"isTruePBR":false,"shadingModel":"Lambert"}},"name":"DefaultMaterial","pbrMetallicRoughness":{"baseColorFactor":[0.5,0.5,0.5,1],"metallicFactor":0.200000002980232,"roughnessFactor":0.800000011920929}}],"meshes":[{"name":"SM_Paper_05_LOD0","primitives":[{"attributes":{"NORMAL":3,"POSITION":2,"TANGENT":4,"TEXCOORD_0":5,"TEXCOORD_1":6},"indices":1,"material":0,"mode":4}]},{"name":"SM_Paper_05_LOD1","primitives":[{"attributes":{"NORMAL":9,"POSITION":8,"TANGENT":10,"TEXCOORD_0":11,"TEXCOORD_1":12},"indices":7,"material":0,"mode":4}]},{"name":"SM_Paper_05_LOD2","primitives":[{"attributes":{"NORMAL":15,"POSITION":14,"TANGENT":16,"TEXCOORD_0":17,"TEXCOORD_1":18},"indices":13,"material":0,"mode":4}]},{"name":"SM_Paper_05_LOD3","primitives":[{"attributes":{"NORMAL":21,"POSITION":20,"TANGENT":22,"TEXCOORD_0":23,"TEXCOORD_1":24},"indices":19,"material":0,"mode":4}]},{"name":"SM_Paper_05_ConvexHulls","primitives":[{"attributes":{"NORMAL":27,"POSITION":26,"TEXCOORD_0":28,"TEXCOORD_1":29},"indices":25,"material":1,"mode":4}]}],"nodes":[{"children":[1,2,3,4,5],"name":"SM_Paper_50","originalUnits":0.00999999977648258,"pivot":[0,0,0],"rotation":[0,0,0,1],"scale":[1,1,1],"translation":[0,0,0]},{"mesh":0,"name":"SM_Paper_05_LOD0","originalUnits":0.00999999977648258,"pivot":[0,0,0],"rotation":[0,0,0,1],"scale":[1,1,1],"translation":[0,0,0]},{"mesh":4,"name":"SM_Paper_05_ConvexHulls","originalUnits":0.00999999977648258,"pivot":[0,0,0],"rotation":[0,0,0,1],"scale":[1,1,1],"translation":[0,0,0]},{"mesh":1,"name":"SM_Paper_05_LOD1","originalUnits":0.00999999977648258,"pivot":[0,0,0],"rotation":[0,0,0,1],"scale":[1,1,1],"translation":[0,0,0]},{"mesh":2,"name":"SM_Paper_05_LOD2","originalUnits":0.00999999977648258,"pivot":[0,0,0],"rotation":[0,0,0,1],"scale":[1,1,1],"translation":[0,0,0]},{"mesh":3,"name":"SM_Paper_05_LOD3","originalUnits":0.00999999977648258,"pivot":[0,0,0],"rotation":[0,0,0,1],"scale":[1,1,1],"translation":[0,0,0]}],"samplers":[{}],"scene":0,"scenes":[{"name":"Root Scene","nodes":[0]}],"textures":[{"name":"MI_Paper_02","sampler":0,"source":0},{"name":"MI_Paper_02","sampler":0,"source":1}]}