{"accessors":[{"bufferView":0,"byteOffset":0,"componentType":5126,"count":1,"max":[0],"min":[0],"type":"SCALAR"},{"bufferView":1,"byteOffset":0,"componentType":5123,"count":48,"type":"SCALAR"},{"bufferView":2,"byteOffset":0,"componentType":5126,"count":28,"max":[0.01090316940099,0.0413492470979691,0.0413491800427437],"min":[-0.01123915985227,-0.04134924709797,-0.04134918004274],"type":"VEC3"},{"bufferView":3,"byteOffset":0,"componentType":5126,"count":28,"type":"VEC3"},{"bufferView":4,"byteOffset":0,"componentType":5126,"count":28,"type":"VEC4"},{"bufferView":5,"byteOffset":0,"componentType":5126,"count":28,"type":"VEC2"},{"bufferView":6,"byteOffset":0,"componentType":5126,"count":28,"type":"VEC2"},{"bufferView":7,"byteOffset":0,"componentType":5123,"count":36,"type":"SCALAR"},{"bufferView":8,"byteOffset":0,"componentType":5126,"count":24,"max":[0.0121661024168134,0.0362384766340256,0.0421283915638924],"min":[-0.0118149695918,-0.04134924709797,-0.04270933568478],"type":"VEC3"},{"bufferView":9,"byteOffset":0,"componentType":5126,"count":24,"type":"VEC3"},{"bufferView":10,"byteOffset":0,"componentType":5126,"count":24,"type":"VEC4"},{"bufferView":11,"byteOffset":0,"componentType":5126,"count":24,"type":"VEC2"},{"bufferView":12,"byteOffset":0,"componentType":5126,"count":24,"type":"VEC2"},{"bufferView":13,"byteOffset":0,"componentType":5123,"count":24,"type":"SCALAR"},{"bufferView":14,"byteOffset":0,"componentType":5126,"count":20,"max":[0.0175739414989948,0.0473636761307716,0.0562512949109077],"min":[-0.0118149695918,-0.05644103512168,-0.05669533461332],"type":"VEC3"},{"bufferView":15,"byteOffset":0,"componentType":5126,"count":20,"type":"VEC3"},{"bufferView":16,"byteOffset":0,"componentType":5126,"count":20,"type":"VEC4"},{"bufferView":17,"byteOffset":0,"componentType":5126,"count":20,"type":"VEC2"},{"bufferView":18,"byteOffset":0,"componentType":5126,"count":20,"type":"VEC2"},{"bufferView":19,"byteOffset":0,"componentType":5123,"count":6,"type":"SCALAR"},{"bufferView":20,"byteOffset":0,"componentType":5126,"count":6,"max":[0.0175739414989948,0.0473636761307716,0.052603404968977],"min":[-0.02424755133688,-0.053023327142,-0.05669533461332],"type":"VEC3"},{"bufferView":21,"byteOffset":0,"componentType":5126,"count":6,"type":"VEC3"},{"bufferView":22,"byteOffset":0,"componentType":5126,"count":6,"type":"VEC4"},{"bufferView":23,"byteOffset":0,"componentType":5126,"count":6,"type":"VEC2"},{"bufferView":24,"byteOffset":0,"componentType":5126,"count":6,"type":"VEC2"}],"animations":[{"channels":[],"name":"Unreal Take","samplers":[]}],"asset":{"generator":"FBX2glTF v0.13.0","version":"2.0"},"bufferViews":[{"buffer":0,"byteLength":4,"byteOffset":0},{"buffer":0,"byteLength":96,"byteOffset":4,"target":34963},{"buffer":0,"byteLength":336,"byteOffset":100,"target":34962},{"buffer":0,"byteLength":336,"byteOffset":436,"target":34962},{"buffer":0,"byteLength":448,"byteOffset":772,"target":34962},{"buffer":0,"byteLength":224,"byteOffset":1220,"target":34962},{"buffer":0,"byteLength":224,"byteOffset":1444,"target":34962},{"buffer":0,"byteLength":72,"byteOffset":1668,"target":34963},{"buffer":0,"byteLength":288,"byteOffset":1740,"target":34962},{"buffer":0,"byteLength":288,"byteOffset":2028,"target":34962},{"buffer":0,"byteLength":384,"byteOffset":2316,"target":34962},{"buffer":0,"byteLength":192,"byteOffset":2700,"target":34962},{"buffer":0,"byteLength":192,"byteOffset":2892,"target":34962},{"buffer":0,"byteLength":48,"byteOffset":3084,"target":34963},{"buffer":0,"byteLength":240,"byteOffset":3132,"target":34962},{"buffer":0,"byteLength":240,"byteOffset":3372,"target":34962},{"buffer":0,"byteLength":320,"byteOffset":3612,"target":34962},{"buffer":0,"byteLength":160,"byteOffset":3932,"target":34962},{"buffer":0,"byteLength":160,"byteOffset":4092,"target":34962},{"buffer":0,"byteLength":12,"byteOffset":4252,"target":34963},{"buffer":0,"byteLength":72,"byteOffset":4264,"target":34962},{"buffer":0,"byteLength":72,"byteOffset":4336,"target":34962},{"buffer":0,"byteLength":96,"byteOffset":4408,"target":34962},{"buffer":0,"byteLength":48,"byteOffset":4504,"target":34962},{"buffer":0,"byteLength":48,"byteOffset":4552,"target":34962}],"buffers":[{"byteLength":4600,"uri":"SM_Peg.bin"}],"images":[{"name":"T_Woodprops_02_N","uri":"T_Woodprops_02_N.png"},{"name":"T_Woodprops_02_B","uri":"T_Woodprops_02_B.png"}],"materials":[{"alphaMode":"OPAQUE","doubleSided":false,"extras":{"fromFBX":{"isTruePBR":false,"shadingModel":"Phong"}},"name":"MI_Brush_02","normalTexture":{"index":0,"texCoord":0},"pbrMetallicRoughness":{"baseColorFactor":[1,1,1,1],"baseColorTexture":{"index":1,"texCoord":0},"metallicFactor":0.400000005960464,"roughnessFactor":0.301511347293854}}],"meshes":[{"name":"SM_Peg_LOD0","primitives":[{"attributes":{"NORMAL":3,"POSITION":2,"TANGENT":4,"TEXCOORD_0":5,"TEXCOORD_1":6},"indices":1,"material":0,"mode":4}]},{"name":"SM_Peg_LOD1","primitives":[{"attributes":{"NORMAL":9,"POSITION":8,"TANGENT":10,"TEXCOORD_0":11,"TEXCOORD_1":12},"indices":7,"material":0,"mode":4}]},{"name":"SM_Peg_LOD2","primitives":[{"attributes":{"NORMAL":15,"POSITION":14,"TANGENT":16,"TEXCOORD_0":17,"TEXCOORD_1":18},"indices":13,"material":0,"mode":4}]},{"name":"SM_Peg_LOD3","primitives":[{"attributes":{"NORMAL":21,"POSITION":20,"TANGENT":22,"TEXCOORD_0":23,"TEXCOORD_1":24},"indices":19,"material":0,"mode":4}]}],"nodes":[{"children":[1,2,3,4,5],"name":"SM_Peg_52","originalUnits":0.00999999977648258,"pivot":[0,0,0],"rotation":[0,0,0,1],"scale":[1,1,1],"translation":[0,0,0]},{"mesh":0,"name":"SM_Peg_LOD0","originalUnits":0.00999999977648258,"pivot":[0,0,0],"rotation":[0,0,0,1],"scale":[1,1,1],"translation":[0,0,0]},{"name":"SM_Peg_ConvexHulls","originalUnits":0.00999999977648258,"pivot":[0,0,0],"rotation":[0,0,0,1],"scale":[1,1,1],"translation":[0,0,0]},{"mesh":1,"name":"SM_Peg_LOD1","originalUnits":0.00999999977648258,"pivot":[0,0,0],"rotation":[0,0,0,1],"scale":[1,1,1],"translation":[0,0,0]},{"mesh":2,"name":"SM_Peg_LOD2","originalUnits":0.00999999977648258,"pivot":[0,0,0],"rotation":[0,0,0,1],"scale":[1,1,1],"translation":[0,0,0]},{"mesh":3,"name":"SM_Peg_LOD3","originalUnits":0.00999999977648258,"pivot":[0,0,0],"rotation":[0,0,0,1],"scale":[1,1,1],"translation":[0,0,0]}],"samplers":[{}],"scene":0,"scenes":[{"name":"Root Scene","nodes":[0]}],"textures":[{"name":"MI_Brush_02","sampler":0,"source":0},{"name":"MI_Brush_02","sampler":0,"source":1}]}