{"accessors":[{"bufferView":0,"byteOffset":0,"componentType":5126,"count":1,"max":[0],"min":[0],"type":"SCALAR"},{"bufferView":1,"byteOffset":0,"componentType":5123,"count":1800,"type":"SCALAR"},{"bufferView":2,"byteOffset":0,"componentType":5126,"count":336,"max":[0.0182342119514942,0.0627763718366623,0.0813306346535683],"min":[-0.01823421195149,-0.01823418773711,-0.00000004693833],"type":"VEC3"},{"bufferView":3,"byteOffset":0,"componentType":5126,"count":336,"type":"VEC3"},{"bufferView":4,"byteOffset":0,"componentType":5126,"count":336,"type":"VEC4"},{"bufferView":5,"byteOffset":0,"componentType":5126,"count":336,"type":"VEC2"},{"bufferView":6,"byteOffset":0,"componentType":5126,"count":336,"type":"VEC2"},{"bufferView":7,"byteOffset":0,"componentType":5123,"count":1350,"type":"SCALAR"},{"bufferView":8,"byteOffset":0,"componentType":5126,"count":259,"max":[0.0182342119514942,0.0627763718366623,0.0813306346535683],"min":[-0.01828728429973,-0.01823418773711,-0.00000004693833],"type":"VEC3"},{"bufferView":9,"byteOffset":0,"componentType":5126,"count":259,"type":"VEC3"},{"bufferView":10,"byteOffset":0,"componentType":5126,"count":259,"type":"VEC4"},{"bufferView":11,"byteOffset":0,"componentType":5126,"count":259,"type":"VEC2"},{"bufferView":12,"byteOffset":0,"componentType":5126,"count":259,"type":"VEC2"},{"bufferView":13,"byteOffset":0,"componentType":5123,"count":900,"type":"SCALAR"},{"bufferView":14,"byteOffset":0,"componentType":5126,"count":182,"max":[0.0182342119514942,0.0627763718366623,0.0813306346535683],"min":[-0.01823421195149,-0.01823418773711,-0.00000004693833],"type":"VEC3"},{"bufferView":15,"byteOffset":0,"componentType":5126,"count":182,"type":"VEC3"},{"bufferView":16,"byteOffset":0,"componentType":5126,"count":182,"type":"VEC4"},{"bufferView":17,"byteOffset":0,"componentType":5126,"count":182,"type":"VEC2"},{"bufferView":18,"byteOffset":0,"componentType":5126,"count":182,"type":"VEC2"},{"bufferView":19,"byteOffset":0,"componentType":5123,"count":225,"type":"SCALAR"},{"bufferView":20,"byteOffset":0,"componentType":5126,"count":50,"max":[0.0181241631507874,0.0633776634931564,0.081878200173378],"min":[-0.01867744326591,-0.01872943341732,-0.00052786205197],"type":"VEC3"},{"bufferView":21,"byteOffset":0,"componentType":5126,"count":50,"type":"VEC3"},{"bufferView":22,"byteOffset":0,"componentType":5126,"count":50,"type":"VEC4"},{"bufferView":23,"byteOffset":0,"componentType":5126,"count":50,"type":"VEC2"},{"bufferView":24,"byteOffset":0,"componentType":5126,"count":50,"type":"VEC2"},{"bufferView":25,"byteOffset":0,"componentType":5123,"count":336,"type":"SCALAR"},{"bufferView":26,"byteOffset":0,"componentType":5126,"count":64,"max":[0.0177309047430754,0.0638045221567154,0.0808390229940414],"min":[-0.01698815077543,-0.01785676926374,-0.00103594886605],"type":"VEC3"},{"bufferView":27,"byteOffset":0,"componentType":5126,"count":64,"type":"VEC3"},{"bufferView":28,"byteOffset":0,"componentType":5126,"count":64,"type":"VEC2"},{"bufferView":29,"byteOffset":0,"componentType":5126,"count":64,"type":"VEC2"}],"animations":[{"channels":[],"name":"Unreal Take","samplers":[]}],"asset":{"generator":"FBX2glTF v0.13.0","version":"2.0"},"bufferViews":[{"buffer":0,"byteLength":4,"byteOffset":0},{"buffer":0,"byteLength":3600,"byteOffset":4,"target":34963},{"buffer":0,"byteLength":4032,"byteOffset":3604,"target":34962},{"buffer":0,"byteLength":4032,"byteOffset":7636,"target":34962},{"buffer":0,"byteLength":5376,"byteOffset":11668,"target":34962},{"buffer":0,"byteLength":2688,"byteOffset":17044,"target":34962},{"buffer":0,"byteLength":2688,"byteOffset":19732,"target":34962},{"buffer":0,"byteLength":2700,"byteOffset":22420,"target":34963},{"buffer":0,"byteLength":3108,"byteOffset":25120,"target":34962},{"buffer":0,"byteLength":3108,"byteOffset":28228,"target":34962},{"buffer":0,"byteLength":4144,"byteOffset":31336,"target":34962},{"buffer":0,"byteLength":2072,"byteOffset":35480,"target":34962},{"buffer":0,"byteLength":2072,"byteOffset":37552,"target":34962},{"buffer":0,"byteLength":1800,"byteOffset":39624,"target":34963},{"buffer":0,"byteLength":2184,"byteOffset":41424,"target":34962},{"buffer":0,"byteLength":2184,"byteOffset":43608,"target":34962},{"buffer":0,"byteLength":2912,"byteOffset":45792,"target":34962},{"buffer":0,"byteLength":1456,"byteOffset":48704,"target":34962},{"buffer":0,"byteLength":1456,"byteOffset":50160,"target":34962},{"buffer":0,"byteLength":450,"byteOffset":51616,"target":34963},{"buffer":0,"byteLength":600,"byteOffset":52068,"target":34962},{"buffer":0,"byteLength":600,"byteOffset":52668,"target":34962},{"buffer":0,"byteLength":800,"byteOffset":53268,"target":34962},{"buffer":0,"byteLength":400,"byteOffset":54068,"target":34962},{"buffer":0,"byteLength":400,"byteOffset":54468,"target":34962},{"buffer":0,"byteLength":672,"byteOffset":54868,"target":34963},{"buffer":0,"byteLength":768,"byteOffset":55540,"target":34962},{"buffer":0,"byteLength":768,"byteOffset":56308,"target":34962},{"buffer":0,"byteLength":512,"byteOffset":57076,"target":34962},{"buffer":0,"byteLength":512,"byteOffset":57588,"target":34962}],"buffers":[{"byteLength":58100,"uri":"SM_Pipesml_Curve.bin"}],"images":[{"name":"T_Metal_N","uri":"T_Metal_N.png"},{"name":"T_Metal_B","uri":"T_Metal_B.png"}],"materials":[{"alphaMode":"OPAQUE","doubleSided":false,"extras":{"fromFBX":{"isTruePBR":false,"shadingModel":"Phong"}},"name":"MI_PipeSmall","normalTexture":{"index":0,"texCoord":0},"pbrMetallicRoughness":{"baseColorFactor":[1,1,1,1],"baseColorTexture":{"index":1,"texCoord":0},"metallicFactor":0.400000005960464,"roughnessFactor":0.301511347293854}},{"alphaMode":"OPAQUE","doubleSided":false,"extras":{"fromFBX":{"isTruePBR":false,"shadingModel":"Lambert"}},"name":"DefaultMaterial","pbrMetallicRoughness":{"baseColorFactor":[0.5,0.5,0.5,1],"metallicFactor":0.200000002980232,"roughnessFactor":0.800000011920929}}],"meshes":[{"name":"SM_Pipesml_Curve_LOD0","primitives":[{"attributes":{"NORMAL":3,"POSITION":2,"TANGENT":4,"TEXCOORD_0":5,"TEXCOORD_1":6},"indices":1,"material":0,"mode":4}]},{"name":"SM_Pipesml_Curve_LOD1","primitives":[{"attributes":{"NORMAL":9,"POSITION":8,"TANGENT":10,"TEXCOORD_0":11,"TEXCOORD_1":12},"indices":7,"material":0,"mode":4}]},{"name":"SM_Pipesml_Curve_LOD2","primitives":[{"attributes":{"NORMAL":15,"POSITION":14,"TANGENT":16,"TEXCOORD_0":17,"TEXCOORD_1":18},"indices":13,"material":0,"mode":4}]},{"name":"SM_Pipesml_Curve_LOD3","primitives":[{"attributes":{"NORMAL":21,"POSITION":20,"TANGENT":22,"TEXCOORD_0":23,"TEXCOORD_1":24},"indices":19,"material":0,"mode":4}]},{"name":"SM_Pipesml_Curve_ConvexHulls","primitives":[{"attributes":{"NORMAL":27,"POSITION":26,"TEXCOORD_0":28,"TEXCOORD_1":29},"indices":25,"material":1,"mode":4}]}],"nodes":[{"children":[1,2,3,4,5],"name":"SM_Pipesml_Curve_61","originalUnits":0.00999999977648258,"pivot":[0,0,0],"rotation":[0,0,0,1],"scale":[1,1,1],"translation":[0,0,0]},{"mesh":0,"name":"SM_Pipesml_Curve_LOD0","originalUnits":0.00999999977648258,"pivot":[0,0,0],"rotation":[0,0,0,1],"scale":[1,1,1],"translation":[0,0,0]},{"mesh":4,"name":"SM_Pipesml_Curve_ConvexHulls","originalUnits":0.00999999977648258,"pivot":[0,0,0],"rotation":[0,0,0,1],"scale":[1,1,1],"translation":[0,0,0]},{"mesh":1,"name":"SM_Pipesml_Curve_LOD1","originalUnits":0.00999999977648258,"pivot":[0,0,0],"rotation":[0,0,0,1],"scale":[1,1,1],"translation":[0,0,0]},{"mesh":2,"name":"SM_Pipesml_Curve_LOD2","originalUnits":0.00999999977648258,"pivot":[0,0,0],"rotation":[0,0,0,1],"scale":[1,1,1],"translation":[0,0,0]},{"mesh":3,"name":"SM_Pipesml_Curve_LOD3","originalUnits":0.00999999977648258,"pivot":[0,0,0],"rotation":[0,0,0,1],"scale":[1,1,1],"translation":[0,0,0]}],"samplers":[{}],"scene":0,"scenes":[{"name":"Root Scene","nodes":[0]}],"textures":[{"name":"MI_PipeSmall","sampler":0,"source":0},{"name":"MI_PipeSmall","sampler":0,"source":1}]}