{"accessors":[{"bufferView":0,"byteOffset":0,"componentType":5126,"count":1,"max":[0],"min":[0],"type":"SCALAR"},{"bufferView":1,"byteOffset":0,"componentType":5123,"count":4026,"type":"SCALAR"},{"bufferView":2,"byteOffset":0,"componentType":5126,"count":1123,"max":[0.0543566942214966,0.230421245098114,0.5],"min":[-0.0543566942215,-0.00021015443781,-0.5],"type":"VEC3"},{"bufferView":3,"byteOffset":0,"componentType":5126,"count":1123,"type":"VEC3"},{"bufferView":4,"byteOffset":0,"componentType":5126,"count":1123,"type":"VEC4"},{"bufferView":5,"byteOffset":0,"componentType":5126,"count":1123,"type":"VEC2"},{"bufferView":6,"byteOffset":0,"componentType":5126,"count":1123,"type":"VEC2"},{"bufferView":7,"byteOffset":0,"componentType":5123,"count":3018,"type":"SCALAR"},{"bufferView":8,"byteOffset":0,"componentType":5126,"count":889,"max":[0.0544071346521378,0.230956569314003,0.5],"min":[-0.0543605312705,-0.00021015443781,-0.50000709295273],"type":"VEC3"},{"bufferView":9,"byteOffset":0,"componentType":5126,"count":889,"type":"VEC3"},{"bufferView":10,"byteOffset":0,"componentType":5126,"count":889,"type":"VEC4"},{"bufferView":11,"byteOffset":0,"componentType":5126,"count":889,"type":"VEC2"},{"bufferView":12,"byteOffset":0,"componentType":5126,"count":889,"type":"VEC2"},{"bufferView":13,"byteOffset":0,"componentType":5123,"count":2010,"type":"SCALAR"},{"bufferView":14,"byteOffset":0,"componentType":5126,"count":659,"max":[0.0544071346521378,0.231232672929764,0.5],"min":[-0.05442242324352,-0.00021015443781,-0.50000101327896],"type":"VEC3"},{"bufferView":15,"byteOffset":0,"componentType":5126,"count":659,"type":"VEC3"},{"bufferView":16,"byteOffset":0,"componentType":5126,"count":659,"type":"VEC4"},{"bufferView":17,"byteOffset":0,"componentType":5126,"count":659,"type":"VEC2"},{"bufferView":18,"byteOffset":0,"componentType":5126,"count":659,"type":"VEC2"},{"bufferView":19,"byteOffset":0,"componentType":5123,"count":501,"type":"SCALAR"},{"bufferView":20,"byteOffset":0,"componentType":5126,"count":222,"max":[0.055457279086113,0.234519988298416,0.5],"min":[-0.05633898451924,-0.00065880984766,-0.49998188018799],"type":"VEC3"},{"bufferView":21,"byteOffset":0,"componentType":5126,"count":222,"type":"VEC3"},{"bufferView":22,"byteOffset":0,"componentType":5126,"count":222,"type":"VEC4"},{"bufferView":23,"byteOffset":0,"componentType":5126,"count":222,"type":"VEC2"},{"bufferView":24,"byteOffset":0,"componentType":5126,"count":222,"type":"VEC2"},{"bufferView":25,"byteOffset":0,"componentType":5123,"count":312,"type":"SCALAR"},{"bufferView":26,"byteOffset":0,"componentType":5126,"count":60,"max":[0.0567840225994587,0.231877729296684,0.493420630693436],"min":[-0.05980786681175,-0.00562830734998,-0.49718749523163],"type":"VEC3"},{"bufferView":27,"byteOffset":0,"componentType":5126,"count":60,"type":"VEC3"},{"bufferView":28,"byteOffset":0,"componentType":5126,"count":60,"type":"VEC2"},{"bufferView":29,"byteOffset":0,"componentType":5126,"count":60,"type":"VEC2"}],"animations":[{"channels":[],"name":"Unreal Take","samplers":[]}],"asset":{"generator":"FBX2glTF v0.13.0","version":"2.0"},"bufferViews":[{"buffer":0,"byteLength":4,"byteOffset":0},{"buffer":0,"byteLength":8052,"byteOffset":4,"target":34963},{"buffer":0,"byteLength":13476,"byteOffset":8056,"target":34962},{"buffer":0,"byteLength":13476,"byteOffset":21532,"target":34962},{"buffer":0,"byteLength":17968,"byteOffset":35008,"target":34962},{"buffer":0,"byteLength":8984,"byteOffset":52976,"target":34962},{"buffer":0,"byteLength":8984,"byteOffset":61960,"target":34962},{"buffer":0,"byteLength":6036,"byteOffset":70944,"target":34963},{"buffer":0,"byteLength":10668,"byteOffset":76980,"target":34962},{"buffer":0,"byteLength":10668,"byteOffset":87648,"target":34962},{"buffer":0,"byteLength":14224,"byteOffset":98316,"target":34962},{"buffer":0,"byteLength":7112,"byteOffset":112540,"target":34962},{"buffer":0,"byteLength":7112,"byteOffset":119652,"target":34962},{"buffer":0,"byteLength":4020,"byteOffset":126764,"target":34963},{"buffer":0,"byteLength":7908,"byteOffset":130784,"target":34962},{"buffer":0,"byteLength":7908,"byteOffset":138692,"target":34962},{"buffer":0,"byteLength":10544,"byteOffset":146600,"target":34962},{"buffer":0,"byteLength":5272,"byteOffset":157144,"target":34962},{"buffer":0,"byteLength":5272,"byteOffset":162416,"target":34962},{"buffer":0,"byteLength":1002,"byteOffset":167688,"target":34963},{"buffer":0,"byteLength":2664,"byteOffset":168692,"target":34962},{"buffer":0,"byteLength":2664,"byteOffset":171356,"target":34962},{"buffer":0,"byteLength":3552,"byteOffset":174020,"target":34962},{"buffer":0,"byteLength":1776,"byteOffset":177572,"target":34962},{"buffer":0,"byteLength":1776,"byteOffset":179348,"target":34962},{"buffer":0,"byteLength":624,"byteOffset":181124,"target":34963},{"buffer":0,"byteLength":720,"byteOffset":181748,"target":34962},{"buffer":0,"byteLength":720,"byteOffset":182468,"target":34962},{"buffer":0,"byteLength":480,"byteOffset":183188,"target":34962},{"buffer":0,"byteLength":480,"byteOffset":183668,"target":34962}],"buffers":[{"byteLength":184148,"uri":"SM_Planer_02.bin"}],"images":[{"name":"T_Tools_N","uri":"T_Tools_N.png"},{"name":"T_Tools_B","uri":"T_Tools_B.png"}],"materials":[{"alphaMode":"OPAQUE","doubleSided":false,"extras":{"fromFBX":{"isTruePBR":false,"shadingModel":"Phong"}},"name":"MI_Tools_02","normalTexture":{"index":0,"texCoord":0},"pbrMetallicRoughness":{"baseColorFactor":[1,1,1,1],"baseColorTexture":{"index":1,"texCoord":0},"metallicFactor":0.400000005960464,"roughnessFactor":0.301511347293854}},{"alphaMode":"OPAQUE","doubleSided":false,"extras":{"fromFBX":{"isTruePBR":false,"shadingModel":"Lambert"}},"name":"DefaultMaterial","pbrMetallicRoughness":{"baseColorFactor":[0.5,0.5,0.5,1],"metallicFactor":0.200000002980232,"roughnessFactor":0.800000011920929}}],"meshes":[{"name":"SM_Planer_02_LOD0","primitives":[{"attributes":{"NORMAL":3,"POSITION":2,"TANGENT":4,"TEXCOORD_0":5,"TEXCOORD_1":6},"indices":1,"material":0,"mode":4}]},{"name":"SM_Planer_02_LOD1","primitives":[{"attributes":{"NORMAL":9,"POSITION":8,"TANGENT":10,"TEXCOORD_0":11,"TEXCOORD_1":12},"indices":7,"material":0,"mode":4}]},{"name":"SM_Planer_02_LOD2","primitives":[{"attributes":{"NORMAL":15,"POSITION":14,"TANGENT":16,"TEXCOORD_0":17,"TEXCOORD_1":18},"indices":13,"material":0,"mode":4}]},{"name":"SM_Planer_02_LOD3","primitives":[{"attributes":{"NORMAL":21,"POSITION":20,"TANGENT":22,"TEXCOORD_0":23,"TEXCOORD_1":24},"indices":19,"material":0,"mode":4}]},{"name":"SM_Planer_02_ConvexHulls","primitives":[{"attributes":{"NORMAL":27,"POSITION":26,"TEXCOORD_0":28,"TEXCOORD_1":29},"indices":25,"material":1,"mode":4}]}],"nodes":[{"children":[1,2,3,4,5],"name":"SM_Planer_02_65","originalUnits":0.00999999977648258,"pivot":[0,0,0],"rotation":[0,0,0,1],"scale":[1,1,1],"translation":[0,0,0]},{"mesh":0,"name":"SM_Planer_02_LOD0","originalUnits":0.00999999977648258,"pivot":[0,0,0],"rotation":[0,0,0,1],"scale":[1,1,1],"translation":[0,0,0]},{"mesh":4,"name":"SM_Planer_02_ConvexHulls","originalUnits":0.00999999977648258,"pivot":[0,0,0],"rotation":[0,0,0,1],"scale":[1,1,1],"translation":[0,0,0]},{"mesh":1,"name":"SM_Planer_02_LOD1","originalUnits":0.00999999977648258,"pivot":[0,0,0],"rotation":[0,0,0,1],"scale":[1,1,1],"translation":[0,0,0]},{"mesh":2,"name":"SM_Planer_02_LOD2","originalUnits":0.00999999977648258,"pivot":[0,0,0],"rotation":[0,0,0,1],"scale":[1,1,1],"translation":[0,0,0]},{"mesh":3,"name":"SM_Planer_02_LOD3","originalUnits":0.00999999977648258,"pivot":[0,0,0],"rotation":[0,0,0,1],"scale":[1,1,1],"translation":[0,0,0]}],"samplers":[{}],"scene":0,"scenes":[{"name":"Root Scene","nodes":[0]}],"textures":[{"name":"MI_Tools_02","sampler":0,"source":0},{"name":"MI_Tools_02","sampler":0,"source":1}]}