{"accessors":[{"bufferView":0,"byteOffset":0,"componentType":5126,"count":1,"max":[0],"min":[0],"type":"SCALAR"},{"bufferView":1,"byteOffset":0,"componentType":5123,"count":18,"type":"SCALAR"},{"bufferView":2,"byteOffset":0,"componentType":5126,"count":8,"max":[0.260599792003632,0.00000000317096904289826,0.376488715410233],"min":[-0.26059979200363,-0.00000000317097,-0.37648871541023],"type":"VEC3"},{"bufferView":3,"byteOffset":0,"componentType":5126,"count":8,"type":"VEC3"},{"bufferView":4,"byteOffset":0,"componentType":5126,"count":8,"type":"VEC4"},{"bufferView":5,"byteOffset":0,"componentType":5126,"count":8,"type":"VEC2"},{"bufferView":6,"byteOffset":0,"componentType":5126,"count":8,"type":"VEC2"},{"bufferView":7,"byteOffset":0,"componentType":5123,"count":15,"type":"SCALAR"},{"bufferView":8,"byteOffset":0,"componentType":5126,"count":7,"max":[0.260599792003632,0.00000000317096904289826,0.376488715410233],"min":[-0.26059979200363,-0.00000000317097,-0.37648871541023],"type":"VEC3"},{"bufferView":9,"byteOffset":0,"componentType":5126,"count":7,"type":"VEC3"},{"bufferView":10,"byteOffset":0,"componentType":5126,"count":7,"type":"VEC4"},{"bufferView":11,"byteOffset":0,"componentType":5126,"count":7,"type":"VEC2"},{"bufferView":12,"byteOffset":0,"componentType":5126,"count":7,"type":"VEC2"},{"bufferView":13,"byteOffset":0,"componentType":5123,"count":9,"type":"SCALAR"},{"bufferView":14,"byteOffset":0,"componentType":5126,"count":5,"max":[0.260599792003632,0.00000000317096904289826,0.376488715410233],"min":[-0.26059979200363,-0.00000000317097,-0.37648871541023],"type":"VEC3"},{"bufferView":15,"byteOffset":0,"componentType":5126,"count":5,"type":"VEC3"},{"bufferView":16,"byteOffset":0,"componentType":5126,"count":5,"type":"VEC4"},{"bufferView":17,"byteOffset":0,"componentType":5126,"count":5,"type":"VEC2"},{"bufferView":18,"byteOffset":0,"componentType":5126,"count":5,"type":"VEC2"},{"bufferView":19,"byteOffset":0,"componentType":5123,"count":6,"type":"SCALAR"},{"bufferView":20,"byteOffset":0,"componentType":5126,"count":4,"max":[0.260599792003632,0.00000000317096904289826,0.376488715410233],"min":[-0.26059979200363,-0.00000000317097,-0.37648871541023],"type":"VEC3"},{"bufferView":21,"byteOffset":0,"componentType":5126,"count":4,"type":"VEC3"},{"bufferView":22,"byteOffset":0,"componentType":5126,"count":4,"type":"VEC4"},{"bufferView":23,"byteOffset":0,"componentType":5126,"count":4,"type":"VEC2"},{"bufferView":24,"byteOffset":0,"componentType":5126,"count":4,"type":"VEC2"}],"animations":[{"channels":[],"name":"Unreal Take","samplers":[]}],"asset":{"generator":"FBX2glTF v0.13.0","version":"2.0"},"bufferViews":[{"buffer":0,"byteLength":4,"byteOffset":0},{"buffer":0,"byteLength":36,"byteOffset":4,"target":34963},{"buffer":0,"byteLength":96,"byteOffset":40,"target":34962},{"buffer":0,"byteLength":96,"byteOffset":136,"target":34962},{"buffer":0,"byteLength":128,"byteOffset":232,"target":34962},{"buffer":0,"byteLength":64,"byteOffset":360,"target":34962},{"buffer":0,"byteLength":64,"byteOffset":424,"target":34962},{"buffer":0,"byteLength":30,"byteOffset":488,"target":34963},{"buffer":0,"byteLength":84,"byteOffset":520,"target":34962},{"buffer":0,"byteLength":84,"byteOffset":604,"target":34962},{"buffer":0,"byteLength":112,"byteOffset":688,"target":34962},{"buffer":0,"byteLength":56,"byteOffset":800,"target":34962},{"buffer":0,"byteLength":56,"byteOffset":856,"target":34962},{"buffer":0,"byteLength":18,"byteOffset":912,"target":34963},{"buffer":0,"byteLength":60,"byteOffset":932,"target":34962},{"buffer":0,"byteLength":60,"byteOffset":992,"target":34962},{"buffer":0,"byteLength":80,"byteOffset":1052,"target":34962},{"buffer":0,"byteLength":40,"byteOffset":1132,"target":34962},{"buffer":0,"byteLength":40,"byteOffset":1172,"target":34962},{"buffer":0,"byteLength":12,"byteOffset":1212,"target":34963},{"buffer":0,"byteLength":48,"byteOffset":1224,"target":34962},{"buffer":0,"byteLength":48,"byteOffset":1272,"target":34962},{"buffer":0,"byteLength":64,"byteOffset":1320,"target":34962},{"buffer":0,"byteLength":32,"byteOffset":1384,"target":34962},{"buffer":0,"byteLength":32,"byteOffset":1416,"target":34962}],"buffers":[{"byteLength":1448,"uri":"SM_Paper_04.bin"}],"images":[{"name":"T_Paper_N","uri":"T_Paper_N.png"},{"name":"T_Paper_B","uri":"T_Paper_B.png"}],"materials":[{"alphaMode":"OPAQUE","doubleSided":false,"extras":{"fromFBX":{"isTruePBR":false,"shadingModel":"Lambert"}},"name":"MI_Paper_02","normalTexture":{"index":0,"texCoord":0},"pbrMetallicRoughness":{"baseColorFactor":[1,1,1,1],"baseColorTexture":{"index":1,"texCoord":0},"metallicFactor":0.200000002980232,"roughnessFactor":0.800000011920929}}],"meshes":[{"name":"SM_Paper_04_LOD0","primitives":[{"attributes":{"NORMAL":3,"POSITION":2,"TANGENT":4,"TEXCOORD_0":5,"TEXCOORD_1":6},"indices":1,"material":0,"mode":4}]},{"name":"SM_Paper_04_LOD1","primitives":[{"attributes":{"NORMAL":9,"POSITION":8,"TANGENT":10,"TEXCOORD_0":11,"TEXCOORD_1":12},"indices":7,"material":0,"mode":4}]},{"name":"SM_Paper_04_LOD2","primitives":[{"attributes":{"NORMAL":15,"POSITION":14,"TANGENT":16,"TEXCOORD_0":17,"TEXCOORD_1":18},"indices":13,"material":0,"mode":4}]},{"name":"SM_Paper_04_LOD3","primitives":[{"attributes":{"NORMAL":21,"POSITION":20,"TANGENT":22,"TEXCOORD_0":23,"TEXCOORD_1":24},"indices":19,"material":0,"mode":4}]}],"nodes":[{"children":[1,2,3,4,5],"name":"SM_Paper_49","originalUnits":0.00999999977648258,"pivot":[0,0,0],"rotation":[0,0,0,1],"scale":[1,1,1],"translation":[0,0,0]},{"mesh":0,"name":"SM_Paper_04_LOD0","originalUnits":0.00999999977648258,"pivot":[0,0,0],"rotation":[0,0,0,1],"scale":[1,1,1],"translation":[0,0,0]},{"name":"SM_Paper_04_ConvexHulls","originalUnits":0.00999999977648258,"pivot":[0,0,0],"rotation":[0,0,0,1],"scale":[1,1,1],"translation":[0,0,0]},{"mesh":1,"name":"SM_Paper_04_LOD1","originalUnits":0.00999999977648258,"pivot":[0,0,0],"rotation":[0,0,0,1],"scale":[1,1,1],"translation":[0,0,0]},{"mesh":2,"name":"SM_Paper_04_LOD2","originalUnits":0.00999999977648258,"pivot":[0,0,0],"rotation":[0,0,0,1],"scale":[1,1,1],"translation":[0,0,0]},{"mesh":3,"name":"SM_Paper_04_LOD3","originalUnits":0.00999999977648258,"pivot":[0,0,0],"rotation":[0,0,0,1],"scale":[1,1,1],"translation":[0,0,0]}],"samplers":[{}],"scene":0,"scenes":[{"name":"Root Scene","nodes":[0]}],"textures":[{"name":"MI_Paper_02","sampler":0,"source":0},{"name":"MI_Paper_02","sampler":0,"source":1}]}