{"accessors":[{"bufferView":0,"byteOffset":0,"componentType":5126,"count":1,"max":[0],"min":[0],"type":"SCALAR"},{"bufferView":1,"byteOffset":0,"componentType":5123,"count":840,"type":"SCALAR"},{"bufferView":2,"byteOffset":0,"componentType":5126,"count":168,"max":[0.0591589212417603,0.0591592453420162,0.565857827663422],"min":[-0.05915892496705,-0.05915861576796,-0.00145901215728],"type":"VEC3"},{"bufferView":3,"byteOffset":0,"componentType":5126,"count":168,"type":"VEC3"},{"bufferView":4,"byteOffset":0,"componentType":5126,"count":168,"type":"VEC4"},{"bufferView":5,"byteOffset":0,"componentType":5126,"count":168,"type":"VEC2"},{"bufferView":6,"byteOffset":0,"componentType":5126,"count":168,"type":"VEC2"},{"bufferView":7,"byteOffset":0,"componentType":5123,"count":630,"type":"SCALAR"},{"bufferView":8,"byteOffset":0,"componentType":5126,"count":131,"max":[0.059358011931181,0.0591592453420162,0.565857827663422],"min":[-0.05915892496705,-0.05915861576796,-0.00145901215728],"type":"VEC3"},{"bufferView":9,"byteOffset":0,"componentType":5126,"count":131,"type":"VEC3"},{"bufferView":10,"byteOffset":0,"componentType":5126,"count":131,"type":"VEC4"},{"bufferView":11,"byteOffset":0,"componentType":5126,"count":131,"type":"VEC2"},{"bufferView":12,"byteOffset":0,"componentType":5126,"count":131,"type":"VEC2"},{"bufferView":13,"byteOffset":0,"componentType":5123,"count":417,"type":"SCALAR"},{"bufferView":14,"byteOffset":0,"componentType":5126,"count":90,"max":[0.059411957859993,0.0594177804887295,0.565994501113892],"min":[-0.05953479930758,-0.05959375575185,-0.0015917387791],"type":"VEC3"},{"bufferView":15,"byteOffset":0,"componentType":5126,"count":90,"type":"VEC3"},{"bufferView":16,"byteOffset":0,"componentType":5126,"count":90,"type":"VEC4"},{"bufferView":17,"byteOffset":0,"componentType":5126,"count":90,"type":"VEC2"},{"bufferView":18,"byteOffset":0,"componentType":5126,"count":90,"type":"VEC2"},{"bufferView":19,"byteOffset":0,"componentType":5123,"count":105,"type":"SCALAR"},{"bufferView":20,"byteOffset":0,"componentType":5126,"count":27,"max":[0.0590876080095768,0.0636129155755043,0.572958648204803],"min":[-0.05748902633786,-0.05770184472203,-0.00620931014419],"type":"VEC3"},{"bufferView":21,"byteOffset":0,"componentType":5126,"count":27,"type":"VEC3"},{"bufferView":22,"byteOffset":0,"componentType":5126,"count":27,"type":"VEC4"},{"bufferView":23,"byteOffset":0,"componentType":5126,"count":27,"type":"VEC2"},{"bufferView":24,"byteOffset":0,"componentType":5126,"count":27,"type":"VEC2"},{"bufferView":25,"byteOffset":0,"componentType":5123,"count":144,"type":"SCALAR"},{"bufferView":26,"byteOffset":0,"componentType":5126,"count":26,"max":[0.0601589195430279,0.0601592399179935,0.566857814788818],"min":[-0.06031250208616,-0.06015861406922,-0.00247953506187],"type":"VEC3"},{"bufferView":27,"byteOffset":0,"componentType":5126,"count":26,"type":"VEC3"},{"bufferView":28,"byteOffset":0,"componentType":5126,"count":26,"type":"VEC2"},{"bufferView":29,"byteOffset":0,"componentType":5126,"count":26,"type":"VEC2"}],"animations":[{"channels":[],"name":"Unreal Take","samplers":[]}],"asset":{"generator":"FBX2glTF v0.13.0","version":"2.0"},"bufferViews":[{"buffer":0,"byteLength":4,"byteOffset":0},{"buffer":0,"byteLength":1680,"byteOffset":4,"target":34963},{"buffer":0,"byteLength":2016,"byteOffset":1684,"target":34962},{"buffer":0,"byteLength":2016,"byteOffset":3700,"target":34962},{"buffer":0,"byteLength":2688,"byteOffset":5716,"target":34962},{"buffer":0,"byteLength":1344,"byteOffset":8404,"target":34962},{"buffer":0,"byteLength":1344,"byteOffset":9748,"target":34962},{"buffer":0,"byteLength":1260,"byteOffset":11092,"target":34963},{"buffer":0,"byteLength":1572,"byteOffset":12352,"target":34962},{"buffer":0,"byteLength":1572,"byteOffset":13924,"target":34962},{"buffer":0,"byteLength":2096,"byteOffset":15496,"target":34962},{"buffer":0,"byteLength":1048,"byteOffset":17592,"target":34962},{"buffer":0,"byteLength":1048,"byteOffset":18640,"target":34962},{"buffer":0,"byteLength":834,"byteOffset":19688,"target":34963},{"buffer":0,"byteLength":1080,"byteOffset":20524,"target":34962},{"buffer":0,"byteLength":1080,"byteOffset":21604,"target":34962},{"buffer":0,"byteLength":1440,"byteOffset":22684,"target":34962},{"buffer":0,"byteLength":720,"byteOffset":24124,"target":34962},{"buffer":0,"byteLength":720,"byteOffset":24844,"target":34962},{"buffer":0,"byteLength":210,"byteOffset":25564,"target":34963},{"buffer":0,"byteLength":324,"byteOffset":25776,"target":34962},{"buffer":0,"byteLength":324,"byteOffset":26100,"target":34962},{"buffer":0,"byteLength":432,"byteOffset":26424,"target":34962},{"buffer":0,"byteLength":216,"byteOffset":26856,"target":34962},{"buffer":0,"byteLength":216,"byteOffset":27072,"target":34962},{"buffer":0,"byteLength":288,"byteOffset":27288,"target":34963},{"buffer":0,"byteLength":312,"byteOffset":27576,"target":34962},{"buffer":0,"byteLength":312,"byteOffset":27888,"target":34962},{"buffer":0,"byteLength":208,"byteOffset":28200,"target":34962},{"buffer":0,"byteLength":208,"byteOffset":28408,"target":34962}],"buffers":[{"byteLength":28616,"uri":"SM_Pipe_long.bin"}],"images":[{"name":"T_Metal_N","uri":"T_Metal_N.png"},{"name":"T_Metal_B","uri":"T_Metal_B.png"}],"materials":[{"alphaMode":"OPAQUE","doubleSided":false,"extras":{"fromFBX":{"isTruePBR":false,"shadingModel":"Phong"}},"name":"MI_Pipe","normalTexture":{"index":0,"texCoord":0},"pbrMetallicRoughness":{"baseColorFactor":[1,1,1,1],"baseColorTexture":{"index":1,"texCoord":0},"metallicFactor":0.400000005960464,"roughnessFactor":0.301511347293854}},{"alphaMode":"OPAQUE","doubleSided":false,"extras":{"fromFBX":{"isTruePBR":false,"shadingModel":"Lambert"}},"name":"DefaultMaterial","pbrMetallicRoughness":{"baseColorFactor":[0.5,0.5,0.5,1],"metallicFactor":0.200000002980232,"roughnessFactor":0.800000011920929}}],"meshes":[{"name":"SM_Pipe_long_LOD0","primitives":[{"attributes":{"NORMAL":3,"POSITION":2,"TANGENT":4,"TEXCOORD_0":5,"TEXCOORD_1":6},"indices":1,"material":0,"mode":4}]},{"name":"SM_Pipe_long_LOD1","primitives":[{"attributes":{"NORMAL":9,"POSITION":8,"TANGENT":10,"TEXCOORD_0":11,"TEXCOORD_1":12},"indices":7,"material":0,"mode":4}]},{"name":"SM_Pipe_long_LOD2","primitives":[{"attributes":{"NORMAL":15,"POSITION":14,"TANGENT":16,"TEXCOORD_0":17,"TEXCOORD_1":18},"indices":13,"material":0,"mode":4}]},{"name":"SM_Pipe_long_LOD3","primitives":[{"attributes":{"NORMAL":21,"POSITION":20,"TANGENT":22,"TEXCOORD_0":23,"TEXCOORD_1":24},"indices":19,"material":0,"mode":4}]},{"name":"SM_Pipe_long_ConvexHulls","primitives":[{"attributes":{"NORMAL":27,"POSITION":26,"TEXCOORD_0":28,"TEXCOORD_1":29},"indices":25,"material":1,"mode":4}]}],"nodes":[{"children":[1,2,3,4,5],"name":"SM_Pipe_long_58","originalUnits":0.00999999977648258,"pivot":[0,0,0],"rotation":[0,0,0,1],"scale":[1,1,1],"translation":[0,0,0]},{"mesh":0,"name":"SM_Pipe_long_LOD0","originalUnits":0.00999999977648258,"pivot":[0,0,0],"rotation":[0,0,0,1],"scale":[1,1,1],"translation":[0,0,0]},{"mesh":4,"name":"SM_Pipe_long_ConvexHulls","originalUnits":0.00999999977648258,"pivot":[0,0,0],"rotation":[0,0,0,1],"scale":[1,1,1],"translation":[0,0,0]},{"mesh":1,"name":"SM_Pipe_long_LOD1","originalUnits":0.00999999977648258,"pivot":[0,0,0],"rotation":[0,0,0,1],"scale":[1,1,1],"translation":[0,0,0]},{"mesh":2,"name":"SM_Pipe_long_LOD2","originalUnits":0.00999999977648258,"pivot":[0,0,0],"rotation":[0,0,0,1],"scale":[1,1,1],"translation":[0,0,0]},{"mesh":3,"name":"SM_Pipe_long_LOD3","originalUnits":0.00999999977648258,"pivot":[0,0,0],"rotation":[0,0,0,1],"scale":[1,1,1],"translation":[0,0,0]}],"samplers":[{}],"scene":0,"scenes":[{"name":"Root Scene","nodes":[0]}],"textures":[{"name":"MI_Pipe","sampler":0,"source":0},{"name":"MI_Pipe","sampler":0,"source":1}]}