{"accessors":[{"bufferView":0,"byteOffset":0,"componentType":5126,"count":1,"max":[0],"min":[0],"type":"SCALAR"},{"bufferView":1,"byteOffset":0,"componentType":5123,"count":36,"type":"SCALAR"},{"bufferView":2,"byteOffset":0,"componentType":5126,"count":24,"max":[0.131017133593559,1.13409423828125,0.131016865372658],"min":[-0.13101713359356,-1.13409423828125,-0.13101686537266],"type":"VEC3"},{"bufferView":3,"byteOffset":0,"componentType":5126,"count":24,"type":"VEC3"},{"bufferView":4,"byteOffset":0,"componentType":5126,"count":24,"type":"VEC4"},{"bufferView":5,"byteOffset":0,"componentType":5126,"count":24,"type":"VEC2"},{"bufferView":6,"byteOffset":0,"componentType":5126,"count":24,"type":"VEC2"},{"bufferView":7,"byteOffset":0,"componentType":5123,"count":24,"type":"SCALAR"},{"bufferView":8,"byteOffset":0,"componentType":5126,"count":20,"max":[0.131017133593559,1.2401602268219,0.279383987188339],"min":[-0.2536187171936,-1.24517059326172,-0.13101686537266],"type":"VEC3"},{"bufferView":9,"byteOffset":0,"componentType":5126,"count":20,"type":"VEC3"},{"bufferView":10,"byteOffset":0,"componentType":5126,"count":20,"type":"VEC4"},{"bufferView":11,"byteOffset":0,"componentType":5126,"count":20,"type":"VEC2"},{"bufferView":12,"byteOffset":0,"componentType":5126,"count":20,"type":"VEC2"},{"bufferView":13,"byteOffset":0,"componentType":5123,"count":18,"type":"SCALAR"},{"bufferView":14,"byteOffset":0,"componentType":5126,"count":14,"max":[0.131017133593559,1.2401602268219,0.279383987188339],"min":[-0.13101708889008,-1.13409423828125,-0.13101686537266],"type":"VEC3"},{"bufferView":15,"byteOffset":0,"componentType":5126,"count":14,"type":"VEC3"},{"bufferView":16,"byteOffset":0,"componentType":5126,"count":14,"type":"VEC4"},{"bufferView":17,"byteOffset":0,"componentType":5126,"count":14,"type":"VEC2"},{"bufferView":18,"byteOffset":0,"componentType":5126,"count":14,"type":"VEC2"},{"bufferView":19,"byteOffset":0,"componentType":5123,"count":6,"type":"SCALAR"},{"bufferView":20,"byteOffset":0,"componentType":5126,"count":6,"max":[0.0922014489769936,1.2401602268219,0.279383987188339],"min":[-0.07180981338024,-1.03873217105865,-0.18692143261433],"type":"VEC3"},{"bufferView":21,"byteOffset":0,"componentType":5126,"count":6,"type":"VEC3"},{"bufferView":22,"byteOffset":0,"componentType":5126,"count":6,"type":"VEC4"},{"bufferView":23,"byteOffset":0,"componentType":5126,"count":6,"type":"VEC2"},{"bufferView":24,"byteOffset":0,"componentType":5126,"count":6,"type":"VEC2"},{"bufferView":25,"byteOffset":0,"componentType":5123,"count":36,"type":"SCALAR"},{"bufferView":26,"byteOffset":0,"componentType":5126,"count":8,"max":[0.131946071982384,1.13499999046326,0.132016867399216],"min":[-0.13218753039837,-1.13509428501129,-0.13201686739922],"type":"VEC3"},{"bufferView":27,"byteOffset":0,"componentType":5126,"count":8,"type":"VEC3"},{"bufferView":28,"byteOffset":0,"componentType":5126,"count":8,"type":"VEC2"},{"bufferView":29,"byteOffset":0,"componentType":5126,"count":8,"type":"VEC2"}],"animations":[{"channels":[],"name":"Unreal Take","samplers":[]}],"asset":{"generator":"FBX2glTF v0.13.0","version":"2.0"},"bufferViews":[{"buffer":0,"byteLength":4,"byteOffset":0},{"buffer":0,"byteLength":72,"byteOffset":4,"target":34963},{"buffer":0,"byteLength":288,"byteOffset":76,"target":34962},{"buffer":0,"byteLength":288,"byteOffset":364,"target":34962},{"buffer":0,"byteLength":384,"byteOffset":652,"target":34962},{"buffer":0,"byteLength":192,"byteOffset":1036,"target":34962},{"buffer":0,"byteLength":192,"byteOffset":1228,"target":34962},{"buffer":0,"byteLength":48,"byteOffset":1420,"target":34963},{"buffer":0,"byteLength":240,"byteOffset":1468,"target":34962},{"buffer":0,"byteLength":240,"byteOffset":1708,"target":34962},{"buffer":0,"byteLength":320,"byteOffset":1948,"target":34962},{"buffer":0,"byteLength":160,"byteOffset":2268,"target":34962},{"buffer":0,"byteLength":160,"byteOffset":2428,"target":34962},{"buffer":0,"byteLength":36,"byteOffset":2588,"target":34963},{"buffer":0,"byteLength":168,"byteOffset":2624,"target":34962},{"buffer":0,"byteLength":168,"byteOffset":2792,"target":34962},{"buffer":0,"byteLength":224,"byteOffset":2960,"target":34962},{"buffer":0,"byteLength":112,"byteOffset":3184,"target":34962},{"buffer":0,"byteLength":112,"byteOffset":3296,"target":34962},{"buffer":0,"byteLength":12,"byteOffset":3408,"target":34963},{"buffer":0,"byteLength":72,"byteOffset":3420,"target":34962},{"buffer":0,"byteLength":72,"byteOffset":3492,"target":34962},{"buffer":0,"byteLength":96,"byteOffset":3564,"target":34962},{"buffer":0,"byteLength":48,"byteOffset":3660,"target":34962},{"buffer":0,"byteLength":48,"byteOffset":3708,"target":34962},{"buffer":0,"byteLength":72,"byteOffset":3756,"target":34963},{"buffer":0,"byteLength":96,"byteOffset":3828,"target":34962},{"buffer":0,"byteLength":96,"byteOffset":3924,"target":34962},{"buffer":0,"byteLength":64,"byteOffset":4020,"target":34962},{"buffer":0,"byteLength":64,"byteOffset":4084,"target":34962}],"buffers":[{"byteLength":4148,"uri":"SM_Pillar_01.bin"}],"images":[{"name":"T_Structures_N","uri":"T_Structures_N.png"},{"name":"T_Structures_B","uri":"T_Structures_B.png"}],"materials":[{"alphaMode":"OPAQUE","doubleSided":false,"extras":{"fromFBX":{"isTruePBR":false,"shadingModel":"Phong"}},"name":"MI_Beams","normalTexture":{"index":0,"texCoord":0},"pbrMetallicRoughness":{"baseColorFactor":[1,1,1,1],"baseColorTexture":{"index":1,"texCoord":0},"metallicFactor":0.400000005960464,"roughnessFactor":0.301511347293854}},{"alphaMode":"OPAQUE","doubleSided":false,"extras":{"fromFBX":{"isTruePBR":false,"shadingModel":"Lambert"}},"name":"DefaultMaterial","pbrMetallicRoughness":{"baseColorFactor":[0.5,0.5,0.5,1],"metallicFactor":0.200000002980232,"roughnessFactor":0.800000011920929}}],"meshes":[{"name":"SM_Pillar_01_LOD0","primitives":[{"attributes":{"NORMAL":3,"POSITION":2,"TANGENT":4,"TEXCOORD_0":5,"TEXCOORD_1":6},"indices":1,"material":0,"mode":4}]},{"name":"SM_Pillar_01_LOD1","primitives":[{"attributes":{"NORMAL":9,"POSITION":8,"TANGENT":10,"TEXCOORD_0":11,"TEXCOORD_1":12},"indices":7,"material":0,"mode":4}]},{"name":"SM_Pillar_01_LOD2","primitives":[{"attributes":{"NORMAL":15,"POSITION":14,"TANGENT":16,"TEXCOORD_0":17,"TEXCOORD_1":18},"indices":13,"material":0,"mode":4}]},{"name":"SM_Pillar_01_LOD3","primitives":[{"attributes":{"NORMAL":21,"POSITION":20,"TANGENT":22,"TEXCOORD_0":23,"TEXCOORD_1":24},"indices":19,"material":0,"mode":4}]},{"name":"SM_Pillar_01_ConvexHulls","primitives":[{"attributes":{"NORMAL":27,"POSITION":26,"TEXCOORD_0":28,"TEXCOORD_1":29},"indices":25,"material":1,"mode":4}]}],"nodes":[{"children":[1,2,3,4,5],"name":"SM_Pillar_01_54","originalUnits":0.00999999977648258,"pivot":[0,0,0],"rotation":[0,0,0,1],"scale":[1,1,1],"translation":[0,0,0]},{"mesh":0,"name":"SM_Pillar_01_LOD0","originalUnits":0.00999999977648258,"pivot":[0,0,0],"rotation":[0,0,0,1],"scale":[1,1,1],"translation":[0,0,0]},{"mesh":4,"name":"SM_Pillar_01_ConvexHulls","originalUnits":0.00999999977648258,"pivot":[0,0,0],"rotation":[0,0,0,1],"scale":[1,1,1],"translation":[0,0,0]},{"mesh":1,"name":"SM_Pillar_01_LOD1","originalUnits":0.00999999977648258,"pivot":[0,0,0],"rotation":[0,0,0,1],"scale":[1,1,1],"translation":[0,0,0]},{"mesh":2,"name":"SM_Pillar_01_LOD2","originalUnits":0.00999999977648258,"pivot":[0,0,0],"rotation":[0,0,0,1],"scale":[1,1,1],"translation":[0,0,0]},{"mesh":3,"name":"SM_Pillar_01_LOD3","originalUnits":0.00999999977648258,"pivot":[0,0,0],"rotation":[0,0,0,1],"scale":[1,1,1],"translation":[0,0,0]}],"samplers":[{}],"scene":0,"scenes":[{"name":"Root Scene","nodes":[0]}],"textures":[{"name":"MI_Beams","sampler":0,"source":0},{"name":"MI_Beams","sampler":0,"source":1}]}