{"accessors":[{"bufferView":0,"byteOffset":0,"componentType":5126,"count":1,"max":[0],"min":[0],"type":"SCALAR"},{"bufferView":1,"byteOffset":0,"componentType":5123,"count":17148,"type":"SCALAR"},{"bufferView":2,"byteOffset":0,"componentType":5126,"count":3670,"max":[0.0544824190437794,0.286834597587585,0.257187485694885],"min":[-0.05448251590133,-0.00000000004862,-0.25718748569488],"type":"VEC3"},{"bufferView":3,"byteOffset":0,"componentType":5126,"count":3670,"type":"VEC3"},{"bufferView":4,"byteOffset":0,"componentType":5126,"count":3670,"type":"VEC4"},{"bufferView":5,"byteOffset":0,"componentType":5126,"count":3670,"type":"VEC2"},{"bufferView":6,"byteOffset":0,"componentType":5126,"count":3670,"type":"VEC2"},{"bufferView":7,"byteOffset":0,"componentType":5123,"count":12861,"type":"SCALAR"},{"bufferView":8,"byteOffset":0,"componentType":5126,"count":2871,"max":[0.0544824190437794,0.286834597587585,0.257187485694885],"min":[-0.05505023896694,-0.00000000004862,-0.25718748569488],"type":"VEC3"},{"bufferView":9,"byteOffset":0,"componentType":5126,"count":2871,"type":"VEC3"},{"bufferView":10,"byteOffset":0,"componentType":5126,"count":2871,"type":"VEC4"},{"bufferView":11,"byteOffset":0,"componentType":5126,"count":2871,"type":"VEC2"},{"bufferView":12,"byteOffset":0,"componentType":5126,"count":2871,"type":"VEC2"},{"bufferView":13,"byteOffset":0,"componentType":5123,"count":8574,"type":"SCALAR"},{"bufferView":14,"byteOffset":0,"componentType":5126,"count":2014,"max":[0.0545423030853271,0.286834597587585,0.257187485694885],"min":[-0.05546121299267,-0.00000000004862,-0.25718748569488],"type":"VEC3"},{"bufferView":15,"byteOffset":0,"componentType":5126,"count":2014,"type":"VEC3"},{"bufferView":16,"byteOffset":0,"componentType":5126,"count":2014,"type":"VEC4"},{"bufferView":17,"byteOffset":0,"componentType":5126,"count":2014,"type":"VEC2"},{"bufferView":18,"byteOffset":0,"componentType":5126,"count":2014,"type":"VEC2"},{"bufferView":19,"byteOffset":0,"componentType":5123,"count":2145,"type":"SCALAR"},{"bufferView":20,"byteOffset":0,"componentType":5126,"count":706,"max":[0.0545876398682594,0.287519305944443,0.253498882055283],"min":[-0.05468413233757,-0.00088938762201,-0.25643962621689],"type":"VEC3"},{"bufferView":21,"byteOffset":0,"componentType":5126,"count":706,"type":"VEC3"},{"bufferView":22,"byteOffset":0,"componentType":5126,"count":706,"type":"VEC4"},{"bufferView":23,"byteOffset":0,"componentType":5126,"count":706,"type":"VEC2"},{"bufferView":24,"byteOffset":0,"componentType":5126,"count":706,"type":"VEC2"},{"bufferView":25,"byteOffset":0,"componentType":5123,"count":246,"type":"SCALAR"},{"bufferView":26,"byteOffset":0,"componentType":5126,"count":49,"max":[0.0578497685492039,0.286649823188782,0.254579544067383],"min":[-0.05657833069563,-0.00140944495797,-0.25916624069214],"type":"VEC3"},{"bufferView":27,"byteOffset":0,"componentType":5126,"count":49,"type":"VEC3"},{"bufferView":28,"byteOffset":0,"componentType":5126,"count":49,"type":"VEC2"},{"bufferView":29,"byteOffset":0,"componentType":5126,"count":49,"type":"VEC2"}],"animations":[{"channels":[],"name":"Unreal Take","samplers":[]}],"asset":{"generator":"FBX2glTF v0.13.0","version":"2.0"},"bufferViews":[{"buffer":0,"byteLength":4,"byteOffset":0},{"buffer":0,"byteLength":34296,"byteOffset":4,"target":34963},{"buffer":0,"byteLength":44040,"byteOffset":34300,"target":34962},{"buffer":0,"byteLength":44040,"byteOffset":78340,"target":34962},{"buffer":0,"byteLength":58720,"byteOffset":122380,"target":34962},{"buffer":0,"byteLength":29360,"byteOffset":181100,"target":34962},{"buffer":0,"byteLength":29360,"byteOffset":210460,"target":34962},{"buffer":0,"byteLength":25722,"byteOffset":239820,"target":34963},{"buffer":0,"byteLength":34452,"byteOffset":265544,"target":34962},{"buffer":0,"byteLength":34452,"byteOffset":299996,"target":34962},{"buffer":0,"byteLength":45936,"byteOffset":334448,"target":34962},{"buffer":0,"byteLength":22968,"byteOffset":380384,"target":34962},{"buffer":0,"byteLength":22968,"byteOffset":403352,"target":34962},{"buffer":0,"byteLength":17148,"byteOffset":426320,"target":34963},{"buffer":0,"byteLength":24168,"byteOffset":443468,"target":34962},{"buffer":0,"byteLength":24168,"byteOffset":467636,"target":34962},{"buffer":0,"byteLength":32224,"byteOffset":491804,"target":34962},{"buffer":0,"byteLength":16112,"byteOffset":524028,"target":34962},{"buffer":0,"byteLength":16112,"byteOffset":540140,"target":34962},{"buffer":0,"byteLength":4290,"byteOffset":556252,"target":34963},{"buffer":0,"byteLength":8472,"byteOffset":560544,"target":34962},{"buffer":0,"byteLength":8472,"byteOffset":569016,"target":34962},{"buffer":0,"byteLength":11296,"byteOffset":577488,"target":34962},{"buffer":0,"byteLength":5648,"byteOffset":588784,"target":34962},{"buffer":0,"byteLength":5648,"byteOffset":594432,"target":34962},{"buffer":0,"byteLength":492,"byteOffset":600080,"target":34963},{"buffer":0,"byteLength":588,"byteOffset":600572,"target":34962},{"buffer":0,"byteLength":588,"byteOffset":601160,"target":34962},{"buffer":0,"byteLength":392,"byteOffset":601748,"target":34962},{"buffer":0,"byteLength":392,"byteOffset":602140,"target":34962}],"buffers":[{"byteLength":602532,"uri":"SM_Planer_01.bin"}],"images":[{"name":"T_Tools_N","uri":"T_Tools_N.png"},{"name":"T_Tools_B","uri":"T_Tools_B.png"}],"materials":[{"alphaMode":"OPAQUE","doubleSided":false,"extras":{"fromFBX":{"isTruePBR":false,"shadingModel":"Phong"}},"name":"MI_Tools_02","normalTexture":{"index":0,"texCoord":0},"pbrMetallicRoughness":{"baseColorFactor":[1,1,1,1],"baseColorTexture":{"index":1,"texCoord":0},"metallicFactor":0.400000005960464,"roughnessFactor":0.301511347293854}},{"alphaMode":"OPAQUE","doubleSided":false,"extras":{"fromFBX":{"isTruePBR":false,"shadingModel":"Lambert"}},"name":"DefaultMaterial","pbrMetallicRoughness":{"baseColorFactor":[0.5,0.5,0.5,1],"metallicFactor":0.200000002980232,"roughnessFactor":0.800000011920929}}],"meshes":[{"name":"SM_Planer_01_LOD0","primitives":[{"attributes":{"NORMAL":3,"POSITION":2,"TANGENT":4,"TEXCOORD_0":5,"TEXCOORD_1":6},"indices":1,"material":0,"mode":4}]},{"name":"SM_Planer_01_LOD1","primitives":[{"attributes":{"NORMAL":9,"POSITION":8,"TANGENT":10,"TEXCOORD_0":11,"TEXCOORD_1":12},"indices":7,"material":0,"mode":4}]},{"name":"SM_Planer_01_LOD2","primitives":[{"attributes":{"NORMAL":15,"POSITION":14,"TANGENT":16,"TEXCOORD_0":17,"TEXCOORD_1":18},"indices":13,"material":0,"mode":4}]},{"name":"SM_Planer_01_LOD3","primitives":[{"attributes":{"NORMAL":21,"POSITION":20,"TANGENT":22,"TEXCOORD_0":23,"TEXCOORD_1":24},"indices":19,"material":0,"mode":4}]},{"name":"SM_Planer_01_ConvexHulls","primitives":[{"attributes":{"NORMAL":27,"POSITION":26,"TEXCOORD_0":28,"TEXCOORD_1":29},"indices":25,"material":1,"mode":4}]}],"nodes":[{"children":[1,2,3,4,5],"name":"SM_Planer_01_64","originalUnits":0.00999999977648258,"pivot":[0,0,0],"rotation":[0,0,0,1],"scale":[1,1,1],"translation":[0,0,0]},{"mesh":0,"name":"SM_Planer_01_LOD0","originalUnits":0.00999999977648258,"pivot":[0,0,0],"rotation":[0,0,0,1],"scale":[1,1,1],"translation":[0,0,0]},{"mesh":4,"name":"SM_Planer_01_ConvexHulls","originalUnits":0.00999999977648258,"pivot":[0,0,0],"rotation":[0,0,0,1],"scale":[1,1,1],"translation":[0,0,0]},{"mesh":1,"name":"SM_Planer_01_LOD1","originalUnits":0.00999999977648258,"pivot":[0,0,0],"rotation":[0,0,0,1],"scale":[1,1,1],"translation":[0,0,0]},{"mesh":2,"name":"SM_Planer_01_LOD2","originalUnits":0.00999999977648258,"pivot":[0,0,0],"rotation":[0,0,0,1],"scale":[1,1,1],"translation":[0,0,0]},{"mesh":3,"name":"SM_Planer_01_LOD3","originalUnits":0.00999999977648258,"pivot":[0,0,0],"rotation":[0,0,0,1],"scale":[1,1,1],"translation":[0,0,0]}],"samplers":[{}],"scene":0,"scenes":[{"name":"Root Scene","nodes":[0]}],"textures":[{"name":"MI_Tools_02","sampler":0,"source":0},{"name":"MI_Tools_02","sampler":0,"source":1}]}