{"accessors":[{"bufferView":0,"byteOffset":0,"componentType":5126,"count":1,"max":[0],"min":[0],"type":"SCALAR"},{"bufferView":1,"byteOffset":0,"componentType":5123,"count":336,"type":"SCALAR"},{"bufferView":2,"byteOffset":0,"componentType":5126,"count":145,"max":[0.0406266152858734,4.75000190734863,0.0406258627772331],"min":[-0.30265909433365,-0.00000059657589,-0.30265909433365],"type":"VEC3"},{"bufferView":3,"byteOffset":0,"componentType":5126,"count":145,"type":"VEC3"},{"bufferView":4,"byteOffset":0,"componentType":5126,"count":145,"type":"VEC4"},{"bufferView":5,"byteOffset":0,"componentType":5126,"count":145,"type":"VEC2"},{"bufferView":6,"byteOffset":0,"componentType":5126,"count":145,"type":"VEC2"},{"bufferView":7,"byteOffset":0,"componentType":5123,"count":252,"type":"SCALAR"},{"bufferView":8,"byteOffset":0,"componentType":5126,"count":117,"max":[0.0406266152858734,4.75000190734863,0.0406258627772331],"min":[-0.30265909433365,-0.00000059657589,-0.30265909433365],"type":"VEC3"},{"bufferView":9,"byteOffset":0,"componentType":5126,"count":117,"type":"VEC3"},{"bufferView":10,"byteOffset":0,"componentType":5126,"count":117,"type":"VEC4"},{"bufferView":11,"byteOffset":0,"componentType":5126,"count":117,"type":"VEC2"},{"bufferView":12,"byteOffset":0,"componentType":5126,"count":117,"type":"VEC2"},{"bufferView":13,"byteOffset":0,"componentType":5123,"count":168,"type":"SCALAR"},{"bufferView":14,"byteOffset":0,"componentType":5126,"count":92,"max":[0.0389353893697262,4.75000190734863,0.0389342941343784],"min":[-0.30081468820572,-0.00000059657589,-0.3021919131279],"type":"VEC3"},{"bufferView":15,"byteOffset":0,"componentType":5126,"count":92,"type":"VEC3"},{"bufferView":16,"byteOffset":0,"componentType":5126,"count":92,"type":"VEC4"},{"bufferView":17,"byteOffset":0,"componentType":5126,"count":92,"type":"VEC2"},{"bufferView":18,"byteOffset":0,"componentType":5126,"count":92,"type":"VEC2"},{"bufferView":19,"byteOffset":0,"componentType":5123,"count":42,"type":"SCALAR"},{"bufferView":20,"byteOffset":0,"componentType":5126,"count":30,"max":[0.00584410596638918,4.75000190734863,0.156719788908958],"min":[-0.42694562673569,0.0758351162075996,-0.27025350928307],"type":"VEC3"},{"bufferView":21,"byteOffset":0,"componentType":5126,"count":30,"type":"VEC3"},{"bufferView":22,"byteOffset":0,"componentType":5126,"count":30,"type":"VEC4"},{"bufferView":23,"byteOffset":0,"componentType":5126,"count":30,"type":"VEC2"},{"bufferView":24,"byteOffset":0,"componentType":5126,"count":30,"type":"VEC2"},{"bufferView":25,"byteOffset":0,"componentType":5123,"count":102,"type":"SCALAR"},{"bufferView":26,"byteOffset":0,"componentType":5126,"count":19,"max":[0.0418750606477261,4.75100183486938,0.041874997317791],"min":[-0.30374997854233,-0.00125000043772,-0.30370455980301],"type":"VEC3"},{"bufferView":27,"byteOffset":0,"componentType":5126,"count":19,"type":"VEC3"},{"bufferView":28,"byteOffset":0,"componentType":5126,"count":19,"type":"VEC2"},{"bufferView":29,"byteOffset":0,"componentType":5126,"count":19,"type":"VEC2"}],"animations":[{"channels":[],"name":"Unreal Take","samplers":[]}],"asset":{"generator":"FBX2glTF v0.13.0","version":"2.0"},"bufferViews":[{"buffer":0,"byteLength":4,"byteOffset":0},{"buffer":0,"byteLength":672,"byteOffset":4,"target":34963},{"buffer":0,"byteLength":1740,"byteOffset":676,"target":34962},{"buffer":0,"byteLength":1740,"byteOffset":2416,"target":34962},{"buffer":0,"byteLength":2320,"byteOffset":4156,"target":34962},{"buffer":0,"byteLength":1160,"byteOffset":6476,"target":34962},{"buffer":0,"byteLength":1160,"byteOffset":7636,"target":34962},{"buffer":0,"byteLength":504,"byteOffset":8796,"target":34963},{"buffer":0,"byteLength":1404,"byteOffset":9300,"target":34962},{"buffer":0,"byteLength":1404,"byteOffset":10704,"target":34962},{"buffer":0,"byteLength":1872,"byteOffset":12108,"target":34962},{"buffer":0,"byteLength":936,"byteOffset":13980,"target":34962},{"buffer":0,"byteLength":936,"byteOffset":14916,"target":34962},{"buffer":0,"byteLength":336,"byteOffset":15852,"target":34963},{"buffer":0,"byteLength":1104,"byteOffset":16188,"target":34962},{"buffer":0,"byteLength":1104,"byteOffset":17292,"target":34962},{"buffer":0,"byteLength":1472,"byteOffset":18396,"target":34962},{"buffer":0,"byteLength":736,"byteOffset":19868,"target":34962},{"buffer":0,"byteLength":736,"byteOffset":20604,"target":34962},{"buffer":0,"byteLength":84,"byteOffset":21340,"target":34963},{"buffer":0,"byteLength":360,"byteOffset":21424,"target":34962},{"buffer":0,"byteLength":360,"byteOffset":21784,"target":34962},{"buffer":0,"byteLength":480,"byteOffset":22144,"target":34962},{"buffer":0,"byteLength":240,"byteOffset":22624,"target":34962},{"buffer":0,"byteLength":240,"byteOffset":22864,"target":34962},{"buffer":0,"byteLength":204,"byteOffset":23104,"target":34963},{"buffer":0,"byteLength":228,"byteOffset":23308,"target":34962},{"buffer":0,"byteLength":228,"byteOffset":23536,"target":34962},{"buffer":0,"byteLength":152,"byteOffset":23764,"target":34962},{"buffer":0,"byteLength":152,"byteOffset":23916,"target":34962}],"buffers":[{"byteLength":24068,"uri":"SM_Pillar.bin"}],"images":[{"name":"T_Structures_N","uri":"T_Structures_N.png"},{"name":"T_Structures_B","uri":"T_Structures_B.png"}],"materials":[{"alphaMode":"OPAQUE","doubleSided":false,"extras":{"fromFBX":{"isTruePBR":false,"shadingModel":"Phong"}},"name":"MI_Beams","normalTexture":{"index":0,"texCoord":0},"pbrMetallicRoughness":{"baseColorFactor":[1,1,1,1],"baseColorTexture":{"index":1,"texCoord":0},"metallicFactor":0.400000005960464,"roughnessFactor":0.301511347293854}},{"alphaMode":"OPAQUE","doubleSided":false,"extras":{"fromFBX":{"isTruePBR":false,"shadingModel":"Lambert"}},"name":"DefaultMaterial","pbrMetallicRoughness":{"baseColorFactor":[0.5,0.5,0.5,1],"metallicFactor":0.200000002980232,"roughnessFactor":0.800000011920929}}],"meshes":[{"name":"SM_Pillar_LOD0","primitives":[{"attributes":{"NORMAL":3,"POSITION":2,"TANGENT":4,"TEXCOORD_0":5,"TEXCOORD_1":6},"indices":1,"material":0,"mode":4}]},{"name":"SM_Pillar_LOD1","primitives":[{"attributes":{"NORMAL":9,"POSITION":8,"TANGENT":10,"TEXCOORD_0":11,"TEXCOORD_1":12},"indices":7,"material":0,"mode":4}]},{"name":"SM_Pillar_LOD2","primitives":[{"attributes":{"NORMAL":15,"POSITION":14,"TANGENT":16,"TEXCOORD_0":17,"TEXCOORD_1":18},"indices":13,"material":0,"mode":4}]},{"name":"SM_Pillar_LOD3","primitives":[{"attributes":{"NORMAL":21,"POSITION":20,"TANGENT":22,"TEXCOORD_0":23,"TEXCOORD_1":24},"indices":19,"material":0,"mode":4}]},{"name":"SM_Pillar_ConvexHulls","primitives":[{"attributes":{"NORMAL":27,"POSITION":26,"TEXCOORD_0":28,"TEXCOORD_1":29},"indices":25,"material":1,"mode":4}]}],"nodes":[{"children":[1,2,3,4,5],"name":"SM_Pillar_53","originalUnits":0.00999999977648258,"pivot":[0,0,0],"rotation":[0,0,0,1],"scale":[1,1,1],"translation":[0,0,0]},{"mesh":0,"name":"SM_Pillar_LOD0","originalUnits":0.00999999977648258,"pivot":[0,0,0],"rotation":[0,0,0,1],"scale":[1,1,1],"translation":[0,0,0]},{"mesh":4,"name":"SM_Pillar_ConvexHulls","originalUnits":0.00999999977648258,"pivot":[0,0,0],"rotation":[0,0,0,1],"scale":[1,1,1],"translation":[0,0,0]},{"mesh":1,"name":"SM_Pillar_LOD1","originalUnits":0.00999999977648258,"pivot":[0,0,0],"rotation":[0,0,0,1],"scale":[1,1,1],"translation":[0,0,0]},{"mesh":2,"name":"SM_Pillar_LOD2","originalUnits":0.00999999977648258,"pivot":[0,0,0],"rotation":[0,0,0,1],"scale":[1,1,1],"translation":[0,0,0]},{"mesh":3,"name":"SM_Pillar_LOD3","originalUnits":0.00999999977648258,"pivot":[0,0,0],"rotation":[0,0,0,1],"scale":[1,1,1],"translation":[0,0,0]}],"samplers":[{}],"scene":0,"scenes":[{"name":"Root Scene","nodes":[0]}],"textures":[{"name":"MI_Beams","sampler":0,"source":0},{"name":"MI_Beams","sampler":0,"source":1}]}