{"accessors":[{"bufferView":0,"byteOffset":0,"componentType":5126,"count":1,"max":[0],"min":[0],"type":"SCALAR"},{"bufferView":1,"byteOffset":0,"componentType":5123,"count":4776,"type":"SCALAR"},{"bufferView":2,"byteOffset":0,"componentType":5126,"count":1224,"max":[0.00063088140450418,0.0682326033711433,0.0682324469089508],"min":[-0.15800404548645,-0.06823232769966,-0.06823244690895],"type":"VEC3"},{"bufferView":3,"byteOffset":0,"componentType":5126,"count":1224,"type":"VEC3"},{"bufferView":4,"byteOffset":0,"componentType":5126,"count":1224,"type":"VEC4"},{"bufferView":5,"byteOffset":0,"componentType":5126,"count":1224,"type":"VEC2"},{"bufferView":6,"byteOffset":0,"componentType":5126,"count":1224,"type":"VEC2"},{"bufferView":7,"byteOffset":0,"componentType":5123,"count":3582,"type":"SCALAR"},{"bufferView":8,"byteOffset":0,"componentType":5126,"count":961,"max":[0.00063088140450418,0.0682326033711433,0.0682324469089508],"min":[-0.15800404548645,-0.06823232769966,-0.06823244690895],"type":"VEC3"},{"bufferView":9,"byteOffset":0,"componentType":5126,"count":961,"type":"VEC3"},{"bufferView":10,"byteOffset":0,"componentType":5126,"count":961,"type":"VEC4"},{"bufferView":11,"byteOffset":0,"componentType":5126,"count":961,"type":"VEC2"},{"bufferView":12,"byteOffset":0,"componentType":5126,"count":961,"type":"VEC2"},{"bufferView":13,"byteOffset":0,"componentType":5123,"count":2388,"type":"SCALAR"},{"bufferView":14,"byteOffset":0,"componentType":5126,"count":658,"max":[0.00072587025351822,0.0682326033711433,0.0682324469089508],"min":[-0.15800404548645,-0.06823232769966,-0.06823244690895],"type":"VEC3"},{"bufferView":15,"byteOffset":0,"componentType":5126,"count":658,"type":"VEC3"},{"bufferView":16,"byteOffset":0,"componentType":5126,"count":658,"type":"VEC4"},{"bufferView":17,"byteOffset":0,"componentType":5126,"count":658,"type":"VEC2"},{"bufferView":18,"byteOffset":0,"componentType":5126,"count":658,"type":"VEC2"},{"bufferView":19,"byteOffset":0,"componentType":5123,"count":597,"type":"SCALAR"},{"bufferView":20,"byteOffset":0,"componentType":5126,"count":216,"max":[0.00663224374875426,0.071614108979702,0.0712034106254578],"min":[-0.16001914441585,-0.07115321606398,-0.07114081084728],"type":"VEC3"},{"bufferView":21,"byteOffset":0,"componentType":5126,"count":216,"type":"VEC3"},{"bufferView":22,"byteOffset":0,"componentType":5126,"count":216,"type":"VEC4"},{"bufferView":23,"byteOffset":0,"componentType":5126,"count":216,"type":"VEC2"},{"bufferView":24,"byteOffset":0,"componentType":5126,"count":216,"type":"VEC2"},{"bufferView":25,"byteOffset":0,"componentType":5123,"count":444,"type":"SCALAR"},{"bufferView":26,"byteOffset":0,"componentType":5126,"count":86,"max":[0.00141385325696319,0.0673704519867897,0.0679935589432716],"min":[-0.15885706245899,-0.06786727160215,-0.06745432317257],"type":"VEC3"},{"bufferView":27,"byteOffset":0,"componentType":5126,"count":86,"type":"VEC3"},{"bufferView":28,"byteOffset":0,"componentType":5126,"count":86,"type":"VEC2"},{"bufferView":29,"byteOffset":0,"componentType":5126,"count":86,"type":"VEC2"}],"animations":[{"channels":[],"name":"Unreal Take","samplers":[]}],"asset":{"generator":"FBX2glTF v0.13.0","version":"2.0"},"bufferViews":[{"buffer":0,"byteLength":4,"byteOffset":0},{"buffer":0,"byteLength":9552,"byteOffset":4,"target":34963},{"buffer":0,"byteLength":14688,"byteOffset":9556,"target":34962},{"buffer":0,"byteLength":14688,"byteOffset":24244,"target":34962},{"buffer":0,"byteLength":19584,"byteOffset":38932,"target":34962},{"buffer":0,"byteLength":9792,"byteOffset":58516,"target":34962},{"buffer":0,"byteLength":9792,"byteOffset":68308,"target":34962},{"buffer":0,"byteLength":7164,"byteOffset":78100,"target":34963},{"buffer":0,"byteLength":11532,"byteOffset":85264,"target":34962},{"buffer":0,"byteLength":11532,"byteOffset":96796,"target":34962},{"buffer":0,"byteLength":15376,"byteOffset":108328,"target":34962},{"buffer":0,"byteLength":7688,"byteOffset":123704,"target":34962},{"buffer":0,"byteLength":7688,"byteOffset":131392,"target":34962},{"buffer":0,"byteLength":4776,"byteOffset":139080,"target":34963},{"buffer":0,"byteLength":7896,"byteOffset":143856,"target":34962},{"buffer":0,"byteLength":7896,"byteOffset":151752,"target":34962},{"buffer":0,"byteLength":10528,"byteOffset":159648,"target":34962},{"buffer":0,"byteLength":5264,"byteOffset":170176,"target":34962},{"buffer":0,"byteLength":5264,"byteOffset":175440,"target":34962},{"buffer":0,"byteLength":1194,"byteOffset":180704,"target":34963},{"buffer":0,"byteLength":2592,"byteOffset":181900,"target":34962},{"buffer":0,"byteLength":2592,"byteOffset":184492,"target":34962},{"buffer":0,"byteLength":3456,"byteOffset":187084,"target":34962},{"buffer":0,"byteLength":1728,"byteOffset":190540,"target":34962},{"buffer":0,"byteLength":1728,"byteOffset":192268,"target":34962},{"buffer":0,"byteLength":888,"byteOffset":193996,"target":34963},{"buffer":0,"byteLength":1032,"byteOffset":194884,"target":34962},{"buffer":0,"byteLength":1032,"byteOffset":195916,"target":34962},{"buffer":0,"byteLength":688,"byteOffset":196948,"target":34962},{"buffer":0,"byteLength":688,"byteOffset":197636,"target":34962}],"buffers":[{"byteLength":198324,"uri":"SM_Pipe_Valve.bin"}],"images":[{"name":"T_Metal_N","uri":"T_Metal_N.png"},{"name":"T_Metal_B","uri":"T_Metal_B.png"}],"materials":[{"alphaMode":"OPAQUE","doubleSided":false,"extras":{"fromFBX":{"isTruePBR":false,"shadingModel":"Phong"}},"name":"MI_Valve","normalTexture":{"index":0,"texCoord":0},"pbrMetallicRoughness":{"baseColorFactor":[1,1,1,1],"baseColorTexture":{"index":1,"texCoord":0},"metallicFactor":0.400000005960464,"roughnessFactor":0.301511347293854}},{"alphaMode":"OPAQUE","doubleSided":false,"extras":{"fromFBX":{"isTruePBR":false,"shadingModel":"Lambert"}},"name":"DefaultMaterial","pbrMetallicRoughness":{"baseColorFactor":[0.5,0.5,0.5,1],"metallicFactor":0.200000002980232,"roughnessFactor":0.800000011920929}}],"meshes":[{"name":"SM_Pipe_Valve_LOD0","primitives":[{"attributes":{"NORMAL":3,"POSITION":2,"TANGENT":4,"TEXCOORD_0":5,"TEXCOORD_1":6},"indices":1,"material":0,"mode":4}]},{"name":"SM_Pipe_Valve_LOD1","primitives":[{"attributes":{"NORMAL":9,"POSITION":8,"TANGENT":10,"TEXCOORD_0":11,"TEXCOORD_1":12},"indices":7,"material":0,"mode":4}]},{"name":"SM_Pipe_Valve_LOD2","primitives":[{"attributes":{"NORMAL":15,"POSITION":14,"TANGENT":16,"TEXCOORD_0":17,"TEXCOORD_1":18},"indices":13,"material":0,"mode":4}]},{"name":"SM_Pipe_Valve_LOD3","primitives":[{"attributes":{"NORMAL":21,"POSITION":20,"TANGENT":22,"TEXCOORD_0":23,"TEXCOORD_1":24},"indices":19,"material":0,"mode":4}]},{"name":"SM_Pipe_Valve_ConvexHulls","primitives":[{"attributes":{"NORMAL":27,"POSITION":26,"TEXCOORD_0":28,"TEXCOORD_1":29},"indices":25,"material":1,"mode":4}]}],"nodes":[{"children":[1,2,3,4,5],"name":"SM_Pipe_Valve_60","originalUnits":0.00999999977648258,"pivot":[0,0,0],"rotation":[0,0,0,1],"scale":[1,1,1],"translation":[0,0,0]},{"mesh":0,"name":"SM_Pipe_Valve_LOD0","originalUnits":0.00999999977648258,"pivot":[0,0,0],"rotation":[0,0,0,1],"scale":[1,1,1],"translation":[0,0,0]},{"mesh":4,"name":"SM_Pipe_Valve_ConvexHulls","originalUnits":0.00999999977648258,"pivot":[0,0,0],"rotation":[0,0,0,1],"scale":[1,1,1],"translation":[0,0,0]},{"mesh":1,"name":"SM_Pipe_Valve_LOD1","originalUnits":0.00999999977648258,"pivot":[0,0,0],"rotation":[0,0,0,1],"scale":[1,1,1],"translation":[0,0,0]},{"mesh":2,"name":"SM_Pipe_Valve_LOD2","originalUnits":0.00999999977648258,"pivot":[0,0,0],"rotation":[0,0,0,1],"scale":[1,1,1],"translation":[0,0,0]},{"mesh":3,"name":"SM_Pipe_Valve_LOD3","originalUnits":0.00999999977648258,"pivot":[0,0,0],"rotation":[0,0,0,1],"scale":[1,1,1],"translation":[0,0,0]}],"samplers":[{}],"scene":0,"scenes":[{"name":"Root Scene","nodes":[0]}],"textures":[{"name":"MI_Valve","sampler":0,"source":0},{"name":"MI_Valve","sampler":0,"source":1}]}