{"accessors":[{"bufferView":0,"byteOffset":0,"componentType":5126,"count":1,"max":[0],"min":[0],"type":"SCALAR"},{"bufferView":1,"byteOffset":0,"componentType":5123,"count":48,"type":"SCALAR"},{"bufferView":2,"byteOffset":0,"componentType":5126,"count":15,"max":[0.215261831879616,0.0100186970084906,0.282998949289322],"min":[-0.21526183187962,-0.01001869700849,-0.28299894928932],"type":"VEC3"},{"bufferView":3,"byteOffset":0,"componentType":5126,"count":15,"type":"VEC3"},{"bufferView":4,"byteOffset":0,"componentType":5126,"count":15,"type":"VEC4"},{"bufferView":5,"byteOffset":0,"componentType":5126,"count":15,"type":"VEC2"},{"bufferView":6,"byteOffset":0,"componentType":5126,"count":15,"type":"VEC2"},{"bufferView":7,"byteOffset":0,"componentType":5123,"count":33,"type":"SCALAR"},{"bufferView":8,"byteOffset":0,"componentType":5126,"count":12,"max":[0.215261831879616,0.0100186970084906,0.282998949289322],"min":[-0.21526183187962,-0.01001869700849,-0.28299894928932],"type":"VEC3"},{"bufferView":9,"byteOffset":0,"componentType":5126,"count":12,"type":"VEC3"},{"bufferView":10,"byteOffset":0,"componentType":5126,"count":12,"type":"VEC4"},{"bufferView":11,"byteOffset":0,"componentType":5126,"count":12,"type":"VEC2"},{"bufferView":12,"byteOffset":0,"componentType":5126,"count":12,"type":"VEC2"},{"bufferView":13,"byteOffset":0,"componentType":5123,"count":24,"type":"SCALAR"},{"bufferView":14,"byteOffset":0,"componentType":5126,"count":9,"max":[0.215261831879616,0.0100186942145228,0.282998949289322],"min":[-0.21529811620712,-0.01001869700849,-0.28304544091225],"type":"VEC3"},{"bufferView":15,"byteOffset":0,"componentType":5126,"count":9,"type":"VEC3"},{"bufferView":16,"byteOffset":0,"componentType":5126,"count":9,"type":"VEC4"},{"bufferView":17,"byteOffset":0,"componentType":5126,"count":9,"type":"VEC2"},{"bufferView":18,"byteOffset":0,"componentType":5126,"count":9,"type":"VEC2"},{"bufferView":19,"byteOffset":0,"componentType":5123,"count":6,"type":"SCALAR"},{"bufferView":20,"byteOffset":0,"componentType":5126,"count":4,"max":[0.2155542075634,0.0116502959281206,0.283720195293427],"min":[-0.21528941392899,-0.01394733786583,-0.28304544091225],"type":"VEC3"},{"bufferView":21,"byteOffset":0,"componentType":5126,"count":4,"type":"VEC3"},{"bufferView":22,"byteOffset":0,"componentType":5126,"count":4,"type":"VEC4"},{"bufferView":23,"byteOffset":0,"componentType":5126,"count":4,"type":"VEC2"},{"bufferView":24,"byteOffset":0,"componentType":5126,"count":4,"type":"VEC2"}],"animations":[{"channels":[],"name":"Unreal Take","samplers":[]}],"asset":{"generator":"FBX2glTF v0.13.0","version":"2.0"},"bufferViews":[{"buffer":0,"byteLength":4,"byteOffset":0},{"buffer":0,"byteLength":96,"byteOffset":4,"target":34963},{"buffer":0,"byteLength":180,"byteOffset":100,"target":34962},{"buffer":0,"byteLength":180,"byteOffset":280,"target":34962},{"buffer":0,"byteLength":240,"byteOffset":460,"target":34962},{"buffer":0,"byteLength":120,"byteOffset":700,"target":34962},{"buffer":0,"byteLength":120,"byteOffset":820,"target":34962},{"buffer":0,"byteLength":66,"byteOffset":940,"target":34963},{"buffer":0,"byteLength":144,"byteOffset":1008,"target":34962},{"buffer":0,"byteLength":144,"byteOffset":1152,"target":34962},{"buffer":0,"byteLength":192,"byteOffset":1296,"target":34962},{"buffer":0,"byteLength":96,"byteOffset":1488,"target":34962},{"buffer":0,"byteLength":96,"byteOffset":1584,"target":34962},{"buffer":0,"byteLength":48,"byteOffset":1680,"target":34963},{"buffer":0,"byteLength":108,"byteOffset":1728,"target":34962},{"buffer":0,"byteLength":108,"byteOffset":1836,"target":34962},{"buffer":0,"byteLength":144,"byteOffset":1944,"target":34962},{"buffer":0,"byteLength":72,"byteOffset":2088,"target":34962},{"buffer":0,"byteLength":72,"byteOffset":2160,"target":34962},{"buffer":0,"byteLength":12,"byteOffset":2232,"target":34963},{"buffer":0,"byteLength":48,"byteOffset":2244,"target":34962},{"buffer":0,"byteLength":48,"byteOffset":2292,"target":34962},{"buffer":0,"byteLength":64,"byteOffset":2340,"target":34962},{"buffer":0,"byteLength":32,"byteOffset":2404,"target":34962},{"buffer":0,"byteLength":32,"byteOffset":2436,"target":34962}],"buffers":[{"byteLength":2468,"uri":"SM_Paper_03.bin"}],"images":[{"name":"T_Paper_N","uri":"T_Paper_N.png"},{"name":"T_Paper_B","uri":"T_Paper_B.png"}],"materials":[{"alphaMode":"OPAQUE","doubleSided":false,"extras":{"fromFBX":{"isTruePBR":false,"shadingModel":"Lambert"}},"name":"MI_Paper_02","normalTexture":{"index":0,"texCoord":0},"pbrMetallicRoughness":{"baseColorFactor":[1,1,1,1],"baseColorTexture":{"index":1,"texCoord":0},"metallicFactor":0.200000002980232,"roughnessFactor":0.800000011920929}}],"meshes":[{"name":"SM_Paper_03_LOD0","primitives":[{"attributes":{"NORMAL":3,"POSITION":2,"TANGENT":4,"TEXCOORD_0":5,"TEXCOORD_1":6},"indices":1,"material":0,"mode":4}]},{"name":"SM_Paper_03_LOD1","primitives":[{"attributes":{"NORMAL":9,"POSITION":8,"TANGENT":10,"TEXCOORD_0":11,"TEXCOORD_1":12},"indices":7,"material":0,"mode":4}]},{"name":"SM_Paper_03_LOD2","primitives":[{"attributes":{"NORMAL":15,"POSITION":14,"TANGENT":16,"TEXCOORD_0":17,"TEXCOORD_1":18},"indices":13,"material":0,"mode":4}]},{"name":"SM_Paper_03_LOD3","primitives":[{"attributes":{"NORMAL":21,"POSITION":20,"TANGENT":22,"TEXCOORD_0":23,"TEXCOORD_1":24},"indices":19,"material":0,"mode":4}]}],"nodes":[{"children":[1,2,3,4,5],"name":"SM_Paper_48","originalUnits":0.00999999977648258,"pivot":[0,0,0],"rotation":[0,0,0,1],"scale":[1,1,1],"translation":[0,0,0]},{"mesh":0,"name":"SM_Paper_03_LOD0","originalUnits":0.00999999977648258,"pivot":[0,0,0],"rotation":[0,0,0,1],"scale":[1,1,1],"translation":[0,0,0]},{"name":"SM_Paper_03_ConvexHulls","originalUnits":0.00999999977648258,"pivot":[0,0,0],"rotation":[0,0,0,1],"scale":[1,1,1],"translation":[0,0,0]},{"mesh":1,"name":"SM_Paper_03_LOD1","originalUnits":0.00999999977648258,"pivot":[0,0,0],"rotation":[0,0,0,1],"scale":[1,1,1],"translation":[0,0,0]},{"mesh":2,"name":"SM_Paper_03_LOD2","originalUnits":0.00999999977648258,"pivot":[0,0,0],"rotation":[0,0,0,1],"scale":[1,1,1],"translation":[0,0,0]},{"mesh":3,"name":"SM_Paper_03_LOD3","originalUnits":0.00999999977648258,"pivot":[0,0,0],"rotation":[0,0,0,1],"scale":[1,1,1],"translation":[0,0,0]}],"samplers":[{}],"scene":0,"scenes":[{"name":"Root Scene","nodes":[0]}],"textures":[{"name":"MI_Paper_02","sampler":0,"source":0},{"name":"MI_Paper_02","sampler":0,"source":1}]}