{"accessors":[{"bufferView":0,"byteOffset":0,"componentType":5126,"count":1,"max":[0],"min":[0],"type":"SCALAR"},{"bufferView":1,"byteOffset":0,"componentType":5123,"count":36,"type":"SCALAR"},{"bufferView":2,"byteOffset":0,"componentType":5126,"count":24,"max":[0.0124784512445331,0.532705843448639,0.420616000890732],"min":[-0.01247838698328,-0.00000001922532,-0.42061600089073],"type":"VEC3"},{"bufferView":3,"byteOffset":0,"componentType":5126,"count":24,"type":"VEC3"},{"bufferView":4,"byteOffset":0,"componentType":5126,"count":24,"type":"VEC4"},{"bufferView":5,"byteOffset":0,"componentType":5126,"count":24,"type":"VEC2"},{"bufferView":6,"byteOffset":0,"componentType":5126,"count":24,"type":"VEC2"}],"animations":[{"channels":[],"name":"Unreal Take","samplers":[]}],"asset":{"generator":"FBX2glTF v0.13.0","version":"2.0"},"bufferViews":[{"buffer":0,"byteLength":4,"byteOffset":0},{"buffer":0,"byteLength":72,"byteOffset":4,"target":34963},{"buffer":0,"byteLength":288,"byteOffset":76,"target":34962},{"buffer":0,"byteLength":288,"byteOffset":364,"target":34962},{"buffer":0,"byteLength":384,"byteOffset":652,"target":34962},{"buffer":0,"byteLength":192,"byteOffset":1036,"target":34962},{"buffer":0,"byteLength":192,"byteOffset":1228,"target":34962}],"buffers":[{"byteLength":1420,"uri":"SM_Plywood.bin"}],"images":[{"name":"T_Woodprops_02_N","uri":"T_Woodprops_02_N.png"},{"name":"T_Woodprops_02_B","uri":"T_Woodprops_02_B.png"}],"materials":[{"alphaMode":"OPAQUE","doubleSided":false,"extras":{"fromFBX":{"isTruePBR":false,"shadingModel":"Phong"}},"name":"MI_Plywood","normalTexture":{"index":0,"texCoord":0},"pbrMetallicRoughness":{"baseColorFactor":[1,1,1,1],"baseColorTexture":{"index":1,"texCoord":0},"metallicFactor":0.400000005960464,"roughnessFactor":0.301511347293854}}],"meshes":[{"name":"SM_Plywood_LOD0","primitives":[{"attributes":{"NORMAL":3,"POSITION":2,"TANGENT":4,"TEXCOORD_0":5,"TEXCOORD_1":6},"indices":1,"material":0,"mode":4}]}],"nodes":[{"mesh":0,"name":"SM_Plywood_LOD0","originalUnits":0.00999999977648258,"pivot":[0,0,0],"rotation":[0,0,0,1],"scale":[1,1,1],"translation":[0,0,0]},{"name":"SM_Plywood_ConvexHulls","originalUnits":0.00999999977648258,"pivot":[0,0,0],"rotation":[0,0,0,1],"scale":[1,1,1],"translation":[0,0,0]}],"samplers":[{}],"scene":0,"scenes":[{"name":"Root Scene","nodes":[0,1]}],"textures":[{"name":"MI_Plywood","sampler":0,"source":0},{"name":"MI_Plywood","sampler":0,"source":1}]}