{"accessors":[{"bufferView":0,"byteOffset":0,"componentType":5126,"count":1,"max":[0],"min":[0],"type":"SCALAR"},{"bufferView":1,"byteOffset":0,"componentType":5123,"count":1542,"type":"SCALAR"},{"bufferView":2,"byteOffset":0,"componentType":5126,"count":404,"max":[0.0697577968239784,0.0190519224852324,0.696301698684692],"min":[-0.06975778192282,-0.01905192248523,-0.68701905012131],"type":"VEC3"},{"bufferView":3,"byteOffset":0,"componentType":5126,"count":404,"type":"VEC3"},{"bufferView":4,"byteOffset":0,"componentType":5126,"count":404,"type":"VEC4"},{"bufferView":5,"byteOffset":0,"componentType":5126,"count":404,"type":"VEC2"},{"bufferView":6,"byteOffset":0,"componentType":5126,"count":404,"type":"VEC2"},{"bufferView":7,"byteOffset":0,"componentType":5123,"count":1158,"type":"SCALAR"},{"bufferView":8,"byteOffset":0,"componentType":5126,"count":319,"max":[0.0697577968239784,0.0190519224852324,0.696301698684692],"min":[-0.06965138018131,-0.01905192248523,-0.68809777498245],"type":"VEC3"},{"bufferView":9,"byteOffset":0,"componentType":5126,"count":319,"type":"VEC3"},{"bufferView":10,"byteOffset":0,"componentType":5126,"count":319,"type":"VEC4"},{"bufferView":11,"byteOffset":0,"componentType":5126,"count":319,"type":"VEC2"},{"bufferView":12,"byteOffset":0,"componentType":5126,"count":319,"type":"VEC2"},{"bufferView":13,"byteOffset":0,"componentType":5123,"count":768,"type":"SCALAR"},{"bufferView":14,"byteOffset":0,"componentType":5126,"count":221,"max":[0.0700234398245811,0.0190519224852324,0.696186363697052],"min":[-0.06967678666115,-0.01905192248523,-0.68755638599396],"type":"VEC3"},{"bufferView":15,"byteOffset":0,"componentType":5126,"count":221,"type":"VEC3"},{"bufferView":16,"byteOffset":0,"componentType":5126,"count":221,"type":"VEC4"},{"bufferView":17,"byteOffset":0,"componentType":5126,"count":221,"type":"VEC2"},{"bufferView":18,"byteOffset":0,"componentType":5126,"count":221,"type":"VEC2"},{"bufferView":19,"byteOffset":0,"componentType":5123,"count":192,"type":"SCALAR"},{"bufferView":20,"byteOffset":0,"componentType":5126,"count":69,"max":[0.0726793259382248,0.0196785889565945,0.696057438850403],"min":[-0.0693616643548,-0.02023441717029,-0.68576061725616],"type":"VEC3"},{"bufferView":21,"byteOffset":0,"componentType":5126,"count":69,"type":"VEC3"},{"bufferView":22,"byteOffset":0,"componentType":5126,"count":69,"type":"VEC4"},{"bufferView":23,"byteOffset":0,"componentType":5126,"count":69,"type":"VEC2"},{"bufferView":24,"byteOffset":0,"componentType":5126,"count":69,"type":"VEC2"}],"animations":[{"channels":[],"name":"Unreal Take","samplers":[]}],"asset":{"generator":"FBX2glTF v0.13.0","version":"2.0"},"bufferViews":[{"buffer":0,"byteLength":4,"byteOffset":0},{"buffer":0,"byteLength":3084,"byteOffset":4,"target":34963},{"buffer":0,"byteLength":4848,"byteOffset":3088,"target":34962},{"buffer":0,"byteLength":4848,"byteOffset":7936,"target":34962},{"buffer":0,"byteLength":6464,"byteOffset":12784,"target":34962},{"buffer":0,"byteLength":3232,"byteOffset":19248,"target":34962},{"buffer":0,"byteLength":3232,"byteOffset":22480,"target":34962},{"buffer":0,"byteLength":2316,"byteOffset":25712,"target":34963},{"buffer":0,"byteLength":3828,"byteOffset":28028,"target":34962},{"buffer":0,"byteLength":3828,"byteOffset":31856,"target":34962},{"buffer":0,"byteLength":5104,"byteOffset":35684,"target":34962},{"buffer":0,"byteLength":2552,"byteOffset":40788,"target":34962},{"buffer":0,"byteLength":2552,"byteOffset":43340,"target":34962},{"buffer":0,"byteLength":1536,"byteOffset":45892,"target":34963},{"buffer":0,"byteLength":2652,"byteOffset":47428,"target":34962},{"buffer":0,"byteLength":2652,"byteOffset":50080,"target":34962},{"buffer":0,"byteLength":3536,"byteOffset":52732,"target":34962},{"buffer":0,"byteLength":1768,"byteOffset":56268,"target":34962},{"buffer":0,"byteLength":1768,"byteOffset":58036,"target":34962},{"buffer":0,"byteLength":384,"byteOffset":59804,"target":34963},{"buffer":0,"byteLength":828,"byteOffset":60188,"target":34962},{"buffer":0,"byteLength":828,"byteOffset":61016,"target":34962},{"buffer":0,"byteLength":1104,"byteOffset":61844,"target":34962},{"buffer":0,"byteLength":552,"byteOffset":62948,"target":34962},{"buffer":0,"byteLength":552,"byteOffset":63500,"target":34962}],"buffers":[{"byteLength":64052,"uri":"SM_Plank_03.bin"}],"images":[{"name":"T_Woodprops_01_N","uri":"T_Woodprops_01_N.png"},{"name":"T_Woodprops_01_B","uri":"T_Woodprops_01_B.png"}],"materials":[{"alphaMode":"OPAQUE","doubleSided":false,"extras":{"fromFBX":{"isTruePBR":false,"shadingModel":"Phong"}},"name":"MI_Pallet","normalTexture":{"index":0,"texCoord":0},"pbrMetallicRoughness":{"baseColorFactor":[1,1,1,1],"baseColorTexture":{"index":1,"texCoord":0},"metallicFactor":0.400000005960464,"roughnessFactor":0.301511347293854}}],"meshes":[{"name":"SM_Plank_03_LOD0","primitives":[{"attributes":{"NORMAL":3,"POSITION":2,"TANGENT":4,"TEXCOORD_0":5,"TEXCOORD_1":6},"indices":1,"material":0,"mode":4}]},{"name":"SM_Plank_03_LOD1","primitives":[{"attributes":{"NORMAL":9,"POSITION":8,"TANGENT":10,"TEXCOORD_0":11,"TEXCOORD_1":12},"indices":7,"material":0,"mode":4}]},{"name":"SM_Plank_03_LOD2","primitives":[{"attributes":{"NORMAL":15,"POSITION":14,"TANGENT":16,"TEXCOORD_0":17,"TEXCOORD_1":18},"indices":13,"material":0,"mode":4}]},{"name":"SM_Plank_03_LOD3","primitives":[{"attributes":{"NORMAL":21,"POSITION":20,"TANGENT":22,"TEXCOORD_0":23,"TEXCOORD_1":24},"indices":19,"material":0,"mode":4}]}],"nodes":[{"children":[1,2,3,4,5],"name":"SM_Plank_03_68","originalUnits":0.00999999977648258,"pivot":[0,0,0],"rotation":[0,0,0,1],"scale":[1,1,1],"translation":[0,0,0]},{"mesh":0,"name":"SM_Plank_03_LOD0","originalUnits":0.00999999977648258,"pivot":[0,0,0],"rotation":[0,0,0,1],"scale":[1,1,1],"translation":[0,0,0]},{"name":"SM_Plank_03_ConvexHulls","originalUnits":0.00999999977648258,"pivot":[0,0,0],"rotation":[0,0,0,1],"scale":[1,1,1],"translation":[0,0,0]},{"mesh":1,"name":"SM_Plank_03_LOD1","originalUnits":0.00999999977648258,"pivot":[0,0,0],"rotation":[0,0,0,1],"scale":[1,1,1],"translation":[0,0,0]},{"mesh":2,"name":"SM_Plank_03_LOD2","originalUnits":0.00999999977648258,"pivot":[0,0,0],"rotation":[0,0,0,1],"scale":[1,1,1],"translation":[0,0,0]},{"mesh":3,"name":"SM_Plank_03_LOD3","originalUnits":0.00999999977648258,"pivot":[0,0,0],"rotation":[0,0,0,1],"scale":[1,1,1],"translation":[0,0,0]}],"samplers":[{}],"scene":0,"scenes":[{"name":"Root Scene","nodes":[0]}],"textures":[{"name":"MI_Pallet","sampler":0,"source":0},{"name":"MI_Pallet","sampler":0,"source":1}]}