{"accessors":[{"bufferView":0,"byteOffset":0,"componentType":5126,"count":1,"max":[0],"min":[0],"type":"SCALAR"},{"bufferView":1,"byteOffset":0,"componentType":5123,"count":6552,"type":"SCALAR"},{"bufferView":2,"byteOffset":0,"componentType":5126,"count":1370,"max":[0.100023493170738,0.0730328932404518,0.0595294237136841],"min":[-0.10002349317074,-0.07303228229284,-0.00000002212956],"type":"VEC3"},{"bufferView":3,"byteOffset":0,"componentType":5126,"count":1370,"type":"VEC3"},{"bufferView":4,"byteOffset":0,"componentType":5126,"count":1370,"type":"VEC4"},{"bufferView":5,"byteOffset":0,"componentType":5126,"count":1370,"type":"VEC2"},{"bufferView":6,"byteOffset":0,"componentType":5126,"count":1370,"type":"VEC2"},{"bufferView":7,"byteOffset":0,"componentType":5123,"count":4914,"type":"SCALAR"},{"bufferView":8,"byteOffset":0,"componentType":5126,"count":1040,"max":[0.100023493170738,0.0730328932404518,0.0595294237136841],"min":[-0.10002349317074,-0.07303228229284,-0.00000002212956],"type":"VEC3"},{"bufferView":9,"byteOffset":0,"componentType":5126,"count":1040,"type":"VEC3"},{"bufferView":10,"byteOffset":0,"componentType":5126,"count":1040,"type":"VEC4"},{"bufferView":11,"byteOffset":0,"componentType":5126,"count":1040,"type":"VEC2"},{"bufferView":12,"byteOffset":0,"componentType":5126,"count":1040,"type":"VEC2"},{"bufferView":13,"byteOffset":0,"componentType":5123,"count":3276,"type":"SCALAR"},{"bufferView":14,"byteOffset":0,"componentType":5126,"count":732,"max":[0.100148104131222,0.0730328932404518,0.059928972274065],"min":[-0.10014810413122,-0.07303228229284,-0.0003996079613],"type":"VEC3"},{"bufferView":15,"byteOffset":0,"componentType":5126,"count":732,"type":"VEC3"},{"bufferView":16,"byteOffset":0,"componentType":5126,"count":732,"type":"VEC4"},{"bufferView":17,"byteOffset":0,"componentType":5126,"count":732,"type":"VEC2"},{"bufferView":18,"byteOffset":0,"componentType":5126,"count":732,"type":"VEC2"},{"bufferView":19,"byteOffset":0,"componentType":5123,"count":816,"type":"SCALAR"},{"bufferView":20,"byteOffset":0,"componentType":5126,"count":237,"max":[0.106526210904121,0.0790403932332993,0.0661140754818916],"min":[-0.10082960873842,-0.07864931225777,-0.0003996079613],"type":"VEC3"},{"bufferView":21,"byteOffset":0,"componentType":5126,"count":237,"type":"VEC3"},{"bufferView":22,"byteOffset":0,"componentType":5126,"count":237,"type":"VEC4"},{"bufferView":23,"byteOffset":0,"componentType":5126,"count":237,"type":"VEC2"},{"bufferView":24,"byteOffset":0,"componentType":5126,"count":237,"type":"VEC2"},{"bufferView":25,"byteOffset":0,"componentType":5123,"count":336,"type":"SCALAR"},{"bufferView":26,"byteOffset":0,"componentType":5126,"count":64,"max":[0.100772455334663,0.0704740136861801,0.0609141774475574],"min":[-0.09920469671488,-0.06869665533304,-0.000830658013],"type":"VEC3"},{"bufferView":27,"byteOffset":0,"componentType":5126,"count":64,"type":"VEC3"},{"bufferView":28,"byteOffset":0,"componentType":5126,"count":64,"type":"VEC2"},{"bufferView":29,"byteOffset":0,"componentType":5126,"count":64,"type":"VEC2"}],"animations":[{"channels":[],"name":"Unreal Take","samplers":[]}],"asset":{"generator":"FBX2glTF v0.13.0","version":"2.0"},"bufferViews":[{"buffer":0,"byteLength":4,"byteOffset":0},{"buffer":0,"byteLength":13104,"byteOffset":4,"target":34963},{"buffer":0,"byteLength":16440,"byteOffset":13108,"target":34962},{"buffer":0,"byteLength":16440,"byteOffset":29548,"target":34962},{"buffer":0,"byteLength":21920,"byteOffset":45988,"target":34962},{"buffer":0,"byteLength":10960,"byteOffset":67908,"target":34962},{"buffer":0,"byteLength":10960,"byteOffset":78868,"target":34962},{"buffer":0,"byteLength":9828,"byteOffset":89828,"target":34963},{"buffer":0,"byteLength":12480,"byteOffset":99656,"target":34962},{"buffer":0,"byteLength":12480,"byteOffset":112136,"target":34962},{"buffer":0,"byteLength":16640,"byteOffset":124616,"target":34962},{"buffer":0,"byteLength":8320,"byteOffset":141256,"target":34962},{"buffer":0,"byteLength":8320,"byteOffset":149576,"target":34962},{"buffer":0,"byteLength":6552,"byteOffset":157896,"target":34963},{"buffer":0,"byteLength":8784,"byteOffset":164448,"target":34962},{"buffer":0,"byteLength":8784,"byteOffset":173232,"target":34962},{"buffer":0,"byteLength":11712,"byteOffset":182016,"target":34962},{"buffer":0,"byteLength":5856,"byteOffset":193728,"target":34962},{"buffer":0,"byteLength":5856,"byteOffset":199584,"target":34962},{"buffer":0,"byteLength":1632,"byteOffset":205440,"target":34963},{"buffer":0,"byteLength":2844,"byteOffset":207072,"target":34962},{"buffer":0,"byteLength":2844,"byteOffset":209916,"target":34962},{"buffer":0,"byteLength":3792,"byteOffset":212760,"target":34962},{"buffer":0,"byteLength":1896,"byteOffset":216552,"target":34962},{"buffer":0,"byteLength":1896,"byteOffset":218448,"target":34962},{"buffer":0,"byteLength":672,"byteOffset":220344,"target":34963},{"buffer":0,"byteLength":768,"byteOffset":221016,"target":34962},{"buffer":0,"byteLength":768,"byteOffset":221784,"target":34962},{"buffer":0,"byteLength":512,"byteOffset":222552,"target":34962},{"buffer":0,"byteLength":512,"byteOffset":223064,"target":34962}],"buffers":[{"byteLength":223576,"uri":"SM_Pipe_Joint.bin"}],"images":[{"name":"T_Metal_N","uri":"T_Metal_N.png"},{"name":"T_Metal_B","uri":"T_Metal_B.png"}],"materials":[{"alphaMode":"OPAQUE","doubleSided":false,"extras":{"fromFBX":{"isTruePBR":false,"shadingModel":"Phong"}},"name":"MI_Pipe","normalTexture":{"index":0,"texCoord":0},"pbrMetallicRoughness":{"baseColorFactor":[1,1,1,1],"baseColorTexture":{"index":1,"texCoord":0},"metallicFactor":0.400000005960464,"roughnessFactor":0.301511347293854}},{"alphaMode":"OPAQUE","doubleSided":false,"extras":{"fromFBX":{"isTruePBR":false,"shadingModel":"Lambert"}},"name":"DefaultMaterial","pbrMetallicRoughness":{"baseColorFactor":[0.5,0.5,0.5,1],"metallicFactor":0.200000002980232,"roughnessFactor":0.800000011920929}}],"meshes":[{"name":"SM_Pipe_Joint_LOD0","primitives":[{"attributes":{"NORMAL":3,"POSITION":2,"TANGENT":4,"TEXCOORD_0":5,"TEXCOORD_1":6},"indices":1,"material":0,"mode":4}]},{"name":"SM_Pipe_Joint_LOD1","primitives":[{"attributes":{"NORMAL":9,"POSITION":8,"TANGENT":10,"TEXCOORD_0":11,"TEXCOORD_1":12},"indices":7,"material":0,"mode":4}]},{"name":"SM_Pipe_Joint_LOD2","primitives":[{"attributes":{"NORMAL":15,"POSITION":14,"TANGENT":16,"TEXCOORD_0":17,"TEXCOORD_1":18},"indices":13,"material":0,"mode":4}]},{"name":"SM_Pipe_Joint_LOD3","primitives":[{"attributes":{"NORMAL":21,"POSITION":20,"TANGENT":22,"TEXCOORD_0":23,"TEXCOORD_1":24},"indices":19,"material":0,"mode":4}]},{"name":"SM_Pipe_Joint_ConvexHulls","primitives":[{"attributes":{"NORMAL":27,"POSITION":26,"TEXCOORD_0":28,"TEXCOORD_1":29},"indices":25,"material":1,"mode":4}]}],"nodes":[{"children":[1,2,3,4,5],"name":"SM_Pipe_Joint_57","originalUnits":0.00999999977648258,"pivot":[0,0,0],"rotation":[0,0,0,1],"scale":[1,1,1],"translation":[0,0,0]},{"mesh":0,"name":"SM_Pipe_Joint_LOD0","originalUnits":0.00999999977648258,"pivot":[0,0,0],"rotation":[0,0,0,1],"scale":[1,1,1],"translation":[0,0,0]},{"mesh":4,"name":"SM_Pipe_Joint_ConvexHulls","originalUnits":0.00999999977648258,"pivot":[0,0,0],"rotation":[0,0,0,1],"scale":[1,1,1],"translation":[0,0,0]},{"mesh":1,"name":"SM_Pipe_Joint_LOD1","originalUnits":0.00999999977648258,"pivot":[0,0,0],"rotation":[0,0,0,1],"scale":[1,1,1],"translation":[0,0,0]},{"mesh":2,"name":"SM_Pipe_Joint_LOD2","originalUnits":0.00999999977648258,"pivot":[0,0,0],"rotation":[0,0,0,1],"scale":[1,1,1],"translation":[0,0,0]},{"mesh":3,"name":"SM_Pipe_Joint_LOD3","originalUnits":0.00999999977648258,"pivot":[0,0,0],"rotation":[0,0,0,1],"scale":[1,1,1],"translation":[0,0,0]}],"samplers":[{}],"scene":0,"scenes":[{"name":"Root Scene","nodes":[0]}],"textures":[{"name":"MI_Pipe","sampler":0,"source":0},{"name":"MI_Pipe","sampler":0,"source":1}]}