{"accessors":[{"bufferView":0,"byteOffset":0,"componentType":5126,"count":1,"max":[0],"min":[0],"type":"SCALAR"},{"bufferView":1,"byteOffset":0,"componentType":5123,"count":1344,"type":"SCALAR"},{"bufferView":2,"byteOffset":0,"componentType":5126,"count":351,"max":[0.0698581635951996,0.0189724918454885,0.696882128715515],"min":[-0.0698581635952,-0.01897248998284,-0.69261318445206],"type":"VEC3"},{"bufferView":3,"byteOffset":0,"componentType":5126,"count":351,"type":"VEC3"},{"bufferView":4,"byteOffset":0,"componentType":5126,"count":351,"type":"VEC4"},{"bufferView":5,"byteOffset":0,"componentType":5126,"count":351,"type":"VEC2"},{"bufferView":6,"byteOffset":0,"componentType":5126,"count":351,"type":"VEC2"},{"bufferView":7,"byteOffset":0,"componentType":5123,"count":1008,"type":"SCALAR"},{"bufferView":8,"byteOffset":0,"componentType":5126,"count":282,"max":[0.0705267116427422,0.0189724918454885,0.698916077613831],"min":[-0.06976421922445,-0.01897248998284,-0.69261318445206],"type":"VEC3"},{"bufferView":9,"byteOffset":0,"componentType":5126,"count":282,"type":"VEC3"},{"bufferView":10,"byteOffset":0,"componentType":5126,"count":282,"type":"VEC4"},{"bufferView":11,"byteOffset":0,"componentType":5126,"count":282,"type":"VEC2"},{"bufferView":12,"byteOffset":0,"componentType":5126,"count":282,"type":"VEC2"},{"bufferView":13,"byteOffset":0,"componentType":5123,"count":672,"type":"SCALAR"},{"bufferView":14,"byteOffset":0,"componentType":5126,"count":192,"max":[0.0723846033215523,0.0207404345273972,0.698130011558533],"min":[-0.07000220566988,-0.0189957562834,-0.69529050588608],"type":"VEC3"},{"bufferView":15,"byteOffset":0,"componentType":5126,"count":192,"type":"VEC3"},{"bufferView":16,"byteOffset":0,"componentType":5126,"count":192,"type":"VEC4"},{"bufferView":17,"byteOffset":0,"componentType":5126,"count":192,"type":"VEC2"},{"bufferView":18,"byteOffset":0,"componentType":5126,"count":192,"type":"VEC2"},{"bufferView":19,"byteOffset":0,"componentType":5123,"count":168,"type":"SCALAR"},{"bufferView":20,"byteOffset":0,"componentType":5126,"count":64,"max":[0.0705370008945465,0.019207127392292,0.699213862419128],"min":[-0.07146216928959,-0.01875780709088,-0.6934540271759],"type":"VEC3"},{"bufferView":21,"byteOffset":0,"componentType":5126,"count":64,"type":"VEC3"},{"bufferView":22,"byteOffset":0,"componentType":5126,"count":64,"type":"VEC4"},{"bufferView":23,"byteOffset":0,"componentType":5126,"count":64,"type":"VEC2"},{"bufferView":24,"byteOffset":0,"componentType":5126,"count":64,"type":"VEC2"}],"animations":[{"channels":[],"name":"Unreal Take","samplers":[]}],"asset":{"generator":"FBX2glTF v0.13.0","version":"2.0"},"bufferViews":[{"buffer":0,"byteLength":4,"byteOffset":0},{"buffer":0,"byteLength":2688,"byteOffset":4,"target":34963},{"buffer":0,"byteLength":4212,"byteOffset":2692,"target":34962},{"buffer":0,"byteLength":4212,"byteOffset":6904,"target":34962},{"buffer":0,"byteLength":5616,"byteOffset":11116,"target":34962},{"buffer":0,"byteLength":2808,"byteOffset":16732,"target":34962},{"buffer":0,"byteLength":2808,"byteOffset":19540,"target":34962},{"buffer":0,"byteLength":2016,"byteOffset":22348,"target":34963},{"buffer":0,"byteLength":3384,"byteOffset":24364,"target":34962},{"buffer":0,"byteLength":3384,"byteOffset":27748,"target":34962},{"buffer":0,"byteLength":4512,"byteOffset":31132,"target":34962},{"buffer":0,"byteLength":2256,"byteOffset":35644,"target":34962},{"buffer":0,"byteLength":2256,"byteOffset":37900,"target":34962},{"buffer":0,"byteLength":1344,"byteOffset":40156,"target":34963},{"buffer":0,"byteLength":2304,"byteOffset":41500,"target":34962},{"buffer":0,"byteLength":2304,"byteOffset":43804,"target":34962},{"buffer":0,"byteLength":3072,"byteOffset":46108,"target":34962},{"buffer":0,"byteLength":1536,"byteOffset":49180,"target":34962},{"buffer":0,"byteLength":1536,"byteOffset":50716,"target":34962},{"buffer":0,"byteLength":336,"byteOffset":52252,"target":34963},{"buffer":0,"byteLength":768,"byteOffset":52588,"target":34962},{"buffer":0,"byteLength":768,"byteOffset":53356,"target":34962},{"buffer":0,"byteLength":1024,"byteOffset":54124,"target":34962},{"buffer":0,"byteLength":512,"byteOffset":55148,"target":34962},{"buffer":0,"byteLength":512,"byteOffset":55660,"target":34962}],"buffers":[{"byteLength":56172,"uri":"SM_Plank_01.bin"}],"images":[{"name":"T_Woodprops_01_N","uri":"T_Woodprops_01_N.png"},{"name":"T_Woodprops_01_B","uri":"T_Woodprops_01_B.png"}],"materials":[{"alphaMode":"OPAQUE","doubleSided":false,"extras":{"fromFBX":{"isTruePBR":false,"shadingModel":"Phong"}},"name":"MI_Pallet","normalTexture":{"index":0,"texCoord":0},"pbrMetallicRoughness":{"baseColorFactor":[1,1,1,1],"baseColorTexture":{"index":1,"texCoord":0},"metallicFactor":0.400000005960464,"roughnessFactor":0.301511347293854}}],"meshes":[{"name":"SM_Plank_01_LOD0","primitives":[{"attributes":{"NORMAL":3,"POSITION":2,"TANGENT":4,"TEXCOORD_0":5,"TEXCOORD_1":6},"indices":1,"material":0,"mode":4}]},{"name":"SM_Plank_01_LOD1","primitives":[{"attributes":{"NORMAL":9,"POSITION":8,"TANGENT":10,"TEXCOORD_0":11,"TEXCOORD_1":12},"indices":7,"material":0,"mode":4}]},{"name":"SM_Plank_01_LOD2","primitives":[{"attributes":{"NORMAL":15,"POSITION":14,"TANGENT":16,"TEXCOORD_0":17,"TEXCOORD_1":18},"indices":13,"material":0,"mode":4}]},{"name":"SM_Plank_01_LOD3","primitives":[{"attributes":{"NORMAL":21,"POSITION":20,"TANGENT":22,"TEXCOORD_0":23,"TEXCOORD_1":24},"indices":19,"material":0,"mode":4}]}],"nodes":[{"children":[1,2,3,4,5],"name":"SM_Plank_01_66","originalUnits":0.00999999977648258,"pivot":[0,0,0],"rotation":[0,0,0,1],"scale":[1,1,1],"translation":[0,0,0]},{"mesh":0,"name":"SM_Plank_01_LOD0","originalUnits":0.00999999977648258,"pivot":[0,0,0],"rotation":[0,0,0,1],"scale":[1,1,1],"translation":[0,0,0]},{"name":"SM_Plank_01_ConvexHulls","originalUnits":0.00999999977648258,"pivot":[0,0,0],"rotation":[0,0,0,1],"scale":[1,1,1],"translation":[0,0,0]},{"mesh":1,"name":"SM_Plank_01_LOD1","originalUnits":0.00999999977648258,"pivot":[0,0,0],"rotation":[0,0,0,1],"scale":[1,1,1],"translation":[0,0,0]},{"mesh":2,"name":"SM_Plank_01_LOD2","originalUnits":0.00999999977648258,"pivot":[0,0,0],"rotation":[0,0,0,1],"scale":[1,1,1],"translation":[0,0,0]},{"mesh":3,"name":"SM_Plank_01_LOD3","originalUnits":0.00999999977648258,"pivot":[0,0,0],"rotation":[0,0,0,1],"scale":[1,1,1],"translation":[0,0,0]}],"samplers":[{}],"scene":0,"scenes":[{"name":"Root Scene","nodes":[0]}],"textures":[{"name":"MI_Pallet","sampler":0,"source":0},{"name":"MI_Pallet","sampler":0,"source":1}]}