{"accessors":[{"bufferView":0,"byteOffset":0,"componentType":5126,"count":1,"max":[0],"min":[0],"type":"SCALAR"},{"bufferView":1,"byteOffset":0,"componentType":5123,"count":156,"type":"SCALAR"},{"bufferView":2,"byteOffset":0,"componentType":5126,"count":60,"max":[0.635775685310364,1.28452110290527,0.106303997337818],"min":[-0.63577497005463,-0.00000000773609,-0.10630356520414],"type":"VEC3"},{"bufferView":3,"byteOffset":0,"componentType":5126,"count":60,"type":"VEC3"},{"bufferView":4,"byteOffset":0,"componentType":5126,"count":60,"type":"VEC4"},{"bufferView":5,"byteOffset":0,"componentType":5126,"count":60,"type":"VEC2"},{"bufferView":6,"byteOffset":0,"componentType":5126,"count":60,"type":"VEC2"},{"bufferView":7,"byteOffset":0,"componentType":5123,"count":114,"type":"SCALAR"},{"bufferView":8,"byteOffset":0,"componentType":5126,"count":52,"max":[0.635775685310364,1.29608929157257,0.106303997337818],"min":[-0.59538984298706,-0.00000000773609,-0.10757429152727],"type":"VEC3"},{"bufferView":9,"byteOffset":0,"componentType":5126,"count":52,"type":"VEC3"},{"bufferView":10,"byteOffset":0,"componentType":5126,"count":52,"type":"VEC4"},{"bufferView":11,"byteOffset":0,"componentType":5126,"count":52,"type":"VEC2"},{"bufferView":12,"byteOffset":0,"componentType":5126,"count":52,"type":"VEC2"},{"bufferView":13,"byteOffset":0,"componentType":5123,"count":78,"type":"SCALAR"},{"bufferView":14,"byteOffset":0,"componentType":5126,"count":44,"max":[0.635775685310364,1.29608929157257,0.145872130990028],"min":[-0.59538984298706,-0.00000000773609,-0.14605528116226],"type":"VEC3"},{"bufferView":15,"byteOffset":0,"componentType":5126,"count":44,"type":"VEC3"},{"bufferView":16,"byteOffset":0,"componentType":5126,"count":44,"type":"VEC4"},{"bufferView":17,"byteOffset":0,"componentType":5126,"count":44,"type":"VEC2"},{"bufferView":18,"byteOffset":0,"componentType":5126,"count":44,"type":"VEC2"},{"bufferView":19,"byteOffset":0,"componentType":5123,"count":18,"type":"SCALAR"},{"bufferView":20,"byteOffset":0,"componentType":5126,"count":16,"max":[0.55953586101532,1.28963732719421,0.115737371146679],"min":[-0.21732816100121,0.0620094239711761,-0.19679780304432],"type":"VEC3"},{"bufferView":21,"byteOffset":0,"componentType":5126,"count":16,"type":"VEC3"},{"bufferView":22,"byteOffset":0,"componentType":5126,"count":16,"type":"VEC4"},{"bufferView":23,"byteOffset":0,"componentType":5126,"count":16,"type":"VEC2"},{"bufferView":24,"byteOffset":0,"componentType":5126,"count":16,"type":"VEC2"},{"bufferView":25,"byteOffset":0,"componentType":5123,"count":270,"type":"SCALAR"},{"bufferView":26,"byteOffset":0,"componentType":5126,"count":53,"max":[0.635367870330811,1.29669737815857,0.108816906809807],"min":[-0.63779300451279,-0.00777176581323,-0.11069378256798],"type":"VEC3"},{"bufferView":27,"byteOffset":0,"componentType":5126,"count":53,"type":"VEC3"},{"bufferView":28,"byteOffset":0,"componentType":5126,"count":53,"type":"VEC2"},{"bufferView":29,"byteOffset":0,"componentType":5126,"count":53,"type":"VEC2"}],"animations":[{"channels":[],"name":"Unreal Take","samplers":[]}],"asset":{"generator":"FBX2glTF v0.13.0","version":"2.0"},"bufferViews":[{"buffer":0,"byteLength":4,"byteOffset":0},{"buffer":0,"byteLength":312,"byteOffset":4,"target":34963},{"buffer":0,"byteLength":720,"byteOffset":316,"target":34962},{"buffer":0,"byteLength":720,"byteOffset":1036,"target":34962},{"buffer":0,"byteLength":960,"byteOffset":1756,"target":34962},{"buffer":0,"byteLength":480,"byteOffset":2716,"target":34962},{"buffer":0,"byteLength":480,"byteOffset":3196,"target":34962},{"buffer":0,"byteLength":228,"byteOffset":3676,"target":34963},{"buffer":0,"byteLength":624,"byteOffset":3904,"target":34962},{"buffer":0,"byteLength":624,"byteOffset":4528,"target":34962},{"buffer":0,"byteLength":832,"byteOffset":5152,"target":34962},{"buffer":0,"byteLength":416,"byteOffset":5984,"target":34962},{"buffer":0,"byteLength":416,"byteOffset":6400,"target":34962},{"buffer":0,"byteLength":156,"byteOffset":6816,"target":34963},{"buffer":0,"byteLength":528,"byteOffset":6972,"target":34962},{"buffer":0,"byteLength":528,"byteOffset":7500,"target":34962},{"buffer":0,"byteLength":704,"byteOffset":8028,"target":34962},{"buffer":0,"byteLength":352,"byteOffset":8732,"target":34962},{"buffer":0,"byteLength":352,"byteOffset":9084,"target":34962},{"buffer":0,"byteLength":36,"byteOffset":9436,"target":34963},{"buffer":0,"byteLength":192,"byteOffset":9472,"target":34962},{"buffer":0,"byteLength":192,"byteOffset":9664,"target":34962},{"buffer":0,"byteLength":256,"byteOffset":9856,"target":34962},{"buffer":0,"byteLength":128,"byteOffset":10112,"target":34962},{"buffer":0,"byteLength":128,"byteOffset":10240,"target":34962},{"buffer":0,"byteLength":540,"byteOffset":10368,"target":34963},{"buffer":0,"byteLength":636,"byteOffset":10908,"target":34962},{"buffer":0,"byteLength":636,"byteOffset":11544,"target":34962},{"buffer":0,"byteLength":424,"byteOffset":12180,"target":34962},{"buffer":0,"byteLength":424,"byteOffset":12604,"target":34962}],"buffers":[{"byteLength":13028,"uri":"SM_Pillar_Curve.bin"}],"images":[{"name":"T_Structures_N","uri":"T_Structures_N.png"},{"name":"T_Structures_B","uri":"T_Structures_B.png"}],"materials":[{"alphaMode":"OPAQUE","doubleSided":false,"extras":{"fromFBX":{"isTruePBR":false,"shadingModel":"Phong"}},"name":"MI_Beams","normalTexture":{"index":0,"texCoord":0},"pbrMetallicRoughness":{"baseColorFactor":[1,1,1,1],"baseColorTexture":{"index":1,"texCoord":0},"metallicFactor":0.400000005960464,"roughnessFactor":0.301511347293854}},{"alphaMode":"OPAQUE","doubleSided":false,"extras":{"fromFBX":{"isTruePBR":false,"shadingModel":"Lambert"}},"name":"DefaultMaterial","pbrMetallicRoughness":{"baseColorFactor":[0.5,0.5,0.5,1],"metallicFactor":0.200000002980232,"roughnessFactor":0.800000011920929}}],"meshes":[{"name":"SM_Pillar_Curve_LOD0","primitives":[{"attributes":{"NORMAL":3,"POSITION":2,"TANGENT":4,"TEXCOORD_0":5,"TEXCOORD_1":6},"indices":1,"material":0,"mode":4}]},{"name":"SM_Pillar_Curve_LOD1","primitives":[{"attributes":{"NORMAL":9,"POSITION":8,"TANGENT":10,"TEXCOORD_0":11,"TEXCOORD_1":12},"indices":7,"material":0,"mode":4}]},{"name":"SM_Pillar_Curve_LOD2","primitives":[{"attributes":{"NORMAL":15,"POSITION":14,"TANGENT":16,"TEXCOORD_0":17,"TEXCOORD_1":18},"indices":13,"material":0,"mode":4}]},{"name":"SM_Pillar_Curve_LOD3","primitives":[{"attributes":{"NORMAL":21,"POSITION":20,"TANGENT":22,"TEXCOORD_0":23,"TEXCOORD_1":24},"indices":19,"material":0,"mode":4}]},{"name":"SM_Pillar_Curve_ConvexHulls","primitives":[{"attributes":{"NORMAL":27,"POSITION":26,"TEXCOORD_0":28,"TEXCOORD_1":29},"indices":25,"material":1,"mode":4}]}],"nodes":[{"children":[1,2,3,4,5],"name":"SM_Pillar_Curve_55","originalUnits":0.00999999977648258,"pivot":[0,0,0],"rotation":[0,0,0,1],"scale":[1,1,1],"translation":[0,0,0]},{"mesh":0,"name":"SM_Pillar_Curve_LOD0","originalUnits":0.00999999977648258,"pivot":[0,0,0],"rotation":[0,0,0,1],"scale":[1,1,1],"translation":[0,0,0]},{"mesh":4,"name":"SM_Pillar_Curve_ConvexHulls","originalUnits":0.00999999977648258,"pivot":[0,0,0],"rotation":[0,0,0,1],"scale":[1,1,1],"translation":[0,0,0]},{"mesh":1,"name":"SM_Pillar_Curve_LOD1","originalUnits":0.00999999977648258,"pivot":[0,0,0],"rotation":[0,0,0,1],"scale":[1,1,1],"translation":[0,0,0]},{"mesh":2,"name":"SM_Pillar_Curve_LOD2","originalUnits":0.00999999977648258,"pivot":[0,0,0],"rotation":[0,0,0,1],"scale":[1,1,1],"translation":[0,0,0]},{"mesh":3,"name":"SM_Pillar_Curve_LOD3","originalUnits":0.00999999977648258,"pivot":[0,0,0],"rotation":[0,0,0,1],"scale":[1,1,1],"translation":[0,0,0]}],"samplers":[{}],"scene":0,"scenes":[{"name":"Root Scene","nodes":[0]}],"textures":[{"name":"MI_Beams","sampler":0,"source":0},{"name":"MI_Beams","sampler":0,"source":1}]}