{"accessors":[{"bufferView":0,"byteOffset":0,"componentType":5126,"count":1,"max":[0],"min":[0],"type":"SCALAR"},{"bufferView":1,"byteOffset":0,"componentType":5123,"count":9744,"type":"SCALAR"},{"bufferView":2,"byteOffset":0,"componentType":5126,"count":1829,"max":[0.451455563306808,1.3240864276886,0.273485988378525],"min":[-0.03580534830689,-0.3611746430397,-0.2677053809166],"type":"VEC3"},{"bufferView":3,"byteOffset":0,"componentType":5126,"count":1829,"type":"VEC3"},{"bufferView":4,"byteOffset":0,"componentType":5126,"count":1829,"type":"VEC4"},{"bufferView":5,"byteOffset":0,"componentType":5126,"count":1829,"type":"VEC2"},{"bufferView":6,"byteOffset":0,"componentType":5126,"count":1829,"type":"VEC2"},{"bufferView":7,"byteOffset":0,"componentType":5123,"count":7308,"type":"SCALAR"},{"bufferView":8,"byteOffset":0,"componentType":5126,"count":1396,"max":[0.451455563306808,1.3240864276886,0.273253083229065],"min":[-0.03580534830689,-0.3611746430397,-0.26723086833954],"type":"VEC3"},{"bufferView":9,"byteOffset":0,"componentType":5126,"count":1396,"type":"VEC3"},{"bufferView":10,"byteOffset":0,"componentType":5126,"count":1396,"type":"VEC4"},{"bufferView":11,"byteOffset":0,"componentType":5126,"count":1396,"type":"VEC2"},{"bufferView":12,"byteOffset":0,"componentType":5126,"count":1396,"type":"VEC2"},{"bufferView":13,"byteOffset":0,"componentType":5123,"count":4872,"type":"SCALAR"},{"bufferView":14,"byteOffset":0,"componentType":5126,"count":941,"max":[0.451455563306808,1.3240864276886,0.27330407500267],"min":[-0.03580534830689,-0.36285212635994,-0.26999008655548],"type":"VEC3"},{"bufferView":15,"byteOffset":0,"componentType":5126,"count":941,"type":"VEC3"},{"bufferView":16,"byteOffset":0,"componentType":5126,"count":941,"type":"VEC4"},{"bufferView":17,"byteOffset":0,"componentType":5126,"count":941,"type":"VEC2"},{"bufferView":18,"byteOffset":0,"componentType":5126,"count":941,"type":"VEC2"},{"bufferView":19,"byteOffset":0,"componentType":5123,"count":1218,"type":"SCALAR"},{"bufferView":20,"byteOffset":0,"componentType":5126,"count":265,"max":[0.450045764446259,1.33395957946777,0.275908797979355],"min":[-0.03681613504887,-0.35167196393013,-0.28489997982979],"type":"VEC3"},{"bufferView":21,"byteOffset":0,"componentType":5126,"count":265,"type":"VEC3"},{"bufferView":22,"byteOffset":0,"componentType":5126,"count":265,"type":"VEC4"},{"bufferView":23,"byteOffset":0,"componentType":5126,"count":265,"type":"VEC2"},{"bufferView":24,"byteOffset":0,"componentType":5126,"count":265,"type":"VEC2"},{"bufferView":25,"byteOffset":0,"componentType":5123,"count":330,"type":"SCALAR"},{"bufferView":26,"byteOffset":0,"componentType":5126,"count":63,"max":[0.449635148048401,1.33359658718109,0.280759900808334],"min":[-0.0429228618741,-0.35633155703545,-0.27479872107506],"type":"VEC3"},{"bufferView":27,"byteOffset":0,"componentType":5126,"count":63,"type":"VEC3"},{"bufferView":28,"byteOffset":0,"componentType":5126,"count":63,"type":"VEC2"},{"bufferView":29,"byteOffset":0,"componentType":5126,"count":63,"type":"VEC2"}],"animations":[{"channels":[],"name":"Unreal Take","samplers":[]}],"asset":{"generator":"FBX2glTF v0.13.0","version":"2.0"},"bufferViews":[{"buffer":0,"byteLength":4,"byteOffset":0},{"buffer":0,"byteLength":19488,"byteOffset":4,"target":34963},{"buffer":0,"byteLength":21948,"byteOffset":19492,"target":34962},{"buffer":0,"byteLength":21948,"byteOffset":41440,"target":34962},{"buffer":0,"byteLength":29264,"byteOffset":63388,"target":34962},{"buffer":0,"byteLength":14632,"byteOffset":92652,"target":34962},{"buffer":0,"byteLength":14632,"byteOffset":107284,"target":34962},{"buffer":0,"byteLength":14616,"byteOffset":121916,"target":34963},{"buffer":0,"byteLength":16752,"byteOffset":136532,"target":34962},{"buffer":0,"byteLength":16752,"byteOffset":153284,"target":34962},{"buffer":0,"byteLength":22336,"byteOffset":170036,"target":34962},{"buffer":0,"byteLength":11168,"byteOffset":192372,"target":34962},{"buffer":0,"byteLength":11168,"byteOffset":203540,"target":34962},{"buffer":0,"byteLength":9744,"byteOffset":214708,"target":34963},{"buffer":0,"byteLength":11292,"byteOffset":224452,"target":34962},{"buffer":0,"byteLength":11292,"byteOffset":235744,"target":34962},{"buffer":0,"byteLength":15056,"byteOffset":247036,"target":34962},{"buffer":0,"byteLength":7528,"byteOffset":262092,"target":34962},{"buffer":0,"byteLength":7528,"byteOffset":269620,"target":34962},{"buffer":0,"byteLength":2436,"byteOffset":277148,"target":34963},{"buffer":0,"byteLength":3180,"byteOffset":279584,"target":34962},{"buffer":0,"byteLength":3180,"byteOffset":282764,"target":34962},{"buffer":0,"byteLength":4240,"byteOffset":285944,"target":34962},{"buffer":0,"byteLength":2120,"byteOffset":290184,"target":34962},{"buffer":0,"byteLength":2120,"byteOffset":292304,"target":34962},{"buffer":0,"byteLength":660,"byteOffset":294424,"target":34963},{"buffer":0,"byteLength":756,"byteOffset":295084,"target":34962},{"buffer":0,"byteLength":756,"byteOffset":295840,"target":34962},{"buffer":0,"byteLength":504,"byteOffset":296596,"target":34962},{"buffer":0,"byteLength":504,"byteOffset":297100,"target":34962}],"buffers":[{"byteLength":297604,"uri":"SM_Rope_01.bin"}],"images":[{"name":"T_Rope_N","uri":"T_Rope_N.png"},{"name":"T_Rope_B","uri":"T_Rope_B.png"}],"materials":[{"alphaMode":"OPAQUE","doubleSided":false,"extras":{"fromFBX":{"isTruePBR":false,"shadingModel":"Phong"}},"name":"MI_Rope_02","normalTexture":{"index":0,"texCoord":0},"pbrMetallicRoughness":{"baseColorFactor":[1,1,1,1],"baseColorTexture":{"index":1,"texCoord":0},"metallicFactor":0.400000005960464,"roughnessFactor":0.301511347293854}},{"alphaMode":"OPAQUE","doubleSided":false,"extras":{"fromFBX":{"isTruePBR":false,"shadingModel":"Lambert"}},"name":"DefaultMaterial","pbrMetallicRoughness":{"baseColorFactor":[0.5,0.5,0.5,1],"metallicFactor":0.200000002980232,"roughnessFactor":0.800000011920929}}],"meshes":[{"name":"SM_Rope_01_LOD0","primitives":[{"attributes":{"NORMAL":3,"POSITION":2,"TANGENT":4,"TEXCOORD_0":5,"TEXCOORD_1":6},"indices":1,"material":0,"mode":4}]},{"name":"SM_Rope_01_LOD1","primitives":[{"attributes":{"NORMAL":9,"POSITION":8,"TANGENT":10,"TEXCOORD_0":11,"TEXCOORD_1":12},"indices":7,"material":0,"mode":4}]},{"name":"SM_Rope_01_LOD2","primitives":[{"attributes":{"NORMAL":15,"POSITION":14,"TANGENT":16,"TEXCOORD_0":17,"TEXCOORD_1":18},"indices":13,"material":0,"mode":4}]},{"name":"SM_Rope_01_LOD3","primitives":[{"attributes":{"NORMAL":21,"POSITION":20,"TANGENT":22,"TEXCOORD_0":23,"TEXCOORD_1":24},"indices":19,"material":0,"mode":4}]},{"name":"SM_Rope_01_ConvexHulls","primitives":[{"attributes":{"NORMAL":27,"POSITION":26,"TEXCOORD_0":28,"TEXCOORD_1":29},"indices":25,"material":1,"mode":4}]}],"nodes":[{"children":[1,2,3,4,5],"name":"SM_Rope_01_71","originalUnits":0.00999999977648258,"pivot":[0,0,0],"rotation":[0,0,0,1],"scale":[1,1,1],"translation":[0,0,0]},{"mesh":0,"name":"SM_Rope_01_LOD0","originalUnits":0.00999999977648258,"pivot":[0,0,0],"rotation":[0,0,0,1],"scale":[1,1,1],"translation":[0,0,0]},{"mesh":4,"name":"SM_Rope_01_ConvexHulls","originalUnits":0.00999999977648258,"pivot":[0,0,0],"rotation":[0,0,0,1],"scale":[1,1,1],"translation":[0,0,0]},{"mesh":1,"name":"SM_Rope_01_LOD1","originalUnits":0.00999999977648258,"pivot":[0,0,0],"rotation":[0,0,0,1],"scale":[1,1,1],"translation":[0,0,0]},{"mesh":2,"name":"SM_Rope_01_LOD2","originalUnits":0.00999999977648258,"pivot":[0,0,0],"rotation":[0,0,0,1],"scale":[1,1,1],"translation":[0,0,0]},{"mesh":3,"name":"SM_Rope_01_LOD3","originalUnits":0.00999999977648258,"pivot":[0,0,0],"rotation":[0,0,0,1],"scale":[1,1,1],"translation":[0,0,0]}],"samplers":[{}],"scene":0,"scenes":[{"name":"Root Scene","nodes":[0]}],"textures":[{"name":"MI_Rope_02","sampler":0,"source":0},{"name":"MI_Rope_02","sampler":0,"source":1}]}