{"accessors":[{"bufferView":0,"byteOffset":0,"componentType":5126,"count":1,"max":[0],"min":[0],"type":"SCALAR"},{"bufferView":1,"byteOffset":0,"componentType":5123,"count":7344,"type":"SCALAR"},{"bufferView":2,"byteOffset":0,"componentType":5126,"count":1379,"max":[0.276833981275558,0.278408259153366,-0.03256637603045],"min":[-0.25037127733231,0.22376511991024,-0.69445908069611],"type":"VEC3"},{"bufferView":3,"byteOffset":0,"componentType":5126,"count":1379,"type":"VEC3"},{"bufferView":4,"byteOffset":0,"componentType":5126,"count":1379,"type":"VEC4"},{"bufferView":5,"byteOffset":0,"componentType":5126,"count":1379,"type":"VEC2"},{"bufferView":6,"byteOffset":0,"componentType":5126,"count":1379,"type":"VEC2"},{"bufferView":7,"byteOffset":0,"componentType":5123,"count":5508,"type":"SCALAR"},{"bufferView":8,"byteOffset":0,"componentType":5126,"count":1042,"max":[0.276833981275558,0.27834564447403,-0.03256637603045],"min":[-0.25037127733231,0.22376511991024,-0.69445908069611],"type":"VEC3"},{"bufferView":9,"byteOffset":0,"componentType":5126,"count":1042,"type":"VEC3"},{"bufferView":10,"byteOffset":0,"componentType":5126,"count":1042,"type":"VEC4"},{"bufferView":11,"byteOffset":0,"componentType":5126,"count":1042,"type":"VEC2"},{"bufferView":12,"byteOffset":0,"componentType":5126,"count":1042,"type":"VEC2"},{"bufferView":13,"byteOffset":0,"componentType":5123,"count":3672,"type":"SCALAR"},{"bufferView":14,"byteOffset":0,"componentType":5126,"count":712,"max":[0.276833981275558,0.27834564447403,-0.03220666199923],"min":[-0.25037127733231,0.223679572343826,-0.69445908069611],"type":"VEC3"},{"bufferView":15,"byteOffset":0,"componentType":5126,"count":712,"type":"VEC3"},{"bufferView":16,"byteOffset":0,"componentType":5126,"count":712,"type":"VEC4"},{"bufferView":17,"byteOffset":0,"componentType":5126,"count":712,"type":"VEC2"},{"bufferView":18,"byteOffset":0,"componentType":5126,"count":712,"type":"VEC2"},{"bufferView":19,"byteOffset":0,"componentType":5123,"count":918,"type":"SCALAR"},{"bufferView":20,"byteOffset":0,"componentType":5126,"count":196,"max":[0.285688519477844,0.281153351068497,-0.02748621441424],"min":[-0.25338852405548,0.220544084906578,-0.7013144493103],"type":"VEC3"},{"bufferView":21,"byteOffset":0,"componentType":5126,"count":196,"type":"VEC3"},{"bufferView":22,"byteOffset":0,"componentType":5126,"count":196,"type":"VEC4"},{"bufferView":23,"byteOffset":0,"componentType":5126,"count":196,"type":"VEC2"},{"bufferView":24,"byteOffset":0,"componentType":5126,"count":196,"type":"VEC2"},{"bufferView":25,"byteOffset":0,"componentType":5123,"count":336,"type":"SCALAR"},{"bufferView":26,"byteOffset":0,"componentType":5126,"count":64,"max":[0.275296449661255,0.28031188249588,-0.03073102608323],"min":[-0.24683041870594,0.221543237566948,-0.69324481487274],"type":"VEC3"},{"bufferView":27,"byteOffset":0,"componentType":5126,"count":64,"type":"VEC3"},{"bufferView":28,"byteOffset":0,"componentType":5126,"count":64,"type":"VEC2"},{"bufferView":29,"byteOffset":0,"componentType":5126,"count":64,"type":"VEC2"}],"animations":[{"channels":[],"name":"Unreal Take","samplers":[]}],"asset":{"generator":"FBX2glTF v0.13.0","version":"2.0"},"bufferViews":[{"buffer":0,"byteLength":4,"byteOffset":0},{"buffer":0,"byteLength":14688,"byteOffset":4,"target":34963},{"buffer":0,"byteLength":16548,"byteOffset":14692,"target":34962},{"buffer":0,"byteLength":16548,"byteOffset":31240,"target":34962},{"buffer":0,"byteLength":22064,"byteOffset":47788,"target":34962},{"buffer":0,"byteLength":11032,"byteOffset":69852,"target":34962},{"buffer":0,"byteLength":11032,"byteOffset":80884,"target":34962},{"buffer":0,"byteLength":11016,"byteOffset":91916,"target":34963},{"buffer":0,"byteLength":12504,"byteOffset":102932,"target":34962},{"buffer":0,"byteLength":12504,"byteOffset":115436,"target":34962},{"buffer":0,"byteLength":16672,"byteOffset":127940,"target":34962},{"buffer":0,"byteLength":8336,"byteOffset":144612,"target":34962},{"buffer":0,"byteLength":8336,"byteOffset":152948,"target":34962},{"buffer":0,"byteLength":7344,"byteOffset":161284,"target":34963},{"buffer":0,"byteLength":8544,"byteOffset":168628,"target":34962},{"buffer":0,"byteLength":8544,"byteOffset":177172,"target":34962},{"buffer":0,"byteLength":11392,"byteOffset":185716,"target":34962},{"buffer":0,"byteLength":5696,"byteOffset":197108,"target":34962},{"buffer":0,"byteLength":5696,"byteOffset":202804,"target":34962},{"buffer":0,"byteLength":1836,"byteOffset":208500,"target":34963},{"buffer":0,"byteLength":2352,"byteOffset":210336,"target":34962},{"buffer":0,"byteLength":2352,"byteOffset":212688,"target":34962},{"buffer":0,"byteLength":3136,"byteOffset":215040,"target":34962},{"buffer":0,"byteLength":1568,"byteOffset":218176,"target":34962},{"buffer":0,"byteLength":1568,"byteOffset":219744,"target":34962},{"buffer":0,"byteLength":672,"byteOffset":221312,"target":34963},{"buffer":0,"byteLength":768,"byteOffset":221984,"target":34962},{"buffer":0,"byteLength":768,"byteOffset":222752,"target":34962},{"buffer":0,"byteLength":512,"byteOffset":223520,"target":34962},{"buffer":0,"byteLength":512,"byteOffset":224032,"target":34962}],"buffers":[{"byteLength":224544,"uri":"SM_Rope_02.bin"}],"images":[{"name":"T_Rope_N","uri":"T_Rope_N.png"},{"name":"T_Rope_B","uri":"T_Rope_B.png"}],"materials":[{"alphaMode":"OPAQUE","doubleSided":false,"extras":{"fromFBX":{"isTruePBR":false,"shadingModel":"Phong"}},"name":"MI_Rope_01","normalTexture":{"index":0,"texCoord":0},"pbrMetallicRoughness":{"baseColorFactor":[1,1,1,1],"baseColorTexture":{"index":1,"texCoord":0},"metallicFactor":0.400000005960464,"roughnessFactor":0.301511347293854}},{"alphaMode":"OPAQUE","doubleSided":false,"extras":{"fromFBX":{"isTruePBR":false,"shadingModel":"Lambert"}},"name":"DefaultMaterial","pbrMetallicRoughness":{"baseColorFactor":[0.5,0.5,0.5,1],"metallicFactor":0.200000002980232,"roughnessFactor":0.800000011920929}}],"meshes":[{"name":"SM_Rope_02_LOD0","primitives":[{"attributes":{"NORMAL":3,"POSITION":2,"TANGENT":4,"TEXCOORD_0":5,"TEXCOORD_1":6},"indices":1,"material":0,"mode":4}]},{"name":"SM_Rope_02_LOD1","primitives":[{"attributes":{"NORMAL":9,"POSITION":8,"TANGENT":10,"TEXCOORD_0":11,"TEXCOORD_1":12},"indices":7,"material":0,"mode":4}]},{"name":"SM_Rope_02_LOD2","primitives":[{"attributes":{"NORMAL":15,"POSITION":14,"TANGENT":16,"TEXCOORD_0":17,"TEXCOORD_1":18},"indices":13,"material":0,"mode":4}]},{"name":"SM_Rope_02_LOD3","primitives":[{"attributes":{"NORMAL":21,"POSITION":20,"TANGENT":22,"TEXCOORD_0":23,"TEXCOORD_1":24},"indices":19,"material":0,"mode":4}]},{"name":"SM_Rope_02_ConvexHulls","primitives":[{"attributes":{"NORMAL":27,"POSITION":26,"TEXCOORD_0":28,"TEXCOORD_1":29},"indices":25,"material":1,"mode":4}]}],"nodes":[{"children":[1,2,3,4,5],"name":"SM_Rope_02_72","originalUnits":0.00999999977648258,"pivot":[0,0,0],"rotation":[0,0,0,1],"scale":[1,1,1],"translation":[0,0,0]},{"mesh":0,"name":"SM_Rope_02_LOD0","originalUnits":0.00999999977648258,"pivot":[0,0,0],"rotation":[0,0,0,1],"scale":[1,1,1],"translation":[0,0,0]},{"mesh":4,"name":"SM_Rope_02_ConvexHulls","originalUnits":0.00999999977648258,"pivot":[0,0,0],"rotation":[0,0,0,1],"scale":[1,1,1],"translation":[0,0,0]},{"mesh":1,"name":"SM_Rope_02_LOD1","originalUnits":0.00999999977648258,"pivot":[0,0,0],"rotation":[0,0,0,1],"scale":[1,1,1],"translation":[0,0,0]},{"mesh":2,"name":"SM_Rope_02_LOD2","originalUnits":0.00999999977648258,"pivot":[0,0,0],"rotation":[0,0,0,1],"scale":[1,1,1],"translation":[0,0,0]},{"mesh":3,"name":"SM_Rope_02_LOD3","originalUnits":0.00999999977648258,"pivot":[0,0,0],"rotation":[0,0,0,1],"scale":[1,1,1],"translation":[0,0,0]}],"samplers":[{}],"scene":0,"scenes":[{"name":"Root Scene","nodes":[0]}],"textures":[{"name":"MI_Rope_01","sampler":0,"source":0},{"name":"MI_Rope_01","sampler":0,"source":1}]}