{"accessors":[{"bufferView":0,"byteOffset":0,"componentType":5126,"count":1,"max":[0],"min":[0],"type":"SCALAR"},{"bufferView":1,"byteOffset":0,"componentType":5123,"count":1140,"type":"SCALAR"},{"bufferView":2,"byteOffset":0,"componentType":5126,"count":360,"max":[0.00204709218814969,0.135230302810669,0.194163665175438],"min":[-0.00204708916135,-0.13523030281067,-0.01461120601743],"type":"VEC3"},{"bufferView":3,"byteOffset":0,"componentType":5126,"count":360,"type":"VEC3"},{"bufferView":4,"byteOffset":0,"componentType":5126,"count":360,"type":"VEC4"},{"bufferView":5,"byteOffset":0,"componentType":5126,"count":360,"type":"VEC2"},{"bufferView":6,"byteOffset":0,"componentType":5126,"count":360,"type":"VEC2"},{"bufferView":7,"byteOffset":0,"componentType":5123,"count":852,"type":"SCALAR"},{"bufferView":8,"byteOffset":0,"componentType":5126,"count":291,"max":[0.0020479813683778,0.135230302810669,0.194163665175438],"min":[-0.00204797764309,-0.13523030281067,-0.01461120601743],"type":"VEC3"},{"bufferView":9,"byteOffset":0,"componentType":5126,"count":291,"type":"VEC3"},{"bufferView":10,"byteOffset":0,"componentType":5126,"count":291,"type":"VEC4"},{"bufferView":11,"byteOffset":0,"componentType":5126,"count":291,"type":"VEC2"},{"bufferView":12,"byteOffset":0,"componentType":5126,"count":291,"type":"VEC2"},{"bufferView":13,"byteOffset":0,"componentType":5123,"count":570,"type":"SCALAR"},{"bufferView":14,"byteOffset":0,"componentType":5126,"count":213,"max":[0.00210894807241857,0.135147079825401,0.194163665175438],"min":[-0.00209067738615,-0.13523030281067,-0.01461120601743],"type":"VEC3"},{"bufferView":15,"byteOffset":0,"componentType":5126,"count":213,"type":"VEC3"},{"bufferView":16,"byteOffset":0,"componentType":5126,"count":213,"type":"VEC4"},{"bufferView":17,"byteOffset":0,"componentType":5126,"count":213,"type":"VEC2"},{"bufferView":18,"byteOffset":0,"componentType":5126,"count":213,"type":"VEC2"},{"bufferView":19,"byteOffset":0,"componentType":5123,"count":144,"type":"SCALAR"},{"bufferView":20,"byteOffset":0,"componentType":5126,"count":82,"max":[0.00380183267407119,0.136328607797623,0.194030478596687],"min":[-0.00470417737961,-0.13511252403259,-0.01461120601743],"type":"VEC3"},{"bufferView":21,"byteOffset":0,"componentType":5126,"count":82,"type":"VEC3"},{"bufferView":22,"byteOffset":0,"componentType":5126,"count":82,"type":"VEC4"},{"bufferView":23,"byteOffset":0,"componentType":5126,"count":82,"type":"VEC2"},{"bufferView":24,"byteOffset":0,"componentType":5126,"count":82,"type":"VEC2"},{"bufferView":25,"byteOffset":0,"componentType":5123,"count":240,"type":"SCALAR"},{"bufferView":26,"byteOffset":0,"componentType":5126,"count":46,"max":[0.0027885080780834,0.13597671687603,0.194569393992424],"min":[-0.00253481441177,-0.1365789026022,-0.01590773835778],"type":"VEC3"},{"bufferView":27,"byteOffset":0,"componentType":5126,"count":46,"type":"VEC3"},{"bufferView":28,"byteOffset":0,"componentType":5126,"count":46,"type":"VEC2"},{"bufferView":29,"byteOffset":0,"componentType":5126,"count":46,"type":"VEC2"}],"animations":[{"channels":[],"name":"Unreal Take","samplers":[]}],"asset":{"generator":"FBX2glTF v0.13.0","version":"2.0"},"bufferViews":[{"buffer":0,"byteLength":4,"byteOffset":0},{"buffer":0,"byteLength":2280,"byteOffset":4,"target":34963},{"buffer":0,"byteLength":4320,"byteOffset":2284,"target":34962},{"buffer":0,"byteLength":4320,"byteOffset":6604,"target":34962},{"buffer":0,"byteLength":5760,"byteOffset":10924,"target":34962},{"buffer":0,"byteLength":2880,"byteOffset":16684,"target":34962},{"buffer":0,"byteLength":2880,"byteOffset":19564,"target":34962},{"buffer":0,"byteLength":1704,"byteOffset":22444,"target":34963},{"buffer":0,"byteLength":3492,"byteOffset":24148,"target":34962},{"buffer":0,"byteLength":3492,"byteOffset":27640,"target":34962},{"buffer":0,"byteLength":4656,"byteOffset":31132,"target":34962},{"buffer":0,"byteLength":2328,"byteOffset":35788,"target":34962},{"buffer":0,"byteLength":2328,"byteOffset":38116,"target":34962},{"buffer":0,"byteLength":1140,"byteOffset":40444,"target":34963},{"buffer":0,"byteLength":2556,"byteOffset":41584,"target":34962},{"buffer":0,"byteLength":2556,"byteOffset":44140,"target":34962},{"buffer":0,"byteLength":3408,"byteOffset":46696,"target":34962},{"buffer":0,"byteLength":1704,"byteOffset":50104,"target":34962},{"buffer":0,"byteLength":1704,"byteOffset":51808,"target":34962},{"buffer":0,"byteLength":288,"byteOffset":53512,"target":34963},{"buffer":0,"byteLength":984,"byteOffset":53800,"target":34962},{"buffer":0,"byteLength":984,"byteOffset":54784,"target":34962},{"buffer":0,"byteLength":1312,"byteOffset":55768,"target":34962},{"buffer":0,"byteLength":656,"byteOffset":57080,"target":34962},{"buffer":0,"byteLength":656,"byteOffset":57736,"target":34962},{"buffer":0,"byteLength":480,"byteOffset":58392,"target":34963},{"buffer":0,"byteLength":552,"byteOffset":58872,"target":34962},{"buffer":0,"byteLength":552,"byteOffset":59424,"target":34962},{"buffer":0,"byteLength":368,"byteOffset":59976,"target":34962},{"buffer":0,"byteLength":368,"byteOffset":60344,"target":34962}],"buffers":[{"byteLength":60712,"uri":"SM_Ruler_01.bin"}],"images":[{"name":"T_Tools_N","uri":"T_Tools_N.png"},{"name":"T_Tools_B","uri":"T_Tools_B.png"}],"materials":[{"alphaMode":"OPAQUE","doubleSided":false,"extras":{"fromFBX":{"isTruePBR":false,"shadingModel":"Phong"}},"name":"MI_Tools_02","normalTexture":{"index":0,"texCoord":0},"pbrMetallicRoughness":{"baseColorFactor":[1,1,1,1],"baseColorTexture":{"index":1,"texCoord":0},"metallicFactor":0.400000005960464,"roughnessFactor":0.301511347293854}},{"alphaMode":"OPAQUE","doubleSided":false,"extras":{"fromFBX":{"isTruePBR":false,"shadingModel":"Lambert"}},"name":"DefaultMaterial","pbrMetallicRoughness":{"baseColorFactor":[0.5,0.5,0.5,1],"metallicFactor":0.200000002980232,"roughnessFactor":0.800000011920929}}],"meshes":[{"name":"SM_Ruler_01_LOD0","primitives":[{"attributes":{"NORMAL":3,"POSITION":2,"TANGENT":4,"TEXCOORD_0":5,"TEXCOORD_1":6},"indices":1,"material":0,"mode":4}]},{"name":"SM_Ruler_01_LOD1","primitives":[{"attributes":{"NORMAL":9,"POSITION":8,"TANGENT":10,"TEXCOORD_0":11,"TEXCOORD_1":12},"indices":7,"material":0,"mode":4}]},{"name":"SM_Ruler_01_LOD2","primitives":[{"attributes":{"NORMAL":15,"POSITION":14,"TANGENT":16,"TEXCOORD_0":17,"TEXCOORD_1":18},"indices":13,"material":0,"mode":4}]},{"name":"SM_Ruler_01_LOD3","primitives":[{"attributes":{"NORMAL":21,"POSITION":20,"TANGENT":22,"TEXCOORD_0":23,"TEXCOORD_1":24},"indices":19,"material":0,"mode":4}]},{"name":"SM_Ruler_01_ConvexHulls","primitives":[{"attributes":{"NORMAL":27,"POSITION":26,"TEXCOORD_0":28,"TEXCOORD_1":29},"indices":25,"material":1,"mode":4}]}],"nodes":[{"children":[1,2,3,4,5],"name":"SM_Ruler_01_74","originalUnits":0.00999999977648258,"pivot":[0,0,0],"rotation":[0,0,0,1],"scale":[1,1,1],"translation":[0,0,0]},{"mesh":0,"name":"SM_Ruler_01_LOD0","originalUnits":0.00999999977648258,"pivot":[0,0,0],"rotation":[0,0,0,1],"scale":[1,1,1],"translation":[0,0,0]},{"mesh":4,"name":"SM_Ruler_01_ConvexHulls","originalUnits":0.00999999977648258,"pivot":[0,0,0],"rotation":[0,0,0,1],"scale":[1,1,1],"translation":[0,0,0]},{"mesh":1,"name":"SM_Ruler_01_LOD1","originalUnits":0.00999999977648258,"pivot":[0,0,0],"rotation":[0,0,0,1],"scale":[1,1,1],"translation":[0,0,0]},{"mesh":2,"name":"SM_Ruler_01_LOD2","originalUnits":0.00999999977648258,"pivot":[0,0,0],"rotation":[0,0,0,1],"scale":[1,1,1],"translation":[0,0,0]},{"mesh":3,"name":"SM_Ruler_01_LOD3","originalUnits":0.00999999977648258,"pivot":[0,0,0],"rotation":[0,0,0,1],"scale":[1,1,1],"translation":[0,0,0]}],"samplers":[{}],"scene":0,"scenes":[{"name":"Root Scene","nodes":[0]}],"textures":[{"name":"MI_Tools_02","sampler":0,"source":0},{"name":"MI_Tools_02","sampler":0,"source":1}]}