{"accessors":[{"bufferView":0,"byteOffset":0,"componentType":5126,"count":1,"max":[0],"min":[0],"type":"SCALAR"},{"bufferView":1,"byteOffset":0,"componentType":5123,"count":7392,"type":"SCALAR"},{"bufferView":2,"byteOffset":0,"componentType":5126,"count":1700,"max":[0.138858705759048,-0.08232693374157,0.123691871762276],"min":[-0.21428126096726,-1.32691204547882,-0.11421781033278],"type":"VEC3"},{"bufferView":3,"byteOffset":0,"componentType":5126,"count":1700,"type":"VEC3"},{"bufferView":4,"byteOffset":0,"componentType":5126,"count":1700,"type":"VEC4"},{"bufferView":5,"byteOffset":0,"componentType":5126,"count":1700,"type":"VEC2"},{"bufferView":6,"byteOffset":0,"componentType":5126,"count":1700,"type":"VEC2"},{"bufferView":7,"byteOffset":0,"componentType":5123,"count":5544,"type":"SCALAR"},{"bufferView":8,"byteOffset":0,"componentType":5126,"count":1367,"max":[0.138858705759048,-0.08232693374157,0.123691871762276],"min":[-0.21428126096726,-1.32691204547882,-0.11400213092566],"type":"VEC3"},{"bufferView":9,"byteOffset":0,"componentType":5126,"count":1367,"type":"VEC3"},{"bufferView":10,"byteOffset":0,"componentType":5126,"count":1367,"type":"VEC4"},{"bufferView":11,"byteOffset":0,"componentType":5126,"count":1367,"type":"VEC2"},{"bufferView":12,"byteOffset":0,"componentType":5126,"count":1367,"type":"VEC2"},{"bufferView":13,"byteOffset":0,"componentType":5123,"count":3696,"type":"SCALAR"},{"bufferView":14,"byteOffset":0,"componentType":5126,"count":895,"max":[0.138858705759048,-0.08232693374157,0.123691871762276],"min":[-0.22010493278503,-1.32967185974121,-0.11400213092566],"type":"VEC3"},{"bufferView":15,"byteOffset":0,"componentType":5126,"count":895,"type":"VEC3"},{"bufferView":16,"byteOffset":0,"componentType":5126,"count":895,"type":"VEC4"},{"bufferView":17,"byteOffset":0,"componentType":5126,"count":895,"type":"VEC2"},{"bufferView":18,"byteOffset":0,"componentType":5126,"count":895,"type":"VEC2"},{"bufferView":19,"byteOffset":0,"componentType":5123,"count":924,"type":"SCALAR"},{"bufferView":20,"byteOffset":0,"componentType":5126,"count":272,"max":[0.146019294857979,-0.07713468372822,0.125060975551605],"min":[-0.24757027626038,-1.32973325252533,-0.11566741019487],"type":"VEC3"},{"bufferView":21,"byteOffset":0,"componentType":5126,"count":272,"type":"VEC3"},{"bufferView":22,"byteOffset":0,"componentType":5126,"count":272,"type":"VEC4"},{"bufferView":23,"byteOffset":0,"componentType":5126,"count":272,"type":"VEC2"},{"bufferView":24,"byteOffset":0,"componentType":5126,"count":272,"type":"VEC2"},{"bufferView":25,"byteOffset":0,"componentType":5123,"count":336,"type":"SCALAR"},{"bufferView":26,"byteOffset":0,"componentType":5126,"count":64,"max":[0.133779376745224,-0.11663597077131,0.120874099433422],"min":[-0.21637885272503,-1.26138436794281,-0.11753918975592],"type":"VEC3"},{"bufferView":27,"byteOffset":0,"componentType":5126,"count":64,"type":"VEC3"},{"bufferView":28,"byteOffset":0,"componentType":5126,"count":64,"type":"VEC2"},{"bufferView":29,"byteOffset":0,"componentType":5126,"count":64,"type":"VEC2"}],"animations":[{"channels":[],"name":"Unreal Take","samplers":[]}],"asset":{"generator":"FBX2glTF v0.13.0","version":"2.0"},"bufferViews":[{"buffer":0,"byteLength":4,"byteOffset":0},{"buffer":0,"byteLength":14784,"byteOffset":4,"target":34963},{"buffer":0,"byteLength":20400,"byteOffset":14788,"target":34962},{"buffer":0,"byteLength":20400,"byteOffset":35188,"target":34962},{"buffer":0,"byteLength":27200,"byteOffset":55588,"target":34962},{"buffer":0,"byteLength":13600,"byteOffset":82788,"target":34962},{"buffer":0,"byteLength":13600,"byteOffset":96388,"target":34962},{"buffer":0,"byteLength":11088,"byteOffset":109988,"target":34963},{"buffer":0,"byteLength":16404,"byteOffset":121076,"target":34962},{"buffer":0,"byteLength":16404,"byteOffset":137480,"target":34962},{"buffer":0,"byteLength":21872,"byteOffset":153884,"target":34962},{"buffer":0,"byteLength":10936,"byteOffset":175756,"target":34962},{"buffer":0,"byteLength":10936,"byteOffset":186692,"target":34962},{"buffer":0,"byteLength":7392,"byteOffset":197628,"target":34963},{"buffer":0,"byteLength":10740,"byteOffset":205020,"target":34962},{"buffer":0,"byteLength":10740,"byteOffset":215760,"target":34962},{"buffer":0,"byteLength":14320,"byteOffset":226500,"target":34962},{"buffer":0,"byteLength":7160,"byteOffset":240820,"target":34962},{"buffer":0,"byteLength":7160,"byteOffset":247980,"target":34962},{"buffer":0,"byteLength":1848,"byteOffset":255140,"target":34963},{"buffer":0,"byteLength":3264,"byteOffset":256988,"target":34962},{"buffer":0,"byteLength":3264,"byteOffset":260252,"target":34962},{"buffer":0,"byteLength":4352,"byteOffset":263516,"target":34962},{"buffer":0,"byteLength":2176,"byteOffset":267868,"target":34962},{"buffer":0,"byteLength":2176,"byteOffset":270044,"target":34962},{"buffer":0,"byteLength":672,"byteOffset":272220,"target":34963},{"buffer":0,"byteLength":768,"byteOffset":272892,"target":34962},{"buffer":0,"byteLength":768,"byteOffset":273660,"target":34962},{"buffer":0,"byteLength":512,"byteOffset":274428,"target":34962},{"buffer":0,"byteLength":512,"byteOffset":274940,"target":34962}],"buffers":[{"byteLength":275452,"uri":"SM_Rope_03.bin"}],"images":[{"name":"T_Rope_N","uri":"T_Rope_N.png"},{"name":"T_Rope_B","uri":"T_Rope_B.png"}],"materials":[{"alphaMode":"OPAQUE","doubleSided":false,"extras":{"fromFBX":{"isTruePBR":false,"shadingModel":"Phong"}},"name":"MI_Rope_01","normalTexture":{"index":0,"texCoord":0},"pbrMetallicRoughness":{"baseColorFactor":[1,1,1,1],"baseColorTexture":{"index":1,"texCoord":0},"metallicFactor":0.400000005960464,"roughnessFactor":0.301511347293854}},{"alphaMode":"OPAQUE","doubleSided":false,"extras":{"fromFBX":{"isTruePBR":false,"shadingModel":"Lambert"}},"name":"DefaultMaterial","pbrMetallicRoughness":{"baseColorFactor":[0.5,0.5,0.5,1],"metallicFactor":0.200000002980232,"roughnessFactor":0.800000011920929}}],"meshes":[{"name":"SM_Rope_03_LOD0","primitives":[{"attributes":{"NORMAL":3,"POSITION":2,"TANGENT":4,"TEXCOORD_0":5,"TEXCOORD_1":6},"indices":1,"material":0,"mode":4}]},{"name":"SM_Rope_03_LOD1","primitives":[{"attributes":{"NORMAL":9,"POSITION":8,"TANGENT":10,"TEXCOORD_0":11,"TEXCOORD_1":12},"indices":7,"material":0,"mode":4}]},{"name":"SM_Rope_03_LOD2","primitives":[{"attributes":{"NORMAL":15,"POSITION":14,"TANGENT":16,"TEXCOORD_0":17,"TEXCOORD_1":18},"indices":13,"material":0,"mode":4}]},{"name":"SM_Rope_03_LOD3","primitives":[{"attributes":{"NORMAL":21,"POSITION":20,"TANGENT":22,"TEXCOORD_0":23,"TEXCOORD_1":24},"indices":19,"material":0,"mode":4}]},{"name":"SM_Rope_03_ConvexHulls","primitives":[{"attributes":{"NORMAL":27,"POSITION":26,"TEXCOORD_0":28,"TEXCOORD_1":29},"indices":25,"material":1,"mode":4}]}],"nodes":[{"children":[1,2,3,4,5],"name":"SM_Rope_03_73","originalUnits":0.00999999977648258,"pivot":[0,0,0],"rotation":[0,0,0,1],"scale":[1,1,1],"translation":[0,0,0]},{"mesh":0,"name":"SM_Rope_03_LOD0","originalUnits":0.00999999977648258,"pivot":[0,0,0],"rotation":[0,0,0,1],"scale":[1,1,1],"translation":[0,0,0]},{"mesh":4,"name":"SM_Rope_03_ConvexHulls","originalUnits":0.00999999977648258,"pivot":[0,0,0],"rotation":[0,0,0,1],"scale":[1,1,1],"translation":[0,0,0]},{"mesh":1,"name":"SM_Rope_03_LOD1","originalUnits":0.00999999977648258,"pivot":[0,0,0],"rotation":[0,0,0,1],"scale":[1,1,1],"translation":[0,0,0]},{"mesh":2,"name":"SM_Rope_03_LOD2","originalUnits":0.00999999977648258,"pivot":[0,0,0],"rotation":[0,0,0,1],"scale":[1,1,1],"translation":[0,0,0]},{"mesh":3,"name":"SM_Rope_03_LOD3","originalUnits":0.00999999977648258,"pivot":[0,0,0],"rotation":[0,0,0,1],"scale":[1,1,1],"translation":[0,0,0]}],"samplers":[{}],"scene":0,"scenes":[{"name":"Root Scene","nodes":[0]}],"textures":[{"name":"MI_Rope_01","sampler":0,"source":0},{"name":"MI_Rope_01","sampler":0,"source":1}]}