{"accessors":[{"bufferView":0,"byteOffset":0,"componentType":5126,"count":1,"max":[0],"min":[0],"type":"SCALAR"},{"bufferView":1,"byteOffset":0,"componentType":5123,"count":144,"type":"SCALAR"},{"bufferView":2,"byteOffset":0,"componentType":5126,"count":50,"max":[2.20219802856445,1.70054471492767,2.8749475479126],"min":[-0.00000003498226,-0.05342979356647,0.000000000000000568434175902586],"type":"VEC3"},{"bufferView":3,"byteOffset":0,"componentType":5126,"count":50,"type":"VEC3"},{"bufferView":4,"byteOffset":0,"componentType":5126,"count":50,"type":"VEC4"},{"bufferView":5,"byteOffset":0,"componentType":5126,"count":50,"type":"VEC2"},{"bufferView":6,"byteOffset":0,"componentType":5126,"count":50,"type":"VEC2"},{"bufferView":7,"byteOffset":0,"componentType":5123,"count":108,"type":"SCALAR"},{"bufferView":8,"byteOffset":0,"componentType":5126,"count":38,"max":[2.20219802856445,1.70054471492767,2.89625549316406],"min":[-0.00000002614672,-0.05342979356647,0.000000000000000568434175902586],"type":"VEC3"},{"bufferView":9,"byteOffset":0,"componentType":5126,"count":38,"type":"VEC3"},{"bufferView":10,"byteOffset":0,"componentType":5126,"count":38,"type":"VEC4"},{"bufferView":11,"byteOffset":0,"componentType":5126,"count":38,"type":"VEC2"},{"bufferView":12,"byteOffset":0,"componentType":5126,"count":38,"type":"VEC2"},{"bufferView":13,"byteOffset":0,"componentType":5123,"count":72,"type":"SCALAR"},{"bufferView":14,"byteOffset":0,"componentType":5126,"count":26,"max":[2.20219802856445,1.70054471492767,2.89625549316406],"min":[-0.00000002614672,-0.05342979356647,0.000000000000000568434175902586],"type":"VEC3"},{"bufferView":15,"byteOffset":0,"componentType":5126,"count":26,"type":"VEC3"},{"bufferView":16,"byteOffset":0,"componentType":5126,"count":26,"type":"VEC4"},{"bufferView":17,"byteOffset":0,"componentType":5126,"count":26,"type":"VEC2"},{"bufferView":18,"byteOffset":0,"componentType":5126,"count":26,"type":"VEC2"},{"bufferView":19,"byteOffset":0,"componentType":5123,"count":18,"type":"SCALAR"},{"bufferView":20,"byteOffset":0,"componentType":5126,"count":8,"max":[2.1776442527771,1.69926941394806,2.89625549316406],"min":[0.00092164223315194,-0.01540842745453,-0.00032646168256],"type":"VEC3"},{"bufferView":21,"byteOffset":0,"componentType":5126,"count":8,"type":"VEC3"},{"bufferView":22,"byteOffset":0,"componentType":5126,"count":8,"type":"VEC4"},{"bufferView":23,"byteOffset":0,"componentType":5126,"count":8,"type":"VEC2"},{"bufferView":24,"byteOffset":0,"componentType":5126,"count":8,"type":"VEC2"},{"bufferView":25,"byteOffset":0,"componentType":5123,"count":222,"type":"SCALAR"},{"bufferView":26,"byteOffset":0,"componentType":5126,"count":45,"max":[2.22106266021729,1.72457695007324,2.89340448379517],"min":[-0.02237634919584,-0.071149751544,-0.01831823959947],"type":"VEC3"},{"bufferView":27,"byteOffset":0,"componentType":5126,"count":45,"type":"VEC3"},{"bufferView":28,"byteOffset":0,"componentType":5126,"count":45,"type":"VEC2"},{"bufferView":29,"byteOffset":0,"componentType":5126,"count":45,"type":"VEC2"}],"animations":[{"channels":[],"name":"Unreal Take","samplers":[]}],"asset":{"generator":"FBX2glTF v0.13.0","version":"2.0"},"bufferViews":[{"buffer":0,"byteLength":4,"byteOffset":0},{"buffer":0,"byteLength":288,"byteOffset":4,"target":34963},{"buffer":0,"byteLength":600,"byteOffset":292,"target":34962},{"buffer":0,"byteLength":600,"byteOffset":892,"target":34962},{"buffer":0,"byteLength":800,"byteOffset":1492,"target":34962},{"buffer":0,"byteLength":400,"byteOffset":2292,"target":34962},{"buffer":0,"byteLength":400,"byteOffset":2692,"target":34962},{"buffer":0,"byteLength":216,"byteOffset":3092,"target":34963},{"buffer":0,"byteLength":456,"byteOffset":3308,"target":34962},{"buffer":0,"byteLength":456,"byteOffset":3764,"target":34962},{"buffer":0,"byteLength":608,"byteOffset":4220,"target":34962},{"buffer":0,"byteLength":304,"byteOffset":4828,"target":34962},{"buffer":0,"byteLength":304,"byteOffset":5132,"target":34962},{"buffer":0,"byteLength":144,"byteOffset":5436,"target":34963},{"buffer":0,"byteLength":312,"byteOffset":5580,"target":34962},{"buffer":0,"byteLength":312,"byteOffset":5892,"target":34962},{"buffer":0,"byteLength":416,"byteOffset":6204,"target":34962},{"buffer":0,"byteLength":208,"byteOffset":6620,"target":34962},{"buffer":0,"byteLength":208,"byteOffset":6828,"target":34962},{"buffer":0,"byteLength":36,"byteOffset":7036,"target":34963},{"buffer":0,"byteLength":96,"byteOffset":7072,"target":34962},{"buffer":0,"byteLength":96,"byteOffset":7168,"target":34962},{"buffer":0,"byteLength":128,"byteOffset":7264,"target":34962},{"buffer":0,"byteLength":64,"byteOffset":7392,"target":34962},{"buffer":0,"byteLength":64,"byteOffset":7456,"target":34962},{"buffer":0,"byteLength":444,"byteOffset":7520,"target":34963},{"buffer":0,"byteLength":540,"byteOffset":7964,"target":34962},{"buffer":0,"byteLength":540,"byteOffset":8504,"target":34962},{"buffer":0,"byteLength":360,"byteOffset":9044,"target":34962},{"buffer":0,"byteLength":360,"byteOffset":9404,"target":34962}],"buffers":[{"byteLength":9764,"uri":"SM_Roof.bin"}],"images":[{"name":"T_WoodPlanksRoof_N","uri":"T_WoodPlanksRoof_N.png"},{"name":"T_WoodPlanksRoof_B","uri":"T_WoodPlanksRoof_B.png"}],"materials":[{"alphaMode":"OPAQUE","doubleSided":false,"extras":{"fromFBX":{"isTruePBR":false,"shadingModel":"Phong"}},"name":"MI_Roof","normalTexture":{"index":0,"texCoord":0},"pbrMetallicRoughness":{"baseColorFactor":[1,1,1,1],"baseColorTexture":{"index":1,"texCoord":0},"metallicFactor":0.400000005960464,"roughnessFactor":0.301511347293854}},{"alphaMode":"OPAQUE","doubleSided":false,"extras":{"fromFBX":{"isTruePBR":false,"shadingModel":"Lambert"}},"name":"DefaultMaterial","pbrMetallicRoughness":{"baseColorFactor":[0.5,0.5,0.5,1],"metallicFactor":0.200000002980232,"roughnessFactor":0.800000011920929}}],"meshes":[{"name":"SM_Roof_LOD0","primitives":[{"attributes":{"NORMAL":3,"POSITION":2,"TANGENT":4,"TEXCOORD_0":5,"TEXCOORD_1":6},"indices":1,"material":0,"mode":4}]},{"name":"SM_Roof_LOD1","primitives":[{"attributes":{"NORMAL":9,"POSITION":8,"TANGENT":10,"TEXCOORD_0":11,"TEXCOORD_1":12},"indices":7,"material":0,"mode":4}]},{"name":"SM_Roof_LOD2","primitives":[{"attributes":{"NORMAL":15,"POSITION":14,"TANGENT":16,"TEXCOORD_0":17,"TEXCOORD_1":18},"indices":13,"material":0,"mode":4}]},{"name":"SM_Roof_LOD3","primitives":[{"attributes":{"NORMAL":21,"POSITION":20,"TANGENT":22,"TEXCOORD_0":23,"TEXCOORD_1":24},"indices":19,"material":0,"mode":4}]},{"name":"SM_Roof_ConvexHulls","primitives":[{"attributes":{"NORMAL":27,"POSITION":26,"TEXCOORD_0":28,"TEXCOORD_1":29},"indices":25,"material":1,"mode":4}]}],"nodes":[{"children":[1,2,3,4,5],"name":"SM_Roof_70","originalUnits":0.00999999977648258,"pivot":[0,0,0],"rotation":[0,0,0,1],"scale":[1,1,1],"translation":[0,0,0]},{"mesh":0,"name":"SM_Roof_LOD0","originalUnits":0.00999999977648258,"pivot":[0,0,0],"rotation":[0,0,0,1],"scale":[1,1,1],"translation":[0,0,0]},{"mesh":4,"name":"SM_Roof_ConvexHulls","originalUnits":0.00999999977648258,"pivot":[0,0,0],"rotation":[0,0,0,1],"scale":[1,1,1],"translation":[0,0,0]},{"mesh":1,"name":"SM_Roof_LOD1","originalUnits":0.00999999977648258,"pivot":[0,0,0],"rotation":[0,0,0,1],"scale":[1,1,1],"translation":[0,0,0]},{"mesh":2,"name":"SM_Roof_LOD2","originalUnits":0.00999999977648258,"pivot":[0,0,0],"rotation":[0,0,0,1],"scale":[1,1,1],"translation":[0,0,0]},{"mesh":3,"name":"SM_Roof_LOD3","originalUnits":0.00999999977648258,"pivot":[0,0,0],"rotation":[0,0,0,1],"scale":[1,1,1],"translation":[0,0,0]}],"samplers":[{}],"scene":0,"scenes":[{"name":"Root Scene","nodes":[0]}],"textures":[{"name":"MI_Roof","sampler":0,"source":0},{"name":"MI_Roof","sampler":0,"source":1}]}