{"accessors":[{"bufferView":0,"byteOffset":0,"componentType":5126,"count":1,"max":[0],"min":[0],"type":"SCALAR"},{"bufferView":1,"byteOffset":0,"componentType":5123,"count":57,"type":"SCALAR"},{"bufferView":2,"byteOffset":0,"componentType":5126,"count":17,"max":[0.0122974049299955,0.00212134909816086,0.791698813438416],"min":[-0.01440905313939,-0.71731960773468,-1.0586222410202],"type":"VEC3"},{"bufferView":3,"byteOffset":0,"componentType":5126,"count":17,"type":"VEC3"},{"bufferView":4,"byteOffset":0,"componentType":5126,"count":17,"type":"VEC4"},{"bufferView":5,"byteOffset":0,"componentType":5126,"count":17,"type":"VEC2"},{"bufferView":6,"byteOffset":0,"componentType":5126,"count":17,"type":"VEC2"},{"bufferView":7,"byteOffset":0,"componentType":5123,"count":42,"type":"SCALAR"},{"bufferView":8,"byteOffset":0,"componentType":5126,"count":14,"max":[0.0122974049299955,0.00211925525218248,0.791698813438416],"min":[-0.01440905313939,-0.71731960773468,-1.0586222410202],"type":"VEC3"},{"bufferView":9,"byteOffset":0,"componentType":5126,"count":14,"type":"VEC3"},{"bufferView":10,"byteOffset":0,"componentType":5126,"count":14,"type":"VEC4"},{"bufferView":11,"byteOffset":0,"componentType":5126,"count":14,"type":"VEC2"},{"bufferView":12,"byteOffset":0,"componentType":5126,"count":14,"type":"VEC2"},{"bufferView":13,"byteOffset":0,"componentType":5123,"count":30,"type":"SCALAR"},{"bufferView":14,"byteOffset":0,"componentType":5126,"count":11,"max":[0.0122974049299955,0.00211925525218248,0.791698813438416],"min":[-0.01440905313939,-0.71731960773468,-1.06225121021271],"type":"VEC3"},{"bufferView":15,"byteOffset":0,"componentType":5126,"count":11,"type":"VEC3"},{"bufferView":16,"byteOffset":0,"componentType":5126,"count":11,"type":"VEC4"},{"bufferView":17,"byteOffset":0,"componentType":5126,"count":11,"type":"VEC2"},{"bufferView":18,"byteOffset":0,"componentType":5126,"count":11,"type":"VEC2"},{"bufferView":19,"byteOffset":0,"componentType":5123,"count":9,"type":"SCALAR"},{"bufferView":20,"byteOffset":0,"componentType":5126,"count":5,"max":[0.00452709058299661,0.001351946615614,0.791698813438416],"min":[-0.01395000517368,-0.76795470714569,-1.06808388233185],"type":"VEC3"},{"bufferView":21,"byteOffset":0,"componentType":5126,"count":5,"type":"VEC3"},{"bufferView":22,"byteOffset":0,"componentType":5126,"count":5,"type":"VEC4"},{"bufferView":23,"byteOffset":0,"componentType":5126,"count":5,"type":"VEC2"},{"bufferView":24,"byteOffset":0,"componentType":5126,"count":5,"type":"VEC2"}],"animations":[{"channels":[],"name":"Unreal Take","samplers":[]}],"asset":{"generator":"FBX2glTF v0.13.0","version":"2.0"},"bufferViews":[{"buffer":0,"byteLength":4,"byteOffset":0},{"buffer":0,"byteLength":114,"byteOffset":4,"target":34963},{"buffer":0,"byteLength":204,"byteOffset":120,"target":34962},{"buffer":0,"byteLength":204,"byteOffset":324,"target":34962},{"buffer":0,"byteLength":272,"byteOffset":528,"target":34962},{"buffer":0,"byteLength":136,"byteOffset":800,"target":34962},{"buffer":0,"byteLength":136,"byteOffset":936,"target":34962},{"buffer":0,"byteLength":84,"byteOffset":1072,"target":34963},{"buffer":0,"byteLength":168,"byteOffset":1156,"target":34962},{"buffer":0,"byteLength":168,"byteOffset":1324,"target":34962},{"buffer":0,"byteLength":224,"byteOffset":1492,"target":34962},{"buffer":0,"byteLength":112,"byteOffset":1716,"target":34962},{"buffer":0,"byteLength":112,"byteOffset":1828,"target":34962},{"buffer":0,"byteLength":60,"byteOffset":1940,"target":34963},{"buffer":0,"byteLength":132,"byteOffset":2000,"target":34962},{"buffer":0,"byteLength":132,"byteOffset":2132,"target":34962},{"buffer":0,"byteLength":176,"byteOffset":2264,"target":34962},{"buffer":0,"byteLength":88,"byteOffset":2440,"target":34962},{"buffer":0,"byteLength":88,"byteOffset":2528,"target":34962},{"buffer":0,"byteLength":18,"byteOffset":2616,"target":34963},{"buffer":0,"byteLength":60,"byteOffset":2636,"target":34962},{"buffer":0,"byteLength":60,"byteOffset":2696,"target":34962},{"buffer":0,"byteLength":80,"byteOffset":2756,"target":34962},{"buffer":0,"byteLength":40,"byteOffset":2836,"target":34962},{"buffer":0,"byteLength":40,"byteOffset":2876,"target":34962}],"buffers":[{"byteLength":2916,"uri":"SM_Spiderweb_04.bin"}],"images":[{"name":"T_Spiderwebs_01_M","uri":"T_Spiderwebs_01_M.png"}],"materials":[{"alphaMode":"OPAQUE","doubleSided":false,"extras":{"fromFBX":{"isTruePBR":false,"shadingModel":"Lambert"}},"name":"MI_Spiderweb01","pbrMetallicRoughness":{"baseColorFactor":[1,1,1,1],"baseColorTexture":{"index":0,"texCoord":0},"metallicFactor":0.200000002980232,"roughnessFactor":0.800000011920929}}],"meshes":[{"name":"SM_Spiderweb_04_LOD0","primitives":[{"attributes":{"NORMAL":3,"POSITION":2,"TANGENT":4,"TEXCOORD_0":5,"TEXCOORD_1":6},"indices":1,"material":0,"mode":4}]},{"name":"SM_Spiderweb_04_LOD1","primitives":[{"attributes":{"NORMAL":9,"POSITION":8,"TANGENT":10,"TEXCOORD_0":11,"TEXCOORD_1":12},"indices":7,"material":0,"mode":4}]},{"name":"SM_Spiderweb_04_LOD2","primitives":[{"attributes":{"NORMAL":15,"POSITION":14,"TANGENT":16,"TEXCOORD_0":17,"TEXCOORD_1":18},"indices":13,"material":0,"mode":4}]},{"name":"SM_Spiderweb_04_LOD3","primitives":[{"attributes":{"NORMAL":21,"POSITION":20,"TANGENT":22,"TEXCOORD_0":23,"TEXCOORD_1":24},"indices":19,"material":0,"mode":4}]}],"nodes":[{"children":[1,2,3,4],"name":"SM_Spiderweb_04_93","originalUnits":0.00999999977648258,"pivot":[0,0,0],"rotation":[0,0,0,1],"scale":[1,1,1],"translation":[0,0,0]},{"mesh":0,"name":"SM_Spiderweb_04_LOD0","originalUnits":0.00999999977648258,"pivot":[0,0,0],"rotation":[0,0,0,1],"scale":[1,1,1],"translation":[0,0,0]},{"mesh":1,"name":"SM_Spiderweb_04_LOD1","originalUnits":0.00999999977648258,"pivot":[0,0,0],"rotation":[0,0,0,1],"scale":[1,1,1],"translation":[0,0,0]},{"mesh":2,"name":"SM_Spiderweb_04_LOD2","originalUnits":0.00999999977648258,"pivot":[0,0,0],"rotation":[0,0,0,1],"scale":[1,1,1],"translation":[0,0,0]},{"mesh":3,"name":"SM_Spiderweb_04_LOD3","originalUnits":0.00999999977648258,"pivot":[0,0,0],"rotation":[0,0,0,1],"scale":[1,1,1],"translation":[0,0,0]}],"samplers":[{}],"scene":0,"scenes":[{"name":"Root Scene","nodes":[0]}],"textures":[{"name":"MI_Spiderweb01","sampler":0,"source":0}]}