{"accessors":[{"bufferView":0,"byteOffset":0,"componentType":5126,"count":1,"max":[0],"min":[0],"type":"SCALAR"},{"bufferView":1,"byteOffset":0,"componentType":5123,"count":33,"type":"SCALAR"},{"bufferView":2,"byteOffset":0,"componentType":5126,"count":11,"max":[0.00000000492753571279536,0.00318048847839236,0.671853303909302],"min":[-0.00700133061036,-0.39325952529907,-0.40591406822205],"type":"VEC3"},{"bufferView":3,"byteOffset":0,"componentType":5126,"count":11,"type":"VEC3"},{"bufferView":4,"byteOffset":0,"componentType":5126,"count":11,"type":"VEC4"},{"bufferView":5,"byteOffset":0,"componentType":5126,"count":11,"type":"VEC2"},{"bufferView":6,"byteOffset":0,"componentType":5126,"count":11,"type":"VEC2"},{"bufferView":7,"byteOffset":0,"componentType":5123,"count":24,"type":"SCALAR"},{"bufferView":8,"byteOffset":0,"componentType":5126,"count":9,"max":[0.000033123968023574,0.00318048847839236,0.671853303909302],"min":[-0.00639734091237,-0.39325952529907,-0.40591406822205],"type":"VEC3"},{"bufferView":9,"byteOffset":0,"componentType":5126,"count":9,"type":"VEC3"},{"bufferView":10,"byteOffset":0,"componentType":5126,"count":9,"type":"VEC4"},{"bufferView":11,"byteOffset":0,"componentType":5126,"count":9,"type":"VEC2"},{"bufferView":12,"byteOffset":0,"componentType":5126,"count":9,"type":"VEC2"},{"bufferView":13,"byteOffset":0,"componentType":5123,"count":15,"type":"SCALAR"},{"bufferView":14,"byteOffset":0,"componentType":5126,"count":7,"max":[0.00000000492753571279536,0.00318048847839236,0.671853303909302],"min":[-0.00637746183202,-0.39350599050522,-0.40591406822205],"type":"VEC3"},{"bufferView":15,"byteOffset":0,"componentType":5126,"count":7,"type":"VEC3"},{"bufferView":16,"byteOffset":0,"componentType":5126,"count":7,"type":"VEC4"},{"bufferView":17,"byteOffset":0,"componentType":5126,"count":7,"type":"VEC2"},{"bufferView":18,"byteOffset":0,"componentType":5126,"count":7,"type":"VEC2"},{"bufferView":19,"byteOffset":0,"componentType":5123,"count":6,"type":"SCALAR"},{"bufferView":20,"byteOffset":0,"componentType":5126,"count":4,"max":[0.00161414034664631,0.00318048847839236,0.671853303909302],"min":[-0.00677583320066,-0.41830661892891,-0.40488448739052],"type":"VEC3"},{"bufferView":21,"byteOffset":0,"componentType":5126,"count":4,"type":"VEC3"},{"bufferView":22,"byteOffset":0,"componentType":5126,"count":4,"type":"VEC4"},{"bufferView":23,"byteOffset":0,"componentType":5126,"count":4,"type":"VEC2"},{"bufferView":24,"byteOffset":0,"componentType":5126,"count":4,"type":"VEC2"}],"animations":[{"channels":[],"name":"Unreal Take","samplers":[]}],"asset":{"generator":"FBX2glTF v0.13.0","version":"2.0"},"bufferViews":[{"buffer":0,"byteLength":4,"byteOffset":0},{"buffer":0,"byteLength":66,"byteOffset":4,"target":34963},{"buffer":0,"byteLength":132,"byteOffset":72,"target":34962},{"buffer":0,"byteLength":132,"byteOffset":204,"target":34962},{"buffer":0,"byteLength":176,"byteOffset":336,"target":34962},{"buffer":0,"byteLength":88,"byteOffset":512,"target":34962},{"buffer":0,"byteLength":88,"byteOffset":600,"target":34962},{"buffer":0,"byteLength":48,"byteOffset":688,"target":34963},{"buffer":0,"byteLength":108,"byteOffset":736,"target":34962},{"buffer":0,"byteLength":108,"byteOffset":844,"target":34962},{"buffer":0,"byteLength":144,"byteOffset":952,"target":34962},{"buffer":0,"byteLength":72,"byteOffset":1096,"target":34962},{"buffer":0,"byteLength":72,"byteOffset":1168,"target":34962},{"buffer":0,"byteLength":30,"byteOffset":1240,"target":34963},{"buffer":0,"byteLength":84,"byteOffset":1272,"target":34962},{"buffer":0,"byteLength":84,"byteOffset":1356,"target":34962},{"buffer":0,"byteLength":112,"byteOffset":1440,"target":34962},{"buffer":0,"byteLength":56,"byteOffset":1552,"target":34962},{"buffer":0,"byteLength":56,"byteOffset":1608,"target":34962},{"buffer":0,"byteLength":12,"byteOffset":1664,"target":34963},{"buffer":0,"byteLength":48,"byteOffset":1676,"target":34962},{"buffer":0,"byteLength":48,"byteOffset":1724,"target":34962},{"buffer":0,"byteLength":64,"byteOffset":1772,"target":34962},{"buffer":0,"byteLength":32,"byteOffset":1836,"target":34962},{"buffer":0,"byteLength":32,"byteOffset":1868,"target":34962}],"buffers":[{"byteLength":1900,"uri":"SM_Spiderweb_02.bin"}],"images":[{"name":"T_Spiderwebs_01_M","uri":"T_Spiderwebs_01_M.png"}],"materials":[{"alphaMode":"OPAQUE","doubleSided":false,"extras":{"fromFBX":{"isTruePBR":false,"shadingModel":"Lambert"}},"name":"MI_Spiderweb01","pbrMetallicRoughness":{"baseColorFactor":[1,1,1,1],"baseColorTexture":{"index":0,"texCoord":0},"metallicFactor":0.200000002980232,"roughnessFactor":0.800000011920929}}],"meshes":[{"name":"SM_Spiderweb_02_LOD0","primitives":[{"attributes":{"NORMAL":3,"POSITION":2,"TANGENT":4,"TEXCOORD_0":5,"TEXCOORD_1":6},"indices":1,"material":0,"mode":4}]},{"name":"SM_Spiderweb_02_LOD1","primitives":[{"attributes":{"NORMAL":9,"POSITION":8,"TANGENT":10,"TEXCOORD_0":11,"TEXCOORD_1":12},"indices":7,"material":0,"mode":4}]},{"name":"SM_Spiderweb_02_LOD2","primitives":[{"attributes":{"NORMAL":15,"POSITION":14,"TANGENT":16,"TEXCOORD_0":17,"TEXCOORD_1":18},"indices":13,"material":0,"mode":4}]},{"name":"SM_Spiderweb_02_LOD3","primitives":[{"attributes":{"NORMAL":21,"POSITION":20,"TANGENT":22,"TEXCOORD_0":23,"TEXCOORD_1":24},"indices":19,"material":0,"mode":4}]}],"nodes":[{"children":[1,2,3,4],"name":"SM_Spiderweb_02_91","originalUnits":0.00999999977648258,"pivot":[0,0,0],"rotation":[0,0,0,1],"scale":[1,1,1],"translation":[0,0,0]},{"mesh":0,"name":"SM_Spiderweb_02_LOD0","originalUnits":0.00999999977648258,"pivot":[0,0,0],"rotation":[0,0,0,1],"scale":[1,1,1],"translation":[0,0,0]},{"mesh":1,"name":"SM_Spiderweb_02_LOD1","originalUnits":0.00999999977648258,"pivot":[0,0,0],"rotation":[0,0,0,1],"scale":[1,1,1],"translation":[0,0,0]},{"mesh":2,"name":"SM_Spiderweb_02_LOD2","originalUnits":0.00999999977648258,"pivot":[0,0,0],"rotation":[0,0,0,1],"scale":[1,1,1],"translation":[0,0,0]},{"mesh":3,"name":"SM_Spiderweb_02_LOD3","originalUnits":0.00999999977648258,"pivot":[0,0,0],"rotation":[0,0,0,1],"scale":[1,1,1],"translation":[0,0,0]}],"samplers":[{}],"scene":0,"scenes":[{"name":"Root Scene","nodes":[0]}],"textures":[{"name":"MI_Spiderweb01","sampler":0,"source":0}]}