{"accessors":[{"bufferView":0,"byteOffset":0,"componentType":5126,"count":1,"max":[0],"min":[0],"type":"SCALAR"},{"bufferView":1,"byteOffset":0,"componentType":5123,"count":108,"type":"SCALAR"},{"bufferView":2,"byteOffset":0,"componentType":5126,"count":28,"max":[0.0233541466295719,0.316795468330383,0.203369244933128],"min":[-0.21794973313808,-0.00000038183137,-0.17815637588501],"type":"VEC3"},{"bufferView":3,"byteOffset":0,"componentType":5126,"count":28,"type":"VEC3"},{"bufferView":4,"byteOffset":0,"componentType":5126,"count":28,"type":"VEC4"},{"bufferView":5,"byteOffset":0,"componentType":5126,"count":28,"type":"VEC2"},{"bufferView":6,"byteOffset":0,"componentType":5126,"count":28,"type":"VEC2"},{"bufferView":7,"byteOffset":0,"componentType":5123,"count":78,"type":"SCALAR"},{"bufferView":8,"byteOffset":0,"componentType":5126,"count":22,"max":[0.0233541466295719,0.316795468330383,0.203369244933128],"min":[-0.21794973313808,-0.00000038183137,-0.17815625667572],"type":"VEC3"},{"bufferView":9,"byteOffset":0,"componentType":5126,"count":22,"type":"VEC3"},{"bufferView":10,"byteOffset":0,"componentType":5126,"count":22,"type":"VEC4"},{"bufferView":11,"byteOffset":0,"componentType":5126,"count":22,"type":"VEC2"},{"bufferView":12,"byteOffset":0,"componentType":5126,"count":22,"type":"VEC2"},{"bufferView":13,"byteOffset":0,"componentType":5123,"count":51,"type":"SCALAR"},{"bufferView":14,"byteOffset":0,"componentType":5126,"count":17,"max":[0.0233541466295719,0.316795468330383,0.203369244933128],"min":[-0.21794973313808,-0.00000038183137,-0.17815625667572],"type":"VEC3"},{"bufferView":15,"byteOffset":0,"componentType":5126,"count":17,"type":"VEC3"},{"bufferView":16,"byteOffset":0,"componentType":5126,"count":17,"type":"VEC4"},{"bufferView":17,"byteOffset":0,"componentType":5126,"count":17,"type":"VEC2"},{"bufferView":18,"byteOffset":0,"componentType":5126,"count":17,"type":"VEC2"},{"bufferView":19,"byteOffset":0,"componentType":5123,"count":15,"type":"SCALAR"},{"bufferView":20,"byteOffset":0,"componentType":5126,"count":7,"max":[0.0167916603386402,0.316795468330383,0.20292603969574],"min":[-0.21794973313808,-0.00885799527168,-0.17815625667572],"type":"VEC3"},{"bufferView":21,"byteOffset":0,"componentType":5126,"count":7,"type":"VEC3"},{"bufferView":22,"byteOffset":0,"componentType":5126,"count":7,"type":"VEC4"},{"bufferView":23,"byteOffset":0,"componentType":5126,"count":7,"type":"VEC2"},{"bufferView":24,"byteOffset":0,"componentType":5126,"count":7,"type":"VEC2"}],"animations":[{"channels":[],"name":"Unreal Take","samplers":[]}],"asset":{"generator":"FBX2glTF v0.13.0","version":"2.0"},"bufferViews":[{"buffer":0,"byteLength":4,"byteOffset":0},{"buffer":0,"byteLength":216,"byteOffset":4,"target":34963},{"buffer":0,"byteLength":336,"byteOffset":220,"target":34962},{"buffer":0,"byteLength":336,"byteOffset":556,"target":34962},{"buffer":0,"byteLength":448,"byteOffset":892,"target":34962},{"buffer":0,"byteLength":224,"byteOffset":1340,"target":34962},{"buffer":0,"byteLength":224,"byteOffset":1564,"target":34962},{"buffer":0,"byteLength":156,"byteOffset":1788,"target":34963},{"buffer":0,"byteLength":264,"byteOffset":1944,"target":34962},{"buffer":0,"byteLength":264,"byteOffset":2208,"target":34962},{"buffer":0,"byteLength":352,"byteOffset":2472,"target":34962},{"buffer":0,"byteLength":176,"byteOffset":2824,"target":34962},{"buffer":0,"byteLength":176,"byteOffset":3000,"target":34962},{"buffer":0,"byteLength":102,"byteOffset":3176,"target":34963},{"buffer":0,"byteLength":204,"byteOffset":3280,"target":34962},{"buffer":0,"byteLength":204,"byteOffset":3484,"target":34962},{"buffer":0,"byteLength":272,"byteOffset":3688,"target":34962},{"buffer":0,"byteLength":136,"byteOffset":3960,"target":34962},{"buffer":0,"byteLength":136,"byteOffset":4096,"target":34962},{"buffer":0,"byteLength":30,"byteOffset":4232,"target":34963},{"buffer":0,"byteLength":84,"byteOffset":4264,"target":34962},{"buffer":0,"byteLength":84,"byteOffset":4348,"target":34962},{"buffer":0,"byteLength":112,"byteOffset":4432,"target":34962},{"buffer":0,"byteLength":56,"byteOffset":4544,"target":34962},{"buffer":0,"byteLength":56,"byteOffset":4600,"target":34962}],"buffers":[{"byteLength":4656,"uri":"SM_Spiderweb_01.bin"}],"images":[{"name":"T_Spiderwebs_01_M","uri":"T_Spiderwebs_01_M.png"}],"materials":[{"alphaMode":"OPAQUE","doubleSided":false,"extras":{"fromFBX":{"isTruePBR":false,"shadingModel":"Lambert"}},"name":"MI_Spiderweb01","pbrMetallicRoughness":{"baseColorFactor":[1,1,1,1],"baseColorTexture":{"index":0,"texCoord":0},"metallicFactor":0.200000002980232,"roughnessFactor":0.800000011920929}}],"meshes":[{"name":"SM_Spiderweb_01_LOD0","primitives":[{"attributes":{"NORMAL":3,"POSITION":2,"TANGENT":4,"TEXCOORD_0":5,"TEXCOORD_1":6},"indices":1,"material":0,"mode":4}]},{"name":"SM_Spiderweb_01_LOD1","primitives":[{"attributes":{"NORMAL":9,"POSITION":8,"TANGENT":10,"TEXCOORD_0":11,"TEXCOORD_1":12},"indices":7,"material":0,"mode":4}]},{"name":"SM_Spiderweb_01_LOD2","primitives":[{"attributes":{"NORMAL":15,"POSITION":14,"TANGENT":16,"TEXCOORD_0":17,"TEXCOORD_1":18},"indices":13,"material":0,"mode":4}]},{"name":"SM_Spiderweb_01_LOD3","primitives":[{"attributes":{"NORMAL":21,"POSITION":20,"TANGENT":22,"TEXCOORD_0":23,"TEXCOORD_1":24},"indices":19,"material":0,"mode":4}]}],"nodes":[{"children":[1,2,3,4],"name":"SM_Spiderweb_01_90","originalUnits":0.00999999977648258,"pivot":[0,0,0],"rotation":[0,0,0,1],"scale":[1,1,1],"translation":[0,0,0]},{"mesh":0,"name":"SM_Spiderweb_01_LOD0","originalUnits":0.00999999977648258,"pivot":[0,0,0],"rotation":[0,0,0,1],"scale":[1,1,1],"translation":[0,0,0]},{"mesh":1,"name":"SM_Spiderweb_01_LOD1","originalUnits":0.00999999977648258,"pivot":[0,0,0],"rotation":[0,0,0,1],"scale":[1,1,1],"translation":[0,0,0]},{"mesh":2,"name":"SM_Spiderweb_01_LOD2","originalUnits":0.00999999977648258,"pivot":[0,0,0],"rotation":[0,0,0,1],"scale":[1,1,1],"translation":[0,0,0]},{"mesh":3,"name":"SM_Spiderweb_01_LOD3","originalUnits":0.00999999977648258,"pivot":[0,0,0],"rotation":[0,0,0,1],"scale":[1,1,1],"translation":[0,0,0]}],"samplers":[{}],"scene":0,"scenes":[{"name":"Root Scene","nodes":[0]}],"textures":[{"name":"MI_Spiderweb01","sampler":0,"source":0}]}