{"accessors":[{"bufferView":0,"byteOffset":0,"componentType":5126,"count":1,"max":[0],"min":[0],"type":"SCALAR"},{"bufferView":1,"byteOffset":0,"componentType":5123,"count":36,"type":"SCALAR"},{"bufferView":2,"byteOffset":0,"componentType":5126,"count":20,"max":[0.0283621661365032,0.145921871066093,0.194889008998871],"min":[-0.02836217172444,-0.00000003866479,-0.48560306429863],"type":"VEC3"},{"bufferView":3,"byteOffset":0,"componentType":5126,"count":20,"type":"VEC3"},{"bufferView":4,"byteOffset":0,"componentType":5126,"count":20,"type":"VEC4"},{"bufferView":5,"byteOffset":0,"componentType":5126,"count":20,"type":"VEC2"},{"bufferView":6,"byteOffset":0,"componentType":5126,"count":20,"type":"VEC2"},{"bufferView":7,"byteOffset":0,"componentType":5123,"count":27,"type":"SCALAR"},{"bufferView":8,"byteOffset":0,"componentType":5126,"count":17,"max":[0.0283621661365032,0.145921871066093,0.194889008998871],"min":[-0.02836217172444,-0.00163661630359,-0.48560306429863],"type":"VEC3"},{"bufferView":9,"byteOffset":0,"componentType":5126,"count":17,"type":"VEC3"},{"bufferView":10,"byteOffset":0,"componentType":5126,"count":17,"type":"VEC4"},{"bufferView":11,"byteOffset":0,"componentType":5126,"count":17,"type":"VEC2"},{"bufferView":12,"byteOffset":0,"componentType":5126,"count":17,"type":"VEC2"},{"bufferView":13,"byteOffset":0,"componentType":5123,"count":18,"type":"SCALAR"},{"bufferView":14,"byteOffset":0,"componentType":5126,"count":12,"max":[0.0297006200999022,0.137829214334488,0.194818362593651],"min":[-0.02836217172444,-0.00000003863162,-0.48560306429863],"type":"VEC3"},{"bufferView":15,"byteOffset":0,"componentType":5126,"count":12,"type":"VEC3"},{"bufferView":16,"byteOffset":0,"componentType":5126,"count":12,"type":"VEC4"},{"bufferView":17,"byteOffset":0,"componentType":5126,"count":12,"type":"VEC2"},{"bufferView":18,"byteOffset":0,"componentType":5126,"count":12,"type":"VEC2"},{"bufferView":19,"byteOffset":0,"componentType":5123,"count":6,"type":"SCALAR"},{"bufferView":20,"byteOffset":0,"componentType":5126,"count":4,"max":[0.0297006200999022,0.0240535102784634,0.196921348571777],"min":[-0.02152430266142,-0.00000003863162,-0.48560306429863],"type":"VEC3"},{"bufferView":21,"byteOffset":0,"componentType":5126,"count":4,"type":"VEC3"},{"bufferView":22,"byteOffset":0,"componentType":5126,"count":4,"type":"VEC4"},{"bufferView":23,"byteOffset":0,"componentType":5126,"count":4,"type":"VEC2"},{"bufferView":24,"byteOffset":0,"componentType":5126,"count":4,"type":"VEC2"},{"bufferView":25,"byteOffset":0,"componentType":5123,"count":162,"type":"SCALAR"},{"bufferView":26,"byteOffset":0,"componentType":5126,"count":35,"max":[0.0292682945728302,0.146663293242455,0.195184156298637],"min":[-0.02917210571468,-0.00111949280836,-0.48458611965179],"type":"VEC3"},{"bufferView":27,"byteOffset":0,"componentType":5126,"count":35,"type":"VEC3"},{"bufferView":28,"byteOffset":0,"componentType":5126,"count":35,"type":"VEC2"},{"bufferView":29,"byteOffset":0,"componentType":5126,"count":35,"type":"VEC2"}],"animations":[{"channels":[],"name":"Unreal Take","samplers":[]}],"asset":{"generator":"FBX2glTF v0.13.0","version":"2.0"},"bufferViews":[{"buffer":0,"byteLength":4,"byteOffset":0},{"buffer":0,"byteLength":72,"byteOffset":4,"target":34963},{"buffer":0,"byteLength":240,"byteOffset":76,"target":34962},{"buffer":0,"byteLength":240,"byteOffset":316,"target":34962},{"buffer":0,"byteLength":320,"byteOffset":556,"target":34962},{"buffer":0,"byteLength":160,"byteOffset":876,"target":34962},{"buffer":0,"byteLength":160,"byteOffset":1036,"target":34962},{"buffer":0,"byteLength":54,"byteOffset":1196,"target":34963},{"buffer":0,"byteLength":204,"byteOffset":1252,"target":34962},{"buffer":0,"byteLength":204,"byteOffset":1456,"target":34962},{"buffer":0,"byteLength":272,"byteOffset":1660,"target":34962},{"buffer":0,"byteLength":136,"byteOffset":1932,"target":34962},{"buffer":0,"byteLength":136,"byteOffset":2068,"target":34962},{"buffer":0,"byteLength":36,"byteOffset":2204,"target":34963},{"buffer":0,"byteLength":144,"byteOffset":2240,"target":34962},{"buffer":0,"byteLength":144,"byteOffset":2384,"target":34962},{"buffer":0,"byteLength":192,"byteOffset":2528,"target":34962},{"buffer":0,"byteLength":96,"byteOffset":2720,"target":34962},{"buffer":0,"byteLength":96,"byteOffset":2816,"target":34962},{"buffer":0,"byteLength":12,"byteOffset":2912,"target":34963},{"buffer":0,"byteLength":48,"byteOffset":2924,"target":34962},{"buffer":0,"byteLength":48,"byteOffset":2972,"target":34962},{"buffer":0,"byteLength":64,"byteOffset":3020,"target":34962},{"buffer":0,"byteLength":32,"byteOffset":3084,"target":34962},{"buffer":0,"byteLength":32,"byteOffset":3116,"target":34962},{"buffer":0,"byteLength":324,"byteOffset":3148,"target":34963},{"buffer":0,"byteLength":420,"byteOffset":3472,"target":34962},{"buffer":0,"byteLength":420,"byteOffset":3892,"target":34962},{"buffer":0,"byteLength":280,"byteOffset":4312,"target":34962},{"buffer":0,"byteLength":280,"byteOffset":4592,"target":34962}],"buffers":[{"byteLength":4872,"uri":"SM_Shaving.bin"}],"images":[{"name":"T_Wooden_N","uri":"T_Wooden_N.png"},{"name":"T_Wooden_B","uri":"T_Wooden_B.png"}],"materials":[{"alphaMode":"OPAQUE","doubleSided":false,"extras":{"fromFBX":{"isTruePBR":false,"shadingModel":"Lambert"}},"name":"MI_Shaving","normalTexture":{"index":0,"texCoord":0},"pbrMetallicRoughness":{"baseColorFactor":[1,1,1,1],"baseColorTexture":{"index":1,"texCoord":0},"metallicFactor":0.200000002980232,"roughnessFactor":0.800000011920929}},{"alphaMode":"OPAQUE","doubleSided":false,"extras":{"fromFBX":{"isTruePBR":false,"shadingModel":"Lambert"}},"name":"DefaultMaterial","pbrMetallicRoughness":{"baseColorFactor":[0.5,0.5,0.5,1],"metallicFactor":0.200000002980232,"roughnessFactor":0.800000011920929}}],"meshes":[{"name":"SM_Shaving_LOD0","primitives":[{"attributes":{"NORMAL":3,"POSITION":2,"TANGENT":4,"TEXCOORD_0":5,"TEXCOORD_1":6},"indices":1,"material":0,"mode":4}]},{"name":"SM_Shaving_LOD1","primitives":[{"attributes":{"NORMAL":9,"POSITION":8,"TANGENT":10,"TEXCOORD_0":11,"TEXCOORD_1":12},"indices":7,"material":0,"mode":4}]},{"name":"SM_Shaving_LOD2","primitives":[{"attributes":{"NORMAL":15,"POSITION":14,"TANGENT":16,"TEXCOORD_0":17,"TEXCOORD_1":18},"indices":13,"material":0,"mode":4}]},{"name":"SM_Shaving_LOD3","primitives":[{"attributes":{"NORMAL":21,"POSITION":20,"TANGENT":22,"TEXCOORD_0":23,"TEXCOORD_1":24},"indices":19,"material":0,"mode":4}]},{"name":"SM_Shaving_ConvexHulls","primitives":[{"attributes":{"NORMAL":27,"POSITION":26,"TEXCOORD_0":28,"TEXCOORD_1":29},"indices":25,"material":1,"mode":4}]}],"nodes":[{"children":[1,2,3,4,5],"name":"SM_Scroll_82","originalUnits":0.00999999977648258,"pivot":[0,0,0],"rotation":[0,0,0,1],"scale":[1,1,1],"translation":[0,0,0]},{"mesh":0,"name":"SM_Shaving_LOD0","originalUnits":0.00999999977648258,"pivot":[0,0,0],"rotation":[0,0,0,1],"scale":[1,1,1],"translation":[0,0,0]},{"mesh":4,"name":"SM_Shaving_ConvexHulls","originalUnits":0.00999999977648258,"pivot":[0,0,0],"rotation":[0,0,0,1],"scale":[1,1,1],"translation":[0,0,0]},{"mesh":1,"name":"SM_Shaving_LOD1","originalUnits":0.00999999977648258,"pivot":[0,0,0],"rotation":[0,0,0,1],"scale":[1,1,1],"translation":[0,0,0]},{"mesh":2,"name":"SM_Shaving_LOD2","originalUnits":0.00999999977648258,"pivot":[0,0,0],"rotation":[0,0,0,1],"scale":[1,1,1],"translation":[0,0,0]},{"mesh":3,"name":"SM_Shaving_LOD3","originalUnits":0.00999999977648258,"pivot":[0,0,0],"rotation":[0,0,0,1],"scale":[1,1,1],"translation":[0,0,0]}],"samplers":[{}],"scene":0,"scenes":[{"name":"Root Scene","nodes":[0]}],"textures":[{"name":"MI_Shaving","sampler":0,"source":0},{"name":"MI_Shaving","sampler":0,"source":1}]}