{"accessors":[{"bufferView":0,"byteOffset":0,"componentType":5126,"count":1,"max":[0],"min":[0],"type":"SCALAR"},{"bufferView":1,"byteOffset":0,"componentType":5123,"count":8448,"type":"SCALAR"},{"bufferView":2,"byteOffset":0,"componentType":5126,"count":2213,"max":[0.0216754116117954,0.114842429757118,0.285575240850449],"min":[-0.02167541719973,-0.02167545258999,-0.28557524085045],"type":"VEC3"},{"bufferView":3,"byteOffset":0,"componentType":5126,"count":2213,"type":"VEC3"},{"bufferView":4,"byteOffset":0,"componentType":5126,"count":2213,"type":"VEC4"},{"bufferView":5,"byteOffset":0,"componentType":5126,"count":2213,"type":"VEC2"},{"bufferView":6,"byteOffset":0,"componentType":5126,"count":2213,"type":"VEC2"},{"bufferView":7,"byteOffset":0,"componentType":5123,"count":6336,"type":"SCALAR"},{"bufferView":8,"byteOffset":0,"componentType":5126,"count":1810,"max":[0.0212237481027842,0.114842429757118,0.285575240850449],"min":[-0.02122375182807,-0.02122812531888,-0.2855883538723],"type":"VEC3"},{"bufferView":9,"byteOffset":0,"componentType":5126,"count":1810,"type":"VEC3"},{"bufferView":10,"byteOffset":0,"componentType":5126,"count":1810,"type":"VEC4"},{"bufferView":11,"byteOffset":0,"componentType":5126,"count":1810,"type":"VEC2"},{"bufferView":12,"byteOffset":0,"componentType":5126,"count":1810,"type":"VEC2"},{"bufferView":13,"byteOffset":0,"componentType":5123,"count":4224,"type":"SCALAR"},{"bufferView":14,"byteOffset":0,"componentType":5126,"count":1389,"max":[0.0212237481027842,0.114842429757118,0.285575240850449],"min":[-0.02132895030081,-0.02122812531888,-0.28569778800011],"type":"VEC3"},{"bufferView":15,"byteOffset":0,"componentType":5126,"count":1389,"type":"VEC3"},{"bufferView":16,"byteOffset":0,"componentType":5126,"count":1389,"type":"VEC4"},{"bufferView":17,"byteOffset":0,"componentType":5126,"count":1389,"type":"VEC2"},{"bufferView":18,"byteOffset":0,"componentType":5126,"count":1389,"type":"VEC2"},{"bufferView":19,"byteOffset":0,"componentType":5123,"count":1053,"type":"SCALAR"},{"bufferView":20,"byteOffset":0,"componentType":5126,"count":306,"max":[0.0233200956135988,0.114842429757118,0.286178082227707],"min":[-0.02051239274442,-0.02069284208119,-0.28574341535568],"type":"VEC3"},{"bufferView":21,"byteOffset":0,"componentType":5126,"count":306,"type":"VEC3"},{"bufferView":22,"byteOffset":0,"componentType":5126,"count":306,"type":"VEC4"},{"bufferView":23,"byteOffset":0,"componentType":5126,"count":306,"type":"VEC2"},{"bufferView":24,"byteOffset":0,"componentType":5126,"count":306,"type":"VEC2"},{"bufferView":25,"byteOffset":0,"componentType":5123,"count":294,"type":"SCALAR"},{"bufferView":26,"byteOffset":0,"componentType":5126,"count":57,"max":[0.0206377152353525,0.116884522140026,0.28285738825798],"min":[-0.02137223258615,-0.02131909504533,-0.28658863902092],"type":"VEC3"},{"bufferView":27,"byteOffset":0,"componentType":5126,"count":57,"type":"VEC3"},{"bufferView":28,"byteOffset":0,"componentType":5126,"count":57,"type":"VEC2"},{"bufferView":29,"byteOffset":0,"componentType":5126,"count":57,"type":"VEC2"}],"animations":[{"channels":[],"name":"Unreal Take","samplers":[]}],"asset":{"generator":"FBX2glTF v0.13.0","version":"2.0"},"bufferViews":[{"buffer":0,"byteLength":4,"byteOffset":0},{"buffer":0,"byteLength":16896,"byteOffset":4,"target":34963},{"buffer":0,"byteLength":26556,"byteOffset":16900,"target":34962},{"buffer":0,"byteLength":26556,"byteOffset":43456,"target":34962},{"buffer":0,"byteLength":35408,"byteOffset":70012,"target":34962},{"buffer":0,"byteLength":17704,"byteOffset":105420,"target":34962},{"buffer":0,"byteLength":17704,"byteOffset":123124,"target":34962},{"buffer":0,"byteLength":12672,"byteOffset":140828,"target":34963},{"buffer":0,"byteLength":21720,"byteOffset":153500,"target":34962},{"buffer":0,"byteLength":21720,"byteOffset":175220,"target":34962},{"buffer":0,"byteLength":28960,"byteOffset":196940,"target":34962},{"buffer":0,"byteLength":14480,"byteOffset":225900,"target":34962},{"buffer":0,"byteLength":14480,"byteOffset":240380,"target":34962},{"buffer":0,"byteLength":8448,"byteOffset":254860,"target":34963},{"buffer":0,"byteLength":16668,"byteOffset":263308,"target":34962},{"buffer":0,"byteLength":16668,"byteOffset":279976,"target":34962},{"buffer":0,"byteLength":22224,"byteOffset":296644,"target":34962},{"buffer":0,"byteLength":11112,"byteOffset":318868,"target":34962},{"buffer":0,"byteLength":11112,"byteOffset":329980,"target":34962},{"buffer":0,"byteLength":2106,"byteOffset":341092,"target":34963},{"buffer":0,"byteLength":3672,"byteOffset":343200,"target":34962},{"buffer":0,"byteLength":3672,"byteOffset":346872,"target":34962},{"buffer":0,"byteLength":4896,"byteOffset":350544,"target":34962},{"buffer":0,"byteLength":2448,"byteOffset":355440,"target":34962},{"buffer":0,"byteLength":2448,"byteOffset":357888,"target":34962},{"buffer":0,"byteLength":588,"byteOffset":360336,"target":34963},{"buffer":0,"byteLength":684,"byteOffset":360924,"target":34962},{"buffer":0,"byteLength":684,"byteOffset":361608,"target":34962},{"buffer":0,"byteLength":456,"byteOffset":362292,"target":34962},{"buffer":0,"byteLength":456,"byteOffset":362748,"target":34962}],"buffers":[{"byteLength":363204,"uri":"SM_Saw_01.bin"}],"images":[{"name":"T_Tools_N","uri":"T_Tools_N.png"},{"name":"T_Tools_B","uri":"T_Tools_B.png"}],"materials":[{"alphaMode":"OPAQUE","doubleSided":false,"extras":{"fromFBX":{"isTruePBR":false,"shadingModel":"Phong"}},"name":"MI_Tools_02","normalTexture":{"index":0,"texCoord":0},"pbrMetallicRoughness":{"baseColorFactor":[1,1,1,1],"baseColorTexture":{"index":1,"texCoord":0},"metallicFactor":0.400000005960464,"roughnessFactor":0.301511347293854}},{"alphaMode":"OPAQUE","doubleSided":false,"extras":{"fromFBX":{"isTruePBR":false,"shadingModel":"Lambert"}},"name":"DefaultMaterial","pbrMetallicRoughness":{"baseColorFactor":[0.5,0.5,0.5,1],"metallicFactor":0.200000002980232,"roughnessFactor":0.800000011920929}}],"meshes":[{"name":"SM_Saw_01_LOD0","primitives":[{"attributes":{"NORMAL":3,"POSITION":2,"TANGENT":4,"TEXCOORD_0":5,"TEXCOORD_1":6},"indices":1,"material":0,"mode":4}]},{"name":"SM_Saw_01_LOD1","primitives":[{"attributes":{"NORMAL":9,"POSITION":8,"TANGENT":10,"TEXCOORD_0":11,"TEXCOORD_1":12},"indices":7,"material":0,"mode":4}]},{"name":"SM_Saw_01_LOD2","primitives":[{"attributes":{"NORMAL":15,"POSITION":14,"TANGENT":16,"TEXCOORD_0":17,"TEXCOORD_1":18},"indices":13,"material":0,"mode":4}]},{"name":"SM_Saw_01_LOD3","primitives":[{"attributes":{"NORMAL":21,"POSITION":20,"TANGENT":22,"TEXCOORD_0":23,"TEXCOORD_1":24},"indices":19,"material":0,"mode":4}]},{"name":"SM_Saw_01_ConvexHulls","primitives":[{"attributes":{"NORMAL":27,"POSITION":26,"TEXCOORD_0":28,"TEXCOORD_1":29},"indices":25,"material":1,"mode":4}]}],"nodes":[{"children":[1,2,3,4,5],"name":"SM_Saw_01_75","originalUnits":0.00999999977648258,"pivot":[0,0,0],"rotation":[0,0,0,1],"scale":[1,1,1],"translation":[0,0,0]},{"mesh":0,"name":"SM_Saw_01_LOD0","originalUnits":0.00999999977648258,"pivot":[0,0,0],"rotation":[0,0,0,1],"scale":[1,1,1],"translation":[0,0,0]},{"mesh":4,"name":"SM_Saw_01_ConvexHulls","originalUnits":0.00999999977648258,"pivot":[0,0,0],"rotation":[0,0,0,1],"scale":[1,1,1],"translation":[0,0,0]},{"mesh":1,"name":"SM_Saw_01_LOD1","originalUnits":0.00999999977648258,"pivot":[0,0,0],"rotation":[0,0,0,1],"scale":[1,1,1],"translation":[0,0,0]},{"mesh":2,"name":"SM_Saw_01_LOD2","originalUnits":0.00999999977648258,"pivot":[0,0,0],"rotation":[0,0,0,1],"scale":[1,1,1],"translation":[0,0,0]},{"mesh":3,"name":"SM_Saw_01_LOD3","originalUnits":0.00999999977648258,"pivot":[0,0,0],"rotation":[0,0,0,1],"scale":[1,1,1],"translation":[0,0,0]}],"samplers":[{}],"scene":0,"scenes":[{"name":"Root Scene","nodes":[0]}],"textures":[{"name":"MI_Tools_02","sampler":0,"source":0},{"name":"MI_Tools_02","sampler":0,"source":1}]}