{"accessors":[{"bufferView":0,"byteOffset":0,"componentType":5126,"count":1,"max":[0],"min":[0],"type":"SCALAR"},{"bufferView":1,"byteOffset":0,"componentType":5123,"count":390,"type":"SCALAR"},{"bufferView":2,"byteOffset":0,"componentType":5126,"count":132,"max":[0.237636923789978,0.032052893191576,0.0320018529891968],"min":[-0.23763692378998,-0.03205289319158,-0.0320018529892],"type":"VEC3"},{"bufferView":3,"byteOffset":0,"componentType":5126,"count":132,"type":"VEC3"},{"bufferView":4,"byteOffset":0,"componentType":5126,"count":132,"type":"VEC4"},{"bufferView":5,"byteOffset":0,"componentType":5126,"count":132,"type":"VEC2"},{"bufferView":6,"byteOffset":0,"componentType":5126,"count":132,"type":"VEC2"},{"bufferView":7,"byteOffset":0,"componentType":5123,"count":294,"type":"SCALAR"},{"bufferView":8,"byteOffset":0,"componentType":5126,"count":100,"max":[0.237638339400291,0.0321049615740776,0.0320018529891968],"min":[-0.23763692378998,-0.03182369098067,-0.0320018529892],"type":"VEC3"},{"bufferView":9,"byteOffset":0,"componentType":5126,"count":100,"type":"VEC3"},{"bufferView":10,"byteOffset":0,"componentType":5126,"count":100,"type":"VEC4"},{"bufferView":11,"byteOffset":0,"componentType":5126,"count":100,"type":"VEC2"},{"bufferView":12,"byteOffset":0,"componentType":5126,"count":100,"type":"VEC2"},{"bufferView":13,"byteOffset":0,"componentType":5123,"count":195,"type":"SCALAR"},{"bufferView":14,"byteOffset":0,"componentType":5126,"count":67,"max":[0.237637683749199,0.0311868246644735,0.031937088817358],"min":[-0.23763692378998,-0.03182369098067,-0.03461266681552],"type":"VEC3"},{"bufferView":15,"byteOffset":0,"componentType":5126,"count":67,"type":"VEC3"},{"bufferView":16,"byteOffset":0,"componentType":5126,"count":67,"type":"VEC4"},{"bufferView":17,"byteOffset":0,"componentType":5126,"count":67,"type":"VEC2"},{"bufferView":18,"byteOffset":0,"componentType":5126,"count":67,"type":"VEC2"},{"bufferView":19,"byteOffset":0,"componentType":5123,"count":51,"type":"SCALAR"},{"bufferView":20,"byteOffset":0,"componentType":5126,"count":19,"max":[0.238103941082954,0.0292337499558926,0.0361914038658142],"min":[-0.23485942184925,-0.0355246514082,-0.06331128627062],"type":"VEC3"},{"bufferView":21,"byteOffset":0,"componentType":5126,"count":19,"type":"VEC3"},{"bufferView":22,"byteOffset":0,"componentType":5126,"count":19,"type":"VEC4"},{"bufferView":23,"byteOffset":0,"componentType":5126,"count":19,"type":"VEC2"},{"bufferView":24,"byteOffset":0,"componentType":5126,"count":19,"type":"VEC2"},{"bufferView":25,"byteOffset":0,"componentType":5123,"count":132,"type":"SCALAR"},{"bufferView":26,"byteOffset":0,"componentType":5126,"count":24,"max":[0.238693460822105,0.0330528914928436,0.0330018512904644],"min":[-0.23863692581654,-0.03310069441795,-0.03300184756517],"type":"VEC3"},{"bufferView":27,"byteOffset":0,"componentType":5126,"count":24,"type":"VEC3"},{"bufferView":28,"byteOffset":0,"componentType":5126,"count":24,"type":"VEC2"},{"bufferView":29,"byteOffset":0,"componentType":5126,"count":24,"type":"VEC2"}],"animations":[{"channels":[],"name":"Unreal Take","samplers":[]}],"asset":{"generator":"FBX2glTF v0.13.0","version":"2.0"},"bufferViews":[{"buffer":0,"byteLength":4,"byteOffset":0},{"buffer":0,"byteLength":780,"byteOffset":4,"target":34963},{"buffer":0,"byteLength":1584,"byteOffset":784,"target":34962},{"buffer":0,"byteLength":1584,"byteOffset":2368,"target":34962},{"buffer":0,"byteLength":2112,"byteOffset":3952,"target":34962},{"buffer":0,"byteLength":1056,"byteOffset":6064,"target":34962},{"buffer":0,"byteLength":1056,"byteOffset":7120,"target":34962},{"buffer":0,"byteLength":588,"byteOffset":8176,"target":34963},{"buffer":0,"byteLength":1200,"byteOffset":8764,"target":34962},{"buffer":0,"byteLength":1200,"byteOffset":9964,"target":34962},{"buffer":0,"byteLength":1600,"byteOffset":11164,"target":34962},{"buffer":0,"byteLength":800,"byteOffset":12764,"target":34962},{"buffer":0,"byteLength":800,"byteOffset":13564,"target":34962},{"buffer":0,"byteLength":390,"byteOffset":14364,"target":34963},{"buffer":0,"byteLength":804,"byteOffset":14756,"target":34962},{"buffer":0,"byteLength":804,"byteOffset":15560,"target":34962},{"buffer":0,"byteLength":1072,"byteOffset":16364,"target":34962},{"buffer":0,"byteLength":536,"byteOffset":17436,"target":34962},{"buffer":0,"byteLength":536,"byteOffset":17972,"target":34962},{"buffer":0,"byteLength":102,"byteOffset":18508,"target":34963},{"buffer":0,"byteLength":228,"byteOffset":18612,"target":34962},{"buffer":0,"byteLength":228,"byteOffset":18840,"target":34962},{"buffer":0,"byteLength":304,"byteOffset":19068,"target":34962},{"buffer":0,"byteLength":152,"byteOffset":19372,"target":34962},{"buffer":0,"byteLength":152,"byteOffset":19524,"target":34962},{"buffer":0,"byteLength":264,"byteOffset":19676,"target":34963},{"buffer":0,"byteLength":288,"byteOffset":19940,"target":34962},{"buffer":0,"byteLength":288,"byteOffset":20228,"target":34962},{"buffer":0,"byteLength":192,"byteOffset":20516,"target":34962},{"buffer":0,"byteLength":192,"byteOffset":20708,"target":34962}],"buffers":[{"byteLength":20900,"uri":"SM_Scroll_02.bin"}],"images":[{"name":"T_Paper_N","uri":"T_Paper_N.png"},{"name":"T_Paper_B","uri":"T_Paper_B.png"}],"materials":[{"alphaMode":"OPAQUE","doubleSided":false,"extras":{"fromFBX":{"isTruePBR":false,"shadingModel":"Lambert"}},"name":"MI_Paper_02","normalTexture":{"index":0,"texCoord":0},"pbrMetallicRoughness":{"baseColorFactor":[1,1,1,1],"baseColorTexture":{"index":1,"texCoord":0},"metallicFactor":0.200000002980232,"roughnessFactor":0.800000011920929}},{"alphaMode":"OPAQUE","doubleSided":false,"extras":{"fromFBX":{"isTruePBR":false,"shadingModel":"Lambert"}},"name":"DefaultMaterial","pbrMetallicRoughness":{"baseColorFactor":[0.5,0.5,0.5,1],"metallicFactor":0.200000002980232,"roughnessFactor":0.800000011920929}}],"meshes":[{"name":"SM_Scroll_02_LOD0","primitives":[{"attributes":{"NORMAL":3,"POSITION":2,"TANGENT":4,"TEXCOORD_0":5,"TEXCOORD_1":6},"indices":1,"material":0,"mode":4}]},{"name":"SM_Scroll_02_LOD1","primitives":[{"attributes":{"NORMAL":9,"POSITION":8,"TANGENT":10,"TEXCOORD_0":11,"TEXCOORD_1":12},"indices":7,"material":0,"mode":4}]},{"name":"SM_Scroll_02_LOD2","primitives":[{"attributes":{"NORMAL":15,"POSITION":14,"TANGENT":16,"TEXCOORD_0":17,"TEXCOORD_1":18},"indices":13,"material":0,"mode":4}]},{"name":"SM_Scroll_02_LOD3","primitives":[{"attributes":{"NORMAL":21,"POSITION":20,"TANGENT":22,"TEXCOORD_0":23,"TEXCOORD_1":24},"indices":19,"material":0,"mode":4}]},{"name":"SM_Scroll_02_ConvexHulls","primitives":[{"attributes":{"NORMAL":27,"POSITION":26,"TEXCOORD_0":28,"TEXCOORD_1":29},"indices":25,"material":1,"mode":4}]}],"nodes":[{"children":[1,2,3,4,5],"name":"SM_Scroll_80","originalUnits":0.00999999977648258,"pivot":[0,0,0],"rotation":[0,0,0,1],"scale":[1,1,1],"translation":[0,0,0]},{"mesh":0,"name":"SM_Scroll_02_LOD0","originalUnits":0.00999999977648258,"pivot":[0,0,0],"rotation":[0,0,0,1],"scale":[1,1,1],"translation":[0,0,0]},{"mesh":4,"name":"SM_Scroll_02_ConvexHulls","originalUnits":0.00999999977648258,"pivot":[0,0,0],"rotation":[0,0,0,1],"scale":[1,1,1],"translation":[0,0,0]},{"mesh":1,"name":"SM_Scroll_02_LOD1","originalUnits":0.00999999977648258,"pivot":[0,0,0],"rotation":[0,0,0,1],"scale":[1,1,1],"translation":[0,0,0]},{"mesh":2,"name":"SM_Scroll_02_LOD2","originalUnits":0.00999999977648258,"pivot":[0,0,0],"rotation":[0,0,0,1],"scale":[1,1,1],"translation":[0,0,0]},{"mesh":3,"name":"SM_Scroll_02_LOD3","originalUnits":0.00999999977648258,"pivot":[0,0,0],"rotation":[0,0,0,1],"scale":[1,1,1],"translation":[0,0,0]}],"samplers":[{}],"scene":0,"scenes":[{"name":"Root Scene","nodes":[0]}],"textures":[{"name":"MI_Paper_02","sampler":0,"source":0},{"name":"MI_Paper_02","sampler":0,"source":1}]}