{"accessors":[{"bufferView":0,"byteOffset":0,"componentType":5126,"count":1,"max":[0],"min":[0],"type":"SCALAR"},{"bufferView":1,"byteOffset":0,"componentType":5123,"count":228,"type":"SCALAR"},{"bufferView":2,"byteOffset":0,"componentType":5126,"count":56,"max":[0.000000313046399469386,0.213624104857445,0.496537923812866],"min":[-0.05618504062295,-0.00000060969569,-0.49653792381287],"type":"VEC3"},{"bufferView":3,"byteOffset":0,"componentType":5126,"count":56,"type":"VEC3"},{"bufferView":4,"byteOffset":0,"componentType":5126,"count":56,"type":"VEC4"},{"bufferView":5,"byteOffset":0,"componentType":5126,"count":56,"type":"VEC2"},{"bufferView":6,"byteOffset":0,"componentType":5126,"count":56,"type":"VEC2"},{"bufferView":7,"byteOffset":0,"componentType":5123,"count":171,"type":"SCALAR"},{"bufferView":8,"byteOffset":0,"componentType":5126,"count":41,"max":[0.00048458288074471,0.213624104857445,0.497522562742233],"min":[-0.05618504062295,-0.00000060969569,-0.49752256274223],"type":"VEC3"},{"bufferView":9,"byteOffset":0,"componentType":5126,"count":41,"type":"VEC3"},{"bufferView":10,"byteOffset":0,"componentType":5126,"count":41,"type":"VEC4"},{"bufferView":11,"byteOffset":0,"componentType":5126,"count":41,"type":"VEC2"},{"bufferView":12,"byteOffset":0,"componentType":5126,"count":41,"type":"VEC2"},{"bufferView":13,"byteOffset":0,"componentType":5123,"count":114,"type":"SCALAR"},{"bufferView":14,"byteOffset":0,"componentType":5126,"count":29,"max":[0.00072972755879163,0.213624104857445,0.495030283927917],"min":[-0.05618502944708,-0.00000060969569,-0.49503031373024],"type":"VEC3"},{"bufferView":15,"byteOffset":0,"componentType":5126,"count":29,"type":"VEC3"},{"bufferView":16,"byteOffset":0,"componentType":5126,"count":29,"type":"VEC4"},{"bufferView":17,"byteOffset":0,"componentType":5126,"count":29,"type":"VEC2"},{"bufferView":18,"byteOffset":0,"componentType":5126,"count":29,"type":"VEC2"},{"bufferView":19,"byteOffset":0,"componentType":5123,"count":30,"type":"SCALAR"},{"bufferView":20,"byteOffset":0,"componentType":5126,"count":9,"max":[-0.00028839809238,0.229728937149048,0.535354733467102],"min":[-0.05135473608971,0.000016945605239016,-0.53966981172562],"type":"VEC3"},{"bufferView":21,"byteOffset":0,"componentType":5126,"count":9,"type":"VEC3"},{"bufferView":22,"byteOffset":0,"componentType":5126,"count":9,"type":"VEC4"},{"bufferView":23,"byteOffset":0,"componentType":5126,"count":9,"type":"VEC2"},{"bufferView":24,"byteOffset":0,"componentType":5126,"count":9,"type":"VEC2"},{"bufferView":25,"byteOffset":0,"componentType":5123,"count":84,"type":"SCALAR"},{"bufferView":26,"byteOffset":0,"componentType":5126,"count":16,"max":[0.00112516572698951,0.214687496423721,0.498500287532806],"min":[-0.05718502774835,-0.00112531299237,-0.49850022792816],"type":"VEC3"},{"bufferView":27,"byteOffset":0,"componentType":5126,"count":16,"type":"VEC3"},{"bufferView":28,"byteOffset":0,"componentType":5126,"count":16,"type":"VEC2"},{"bufferView":29,"byteOffset":0,"componentType":5126,"count":16,"type":"VEC2"}],"animations":[{"channels":[],"name":"Unreal Take","samplers":[]}],"asset":{"generator":"FBX2glTF v0.13.0","version":"2.0"},"bufferViews":[{"buffer":0,"byteLength":4,"byteOffset":0},{"buffer":0,"byteLength":456,"byteOffset":4,"target":34963},{"buffer":0,"byteLength":672,"byteOffset":460,"target":34962},{"buffer":0,"byteLength":672,"byteOffset":1132,"target":34962},{"buffer":0,"byteLength":896,"byteOffset":1804,"target":34962},{"buffer":0,"byteLength":448,"byteOffset":2700,"target":34962},{"buffer":0,"byteLength":448,"byteOffset":3148,"target":34962},{"buffer":0,"byteLength":342,"byteOffset":3596,"target":34963},{"buffer":0,"byteLength":492,"byteOffset":3940,"target":34962},{"buffer":0,"byteLength":492,"byteOffset":4432,"target":34962},{"buffer":0,"byteLength":656,"byteOffset":4924,"target":34962},{"buffer":0,"byteLength":328,"byteOffset":5580,"target":34962},{"buffer":0,"byteLength":328,"byteOffset":5908,"target":34962},{"buffer":0,"byteLength":228,"byteOffset":6236,"target":34963},{"buffer":0,"byteLength":348,"byteOffset":6464,"target":34962},{"buffer":0,"byteLength":348,"byteOffset":6812,"target":34962},{"buffer":0,"byteLength":464,"byteOffset":7160,"target":34962},{"buffer":0,"byteLength":232,"byteOffset":7624,"target":34962},{"buffer":0,"byteLength":232,"byteOffset":7856,"target":34962},{"buffer":0,"byteLength":60,"byteOffset":8088,"target":34963},{"buffer":0,"byteLength":108,"byteOffset":8148,"target":34962},{"buffer":0,"byteLength":108,"byteOffset":8256,"target":34962},{"buffer":0,"byteLength":144,"byteOffset":8364,"target":34962},{"buffer":0,"byteLength":72,"byteOffset":8508,"target":34962},{"buffer":0,"byteLength":72,"byteOffset":8580,"target":34962},{"buffer":0,"byteLength":168,"byteOffset":8652,"target":34963},{"buffer":0,"byteLength":192,"byteOffset":8820,"target":34962},{"buffer":0,"byteLength":192,"byteOffset":9012,"target":34962},{"buffer":0,"byteLength":128,"byteOffset":9204,"target":34962},{"buffer":0,"byteLength":128,"byteOffset":9332,"target":34962}],"buffers":[{"byteLength":9460,"uri":"SM_Skirting_Front.bin"}],"images":[{"name":"T_Structures_N","uri":"T_Structures_N.png"},{"name":"T_Structures_B","uri":"T_Structures_B.png"}],"materials":[{"alphaMode":"OPAQUE","doubleSided":false,"extras":{"fromFBX":{"isTruePBR":false,"shadingModel":"Phong"}},"name":"MI_Skirting","normalTexture":{"index":0,"texCoord":0},"pbrMetallicRoughness":{"baseColorFactor":[1,1,1,1],"baseColorTexture":{"index":1,"texCoord":0},"metallicFactor":0.400000005960464,"roughnessFactor":0.301511347293854}},{"alphaMode":"OPAQUE","doubleSided":false,"extras":{"fromFBX":{"isTruePBR":false,"shadingModel":"Lambert"}},"name":"DefaultMaterial","pbrMetallicRoughness":{"baseColorFactor":[0.5,0.5,0.5,1],"metallicFactor":0.200000002980232,"roughnessFactor":0.800000011920929}}],"meshes":[{"name":"SM_Skirting_Front_LOD0","primitives":[{"attributes":{"NORMAL":3,"POSITION":2,"TANGENT":4,"TEXCOORD_0":5,"TEXCOORD_1":6},"indices":1,"material":0,"mode":4}]},{"name":"SM_Skirting_Front_LOD1","primitives":[{"attributes":{"NORMAL":9,"POSITION":8,"TANGENT":10,"TEXCOORD_0":11,"TEXCOORD_1":12},"indices":7,"material":0,"mode":4}]},{"name":"SM_Skirting_Front_LOD2","primitives":[{"attributes":{"NORMAL":15,"POSITION":14,"TANGENT":16,"TEXCOORD_0":17,"TEXCOORD_1":18},"indices":13,"material":0,"mode":4}]},{"name":"SM_Skirting_Front_LOD3","primitives":[{"attributes":{"NORMAL":21,"POSITION":20,"TANGENT":22,"TEXCOORD_0":23,"TEXCOORD_1":24},"indices":19,"material":0,"mode":4}]},{"name":"SM_Skirting_Front_ConvexHulls","primitives":[{"attributes":{"NORMAL":27,"POSITION":26,"TEXCOORD_0":28,"TEXCOORD_1":29},"indices":25,"material":1,"mode":4}]}],"nodes":[{"children":[1,2,3,4,5],"name":"SM_Skirting_Front_87","originalUnits":0.00999999977648258,"pivot":[0,0,0],"rotation":[0,0,0,1],"scale":[1,1,1],"translation":[0,0,0]},{"mesh":0,"name":"SM_Skirting_Front_LOD0","originalUnits":0.00999999977648258,"pivot":[0,0,0],"rotation":[0,0,0,1],"scale":[1,1,1],"translation":[0,0,0]},{"mesh":4,"name":"SM_Skirting_Front_ConvexHulls","originalUnits":0.00999999977648258,"pivot":[0,0,0],"rotation":[0,0,0,1],"scale":[1,1,1],"translation":[0,0,0]},{"mesh":1,"name":"SM_Skirting_Front_LOD1","originalUnits":0.00999999977648258,"pivot":[0,0,0],"rotation":[0,0,0,1],"scale":[1,1,1],"translation":[0,0,0]},{"mesh":2,"name":"SM_Skirting_Front_LOD2","originalUnits":0.00999999977648258,"pivot":[0,0,0],"rotation":[0,0,0,1],"scale":[1,1,1],"translation":[0,0,0]},{"mesh":3,"name":"SM_Skirting_Front_LOD3","originalUnits":0.00999999977648258,"pivot":[0,0,0],"rotation":[0,0,0,1],"scale":[1,1,1],"translation":[0,0,0]}],"samplers":[{}],"scene":0,"scenes":[{"name":"Root Scene","nodes":[0]}],"textures":[{"name":"MI_Skirting","sampler":0,"source":0},{"name":"MI_Skirting","sampler":0,"source":1}]}