{"accessors":[{"bufferView":0,"byteOffset":0,"componentType":5126,"count":1,"max":[0],"min":[0],"type":"SCALAR"},{"bufferView":1,"byteOffset":0,"componentType":5123,"count":2364,"type":"SCALAR"},{"bufferView":2,"byteOffset":0,"componentType":5126,"count":612,"max":[0.0514317266643047,0.042863767594099,0.250794738531113],"min":[-0.02304688468575,-0.60543090105057,-0.02018316276371],"type":"VEC3"},{"bufferView":3,"byteOffset":0,"componentType":5126,"count":612,"type":"VEC3"},{"bufferView":4,"byteOffset":0,"componentType":5126,"count":612,"type":"VEC4"},{"bufferView":5,"byteOffset":0,"componentType":5126,"count":612,"type":"VEC2"},{"bufferView":6,"byteOffset":0,"componentType":5126,"count":612,"type":"VEC2"},{"bufferView":7,"byteOffset":0,"componentType":5123,"count":1770,"type":"SCALAR"},{"bufferView":8,"byteOffset":0,"componentType":5126,"count":462,"max":[0.0514317266643047,0.0433425232768059,0.250915169715881],"min":[-0.02304688468575,-0.60649788379669,-0.02018316276371],"type":"VEC3"},{"bufferView":9,"byteOffset":0,"componentType":5126,"count":462,"type":"VEC3"},{"bufferView":10,"byteOffset":0,"componentType":5126,"count":462,"type":"VEC4"},{"bufferView":11,"byteOffset":0,"componentType":5126,"count":462,"type":"VEC2"},{"bufferView":12,"byteOffset":0,"componentType":5126,"count":462,"type":"VEC2"},{"bufferView":13,"byteOffset":0,"componentType":5123,"count":1182,"type":"SCALAR"},{"bufferView":14,"byteOffset":0,"componentType":5126,"count":343,"max":[0.0514317266643047,0.0437618717551231,0.250915169715881],"min":[-0.02304688468575,-0.60699725151062,-0.02040480822325],"type":"VEC3"},{"bufferView":15,"byteOffset":0,"componentType":5126,"count":343,"type":"VEC3"},{"bufferView":16,"byteOffset":0,"componentType":5126,"count":343,"type":"VEC4"},{"bufferView":17,"byteOffset":0,"componentType":5126,"count":343,"type":"VEC2"},{"bufferView":18,"byteOffset":0,"componentType":5126,"count":343,"type":"VEC2"},{"bufferView":19,"byteOffset":0,"componentType":5123,"count":294,"type":"SCALAR"},{"bufferView":20,"byteOffset":0,"componentType":5126,"count":128,"max":[0.0603908561170101,0.0483854040503502,0.25293692946434],"min":[-0.03574597090483,-0.59883999824524,-0.02248256467283],"type":"VEC3"},{"bufferView":21,"byteOffset":0,"componentType":5126,"count":128,"type":"VEC3"},{"bufferView":22,"byteOffset":0,"componentType":5126,"count":128,"type":"VEC4"},{"bufferView":23,"byteOffset":0,"componentType":5126,"count":128,"type":"VEC2"},{"bufferView":24,"byteOffset":0,"componentType":5126,"count":128,"type":"VEC2"},{"bufferView":25,"byteOffset":0,"componentType":5123,"count":336,"type":"SCALAR"},{"bufferView":26,"byteOffset":0,"componentType":5126,"count":64,"max":[0.0532532520592213,0.0423757173120975,0.254882663488388],"min":[-0.02419206500053,-0.60478961467743,-0.02399874478579],"type":"VEC3"},{"bufferView":27,"byteOffset":0,"componentType":5126,"count":64,"type":"VEC3"},{"bufferView":28,"byteOffset":0,"componentType":5126,"count":64,"type":"VEC2"},{"bufferView":29,"byteOffset":0,"componentType":5126,"count":64,"type":"VEC2"}],"animations":[{"channels":[],"name":"Unreal Take","samplers":[]}],"asset":{"generator":"FBX2glTF v0.13.0","version":"2.0"},"bufferViews":[{"buffer":0,"byteLength":4,"byteOffset":0},{"buffer":0,"byteLength":4728,"byteOffset":4,"target":34963},{"buffer":0,"byteLength":7344,"byteOffset":4732,"target":34962},{"buffer":0,"byteLength":7344,"byteOffset":12076,"target":34962},{"buffer":0,"byteLength":9792,"byteOffset":19420,"target":34962},{"buffer":0,"byteLength":4896,"byteOffset":29212,"target":34962},{"buffer":0,"byteLength":4896,"byteOffset":34108,"target":34962},{"buffer":0,"byteLength":3540,"byteOffset":39004,"target":34963},{"buffer":0,"byteLength":5544,"byteOffset":42544,"target":34962},{"buffer":0,"byteLength":5544,"byteOffset":48088,"target":34962},{"buffer":0,"byteLength":7392,"byteOffset":53632,"target":34962},{"buffer":0,"byteLength":3696,"byteOffset":61024,"target":34962},{"buffer":0,"byteLength":3696,"byteOffset":64720,"target":34962},{"buffer":0,"byteLength":2364,"byteOffset":68416,"target":34963},{"buffer":0,"byteLength":4116,"byteOffset":70780,"target":34962},{"buffer":0,"byteLength":4116,"byteOffset":74896,"target":34962},{"buffer":0,"byteLength":5488,"byteOffset":79012,"target":34962},{"buffer":0,"byteLength":2744,"byteOffset":84500,"target":34962},{"buffer":0,"byteLength":2744,"byteOffset":87244,"target":34962},{"buffer":0,"byteLength":588,"byteOffset":89988,"target":34963},{"buffer":0,"byteLength":1536,"byteOffset":90576,"target":34962},{"buffer":0,"byteLength":1536,"byteOffset":92112,"target":34962},{"buffer":0,"byteLength":2048,"byteOffset":93648,"target":34962},{"buffer":0,"byteLength":1024,"byteOffset":95696,"target":34962},{"buffer":0,"byteLength":1024,"byteOffset":96720,"target":34962},{"buffer":0,"byteLength":672,"byteOffset":97744,"target":34963},{"buffer":0,"byteLength":768,"byteOffset":98416,"target":34962},{"buffer":0,"byteLength":768,"byteOffset":99184,"target":34962},{"buffer":0,"byteLength":512,"byteOffset":99952,"target":34962},{"buffer":0,"byteLength":512,"byteOffset":100464,"target":34962}],"buffers":[{"byteLength":100976,"uri":"SM_Small_Brush.bin"}],"images":[{"name":"T_Woodprops_02_N","uri":"T_Woodprops_02_N.png"},{"name":"T_Woodprops_02_B","uri":"T_Woodprops_02_B.png"}],"materials":[{"alphaMode":"OPAQUE","doubleSided":false,"extras":{"fromFBX":{"isTruePBR":false,"shadingModel":"Phong"}},"name":"MI_Brush_02","normalTexture":{"index":0,"texCoord":0},"pbrMetallicRoughness":{"baseColorFactor":[1,1,1,1],"baseColorTexture":{"index":1,"texCoord":0},"metallicFactor":0.400000005960464,"roughnessFactor":0.301511347293854}},{"alphaMode":"OPAQUE","doubleSided":false,"extras":{"fromFBX":{"isTruePBR":false,"shadingModel":"Lambert"}},"name":"DefaultMaterial","pbrMetallicRoughness":{"baseColorFactor":[0.5,0.5,0.5,1],"metallicFactor":0.200000002980232,"roughnessFactor":0.800000011920929}}],"meshes":[{"name":"SM_Small_Brush_LOD0","primitives":[{"attributes":{"NORMAL":3,"POSITION":2,"TANGENT":4,"TEXCOORD_0":5,"TEXCOORD_1":6},"indices":1,"material":0,"mode":4}]},{"name":"SM_Small_Brush_LOD1","primitives":[{"attributes":{"NORMAL":9,"POSITION":8,"TANGENT":10,"TEXCOORD_0":11,"TEXCOORD_1":12},"indices":7,"material":0,"mode":4}]},{"name":"SM_Small_Brush_LOD2","primitives":[{"attributes":{"NORMAL":15,"POSITION":14,"TANGENT":16,"TEXCOORD_0":17,"TEXCOORD_1":18},"indices":13,"material":0,"mode":4}]},{"name":"SM_Small_Brush_LOD3","primitives":[{"attributes":{"NORMAL":21,"POSITION":20,"TANGENT":22,"TEXCOORD_0":23,"TEXCOORD_1":24},"indices":19,"material":0,"mode":4}]},{"name":"SM_Small_Brush_ConvexHulls","primitives":[{"attributes":{"NORMAL":27,"POSITION":26,"TEXCOORD_0":28,"TEXCOORD_1":29},"indices":25,"material":1,"mode":4}]}],"nodes":[{"children":[1,2,3,4,5],"name":"SM_Small_Brush_88","originalUnits":0.00999999977648258,"pivot":[0,0,0],"rotation":[0,0,0,1],"scale":[1,1,1],"translation":[0,0,0]},{"mesh":0,"name":"SM_Small_Brush_LOD0","originalUnits":0.00999999977648258,"pivot":[0,0,0],"rotation":[0,0,0,1],"scale":[1,1,1],"translation":[0,0,0]},{"mesh":4,"name":"SM_Small_Brush_ConvexHulls","originalUnits":0.00999999977648258,"pivot":[0,0,0],"rotation":[0,0,0,1],"scale":[1,1,1],"translation":[0,0,0]},{"mesh":1,"name":"SM_Small_Brush_LOD1","originalUnits":0.00999999977648258,"pivot":[0,0,0],"rotation":[0,0,0,1],"scale":[1,1,1],"translation":[0,0,0]},{"mesh":2,"name":"SM_Small_Brush_LOD2","originalUnits":0.00999999977648258,"pivot":[0,0,0],"rotation":[0,0,0,1],"scale":[1,1,1],"translation":[0,0,0]},{"mesh":3,"name":"SM_Small_Brush_LOD3","originalUnits":0.00999999977648258,"pivot":[0,0,0],"rotation":[0,0,0,1],"scale":[1,1,1],"translation":[0,0,0]}],"samplers":[{}],"scene":0,"scenes":[{"name":"Root Scene","nodes":[0]}],"textures":[{"name":"MI_Brush_02","sampler":0,"source":0},{"name":"MI_Brush_02","sampler":0,"source":1}]}