{"accessors":[{"bufferView":0,"byteOffset":0,"componentType":5126,"count":1,"max":[0],"min":[0],"type":"SCALAR"},{"bufferView":1,"byteOffset":0,"componentType":5123,"count":3504,"type":"SCALAR"},{"bufferView":2,"byteOffset":0,"componentType":5126,"count":1687,"max":[0.0261376965790987,0.344549089670181,0.414017617702484],"min":[-0.02613770030439,-0.02043467760086,-0.41401761770248],"type":"VEC3"},{"bufferView":3,"byteOffset":0,"componentType":5126,"count":1687,"type":"VEC3"},{"bufferView":4,"byteOffset":0,"componentType":5126,"count":1687,"type":"VEC4"},{"bufferView":5,"byteOffset":0,"componentType":5126,"count":1687,"type":"VEC2"},{"bufferView":6,"byteOffset":0,"componentType":5126,"count":1687,"type":"VEC2"},{"bufferView":7,"byteOffset":0,"componentType":5123,"count":2628,"type":"SCALAR"},{"bufferView":8,"byteOffset":0,"componentType":5126,"count":1319,"max":[0.0261376965790987,0.344549089670181,0.414017617702484],"min":[-0.02613770030439,-0.02043467760086,-0.41401761770248],"type":"VEC3"},{"bufferView":9,"byteOffset":0,"componentType":5126,"count":1319,"type":"VEC3"},{"bufferView":10,"byteOffset":0,"componentType":5126,"count":1319,"type":"VEC4"},{"bufferView":11,"byteOffset":0,"componentType":5126,"count":1319,"type":"VEC2"},{"bufferView":12,"byteOffset":0,"componentType":5126,"count":1319,"type":"VEC2"},{"bufferView":13,"byteOffset":0,"componentType":5123,"count":1752,"type":"SCALAR"},{"bufferView":14,"byteOffset":0,"componentType":5126,"count":856,"max":[0.0275233127176762,0.344549089670181,0.420038759708405],"min":[-0.02629558183253,-0.02043467760086,-0.41401761770248],"type":"VEC3"},{"bufferView":15,"byteOffset":0,"componentType":5126,"count":856,"type":"VEC3"},{"bufferView":16,"byteOffset":0,"componentType":5126,"count":856,"type":"VEC4"},{"bufferView":17,"byteOffset":0,"componentType":5126,"count":856,"type":"VEC2"},{"bufferView":18,"byteOffset":0,"componentType":5126,"count":856,"type":"VEC2"},{"bufferView":19,"byteOffset":0,"componentType":5123,"count":438,"type":"SCALAR"},{"bufferView":20,"byteOffset":0,"componentType":5126,"count":165,"max":[0.0297472830861807,0.356886208057404,0.420038759708405],"min":[-0.03071930631995,-0.01507531758398,-0.41338273882866],"type":"VEC3"},{"bufferView":21,"byteOffset":0,"componentType":5126,"count":165,"type":"VEC3"},{"bufferView":22,"byteOffset":0,"componentType":5126,"count":165,"type":"VEC4"},{"bufferView":23,"byteOffset":0,"componentType":5126,"count":165,"type":"VEC2"},{"bufferView":24,"byteOffset":0,"componentType":5126,"count":165,"type":"VEC2"},{"bufferView":25,"byteOffset":0,"componentType":5123,"count":330,"type":"SCALAR"},{"bufferView":26,"byteOffset":0,"componentType":5126,"count":63,"max":[0.0285751093178988,0.344578891992569,0.410460382699966],"min":[-0.02688554488122,-0.01976885832846,-0.41682639718056],"type":"VEC3"},{"bufferView":27,"byteOffset":0,"componentType":5126,"count":63,"type":"VEC3"},{"bufferView":28,"byteOffset":0,"componentType":5126,"count":63,"type":"VEC2"},{"bufferView":29,"byteOffset":0,"componentType":5126,"count":63,"type":"VEC2"}],"animations":[{"channels":[],"name":"Unreal Take","samplers":[]}],"asset":{"generator":"FBX2glTF v0.13.0","version":"2.0"},"bufferViews":[{"buffer":0,"byteLength":4,"byteOffset":0},{"buffer":0,"byteLength":7008,"byteOffset":4,"target":34963},{"buffer":0,"byteLength":20244,"byteOffset":7012,"target":34962},{"buffer":0,"byteLength":20244,"byteOffset":27256,"target":34962},{"buffer":0,"byteLength":26992,"byteOffset":47500,"target":34962},{"buffer":0,"byteLength":13496,"byteOffset":74492,"target":34962},{"buffer":0,"byteLength":13496,"byteOffset":87988,"target":34962},{"buffer":0,"byteLength":5256,"byteOffset":101484,"target":34963},{"buffer":0,"byteLength":15828,"byteOffset":106740,"target":34962},{"buffer":0,"byteLength":15828,"byteOffset":122568,"target":34962},{"buffer":0,"byteLength":21104,"byteOffset":138396,"target":34962},{"buffer":0,"byteLength":10552,"byteOffset":159500,"target":34962},{"buffer":0,"byteLength":10552,"byteOffset":170052,"target":34962},{"buffer":0,"byteLength":3504,"byteOffset":180604,"target":34963},{"buffer":0,"byteLength":10272,"byteOffset":184108,"target":34962},{"buffer":0,"byteLength":10272,"byteOffset":194380,"target":34962},{"buffer":0,"byteLength":13696,"byteOffset":204652,"target":34962},{"buffer":0,"byteLength":6848,"byteOffset":218348,"target":34962},{"buffer":0,"byteLength":6848,"byteOffset":225196,"target":34962},{"buffer":0,"byteLength":876,"byteOffset":232044,"target":34963},{"buffer":0,"byteLength":1980,"byteOffset":232920,"target":34962},{"buffer":0,"byteLength":1980,"byteOffset":234900,"target":34962},{"buffer":0,"byteLength":2640,"byteOffset":236880,"target":34962},{"buffer":0,"byteLength":1320,"byteOffset":239520,"target":34962},{"buffer":0,"byteLength":1320,"byteOffset":240840,"target":34962},{"buffer":0,"byteLength":660,"byteOffset":242160,"target":34963},{"buffer":0,"byteLength":756,"byteOffset":242820,"target":34962},{"buffer":0,"byteLength":756,"byteOffset":243576,"target":34962},{"buffer":0,"byteLength":504,"byteOffset":244332,"target":34962},{"buffer":0,"byteLength":504,"byteOffset":244836,"target":34962}],"buffers":[{"byteLength":245340,"uri":"SM_Saw_02.bin"}],"images":[{"name":"T_Tools_N","uri":"T_Tools_N.png"},{"name":"T_Tools_B","uri":"T_Tools_B.png"}],"materials":[{"alphaMode":"OPAQUE","doubleSided":false,"extras":{"fromFBX":{"isTruePBR":false,"shadingModel":"Phong"}},"name":"MI_Tools_02","normalTexture":{"index":0,"texCoord":0},"pbrMetallicRoughness":{"baseColorFactor":[1,1,1,1],"baseColorTexture":{"index":1,"texCoord":0},"metallicFactor":0.400000005960464,"roughnessFactor":0.301511347293854}},{"alphaMode":"OPAQUE","doubleSided":false,"extras":{"fromFBX":{"isTruePBR":false,"shadingModel":"Lambert"}},"name":"DefaultMaterial","pbrMetallicRoughness":{"baseColorFactor":[0.5,0.5,0.5,1],"metallicFactor":0.200000002980232,"roughnessFactor":0.800000011920929}}],"meshes":[{"name":"SM_Saw_02_LOD0","primitives":[{"attributes":{"NORMAL":3,"POSITION":2,"TANGENT":4,"TEXCOORD_0":5,"TEXCOORD_1":6},"indices":1,"material":0,"mode":4}]},{"name":"SM_Saw_02_LOD1","primitives":[{"attributes":{"NORMAL":9,"POSITION":8,"TANGENT":10,"TEXCOORD_0":11,"TEXCOORD_1":12},"indices":7,"material":0,"mode":4}]},{"name":"SM_Saw_02_LOD2","primitives":[{"attributes":{"NORMAL":15,"POSITION":14,"TANGENT":16,"TEXCOORD_0":17,"TEXCOORD_1":18},"indices":13,"material":0,"mode":4}]},{"name":"SM_Saw_02_LOD3","primitives":[{"attributes":{"NORMAL":21,"POSITION":20,"TANGENT":22,"TEXCOORD_0":23,"TEXCOORD_1":24},"indices":19,"material":0,"mode":4}]},{"name":"SM_Saw_02_ConvexHulls","primitives":[{"attributes":{"NORMAL":27,"POSITION":26,"TEXCOORD_0":28,"TEXCOORD_1":29},"indices":25,"material":1,"mode":4}]}],"nodes":[{"children":[1,2,3,4,5],"name":"SM_Saw_76","originalUnits":0.00999999977648258,"pivot":[0,0,0],"rotation":[0,0,0,1],"scale":[1,1,1],"translation":[0,0,0]},{"mesh":0,"name":"SM_Saw_02_LOD0","originalUnits":0.00999999977648258,"pivot":[0,0,0],"rotation":[0,0,0,1],"scale":[1,1,1],"translation":[0,0,0]},{"mesh":4,"name":"SM_Saw_02_ConvexHulls","originalUnits":0.00999999977648258,"pivot":[0,0,0],"rotation":[0,0,0,1],"scale":[1,1,1],"translation":[0,0,0]},{"mesh":1,"name":"SM_Saw_02_LOD1","originalUnits":0.00999999977648258,"pivot":[0,0,0],"rotation":[0,0,0,1],"scale":[1,1,1],"translation":[0,0,0]},{"mesh":2,"name":"SM_Saw_02_LOD2","originalUnits":0.00999999977648258,"pivot":[0,0,0],"rotation":[0,0,0,1],"scale":[1,1,1],"translation":[0,0,0]},{"mesh":3,"name":"SM_Saw_02_LOD3","originalUnits":0.00999999977648258,"pivot":[0,0,0],"rotation":[0,0,0,1],"scale":[1,1,1],"translation":[0,0,0]}],"samplers":[{}],"scene":0,"scenes":[{"name":"Root Scene","nodes":[0]}],"textures":[{"name":"MI_Tools_02","sampler":0,"source":0},{"name":"MI_Tools_02","sampler":0,"source":1}]}