{"accessors":[{"bufferView":0,"byteOffset":0,"componentType":5126,"count":1,"max":[0],"min":[0],"type":"SCALAR"},{"bufferView":1,"byteOffset":0,"componentType":5123,"count":84,"type":"SCALAR"},{"bufferView":2,"byteOffset":0,"componentType":5126,"count":22,"max":[0.0148229710757732,0.00055276649072766,0.347361832857132],"min":[-0.0036096861586,-0.35222256183624,-0.33908206224442],"type":"VEC3"},{"bufferView":3,"byteOffset":0,"componentType":5126,"count":22,"type":"VEC3"},{"bufferView":4,"byteOffset":0,"componentType":5126,"count":22,"type":"VEC4"},{"bufferView":5,"byteOffset":0,"componentType":5126,"count":22,"type":"VEC2"},{"bufferView":6,"byteOffset":0,"componentType":5126,"count":22,"type":"VEC2"},{"bufferView":7,"byteOffset":0,"componentType":5123,"count":63,"type":"SCALAR"},{"bufferView":8,"byteOffset":0,"componentType":5126,"count":18,"max":[0.0148229710757732,0.00055276649072766,0.347361832857132],"min":[-0.0036096861586,-0.35222256183624,-0.33908206224442],"type":"VEC3"},{"bufferView":9,"byteOffset":0,"componentType":5126,"count":18,"type":"VEC3"},{"bufferView":10,"byteOffset":0,"componentType":5126,"count":18,"type":"VEC4"},{"bufferView":11,"byteOffset":0,"componentType":5126,"count":18,"type":"VEC2"},{"bufferView":12,"byteOffset":0,"componentType":5126,"count":18,"type":"VEC2"},{"bufferView":13,"byteOffset":0,"componentType":5123,"count":39,"type":"SCALAR"},{"bufferView":14,"byteOffset":0,"componentType":5126,"count":14,"max":[0.0148229710757732,0.00055112340487539,0.347361832857132],"min":[-0.00404328014702,-0.35222256183624,-0.33908206224442],"type":"VEC3"},{"bufferView":15,"byteOffset":0,"componentType":5126,"count":14,"type":"VEC3"},{"bufferView":16,"byteOffset":0,"componentType":5126,"count":14,"type":"VEC4"},{"bufferView":17,"byteOffset":0,"componentType":5126,"count":14,"type":"VEC2"},{"bufferView":18,"byteOffset":0,"componentType":5126,"count":14,"type":"VEC2"},{"bufferView":19,"byteOffset":0,"componentType":5123,"count":12,"type":"SCALAR"},{"bufferView":20,"byteOffset":0,"componentType":5126,"count":6,"max":[0.0115025388076901,0.00026980580878444,0.340241074562073],"min":[-0.0006075517158,-0.35222256183624,-0.31742525100708],"type":"VEC3"},{"bufferView":21,"byteOffset":0,"componentType":5126,"count":6,"type":"VEC3"},{"bufferView":22,"byteOffset":0,"componentType":5126,"count":6,"type":"VEC4"},{"bufferView":23,"byteOffset":0,"componentType":5126,"count":6,"type":"VEC2"},{"bufferView":24,"byteOffset":0,"componentType":5126,"count":6,"type":"VEC2"}],"animations":[{"channels":[],"name":"Unreal Take","samplers":[]}],"asset":{"generator":"FBX2glTF v0.13.0","version":"2.0"},"bufferViews":[{"buffer":0,"byteLength":4,"byteOffset":0},{"buffer":0,"byteLength":168,"byteOffset":4,"target":34963},{"buffer":0,"byteLength":264,"byteOffset":172,"target":34962},{"buffer":0,"byteLength":264,"byteOffset":436,"target":34962},{"buffer":0,"byteLength":352,"byteOffset":700,"target":34962},{"buffer":0,"byteLength":176,"byteOffset":1052,"target":34962},{"buffer":0,"byteLength":176,"byteOffset":1228,"target":34962},{"buffer":0,"byteLength":126,"byteOffset":1404,"target":34963},{"buffer":0,"byteLength":216,"byteOffset":1532,"target":34962},{"buffer":0,"byteLength":216,"byteOffset":1748,"target":34962},{"buffer":0,"byteLength":288,"byteOffset":1964,"target":34962},{"buffer":0,"byteLength":144,"byteOffset":2252,"target":34962},{"buffer":0,"byteLength":144,"byteOffset":2396,"target":34962},{"buffer":0,"byteLength":78,"byteOffset":2540,"target":34963},{"buffer":0,"byteLength":168,"byteOffset":2620,"target":34962},{"buffer":0,"byteLength":168,"byteOffset":2788,"target":34962},{"buffer":0,"byteLength":224,"byteOffset":2956,"target":34962},{"buffer":0,"byteLength":112,"byteOffset":3180,"target":34962},{"buffer":0,"byteLength":112,"byteOffset":3292,"target":34962},{"buffer":0,"byteLength":24,"byteOffset":3404,"target":34963},{"buffer":0,"byteLength":72,"byteOffset":3428,"target":34962},{"buffer":0,"byteLength":72,"byteOffset":3500,"target":34962},{"buffer":0,"byteLength":96,"byteOffset":3572,"target":34962},{"buffer":0,"byteLength":48,"byteOffset":3668,"target":34962},{"buffer":0,"byteLength":48,"byteOffset":3716,"target":34962}],"buffers":[{"byteLength":3764,"uri":"SM_Spiderweb_03.bin"}],"images":[{"name":"T_Spiderwebs_01_M","uri":"T_Spiderwebs_01_M.png"}],"materials":[{"alphaMode":"OPAQUE","doubleSided":false,"extras":{"fromFBX":{"isTruePBR":false,"shadingModel":"Lambert"}},"name":"MI_Spiderweb01","pbrMetallicRoughness":{"baseColorFactor":[1,1,1,1],"baseColorTexture":{"index":0,"texCoord":0},"metallicFactor":0.200000002980232,"roughnessFactor":0.800000011920929}}],"meshes":[{"name":"SM_Spiderweb_03_LOD0","primitives":[{"attributes":{"NORMAL":3,"POSITION":2,"TANGENT":4,"TEXCOORD_0":5,"TEXCOORD_1":6},"indices":1,"material":0,"mode":4}]},{"name":"SM_Spiderweb_03_LOD1","primitives":[{"attributes":{"NORMAL":9,"POSITION":8,"TANGENT":10,"TEXCOORD_0":11,"TEXCOORD_1":12},"indices":7,"material":0,"mode":4}]},{"name":"SM_Spiderweb_03_LOD2","primitives":[{"attributes":{"NORMAL":15,"POSITION":14,"TANGENT":16,"TEXCOORD_0":17,"TEXCOORD_1":18},"indices":13,"material":0,"mode":4}]},{"name":"SM_Spiderweb_03_LOD3","primitives":[{"attributes":{"NORMAL":21,"POSITION":20,"TANGENT":22,"TEXCOORD_0":23,"TEXCOORD_1":24},"indices":19,"material":0,"mode":4}]}],"nodes":[{"children":[1,2,3,4],"name":"SM_Spiderweb_03_92","originalUnits":0.00999999977648258,"pivot":[0,0,0],"rotation":[0,0,0,1],"scale":[1,1,1],"translation":[0,0,0]},{"mesh":0,"name":"SM_Spiderweb_03_LOD0","originalUnits":0.00999999977648258,"pivot":[0,0,0],"rotation":[0,0,0,1],"scale":[1,1,1],"translation":[0,0,0]},{"mesh":1,"name":"SM_Spiderweb_03_LOD1","originalUnits":0.00999999977648258,"pivot":[0,0,0],"rotation":[0,0,0,1],"scale":[1,1,1],"translation":[0,0,0]},{"mesh":2,"name":"SM_Spiderweb_03_LOD2","originalUnits":0.00999999977648258,"pivot":[0,0,0],"rotation":[0,0,0,1],"scale":[1,1,1],"translation":[0,0,0]},{"mesh":3,"name":"SM_Spiderweb_03_LOD3","originalUnits":0.00999999977648258,"pivot":[0,0,0],"rotation":[0,0,0,1],"scale":[1,1,1],"translation":[0,0,0]}],"samplers":[{}],"scene":0,"scenes":[{"name":"Root Scene","nodes":[0]}],"textures":[{"name":"MI_Spiderweb01","sampler":0,"source":0}]}