{"accessors":[{"bufferView":0,"byteOffset":0,"componentType":5126,"count":1,"max":[0],"min":[0],"type":"SCALAR"},{"bufferView":1,"byteOffset":0,"componentType":5123,"count":78,"type":"SCALAR"},{"bufferView":2,"byteOffset":0,"componentType":5126,"count":28,"max":[0.00000000628187857287799,0.213624104857445,0.010292824357748],"min":[-0.51818591356277,-0.00000061035155,-0.0458922535181],"type":"VEC3"},{"bufferView":3,"byteOffset":0,"componentType":5126,"count":28,"type":"VEC3"},{"bufferView":4,"byteOffset":0,"componentType":5126,"count":28,"type":"VEC4"},{"bufferView":5,"byteOffset":0,"componentType":5126,"count":28,"type":"VEC2"},{"bufferView":6,"byteOffset":0,"componentType":5126,"count":28,"type":"VEC2"},{"bufferView":7,"byteOffset":0,"componentType":5123,"count":60,"type":"SCALAR"},{"bufferView":8,"byteOffset":0,"componentType":5126,"count":22,"max":[0.00000141915234053158,0.213624104857445,0.010292824357748],"min":[-0.51818627119064,-0.00000061035155,-0.0458922535181],"type":"VEC3"},{"bufferView":9,"byteOffset":0,"componentType":5126,"count":22,"type":"VEC3"},{"bufferView":10,"byteOffset":0,"componentType":5126,"count":22,"type":"VEC4"},{"bufferView":11,"byteOffset":0,"componentType":5126,"count":22,"type":"VEC2"},{"bufferView":12,"byteOffset":0,"componentType":5126,"count":22,"type":"VEC2"},{"bufferView":13,"byteOffset":0,"componentType":5123,"count":39,"type":"SCALAR"},{"bufferView":14,"byteOffset":0,"componentType":5126,"count":15,"max":[0.00000141915234053158,0.213624104857445,0.00851760618388653],"min":[-0.51819145679474,-0.00000061035155,-0.0458922535181],"type":"VEC3"},{"bufferView":15,"byteOffset":0,"componentType":5126,"count":15,"type":"VEC3"},{"bufferView":16,"byteOffset":0,"componentType":5126,"count":15,"type":"VEC4"},{"bufferView":17,"byteOffset":0,"componentType":5126,"count":15,"type":"VEC2"},{"bufferView":18,"byteOffset":0,"componentType":5126,"count":15,"type":"VEC2"},{"bufferView":19,"byteOffset":0,"componentType":5123,"count":12,"type":"SCALAR"},{"bufferView":20,"byteOffset":0,"componentType":5126,"count":6,"max":[0.0000206338681891793,0.22183883190155,0.00820323172956705],"min":[-0.51868760585785,-0.00000061035155,-0.04853972420096],"type":"VEC3"},{"bufferView":21,"byteOffset":0,"componentType":5126,"count":6,"type":"VEC3"},{"bufferView":22,"byteOffset":0,"componentType":5126,"count":6,"type":"VEC4"},{"bufferView":23,"byteOffset":0,"componentType":5126,"count":6,"type":"VEC2"},{"bufferView":24,"byteOffset":0,"componentType":5126,"count":6,"type":"VEC2"},{"bufferView":25,"byteOffset":0,"componentType":5123,"count":60,"type":"SCALAR"},{"bufferView":26,"byteOffset":0,"componentType":5126,"count":12,"max":[0.00112501543480903,0.214999988675117,0.0112928217276931],"min":[-0.5193749666214,-0.00124999997206,-0.0468922406435],"type":"VEC3"},{"bufferView":27,"byteOffset":0,"componentType":5126,"count":12,"type":"VEC3"},{"bufferView":28,"byteOffset":0,"componentType":5126,"count":12,"type":"VEC2"},{"bufferView":29,"byteOffset":0,"componentType":5126,"count":12,"type":"VEC2"}],"animations":[{"channels":[],"name":"Unreal Take","samplers":[]}],"asset":{"generator":"FBX2glTF v0.13.0","version":"2.0"},"bufferViews":[{"buffer":0,"byteLength":4,"byteOffset":0},{"buffer":0,"byteLength":156,"byteOffset":4,"target":34963},{"buffer":0,"byteLength":336,"byteOffset":160,"target":34962},{"buffer":0,"byteLength":336,"byteOffset":496,"target":34962},{"buffer":0,"byteLength":448,"byteOffset":832,"target":34962},{"buffer":0,"byteLength":224,"byteOffset":1280,"target":34962},{"buffer":0,"byteLength":224,"byteOffset":1504,"target":34962},{"buffer":0,"byteLength":120,"byteOffset":1728,"target":34963},{"buffer":0,"byteLength":264,"byteOffset":1848,"target":34962},{"buffer":0,"byteLength":264,"byteOffset":2112,"target":34962},{"buffer":0,"byteLength":352,"byteOffset":2376,"target":34962},{"buffer":0,"byteLength":176,"byteOffset":2728,"target":34962},{"buffer":0,"byteLength":176,"byteOffset":2904,"target":34962},{"buffer":0,"byteLength":78,"byteOffset":3080,"target":34963},{"buffer":0,"byteLength":180,"byteOffset":3160,"target":34962},{"buffer":0,"byteLength":180,"byteOffset":3340,"target":34962},{"buffer":0,"byteLength":240,"byteOffset":3520,"target":34962},{"buffer":0,"byteLength":120,"byteOffset":3760,"target":34962},{"buffer":0,"byteLength":120,"byteOffset":3880,"target":34962},{"buffer":0,"byteLength":24,"byteOffset":4000,"target":34963},{"buffer":0,"byteLength":72,"byteOffset":4024,"target":34962},{"buffer":0,"byteLength":72,"byteOffset":4096,"target":34962},{"buffer":0,"byteLength":96,"byteOffset":4168,"target":34962},{"buffer":0,"byteLength":48,"byteOffset":4264,"target":34962},{"buffer":0,"byteLength":48,"byteOffset":4312,"target":34962},{"buffer":0,"byteLength":120,"byteOffset":4360,"target":34963},{"buffer":0,"byteLength":144,"byteOffset":4480,"target":34962},{"buffer":0,"byteLength":144,"byteOffset":4624,"target":34962},{"buffer":0,"byteLength":96,"byteOffset":4768,"target":34962},{"buffer":0,"byteLength":96,"byteOffset":4864,"target":34962}],"buffers":[{"byteLength":4960,"uri":"SM_Skirting_Corner.bin"}],"images":[{"name":"T_Structures_N","uri":"T_Structures_N.png"},{"name":"T_Structures_B","uri":"T_Structures_B.png"}],"materials":[{"alphaMode":"OPAQUE","doubleSided":false,"extras":{"fromFBX":{"isTruePBR":false,"shadingModel":"Phong"}},"name":"MI_Skirting","normalTexture":{"index":0,"texCoord":0},"pbrMetallicRoughness":{"baseColorFactor":[1,1,1,1],"baseColorTexture":{"index":1,"texCoord":0},"metallicFactor":0.400000005960464,"roughnessFactor":0.301511347293854}},{"alphaMode":"OPAQUE","doubleSided":false,"extras":{"fromFBX":{"isTruePBR":false,"shadingModel":"Lambert"}},"name":"DefaultMaterial","pbrMetallicRoughness":{"baseColorFactor":[0.5,0.5,0.5,1],"metallicFactor":0.200000002980232,"roughnessFactor":0.800000011920929}}],"meshes":[{"name":"SM_Skirting_Corner_LOD0","primitives":[{"attributes":{"NORMAL":3,"POSITION":2,"TANGENT":4,"TEXCOORD_0":5,"TEXCOORD_1":6},"indices":1,"material":0,"mode":4}]},{"name":"SM_Skirting_Corner_LOD1","primitives":[{"attributes":{"NORMAL":9,"POSITION":8,"TANGENT":10,"TEXCOORD_0":11,"TEXCOORD_1":12},"indices":7,"material":0,"mode":4}]},{"name":"SM_Skirting_Corner_LOD2","primitives":[{"attributes":{"NORMAL":15,"POSITION":14,"TANGENT":16,"TEXCOORD_0":17,"TEXCOORD_1":18},"indices":13,"material":0,"mode":4}]},{"name":"SM_Skirting_Corner_LOD3","primitives":[{"attributes":{"NORMAL":21,"POSITION":20,"TANGENT":22,"TEXCOORD_0":23,"TEXCOORD_1":24},"indices":19,"material":0,"mode":4}]},{"name":"SM_Skirting_Corner_ConvexHulls","primitives":[{"attributes":{"NORMAL":27,"POSITION":26,"TEXCOORD_0":28,"TEXCOORD_1":29},"indices":25,"material":1,"mode":4}]}],"nodes":[{"children":[1,2,3,4,5],"name":"SM_Skirting_Corner_86","originalUnits":0.00999999977648258,"pivot":[0,0,0],"rotation":[0,0,0,1],"scale":[1,1,1],"translation":[0,0,0]},{"mesh":0,"name":"SM_Skirting_Corner_LOD0","originalUnits":0.00999999977648258,"pivot":[0,0,0],"rotation":[0,0,0,1],"scale":[1,1,1],"translation":[0,0,0]},{"mesh":4,"name":"SM_Skirting_Corner_ConvexHulls","originalUnits":0.00999999977648258,"pivot":[0,0,0],"rotation":[0,0,0,1],"scale":[1,1,1],"translation":[0,0,0]},{"mesh":1,"name":"SM_Skirting_Corner_LOD1","originalUnits":0.00999999977648258,"pivot":[0,0,0],"rotation":[0,0,0,1],"scale":[1,1,1],"translation":[0,0,0]},{"mesh":2,"name":"SM_Skirting_Corner_LOD2","originalUnits":0.00999999977648258,"pivot":[0,0,0],"rotation":[0,0,0,1],"scale":[1,1,1],"translation":[0,0,0]},{"mesh":3,"name":"SM_Skirting_Corner_LOD3","originalUnits":0.00999999977648258,"pivot":[0,0,0],"rotation":[0,0,0,1],"scale":[1,1,1],"translation":[0,0,0]}],"samplers":[{}],"scene":0,"scenes":[{"name":"Root Scene","nodes":[0]}],"textures":[{"name":"MI_Skirting","sampler":0,"source":0},{"name":"MI_Skirting","sampler":0,"source":1}]}