{"accessors":[{"bufferView":0,"byteOffset":0,"componentType":5126,"count":1,"max":[0],"min":[0],"type":"SCALAR"},{"bufferView":1,"byteOffset":0,"componentType":5123,"count":510,"type":"SCALAR"},{"bufferView":2,"byteOffset":0,"componentType":5126,"count":185,"max":[0.0462246723473072,0.0549209155142307,0.428733348846436],"min":[-0.19929473102093,-0.00000000056246,-0.42873334884644],"type":"VEC3"},{"bufferView":3,"byteOffset":0,"componentType":5126,"count":185,"type":"VEC3"},{"bufferView":4,"byteOffset":0,"componentType":5126,"count":185,"type":"VEC4"},{"bufferView":5,"byteOffset":0,"componentType":5126,"count":185,"type":"VEC2"},{"bufferView":6,"byteOffset":0,"componentType":5126,"count":185,"type":"VEC2"},{"bufferView":7,"byteOffset":0,"componentType":5123,"count":384,"type":"SCALAR"},{"bufferView":8,"byteOffset":0,"componentType":5126,"count":148,"max":[0.0462310165166855,0.0549209155142307,0.428733348846436],"min":[-0.19929473102093,-0.00000000056246,-0.42873334884644],"type":"VEC3"},{"bufferView":9,"byteOffset":0,"componentType":5126,"count":148,"type":"VEC3"},{"bufferView":10,"byteOffset":0,"componentType":5126,"count":148,"type":"VEC4"},{"bufferView":11,"byteOffset":0,"componentType":5126,"count":148,"type":"VEC2"},{"bufferView":12,"byteOffset":0,"componentType":5126,"count":148,"type":"VEC2"},{"bufferView":13,"byteOffset":0,"componentType":5123,"count":252,"type":"SCALAR"},{"bufferView":14,"byteOffset":0,"componentType":5126,"count":104,"max":[0.0467790625989437,0.0548615455627441,0.428733348846436],"min":[-0.19929473102093,-0.00000000056246,-0.42873334884644],"type":"VEC3"},{"bufferView":15,"byteOffset":0,"componentType":5126,"count":104,"type":"VEC3"},{"bufferView":16,"byteOffset":0,"componentType":5126,"count":104,"type":"VEC4"},{"bufferView":17,"byteOffset":0,"componentType":5126,"count":104,"type":"VEC2"},{"bufferView":18,"byteOffset":0,"componentType":5126,"count":104,"type":"VEC2"},{"bufferView":19,"byteOffset":0,"componentType":5123,"count":66,"type":"SCALAR"},{"bufferView":20,"byteOffset":0,"componentType":5126,"count":43,"max":[0.0515597313642502,0.071155421435833,0.431217879056931],"min":[-0.19955499470234,-0.00033851186163,-0.45430183410644],"type":"VEC3"},{"bufferView":21,"byteOffset":0,"componentType":5126,"count":43,"type":"VEC3"},{"bufferView":22,"byteOffset":0,"componentType":5126,"count":43,"type":"VEC4"},{"bufferView":23,"byteOffset":0,"componentType":5126,"count":43,"type":"VEC2"},{"bufferView":24,"byteOffset":0,"componentType":5126,"count":43,"type":"VEC2"},{"bufferView":25,"byteOffset":0,"componentType":5123,"count":150,"type":"SCALAR"},{"bufferView":26,"byteOffset":0,"componentType":5126,"count":29,"max":[0.0484585799276829,0.0581534095108509,0.429336190223694],"min":[-0.20243021845818,-0.00288433418609,-0.4323034286499],"type":"VEC3"},{"bufferView":27,"byteOffset":0,"componentType":5126,"count":29,"type":"VEC3"},{"bufferView":28,"byteOffset":0,"componentType":5126,"count":29,"type":"VEC2"},{"bufferView":29,"byteOffset":0,"componentType":5126,"count":29,"type":"VEC2"}],"animations":[{"channels":[],"name":"Unreal Take","samplers":[]}],"asset":{"generator":"FBX2glTF v0.13.0","version":"2.0"},"bufferViews":[{"buffer":0,"byteLength":4,"byteOffset":0},{"buffer":0,"byteLength":1020,"byteOffset":4,"target":34963},{"buffer":0,"byteLength":2220,"byteOffset":1024,"target":34962},{"buffer":0,"byteLength":2220,"byteOffset":3244,"target":34962},{"buffer":0,"byteLength":2960,"byteOffset":5464,"target":34962},{"buffer":0,"byteLength":1480,"byteOffset":8424,"target":34962},{"buffer":0,"byteLength":1480,"byteOffset":9904,"target":34962},{"buffer":0,"byteLength":768,"byteOffset":11384,"target":34963},{"buffer":0,"byteLength":1776,"byteOffset":12152,"target":34962},{"buffer":0,"byteLength":1776,"byteOffset":13928,"target":34962},{"buffer":0,"byteLength":2368,"byteOffset":15704,"target":34962},{"buffer":0,"byteLength":1184,"byteOffset":18072,"target":34962},{"buffer":0,"byteLength":1184,"byteOffset":19256,"target":34962},{"buffer":0,"byteLength":504,"byteOffset":20440,"target":34963},{"buffer":0,"byteLength":1248,"byteOffset":20944,"target":34962},{"buffer":0,"byteLength":1248,"byteOffset":22192,"target":34962},{"buffer":0,"byteLength":1664,"byteOffset":23440,"target":34962},{"buffer":0,"byteLength":832,"byteOffset":25104,"target":34962},{"buffer":0,"byteLength":832,"byteOffset":25936,"target":34962},{"buffer":0,"byteLength":132,"byteOffset":26768,"target":34963},{"buffer":0,"byteLength":516,"byteOffset":26900,"target":34962},{"buffer":0,"byteLength":516,"byteOffset":27416,"target":34962},{"buffer":0,"byteLength":688,"byteOffset":27932,"target":34962},{"buffer":0,"byteLength":344,"byteOffset":28620,"target":34962},{"buffer":0,"byteLength":344,"byteOffset":28964,"target":34962},{"buffer":0,"byteLength":300,"byteOffset":29308,"target":34963},{"buffer":0,"byteLength":348,"byteOffset":29608,"target":34962},{"buffer":0,"byteLength":348,"byteOffset":29956,"target":34962},{"buffer":0,"byteLength":232,"byteOffset":30304,"target":34962},{"buffer":0,"byteLength":232,"byteOffset":30536,"target":34962}],"buffers":[{"byteLength":30768,"uri":"SM_Square.bin"}],"images":[{"name":"T_Tools_N","uri":"T_Tools_N.png"},{"name":"T_Tools_B","uri":"T_Tools_B.png"}],"materials":[{"alphaMode":"OPAQUE","doubleSided":false,"extras":{"fromFBX":{"isTruePBR":false,"shadingModel":"Phong"}},"name":"MI_Tools_02","normalTexture":{"index":0,"texCoord":0},"pbrMetallicRoughness":{"baseColorFactor":[1,1,1,1],"baseColorTexture":{"index":1,"texCoord":0},"metallicFactor":0.400000005960464,"roughnessFactor":0.301511347293854}},{"alphaMode":"OPAQUE","doubleSided":false,"extras":{"fromFBX":{"isTruePBR":false,"shadingModel":"Lambert"}},"name":"DefaultMaterial","pbrMetallicRoughness":{"baseColorFactor":[0.5,0.5,0.5,1],"metallicFactor":0.200000002980232,"roughnessFactor":0.800000011920929}}],"meshes":[{"name":"SM_Square_LOD0","primitives":[{"attributes":{"NORMAL":3,"POSITION":2,"TANGENT":4,"TEXCOORD_0":5,"TEXCOORD_1":6},"indices":1,"material":0,"mode":4}]},{"name":"SM_Square_LOD1","primitives":[{"attributes":{"NORMAL":9,"POSITION":8,"TANGENT":10,"TEXCOORD_0":11,"TEXCOORD_1":12},"indices":7,"material":0,"mode":4}]},{"name":"SM_Square_LOD2","primitives":[{"attributes":{"NORMAL":15,"POSITION":14,"TANGENT":16,"TEXCOORD_0":17,"TEXCOORD_1":18},"indices":13,"material":0,"mode":4}]},{"name":"SM_Square_LOD3","primitives":[{"attributes":{"NORMAL":21,"POSITION":20,"TANGENT":22,"TEXCOORD_0":23,"TEXCOORD_1":24},"indices":19,"material":0,"mode":4}]},{"name":"SM_Square_ConvexHulls","primitives":[{"attributes":{"NORMAL":27,"POSITION":26,"TEXCOORD_0":28,"TEXCOORD_1":29},"indices":25,"material":1,"mode":4}]}],"nodes":[{"children":[1,2,3,4,5],"name":"SM_Square_94","originalUnits":0.00999999977648258,"pivot":[0,0,0],"rotation":[0,0,0,1],"scale":[1,1,1],"translation":[0,0,0]},{"mesh":0,"name":"SM_Square_LOD0","originalUnits":0.00999999977648258,"pivot":[0,0,0],"rotation":[0,0,0,1],"scale":[1,1,1],"translation":[0,0,0]},{"mesh":4,"name":"SM_Square_ConvexHulls","originalUnits":0.00999999977648258,"pivot":[0,0,0],"rotation":[0,0,0,1],"scale":[1,1,1],"translation":[0,0,0]},{"mesh":1,"name":"SM_Square_LOD1","originalUnits":0.00999999977648258,"pivot":[0,0,0],"rotation":[0,0,0,1],"scale":[1,1,1],"translation":[0,0,0]},{"mesh":2,"name":"SM_Square_LOD2","originalUnits":0.00999999977648258,"pivot":[0,0,0],"rotation":[0,0,0,1],"scale":[1,1,1],"translation":[0,0,0]},{"mesh":3,"name":"SM_Square_LOD3","originalUnits":0.00999999977648258,"pivot":[0,0,0],"rotation":[0,0,0,1],"scale":[1,1,1],"translation":[0,0,0]}],"samplers":[{}],"scene":0,"scenes":[{"name":"Root Scene","nodes":[0]}],"textures":[{"name":"MI_Tools_02","sampler":0,"source":0},{"name":"MI_Tools_02","sampler":0,"source":1}]}