{"accessors":[{"bufferView":0,"byteOffset":0,"componentType":5126,"count":1,"max":[0],"min":[0],"type":"SCALAR"},{"bufferView":1,"byteOffset":0,"componentType":5123,"count":7950,"type":"SCALAR"},{"bufferView":2,"byteOffset":0,"componentType":5126,"count":2828,"max":[0.0247955340892076,0.292320519685745,0.438256829977036],"min":[-0.02479553967714,-0.29232051968575,-0.43825682997704],"type":"VEC3"},{"bufferView":3,"byteOffset":0,"componentType":5126,"count":2828,"type":"VEC3"},{"bufferView":4,"byteOffset":0,"componentType":5126,"count":2828,"type":"VEC4"},{"bufferView":5,"byteOffset":0,"componentType":5126,"count":2828,"type":"VEC2"},{"bufferView":6,"byteOffset":0,"componentType":5126,"count":2828,"type":"VEC2"},{"bufferView":7,"byteOffset":0,"componentType":5123,"count":5964,"type":"SCALAR"},{"bufferView":8,"byteOffset":0,"componentType":5126,"count":2455,"max":[0.025028046220541,0.292320519685745,0.438256829977036],"min":[-0.02548239380121,-0.29232051968575,-0.43825682997704],"type":"VEC3"},{"bufferView":9,"byteOffset":0,"componentType":5126,"count":2455,"type":"VEC3"},{"bufferView":10,"byteOffset":0,"componentType":5126,"count":2455,"type":"VEC4"},{"bufferView":11,"byteOffset":0,"componentType":5126,"count":2455,"type":"VEC2"},{"bufferView":12,"byteOffset":0,"componentType":5126,"count":2455,"type":"VEC2"},{"bufferView":13,"byteOffset":0,"componentType":5123,"count":3972,"type":"SCALAR"},{"bufferView":14,"byteOffset":0,"componentType":5126,"count":1794,"max":[0.025028046220541,0.292320519685745,0.438256829977036],"min":[-0.02598294429481,-0.29232051968575,-0.43825682997704],"type":"VEC3"},{"bufferView":15,"byteOffset":0,"componentType":5126,"count":1794,"type":"VEC3"},{"bufferView":16,"byteOffset":0,"componentType":5126,"count":1794,"type":"VEC4"},{"bufferView":17,"byteOffset":0,"componentType":5126,"count":1794,"type":"VEC2"},{"bufferView":18,"byteOffset":0,"componentType":5126,"count":1794,"type":"VEC2"},{"bufferView":19,"byteOffset":0,"componentType":5123,"count":996,"type":"SCALAR"},{"bufferView":20,"byteOffset":0,"componentType":5126,"count":359,"max":[0.0246044490486383,0.292320519685745,0.445398896932602],"min":[-0.0252456497401,-0.29171574115753,-0.44991996884346],"type":"VEC3"},{"bufferView":21,"byteOffset":0,"componentType":5126,"count":359,"type":"VEC3"},{"bufferView":22,"byteOffset":0,"componentType":5126,"count":359,"type":"VEC4"},{"bufferView":23,"byteOffset":0,"componentType":5126,"count":359,"type":"VEC2"},{"bufferView":24,"byteOffset":0,"componentType":5126,"count":359,"type":"VEC2"},{"bufferView":25,"byteOffset":0,"componentType":5123,"count":258,"type":"SCALAR"},{"bufferView":26,"byteOffset":0,"componentType":5126,"count":51,"max":[0.0267216134816408,0.284634351730347,0.421181529760361],"min":[-0.02604244463146,-0.29063379764557,-0.42125070095062],"type":"VEC3"},{"bufferView":27,"byteOffset":0,"componentType":5126,"count":51,"type":"VEC3"},{"bufferView":28,"byteOffset":0,"componentType":5126,"count":51,"type":"VEC2"},{"bufferView":29,"byteOffset":0,"componentType":5126,"count":51,"type":"VEC2"}],"animations":[{"channels":[],"name":"Unreal Take","samplers":[]}],"asset":{"generator":"FBX2glTF v0.13.0","version":"2.0"},"bufferViews":[{"buffer":0,"byteLength":4,"byteOffset":0},{"buffer":0,"byteLength":15900,"byteOffset":4,"target":34963},{"buffer":0,"byteLength":33936,"byteOffset":15904,"target":34962},{"buffer":0,"byteLength":33936,"byteOffset":49840,"target":34962},{"buffer":0,"byteLength":45248,"byteOffset":83776,"target":34962},{"buffer":0,"byteLength":22624,"byteOffset":129024,"target":34962},{"buffer":0,"byteLength":22624,"byteOffset":151648,"target":34962},{"buffer":0,"byteLength":11928,"byteOffset":174272,"target":34963},{"buffer":0,"byteLength":29460,"byteOffset":186200,"target":34962},{"buffer":0,"byteLength":29460,"byteOffset":215660,"target":34962},{"buffer":0,"byteLength":39280,"byteOffset":245120,"target":34962},{"buffer":0,"byteLength":19640,"byteOffset":284400,"target":34962},{"buffer":0,"byteLength":19640,"byteOffset":304040,"target":34962},{"buffer":0,"byteLength":7944,"byteOffset":323680,"target":34963},{"buffer":0,"byteLength":21528,"byteOffset":331624,"target":34962},{"buffer":0,"byteLength":21528,"byteOffset":353152,"target":34962},{"buffer":0,"byteLength":28704,"byteOffset":374680,"target":34962},{"buffer":0,"byteLength":14352,"byteOffset":403384,"target":34962},{"buffer":0,"byteLength":14352,"byteOffset":417736,"target":34962},{"buffer":0,"byteLength":1992,"byteOffset":432088,"target":34963},{"buffer":0,"byteLength":4308,"byteOffset":434080,"target":34962},{"buffer":0,"byteLength":4308,"byteOffset":438388,"target":34962},{"buffer":0,"byteLength":5744,"byteOffset":442696,"target":34962},{"buffer":0,"byteLength":2872,"byteOffset":448440,"target":34962},{"buffer":0,"byteLength":2872,"byteOffset":451312,"target":34962},{"buffer":0,"byteLength":516,"byteOffset":454184,"target":34963},{"buffer":0,"byteLength":612,"byteOffset":454700,"target":34962},{"buffer":0,"byteLength":612,"byteOffset":455312,"target":34962},{"buffer":0,"byteLength":408,"byteOffset":455924,"target":34962},{"buffer":0,"byteLength":408,"byteOffset":456332,"target":34962}],"buffers":[{"byteLength":456740,"uri":"SM_Saw_04.bin"}],"images":[{"name":"T_Tools_N","uri":"T_Tools_N.png"},{"name":"T_Tools_B","uri":"T_Tools_B.png"}],"materials":[{"alphaMode":"OPAQUE","doubleSided":false,"extras":{"fromFBX":{"isTruePBR":false,"shadingModel":"Phong"}},"name":"MI_Tools_02","normalTexture":{"index":0,"texCoord":0},"pbrMetallicRoughness":{"baseColorFactor":[1,1,1,1],"baseColorTexture":{"index":1,"texCoord":0},"metallicFactor":0.400000005960464,"roughnessFactor":0.301511347293854}},{"alphaMode":"OPAQUE","doubleSided":false,"extras":{"fromFBX":{"isTruePBR":false,"shadingModel":"Lambert"}},"name":"DefaultMaterial","pbrMetallicRoughness":{"baseColorFactor":[0.5,0.5,0.5,1],"metallicFactor":0.200000002980232,"roughnessFactor":0.800000011920929}}],"meshes":[{"name":"SM_Saw_04_LOD0","primitives":[{"attributes":{"NORMAL":3,"POSITION":2,"TANGENT":4,"TEXCOORD_0":5,"TEXCOORD_1":6},"indices":1,"material":0,"mode":4}]},{"name":"SM_Saw_04_LOD1","primitives":[{"attributes":{"NORMAL":9,"POSITION":8,"TANGENT":10,"TEXCOORD_0":11,"TEXCOORD_1":12},"indices":7,"material":0,"mode":4}]},{"name":"SM_Saw_04_LOD2","primitives":[{"attributes":{"NORMAL":15,"POSITION":14,"TANGENT":16,"TEXCOORD_0":17,"TEXCOORD_1":18},"indices":13,"material":0,"mode":4}]},{"name":"SM_Saw_04_LOD3","primitives":[{"attributes":{"NORMAL":21,"POSITION":20,"TANGENT":22,"TEXCOORD_0":23,"TEXCOORD_1":24},"indices":19,"material":0,"mode":4}]},{"name":"SM_Saw_04_ConvexHulls","primitives":[{"attributes":{"NORMAL":27,"POSITION":26,"TEXCOORD_0":28,"TEXCOORD_1":29},"indices":25,"material":1,"mode":4}]}],"nodes":[{"children":[1,2,3,4,5],"name":"SM_Saw_04_78","originalUnits":0.00999999977648258,"pivot":[0,0,0],"rotation":[0,0,0,1],"scale":[1,1,1],"translation":[0,0,0]},{"mesh":0,"name":"SM_Saw_04_LOD0","originalUnits":0.00999999977648258,"pivot":[0,0,0],"rotation":[0,0,0,1],"scale":[1,1,1],"translation":[0,0,0]},{"mesh":4,"name":"SM_Saw_04_ConvexHulls","originalUnits":0.00999999977648258,"pivot":[0,0,0],"rotation":[0,0,0,1],"scale":[1,1,1],"translation":[0,0,0]},{"mesh":1,"name":"SM_Saw_04_LOD1","originalUnits":0.00999999977648258,"pivot":[0,0,0],"rotation":[0,0,0,1],"scale":[1,1,1],"translation":[0,0,0]},{"mesh":2,"name":"SM_Saw_04_LOD2","originalUnits":0.00999999977648258,"pivot":[0,0,0],"rotation":[0,0,0,1],"scale":[1,1,1],"translation":[0,0,0]},{"mesh":3,"name":"SM_Saw_04_LOD3","originalUnits":0.00999999977648258,"pivot":[0,0,0],"rotation":[0,0,0,1],"scale":[1,1,1],"translation":[0,0,0]}],"samplers":[{}],"scene":0,"scenes":[{"name":"Root Scene","nodes":[0]}],"textures":[{"name":"MI_Tools_02","sampler":0,"source":0},{"name":"MI_Tools_02","sampler":0,"source":1}]}