{"accessors":[{"bufferView":0,"byteOffset":0,"componentType":5126,"count":1,"max":[0],"min":[0],"type":"SCALAR"},{"bufferView":1,"byteOffset":0,"componentType":5123,"count":1224,"type":"SCALAR"},{"bufferView":2,"byteOffset":0,"componentType":5126,"count":615,"max":[0.286635935306549,0.757434904575348,0.419243156909943],"min":[-0.167903855443,0.00764012010768056,-0.39169752597809],"type":"VEC3"},{"bufferView":3,"byteOffset":0,"componentType":5126,"count":615,"type":"VEC3"},{"bufferView":4,"byteOffset":0,"componentType":5126,"count":615,"type":"VEC4"},{"bufferView":5,"byteOffset":0,"componentType":5126,"count":615,"type":"VEC2"},{"bufferView":6,"byteOffset":0,"componentType":5126,"count":615,"type":"VEC2"},{"bufferView":7,"byteOffset":0,"componentType":5123,"count":918,"type":"SCALAR"},{"bufferView":8,"byteOffset":0,"componentType":5126,"count":496,"max":[0.286635935306549,0.757408380508423,0.421754360198975],"min":[-0.167903855443,0.00764012010768056,-0.39420878887177],"type":"VEC3"},{"bufferView":9,"byteOffset":0,"componentType":5126,"count":496,"type":"VEC3"},{"bufferView":10,"byteOffset":0,"componentType":5126,"count":496,"type":"VEC4"},{"bufferView":11,"byteOffset":0,"componentType":5126,"count":496,"type":"VEC2"},{"bufferView":12,"byteOffset":0,"componentType":5126,"count":496,"type":"VEC2"},{"bufferView":13,"byteOffset":0,"componentType":5123,"count":612,"type":"SCALAR"},{"bufferView":14,"byteOffset":0,"componentType":5126,"count":373,"max":[0.332204014062881,0.762541949748993,0.410636067390442],"min":[-0.21242292225361,-0.01845729723573,-0.38309046626091],"type":"VEC3"},{"bufferView":15,"byteOffset":0,"componentType":5126,"count":373,"type":"VEC3"},{"bufferView":16,"byteOffset":0,"componentType":5126,"count":373,"type":"VEC4"},{"bufferView":17,"byteOffset":0,"componentType":5126,"count":373,"type":"VEC2"},{"bufferView":18,"byteOffset":0,"componentType":5126,"count":373,"type":"VEC2"},{"bufferView":19,"byteOffset":0,"componentType":5123,"count":150,"type":"SCALAR"},{"bufferView":20,"byteOffset":0,"componentType":5126,"count":103,"max":[0.332204014062881,0.755974411964417,0.371032774448395],"min":[-0.21242292225361,0.137315034866333,-0.35677164793014],"type":"VEC3"},{"bufferView":21,"byteOffset":0,"componentType":5126,"count":103,"type":"VEC3"},{"bufferView":22,"byteOffset":0,"componentType":5126,"count":103,"type":"VEC4"},{"bufferView":23,"byteOffset":0,"componentType":5126,"count":103,"type":"VEC2"},{"bufferView":24,"byteOffset":0,"componentType":5126,"count":103,"type":"VEC2"},{"bufferView":25,"byteOffset":0,"componentType":5123,"count":324,"type":"SCALAR"},{"bufferView":26,"byteOffset":0,"componentType":5126,"count":62,"max":[0.28426256775856,0.767387509346008,0.427319139242172],"min":[-0.17481674253941,-0.00274449260905,-0.39784649014473],"type":"VEC3"},{"bufferView":27,"byteOffset":0,"componentType":5126,"count":62,"type":"VEC3"},{"bufferView":28,"byteOffset":0,"componentType":5126,"count":62,"type":"VEC2"},{"bufferView":29,"byteOffset":0,"componentType":5126,"count":62,"type":"VEC2"}],"animations":[{"channels":[],"name":"Unreal Take","samplers":[]}],"asset":{"generator":"FBX2glTF v0.13.0","version":"2.0"},"bufferViews":[{"buffer":0,"byteLength":4,"byteOffset":0},{"buffer":0,"byteLength":2448,"byteOffset":4,"target":34963},{"buffer":0,"byteLength":7380,"byteOffset":2452,"target":34962},{"buffer":0,"byteLength":7380,"byteOffset":9832,"target":34962},{"buffer":0,"byteLength":9840,"byteOffset":17212,"target":34962},{"buffer":0,"byteLength":4920,"byteOffset":27052,"target":34962},{"buffer":0,"byteLength":4920,"byteOffset":31972,"target":34962},{"buffer":0,"byteLength":1836,"byteOffset":36892,"target":34963},{"buffer":0,"byteLength":5952,"byteOffset":38728,"target":34962},{"buffer":0,"byteLength":5952,"byteOffset":44680,"target":34962},{"buffer":0,"byteLength":7936,"byteOffset":50632,"target":34962},{"buffer":0,"byteLength":3968,"byteOffset":58568,"target":34962},{"buffer":0,"byteLength":3968,"byteOffset":62536,"target":34962},{"buffer":0,"byteLength":1224,"byteOffset":66504,"target":34963},{"buffer":0,"byteLength":4476,"byteOffset":67728,"target":34962},{"buffer":0,"byteLength":4476,"byteOffset":72204,"target":34962},{"buffer":0,"byteLength":5968,"byteOffset":76680,"target":34962},{"buffer":0,"byteLength":2984,"byteOffset":82648,"target":34962},{"buffer":0,"byteLength":2984,"byteOffset":85632,"target":34962},{"buffer":0,"byteLength":300,"byteOffset":88616,"target":34963},{"buffer":0,"byteLength":1236,"byteOffset":88916,"target":34962},{"buffer":0,"byteLength":1236,"byteOffset":90152,"target":34962},{"buffer":0,"byteLength":1648,"byteOffset":91388,"target":34962},{"buffer":0,"byteLength":824,"byteOffset":93036,"target":34962},{"buffer":0,"byteLength":824,"byteOffset":93860,"target":34962},{"buffer":0,"byteLength":648,"byteOffset":94684,"target":34963},{"buffer":0,"byteLength":744,"byteOffset":95332,"target":34962},{"buffer":0,"byteLength":744,"byteOffset":96076,"target":34962},{"buffer":0,"byteLength":496,"byteOffset":96820,"target":34962},{"buffer":0,"byteLength":496,"byteOffset":97316,"target":34962}],"buffers":[{"byteLength":97812,"uri":"SM_Stool.bin"}],"images":[{"name":"T_ShelfandBench_N","uri":"T_ShelfandBench_N.png"},{"name":"T_ShelfandBench_B","uri":"T_ShelfandBench_B.png"}],"materials":[{"alphaMode":"OPAQUE","doubleSided":false,"extras":{"fromFBX":{"isTruePBR":false,"shadingModel":"Phong"}},"name":"MI_Bench","normalTexture":{"index":0,"texCoord":0},"pbrMetallicRoughness":{"baseColorFactor":[1,1,1,1],"baseColorTexture":{"index":1,"texCoord":0},"metallicFactor":0.400000005960464,"roughnessFactor":0.301511347293854}},{"alphaMode":"OPAQUE","doubleSided":false,"extras":{"fromFBX":{"isTruePBR":false,"shadingModel":"Lambert"}},"name":"DefaultMaterial","pbrMetallicRoughness":{"baseColorFactor":[0.5,0.5,0.5,1],"metallicFactor":0.200000002980232,"roughnessFactor":0.800000011920929}}],"meshes":[{"name":"SM_Stool_LOD0","primitives":[{"attributes":{"NORMAL":3,"POSITION":2,"TANGENT":4,"TEXCOORD_0":5,"TEXCOORD_1":6},"indices":1,"material":0,"mode":4}]},{"name":"SM_Stool_LOD1","primitives":[{"attributes":{"NORMAL":9,"POSITION":8,"TANGENT":10,"TEXCOORD_0":11,"TEXCOORD_1":12},"indices":7,"material":0,"mode":4}]},{"name":"SM_Stool_LOD2","primitives":[{"attributes":{"NORMAL":15,"POSITION":14,"TANGENT":16,"TEXCOORD_0":17,"TEXCOORD_1":18},"indices":13,"material":0,"mode":4}]},{"name":"SM_Stool_LOD3","primitives":[{"attributes":{"NORMAL":21,"POSITION":20,"TANGENT":22,"TEXCOORD_0":23,"TEXCOORD_1":24},"indices":19,"material":0,"mode":4}]},{"name":"SM_Stool_ConvexHulls","primitives":[{"attributes":{"NORMAL":27,"POSITION":26,"TEXCOORD_0":28,"TEXCOORD_1":29},"indices":25,"material":1,"mode":4}]}],"nodes":[{"children":[1,2,3,4,5],"name":"SM_Stool_95","originalUnits":0.00999999977648258,"pivot":[0,0,0],"rotation":[0,0,0,1],"scale":[1,1,1],"translation":[0,0,0]},{"mesh":0,"name":"SM_Stool_LOD0","originalUnits":0.00999999977648258,"pivot":[0,0,0],"rotation":[0,0,0,1],"scale":[1,1,1],"translation":[0,0,0]},{"mesh":4,"name":"SM_Stool_ConvexHulls","originalUnits":0.00999999977648258,"pivot":[0,0,0],"rotation":[0,0,0,1],"scale":[1,1,1],"translation":[0,0,0]},{"mesh":1,"name":"SM_Stool_LOD1","originalUnits":0.00999999977648258,"pivot":[0,0,0],"rotation":[0,0,0,1],"scale":[1,1,1],"translation":[0,0,0]},{"mesh":2,"name":"SM_Stool_LOD2","originalUnits":0.00999999977648258,"pivot":[0,0,0],"rotation":[0,0,0,1],"scale":[1,1,1],"translation":[0,0,0]},{"mesh":3,"name":"SM_Stool_LOD3","originalUnits":0.00999999977648258,"pivot":[0,0,0],"rotation":[0,0,0,1],"scale":[1,1,1],"translation":[0,0,0]}],"samplers":[{}],"scene":0,"scenes":[{"name":"Root Scene","nodes":[0]}],"textures":[{"name":"MI_Bench","sampler":0,"source":0},{"name":"MI_Bench","sampler":0,"source":1}]}