{"accessors":[{"bufferView":0,"byteOffset":0,"componentType":5126,"count":1,"max":[0],"min":[0],"type":"SCALAR"},{"bufferView":1,"byteOffset":0,"componentType":5123,"count":1194,"type":"SCALAR"},{"bufferView":2,"byteOffset":0,"componentType":5126,"count":286,"max":[0.00887085776776075,0.258398473262787,0.599999964237213],"min":[-0.02250336669385,-0.25839847326279,-0.59999996423721],"type":"VEC3"},{"bufferView":3,"byteOffset":0,"componentType":5126,"count":286,"type":"VEC3"},{"bufferView":4,"byteOffset":0,"componentType":5126,"count":286,"type":"VEC4"},{"bufferView":5,"byteOffset":0,"componentType":5126,"count":286,"type":"VEC2"},{"bufferView":6,"byteOffset":0,"componentType":5126,"count":286,"type":"VEC2"},{"bufferView":7,"byteOffset":0,"componentType":5123,"count":894,"type":"SCALAR"},{"bufferView":8,"byteOffset":0,"componentType":5126,"count":213,"max":[0.00887085776776075,0.258398473262787,0.599999964237213],"min":[-0.0227604676038,-0.25839847326279,-0.59999996423721],"type":"VEC3"},{"bufferView":9,"byteOffset":0,"componentType":5126,"count":213,"type":"VEC3"},{"bufferView":10,"byteOffset":0,"componentType":5126,"count":213,"type":"VEC4"},{"bufferView":11,"byteOffset":0,"componentType":5126,"count":213,"type":"VEC2"},{"bufferView":12,"byteOffset":0,"componentType":5126,"count":213,"type":"VEC2"},{"bufferView":13,"byteOffset":0,"componentType":5123,"count":597,"type":"SCALAR"},{"bufferView":14,"byteOffset":0,"componentType":5126,"count":151,"max":[0.00887085776776075,0.264885723590851,0.599999964237213],"min":[-0.02294741757214,-0.25858503580093,-0.59999996423721],"type":"VEC3"},{"bufferView":15,"byteOffset":0,"componentType":5126,"count":151,"type":"VEC3"},{"bufferView":16,"byteOffset":0,"componentType":5126,"count":151,"type":"VEC4"},{"bufferView":17,"byteOffset":0,"componentType":5126,"count":151,"type":"VEC2"},{"bufferView":18,"byteOffset":0,"componentType":5126,"count":151,"type":"VEC2"},{"bufferView":19,"byteOffset":0,"componentType":5123,"count":150,"type":"SCALAR"},{"bufferView":20,"byteOffset":0,"componentType":5126,"count":55,"max":[0.0108343753963709,0.270162552595139,0.595954179763794],"min":[-0.03761657327414,-0.25735029578209,-0.59598183631897],"type":"VEC3"},{"bufferView":21,"byteOffset":0,"componentType":5126,"count":55,"type":"VEC3"},{"bufferView":22,"byteOffset":0,"componentType":5126,"count":55,"type":"VEC4"},{"bufferView":23,"byteOffset":0,"componentType":5126,"count":55,"type":"VEC2"},{"bufferView":24,"byteOffset":0,"componentType":5126,"count":55,"type":"VEC2"},{"bufferView":25,"byteOffset":0,"componentType":5123,"count":294,"type":"SCALAR"},{"bufferView":26,"byteOffset":0,"componentType":5126,"count":57,"max":[0.0120541071519256,0.260409951210022,0.602898597717285],"min":[-0.02297297678888,-0.2613160610199,-0.60289853811264],"type":"VEC3"},{"bufferView":27,"byteOffset":0,"componentType":5126,"count":57,"type":"VEC3"},{"bufferView":28,"byteOffset":0,"componentType":5126,"count":57,"type":"VEC2"},{"bufferView":29,"byteOffset":0,"componentType":5126,"count":57,"type":"VEC2"}],"animations":[{"channels":[],"name":"Unreal Take","samplers":[]}],"asset":{"generator":"FBX2glTF v0.13.0","version":"2.0"},"bufferViews":[{"buffer":0,"byteLength":4,"byteOffset":0},{"buffer":0,"byteLength":2388,"byteOffset":4,"target":34963},{"buffer":0,"byteLength":3432,"byteOffset":2392,"target":34962},{"buffer":0,"byteLength":3432,"byteOffset":5824,"target":34962},{"buffer":0,"byteLength":4576,"byteOffset":9256,"target":34962},{"buffer":0,"byteLength":2288,"byteOffset":13832,"target":34962},{"buffer":0,"byteLength":2288,"byteOffset":16120,"target":34962},{"buffer":0,"byteLength":1788,"byteOffset":18408,"target":34963},{"buffer":0,"byteLength":2556,"byteOffset":20196,"target":34962},{"buffer":0,"byteLength":2556,"byteOffset":22752,"target":34962},{"buffer":0,"byteLength":3408,"byteOffset":25308,"target":34962},{"buffer":0,"byteLength":1704,"byteOffset":28716,"target":34962},{"buffer":0,"byteLength":1704,"byteOffset":30420,"target":34962},{"buffer":0,"byteLength":1194,"byteOffset":32124,"target":34963},{"buffer":0,"byteLength":1812,"byteOffset":33320,"target":34962},{"buffer":0,"byteLength":1812,"byteOffset":35132,"target":34962},{"buffer":0,"byteLength":2416,"byteOffset":36944,"target":34962},{"buffer":0,"byteLength":1208,"byteOffset":39360,"target":34962},{"buffer":0,"byteLength":1208,"byteOffset":40568,"target":34962},{"buffer":0,"byteLength":300,"byteOffset":41776,"target":34963},{"buffer":0,"byteLength":660,"byteOffset":42076,"target":34962},{"buffer":0,"byteLength":660,"byteOffset":42736,"target":34962},{"buffer":0,"byteLength":880,"byteOffset":43396,"target":34962},{"buffer":0,"byteLength":440,"byteOffset":44276,"target":34962},{"buffer":0,"byteLength":440,"byteOffset":44716,"target":34962},{"buffer":0,"byteLength":588,"byteOffset":45156,"target":34963},{"buffer":0,"byteLength":684,"byteOffset":45744,"target":34962},{"buffer":0,"byteLength":684,"byteOffset":46428,"target":34962},{"buffer":0,"byteLength":456,"byteOffset":47112,"target":34962},{"buffer":0,"byteLength":456,"byteOffset":47568,"target":34962}],"buffers":[{"byteLength":48024,"uri":"SM_Sign.bin"}],"images":[{"name":"T_Tools_N","uri":"T_Tools_N.png"},{"name":"T_Tools_B","uri":"T_Tools_B.png"}],"materials":[{"alphaMode":"OPAQUE","doubleSided":false,"extras":{"fromFBX":{"isTruePBR":false,"shadingModel":"Phong"}},"name":"MI_Tools_02","normalTexture":{"index":0,"texCoord":0},"pbrMetallicRoughness":{"baseColorFactor":[1,1,1,1],"baseColorTexture":{"index":1,"texCoord":0},"metallicFactor":0.400000005960464,"roughnessFactor":0.301511347293854}},{"alphaMode":"OPAQUE","doubleSided":false,"extras":{"fromFBX":{"isTruePBR":false,"shadingModel":"Lambert"}},"name":"DefaultMaterial","pbrMetallicRoughness":{"baseColorFactor":[0.5,0.5,0.5,1],"metallicFactor":0.200000002980232,"roughnessFactor":0.800000011920929}}],"meshes":[{"name":"SM_Sign_LOD0","primitives":[{"attributes":{"NORMAL":3,"POSITION":2,"TANGENT":4,"TEXCOORD_0":5,"TEXCOORD_1":6},"indices":1,"material":0,"mode":4}]},{"name":"SM_Sign_LOD1","primitives":[{"attributes":{"NORMAL":9,"POSITION":8,"TANGENT":10,"TEXCOORD_0":11,"TEXCOORD_1":12},"indices":7,"material":0,"mode":4}]},{"name":"SM_Sign_LOD2","primitives":[{"attributes":{"NORMAL":15,"POSITION":14,"TANGENT":16,"TEXCOORD_0":17,"TEXCOORD_1":18},"indices":13,"material":0,"mode":4}]},{"name":"SM_Sign_LOD3","primitives":[{"attributes":{"NORMAL":21,"POSITION":20,"TANGENT":22,"TEXCOORD_0":23,"TEXCOORD_1":24},"indices":19,"material":0,"mode":4}]},{"name":"SM_Sign_ConvexHulls","primitives":[{"attributes":{"NORMAL":27,"POSITION":26,"TEXCOORD_0":28,"TEXCOORD_1":29},"indices":25,"material":1,"mode":4}]}],"nodes":[{"children":[1,2,3,4,5],"name":"SM_Sign_84","originalUnits":0.00999999977648258,"pivot":[0,0,0],"rotation":[0,0,0,1],"scale":[1,1,1],"translation":[0,0,0]},{"mesh":0,"name":"SM_Sign_LOD0","originalUnits":0.00999999977648258,"pivot":[0,0,0],"rotation":[0,0,0,1],"scale":[1,1,1],"translation":[0,0,0]},{"mesh":4,"name":"SM_Sign_ConvexHulls","originalUnits":0.00999999977648258,"pivot":[0,0,0],"rotation":[0,0,0,1],"scale":[1,1,1],"translation":[0,0,0]},{"mesh":1,"name":"SM_Sign_LOD1","originalUnits":0.00999999977648258,"pivot":[0,0,0],"rotation":[0,0,0,1],"scale":[1,1,1],"translation":[0,0,0]},{"mesh":2,"name":"SM_Sign_LOD2","originalUnits":0.00999999977648258,"pivot":[0,0,0],"rotation":[0,0,0,1],"scale":[1,1,1],"translation":[0,0,0]},{"mesh":3,"name":"SM_Sign_LOD3","originalUnits":0.00999999977648258,"pivot":[0,0,0],"rotation":[0,0,0,1],"scale":[1,1,1],"translation":[0,0,0]}],"samplers":[{}],"scene":0,"scenes":[{"name":"Root Scene","nodes":[0]}],"textures":[{"name":"MI_Tools_02","sampler":0,"source":0},{"name":"MI_Tools_02","sampler":0,"source":1}]}