{"accessors":[{"bufferView":0,"byteOffset":0,"componentType":5126,"count":1,"max":[0],"min":[0],"type":"SCALAR"},{"bufferView":1,"byteOffset":0,"componentType":5123,"count":4080,"type":"SCALAR"},{"bufferView":2,"byteOffset":0,"componentType":5126,"count":2534,"max":[0.104175575077534,1.88444793224335,0.607608377933502],"min":[-0.41035377979279,-0.00000000067871,-0.60760825872421],"type":"VEC3"},{"bufferView":3,"byteOffset":0,"componentType":5126,"count":2534,"type":"VEC3"},{"bufferView":4,"byteOffset":0,"componentType":5126,"count":2534,"type":"VEC4"},{"bufferView":5,"byteOffset":0,"componentType":5126,"count":2534,"type":"VEC2"},{"bufferView":6,"byteOffset":0,"componentType":5126,"count":2534,"type":"VEC2"},{"bufferView":7,"byteOffset":0,"componentType":5123,"count":3060,"type":"SCALAR"},{"bufferView":8,"byteOffset":0,"componentType":5126,"count":2117,"max":[0.104175575077534,1.88444793224335,0.607608377933502],"min":[-0.41035377979279,-0.00000000067871,-0.60760825872421],"type":"VEC3"},{"bufferView":9,"byteOffset":0,"componentType":5126,"count":2117,"type":"VEC3"},{"bufferView":10,"byteOffset":0,"componentType":5126,"count":2117,"type":"VEC4"},{"bufferView":11,"byteOffset":0,"componentType":5126,"count":2117,"type":"VEC2"},{"bufferView":12,"byteOffset":0,"componentType":5126,"count":2117,"type":"VEC2"},{"bufferView":13,"byteOffset":0,"componentType":5123,"count":2040,"type":"SCALAR"},{"bufferView":14,"byteOffset":0,"componentType":5126,"count":1474,"max":[0.104175575077534,1.88444793224335,0.607608377933502],"min":[-0.41035377979279,-0.00000000067871,-0.60760825872421],"type":"VEC3"},{"bufferView":15,"byteOffset":0,"componentType":5126,"count":1474,"type":"VEC3"},{"bufferView":16,"byteOffset":0,"componentType":5126,"count":1474,"type":"VEC4"},{"bufferView":17,"byteOffset":0,"componentType":5126,"count":1474,"type":"VEC2"},{"bufferView":18,"byteOffset":0,"componentType":5126,"count":1474,"type":"VEC2"},{"bufferView":19,"byteOffset":0,"componentType":5123,"count":510,"type":"SCALAR"},{"bufferView":20,"byteOffset":0,"componentType":5126,"count":358,"max":[0.104175575077534,1.88444793224335,0.607608377933502],"min":[-0.41247808933258,-0.0005494991201,-0.60760825872421],"type":"VEC3"},{"bufferView":21,"byteOffset":0,"componentType":5126,"count":358,"type":"VEC3"},{"bufferView":22,"byteOffset":0,"componentType":5126,"count":358,"type":"VEC4"},{"bufferView":23,"byteOffset":0,"componentType":5126,"count":358,"type":"VEC2"},{"bufferView":24,"byteOffset":0,"componentType":5126,"count":358,"type":"VEC2"},{"bufferView":25,"byteOffset":0,"componentType":5123,"count":474,"type":"SCALAR"},{"bufferView":26,"byteOffset":0,"componentType":5126,"count":93,"max":[0.10655838996172,1.89701163768768,0.611951172351837],"min":[-0.42188274860382,-0.0122315986082,-0.61406826972961],"type":"VEC3"},{"bufferView":27,"byteOffset":0,"componentType":5126,"count":93,"type":"VEC3"},{"bufferView":28,"byteOffset":0,"componentType":5126,"count":93,"type":"VEC2"},{"bufferView":29,"byteOffset":0,"componentType":5126,"count":93,"type":"VEC2"}],"animations":[{"channels":[],"name":"Unreal Take","samplers":[]}],"asset":{"generator":"FBX2glTF v0.13.0","version":"2.0"},"bufferViews":[{"buffer":0,"byteLength":4,"byteOffset":0},{"buffer":0,"byteLength":8160,"byteOffset":4,"target":34963},{"buffer":0,"byteLength":30408,"byteOffset":8164,"target":34962},{"buffer":0,"byteLength":30408,"byteOffset":38572,"target":34962},{"buffer":0,"byteLength":40544,"byteOffset":68980,"target":34962},{"buffer":0,"byteLength":20272,"byteOffset":109524,"target":34962},{"buffer":0,"byteLength":20272,"byteOffset":129796,"target":34962},{"buffer":0,"byteLength":6120,"byteOffset":150068,"target":34963},{"buffer":0,"byteLength":25404,"byteOffset":156188,"target":34962},{"buffer":0,"byteLength":25404,"byteOffset":181592,"target":34962},{"buffer":0,"byteLength":33872,"byteOffset":206996,"target":34962},{"buffer":0,"byteLength":16936,"byteOffset":240868,"target":34962},{"buffer":0,"byteLength":16936,"byteOffset":257804,"target":34962},{"buffer":0,"byteLength":4080,"byteOffset":274740,"target":34963},{"buffer":0,"byteLength":17688,"byteOffset":278820,"target":34962},{"buffer":0,"byteLength":17688,"byteOffset":296508,"target":34962},{"buffer":0,"byteLength":23584,"byteOffset":314196,"target":34962},{"buffer":0,"byteLength":11792,"byteOffset":337780,"target":34962},{"buffer":0,"byteLength":11792,"byteOffset":349572,"target":34962},{"buffer":0,"byteLength":1020,"byteOffset":361364,"target":34963},{"buffer":0,"byteLength":4296,"byteOffset":362384,"target":34962},{"buffer":0,"byteLength":4296,"byteOffset":366680,"target":34962},{"buffer":0,"byteLength":5728,"byteOffset":370976,"target":34962},{"buffer":0,"byteLength":2864,"byteOffset":376704,"target":34962},{"buffer":0,"byteLength":2864,"byteOffset":379568,"target":34962},{"buffer":0,"byteLength":948,"byteOffset":382432,"target":34963},{"buffer":0,"byteLength":1116,"byteOffset":383380,"target":34962},{"buffer":0,"byteLength":1116,"byteOffset":384496,"target":34962},{"buffer":0,"byteLength":744,"byteOffset":385612,"target":34962},{"buffer":0,"byteLength":744,"byteOffset":386356,"target":34962}],"buffers":[{"byteLength":387100,"uri":"SM_Small_Shelf.bin"}],"images":[{"name":"T_ShelfandBench_N","uri":"T_ShelfandBench_N.png"},{"name":"T_ShelfandBench_B","uri":"T_ShelfandBench_B.png"}],"materials":[{"alphaMode":"OPAQUE","doubleSided":false,"extras":{"fromFBX":{"isTruePBR":false,"shadingModel":"Phong"}},"name":"MI_Scroll_Case","normalTexture":{"index":0,"texCoord":0},"pbrMetallicRoughness":{"baseColorFactor":[1,1,1,1],"baseColorTexture":{"index":1,"texCoord":0},"metallicFactor":0.400000005960464,"roughnessFactor":0.301511347293854}},{"alphaMode":"OPAQUE","doubleSided":false,"extras":{"fromFBX":{"isTruePBR":false,"shadingModel":"Lambert"}},"name":"DefaultMaterial","pbrMetallicRoughness":{"baseColorFactor":[0.5,0.5,0.5,1],"metallicFactor":0.200000002980232,"roughnessFactor":0.800000011920929}}],"meshes":[{"name":"SM_Small_Shelf_LOD0","primitives":[{"attributes":{"NORMAL":3,"POSITION":2,"TANGENT":4,"TEXCOORD_0":5,"TEXCOORD_1":6},"indices":1,"material":0,"mode":4}]},{"name":"SM_Small_Shelf_LOD1","primitives":[{"attributes":{"NORMAL":9,"POSITION":8,"TANGENT":10,"TEXCOORD_0":11,"TEXCOORD_1":12},"indices":7,"material":0,"mode":4}]},{"name":"SM_Small_Shelf_LOD2","primitives":[{"attributes":{"NORMAL":15,"POSITION":14,"TANGENT":16,"TEXCOORD_0":17,"TEXCOORD_1":18},"indices":13,"material":0,"mode":4}]},{"name":"SM_Small_Shelf_LOD3","primitives":[{"attributes":{"NORMAL":21,"POSITION":20,"TANGENT":22,"TEXCOORD_0":23,"TEXCOORD_1":24},"indices":19,"material":0,"mode":4}]},{"name":"SM_Small_Shelf_ConvexHulls","primitives":[{"attributes":{"NORMAL":27,"POSITION":26,"TEXCOORD_0":28,"TEXCOORD_1":29},"indices":25,"material":1,"mode":4}]}],"nodes":[{"children":[1,2,3,4,5],"name":"SM_Small_Shelf_89","originalUnits":0.00999999977648258,"pivot":[0,0,0],"rotation":[0,0,0,1],"scale":[1,1,1],"translation":[0,0,0]},{"mesh":0,"name":"SM_Small_Shelf_LOD0","originalUnits":0.00999999977648258,"pivot":[0,0,0],"rotation":[0,0,0,1],"scale":[1,1,1],"translation":[0,0,0]},{"mesh":4,"name":"SM_Small_Shelf_ConvexHulls","originalUnits":0.00999999977648258,"pivot":[0,0,0],"rotation":[0,0,0,1],"scale":[1,1,1],"translation":[0,0,0]},{"mesh":1,"name":"SM_Small_Shelf_LOD1","originalUnits":0.00999999977648258,"pivot":[0,0,0],"rotation":[0,0,0,1],"scale":[1,1,1],"translation":[0,0,0]},{"mesh":2,"name":"SM_Small_Shelf_LOD2","originalUnits":0.00999999977648258,"pivot":[0,0,0],"rotation":[0,0,0,1],"scale":[1,1,1],"translation":[0,0,0]},{"mesh":3,"name":"SM_Small_Shelf_LOD3","originalUnits":0.00999999977648258,"pivot":[0,0,0],"rotation":[0,0,0,1],"scale":[1,1,1],"translation":[0,0,0]}],"samplers":[{}],"scene":0,"scenes":[{"name":"Root Scene","nodes":[0]}],"textures":[{"name":"MI_Scroll_Case","sampler":0,"source":0},{"name":"MI_Scroll_Case","sampler":0,"source":1}]}