{"accessors":[{"bufferView":0,"byteOffset":0,"componentType":5126,"count":1,"max":[0],"min":[0],"type":"SCALAR"},{"bufferView":1,"byteOffset":0,"componentType":5123,"count":372,"type":"SCALAR"},{"bufferView":2,"byteOffset":0,"componentType":5126,"count":120,"max":[0.174179092049599,0.176064983010292,0.700000047683716],"min":[-0.2263223528862,-0.17606498301029,-0.70000004768372],"type":"VEC3"},{"bufferView":3,"byteOffset":0,"componentType":5126,"count":120,"type":"VEC3"},{"bufferView":4,"byteOffset":0,"componentType":5126,"count":120,"type":"VEC4"},{"bufferView":5,"byteOffset":0,"componentType":5126,"count":120,"type":"VEC2"},{"bufferView":6,"byteOffset":0,"componentType":5126,"count":120,"type":"VEC2"},{"bufferView":7,"byteOffset":0,"componentType":5123,"count":276,"type":"SCALAR"},{"bufferView":8,"byteOffset":0,"componentType":5126,"count":112,"max":[0.174179092049599,0.176064983010292,0.700837075710297],"min":[-0.22760555148125,-0.17753213644028,-0.70083701610565],"type":"VEC3"},{"bufferView":9,"byteOffset":0,"componentType":5126,"count":112,"type":"VEC3"},{"bufferView":10,"byteOffset":0,"componentType":5126,"count":112,"type":"VEC4"},{"bufferView":11,"byteOffset":0,"componentType":5126,"count":112,"type":"VEC2"},{"bufferView":12,"byteOffset":0,"componentType":5126,"count":112,"type":"VEC2"},{"bufferView":13,"byteOffset":0,"componentType":5123,"count":186,"type":"SCALAR"},{"bufferView":14,"byteOffset":0,"componentType":5126,"count":87,"max":[0.176206141710281,0.176064983010292,0.700000047683716],"min":[-0.22802792489529,-0.17753213644028,-0.70000004768372],"type":"VEC3"},{"bufferView":15,"byteOffset":0,"componentType":5126,"count":87,"type":"VEC3"},{"bufferView":16,"byteOffset":0,"componentType":5126,"count":87,"type":"VEC4"},{"bufferView":17,"byteOffset":0,"componentType":5126,"count":87,"type":"VEC2"},{"bufferView":18,"byteOffset":0,"componentType":5126,"count":87,"type":"VEC2"},{"bufferView":19,"byteOffset":0,"componentType":5123,"count":48,"type":"SCALAR"},{"bufferView":20,"byteOffset":0,"componentType":5126,"count":36,"max":[0.178736969828606,0.176161721348763,0.698980748653412],"min":[-0.23304684460163,-0.29217258095741,-0.69642263650894],"type":"VEC3"},{"bufferView":21,"byteOffset":0,"componentType":5126,"count":36,"type":"VEC3"},{"bufferView":22,"byteOffset":0,"componentType":5126,"count":36,"type":"VEC4"},{"bufferView":23,"byteOffset":0,"componentType":5126,"count":36,"type":"VEC2"},{"bufferView":24,"byteOffset":0,"componentType":5126,"count":36,"type":"VEC2"},{"bufferView":25,"byteOffset":0,"componentType":5123,"count":258,"type":"SCALAR"},{"bufferView":26,"byteOffset":0,"componentType":5126,"count":51,"max":[0.182820811867714,0.186176180839539,0.704310894012451],"min":[-0.2334655970335,-0.18117675185204,-0.70432102680206],"type":"VEC3"},{"bufferView":27,"byteOffset":0,"componentType":5126,"count":51,"type":"VEC3"},{"bufferView":28,"byteOffset":0,"componentType":5126,"count":51,"type":"VEC2"},{"bufferView":29,"byteOffset":0,"componentType":5126,"count":51,"type":"VEC2"}],"animations":[{"channels":[],"name":"Unreal Take","samplers":[]}],"asset":{"generator":"FBX2glTF v0.13.0","version":"2.0"},"bufferViews":[{"buffer":0,"byteLength":4,"byteOffset":0},{"buffer":0,"byteLength":744,"byteOffset":4,"target":34963},{"buffer":0,"byteLength":1440,"byteOffset":748,"target":34962},{"buffer":0,"byteLength":1440,"byteOffset":2188,"target":34962},{"buffer":0,"byteLength":1920,"byteOffset":3628,"target":34962},{"buffer":0,"byteLength":960,"byteOffset":5548,"target":34962},{"buffer":0,"byteLength":960,"byteOffset":6508,"target":34962},{"buffer":0,"byteLength":552,"byteOffset":7468,"target":34963},{"buffer":0,"byteLength":1344,"byteOffset":8020,"target":34962},{"buffer":0,"byteLength":1344,"byteOffset":9364,"target":34962},{"buffer":0,"byteLength":1792,"byteOffset":10708,"target":34962},{"buffer":0,"byteLength":896,"byteOffset":12500,"target":34962},{"buffer":0,"byteLength":896,"byteOffset":13396,"target":34962},{"buffer":0,"byteLength":372,"byteOffset":14292,"target":34963},{"buffer":0,"byteLength":1044,"byteOffset":14664,"target":34962},{"buffer":0,"byteLength":1044,"byteOffset":15708,"target":34962},{"buffer":0,"byteLength":1392,"byteOffset":16752,"target":34962},{"buffer":0,"byteLength":696,"byteOffset":18144,"target":34962},{"buffer":0,"byteLength":696,"byteOffset":18840,"target":34962},{"buffer":0,"byteLength":96,"byteOffset":19536,"target":34963},{"buffer":0,"byteLength":432,"byteOffset":19632,"target":34962},{"buffer":0,"byteLength":432,"byteOffset":20064,"target":34962},{"buffer":0,"byteLength":576,"byteOffset":20496,"target":34962},{"buffer":0,"byteLength":288,"byteOffset":21072,"target":34962},{"buffer":0,"byteLength":288,"byteOffset":21360,"target":34962},{"buffer":0,"byteLength":516,"byteOffset":21648,"target":34963},{"buffer":0,"byteLength":612,"byteOffset":22164,"target":34962},{"buffer":0,"byteLength":612,"byteOffset":22776,"target":34962},{"buffer":0,"byteLength":408,"byteOffset":23388,"target":34962},{"buffer":0,"byteLength":408,"byteOffset":23796,"target":34962}],"buffers":[{"byteLength":24204,"uri":"SM_Shelf.bin"}],"images":[{"name":"T_ShelfandBench_N","uri":"T_ShelfandBench_N.png"},{"name":"T_ShelfandBench_B","uri":"T_ShelfandBench_B.png"}],"materials":[{"alphaMode":"OPAQUE","doubleSided":false,"extras":{"fromFBX":{"isTruePBR":false,"shadingModel":"Phong"}},"name":"MI_Shelf","normalTexture":{"index":0,"texCoord":0},"pbrMetallicRoughness":{"baseColorFactor":[1,1,1,1],"baseColorTexture":{"index":1,"texCoord":0},"metallicFactor":0.400000005960464,"roughnessFactor":0.301511347293854}},{"alphaMode":"OPAQUE","doubleSided":false,"extras":{"fromFBX":{"isTruePBR":false,"shadingModel":"Lambert"}},"name":"DefaultMaterial","pbrMetallicRoughness":{"baseColorFactor":[0.5,0.5,0.5,1],"metallicFactor":0.200000002980232,"roughnessFactor":0.800000011920929}}],"meshes":[{"name":"SM_Shelf_LOD0","primitives":[{"attributes":{"NORMAL":3,"POSITION":2,"TANGENT":4,"TEXCOORD_0":5,"TEXCOORD_1":6},"indices":1,"material":0,"mode":4}]},{"name":"SM_Shelf_LOD1","primitives":[{"attributes":{"NORMAL":9,"POSITION":8,"TANGENT":10,"TEXCOORD_0":11,"TEXCOORD_1":12},"indices":7,"material":0,"mode":4}]},{"name":"SM_Shelf_LOD2","primitives":[{"attributes":{"NORMAL":15,"POSITION":14,"TANGENT":16,"TEXCOORD_0":17,"TEXCOORD_1":18},"indices":13,"material":0,"mode":4}]},{"name":"SM_Shelf_LOD3","primitives":[{"attributes":{"NORMAL":21,"POSITION":20,"TANGENT":22,"TEXCOORD_0":23,"TEXCOORD_1":24},"indices":19,"material":0,"mode":4}]},{"name":"SM_Shelf_ConvexHulls","primitives":[{"attributes":{"NORMAL":27,"POSITION":26,"TEXCOORD_0":28,"TEXCOORD_1":29},"indices":25,"material":1,"mode":4}]}],"nodes":[{"children":[1,2,3,4,5],"name":"SM_Shelf_83","originalUnits":0.00999999977648258,"pivot":[0,0,0],"rotation":[0,0,0,1],"scale":[1,1,1],"translation":[0,0,0]},{"mesh":0,"name":"SM_Shelf_LOD0","originalUnits":0.00999999977648258,"pivot":[0,0,0],"rotation":[0,0,0,1],"scale":[1,1,1],"translation":[0,0,0]},{"mesh":4,"name":"SM_Shelf_ConvexHulls","originalUnits":0.00999999977648258,"pivot":[0,0,0],"rotation":[0,0,0,1],"scale":[1,1,1],"translation":[0,0,0]},{"mesh":1,"name":"SM_Shelf_LOD1","originalUnits":0.00999999977648258,"pivot":[0,0,0],"rotation":[0,0,0,1],"scale":[1,1,1],"translation":[0,0,0]},{"mesh":2,"name":"SM_Shelf_LOD2","originalUnits":0.00999999977648258,"pivot":[0,0,0],"rotation":[0,0,0,1],"scale":[1,1,1],"translation":[0,0,0]},{"mesh":3,"name":"SM_Shelf_LOD3","originalUnits":0.00999999977648258,"pivot":[0,0,0],"rotation":[0,0,0,1],"scale":[1,1,1],"translation":[0,0,0]}],"samplers":[{}],"scene":0,"scenes":[{"name":"Root Scene","nodes":[0]}],"textures":[{"name":"MI_Shelf","sampler":0,"source":0},{"name":"MI_Shelf","sampler":0,"source":1}]}