{"accessors":[{"bufferView":0,"byteOffset":0,"componentType":5126,"count":1,"max":[0],"min":[0],"type":"SCALAR"},{"bufferView":1,"byteOffset":0,"componentType":5123,"count":5568,"type":"SCALAR"},{"bufferView":2,"byteOffset":0,"componentType":5126,"count":2784,"max":[0.0261376928538084,0.228241235017776,0.592331528663635],"min":[-0.02613770402968,-0.22524513304234,-0.59233152866364],"type":"VEC3"},{"bufferView":3,"byteOffset":0,"componentType":5126,"count":2784,"type":"VEC3"},{"bufferView":4,"byteOffset":0,"componentType":5126,"count":2784,"type":"VEC4"},{"bufferView":5,"byteOffset":0,"componentType":5126,"count":2784,"type":"VEC2"},{"bufferView":6,"byteOffset":0,"componentType":5126,"count":2784,"type":"VEC2"},{"bufferView":7,"byteOffset":0,"componentType":5123,"count":4176,"type":"SCALAR"},{"bufferView":8,"byteOffset":0,"componentType":5126,"count":2219,"max":[0.0261376928538084,0.228241235017776,0.595342516899109],"min":[-0.02613770402968,-0.22524513304234,-0.59233152866364],"type":"VEC3"},{"bufferView":9,"byteOffset":0,"componentType":5126,"count":2219,"type":"VEC3"},{"bufferView":10,"byteOffset":0,"componentType":5126,"count":2219,"type":"VEC4"},{"bufferView":11,"byteOffset":0,"componentType":5126,"count":2219,"type":"VEC2"},{"bufferView":12,"byteOffset":0,"componentType":5126,"count":2219,"type":"VEC2"},{"bufferView":13,"byteOffset":0,"componentType":5123,"count":2784,"type":"SCALAR"},{"bufferView":14,"byteOffset":0,"componentType":5126,"count":1434,"max":[0.0262158885598183,0.228241235017776,0.593258380889893],"min":[-0.0262583270669,-0.22524513304234,-0.59233152866364],"type":"VEC3"},{"bufferView":15,"byteOffset":0,"componentType":5126,"count":1434,"type":"VEC3"},{"bufferView":16,"byteOffset":0,"componentType":5126,"count":1434,"type":"VEC4"},{"bufferView":17,"byteOffset":0,"componentType":5126,"count":1434,"type":"VEC2"},{"bufferView":18,"byteOffset":0,"componentType":5126,"count":1434,"type":"VEC2"},{"bufferView":19,"byteOffset":0,"componentType":5123,"count":693,"type":"SCALAR"},{"bufferView":20,"byteOffset":0,"componentType":5126,"count":235,"max":[0.0295807588845491,0.241057202219963,0.593258380889893],"min":[-0.02790350466967,-0.23013880848885,-0.59456914663315],"type":"VEC3"},{"bufferView":21,"byteOffset":0,"componentType":5126,"count":235,"type":"VEC3"},{"bufferView":22,"byteOffset":0,"componentType":5126,"count":235,"type":"VEC4"},{"bufferView":23,"byteOffset":0,"componentType":5126,"count":235,"type":"VEC2"},{"bufferView":24,"byteOffset":0,"componentType":5126,"count":235,"type":"VEC2"},{"bufferView":25,"byteOffset":0,"componentType":5123,"count":288,"type":"SCALAR"},{"bufferView":26,"byteOffset":0,"componentType":5126,"count":56,"max":[0.0286564845591784,0.230900287628174,0.581366360187531],"min":[-0.02675692737103,-0.22817486524582,-0.59458214044571],"type":"VEC3"},{"bufferView":27,"byteOffset":0,"componentType":5126,"count":56,"type":"VEC3"},{"bufferView":28,"byteOffset":0,"componentType":5126,"count":56,"type":"VEC2"},{"bufferView":29,"byteOffset":0,"componentType":5126,"count":56,"type":"VEC2"}],"animations":[{"channels":[],"name":"Unreal Take","samplers":[]}],"asset":{"generator":"FBX2glTF v0.13.0","version":"2.0"},"bufferViews":[{"buffer":0,"byteLength":4,"byteOffset":0},{"buffer":0,"byteLength":11136,"byteOffset":4,"target":34963},{"buffer":0,"byteLength":33408,"byteOffset":11140,"target":34962},{"buffer":0,"byteLength":33408,"byteOffset":44548,"target":34962},{"buffer":0,"byteLength":44544,"byteOffset":77956,"target":34962},{"buffer":0,"byteLength":22272,"byteOffset":122500,"target":34962},{"buffer":0,"byteLength":22272,"byteOffset":144772,"target":34962},{"buffer":0,"byteLength":8352,"byteOffset":167044,"target":34963},{"buffer":0,"byteLength":26628,"byteOffset":175396,"target":34962},{"buffer":0,"byteLength":26628,"byteOffset":202024,"target":34962},{"buffer":0,"byteLength":35504,"byteOffset":228652,"target":34962},{"buffer":0,"byteLength":17752,"byteOffset":264156,"target":34962},{"buffer":0,"byteLength":17752,"byteOffset":281908,"target":34962},{"buffer":0,"byteLength":5568,"byteOffset":299660,"target":34963},{"buffer":0,"byteLength":17208,"byteOffset":305228,"target":34962},{"buffer":0,"byteLength":17208,"byteOffset":322436,"target":34962},{"buffer":0,"byteLength":22944,"byteOffset":339644,"target":34962},{"buffer":0,"byteLength":11472,"byteOffset":362588,"target":34962},{"buffer":0,"byteLength":11472,"byteOffset":374060,"target":34962},{"buffer":0,"byteLength":1386,"byteOffset":385532,"target":34963},{"buffer":0,"byteLength":2820,"byteOffset":386920,"target":34962},{"buffer":0,"byteLength":2820,"byteOffset":389740,"target":34962},{"buffer":0,"byteLength":3760,"byteOffset":392560,"target":34962},{"buffer":0,"byteLength":1880,"byteOffset":396320,"target":34962},{"buffer":0,"byteLength":1880,"byteOffset":398200,"target":34962},{"buffer":0,"byteLength":576,"byteOffset":400080,"target":34963},{"buffer":0,"byteLength":672,"byteOffset":400656,"target":34962},{"buffer":0,"byteLength":672,"byteOffset":401328,"target":34962},{"buffer":0,"byteLength":448,"byteOffset":402000,"target":34962},{"buffer":0,"byteLength":448,"byteOffset":402448,"target":34962}],"buffers":[{"byteLength":402896,"uri":"SM_Saw_03.bin"}],"images":[{"name":"T_Tools_N","uri":"T_Tools_N.png"},{"name":"T_Tools_B","uri":"T_Tools_B.png"}],"materials":[{"alphaMode":"OPAQUE","doubleSided":false,"extras":{"fromFBX":{"isTruePBR":false,"shadingModel":"Phong"}},"name":"MI_Tools_02","normalTexture":{"index":0,"texCoord":0},"pbrMetallicRoughness":{"baseColorFactor":[1,1,1,1],"baseColorTexture":{"index":1,"texCoord":0},"metallicFactor":0.400000005960464,"roughnessFactor":0.301511347293854}},{"alphaMode":"OPAQUE","doubleSided":false,"extras":{"fromFBX":{"isTruePBR":false,"shadingModel":"Lambert"}},"name":"DefaultMaterial","pbrMetallicRoughness":{"baseColorFactor":[0.5,0.5,0.5,1],"metallicFactor":0.200000002980232,"roughnessFactor":0.800000011920929}}],"meshes":[{"name":"SM_Saw_03_LOD0","primitives":[{"attributes":{"NORMAL":3,"POSITION":2,"TANGENT":4,"TEXCOORD_0":5,"TEXCOORD_1":6},"indices":1,"material":0,"mode":4}]},{"name":"SM_Saw_03_LOD1","primitives":[{"attributes":{"NORMAL":9,"POSITION":8,"TANGENT":10,"TEXCOORD_0":11,"TEXCOORD_1":12},"indices":7,"material":0,"mode":4}]},{"name":"SM_Saw_03_LOD2","primitives":[{"attributes":{"NORMAL":15,"POSITION":14,"TANGENT":16,"TEXCOORD_0":17,"TEXCOORD_1":18},"indices":13,"material":0,"mode":4}]},{"name":"SM_Saw_03_LOD3","primitives":[{"attributes":{"NORMAL":21,"POSITION":20,"TANGENT":22,"TEXCOORD_0":23,"TEXCOORD_1":24},"indices":19,"material":0,"mode":4}]},{"name":"SM_Saw_03_ConvexHulls","primitives":[{"attributes":{"NORMAL":27,"POSITION":26,"TEXCOORD_0":28,"TEXCOORD_1":29},"indices":25,"material":1,"mode":4}]}],"nodes":[{"children":[1,2,3,4,5],"name":"SM_Saw_77","originalUnits":0.00999999977648258,"pivot":[0,0,0],"rotation":[0,0,0,1],"scale":[1,1,1],"translation":[0,0,0]},{"mesh":0,"name":"SM_Saw_03_LOD0","originalUnits":0.00999999977648258,"pivot":[0,0,0],"rotation":[0,0,0,1],"scale":[1,1,1],"translation":[0,0,0]},{"mesh":4,"name":"SM_Saw_03_ConvexHulls","originalUnits":0.00999999977648258,"pivot":[0,0,0],"rotation":[0,0,0,1],"scale":[1,1,1],"translation":[0,0,0]},{"mesh":1,"name":"SM_Saw_03_LOD1","originalUnits":0.00999999977648258,"pivot":[0,0,0],"rotation":[0,0,0,1],"scale":[1,1,1],"translation":[0,0,0]},{"mesh":2,"name":"SM_Saw_03_LOD2","originalUnits":0.00999999977648258,"pivot":[0,0,0],"rotation":[0,0,0,1],"scale":[1,1,1],"translation":[0,0,0]},{"mesh":3,"name":"SM_Saw_03_LOD3","originalUnits":0.00999999977648258,"pivot":[0,0,0],"rotation":[0,0,0,1],"scale":[1,1,1],"translation":[0,0,0]}],"samplers":[{}],"scene":0,"scenes":[{"name":"Root Scene","nodes":[0]}],"textures":[{"name":"MI_Tools_02","sampler":0,"source":0},{"name":"MI_Tools_02","sampler":0,"source":1}]}