{"accessors":[{"bufferView":0,"byteOffset":0,"componentType":5126,"count":1,"max":[0],"min":[0],"type":"SCALAR"},{"bufferView":1,"byteOffset":0,"componentType":5123,"count":5760,"type":"SCALAR"},{"bufferView":2,"byteOffset":0,"componentType":5126,"count":1088,"max":[0.0885935127735138,0.210649594664574,0.0885931402444839],"min":[-0.08859337866306,-0.00309460726567,-0.08859314024448],"type":"VEC3"},{"bufferView":3,"byteOffset":0,"componentType":5126,"count":1088,"type":"VEC3"},{"bufferView":4,"byteOffset":0,"componentType":5126,"count":1088,"type":"VEC4"},{"bufferView":5,"byteOffset":0,"componentType":5126,"count":1088,"type":"VEC2"},{"bufferView":6,"byteOffset":0,"componentType":5126,"count":1088,"type":"VEC2"},{"bufferView":7,"byteOffset":0,"componentType":5123,"count":4320,"type":"SCALAR"},{"bufferView":8,"byteOffset":0,"componentType":5126,"count":848,"max":[0.0887206569314003,0.210649594664574,0.0887620225548744],"min":[-0.08872040361166,-0.00309460726567,-0.08875548094511],"type":"VEC3"},{"bufferView":9,"byteOffset":0,"componentType":5126,"count":848,"type":"VEC3"},{"bufferView":10,"byteOffset":0,"componentType":5126,"count":848,"type":"VEC4"},{"bufferView":11,"byteOffset":0,"componentType":5126,"count":848,"type":"VEC2"},{"bufferView":12,"byteOffset":0,"componentType":5126,"count":848,"type":"VEC2"},{"bufferView":13,"byteOffset":0,"componentType":5123,"count":2880,"type":"SCALAR"},{"bufferView":14,"byteOffset":0,"componentType":5126,"count":593,"max":[0.0900531113147736,0.210649728775024,0.0889030694961548],"min":[-0.09000938385725,-0.00309460726567,-0.08875548094511],"type":"VEC3"},{"bufferView":15,"byteOffset":0,"componentType":5126,"count":593,"type":"VEC3"},{"bufferView":16,"byteOffset":0,"componentType":5126,"count":593,"type":"VEC4"},{"bufferView":17,"byteOffset":0,"componentType":5126,"count":593,"type":"VEC2"},{"bufferView":18,"byteOffset":0,"componentType":5126,"count":593,"type":"VEC2"},{"bufferView":19,"byteOffset":0,"componentType":5123,"count":720,"type":"SCALAR"},{"bufferView":20,"byteOffset":0,"componentType":5126,"count":170,"max":[0.0920052602887154,0.210896164178848,0.0892652496695518],"min":[-0.09321969002485,-0.00510948291048,-0.0882781073451],"type":"VEC3"},{"bufferView":21,"byteOffset":0,"componentType":5126,"count":170,"type":"VEC3"},{"bufferView":22,"byteOffset":0,"componentType":5126,"count":170,"type":"VEC4"},{"bufferView":23,"byteOffset":0,"componentType":5126,"count":170,"type":"VEC2"},{"bufferView":24,"byteOffset":0,"componentType":5126,"count":170,"type":"VEC2"},{"bufferView":25,"byteOffset":0,"componentType":5123,"count":84,"type":"SCALAR"},{"bufferView":26,"byteOffset":0,"componentType":5126,"count":16,"max":[0.0859905034303665,0.207672968506813,0.0870916545391083],"min":[-0.08564984053373,-0.00157952762675,-0.08635281026363],"type":"VEC3"},{"bufferView":27,"byteOffset":0,"componentType":5126,"count":16,"type":"VEC3"},{"bufferView":28,"byteOffset":0,"componentType":5126,"count":16,"type":"VEC2"},{"bufferView":29,"byteOffset":0,"componentType":5126,"count":16,"type":"VEC2"}],"animations":[{"channels":[],"name":"Unreal Take","samplers":[]}],"asset":{"generator":"FBX2glTF v0.13.0","version":"2.0"},"bufferViews":[{"buffer":0,"byteLength":4,"byteOffset":0},{"buffer":0,"byteLength":11520,"byteOffset":4,"target":34963},{"buffer":0,"byteLength":13056,"byteOffset":11524,"target":34962},{"buffer":0,"byteLength":13056,"byteOffset":24580,"target":34962},{"buffer":0,"byteLength":17408,"byteOffset":37636,"target":34962},{"buffer":0,"byteLength":8704,"byteOffset":55044,"target":34962},{"buffer":0,"byteLength":8704,"byteOffset":63748,"target":34962},{"buffer":0,"byteLength":8640,"byteOffset":72452,"target":34963},{"buffer":0,"byteLength":10176,"byteOffset":81092,"target":34962},{"buffer":0,"byteLength":10176,"byteOffset":91268,"target":34962},{"buffer":0,"byteLength":13568,"byteOffset":101444,"target":34962},{"buffer":0,"byteLength":6784,"byteOffset":115012,"target":34962},{"buffer":0,"byteLength":6784,"byteOffset":121796,"target":34962},{"buffer":0,"byteLength":5760,"byteOffset":128580,"target":34963},{"buffer":0,"byteLength":7116,"byteOffset":134340,"target":34962},{"buffer":0,"byteLength":7116,"byteOffset":141456,"target":34962},{"buffer":0,"byteLength":9488,"byteOffset":148572,"target":34962},{"buffer":0,"byteLength":4744,"byteOffset":158060,"target":34962},{"buffer":0,"byteLength":4744,"byteOffset":162804,"target":34962},{"buffer":0,"byteLength":1440,"byteOffset":167548,"target":34963},{"buffer":0,"byteLength":2040,"byteOffset":168988,"target":34962},{"buffer":0,"byteLength":2040,"byteOffset":171028,"target":34962},{"buffer":0,"byteLength":2720,"byteOffset":173068,"target":34962},{"buffer":0,"byteLength":1360,"byteOffset":175788,"target":34962},{"buffer":0,"byteLength":1360,"byteOffset":177148,"target":34962},{"buffer":0,"byteLength":168,"byteOffset":178508,"target":34963},{"buffer":0,"byteLength":192,"byteOffset":178676,"target":34962},{"buffer":0,"byteLength":192,"byteOffset":178868,"target":34962},{"buffer":0,"byteLength":128,"byteOffset":179060,"target":34962},{"buffer":0,"byteLength":128,"byteOffset":179188,"target":34962}],"buffers":[{"byteLength":179316,"uri":"SM_Tin_09.bin"}],"images":[{"name":"T_Tools_N","uri":"T_Tools_N.png"},{"name":"T_Tools_B","uri":"T_Tools_B.png"}],"materials":[{"alphaMode":"OPAQUE","doubleSided":false,"extras":{"fromFBX":{"isTruePBR":false,"shadingModel":"Phong"}},"name":"MI_Tools_01","normalTexture":{"index":0,"texCoord":0},"pbrMetallicRoughness":{"baseColorFactor":[1,1,1,1],"baseColorTexture":{"index":1,"texCoord":0},"metallicFactor":0.400000005960464,"roughnessFactor":0.301511347293854}},{"alphaMode":"OPAQUE","doubleSided":false,"extras":{"fromFBX":{"isTruePBR":false,"shadingModel":"Lambert"}},"name":"DefaultMaterial","pbrMetallicRoughness":{"baseColorFactor":[0.5,0.5,0.5,1],"metallicFactor":0.200000002980232,"roughnessFactor":0.800000011920929}}],"meshes":[{"name":"SM_Tin_09_LOD0","primitives":[{"attributes":{"NORMAL":3,"POSITION":2,"TANGENT":4,"TEXCOORD_0":5,"TEXCOORD_1":6},"indices":1,"material":0,"mode":4}]},{"name":"SM_Tin_09_LOD1","primitives":[{"attributes":{"NORMAL":9,"POSITION":8,"TANGENT":10,"TEXCOORD_0":11,"TEXCOORD_1":12},"indices":7,"material":0,"mode":4}]},{"name":"SM_Tin_09_LOD2","primitives":[{"attributes":{"NORMAL":15,"POSITION":14,"TANGENT":16,"TEXCOORD_0":17,"TEXCOORD_1":18},"indices":13,"material":0,"mode":4}]},{"name":"SM_Tin_09_LOD3","primitives":[{"attributes":{"NORMAL":21,"POSITION":20,"TANGENT":22,"TEXCOORD_0":23,"TEXCOORD_1":24},"indices":19,"material":0,"mode":4}]},{"name":"SM_Tin_09_ConvexHulls","primitives":[{"attributes":{"NORMAL":27,"POSITION":26,"TEXCOORD_0":28,"TEXCOORD_1":29},"indices":25,"material":1,"mode":4}]}],"nodes":[{"children":[1,2,3,4,5],"name":"SM_Tin_109","originalUnits":0.00999999977648258,"pivot":[0,0,0],"rotation":[0,0,0,1],"scale":[1,1,1],"translation":[0,0,0]},{"mesh":0,"name":"SM_Tin_09_LOD0","originalUnits":0.00999999977648258,"pivot":[0,0,0],"rotation":[0,0,0,1],"scale":[1,1,1],"translation":[0,0,0]},{"mesh":4,"name":"SM_Tin_09_ConvexHulls","originalUnits":0.00999999977648258,"pivot":[0,0,0],"rotation":[0,0,0,1],"scale":[1,1,1],"translation":[0,0,0]},{"mesh":1,"name":"SM_Tin_09_LOD1","originalUnits":0.00999999977648258,"pivot":[0,0,0],"rotation":[0,0,0,1],"scale":[1,1,1],"translation":[0,0,0]},{"mesh":2,"name":"SM_Tin_09_LOD2","originalUnits":0.00999999977648258,"pivot":[0,0,0],"rotation":[0,0,0,1],"scale":[1,1,1],"translation":[0,0,0]},{"mesh":3,"name":"SM_Tin_09_LOD3","originalUnits":0.00999999977648258,"pivot":[0,0,0],"rotation":[0,0,0,1],"scale":[1,1,1],"translation":[0,0,0]}],"samplers":[{}],"scene":0,"scenes":[{"name":"Root Scene","nodes":[0]}],"textures":[{"name":"MI_Tools_01","sampler":0,"source":0},{"name":"MI_Tools_01","sampler":0,"source":1}]}