{"accessors":[{"bufferView":0,"byteOffset":0,"componentType":5126,"count":1,"max":[0],"min":[0],"type":"SCALAR"},{"bufferView":1,"byteOffset":0,"componentType":5123,"count":1266,"type":"SCALAR"},{"bufferView":2,"byteOffset":0,"componentType":5126,"count":287,"max":[0.02229736559093,0.188000172376633,0.0260628499090672],"min":[-0.02229736000299,-0.18800017237663,-0.02606284990907],"type":"VEC3"},{"bufferView":3,"byteOffset":0,"componentType":5126,"count":287,"type":"VEC3"},{"bufferView":4,"byteOffset":0,"componentType":5126,"count":287,"type":"VEC4"},{"bufferView":5,"byteOffset":0,"componentType":5126,"count":287,"type":"VEC2"},{"bufferView":6,"byteOffset":0,"componentType":5126,"count":287,"type":"VEC2"},{"bufferView":7,"byteOffset":0,"componentType":5123,"count":948,"type":"SCALAR"},{"bufferView":8,"byteOffset":0,"componentType":5126,"count":226,"max":[0.0222516320645809,0.18801586329937,0.0260628499090672],"min":[-0.02225055173039,-0.18800017237663,-0.02606284990907],"type":"VEC3"},{"bufferView":9,"byteOffset":0,"componentType":5126,"count":226,"type":"VEC3"},{"bufferView":10,"byteOffset":0,"componentType":5126,"count":226,"type":"VEC4"},{"bufferView":11,"byteOffset":0,"componentType":5126,"count":226,"type":"VEC2"},{"bufferView":12,"byteOffset":0,"componentType":5126,"count":226,"type":"VEC2"},{"bufferView":13,"byteOffset":0,"componentType":5123,"count":630,"type":"SCALAR"},{"bufferView":14,"byteOffset":0,"componentType":5126,"count":165,"max":[0.0223635081201792,0.188122138381004,0.0264368951320648],"min":[-0.02246513031423,-0.18800017237663,-0.0265351627022],"type":"VEC3"},{"bufferView":15,"byteOffset":0,"componentType":5126,"count":165,"type":"VEC3"},{"bufferView":16,"byteOffset":0,"componentType":5126,"count":165,"type":"VEC4"},{"bufferView":17,"byteOffset":0,"componentType":5126,"count":165,"type":"VEC2"},{"bufferView":18,"byteOffset":0,"componentType":5126,"count":165,"type":"VEC2"},{"bufferView":19,"byteOffset":0,"componentType":5123,"count":156,"type":"SCALAR"},{"bufferView":20,"byteOffset":0,"componentType":5126,"count":61,"max":[0.0205080695450306,0.190342932939529,0.0266075395047665],"min":[-0.01781184598804,-0.18800017237663,-0.02747747302055],"type":"VEC3"},{"bufferView":21,"byteOffset":0,"componentType":5126,"count":61,"type":"VEC3"},{"bufferView":22,"byteOffset":0,"componentType":5126,"count":61,"type":"VEC4"},{"bufferView":23,"byteOffset":0,"componentType":5126,"count":61,"type":"VEC2"},{"bufferView":24,"byteOffset":0,"componentType":5126,"count":61,"type":"VEC2"},{"bufferView":25,"byteOffset":0,"componentType":5123,"count":162,"type":"SCALAR"},{"bufferView":26,"byteOffset":0,"componentType":5126,"count":31,"max":[0.0205045007169247,0.186259686946869,0.0253107286989689],"min":[-0.02214678749442,-0.18892632424831,-0.02488509379327],"type":"VEC3"},{"bufferView":27,"byteOffset":0,"componentType":5126,"count":31,"type":"VEC3"},{"bufferView":28,"byteOffset":0,"componentType":5126,"count":31,"type":"VEC2"},{"bufferView":29,"byteOffset":0,"componentType":5126,"count":31,"type":"VEC2"}],"animations":[{"channels":[],"name":"Unreal Take","samplers":[]}],"asset":{"generator":"FBX2glTF v0.13.0","version":"2.0"},"bufferViews":[{"buffer":0,"byteLength":4,"byteOffset":0},{"buffer":0,"byteLength":2532,"byteOffset":4,"target":34963},{"buffer":0,"byteLength":3444,"byteOffset":2536,"target":34962},{"buffer":0,"byteLength":3444,"byteOffset":5980,"target":34962},{"buffer":0,"byteLength":4592,"byteOffset":9424,"target":34962},{"buffer":0,"byteLength":2296,"byteOffset":14016,"target":34962},{"buffer":0,"byteLength":2296,"byteOffset":16312,"target":34962},{"buffer":0,"byteLength":1896,"byteOffset":18608,"target":34963},{"buffer":0,"byteLength":2712,"byteOffset":20504,"target":34962},{"buffer":0,"byteLength":2712,"byteOffset":23216,"target":34962},{"buffer":0,"byteLength":3616,"byteOffset":25928,"target":34962},{"buffer":0,"byteLength":1808,"byteOffset":29544,"target":34962},{"buffer":0,"byteLength":1808,"byteOffset":31352,"target":34962},{"buffer":0,"byteLength":1260,"byteOffset":33160,"target":34963},{"buffer":0,"byteLength":1980,"byteOffset":34420,"target":34962},{"buffer":0,"byteLength":1980,"byteOffset":36400,"target":34962},{"buffer":0,"byteLength":2640,"byteOffset":38380,"target":34962},{"buffer":0,"byteLength":1320,"byteOffset":41020,"target":34962},{"buffer":0,"byteLength":1320,"byteOffset":42340,"target":34962},{"buffer":0,"byteLength":312,"byteOffset":43660,"target":34963},{"buffer":0,"byteLength":732,"byteOffset":43972,"target":34962},{"buffer":0,"byteLength":732,"byteOffset":44704,"target":34962},{"buffer":0,"byteLength":976,"byteOffset":45436,"target":34962},{"buffer":0,"byteLength":488,"byteOffset":46412,"target":34962},{"buffer":0,"byteLength":488,"byteOffset":46900,"target":34962},{"buffer":0,"byteLength":324,"byteOffset":47388,"target":34963},{"buffer":0,"byteLength":372,"byteOffset":47712,"target":34962},{"buffer":0,"byteLength":372,"byteOffset":48084,"target":34962},{"buffer":0,"byteLength":248,"byteOffset":48456,"target":34962},{"buffer":0,"byteLength":248,"byteOffset":48704,"target":34962}],"buffers":[{"byteLength":48952,"uri":"SM_Tool_4.bin"}],"images":[{"name":"T_Tools_N","uri":"T_Tools_N.png"},{"name":"T_Tools_B","uri":"T_Tools_B.png"}],"materials":[{"alphaMode":"OPAQUE","doubleSided":false,"extras":{"fromFBX":{"isTruePBR":false,"shadingModel":"Phong"}},"name":"MI_Tools_02","normalTexture":{"index":0,"texCoord":0},"pbrMetallicRoughness":{"baseColorFactor":[1,1,1,1],"baseColorTexture":{"index":1,"texCoord":0},"metallicFactor":0.400000005960464,"roughnessFactor":0.301511347293854}},{"alphaMode":"OPAQUE","doubleSided":false,"extras":{"fromFBX":{"isTruePBR":false,"shadingModel":"Lambert"}},"name":"DefaultMaterial","pbrMetallicRoughness":{"baseColorFactor":[0.5,0.5,0.5,1],"metallicFactor":0.200000002980232,"roughnessFactor":0.800000011920929}}],"meshes":[{"name":"SM_Tool_4_LOD0","primitives":[{"attributes":{"NORMAL":3,"POSITION":2,"TANGENT":4,"TEXCOORD_0":5,"TEXCOORD_1":6},"indices":1,"material":0,"mode":4}]},{"name":"SM_Tool_4_LOD1","primitives":[{"attributes":{"NORMAL":9,"POSITION":8,"TANGENT":10,"TEXCOORD_0":11,"TEXCOORD_1":12},"indices":7,"material":0,"mode":4}]},{"name":"SM_Tool_4_LOD2","primitives":[{"attributes":{"NORMAL":15,"POSITION":14,"TANGENT":16,"TEXCOORD_0":17,"TEXCOORD_1":18},"indices":13,"material":0,"mode":4}]},{"name":"SM_Tool_4_LOD3","primitives":[{"attributes":{"NORMAL":21,"POSITION":20,"TANGENT":22,"TEXCOORD_0":23,"TEXCOORD_1":24},"indices":19,"material":0,"mode":4}]},{"name":"SM_Tool_4_ConvexHulls","primitives":[{"attributes":{"NORMAL":27,"POSITION":26,"TEXCOORD_0":28,"TEXCOORD_1":29},"indices":25,"material":1,"mode":4}]}],"nodes":[{"children":[1,2,3,4,5],"name":"SM_Tool_113","originalUnits":0.00999999977648258,"pivot":[0,0,0],"rotation":[0,0,0,1],"scale":[1,1,1],"translation":[0,0,0]},{"mesh":0,"name":"SM_Tool_4_LOD0","originalUnits":0.00999999977648258,"pivot":[0,0,0],"rotation":[0,0,0,1],"scale":[1,1,1],"translation":[0,0,0]},{"mesh":4,"name":"SM_Tool_4_ConvexHulls","originalUnits":0.00999999977648258,"pivot":[0,0,0],"rotation":[0,0,0,1],"scale":[1,1,1],"translation":[0,0,0]},{"mesh":1,"name":"SM_Tool_4_LOD1","originalUnits":0.00999999977648258,"pivot":[0,0,0],"rotation":[0,0,0,1],"scale":[1,1,1],"translation":[0,0,0]},{"mesh":2,"name":"SM_Tool_4_LOD2","originalUnits":0.00999999977648258,"pivot":[0,0,0],"rotation":[0,0,0,1],"scale":[1,1,1],"translation":[0,0,0]},{"mesh":3,"name":"SM_Tool_4_LOD3","originalUnits":0.00999999977648258,"pivot":[0,0,0],"rotation":[0,0,0,1],"scale":[1,1,1],"translation":[0,0,0]}],"samplers":[{}],"scene":0,"scenes":[{"name":"Root Scene","nodes":[0]}],"textures":[{"name":"MI_Tools_02","sampler":0,"source":0},{"name":"MI_Tools_02","sampler":0,"source":1}]}