{"accessors":[{"bufferView":0,"byteOffset":0,"componentType":5126,"count":1,"max":[0],"min":[0],"type":"SCALAR"},{"bufferView":1,"byteOffset":0,"componentType":5123,"count":1020,"type":"SCALAR"},{"bufferView":2,"byteOffset":0,"componentType":5126,"count":228,"max":[0.0276480112224817,0.191388100385666,0.026062773540616],"min":[-0.02764800749719,-0.19138810038567,-0.02606277354062],"type":"VEC3"},{"bufferView":3,"byteOffset":0,"componentType":5126,"count":228,"type":"VEC3"},{"bufferView":4,"byteOffset":0,"componentType":5126,"count":228,"type":"VEC4"},{"bufferView":5,"byteOffset":0,"componentType":5126,"count":228,"type":"VEC2"},{"bufferView":6,"byteOffset":0,"componentType":5126,"count":228,"type":"VEC2"},{"bufferView":7,"byteOffset":0,"componentType":5123,"count":762,"type":"SCALAR"},{"bufferView":8,"byteOffset":0,"componentType":5126,"count":179,"max":[0.0276480112224817,0.191388100385666,0.026062773540616],"min":[-0.02764800749719,-0.19138810038567,-0.02606277354062],"type":"VEC3"},{"bufferView":9,"byteOffset":0,"componentType":5126,"count":179,"type":"VEC3"},{"bufferView":10,"byteOffset":0,"componentType":5126,"count":179,"type":"VEC4"},{"bufferView":11,"byteOffset":0,"componentType":5126,"count":179,"type":"VEC2"},{"bufferView":12,"byteOffset":0,"componentType":5126,"count":179,"type":"VEC2"},{"bufferView":13,"byteOffset":0,"componentType":5123,"count":510,"type":"SCALAR"},{"bufferView":14,"byteOffset":0,"componentType":5126,"count":128,"max":[0.0276480112224817,0.191388100385666,0.026062773540616],"min":[-0.02764800749719,-0.19363941252232,-0.02606277354062],"type":"VEC3"},{"bufferView":15,"byteOffset":0,"componentType":5126,"count":128,"type":"VEC3"},{"bufferView":16,"byteOffset":0,"componentType":5126,"count":128,"type":"VEC4"},{"bufferView":17,"byteOffset":0,"componentType":5126,"count":128,"type":"VEC2"},{"bufferView":18,"byteOffset":0,"componentType":5126,"count":128,"type":"VEC2"},{"bufferView":19,"byteOffset":0,"componentType":5123,"count":126,"type":"SCALAR"},{"bufferView":20,"byteOffset":0,"componentType":5126,"count":50,"max":[0.0306757800281048,0.185751467943192,0.0273701753467321],"min":[-0.0276711191982,-0.19138810038567,-0.02866883762181],"type":"VEC3"},{"bufferView":21,"byteOffset":0,"componentType":5126,"count":50,"type":"VEC3"},{"bufferView":22,"byteOffset":0,"componentType":5126,"count":50,"type":"VEC4"},{"bufferView":23,"byteOffset":0,"componentType":5126,"count":50,"type":"VEC2"},{"bufferView":24,"byteOffset":0,"componentType":5126,"count":50,"type":"VEC2"},{"bufferView":25,"byteOffset":0,"componentType":5123,"count":180,"type":"SCALAR"},{"bufferView":26,"byteOffset":0,"componentType":5126,"count":32,"max":[0.0286480057984591,0.192388117313385,0.0270627774298191],"min":[-0.02864800579846,-0.1923880726099,-0.02706277742982],"type":"VEC3"},{"bufferView":27,"byteOffset":0,"componentType":5126,"count":32,"type":"VEC3"},{"bufferView":28,"byteOffset":0,"componentType":5126,"count":32,"type":"VEC2"},{"bufferView":29,"byteOffset":0,"componentType":5126,"count":32,"type":"VEC2"}],"animations":[{"channels":[],"name":"Unreal Take","samplers":[]}],"asset":{"generator":"FBX2glTF v0.13.0","version":"2.0"},"bufferViews":[{"buffer":0,"byteLength":4,"byteOffset":0},{"buffer":0,"byteLength":2040,"byteOffset":4,"target":34963},{"buffer":0,"byteLength":2736,"byteOffset":2044,"target":34962},{"buffer":0,"byteLength":2736,"byteOffset":4780,"target":34962},{"buffer":0,"byteLength":3648,"byteOffset":7516,"target":34962},{"buffer":0,"byteLength":1824,"byteOffset":11164,"target":34962},{"buffer":0,"byteLength":1824,"byteOffset":12988,"target":34962},{"buffer":0,"byteLength":1524,"byteOffset":14812,"target":34963},{"buffer":0,"byteLength":2148,"byteOffset":16336,"target":34962},{"buffer":0,"byteLength":2148,"byteOffset":18484,"target":34962},{"buffer":0,"byteLength":2864,"byteOffset":20632,"target":34962},{"buffer":0,"byteLength":1432,"byteOffset":23496,"target":34962},{"buffer":0,"byteLength":1432,"byteOffset":24928,"target":34962},{"buffer":0,"byteLength":1020,"byteOffset":26360,"target":34963},{"buffer":0,"byteLength":1536,"byteOffset":27380,"target":34962},{"buffer":0,"byteLength":1536,"byteOffset":28916,"target":34962},{"buffer":0,"byteLength":2048,"byteOffset":30452,"target":34962},{"buffer":0,"byteLength":1024,"byteOffset":32500,"target":34962},{"buffer":0,"byteLength":1024,"byteOffset":33524,"target":34962},{"buffer":0,"byteLength":252,"byteOffset":34548,"target":34963},{"buffer":0,"byteLength":600,"byteOffset":34800,"target":34962},{"buffer":0,"byteLength":600,"byteOffset":35400,"target":34962},{"buffer":0,"byteLength":800,"byteOffset":36000,"target":34962},{"buffer":0,"byteLength":400,"byteOffset":36800,"target":34962},{"buffer":0,"byteLength":400,"byteOffset":37200,"target":34962},{"buffer":0,"byteLength":360,"byteOffset":37600,"target":34963},{"buffer":0,"byteLength":384,"byteOffset":37960,"target":34962},{"buffer":0,"byteLength":384,"byteOffset":38344,"target":34962},{"buffer":0,"byteLength":256,"byteOffset":38728,"target":34962},{"buffer":0,"byteLength":256,"byteOffset":38984,"target":34962}],"buffers":[{"byteLength":39240,"uri":"SM_Tool_16.bin"}],"images":[{"name":"T_Tools_N","uri":"T_Tools_N.png"},{"name":"T_Tools_B","uri":"T_Tools_B.png"}],"materials":[{"alphaMode":"OPAQUE","doubleSided":false,"extras":{"fromFBX":{"isTruePBR":false,"shadingModel":"Phong"}},"name":"MI_Tools_02","normalTexture":{"index":0,"texCoord":0},"pbrMetallicRoughness":{"baseColorFactor":[1,1,1,1],"baseColorTexture":{"index":1,"texCoord":0},"metallicFactor":0.400000005960464,"roughnessFactor":0.301511347293854}},{"alphaMode":"OPAQUE","doubleSided":false,"extras":{"fromFBX":{"isTruePBR":false,"shadingModel":"Lambert"}},"name":"DefaultMaterial","pbrMetallicRoughness":{"baseColorFactor":[0.5,0.5,0.5,1],"metallicFactor":0.200000002980232,"roughnessFactor":0.800000011920929}}],"meshes":[{"name":"SM_Tool_16_LOD0","primitives":[{"attributes":{"NORMAL":3,"POSITION":2,"TANGENT":4,"TEXCOORD_0":5,"TEXCOORD_1":6},"indices":1,"material":0,"mode":4}]},{"name":"SM_Tool_16_LOD1","primitives":[{"attributes":{"NORMAL":9,"POSITION":8,"TANGENT":10,"TEXCOORD_0":11,"TEXCOORD_1":12},"indices":7,"material":0,"mode":4}]},{"name":"SM_Tool_16_LOD2","primitives":[{"attributes":{"NORMAL":15,"POSITION":14,"TANGENT":16,"TEXCOORD_0":17,"TEXCOORD_1":18},"indices":13,"material":0,"mode":4}]},{"name":"SM_Tool_16_LOD3","primitives":[{"attributes":{"NORMAL":21,"POSITION":20,"TANGENT":22,"TEXCOORD_0":23,"TEXCOORD_1":24},"indices":19,"material":0,"mode":4}]},{"name":"SM_Tool_16_ConvexHulls","primitives":[{"attributes":{"NORMAL":27,"POSITION":26,"TEXCOORD_0":28,"TEXCOORD_1":29},"indices":25,"material":1,"mode":4}]}],"nodes":[{"children":[1,2,3,4,5],"name":"SM_Tool_125","originalUnits":0.00999999977648258,"pivot":[0,0,0],"rotation":[0,0,0,1],"scale":[1,1,1],"translation":[0,0,0]},{"mesh":0,"name":"SM_Tool_16_LOD0","originalUnits":0.00999999977648258,"pivot":[0,0,0],"rotation":[0,0,0,1],"scale":[1,1,1],"translation":[0,0,0]},{"mesh":4,"name":"SM_Tool_16_ConvexHulls","originalUnits":0.00999999977648258,"pivot":[0,0,0],"rotation":[0,0,0,1],"scale":[1,1,1],"translation":[0,0,0]},{"mesh":1,"name":"SM_Tool_16_LOD1","originalUnits":0.00999999977648258,"pivot":[0,0,0],"rotation":[0,0,0,1],"scale":[1,1,1],"translation":[0,0,0]},{"mesh":2,"name":"SM_Tool_16_LOD2","originalUnits":0.00999999977648258,"pivot":[0,0,0],"rotation":[0,0,0,1],"scale":[1,1,1],"translation":[0,0,0]},{"mesh":3,"name":"SM_Tool_16_LOD3","originalUnits":0.00999999977648258,"pivot":[0,0,0],"rotation":[0,0,0,1],"scale":[1,1,1],"translation":[0,0,0]}],"samplers":[{}],"scene":0,"scenes":[{"name":"Root Scene","nodes":[0]}],"textures":[{"name":"MI_Tools_02","sampler":0,"source":0},{"name":"MI_Tools_02","sampler":0,"source":1}]}