{"accessors":[{"bufferView":0,"byteOffset":0,"componentType":5126,"count":1,"max":[0],"min":[0],"type":"SCALAR"},{"bufferView":1,"byteOffset":0,"componentType":5123,"count":2910,"type":"SCALAR"},{"bufferView":2,"byteOffset":0,"componentType":5126,"count":597,"max":[0.0216754171997309,0.166814491152763,0.0216754358261824],"min":[-0.0216754116118,-0.16681449115276,-0.02167539298534],"type":"VEC3"},{"bufferView":3,"byteOffset":0,"componentType":5126,"count":597,"type":"VEC3"},{"bufferView":4,"byteOffset":0,"componentType":5126,"count":597,"type":"VEC4"},{"bufferView":5,"byteOffset":0,"componentType":5126,"count":597,"type":"VEC2"},{"bufferView":6,"byteOffset":0,"componentType":5126,"count":597,"type":"VEC2"},{"bufferView":7,"byteOffset":0,"componentType":5123,"count":2184,"type":"SCALAR"},{"bufferView":8,"byteOffset":0,"componentType":5126,"count":455,"max":[0.0212237574160099,0.166814491152763,0.0212291572242975],"min":[-0.02122473157942,-0.16681449115276,-0.02122807689011],"type":"VEC3"},{"bufferView":9,"byteOffset":0,"componentType":5126,"count":455,"type":"VEC3"},{"bufferView":10,"byteOffset":0,"componentType":5126,"count":455,"type":"VEC4"},{"bufferView":11,"byteOffset":0,"componentType":5126,"count":455,"type":"VEC2"},{"bufferView":12,"byteOffset":0,"componentType":5126,"count":455,"type":"VEC2"},{"bufferView":13,"byteOffset":0,"componentType":5123,"count":1452,"type":"SCALAR"},{"bufferView":14,"byteOffset":0,"componentType":5126,"count":325,"max":[0.0212239865213633,0.166814491152763,0.0212291572242975],"min":[-0.02109740674496,-0.16681449115276,-0.02122807689011],"type":"VEC3"},{"bufferView":15,"byteOffset":0,"componentType":5126,"count":325,"type":"VEC3"},{"bufferView":16,"byteOffset":0,"componentType":5126,"count":325,"type":"VEC4"},{"bufferView":17,"byteOffset":0,"componentType":5126,"count":325,"type":"VEC2"},{"bufferView":18,"byteOffset":0,"componentType":5126,"count":325,"type":"VEC2"},{"bufferView":19,"byteOffset":0,"componentType":5123,"count":366,"type":"SCALAR"},{"bufferView":20,"byteOffset":0,"componentType":5126,"count":99,"max":[0.022245304659009,0.170977547764778,0.0233018156141043],"min":[-0.02270671725273,-0.16437511146069,-0.02118070982397],"type":"VEC3"},{"bufferView":21,"byteOffset":0,"componentType":5126,"count":99,"type":"VEC3"},{"bufferView":22,"byteOffset":0,"componentType":5126,"count":99,"type":"VEC4"},{"bufferView":23,"byteOffset":0,"componentType":5126,"count":99,"type":"VEC2"},{"bufferView":24,"byteOffset":0,"componentType":5126,"count":99,"type":"VEC2"},{"bufferView":25,"byteOffset":0,"componentType":5123,"count":288,"type":"SCALAR"},{"bufferView":26,"byteOffset":0,"componentType":5126,"count":56,"max":[0.0201050043106079,0.164579421281815,0.018152741715312],"min":[-0.01991728506982,-0.16756244003773,-0.02119405008852],"type":"VEC3"},{"bufferView":27,"byteOffset":0,"componentType":5126,"count":56,"type":"VEC3"},{"bufferView":28,"byteOffset":0,"componentType":5126,"count":56,"type":"VEC2"},{"bufferView":29,"byteOffset":0,"componentType":5126,"count":56,"type":"VEC2"}],"animations":[{"channels":[],"name":"Unreal Take","samplers":[]}],"asset":{"generator":"FBX2glTF v0.13.0","version":"2.0"},"bufferViews":[{"buffer":0,"byteLength":4,"byteOffset":0},{"buffer":0,"byteLength":5820,"byteOffset":4,"target":34963},{"buffer":0,"byteLength":7164,"byteOffset":5824,"target":34962},{"buffer":0,"byteLength":7164,"byteOffset":12988,"target":34962},{"buffer":0,"byteLength":9552,"byteOffset":20152,"target":34962},{"buffer":0,"byteLength":4776,"byteOffset":29704,"target":34962},{"buffer":0,"byteLength":4776,"byteOffset":34480,"target":34962},{"buffer":0,"byteLength":4368,"byteOffset":39256,"target":34963},{"buffer":0,"byteLength":5460,"byteOffset":43624,"target":34962},{"buffer":0,"byteLength":5460,"byteOffset":49084,"target":34962},{"buffer":0,"byteLength":7280,"byteOffset":54544,"target":34962},{"buffer":0,"byteLength":3640,"byteOffset":61824,"target":34962},{"buffer":0,"byteLength":3640,"byteOffset":65464,"target":34962},{"buffer":0,"byteLength":2904,"byteOffset":69104,"target":34963},{"buffer":0,"byteLength":3900,"byteOffset":72008,"target":34962},{"buffer":0,"byteLength":3900,"byteOffset":75908,"target":34962},{"buffer":0,"byteLength":5200,"byteOffset":79808,"target":34962},{"buffer":0,"byteLength":2600,"byteOffset":85008,"target":34962},{"buffer":0,"byteLength":2600,"byteOffset":87608,"target":34962},{"buffer":0,"byteLength":732,"byteOffset":90208,"target":34963},{"buffer":0,"byteLength":1188,"byteOffset":90940,"target":34962},{"buffer":0,"byteLength":1188,"byteOffset":92128,"target":34962},{"buffer":0,"byteLength":1584,"byteOffset":93316,"target":34962},{"buffer":0,"byteLength":792,"byteOffset":94900,"target":34962},{"buffer":0,"byteLength":792,"byteOffset":95692,"target":34962},{"buffer":0,"byteLength":576,"byteOffset":96484,"target":34963},{"buffer":0,"byteLength":672,"byteOffset":97060,"target":34962},{"buffer":0,"byteLength":672,"byteOffset":97732,"target":34962},{"buffer":0,"byteLength":448,"byteOffset":98404,"target":34962},{"buffer":0,"byteLength":448,"byteOffset":98852,"target":34962}],"buffers":[{"byteLength":99300,"uri":"SM_Tool_19.bin"}],"images":[{"name":"T_Tools_N","uri":"T_Tools_N.png"},{"name":"T_Tools_B","uri":"T_Tools_B.png"}],"materials":[{"alphaMode":"OPAQUE","doubleSided":false,"extras":{"fromFBX":{"isTruePBR":false,"shadingModel":"Phong"}},"name":"MI_Tools_02","normalTexture":{"index":0,"texCoord":0},"pbrMetallicRoughness":{"baseColorFactor":[1,1,1,1],"baseColorTexture":{"index":1,"texCoord":0},"metallicFactor":0.400000005960464,"roughnessFactor":0.301511347293854}},{"alphaMode":"OPAQUE","doubleSided":false,"extras":{"fromFBX":{"isTruePBR":false,"shadingModel":"Lambert"}},"name":"DefaultMaterial","pbrMetallicRoughness":{"baseColorFactor":[0.5,0.5,0.5,1],"metallicFactor":0.200000002980232,"roughnessFactor":0.800000011920929}}],"meshes":[{"name":"SM_Tool_19_LOD0","primitives":[{"attributes":{"NORMAL":3,"POSITION":2,"TANGENT":4,"TEXCOORD_0":5,"TEXCOORD_1":6},"indices":1,"material":0,"mode":4}]},{"name":"SM_Tool_19_LOD1","primitives":[{"attributes":{"NORMAL":9,"POSITION":8,"TANGENT":10,"TEXCOORD_0":11,"TEXCOORD_1":12},"indices":7,"material":0,"mode":4}]},{"name":"SM_Tool_19_LOD2","primitives":[{"attributes":{"NORMAL":15,"POSITION":14,"TANGENT":16,"TEXCOORD_0":17,"TEXCOORD_1":18},"indices":13,"material":0,"mode":4}]},{"name":"SM_Tool_19_LOD3","primitives":[{"attributes":{"NORMAL":21,"POSITION":20,"TANGENT":22,"TEXCOORD_0":23,"TEXCOORD_1":24},"indices":19,"material":0,"mode":4}]},{"name":"SM_Tool_19_ConvexHulls","primitives":[{"attributes":{"NORMAL":27,"POSITION":26,"TEXCOORD_0":28,"TEXCOORD_1":29},"indices":25,"material":1,"mode":4}]}],"nodes":[{"children":[1,2,3,4,5],"name":"SM_Tool_128","originalUnits":0.00999999977648258,"pivot":[0,0,0],"rotation":[0,0,0,1],"scale":[1,1,1],"translation":[0,0,0]},{"mesh":0,"name":"SM_Tool_19_LOD0","originalUnits":0.00999999977648258,"pivot":[0,0,0],"rotation":[0,0,0,1],"scale":[1,1,1],"translation":[0,0,0]},{"mesh":4,"name":"SM_Tool_19_ConvexHulls","originalUnits":0.00999999977648258,"pivot":[0,0,0],"rotation":[0,0,0,1],"scale":[1,1,1],"translation":[0,0,0]},{"mesh":1,"name":"SM_Tool_19_LOD1","originalUnits":0.00999999977648258,"pivot":[0,0,0],"rotation":[0,0,0,1],"scale":[1,1,1],"translation":[0,0,0]},{"mesh":2,"name":"SM_Tool_19_LOD2","originalUnits":0.00999999977648258,"pivot":[0,0,0],"rotation":[0,0,0,1],"scale":[1,1,1],"translation":[0,0,0]},{"mesh":3,"name":"SM_Tool_19_LOD3","originalUnits":0.00999999977648258,"pivot":[0,0,0],"rotation":[0,0,0,1],"scale":[1,1,1],"translation":[0,0,0]}],"samplers":[{}],"scene":0,"scenes":[{"name":"Root Scene","nodes":[0]}],"textures":[{"name":"MI_Tools_02","sampler":0,"source":0},{"name":"MI_Tools_02","sampler":0,"source":1}]}