{"accessors":[{"bufferView":0,"byteOffset":0,"componentType":5126,"count":1,"max":[0],"min":[0],"type":"SCALAR"},{"bufferView":1,"byteOffset":0,"componentType":5123,"count":2910,"type":"SCALAR"},{"bufferView":2,"byteOffset":0,"componentType":5126,"count":597,"max":[0.0216754171997309,0.174284756183624,0.0227467343211174],"min":[-0.0216754116118,-0.17428477108478,-0.02274658158422],"type":"VEC3"},{"bufferView":3,"byteOffset":0,"componentType":5126,"count":597,"type":"VEC3"},{"bufferView":4,"byteOffset":0,"componentType":5126,"count":597,"type":"VEC4"},{"bufferView":5,"byteOffset":0,"componentType":5126,"count":597,"type":"VEC2"},{"bufferView":6,"byteOffset":0,"componentType":5126,"count":597,"type":"VEC2"},{"bufferView":7,"byteOffset":0,"componentType":5123,"count":2184,"type":"SCALAR"},{"bufferView":8,"byteOffset":0,"componentType":5126,"count":455,"max":[0.0212237611413002,0.174284756183624,0.0227467343211174],"min":[-0.02122474089265,-0.17428477108478,-0.02274658158422],"type":"VEC3"},{"bufferView":9,"byteOffset":0,"componentType":5126,"count":455,"type":"VEC3"},{"bufferView":10,"byteOffset":0,"componentType":5126,"count":455,"type":"VEC4"},{"bufferView":11,"byteOffset":0,"componentType":5126,"count":455,"type":"VEC2"},{"bufferView":12,"byteOffset":0,"componentType":5126,"count":455,"type":"VEC2"},{"bufferView":13,"byteOffset":0,"componentType":5123,"count":1452,"type":"SCALAR"},{"bufferView":14,"byteOffset":0,"componentType":5126,"count":326,"max":[0.0210971161723137,0.174284756183624,0.0227467343211174],"min":[-0.02101240865886,-0.17428477108478,-0.02274658158422],"type":"VEC3"},{"bufferView":15,"byteOffset":0,"componentType":5126,"count":326,"type":"VEC3"},{"bufferView":16,"byteOffset":0,"componentType":5126,"count":326,"type":"VEC4"},{"bufferView":17,"byteOffset":0,"componentType":5126,"count":326,"type":"VEC2"},{"bufferView":18,"byteOffset":0,"componentType":5126,"count":326,"type":"VEC2"},{"bufferView":19,"byteOffset":0,"componentType":5123,"count":366,"type":"SCALAR"},{"bufferView":20,"byteOffset":0,"componentType":5126,"count":104,"max":[0.0203519500792027,0.180718421936035,0.0233900398015976],"min":[-0.02157917059958,-0.17428477108478,-0.02331248298287],"type":"VEC3"},{"bufferView":21,"byteOffset":0,"componentType":5126,"count":104,"type":"VEC3"},{"bufferView":22,"byteOffset":0,"componentType":5126,"count":104,"type":"VEC4"},{"bufferView":23,"byteOffset":0,"componentType":5126,"count":104,"type":"VEC2"},{"bufferView":24,"byteOffset":0,"componentType":5126,"count":104,"type":"VEC2"},{"bufferView":25,"byteOffset":0,"componentType":5123,"count":312,"type":"SCALAR"},{"bufferView":26,"byteOffset":0,"componentType":5126,"count":60,"max":[0.0207706559449434,0.172577604651451,0.0232340432703495],"min":[-0.0172575879842,-0.17509084939957,-0.02357647754252],"type":"VEC3"},{"bufferView":27,"byteOffset":0,"componentType":5126,"count":60,"type":"VEC3"},{"bufferView":28,"byteOffset":0,"componentType":5126,"count":60,"type":"VEC2"},{"bufferView":29,"byteOffset":0,"componentType":5126,"count":60,"type":"VEC2"}],"animations":[{"channels":[],"name":"Unreal Take","samplers":[]}],"asset":{"generator":"FBX2glTF v0.13.0","version":"2.0"},"bufferViews":[{"buffer":0,"byteLength":4,"byteOffset":0},{"buffer":0,"byteLength":5820,"byteOffset":4,"target":34963},{"buffer":0,"byteLength":7164,"byteOffset":5824,"target":34962},{"buffer":0,"byteLength":7164,"byteOffset":12988,"target":34962},{"buffer":0,"byteLength":9552,"byteOffset":20152,"target":34962},{"buffer":0,"byteLength":4776,"byteOffset":29704,"target":34962},{"buffer":0,"byteLength":4776,"byteOffset":34480,"target":34962},{"buffer":0,"byteLength":4368,"byteOffset":39256,"target":34963},{"buffer":0,"byteLength":5460,"byteOffset":43624,"target":34962},{"buffer":0,"byteLength":5460,"byteOffset":49084,"target":34962},{"buffer":0,"byteLength":7280,"byteOffset":54544,"target":34962},{"buffer":0,"byteLength":3640,"byteOffset":61824,"target":34962},{"buffer":0,"byteLength":3640,"byteOffset":65464,"target":34962},{"buffer":0,"byteLength":2904,"byteOffset":69104,"target":34963},{"buffer":0,"byteLength":3912,"byteOffset":72008,"target":34962},{"buffer":0,"byteLength":3912,"byteOffset":75920,"target":34962},{"buffer":0,"byteLength":5216,"byteOffset":79832,"target":34962},{"buffer":0,"byteLength":2608,"byteOffset":85048,"target":34962},{"buffer":0,"byteLength":2608,"byteOffset":87656,"target":34962},{"buffer":0,"byteLength":732,"byteOffset":90264,"target":34963},{"buffer":0,"byteLength":1248,"byteOffset":90996,"target":34962},{"buffer":0,"byteLength":1248,"byteOffset":92244,"target":34962},{"buffer":0,"byteLength":1664,"byteOffset":93492,"target":34962},{"buffer":0,"byteLength":832,"byteOffset":95156,"target":34962},{"buffer":0,"byteLength":832,"byteOffset":95988,"target":34962},{"buffer":0,"byteLength":624,"byteOffset":96820,"target":34963},{"buffer":0,"byteLength":720,"byteOffset":97444,"target":34962},{"buffer":0,"byteLength":720,"byteOffset":98164,"target":34962},{"buffer":0,"byteLength":480,"byteOffset":98884,"target":34962},{"buffer":0,"byteLength":480,"byteOffset":99364,"target":34962}],"buffers":[{"byteLength":99844,"uri":"SM_Tool_20.bin"}],"images":[{"name":"T_Tools_N","uri":"T_Tools_N.png"},{"name":"T_Tools_B","uri":"T_Tools_B.png"}],"materials":[{"alphaMode":"OPAQUE","doubleSided":false,"extras":{"fromFBX":{"isTruePBR":false,"shadingModel":"Phong"}},"name":"MI_Tools_02","normalTexture":{"index":0,"texCoord":0},"pbrMetallicRoughness":{"baseColorFactor":[1,1,1,1],"baseColorTexture":{"index":1,"texCoord":0},"metallicFactor":0.400000005960464,"roughnessFactor":0.301511347293854}},{"alphaMode":"OPAQUE","doubleSided":false,"extras":{"fromFBX":{"isTruePBR":false,"shadingModel":"Lambert"}},"name":"DefaultMaterial","pbrMetallicRoughness":{"baseColorFactor":[0.5,0.5,0.5,1],"metallicFactor":0.200000002980232,"roughnessFactor":0.800000011920929}}],"meshes":[{"name":"SM_Tool_20_LOD0","primitives":[{"attributes":{"NORMAL":3,"POSITION":2,"TANGENT":4,"TEXCOORD_0":5,"TEXCOORD_1":6},"indices":1,"material":0,"mode":4}]},{"name":"SM_Tool_20_LOD1","primitives":[{"attributes":{"NORMAL":9,"POSITION":8,"TANGENT":10,"TEXCOORD_0":11,"TEXCOORD_1":12},"indices":7,"material":0,"mode":4}]},{"name":"SM_Tool_20_LOD2","primitives":[{"attributes":{"NORMAL":15,"POSITION":14,"TANGENT":16,"TEXCOORD_0":17,"TEXCOORD_1":18},"indices":13,"material":0,"mode":4}]},{"name":"SM_Tool_20_LOD3","primitives":[{"attributes":{"NORMAL":21,"POSITION":20,"TANGENT":22,"TEXCOORD_0":23,"TEXCOORD_1":24},"indices":19,"material":0,"mode":4}]},{"name":"SM_Tool_20_ConvexHulls","primitives":[{"attributes":{"NORMAL":27,"POSITION":26,"TEXCOORD_0":28,"TEXCOORD_1":29},"indices":25,"material":1,"mode":4}]}],"nodes":[{"children":[1,2,3,4,5],"name":"SM_Tool_129","originalUnits":0.00999999977648258,"pivot":[0,0,0],"rotation":[0,0,0,1],"scale":[1,1,1],"translation":[0,0,0]},{"mesh":0,"name":"SM_Tool_20_LOD0","originalUnits":0.00999999977648258,"pivot":[0,0,0],"rotation":[0,0,0,1],"scale":[1,1,1],"translation":[0,0,0]},{"mesh":4,"name":"SM_Tool_20_ConvexHulls","originalUnits":0.00999999977648258,"pivot":[0,0,0],"rotation":[0,0,0,1],"scale":[1,1,1],"translation":[0,0,0]},{"mesh":1,"name":"SM_Tool_20_LOD1","originalUnits":0.00999999977648258,"pivot":[0,0,0],"rotation":[0,0,0,1],"scale":[1,1,1],"translation":[0,0,0]},{"mesh":2,"name":"SM_Tool_20_LOD2","originalUnits":0.00999999977648258,"pivot":[0,0,0],"rotation":[0,0,0,1],"scale":[1,1,1],"translation":[0,0,0]},{"mesh":3,"name":"SM_Tool_20_LOD3","originalUnits":0.00999999977648258,"pivot":[0,0,0],"rotation":[0,0,0,1],"scale":[1,1,1],"translation":[0,0,0]}],"samplers":[{}],"scene":0,"scenes":[{"name":"Root Scene","nodes":[0]}],"textures":[{"name":"MI_Tools_02","sampler":0,"source":0},{"name":"MI_Tools_02","sampler":0,"source":1}]}