{"accessors":[{"bufferView":0,"byteOffset":0,"componentType":5126,"count":1,"max":[0],"min":[0],"type":"SCALAR"},{"bufferView":1,"byteOffset":0,"componentType":5123,"count":4032,"type":"SCALAR"},{"bufferView":2,"byteOffset":0,"componentType":5126,"count":746,"max":[0.0953769534826279,0.200375512242317,0.0953765884041786],"min":[-0.09537682682276,0.00000000126396948463281,-0.09537658840418],"type":"VEC3"},{"bufferView":3,"byteOffset":0,"componentType":5126,"count":746,"type":"VEC3"},{"bufferView":4,"byteOffset":0,"componentType":5126,"count":746,"type":"VEC4"},{"bufferView":5,"byteOffset":0,"componentType":5126,"count":746,"type":"VEC2"},{"bufferView":6,"byteOffset":0,"componentType":5126,"count":746,"type":"VEC2"},{"bufferView":7,"byteOffset":0,"componentType":5123,"count":3024,"type":"SCALAR"},{"bufferView":8,"byteOffset":0,"componentType":5126,"count":581,"max":[0.0953769534826279,0.200375512242317,0.0953765884041786],"min":[-0.09537682682276,0.00000000126396948463281,-0.09537658840418],"type":"VEC3"},{"bufferView":9,"byteOffset":0,"componentType":5126,"count":581,"type":"VEC3"},{"bufferView":10,"byteOffset":0,"componentType":5126,"count":581,"type":"VEC4"},{"bufferView":11,"byteOffset":0,"componentType":5126,"count":581,"type":"VEC2"},{"bufferView":12,"byteOffset":0,"componentType":5126,"count":581,"type":"VEC2"},{"bufferView":13,"byteOffset":0,"componentType":5123,"count":2016,"type":"SCALAR"},{"bufferView":14,"byteOffset":0,"componentType":5126,"count":435,"max":[0.0966978594660759,0.200375512242317,0.0941764488816261],"min":[-0.09557028859854,0.00000000126396948463281,-0.09669806063175],"type":"VEC3"},{"bufferView":15,"byteOffset":0,"componentType":5126,"count":435,"type":"VEC3"},{"bufferView":16,"byteOffset":0,"componentType":5126,"count":435,"type":"VEC4"},{"bufferView":17,"byteOffset":0,"componentType":5126,"count":435,"type":"VEC2"},{"bufferView":18,"byteOffset":0,"componentType":5126,"count":435,"type":"VEC2"},{"bufferView":19,"byteOffset":0,"componentType":5123,"count":504,"type":"SCALAR"},{"bufferView":20,"byteOffset":0,"componentType":5126,"count":132,"max":[0.0938428118824959,0.204451635479927,0.0964548215270042],"min":[-0.09868546575308,-0.00000679092409,-0.09847011417151],"type":"VEC3"},{"bufferView":21,"byteOffset":0,"componentType":5126,"count":132,"type":"VEC3"},{"bufferView":22,"byteOffset":0,"componentType":5126,"count":132,"type":"VEC4"},{"bufferView":23,"byteOffset":0,"componentType":5126,"count":132,"type":"VEC2"},{"bufferView":24,"byteOffset":0,"componentType":5126,"count":132,"type":"VEC2"},{"bufferView":25,"byteOffset":0,"componentType":5123,"count":84,"type":"SCALAR"},{"bufferView":26,"byteOffset":0,"componentType":5126,"count":16,"max":[0.0937129259109497,0.19859267771244,0.0949184224009514],"min":[-0.09372615814209,0.00193317071534693,-0.09261830151081],"type":"VEC3"},{"bufferView":27,"byteOffset":0,"componentType":5126,"count":16,"type":"VEC3"},{"bufferView":28,"byteOffset":0,"componentType":5126,"count":16,"type":"VEC2"},{"bufferView":29,"byteOffset":0,"componentType":5126,"count":16,"type":"VEC2"}],"animations":[{"channels":[],"name":"Unreal Take","samplers":[]}],"asset":{"generator":"FBX2glTF v0.13.0","version":"2.0"},"bufferViews":[{"buffer":0,"byteLength":4,"byteOffset":0},{"buffer":0,"byteLength":8064,"byteOffset":4,"target":34963},{"buffer":0,"byteLength":8952,"byteOffset":8068,"target":34962},{"buffer":0,"byteLength":8952,"byteOffset":17020,"target":34962},{"buffer":0,"byteLength":11936,"byteOffset":25972,"target":34962},{"buffer":0,"byteLength":5968,"byteOffset":37908,"target":34962},{"buffer":0,"byteLength":5968,"byteOffset":43876,"target":34962},{"buffer":0,"byteLength":6048,"byteOffset":49844,"target":34963},{"buffer":0,"byteLength":6972,"byteOffset":55892,"target":34962},{"buffer":0,"byteLength":6972,"byteOffset":62864,"target":34962},{"buffer":0,"byteLength":9296,"byteOffset":69836,"target":34962},{"buffer":0,"byteLength":4648,"byteOffset":79132,"target":34962},{"buffer":0,"byteLength":4648,"byteOffset":83780,"target":34962},{"buffer":0,"byteLength":4032,"byteOffset":88428,"target":34963},{"buffer":0,"byteLength":5220,"byteOffset":92460,"target":34962},{"buffer":0,"byteLength":5220,"byteOffset":97680,"target":34962},{"buffer":0,"byteLength":6960,"byteOffset":102900,"target":34962},{"buffer":0,"byteLength":3480,"byteOffset":109860,"target":34962},{"buffer":0,"byteLength":3480,"byteOffset":113340,"target":34962},{"buffer":0,"byteLength":1008,"byteOffset":116820,"target":34963},{"buffer":0,"byteLength":1584,"byteOffset":117828,"target":34962},{"buffer":0,"byteLength":1584,"byteOffset":119412,"target":34962},{"buffer":0,"byteLength":2112,"byteOffset":120996,"target":34962},{"buffer":0,"byteLength":1056,"byteOffset":123108,"target":34962},{"buffer":0,"byteLength":1056,"byteOffset":124164,"target":34962},{"buffer":0,"byteLength":168,"byteOffset":125220,"target":34963},{"buffer":0,"byteLength":192,"byteOffset":125388,"target":34962},{"buffer":0,"byteLength":192,"byteOffset":125580,"target":34962},{"buffer":0,"byteLength":128,"byteOffset":125772,"target":34962},{"buffer":0,"byteLength":128,"byteOffset":125900,"target":34962}],"buffers":[{"byteLength":126028,"uri":"SM_Tin_06.bin"}],"images":[{"name":"T_Tools_N","uri":"T_Tools_N.png"},{"name":"T_Tools_B","uri":"T_Tools_B.png"}],"materials":[{"alphaMode":"OPAQUE","doubleSided":false,"extras":{"fromFBX":{"isTruePBR":false,"shadingModel":"Phong"}},"name":"MI_Tools_01","normalTexture":{"index":0,"texCoord":0},"pbrMetallicRoughness":{"baseColorFactor":[1,1,1,1],"baseColorTexture":{"index":1,"texCoord":0},"metallicFactor":0.400000005960464,"roughnessFactor":0.301511347293854}},{"alphaMode":"OPAQUE","doubleSided":false,"extras":{"fromFBX":{"isTruePBR":false,"shadingModel":"Lambert"}},"name":"DefaultMaterial","pbrMetallicRoughness":{"baseColorFactor":[0.5,0.5,0.5,1],"metallicFactor":0.200000002980232,"roughnessFactor":0.800000011920929}}],"meshes":[{"name":"SM_Tin_06_LOD0","primitives":[{"attributes":{"NORMAL":3,"POSITION":2,"TANGENT":4,"TEXCOORD_0":5,"TEXCOORD_1":6},"indices":1,"material":0,"mode":4}]},{"name":"SM_Tin_06_LOD1","primitives":[{"attributes":{"NORMAL":9,"POSITION":8,"TANGENT":10,"TEXCOORD_0":11,"TEXCOORD_1":12},"indices":7,"material":0,"mode":4}]},{"name":"SM_Tin_06_LOD2","primitives":[{"attributes":{"NORMAL":15,"POSITION":14,"TANGENT":16,"TEXCOORD_0":17,"TEXCOORD_1":18},"indices":13,"material":0,"mode":4}]},{"name":"SM_Tin_06_LOD3","primitives":[{"attributes":{"NORMAL":21,"POSITION":20,"TANGENT":22,"TEXCOORD_0":23,"TEXCOORD_1":24},"indices":19,"material":0,"mode":4}]},{"name":"SM_Tin_06_ConvexHulls","primitives":[{"attributes":{"NORMAL":27,"POSITION":26,"TEXCOORD_0":28,"TEXCOORD_1":29},"indices":25,"material":1,"mode":4}]}],"nodes":[{"children":[1,2,3,4,5],"name":"SM_Tin_107","originalUnits":0.00999999977648258,"pivot":[0,0,0],"rotation":[0,0,0,1],"scale":[1,1,1],"translation":[0,0,0]},{"mesh":0,"name":"SM_Tin_06_LOD0","originalUnits":0.00999999977648258,"pivot":[0,0,0],"rotation":[0,0,0,1],"scale":[1,1,1],"translation":[0,0,0]},{"mesh":4,"name":"SM_Tin_06_ConvexHulls","originalUnits":0.00999999977648258,"pivot":[0,0,0],"rotation":[0,0,0,1],"scale":[1,1,1],"translation":[0,0,0]},{"mesh":1,"name":"SM_Tin_06_LOD1","originalUnits":0.00999999977648258,"pivot":[0,0,0],"rotation":[0,0,0,1],"scale":[1,1,1],"translation":[0,0,0]},{"mesh":2,"name":"SM_Tin_06_LOD2","originalUnits":0.00999999977648258,"pivot":[0,0,0],"rotation":[0,0,0,1],"scale":[1,1,1],"translation":[0,0,0]},{"mesh":3,"name":"SM_Tin_06_LOD3","originalUnits":0.00999999977648258,"pivot":[0,0,0],"rotation":[0,0,0,1],"scale":[1,1,1],"translation":[0,0,0]}],"samplers":[{}],"scene":0,"scenes":[{"name":"Root Scene","nodes":[0]}],"textures":[{"name":"MI_Tools_01","sampler":0,"source":0},{"name":"MI_Tools_01","sampler":0,"source":1}]}