{"accessors":[{"bufferView":0,"byteOffset":0,"componentType":5126,"count":1,"max":[0],"min":[0],"type":"SCALAR"},{"bufferView":1,"byteOffset":0,"componentType":5123,"count":90,"type":"SCALAR"},{"bufferView":2,"byteOffset":0,"componentType":5126,"count":32,"max":[0.158833369612694,0.0999353006482124,0.00000000193267801762431],"min":[-0.15883331000805,-0.09993499517441,-4.34338331222534],"type":"VEC3"},{"bufferView":3,"byteOffset":0,"componentType":5126,"count":32,"type":"VEC3"},{"bufferView":4,"byteOffset":0,"componentType":5126,"count":32,"type":"VEC4"},{"bufferView":5,"byteOffset":0,"componentType":5126,"count":32,"type":"VEC2"},{"bufferView":6,"byteOffset":0,"componentType":5126,"count":32,"type":"VEC2"},{"bufferView":7,"byteOffset":0,"componentType":5123,"count":69,"type":"SCALAR"},{"bufferView":8,"byteOffset":0,"componentType":5126,"count":25,"max":[0.158833369612694,0.0999377220869064,0.00000000193267801762431],"min":[-0.15883331000805,-0.09993499517441,-4.34338331222534],"type":"VEC3"},{"bufferView":9,"byteOffset":0,"componentType":5126,"count":25,"type":"VEC3"},{"bufferView":10,"byteOffset":0,"componentType":5126,"count":25,"type":"VEC4"},{"bufferView":11,"byteOffset":0,"componentType":5126,"count":25,"type":"VEC2"},{"bufferView":12,"byteOffset":0,"componentType":5126,"count":25,"type":"VEC2"},{"bufferView":13,"byteOffset":0,"componentType":5123,"count":45,"type":"SCALAR"},{"bufferView":14,"byteOffset":0,"componentType":5126,"count":17,"max":[0.158833369612694,0.100874900817871,0.00000120355309718434],"min":[-0.16034664213657,-0.10157488286495,-4.34338426589966],"type":"VEC3"},{"bufferView":15,"byteOffset":0,"componentType":5126,"count":17,"type":"VEC3"},{"bufferView":16,"byteOffset":0,"componentType":5126,"count":17,"type":"VEC4"},{"bufferView":17,"byteOffset":0,"componentType":5126,"count":17,"type":"VEC2"},{"bufferView":18,"byteOffset":0,"componentType":5126,"count":17,"type":"VEC2"},{"bufferView":19,"byteOffset":0,"componentType":5123,"count":12,"type":"SCALAR"},{"bufferView":20,"byteOffset":0,"componentType":5126,"count":6,"max":[0.158833369612694,0.0999353006482124,0.0001298304850934],"min":[-0.23910543322563,-0.15852223336697,-4.34338331222534],"type":"VEC3"},{"bufferView":21,"byteOffset":0,"componentType":5126,"count":6,"type":"VEC3"},{"bufferView":22,"byteOffset":0,"componentType":5126,"count":6,"type":"VEC4"},{"bufferView":23,"byteOffset":0,"componentType":5126,"count":6,"type":"VEC2"},{"bufferView":24,"byteOffset":0,"componentType":5126,"count":6,"type":"VEC2"}],"animations":[{"channels":[],"name":"Unreal Take","samplers":[]}],"asset":{"generator":"FBX2glTF v0.13.0","version":"2.0"},"bufferViews":[{"buffer":0,"byteLength":4,"byteOffset":0},{"buffer":0,"byteLength":180,"byteOffset":4,"target":34963},{"buffer":0,"byteLength":384,"byteOffset":184,"target":34962},{"buffer":0,"byteLength":384,"byteOffset":568,"target":34962},{"buffer":0,"byteLength":512,"byteOffset":952,"target":34962},{"buffer":0,"byteLength":256,"byteOffset":1464,"target":34962},{"buffer":0,"byteLength":256,"byteOffset":1720,"target":34962},{"buffer":0,"byteLength":138,"byteOffset":1976,"target":34963},{"buffer":0,"byteLength":300,"byteOffset":2116,"target":34962},{"buffer":0,"byteLength":300,"byteOffset":2416,"target":34962},{"buffer":0,"byteLength":400,"byteOffset":2716,"target":34962},{"buffer":0,"byteLength":200,"byteOffset":3116,"target":34962},{"buffer":0,"byteLength":200,"byteOffset":3316,"target":34962},{"buffer":0,"byteLength":90,"byteOffset":3516,"target":34963},{"buffer":0,"byteLength":204,"byteOffset":3608,"target":34962},{"buffer":0,"byteLength":204,"byteOffset":3812,"target":34962},{"buffer":0,"byteLength":272,"byteOffset":4016,"target":34962},{"buffer":0,"byteLength":136,"byteOffset":4288,"target":34962},{"buffer":0,"byteLength":136,"byteOffset":4424,"target":34962},{"buffer":0,"byteLength":24,"byteOffset":4560,"target":34963},{"buffer":0,"byteLength":72,"byteOffset":4584,"target":34962},{"buffer":0,"byteLength":72,"byteOffset":4656,"target":34962},{"buffer":0,"byteLength":96,"byteOffset":4728,"target":34962},{"buffer":0,"byteLength":48,"byteOffset":4824,"target":34962},{"buffer":0,"byteLength":48,"byteOffset":4872,"target":34962}],"buffers":[{"byteLength":4920,"uri":"SM_Top_Wall.bin"}],"images":[{"name":"T_Bricks_N","uri":"T_Bricks_N.png"},{"name":"T_Bricks_B","uri":"T_Bricks_B.png"}],"materials":[{"alphaMode":"OPAQUE","doubleSided":false,"extras":{"fromFBX":{"isTruePBR":false,"shadingModel":"Phong"}},"name":"MI_Brick_02","normalTexture":{"index":0,"texCoord":0},"pbrMetallicRoughness":{"baseColorFactor":[1,1,1,1],"baseColorTexture":{"index":1,"texCoord":0},"metallicFactor":0.400000005960464,"roughnessFactor":0.301511347293854}}],"meshes":[{"name":"SM_Top_Wall_LOD0","primitives":[{"attributes":{"NORMAL":3,"POSITION":2,"TANGENT":4,"TEXCOORD_0":5,"TEXCOORD_1":6},"indices":1,"material":0,"mode":4}]},{"name":"SM_Top_Wall_LOD1","primitives":[{"attributes":{"NORMAL":9,"POSITION":8,"TANGENT":10,"TEXCOORD_0":11,"TEXCOORD_1":12},"indices":7,"material":0,"mode":4}]},{"name":"SM_Top_Wall_LOD2","primitives":[{"attributes":{"NORMAL":15,"POSITION":14,"TANGENT":16,"TEXCOORD_0":17,"TEXCOORD_1":18},"indices":13,"material":0,"mode":4}]},{"name":"SM_Top_Wall_LOD3","primitives":[{"attributes":{"NORMAL":21,"POSITION":20,"TANGENT":22,"TEXCOORD_0":23,"TEXCOORD_1":24},"indices":19,"material":0,"mode":4}]}],"nodes":[{"children":[1,2,3,4,5],"name":"SM_Top_Wall_131","originalUnits":0.00999999977648258,"pivot":[0,0,0],"rotation":[0,0,0,1],"scale":[1,1,1],"translation":[0,0,0]},{"mesh":0,"name":"SM_Top_Wall_LOD0","originalUnits":0.00999999977648258,"pivot":[0,0,0],"rotation":[0,0,0,1],"scale":[1,1,1],"translation":[0,0,0]},{"name":"SM_Top_Wall_ConvexHulls","originalUnits":0.00999999977648258,"pivot":[0,0,0],"rotation":[0,0,0,1],"scale":[1,1,1],"translation":[0,0,0]},{"mesh":1,"name":"SM_Top_Wall_LOD1","originalUnits":0.00999999977648258,"pivot":[0,0,0],"rotation":[0,0,0,1],"scale":[1,1,1],"translation":[0,0,0]},{"mesh":2,"name":"SM_Top_Wall_LOD2","originalUnits":0.00999999977648258,"pivot":[0,0,0],"rotation":[0,0,0,1],"scale":[1,1,1],"translation":[0,0,0]},{"mesh":3,"name":"SM_Top_Wall_LOD3","originalUnits":0.00999999977648258,"pivot":[0,0,0],"rotation":[0,0,0,1],"scale":[1,1,1],"translation":[0,0,0]}],"samplers":[{}],"scene":0,"scenes":[{"name":"Root Scene","nodes":[0]}],"textures":[{"name":"MI_Brick_02","sampler":0,"source":0},{"name":"MI_Brick_02","sampler":0,"source":1}]}