{"accessors":[{"bufferView":0,"byteOffset":0,"componentType":5126,"count":1,"max":[0],"min":[0],"type":"SCALAR"},{"bufferView":1,"byteOffset":0,"componentType":5123,"count":5760,"type":"SCALAR"},{"bufferView":2,"byteOffset":0,"componentType":5126,"count":1088,"max":[0.0885934457182884,0.210649594664574,0.0885931402444839],"min":[-0.08859344571829,-0.00309460726567,-0.08859314024448],"type":"VEC3"},{"bufferView":3,"byteOffset":0,"componentType":5126,"count":1088,"type":"VEC3"},{"bufferView":4,"byteOffset":0,"componentType":5126,"count":1088,"type":"VEC4"},{"bufferView":5,"byteOffset":0,"componentType":5126,"count":1088,"type":"VEC2"},{"bufferView":6,"byteOffset":0,"componentType":5126,"count":1088,"type":"VEC2"},{"bufferView":7,"byteOffset":0,"componentType":5123,"count":4320,"type":"SCALAR"},{"bufferView":8,"byteOffset":0,"componentType":5126,"count":848,"max":[0.0887203961610794,0.210649594664574,0.0887619480490685],"min":[-0.08872056007385,-0.00309460726567,-0.08875560760498],"type":"VEC3"},{"bufferView":9,"byteOffset":0,"componentType":5126,"count":848,"type":"VEC3"},{"bufferView":10,"byteOffset":0,"componentType":5126,"count":848,"type":"VEC4"},{"bufferView":11,"byteOffset":0,"componentType":5126,"count":848,"type":"VEC2"},{"bufferView":12,"byteOffset":0,"componentType":5126,"count":848,"type":"VEC2"},{"bufferView":13,"byteOffset":0,"componentType":5123,"count":2880,"type":"SCALAR"},{"bufferView":14,"byteOffset":0,"componentType":5126,"count":591,"max":[0.0900528803467751,0.210649728775024,0.0889030694961548],"min":[-0.0900095552206,-0.00309460726567,-0.08875560760498],"type":"VEC3"},{"bufferView":15,"byteOffset":0,"componentType":5126,"count":591,"type":"VEC3"},{"bufferView":16,"byteOffset":0,"componentType":5126,"count":591,"type":"VEC4"},{"bufferView":17,"byteOffset":0,"componentType":5126,"count":591,"type":"VEC2"},{"bufferView":18,"byteOffset":0,"componentType":5126,"count":591,"type":"VEC2"},{"bufferView":19,"byteOffset":0,"componentType":5123,"count":720,"type":"SCALAR"},{"bufferView":20,"byteOffset":0,"componentType":5126,"count":169,"max":[0.0917791277170181,0.211348950862885,0.0893414169549942],"min":[-0.09321971982718,-0.00510857347399,-0.08804636448622],"type":"VEC3"},{"bufferView":21,"byteOffset":0,"componentType":5126,"count":169,"type":"VEC3"},{"bufferView":22,"byteOffset":0,"componentType":5126,"count":169,"type":"VEC4"},{"bufferView":23,"byteOffset":0,"componentType":5126,"count":169,"type":"VEC2"},{"bufferView":24,"byteOffset":0,"componentType":5126,"count":169,"type":"VEC2"},{"bufferView":25,"byteOffset":0,"componentType":5123,"count":84,"type":"SCALAR"},{"bufferView":26,"byteOffset":0,"componentType":5126,"count":16,"max":[0.0851293802261353,0.208343297243118,0.0852236747741699],"min":[-0.08149433881044,-0.00123472348787,-0.08707272261381],"type":"VEC3"},{"bufferView":27,"byteOffset":0,"componentType":5126,"count":16,"type":"VEC3"},{"bufferView":28,"byteOffset":0,"componentType":5126,"count":16,"type":"VEC2"},{"bufferView":29,"byteOffset":0,"componentType":5126,"count":16,"type":"VEC2"}],"animations":[{"channels":[],"name":"Unreal Take","samplers":[]}],"asset":{"generator":"FBX2glTF v0.13.0","version":"2.0"},"bufferViews":[{"buffer":0,"byteLength":4,"byteOffset":0},{"buffer":0,"byteLength":11520,"byteOffset":4,"target":34963},{"buffer":0,"byteLength":13056,"byteOffset":11524,"target":34962},{"buffer":0,"byteLength":13056,"byteOffset":24580,"target":34962},{"buffer":0,"byteLength":17408,"byteOffset":37636,"target":34962},{"buffer":0,"byteLength":8704,"byteOffset":55044,"target":34962},{"buffer":0,"byteLength":8704,"byteOffset":63748,"target":34962},{"buffer":0,"byteLength":8640,"byteOffset":72452,"target":34963},{"buffer":0,"byteLength":10176,"byteOffset":81092,"target":34962},{"buffer":0,"byteLength":10176,"byteOffset":91268,"target":34962},{"buffer":0,"byteLength":13568,"byteOffset":101444,"target":34962},{"buffer":0,"byteLength":6784,"byteOffset":115012,"target":34962},{"buffer":0,"byteLength":6784,"byteOffset":121796,"target":34962},{"buffer":0,"byteLength":5760,"byteOffset":128580,"target":34963},{"buffer":0,"byteLength":7092,"byteOffset":134340,"target":34962},{"buffer":0,"byteLength":7092,"byteOffset":141432,"target":34962},{"buffer":0,"byteLength":9456,"byteOffset":148524,"target":34962},{"buffer":0,"byteLength":4728,"byteOffset":157980,"target":34962},{"buffer":0,"byteLength":4728,"byteOffset":162708,"target":34962},{"buffer":0,"byteLength":1440,"byteOffset":167436,"target":34963},{"buffer":0,"byteLength":2028,"byteOffset":168876,"target":34962},{"buffer":0,"byteLength":2028,"byteOffset":170904,"target":34962},{"buffer":0,"byteLength":2704,"byteOffset":172932,"target":34962},{"buffer":0,"byteLength":1352,"byteOffset":175636,"target":34962},{"buffer":0,"byteLength":1352,"byteOffset":176988,"target":34962},{"buffer":0,"byteLength":168,"byteOffset":178340,"target":34963},{"buffer":0,"byteLength":192,"byteOffset":178508,"target":34962},{"buffer":0,"byteLength":192,"byteOffset":178700,"target":34962},{"buffer":0,"byteLength":128,"byteOffset":178892,"target":34962},{"buffer":0,"byteLength":128,"byteOffset":179020,"target":34962}],"buffers":[{"byteLength":179148,"uri":"SM_Tin_10.bin"}],"images":[{"name":"T_Tools_N","uri":"T_Tools_N.png"},{"name":"T_Tools_B","uri":"T_Tools_B.png"}],"materials":[{"alphaMode":"OPAQUE","doubleSided":false,"extras":{"fromFBX":{"isTruePBR":false,"shadingModel":"Phong"}},"name":"MI_Tools_01","normalTexture":{"index":0,"texCoord":0},"pbrMetallicRoughness":{"baseColorFactor":[1,1,1,1],"baseColorTexture":{"index":1,"texCoord":0},"metallicFactor":0.400000005960464,"roughnessFactor":0.301511347293854}},{"alphaMode":"OPAQUE","doubleSided":false,"extras":{"fromFBX":{"isTruePBR":false,"shadingModel":"Lambert"}},"name":"DefaultMaterial","pbrMetallicRoughness":{"baseColorFactor":[0.5,0.5,0.5,1],"metallicFactor":0.200000002980232,"roughnessFactor":0.800000011920929}}],"meshes":[{"name":"SM_Tin_10_LOD0","primitives":[{"attributes":{"NORMAL":3,"POSITION":2,"TANGENT":4,"TEXCOORD_0":5,"TEXCOORD_1":6},"indices":1,"material":0,"mode":4}]},{"name":"SM_Tin_10_LOD1","primitives":[{"attributes":{"NORMAL":9,"POSITION":8,"TANGENT":10,"TEXCOORD_0":11,"TEXCOORD_1":12},"indices":7,"material":0,"mode":4}]},{"name":"SM_Tin_10_LOD2","primitives":[{"attributes":{"NORMAL":15,"POSITION":14,"TANGENT":16,"TEXCOORD_0":17,"TEXCOORD_1":18},"indices":13,"material":0,"mode":4}]},{"name":"SM_Tin_10_LOD3","primitives":[{"attributes":{"NORMAL":21,"POSITION":20,"TANGENT":22,"TEXCOORD_0":23,"TEXCOORD_1":24},"indices":19,"material":0,"mode":4}]},{"name":"SM_Tin_10_ConvexHulls","primitives":[{"attributes":{"NORMAL":27,"POSITION":26,"TEXCOORD_0":28,"TEXCOORD_1":29},"indices":25,"material":1,"mode":4}]}],"nodes":[{"children":[1,2,3,4,5],"name":"SM_Tin_101","originalUnits":0.00999999977648258,"pivot":[0,0,0],"rotation":[0,0,0,1],"scale":[1,1,1],"translation":[0,0,0]},{"mesh":0,"name":"SM_Tin_10_LOD0","originalUnits":0.00999999977648258,"pivot":[0,0,0],"rotation":[0,0,0,1],"scale":[1,1,1],"translation":[0,0,0]},{"mesh":4,"name":"SM_Tin_10_ConvexHulls","originalUnits":0.00999999977648258,"pivot":[0,0,0],"rotation":[0,0,0,1],"scale":[1,1,1],"translation":[0,0,0]},{"mesh":1,"name":"SM_Tin_10_LOD1","originalUnits":0.00999999977648258,"pivot":[0,0,0],"rotation":[0,0,0,1],"scale":[1,1,1],"translation":[0,0,0]},{"mesh":2,"name":"SM_Tin_10_LOD2","originalUnits":0.00999999977648258,"pivot":[0,0,0],"rotation":[0,0,0,1],"scale":[1,1,1],"translation":[0,0,0]},{"mesh":3,"name":"SM_Tin_10_LOD3","originalUnits":0.00999999977648258,"pivot":[0,0,0],"rotation":[0,0,0,1],"scale":[1,1,1],"translation":[0,0,0]}],"samplers":[{}],"scene":0,"scenes":[{"name":"Root Scene","nodes":[0]}],"textures":[{"name":"MI_Tools_01","sampler":0,"source":0},{"name":"MI_Tools_01","sampler":0,"source":1}]}