{"accessors":[{"bufferView":0,"byteOffset":0,"componentType":5126,"count":1,"max":[0],"min":[0],"type":"SCALAR"},{"bufferView":1,"byteOffset":0,"componentType":5123,"count":4032,"type":"SCALAR"},{"bufferView":2,"byteOffset":0,"componentType":5126,"count":746,"max":[0.0953768864274025,0.210052579641342,0.0953765884041786],"min":[-0.0953768864274,-0.00000000112022,-0.09537658840418],"type":"VEC3"},{"bufferView":3,"byteOffset":0,"componentType":5126,"count":746,"type":"VEC3"},{"bufferView":4,"byteOffset":0,"componentType":5126,"count":746,"type":"VEC4"},{"bufferView":5,"byteOffset":0,"componentType":5126,"count":746,"type":"VEC2"},{"bufferView":6,"byteOffset":0,"componentType":5126,"count":746,"type":"VEC2"},{"bufferView":7,"byteOffset":0,"componentType":5123,"count":3024,"type":"SCALAR"},{"bufferView":8,"byteOffset":0,"componentType":5126,"count":578,"max":[0.0953768864274025,0.210061147809029,0.0953765884041786],"min":[-0.0953768864274,-0.00000000112022,-0.09537658840418],"type":"VEC3"},{"bufferView":9,"byteOffset":0,"componentType":5126,"count":578,"type":"VEC3"},{"bufferView":10,"byteOffset":0,"componentType":5126,"count":578,"type":"VEC4"},{"bufferView":11,"byteOffset":0,"componentType":5126,"count":578,"type":"VEC2"},{"bufferView":12,"byteOffset":0,"componentType":5126,"count":578,"type":"VEC2"},{"bufferView":13,"byteOffset":0,"componentType":5123,"count":2016,"type":"SCALAR"},{"bufferView":14,"byteOffset":0,"componentType":5126,"count":441,"max":[0.0950057953596115,0.210052579641342,0.093179926276207],"min":[-0.0968491435051,-0.00006027562267,-0.09500548988581],"type":"VEC3"},{"bufferView":15,"byteOffset":0,"componentType":5126,"count":441,"type":"VEC3"},{"bufferView":16,"byteOffset":0,"componentType":5126,"count":441,"type":"VEC4"},{"bufferView":17,"byteOffset":0,"componentType":5126,"count":441,"type":"VEC2"},{"bufferView":18,"byteOffset":0,"componentType":5126,"count":441,"type":"VEC2"},{"bufferView":19,"byteOffset":0,"componentType":5123,"count":504,"type":"SCALAR"},{"bufferView":20,"byteOffset":0,"componentType":5126,"count":134,"max":[0.0990743786096573,0.210502833127975,0.0938950553536415],"min":[-0.10113386064768,-0.00006043105896,-0.09607257694006],"type":"VEC3"},{"bufferView":21,"byteOffset":0,"componentType":5126,"count":134,"type":"VEC3"},{"bufferView":22,"byteOffset":0,"componentType":5126,"count":134,"type":"VEC4"},{"bufferView":23,"byteOffset":0,"componentType":5126,"count":134,"type":"VEC2"},{"bufferView":24,"byteOffset":0,"componentType":5126,"count":134,"type":"VEC2"},{"bufferView":25,"byteOffset":0,"componentType":5123,"count":84,"type":"SCALAR"},{"bufferView":26,"byteOffset":0,"componentType":5126,"count":16,"max":[0.0945172160863876,0.200274974107742,0.094162330031395],"min":[-0.09385677427053,0.00212297961115837,-0.09228822588921],"type":"VEC3"},{"bufferView":27,"byteOffset":0,"componentType":5126,"count":16,"type":"VEC3"},{"bufferView":28,"byteOffset":0,"componentType":5126,"count":16,"type":"VEC2"},{"bufferView":29,"byteOffset":0,"componentType":5126,"count":16,"type":"VEC2"}],"animations":[{"channels":[],"name":"Unreal Take","samplers":[]}],"asset":{"generator":"FBX2glTF v0.13.0","version":"2.0"},"bufferViews":[{"buffer":0,"byteLength":4,"byteOffset":0},{"buffer":0,"byteLength":8064,"byteOffset":4,"target":34963},{"buffer":0,"byteLength":8952,"byteOffset":8068,"target":34962},{"buffer":0,"byteLength":8952,"byteOffset":17020,"target":34962},{"buffer":0,"byteLength":11936,"byteOffset":25972,"target":34962},{"buffer":0,"byteLength":5968,"byteOffset":37908,"target":34962},{"buffer":0,"byteLength":5968,"byteOffset":43876,"target":34962},{"buffer":0,"byteLength":6048,"byteOffset":49844,"target":34963},{"buffer":0,"byteLength":6936,"byteOffset":55892,"target":34962},{"buffer":0,"byteLength":6936,"byteOffset":62828,"target":34962},{"buffer":0,"byteLength":9248,"byteOffset":69764,"target":34962},{"buffer":0,"byteLength":4624,"byteOffset":79012,"target":34962},{"buffer":0,"byteLength":4624,"byteOffset":83636,"target":34962},{"buffer":0,"byteLength":4032,"byteOffset":88260,"target":34963},{"buffer":0,"byteLength":5292,"byteOffset":92292,"target":34962},{"buffer":0,"byteLength":5292,"byteOffset":97584,"target":34962},{"buffer":0,"byteLength":7056,"byteOffset":102876,"target":34962},{"buffer":0,"byteLength":3528,"byteOffset":109932,"target":34962},{"buffer":0,"byteLength":3528,"byteOffset":113460,"target":34962},{"buffer":0,"byteLength":1008,"byteOffset":116988,"target":34963},{"buffer":0,"byteLength":1608,"byteOffset":117996,"target":34962},{"buffer":0,"byteLength":1608,"byteOffset":119604,"target":34962},{"buffer":0,"byteLength":2144,"byteOffset":121212,"target":34962},{"buffer":0,"byteLength":1072,"byteOffset":123356,"target":34962},{"buffer":0,"byteLength":1072,"byteOffset":124428,"target":34962},{"buffer":0,"byteLength":168,"byteOffset":125500,"target":34963},{"buffer":0,"byteLength":192,"byteOffset":125668,"target":34962},{"buffer":0,"byteLength":192,"byteOffset":125860,"target":34962},{"buffer":0,"byteLength":128,"byteOffset":126052,"target":34962},{"buffer":0,"byteLength":128,"byteOffset":126180,"target":34962}],"buffers":[{"byteLength":126308,"uri":"SM_Tin_01.bin"}],"images":[{"name":"T_Tools_N","uri":"T_Tools_N.png"},{"name":"T_Tools_B","uri":"T_Tools_B.png"}],"materials":[{"alphaMode":"OPAQUE","doubleSided":false,"extras":{"fromFBX":{"isTruePBR":false,"shadingModel":"Phong"}},"name":"MI_Tools_01","normalTexture":{"index":0,"texCoord":0},"pbrMetallicRoughness":{"baseColorFactor":[1,1,1,1],"baseColorTexture":{"index":1,"texCoord":0},"metallicFactor":0.400000005960464,"roughnessFactor":0.301511347293854}},{"alphaMode":"OPAQUE","doubleSided":false,"extras":{"fromFBX":{"isTruePBR":false,"shadingModel":"Lambert"}},"name":"DefaultMaterial","pbrMetallicRoughness":{"baseColorFactor":[0.5,0.5,0.5,1],"metallicFactor":0.200000002980232,"roughnessFactor":0.800000011920929}}],"meshes":[{"name":"SM_Tin_01_LOD0","primitives":[{"attributes":{"NORMAL":3,"POSITION":2,"TANGENT":4,"TEXCOORD_0":5,"TEXCOORD_1":6},"indices":1,"material":0,"mode":4}]},{"name":"SM_Tin_01_LOD1","primitives":[{"attributes":{"NORMAL":9,"POSITION":8,"TANGENT":10,"TEXCOORD_0":11,"TEXCOORD_1":12},"indices":7,"material":0,"mode":4}]},{"name":"SM_Tin_01_LOD2","primitives":[{"attributes":{"NORMAL":15,"POSITION":14,"TANGENT":16,"TEXCOORD_0":17,"TEXCOORD_1":18},"indices":13,"material":0,"mode":4}]},{"name":"SM_Tin_01_LOD3","primitives":[{"attributes":{"NORMAL":21,"POSITION":20,"TANGENT":22,"TEXCOORD_0":23,"TEXCOORD_1":24},"indices":19,"material":0,"mode":4}]},{"name":"SM_Tin_01_ConvexHulls","primitives":[{"attributes":{"NORMAL":27,"POSITION":26,"TEXCOORD_0":28,"TEXCOORD_1":29},"indices":25,"material":1,"mode":4}]}],"nodes":[{"children":[1,2,3,4,5],"name":"SM_Tin_102","originalUnits":0.00999999977648258,"pivot":[0,0,0],"rotation":[0,0,0,1],"scale":[1,1,1],"translation":[0,0,0]},{"mesh":0,"name":"SM_Tin_01_LOD0","originalUnits":0.00999999977648258,"pivot":[0,0,0],"rotation":[0,0,0,1],"scale":[1,1,1],"translation":[0,0,0]},{"mesh":4,"name":"SM_Tin_01_ConvexHulls","originalUnits":0.00999999977648258,"pivot":[0,0,0],"rotation":[0,0,0,1],"scale":[1,1,1],"translation":[0,0,0]},{"mesh":1,"name":"SM_Tin_01_LOD1","originalUnits":0.00999999977648258,"pivot":[0,0,0],"rotation":[0,0,0,1],"scale":[1,1,1],"translation":[0,0,0]},{"mesh":2,"name":"SM_Tin_01_LOD2","originalUnits":0.00999999977648258,"pivot":[0,0,0],"rotation":[0,0,0,1],"scale":[1,1,1],"translation":[0,0,0]},{"mesh":3,"name":"SM_Tin_01_LOD3","originalUnits":0.00999999977648258,"pivot":[0,0,0],"rotation":[0,0,0,1],"scale":[1,1,1],"translation":[0,0,0]}],"samplers":[{}],"scene":0,"scenes":[{"name":"Root Scene","nodes":[0]}],"textures":[{"name":"MI_Tools_01","sampler":0,"source":0},{"name":"MI_Tools_01","sampler":0,"source":1}]}