{"accessors":[{"bufferView":0,"byteOffset":0,"componentType":5126,"count":1,"max":[0],"min":[0],"type":"SCALAR"},{"bufferView":1,"byteOffset":0,"componentType":5123,"count":1782,"type":"SCALAR"},{"bufferView":2,"byteOffset":0,"componentType":5126,"count":395,"max":[0.0131396492943168,0.109081588685513,0.0131396483629942],"min":[-0.01313964650035,-0.10908158868551,-0.01313964836299],"type":"VEC3"},{"bufferView":3,"byteOffset":0,"componentType":5126,"count":395,"type":"VEC3"},{"bufferView":4,"byteOffset":0,"componentType":5126,"count":395,"type":"VEC4"},{"bufferView":5,"byteOffset":0,"componentType":5126,"count":395,"type":"VEC2"},{"bufferView":6,"byteOffset":0,"componentType":5126,"count":395,"type":"VEC2"},{"bufferView":7,"byteOffset":0,"componentType":5123,"count":1338,"type":"SCALAR"},{"bufferView":8,"byteOffset":0,"componentType":5126,"count":303,"max":[0.0128668798133731,0.10908579826355,0.012867609038949],"min":[-0.01293117366731,-0.10908158868551,-0.0128675615415],"type":"VEC3"},{"bufferView":9,"byteOffset":0,"componentType":5126,"count":303,"type":"VEC3"},{"bufferView":10,"byteOffset":0,"componentType":5126,"count":303,"type":"VEC4"},{"bufferView":11,"byteOffset":0,"componentType":5126,"count":303,"type":"VEC2"},{"bufferView":12,"byteOffset":0,"componentType":5126,"count":303,"type":"VEC2"},{"bufferView":13,"byteOffset":0,"componentType":5123,"count":888,"type":"SCALAR"},{"bufferView":14,"byteOffset":0,"componentType":5126,"count":219,"max":[0.0126649774610996,0.109091602265835,0.0126950070261955],"min":[-0.0127276070416,-0.10908158868551,-0.01269175764173],"type":"VEC3"},{"bufferView":15,"byteOffset":0,"componentType":5126,"count":219,"type":"VEC3"},{"bufferView":16,"byteOffset":0,"componentType":5126,"count":219,"type":"VEC4"},{"bufferView":17,"byteOffset":0,"componentType":5126,"count":219,"type":"VEC2"},{"bufferView":18,"byteOffset":0,"componentType":5126,"count":219,"type":"VEC2"},{"bufferView":19,"byteOffset":0,"componentType":5123,"count":222,"type":"SCALAR"},{"bufferView":20,"byteOffset":0,"componentType":5126,"count":76,"max":[0.0129520064219832,0.110829509794712,0.0138289947062731],"min":[-0.01190742943436,-0.10908158868551,-0.01189339812845],"type":"VEC3"},{"bufferView":21,"byteOffset":0,"componentType":5126,"count":76,"type":"VEC3"},{"bufferView":22,"byteOffset":0,"componentType":5126,"count":76,"type":"VEC4"},{"bufferView":23,"byteOffset":0,"componentType":5126,"count":76,"type":"VEC2"},{"bufferView":24,"byteOffset":0,"componentType":5126,"count":76,"type":"VEC2"},{"bufferView":25,"byteOffset":0,"componentType":5123,"count":162,"type":"SCALAR"},{"bufferView":26,"byteOffset":0,"componentType":5126,"count":31,"max":[0.0124826710671186,0.107827626168728,0.0118912383913994],"min":[-0.01205300819129,-0.10965922474861,-0.01256207283586],"type":"VEC3"},{"bufferView":27,"byteOffset":0,"componentType":5126,"count":31,"type":"VEC3"},{"bufferView":28,"byteOffset":0,"componentType":5126,"count":31,"type":"VEC2"},{"bufferView":29,"byteOffset":0,"componentType":5126,"count":31,"type":"VEC2"}],"animations":[{"channels":[],"name":"Unreal Take","samplers":[]}],"asset":{"generator":"FBX2glTF v0.13.0","version":"2.0"},"bufferViews":[{"buffer":0,"byteLength":4,"byteOffset":0},{"buffer":0,"byteLength":3564,"byteOffset":4,"target":34963},{"buffer":0,"byteLength":4740,"byteOffset":3568,"target":34962},{"buffer":0,"byteLength":4740,"byteOffset":8308,"target":34962},{"buffer":0,"byteLength":6320,"byteOffset":13048,"target":34962},{"buffer":0,"byteLength":3160,"byteOffset":19368,"target":34962},{"buffer":0,"byteLength":3160,"byteOffset":22528,"target":34962},{"buffer":0,"byteLength":2676,"byteOffset":25688,"target":34963},{"buffer":0,"byteLength":3636,"byteOffset":28364,"target":34962},{"buffer":0,"byteLength":3636,"byteOffset":32000,"target":34962},{"buffer":0,"byteLength":4848,"byteOffset":35636,"target":34962},{"buffer":0,"byteLength":2424,"byteOffset":40484,"target":34962},{"buffer":0,"byteLength":2424,"byteOffset":42908,"target":34962},{"buffer":0,"byteLength":1776,"byteOffset":45332,"target":34963},{"buffer":0,"byteLength":2628,"byteOffset":47108,"target":34962},{"buffer":0,"byteLength":2628,"byteOffset":49736,"target":34962},{"buffer":0,"byteLength":3504,"byteOffset":52364,"target":34962},{"buffer":0,"byteLength":1752,"byteOffset":55868,"target":34962},{"buffer":0,"byteLength":1752,"byteOffset":57620,"target":34962},{"buffer":0,"byteLength":444,"byteOffset":59372,"target":34963},{"buffer":0,"byteLength":912,"byteOffset":59816,"target":34962},{"buffer":0,"byteLength":912,"byteOffset":60728,"target":34962},{"buffer":0,"byteLength":1216,"byteOffset":61640,"target":34962},{"buffer":0,"byteLength":608,"byteOffset":62856,"target":34962},{"buffer":0,"byteLength":608,"byteOffset":63464,"target":34962},{"buffer":0,"byteLength":324,"byteOffset":64072,"target":34963},{"buffer":0,"byteLength":372,"byteOffset":64396,"target":34962},{"buffer":0,"byteLength":372,"byteOffset":64768,"target":34962},{"buffer":0,"byteLength":248,"byteOffset":65140,"target":34962},{"buffer":0,"byteLength":248,"byteOffset":65388,"target":34962}],"buffers":[{"byteLength":65636,"uri":"SM_Tool_3.bin"}],"images":[{"name":"T_Tools_N","uri":"T_Tools_N.png"},{"name":"T_Tools_B","uri":"T_Tools_B.png"}],"materials":[{"alphaMode":"OPAQUE","doubleSided":false,"extras":{"fromFBX":{"isTruePBR":false,"shadingModel":"Phong"}},"name":"MI_Tools_02","normalTexture":{"index":0,"texCoord":0},"pbrMetallicRoughness":{"baseColorFactor":[1,1,1,1],"baseColorTexture":{"index":1,"texCoord":0},"metallicFactor":0.400000005960464,"roughnessFactor":0.301511347293854}},{"alphaMode":"OPAQUE","doubleSided":false,"extras":{"fromFBX":{"isTruePBR":false,"shadingModel":"Lambert"}},"name":"DefaultMaterial","pbrMetallicRoughness":{"baseColorFactor":[0.5,0.5,0.5,1],"metallicFactor":0.200000002980232,"roughnessFactor":0.800000011920929}}],"meshes":[{"name":"SM_Tool_3_LOD0","primitives":[{"attributes":{"NORMAL":3,"POSITION":2,"TANGENT":4,"TEXCOORD_0":5,"TEXCOORD_1":6},"indices":1,"material":0,"mode":4}]},{"name":"SM_Tool_3_LOD1","primitives":[{"attributes":{"NORMAL":9,"POSITION":8,"TANGENT":10,"TEXCOORD_0":11,"TEXCOORD_1":12},"indices":7,"material":0,"mode":4}]},{"name":"SM_Tool_3_LOD2","primitives":[{"attributes":{"NORMAL":15,"POSITION":14,"TANGENT":16,"TEXCOORD_0":17,"TEXCOORD_1":18},"indices":13,"material":0,"mode":4}]},{"name":"SM_Tool_3_LOD3","primitives":[{"attributes":{"NORMAL":21,"POSITION":20,"TANGENT":22,"TEXCOORD_0":23,"TEXCOORD_1":24},"indices":19,"material":0,"mode":4}]},{"name":"SM_Tool_3_ConvexHulls","primitives":[{"attributes":{"NORMAL":27,"POSITION":26,"TEXCOORD_0":28,"TEXCOORD_1":29},"indices":25,"material":1,"mode":4}]}],"nodes":[{"children":[1,2,3,4,5],"name":"SM_Tool_112","originalUnits":0.00999999977648258,"pivot":[0,0,0],"rotation":[0,0,0,1],"scale":[1,1,1],"translation":[0,0,0]},{"mesh":0,"name":"SM_Tool_3_LOD0","originalUnits":0.00999999977648258,"pivot":[0,0,0],"rotation":[0,0,0,1],"scale":[1,1,1],"translation":[0,0,0]},{"mesh":4,"name":"SM_Tool_3_ConvexHulls","originalUnits":0.00999999977648258,"pivot":[0,0,0],"rotation":[0,0,0,1],"scale":[1,1,1],"translation":[0,0,0]},{"mesh":1,"name":"SM_Tool_3_LOD1","originalUnits":0.00999999977648258,"pivot":[0,0,0],"rotation":[0,0,0,1],"scale":[1,1,1],"translation":[0,0,0]},{"mesh":2,"name":"SM_Tool_3_LOD2","originalUnits":0.00999999977648258,"pivot":[0,0,0],"rotation":[0,0,0,1],"scale":[1,1,1],"translation":[0,0,0]},{"mesh":3,"name":"SM_Tool_3_LOD3","originalUnits":0.00999999977648258,"pivot":[0,0,0],"rotation":[0,0,0,1],"scale":[1,1,1],"translation":[0,0,0]}],"samplers":[{}],"scene":0,"scenes":[{"name":"Root Scene","nodes":[0]}],"textures":[{"name":"MI_Tools_02","sampler":0,"source":0},{"name":"MI_Tools_02","sampler":0,"source":1}]}