{"accessors":[{"bufferView":0,"byteOffset":0,"componentType":5126,"count":1,"max":[0],"min":[0],"type":"SCALAR"},{"bufferView":1,"byteOffset":0,"componentType":5123,"count":1758,"type":"SCALAR"},{"bufferView":2,"byteOffset":0,"componentType":5126,"count":389,"max":[0.0131396492943168,0.113823212683201,0.0131396055221558],"min":[-0.01313964650035,-0.1138232126832,-0.01313961483538],"type":"VEC3"},{"bufferView":3,"byteOffset":0,"componentType":5126,"count":389,"type":"VEC3"},{"bufferView":4,"byteOffset":0,"componentType":5126,"count":389,"type":"VEC4"},{"bufferView":5,"byteOffset":0,"componentType":5126,"count":389,"type":"VEC2"},{"bufferView":6,"byteOffset":0,"componentType":5126,"count":389,"type":"VEC2"},{"bufferView":7,"byteOffset":0,"componentType":5123,"count":1320,"type":"SCALAR"},{"bufferView":8,"byteOffset":0,"componentType":5126,"count":296,"max":[0.0128668807446957,0.113827414810658,0.0128675485029817],"min":[-0.01293117366731,-0.1138232126832,-0.01286753173918],"type":"VEC3"},{"bufferView":9,"byteOffset":0,"componentType":5126,"count":296,"type":"VEC3"},{"bufferView":10,"byteOffset":0,"componentType":5126,"count":296,"type":"VEC4"},{"bufferView":11,"byteOffset":0,"componentType":5126,"count":296,"type":"VEC2"},{"bufferView":12,"byteOffset":0,"componentType":5126,"count":296,"type":"VEC2"},{"bufferView":13,"byteOffset":0,"componentType":5123,"count":876,"type":"SCALAR"},{"bufferView":14,"byteOffset":0,"componentType":5126,"count":213,"max":[0.0126649849116802,0.113833226263523,0.0126948989927769],"min":[-0.01272776350379,-0.1138232126832,-0.01269169338047],"type":"VEC3"},{"bufferView":15,"byteOffset":0,"componentType":5126,"count":213,"type":"VEC3"},{"bufferView":16,"byteOffset":0,"componentType":5126,"count":213,"type":"VEC4"},{"bufferView":17,"byteOffset":0,"componentType":5126,"count":213,"type":"VEC2"},{"bufferView":18,"byteOffset":0,"componentType":5126,"count":213,"type":"VEC2"},{"bufferView":19,"byteOffset":0,"componentType":5123,"count":219,"type":"SCALAR"},{"bufferView":20,"byteOffset":0,"componentType":5126,"count":74,"max":[0.0132072018459439,0.115298017859459,0.0127526018768549],"min":[-0.01215879525989,-0.11563285440207,-0.01181692443788],"type":"VEC3"},{"bufferView":21,"byteOffset":0,"componentType":5126,"count":74,"type":"VEC3"},{"bufferView":22,"byteOffset":0,"componentType":5126,"count":74,"type":"VEC4"},{"bufferView":23,"byteOffset":0,"componentType":5126,"count":74,"type":"VEC2"},{"bufferView":24,"byteOffset":0,"componentType":5126,"count":74,"type":"VEC2"},{"bufferView":25,"byteOffset":0,"componentType":5123,"count":168,"type":"SCALAR"},{"bufferView":26,"byteOffset":0,"componentType":5126,"count":32,"max":[0.0118607245385647,0.112759470939636,0.0125578362494707],"min":[-0.01259579882026,-0.1143826469779,-0.0120511110872],"type":"VEC3"},{"bufferView":27,"byteOffset":0,"componentType":5126,"count":32,"type":"VEC3"},{"bufferView":28,"byteOffset":0,"componentType":5126,"count":32,"type":"VEC2"},{"bufferView":29,"byteOffset":0,"componentType":5126,"count":32,"type":"VEC2"}],"animations":[{"channels":[],"name":"Unreal Take","samplers":[]}],"asset":{"generator":"FBX2glTF v0.13.0","version":"2.0"},"bufferViews":[{"buffer":0,"byteLength":4,"byteOffset":0},{"buffer":0,"byteLength":3516,"byteOffset":4,"target":34963},{"buffer":0,"byteLength":4668,"byteOffset":3520,"target":34962},{"buffer":0,"byteLength":4668,"byteOffset":8188,"target":34962},{"buffer":0,"byteLength":6224,"byteOffset":12856,"target":34962},{"buffer":0,"byteLength":3112,"byteOffset":19080,"target":34962},{"buffer":0,"byteLength":3112,"byteOffset":22192,"target":34962},{"buffer":0,"byteLength":2640,"byteOffset":25304,"target":34963},{"buffer":0,"byteLength":3552,"byteOffset":27944,"target":34962},{"buffer":0,"byteLength":3552,"byteOffset":31496,"target":34962},{"buffer":0,"byteLength":4736,"byteOffset":35048,"target":34962},{"buffer":0,"byteLength":2368,"byteOffset":39784,"target":34962},{"buffer":0,"byteLength":2368,"byteOffset":42152,"target":34962},{"buffer":0,"byteLength":1752,"byteOffset":44520,"target":34963},{"buffer":0,"byteLength":2556,"byteOffset":46272,"target":34962},{"buffer":0,"byteLength":2556,"byteOffset":48828,"target":34962},{"buffer":0,"byteLength":3408,"byteOffset":51384,"target":34962},{"buffer":0,"byteLength":1704,"byteOffset":54792,"target":34962},{"buffer":0,"byteLength":1704,"byteOffset":56496,"target":34962},{"buffer":0,"byteLength":438,"byteOffset":58200,"target":34963},{"buffer":0,"byteLength":888,"byteOffset":58640,"target":34962},{"buffer":0,"byteLength":888,"byteOffset":59528,"target":34962},{"buffer":0,"byteLength":1184,"byteOffset":60416,"target":34962},{"buffer":0,"byteLength":592,"byteOffset":61600,"target":34962},{"buffer":0,"byteLength":592,"byteOffset":62192,"target":34962},{"buffer":0,"byteLength":336,"byteOffset":62784,"target":34963},{"buffer":0,"byteLength":384,"byteOffset":63120,"target":34962},{"buffer":0,"byteLength":384,"byteOffset":63504,"target":34962},{"buffer":0,"byteLength":256,"byteOffset":63888,"target":34962},{"buffer":0,"byteLength":256,"byteOffset":64144,"target":34962}],"buffers":[{"byteLength":64400,"uri":"SM_Tool_12.bin"}],"images":[{"name":"T_Tools_N","uri":"T_Tools_N.png"},{"name":"T_Tools_B","uri":"T_Tools_B.png"}],"materials":[{"alphaMode":"OPAQUE","doubleSided":false,"extras":{"fromFBX":{"isTruePBR":false,"shadingModel":"Phong"}},"name":"MI_Tools_02","normalTexture":{"index":0,"texCoord":0},"pbrMetallicRoughness":{"baseColorFactor":[1,1,1,1],"baseColorTexture":{"index":1,"texCoord":0},"metallicFactor":0.400000005960464,"roughnessFactor":0.301511347293854}},{"alphaMode":"OPAQUE","doubleSided":false,"extras":{"fromFBX":{"isTruePBR":false,"shadingModel":"Lambert"}},"name":"DefaultMaterial","pbrMetallicRoughness":{"baseColorFactor":[0.5,0.5,0.5,1],"metallicFactor":0.200000002980232,"roughnessFactor":0.800000011920929}}],"meshes":[{"name":"SM_Tool_12_LOD0","primitives":[{"attributes":{"NORMAL":3,"POSITION":2,"TANGENT":4,"TEXCOORD_0":5,"TEXCOORD_1":6},"indices":1,"material":0,"mode":4}]},{"name":"SM_Tool_12_LOD1","primitives":[{"attributes":{"NORMAL":9,"POSITION":8,"TANGENT":10,"TEXCOORD_0":11,"TEXCOORD_1":12},"indices":7,"material":0,"mode":4}]},{"name":"SM_Tool_12_LOD2","primitives":[{"attributes":{"NORMAL":15,"POSITION":14,"TANGENT":16,"TEXCOORD_0":17,"TEXCOORD_1":18},"indices":13,"material":0,"mode":4}]},{"name":"SM_Tool_12_LOD3","primitives":[{"attributes":{"NORMAL":21,"POSITION":20,"TANGENT":22,"TEXCOORD_0":23,"TEXCOORD_1":24},"indices":19,"material":0,"mode":4}]},{"name":"SM_Tool_12_ConvexHulls","primitives":[{"attributes":{"NORMAL":27,"POSITION":26,"TEXCOORD_0":28,"TEXCOORD_1":29},"indices":25,"material":1,"mode":4}]}],"nodes":[{"children":[1,2,3,4,5],"name":"SM_Tool_121","originalUnits":0.00999999977648258,"pivot":[0,0,0],"rotation":[0,0,0,1],"scale":[1,1,1],"translation":[0,0,0]},{"mesh":0,"name":"SM_Tool_12_LOD0","originalUnits":0.00999999977648258,"pivot":[0,0,0],"rotation":[0,0,0,1],"scale":[1,1,1],"translation":[0,0,0]},{"mesh":4,"name":"SM_Tool_12_ConvexHulls","originalUnits":0.00999999977648258,"pivot":[0,0,0],"rotation":[0,0,0,1],"scale":[1,1,1],"translation":[0,0,0]},{"mesh":1,"name":"SM_Tool_12_LOD1","originalUnits":0.00999999977648258,"pivot":[0,0,0],"rotation":[0,0,0,1],"scale":[1,1,1],"translation":[0,0,0]},{"mesh":2,"name":"SM_Tool_12_LOD2","originalUnits":0.00999999977648258,"pivot":[0,0,0],"rotation":[0,0,0,1],"scale":[1,1,1],"translation":[0,0,0]},{"mesh":3,"name":"SM_Tool_12_LOD3","originalUnits":0.00999999977648258,"pivot":[0,0,0],"rotation":[0,0,0,1],"scale":[1,1,1],"translation":[0,0,0]}],"samplers":[{}],"scene":0,"scenes":[{"name":"Root Scene","nodes":[0]}],"textures":[{"name":"MI_Tools_02","sampler":0,"source":0},{"name":"MI_Tools_02","sampler":0,"source":1}]}