{"accessors":[{"bufferView":0,"byteOffset":0,"componentType":5126,"count":1,"max":[0],"min":[0],"type":"SCALAR"},{"bufferView":1,"byteOffset":0,"componentType":5123,"count":1134,"type":"SCALAR"},{"bufferView":2,"byteOffset":0,"componentType":5126,"count":272,"max":[0.0138977058231831,0.101365141570568,0.0155558008700609],"min":[-0.01569091714919,-0.10136514157057,-0.01555580087006],"type":"VEC3"},{"bufferView":3,"byteOffset":0,"componentType":5126,"count":272,"type":"VEC3"},{"bufferView":4,"byteOffset":0,"componentType":5126,"count":272,"type":"VEC4"},{"bufferView":5,"byteOffset":0,"componentType":5126,"count":272,"type":"VEC2"},{"bufferView":6,"byteOffset":0,"componentType":5126,"count":272,"type":"VEC2"},{"bufferView":7,"byteOffset":0,"componentType":5123,"count":852,"type":"SCALAR"},{"bufferView":8,"byteOffset":0,"componentType":5126,"count":217,"max":[0.0138977058231831,0.101606823503971,0.0155558008700609],"min":[-0.01569091714919,-0.10136514157057,-0.01555580087006],"type":"VEC3"},{"bufferView":9,"byteOffset":0,"componentType":5126,"count":217,"type":"VEC3"},{"bufferView":10,"byteOffset":0,"componentType":5126,"count":217,"type":"VEC4"},{"bufferView":11,"byteOffset":0,"componentType":5126,"count":217,"type":"VEC2"},{"bufferView":12,"byteOffset":0,"componentType":5126,"count":217,"type":"VEC2"},{"bufferView":13,"byteOffset":0,"componentType":5123,"count":564,"type":"SCALAR"},{"bufferView":14,"byteOffset":0,"componentType":5126,"count":156,"max":[0.0138977058231831,0.101606823503971,0.0155558008700609],"min":[-0.01569091714919,-0.10136514157057,-0.01555580087006],"type":"VEC3"},{"bufferView":15,"byteOffset":0,"componentType":5126,"count":156,"type":"VEC3"},{"bufferView":16,"byteOffset":0,"componentType":5126,"count":156,"type":"VEC4"},{"bufferView":17,"byteOffset":0,"componentType":5126,"count":156,"type":"VEC2"},{"bufferView":18,"byteOffset":0,"componentType":5126,"count":156,"type":"VEC2"},{"bufferView":19,"byteOffset":0,"componentType":5123,"count":144,"type":"SCALAR"},{"bufferView":20,"byteOffset":0,"componentType":5126,"count":63,"max":[0.0143598485738039,0.102165848016739,0.0168674699962139],"min":[-0.01654194109142,-0.10136514157057,-0.01651259325445],"type":"VEC3"},{"bufferView":21,"byteOffset":0,"componentType":5126,"count":63,"type":"VEC3"},{"bufferView":22,"byteOffset":0,"componentType":5126,"count":63,"type":"VEC4"},{"bufferView":23,"byteOffset":0,"componentType":5126,"count":63,"type":"VEC2"},{"bufferView":24,"byteOffset":0,"componentType":5126,"count":63,"type":"VEC2"},{"bufferView":25,"byteOffset":0,"componentType":5123,"count":246,"type":"SCALAR"},{"bufferView":26,"byteOffset":0,"componentType":5126,"count":47,"max":[0.0138574475422502,0.0995894148945808,0.0149022024124861],"min":[-0.01495302189142,-0.1018355935812,-0.01381324511021],"type":"VEC3"},{"bufferView":27,"byteOffset":0,"componentType":5126,"count":47,"type":"VEC3"},{"bufferView":28,"byteOffset":0,"componentType":5126,"count":47,"type":"VEC2"},{"bufferView":29,"byteOffset":0,"componentType":5126,"count":47,"type":"VEC2"}],"animations":[{"channels":[],"name":"Unreal Take","samplers":[]}],"asset":{"generator":"FBX2glTF v0.13.0","version":"2.0"},"bufferViews":[{"buffer":0,"byteLength":4,"byteOffset":0},{"buffer":0,"byteLength":2268,"byteOffset":4,"target":34963},{"buffer":0,"byteLength":3264,"byteOffset":2272,"target":34962},{"buffer":0,"byteLength":3264,"byteOffset":5536,"target":34962},{"buffer":0,"byteLength":4352,"byteOffset":8800,"target":34962},{"buffer":0,"byteLength":2176,"byteOffset":13152,"target":34962},{"buffer":0,"byteLength":2176,"byteOffset":15328,"target":34962},{"buffer":0,"byteLength":1704,"byteOffset":17504,"target":34963},{"buffer":0,"byteLength":2604,"byteOffset":19208,"target":34962},{"buffer":0,"byteLength":2604,"byteOffset":21812,"target":34962},{"buffer":0,"byteLength":3472,"byteOffset":24416,"target":34962},{"buffer":0,"byteLength":1736,"byteOffset":27888,"target":34962},{"buffer":0,"byteLength":1736,"byteOffset":29624,"target":34962},{"buffer":0,"byteLength":1128,"byteOffset":31360,"target":34963},{"buffer":0,"byteLength":1872,"byteOffset":32488,"target":34962},{"buffer":0,"byteLength":1872,"byteOffset":34360,"target":34962},{"buffer":0,"byteLength":2496,"byteOffset":36232,"target":34962},{"buffer":0,"byteLength":1248,"byteOffset":38728,"target":34962},{"buffer":0,"byteLength":1248,"byteOffset":39976,"target":34962},{"buffer":0,"byteLength":288,"byteOffset":41224,"target":34963},{"buffer":0,"byteLength":756,"byteOffset":41512,"target":34962},{"buffer":0,"byteLength":756,"byteOffset":42268,"target":34962},{"buffer":0,"byteLength":1008,"byteOffset":43024,"target":34962},{"buffer":0,"byteLength":504,"byteOffset":44032,"target":34962},{"buffer":0,"byteLength":504,"byteOffset":44536,"target":34962},{"buffer":0,"byteLength":492,"byteOffset":45040,"target":34963},{"buffer":0,"byteLength":564,"byteOffset":45532,"target":34962},{"buffer":0,"byteLength":564,"byteOffset":46096,"target":34962},{"buffer":0,"byteLength":376,"byteOffset":46660,"target":34962},{"buffer":0,"byteLength":376,"byteOffset":47036,"target":34962}],"buffers":[{"byteLength":47412,"uri":"SM_Tool_9.bin"}],"images":[{"name":"T_Tools_N","uri":"T_Tools_N.png"},{"name":"T_Tools_B","uri":"T_Tools_B.png"}],"materials":[{"alphaMode":"OPAQUE","doubleSided":false,"extras":{"fromFBX":{"isTruePBR":false,"shadingModel":"Phong"}},"name":"MI_Tools_02","normalTexture":{"index":0,"texCoord":0},"pbrMetallicRoughness":{"baseColorFactor":[1,1,1,1],"baseColorTexture":{"index":1,"texCoord":0},"metallicFactor":0.400000005960464,"roughnessFactor":0.301511347293854}},{"alphaMode":"OPAQUE","doubleSided":false,"extras":{"fromFBX":{"isTruePBR":false,"shadingModel":"Lambert"}},"name":"DefaultMaterial","pbrMetallicRoughness":{"baseColorFactor":[0.5,0.5,0.5,1],"metallicFactor":0.200000002980232,"roughnessFactor":0.800000011920929}}],"meshes":[{"name":"SM_Tool_9_LOD0","primitives":[{"attributes":{"NORMAL":3,"POSITION":2,"TANGENT":4,"TEXCOORD_0":5,"TEXCOORD_1":6},"indices":1,"material":0,"mode":4}]},{"name":"SM_Tool_9_LOD1","primitives":[{"attributes":{"NORMAL":9,"POSITION":8,"TANGENT":10,"TEXCOORD_0":11,"TEXCOORD_1":12},"indices":7,"material":0,"mode":4}]},{"name":"SM_Tool_9_LOD2","primitives":[{"attributes":{"NORMAL":15,"POSITION":14,"TANGENT":16,"TEXCOORD_0":17,"TEXCOORD_1":18},"indices":13,"material":0,"mode":4}]},{"name":"SM_Tool_9_LOD3","primitives":[{"attributes":{"NORMAL":21,"POSITION":20,"TANGENT":22,"TEXCOORD_0":23,"TEXCOORD_1":24},"indices":19,"material":0,"mode":4}]},{"name":"SM_Tool_9_ConvexHulls","primitives":[{"attributes":{"NORMAL":27,"POSITION":26,"TEXCOORD_0":28,"TEXCOORD_1":29},"indices":25,"material":1,"mode":4}]}],"nodes":[{"children":[1,2,3,4,5],"name":"SM_Tool_118","originalUnits":0.00999999977648258,"pivot":[0,0,0],"rotation":[0,0,0,1],"scale":[1,1,1],"translation":[0,0,0]},{"mesh":0,"name":"SM_Tool_9_LOD0","originalUnits":0.00999999977648258,"pivot":[0,0,0],"rotation":[0,0,0,1],"scale":[1,1,1],"translation":[0,0,0]},{"mesh":4,"name":"SM_Tool_9_ConvexHulls","originalUnits":0.00999999977648258,"pivot":[0,0,0],"rotation":[0,0,0,1],"scale":[1,1,1],"translation":[0,0,0]},{"mesh":1,"name":"SM_Tool_9_LOD1","originalUnits":0.00999999977648258,"pivot":[0,0,0],"rotation":[0,0,0,1],"scale":[1,1,1],"translation":[0,0,0]},{"mesh":2,"name":"SM_Tool_9_LOD2","originalUnits":0.00999999977648258,"pivot":[0,0,0],"rotation":[0,0,0,1],"scale":[1,1,1],"translation":[0,0,0]},{"mesh":3,"name":"SM_Tool_9_LOD3","originalUnits":0.00999999977648258,"pivot":[0,0,0],"rotation":[0,0,0,1],"scale":[1,1,1],"translation":[0,0,0]}],"samplers":[{}],"scene":0,"scenes":[{"name":"Root Scene","nodes":[0]}],"textures":[{"name":"MI_Tools_02","sampler":0,"source":0},{"name":"MI_Tools_02","sampler":0,"source":1}]}