{"accessors":[{"bufferView":0,"byteOffset":0,"componentType":5126,"count":1,"max":[0],"min":[0],"type":"SCALAR"},{"bufferView":1,"byteOffset":0,"componentType":5123,"count":1824,"type":"SCALAR"},{"bufferView":2,"byteOffset":0,"componentType":5126,"count":400,"max":[0.0131396492943168,0.109081588685513,0.0131396390497684],"min":[-0.01313964650035,-0.10908158868551,-0.01313965767622],"type":"VEC3"},{"bufferView":3,"byteOffset":0,"componentType":5126,"count":400,"type":"VEC3"},{"bufferView":4,"byteOffset":0,"componentType":5126,"count":400,"type":"VEC4"},{"bufferView":5,"byteOffset":0,"componentType":5126,"count":400,"type":"VEC2"},{"bufferView":6,"byteOffset":0,"componentType":5126,"count":400,"type":"VEC2"},{"bufferView":7,"byteOffset":0,"componentType":5123,"count":1368,"type":"SCALAR"},{"bufferView":8,"byteOffset":0,"componentType":5126,"count":307,"max":[0.0128668798133731,0.10908579826355,0.0128675876185298],"min":[-0.01293117273599,-0.10908158868551,-0.01286757085472],"type":"VEC3"},{"bufferView":9,"byteOffset":0,"componentType":5126,"count":307,"type":"VEC3"},{"bufferView":10,"byteOffset":0,"componentType":5126,"count":307,"type":"VEC4"},{"bufferView":11,"byteOffset":0,"componentType":5126,"count":307,"type":"VEC2"},{"bufferView":12,"byteOffset":0,"componentType":5126,"count":307,"type":"VEC2"},{"bufferView":13,"byteOffset":0,"componentType":5123,"count":912,"type":"SCALAR"},{"bufferView":14,"byteOffset":0,"componentType":5126,"count":218,"max":[0.0126649877056479,0.109091602265835,0.012694931589067],"min":[-0.01272776536644,-0.10908158868551,-0.01269174087793],"type":"VEC3"},{"bufferView":15,"byteOffset":0,"componentType":5126,"count":218,"type":"VEC3"},{"bufferView":16,"byteOffset":0,"componentType":5126,"count":218,"type":"VEC4"},{"bufferView":17,"byteOffset":0,"componentType":5126,"count":218,"type":"VEC2"},{"bufferView":18,"byteOffset":0,"componentType":5126,"count":218,"type":"VEC2"},{"bufferView":19,"byteOffset":0,"componentType":5123,"count":228,"type":"SCALAR"},{"bufferView":20,"byteOffset":0,"componentType":5126,"count":72,"max":[0.0124918445944786,0.111103735864162,0.0126116331666708],"min":[-0.01222818810493,-0.10844530910254,-0.01365333143622],"type":"VEC3"},{"bufferView":21,"byteOffset":0,"componentType":5126,"count":72,"type":"VEC3"},{"bufferView":22,"byteOffset":0,"componentType":5126,"count":72,"type":"VEC4"},{"bufferView":23,"byteOffset":0,"componentType":5126,"count":72,"type":"VEC2"},{"bufferView":24,"byteOffset":0,"componentType":5126,"count":72,"type":"VEC2"},{"bufferView":25,"byteOffset":0,"componentType":5123,"count":168,"type":"SCALAR"},{"bufferView":26,"byteOffset":0,"componentType":5126,"count":32,"max":[0.0112317092716694,0.107620134949684,0.0123947272077203],"min":[-0.01295625418425,-0.10966318845749,-0.01122834999114],"type":"VEC3"},{"bufferView":27,"byteOffset":0,"componentType":5126,"count":32,"type":"VEC3"},{"bufferView":28,"byteOffset":0,"componentType":5126,"count":32,"type":"VEC2"},{"bufferView":29,"byteOffset":0,"componentType":5126,"count":32,"type":"VEC2"}],"animations":[{"channels":[],"name":"Unreal Take","samplers":[]}],"asset":{"generator":"FBX2glTF v0.13.0","version":"2.0"},"bufferViews":[{"buffer":0,"byteLength":4,"byteOffset":0},{"buffer":0,"byteLength":3648,"byteOffset":4,"target":34963},{"buffer":0,"byteLength":4800,"byteOffset":3652,"target":34962},{"buffer":0,"byteLength":4800,"byteOffset":8452,"target":34962},{"buffer":0,"byteLength":6400,"byteOffset":13252,"target":34962},{"buffer":0,"byteLength":3200,"byteOffset":19652,"target":34962},{"buffer":0,"byteLength":3200,"byteOffset":22852,"target":34962},{"buffer":0,"byteLength":2736,"byteOffset":26052,"target":34963},{"buffer":0,"byteLength":3684,"byteOffset":28788,"target":34962},{"buffer":0,"byteLength":3684,"byteOffset":32472,"target":34962},{"buffer":0,"byteLength":4912,"byteOffset":36156,"target":34962},{"buffer":0,"byteLength":2456,"byteOffset":41068,"target":34962},{"buffer":0,"byteLength":2456,"byteOffset":43524,"target":34962},{"buffer":0,"byteLength":1824,"byteOffset":45980,"target":34963},{"buffer":0,"byteLength":2616,"byteOffset":47804,"target":34962},{"buffer":0,"byteLength":2616,"byteOffset":50420,"target":34962},{"buffer":0,"byteLength":3488,"byteOffset":53036,"target":34962},{"buffer":0,"byteLength":1744,"byteOffset":56524,"target":34962},{"buffer":0,"byteLength":1744,"byteOffset":58268,"target":34962},{"buffer":0,"byteLength":456,"byteOffset":60012,"target":34963},{"buffer":0,"byteLength":864,"byteOffset":60468,"target":34962},{"buffer":0,"byteLength":864,"byteOffset":61332,"target":34962},{"buffer":0,"byteLength":1152,"byteOffset":62196,"target":34962},{"buffer":0,"byteLength":576,"byteOffset":63348,"target":34962},{"buffer":0,"byteLength":576,"byteOffset":63924,"target":34962},{"buffer":0,"byteLength":336,"byteOffset":64500,"target":34963},{"buffer":0,"byteLength":384,"byteOffset":64836,"target":34962},{"buffer":0,"byteLength":384,"byteOffset":65220,"target":34962},{"buffer":0,"byteLength":256,"byteOffset":65604,"target":34962},{"buffer":0,"byteLength":256,"byteOffset":65860,"target":34962}],"buffers":[{"byteLength":66116,"uri":"SM_Tool_14.bin"}],"images":[{"name":"T_Tools_N","uri":"T_Tools_N.png"},{"name":"T_Tools_B","uri":"T_Tools_B.png"}],"materials":[{"alphaMode":"OPAQUE","doubleSided":false,"extras":{"fromFBX":{"isTruePBR":false,"shadingModel":"Phong"}},"name":"MI_Tools_02","normalTexture":{"index":0,"texCoord":0},"pbrMetallicRoughness":{"baseColorFactor":[1,1,1,1],"baseColorTexture":{"index":1,"texCoord":0},"metallicFactor":0.400000005960464,"roughnessFactor":0.301511347293854}},{"alphaMode":"OPAQUE","doubleSided":false,"extras":{"fromFBX":{"isTruePBR":false,"shadingModel":"Lambert"}},"name":"DefaultMaterial","pbrMetallicRoughness":{"baseColorFactor":[0.5,0.5,0.5,1],"metallicFactor":0.200000002980232,"roughnessFactor":0.800000011920929}}],"meshes":[{"name":"SM_Tool_14_LOD0","primitives":[{"attributes":{"NORMAL":3,"POSITION":2,"TANGENT":4,"TEXCOORD_0":5,"TEXCOORD_1":6},"indices":1,"material":0,"mode":4}]},{"name":"SM_Tool_14_LOD1","primitives":[{"attributes":{"NORMAL":9,"POSITION":8,"TANGENT":10,"TEXCOORD_0":11,"TEXCOORD_1":12},"indices":7,"material":0,"mode":4}]},{"name":"SM_Tool_14_LOD2","primitives":[{"attributes":{"NORMAL":15,"POSITION":14,"TANGENT":16,"TEXCOORD_0":17,"TEXCOORD_1":18},"indices":13,"material":0,"mode":4}]},{"name":"SM_Tool_14_LOD3","primitives":[{"attributes":{"NORMAL":21,"POSITION":20,"TANGENT":22,"TEXCOORD_0":23,"TEXCOORD_1":24},"indices":19,"material":0,"mode":4}]},{"name":"SM_Tool_14_ConvexHulls","primitives":[{"attributes":{"NORMAL":27,"POSITION":26,"TEXCOORD_0":28,"TEXCOORD_1":29},"indices":25,"material":1,"mode":4}]}],"nodes":[{"children":[1,2,3,4,5],"name":"SM_Tool_123","originalUnits":0.00999999977648258,"pivot":[0,0,0],"rotation":[0,0,0,1],"scale":[1,1,1],"translation":[0,0,0]},{"mesh":0,"name":"SM_Tool_14_LOD0","originalUnits":0.00999999977648258,"pivot":[0,0,0],"rotation":[0,0,0,1],"scale":[1,1,1],"translation":[0,0,0]},{"mesh":4,"name":"SM_Tool_14_ConvexHulls","originalUnits":0.00999999977648258,"pivot":[0,0,0],"rotation":[0,0,0,1],"scale":[1,1,1],"translation":[0,0,0]},{"mesh":1,"name":"SM_Tool_14_LOD1","originalUnits":0.00999999977648258,"pivot":[0,0,0],"rotation":[0,0,0,1],"scale":[1,1,1],"translation":[0,0,0]},{"mesh":2,"name":"SM_Tool_14_LOD2","originalUnits":0.00999999977648258,"pivot":[0,0,0],"rotation":[0,0,0,1],"scale":[1,1,1],"translation":[0,0,0]},{"mesh":3,"name":"SM_Tool_14_LOD3","originalUnits":0.00999999977648258,"pivot":[0,0,0],"rotation":[0,0,0,1],"scale":[1,1,1],"translation":[0,0,0]}],"samplers":[{}],"scene":0,"scenes":[{"name":"Root Scene","nodes":[0]}],"textures":[{"name":"MI_Tools_02","sampler":0,"source":0},{"name":"MI_Tools_02","sampler":0,"source":1}]}