{"accessors":[{"bufferView":0,"byteOffset":0,"componentType":5126,"count":1,"max":[0],"min":[0],"type":"SCALAR"},{"bufferView":1,"byteOffset":0,"componentType":5123,"count":1278,"type":"SCALAR"},{"bufferView":2,"byteOffset":0,"componentType":5126,"count":300,"max":[0.0138977048918605,0.0750417858362198,0.0155558008700609],"min":[-0.01569091714919,-0.07504178583622,-0.01555580087006],"type":"VEC3"},{"bufferView":3,"byteOffset":0,"componentType":5126,"count":300,"type":"VEC3"},{"bufferView":4,"byteOffset":0,"componentType":5126,"count":300,"type":"VEC4"},{"bufferView":5,"byteOffset":0,"componentType":5126,"count":300,"type":"VEC2"},{"bufferView":6,"byteOffset":0,"componentType":5126,"count":300,"type":"VEC2"},{"bufferView":7,"byteOffset":0,"componentType":5123,"count":960,"type":"SCALAR"},{"bufferView":8,"byteOffset":0,"componentType":5126,"count":237,"max":[0.0138977048918605,0.0752834603190422,0.0155558008700609],"min":[-0.01569091714919,-0.07504178583622,-0.01555580087006],"type":"VEC3"},{"bufferView":9,"byteOffset":0,"componentType":5126,"count":237,"type":"VEC3"},{"bufferView":10,"byteOffset":0,"componentType":5126,"count":237,"type":"VEC4"},{"bufferView":11,"byteOffset":0,"componentType":5126,"count":237,"type":"VEC2"},{"bufferView":12,"byteOffset":0,"componentType":5126,"count":237,"type":"VEC2"},{"bufferView":13,"byteOffset":0,"componentType":5123,"count":636,"type":"SCALAR"},{"bufferView":14,"byteOffset":0,"componentType":5126,"count":171,"max":[0.0138977048918605,0.0752834603190422,0.0155558008700609],"min":[-0.01569091714919,-0.07504178583622,-0.01555580087006],"type":"VEC3"},{"bufferView":15,"byteOffset":0,"componentType":5126,"count":171,"type":"VEC3"},{"bufferView":16,"byteOffset":0,"componentType":5126,"count":171,"type":"VEC4"},{"bufferView":17,"byteOffset":0,"componentType":5126,"count":171,"type":"VEC2"},{"bufferView":18,"byteOffset":0,"componentType":5126,"count":171,"type":"VEC2"},{"bufferView":19,"byteOffset":0,"componentType":5123,"count":162,"type":"SCALAR"},{"bufferView":20,"byteOffset":0,"componentType":5126,"count":63,"max":[0.0143597489222884,0.0758424624800682,0.0168674327433109],"min":[-0.01801628619432,-0.07519969344139,-0.01651258952916],"type":"VEC3"},{"bufferView":21,"byteOffset":0,"componentType":5126,"count":63,"type":"VEC3"},{"bufferView":22,"byteOffset":0,"componentType":5126,"count":63,"type":"VEC4"},{"bufferView":23,"byteOffset":0,"componentType":5126,"count":63,"type":"VEC2"},{"bufferView":24,"byteOffset":0,"componentType":5126,"count":63,"type":"VEC2"},{"bufferView":25,"byteOffset":0,"componentType":5123,"count":270,"type":"SCALAR"},{"bufferView":26,"byteOffset":0,"componentType":5126,"count":53,"max":[0.0133660016581416,0.0734404847025871,0.0151778971776366],"min":[-0.01498115900904,-0.07551575452089,-0.01444139704108],"type":"VEC3"},{"bufferView":27,"byteOffset":0,"componentType":5126,"count":53,"type":"VEC3"},{"bufferView":28,"byteOffset":0,"componentType":5126,"count":53,"type":"VEC2"},{"bufferView":29,"byteOffset":0,"componentType":5126,"count":53,"type":"VEC2"}],"animations":[{"channels":[],"name":"Unreal Take","samplers":[]}],"asset":{"generator":"FBX2glTF v0.13.0","version":"2.0"},"bufferViews":[{"buffer":0,"byteLength":4,"byteOffset":0},{"buffer":0,"byteLength":2556,"byteOffset":4,"target":34963},{"buffer":0,"byteLength":3600,"byteOffset":2560,"target":34962},{"buffer":0,"byteLength":3600,"byteOffset":6160,"target":34962},{"buffer":0,"byteLength":4800,"byteOffset":9760,"target":34962},{"buffer":0,"byteLength":2400,"byteOffset":14560,"target":34962},{"buffer":0,"byteLength":2400,"byteOffset":16960,"target":34962},{"buffer":0,"byteLength":1920,"byteOffset":19360,"target":34963},{"buffer":0,"byteLength":2844,"byteOffset":21280,"target":34962},{"buffer":0,"byteLength":2844,"byteOffset":24124,"target":34962},{"buffer":0,"byteLength":3792,"byteOffset":26968,"target":34962},{"buffer":0,"byteLength":1896,"byteOffset":30760,"target":34962},{"buffer":0,"byteLength":1896,"byteOffset":32656,"target":34962},{"buffer":0,"byteLength":1272,"byteOffset":34552,"target":34963},{"buffer":0,"byteLength":2052,"byteOffset":35824,"target":34962},{"buffer":0,"byteLength":2052,"byteOffset":37876,"target":34962},{"buffer":0,"byteLength":2736,"byteOffset":39928,"target":34962},{"buffer":0,"byteLength":1368,"byteOffset":42664,"target":34962},{"buffer":0,"byteLength":1368,"byteOffset":44032,"target":34962},{"buffer":0,"byteLength":324,"byteOffset":45400,"target":34963},{"buffer":0,"byteLength":756,"byteOffset":45724,"target":34962},{"buffer":0,"byteLength":756,"byteOffset":46480,"target":34962},{"buffer":0,"byteLength":1008,"byteOffset":47236,"target":34962},{"buffer":0,"byteLength":504,"byteOffset":48244,"target":34962},{"buffer":0,"byteLength":504,"byteOffset":48748,"target":34962},{"buffer":0,"byteLength":540,"byteOffset":49252,"target":34963},{"buffer":0,"byteLength":636,"byteOffset":49792,"target":34962},{"buffer":0,"byteLength":636,"byteOffset":50428,"target":34962},{"buffer":0,"byteLength":424,"byteOffset":51064,"target":34962},{"buffer":0,"byteLength":424,"byteOffset":51488,"target":34962}],"buffers":[{"byteLength":51912,"uri":"SM_Tool_10.bin"}],"images":[{"name":"T_Tools_N","uri":"T_Tools_N.png"},{"name":"T_Tools_B","uri":"T_Tools_B.png"}],"materials":[{"alphaMode":"OPAQUE","doubleSided":false,"extras":{"fromFBX":{"isTruePBR":false,"shadingModel":"Phong"}},"name":"MI_Tools_02","normalTexture":{"index":0,"texCoord":0},"pbrMetallicRoughness":{"baseColorFactor":[1,1,1,1],"baseColorTexture":{"index":1,"texCoord":0},"metallicFactor":0.400000005960464,"roughnessFactor":0.301511347293854}},{"alphaMode":"OPAQUE","doubleSided":false,"extras":{"fromFBX":{"isTruePBR":false,"shadingModel":"Lambert"}},"name":"DefaultMaterial","pbrMetallicRoughness":{"baseColorFactor":[0.5,0.5,0.5,1],"metallicFactor":0.200000002980232,"roughnessFactor":0.800000011920929}}],"meshes":[{"name":"SM_Tool_10_LOD0","primitives":[{"attributes":{"NORMAL":3,"POSITION":2,"TANGENT":4,"TEXCOORD_0":5,"TEXCOORD_1":6},"indices":1,"material":0,"mode":4}]},{"name":"SM_Tool_10_LOD1","primitives":[{"attributes":{"NORMAL":9,"POSITION":8,"TANGENT":10,"TEXCOORD_0":11,"TEXCOORD_1":12},"indices":7,"material":0,"mode":4}]},{"name":"SM_Tool_10_LOD2","primitives":[{"attributes":{"NORMAL":15,"POSITION":14,"TANGENT":16,"TEXCOORD_0":17,"TEXCOORD_1":18},"indices":13,"material":0,"mode":4}]},{"name":"SM_Tool_10_LOD3","primitives":[{"attributes":{"NORMAL":21,"POSITION":20,"TANGENT":22,"TEXCOORD_0":23,"TEXCOORD_1":24},"indices":19,"material":0,"mode":4}]},{"name":"SM_Tool_10_ConvexHulls","primitives":[{"attributes":{"NORMAL":27,"POSITION":26,"TEXCOORD_0":28,"TEXCOORD_1":29},"indices":25,"material":1,"mode":4}]}],"nodes":[{"children":[1,2,3,4,5],"name":"SM_Tool_119","originalUnits":0.00999999977648258,"pivot":[0,0,0],"rotation":[0,0,0,1],"scale":[1,1,1],"translation":[0,0,0]},{"mesh":0,"name":"SM_Tool_10_LOD0","originalUnits":0.00999999977648258,"pivot":[0,0,0],"rotation":[0,0,0,1],"scale":[1,1,1],"translation":[0,0,0]},{"mesh":4,"name":"SM_Tool_10_ConvexHulls","originalUnits":0.00999999977648258,"pivot":[0,0,0],"rotation":[0,0,0,1],"scale":[1,1,1],"translation":[0,0,0]},{"mesh":1,"name":"SM_Tool_10_LOD1","originalUnits":0.00999999977648258,"pivot":[0,0,0],"rotation":[0,0,0,1],"scale":[1,1,1],"translation":[0,0,0]},{"mesh":2,"name":"SM_Tool_10_LOD2","originalUnits":0.00999999977648258,"pivot":[0,0,0],"rotation":[0,0,0,1],"scale":[1,1,1],"translation":[0,0,0]},{"mesh":3,"name":"SM_Tool_10_LOD3","originalUnits":0.00999999977648258,"pivot":[0,0,0],"rotation":[0,0,0,1],"scale":[1,1,1],"translation":[0,0,0]}],"samplers":[{}],"scene":0,"scenes":[{"name":"Root Scene","nodes":[0]}],"textures":[{"name":"MI_Tools_02","sampler":0,"source":0},{"name":"MI_Tools_02","sampler":0,"source":1}]}