{"accessors":[{"bufferView":0,"byteOffset":0,"componentType":5126,"count":1,"max":[0],"min":[0],"type":"SCALAR"},{"bufferView":1,"byteOffset":0,"componentType":5123,"count":1392,"type":"SCALAR"},{"bufferView":2,"byteOffset":0,"componentType":5126,"count":311,"max":[0.00341217103414237,0.141844063997269,0.0260628499090672],"min":[-0.04118255525827,-0.14184406399727,-0.02606284990907],"type":"VEC3"},{"bufferView":3,"byteOffset":0,"componentType":5126,"count":311,"type":"VEC3"},{"bufferView":4,"byteOffset":0,"componentType":5126,"count":311,"type":"VEC4"},{"bufferView":5,"byteOffset":0,"componentType":5126,"count":311,"type":"VEC2"},{"bufferView":6,"byteOffset":0,"componentType":5126,"count":311,"type":"VEC2"},{"bufferView":7,"byteOffset":0,"componentType":5123,"count":1044,"type":"SCALAR"},{"bufferView":8,"byteOffset":0,"componentType":5126,"count":243,"max":[0.00336644263006747,0.141844496130943,0.0260628499090672],"min":[-0.04113575443625,-0.14184406399727,-0.02606284990907],"type":"VEC3"},{"bufferView":9,"byteOffset":0,"componentType":5126,"count":243,"type":"VEC3"},{"bufferView":10,"byteOffset":0,"componentType":5126,"count":243,"type":"VEC4"},{"bufferView":11,"byteOffset":0,"componentType":5126,"count":243,"type":"VEC2"},{"bufferView":12,"byteOffset":0,"componentType":5126,"count":243,"type":"VEC2"},{"bufferView":13,"byteOffset":0,"componentType":5123,"count":696,"type":"SCALAR"},{"bufferView":14,"byteOffset":0,"componentType":5126,"count":174,"max":[0.00348036736249924,0.141943350434303,0.0264368914067745],"min":[-0.04135231301188,-0.14184406399727,-0.02653516642749],"type":"VEC3"},{"bufferView":15,"byteOffset":0,"componentType":5126,"count":174,"type":"VEC3"},{"bufferView":16,"byteOffset":0,"componentType":5126,"count":174,"type":"VEC4"},{"bufferView":17,"byteOffset":0,"componentType":5126,"count":174,"type":"VEC2"},{"bufferView":18,"byteOffset":0,"componentType":5126,"count":174,"type":"VEC2"},{"bufferView":19,"byteOffset":0,"componentType":5123,"count":174,"type":"SCALAR"},{"bufferView":20,"byteOffset":0,"componentType":5126,"count":76,"max":[0.00060747243696823,0.145545139908791,0.0272614359855652],"min":[-0.04237392172217,-0.14463256299496,-0.02653516642749],"type":"VEC3"},{"bufferView":21,"byteOffset":0,"componentType":5126,"count":76,"type":"VEC3"},{"bufferView":22,"byteOffset":0,"componentType":5126,"count":76,"type":"VEC4"},{"bufferView":23,"byteOffset":0,"componentType":5126,"count":76,"type":"VEC2"},{"bufferView":24,"byteOffset":0,"componentType":5126,"count":76,"type":"VEC2"},{"bufferView":25,"byteOffset":0,"componentType":5123,"count":162,"type":"SCALAR"},{"bufferView":26,"byteOffset":0,"componentType":5126,"count":35,"max":[0.00231752544641495,0.140160247683525,0.0255075562745333],"min":[-0.03971426934004,-0.14273636043072,-0.02511112950742],"type":"VEC3"},{"bufferView":27,"byteOffset":0,"componentType":5126,"count":35,"type":"VEC3"},{"bufferView":28,"byteOffset":0,"componentType":5126,"count":35,"type":"VEC2"},{"bufferView":29,"byteOffset":0,"componentType":5126,"count":35,"type":"VEC2"}],"animations":[{"channels":[],"name":"Unreal Take","samplers":[]}],"asset":{"generator":"FBX2glTF v0.13.0","version":"2.0"},"bufferViews":[{"buffer":0,"byteLength":4,"byteOffset":0},{"buffer":0,"byteLength":2784,"byteOffset":4,"target":34963},{"buffer":0,"byteLength":3732,"byteOffset":2788,"target":34962},{"buffer":0,"byteLength":3732,"byteOffset":6520,"target":34962},{"buffer":0,"byteLength":4976,"byteOffset":10252,"target":34962},{"buffer":0,"byteLength":2488,"byteOffset":15228,"target":34962},{"buffer":0,"byteLength":2488,"byteOffset":17716,"target":34962},{"buffer":0,"byteLength":2088,"byteOffset":20204,"target":34963},{"buffer":0,"byteLength":2916,"byteOffset":22292,"target":34962},{"buffer":0,"byteLength":2916,"byteOffset":25208,"target":34962},{"buffer":0,"byteLength":3888,"byteOffset":28124,"target":34962},{"buffer":0,"byteLength":1944,"byteOffset":32012,"target":34962},{"buffer":0,"byteLength":1944,"byteOffset":33956,"target":34962},{"buffer":0,"byteLength":1392,"byteOffset":35900,"target":34963},{"buffer":0,"byteLength":2088,"byteOffset":37292,"target":34962},{"buffer":0,"byteLength":2088,"byteOffset":39380,"target":34962},{"buffer":0,"byteLength":2784,"byteOffset":41468,"target":34962},{"buffer":0,"byteLength":1392,"byteOffset":44252,"target":34962},{"buffer":0,"byteLength":1392,"byteOffset":45644,"target":34962},{"buffer":0,"byteLength":348,"byteOffset":47036,"target":34963},{"buffer":0,"byteLength":912,"byteOffset":47384,"target":34962},{"buffer":0,"byteLength":912,"byteOffset":48296,"target":34962},{"buffer":0,"byteLength":1216,"byteOffset":49208,"target":34962},{"buffer":0,"byteLength":608,"byteOffset":50424,"target":34962},{"buffer":0,"byteLength":608,"byteOffset":51032,"target":34962},{"buffer":0,"byteLength":324,"byteOffset":51640,"target":34963},{"buffer":0,"byteLength":420,"byteOffset":51964,"target":34962},{"buffer":0,"byteLength":420,"byteOffset":52384,"target":34962},{"buffer":0,"byteLength":280,"byteOffset":52804,"target":34962},{"buffer":0,"byteLength":280,"byteOffset":53084,"target":34962}],"buffers":[{"byteLength":53364,"uri":"SM_Tool_7.bin"}],"images":[{"name":"T_Tools_N","uri":"T_Tools_N.png"},{"name":"T_Tools_B","uri":"T_Tools_B.png"}],"materials":[{"alphaMode":"OPAQUE","doubleSided":false,"extras":{"fromFBX":{"isTruePBR":false,"shadingModel":"Phong"}},"name":"MI_Tools_02","normalTexture":{"index":0,"texCoord":0},"pbrMetallicRoughness":{"baseColorFactor":[1,1,1,1],"baseColorTexture":{"index":1,"texCoord":0},"metallicFactor":0.400000005960464,"roughnessFactor":0.301511347293854}},{"alphaMode":"OPAQUE","doubleSided":false,"extras":{"fromFBX":{"isTruePBR":false,"shadingModel":"Lambert"}},"name":"DefaultMaterial","pbrMetallicRoughness":{"baseColorFactor":[0.5,0.5,0.5,1],"metallicFactor":0.200000002980232,"roughnessFactor":0.800000011920929}}],"meshes":[{"name":"SM_Tool_7_LOD0","primitives":[{"attributes":{"NORMAL":3,"POSITION":2,"TANGENT":4,"TEXCOORD_0":5,"TEXCOORD_1":6},"indices":1,"material":0,"mode":4}]},{"name":"SM_Tool_7_LOD1","primitives":[{"attributes":{"NORMAL":9,"POSITION":8,"TANGENT":10,"TEXCOORD_0":11,"TEXCOORD_1":12},"indices":7,"material":0,"mode":4}]},{"name":"SM_Tool_7_LOD2","primitives":[{"attributes":{"NORMAL":15,"POSITION":14,"TANGENT":16,"TEXCOORD_0":17,"TEXCOORD_1":18},"indices":13,"material":0,"mode":4}]},{"name":"SM_Tool_7_LOD3","primitives":[{"attributes":{"NORMAL":21,"POSITION":20,"TANGENT":22,"TEXCOORD_0":23,"TEXCOORD_1":24},"indices":19,"material":0,"mode":4}]},{"name":"SM_Tool_7_ConvexHulls","primitives":[{"attributes":{"NORMAL":27,"POSITION":26,"TEXCOORD_0":28,"TEXCOORD_1":29},"indices":25,"material":1,"mode":4}]}],"nodes":[{"children":[1,2,3,4,5],"name":"SM_Tool_116","originalUnits":0.00999999977648258,"pivot":[0,0,0],"rotation":[0,0,0,1],"scale":[1,1,1],"translation":[0,0,0]},{"mesh":0,"name":"SM_Tool_7_LOD0","originalUnits":0.00999999977648258,"pivot":[0,0,0],"rotation":[0,0,0,1],"scale":[1,1,1],"translation":[0,0,0]},{"mesh":4,"name":"SM_Tool_7_ConvexHulls","originalUnits":0.00999999977648258,"pivot":[0,0,0],"rotation":[0,0,0,1],"scale":[1,1,1],"translation":[0,0,0]},{"mesh":1,"name":"SM_Tool_7_LOD1","originalUnits":0.00999999977648258,"pivot":[0,0,0],"rotation":[0,0,0,1],"scale":[1,1,1],"translation":[0,0,0]},{"mesh":2,"name":"SM_Tool_7_LOD2","originalUnits":0.00999999977648258,"pivot":[0,0,0],"rotation":[0,0,0,1],"scale":[1,1,1],"translation":[0,0,0]},{"mesh":3,"name":"SM_Tool_7_LOD3","originalUnits":0.00999999977648258,"pivot":[0,0,0],"rotation":[0,0,0,1],"scale":[1,1,1],"translation":[0,0,0]}],"samplers":[{}],"scene":0,"scenes":[{"name":"Root Scene","nodes":[0]}],"textures":[{"name":"MI_Tools_02","sampler":0,"source":0},{"name":"MI_Tools_02","sampler":0,"source":1}]}