{"accessors":[{"bufferView":0,"byteOffset":0,"componentType":5126,"count":1,"max":[0],"min":[0],"type":"SCALAR"},{"bufferView":1,"byteOffset":0,"componentType":5123,"count":1224,"type":"SCALAR"},{"bufferView":2,"byteOffset":0,"componentType":5126,"count":290,"max":[0.0111166769638658,0.141179248690605,0.0155558008700609],"min":[-0.01847194507718,-0.14117924869061,-0.01555580087006],"type":"VEC3"},{"bufferView":3,"byteOffset":0,"componentType":5126,"count":290,"type":"VEC3"},{"bufferView":4,"byteOffset":0,"componentType":5126,"count":290,"type":"VEC4"},{"bufferView":5,"byteOffset":0,"componentType":5126,"count":290,"type":"VEC2"},{"bufferView":6,"byteOffset":0,"componentType":5126,"count":290,"type":"VEC2"},{"bufferView":7,"byteOffset":0,"componentType":5123,"count":915,"type":"SCALAR"},{"bufferView":8,"byteOffset":0,"componentType":5126,"count":231,"max":[0.0111166769638658,0.141420930624008,0.0155558008700609],"min":[-0.01847194507718,-0.14117924869061,-0.01555580087006],"type":"VEC3"},{"bufferView":9,"byteOffset":0,"componentType":5126,"count":231,"type":"VEC3"},{"bufferView":10,"byteOffset":0,"componentType":5126,"count":231,"type":"VEC4"},{"bufferView":11,"byteOffset":0,"componentType":5126,"count":231,"type":"VEC2"},{"bufferView":12,"byteOffset":0,"componentType":5126,"count":231,"type":"VEC2"},{"bufferView":13,"byteOffset":0,"componentType":5123,"count":612,"type":"SCALAR"},{"bufferView":14,"byteOffset":0,"componentType":5126,"count":165,"max":[0.0111166769638658,0.141391843557358,0.0155558008700609],"min":[-0.01847194507718,-0.14117924869061,-0.01555580087006],"type":"VEC3"},{"bufferView":15,"byteOffset":0,"componentType":5126,"count":165,"type":"VEC3"},{"bufferView":16,"byteOffset":0,"componentType":5126,"count":165,"type":"VEC4"},{"bufferView":17,"byteOffset":0,"componentType":5126,"count":165,"type":"VEC2"},{"bufferView":18,"byteOffset":0,"componentType":5126,"count":165,"type":"VEC2"},{"bufferView":19,"byteOffset":0,"componentType":5123,"count":153,"type":"SCALAR"},{"bufferView":20,"byteOffset":0,"componentType":5126,"count":62,"max":[0.0114017678424716,0.141465663909912,0.0169344190508127],"min":[-0.02003351412714,-0.14185392856598,-0.0164535548538],"type":"VEC3"},{"bufferView":21,"byteOffset":0,"componentType":5126,"count":62,"type":"VEC3"},{"bufferView":22,"byteOffset":0,"componentType":5126,"count":62,"type":"VEC4"},{"bufferView":23,"byteOffset":0,"componentType":5126,"count":62,"type":"VEC2"},{"bufferView":24,"byteOffset":0,"componentType":5126,"count":62,"type":"VEC2"},{"bufferView":25,"byteOffset":0,"componentType":5123,"count":252,"type":"SCALAR"},{"bufferView":26,"byteOffset":0,"componentType":5126,"count":48,"max":[0.0111060487106442,0.140043944120407,0.0154663342982531],"min":[-0.01813179254532,-0.14177072048187,-0.0150404535234],"type":"VEC3"},{"bufferView":27,"byteOffset":0,"componentType":5126,"count":48,"type":"VEC3"},{"bufferView":28,"byteOffset":0,"componentType":5126,"count":48,"type":"VEC2"},{"bufferView":29,"byteOffset":0,"componentType":5126,"count":48,"type":"VEC2"}],"animations":[{"channels":[],"name":"Unreal Take","samplers":[]}],"asset":{"generator":"FBX2glTF v0.13.0","version":"2.0"},"bufferViews":[{"buffer":0,"byteLength":4,"byteOffset":0},{"buffer":0,"byteLength":2448,"byteOffset":4,"target":34963},{"buffer":0,"byteLength":3480,"byteOffset":2452,"target":34962},{"buffer":0,"byteLength":3480,"byteOffset":5932,"target":34962},{"buffer":0,"byteLength":4640,"byteOffset":9412,"target":34962},{"buffer":0,"byteLength":2320,"byteOffset":14052,"target":34962},{"buffer":0,"byteLength":2320,"byteOffset":16372,"target":34962},{"buffer":0,"byteLength":1830,"byteOffset":18692,"target":34963},{"buffer":0,"byteLength":2772,"byteOffset":20524,"target":34962},{"buffer":0,"byteLength":2772,"byteOffset":23296,"target":34962},{"buffer":0,"byteLength":3696,"byteOffset":26068,"target":34962},{"buffer":0,"byteLength":1848,"byteOffset":29764,"target":34962},{"buffer":0,"byteLength":1848,"byteOffset":31612,"target":34962},{"buffer":0,"byteLength":1224,"byteOffset":33460,"target":34963},{"buffer":0,"byteLength":1980,"byteOffset":34684,"target":34962},{"buffer":0,"byteLength":1980,"byteOffset":36664,"target":34962},{"buffer":0,"byteLength":2640,"byteOffset":38644,"target":34962},{"buffer":0,"byteLength":1320,"byteOffset":41284,"target":34962},{"buffer":0,"byteLength":1320,"byteOffset":42604,"target":34962},{"buffer":0,"byteLength":306,"byteOffset":43924,"target":34963},{"buffer":0,"byteLength":744,"byteOffset":44232,"target":34962},{"buffer":0,"byteLength":744,"byteOffset":44976,"target":34962},{"buffer":0,"byteLength":992,"byteOffset":45720,"target":34962},{"buffer":0,"byteLength":496,"byteOffset":46712,"target":34962},{"buffer":0,"byteLength":496,"byteOffset":47208,"target":34962},{"buffer":0,"byteLength":504,"byteOffset":47704,"target":34963},{"buffer":0,"byteLength":576,"byteOffset":48208,"target":34962},{"buffer":0,"byteLength":576,"byteOffset":48784,"target":34962},{"buffer":0,"byteLength":384,"byteOffset":49360,"target":34962},{"buffer":0,"byteLength":384,"byteOffset":49744,"target":34962}],"buffers":[{"byteLength":50128,"uri":"SM_Tool_5.bin"}],"images":[{"name":"T_Tools_N","uri":"T_Tools_N.png"},{"name":"T_Tools_B","uri":"T_Tools_B.png"}],"materials":[{"alphaMode":"OPAQUE","doubleSided":false,"extras":{"fromFBX":{"isTruePBR":false,"shadingModel":"Phong"}},"name":"MI_Tools_02","normalTexture":{"index":0,"texCoord":0},"pbrMetallicRoughness":{"baseColorFactor":[1,1,1,1],"baseColorTexture":{"index":1,"texCoord":0},"metallicFactor":0.400000005960464,"roughnessFactor":0.301511347293854}},{"alphaMode":"OPAQUE","doubleSided":false,"extras":{"fromFBX":{"isTruePBR":false,"shadingModel":"Lambert"}},"name":"DefaultMaterial","pbrMetallicRoughness":{"baseColorFactor":[0.5,0.5,0.5,1],"metallicFactor":0.200000002980232,"roughnessFactor":0.800000011920929}}],"meshes":[{"name":"SM_Tool_5_LOD0","primitives":[{"attributes":{"NORMAL":3,"POSITION":2,"TANGENT":4,"TEXCOORD_0":5,"TEXCOORD_1":6},"indices":1,"material":0,"mode":4}]},{"name":"SM_Tool_5_LOD1","primitives":[{"attributes":{"NORMAL":9,"POSITION":8,"TANGENT":10,"TEXCOORD_0":11,"TEXCOORD_1":12},"indices":7,"material":0,"mode":4}]},{"name":"SM_Tool_5_LOD2","primitives":[{"attributes":{"NORMAL":15,"POSITION":14,"TANGENT":16,"TEXCOORD_0":17,"TEXCOORD_1":18},"indices":13,"material":0,"mode":4}]},{"name":"SM_Tool_5_LOD3","primitives":[{"attributes":{"NORMAL":21,"POSITION":20,"TANGENT":22,"TEXCOORD_0":23,"TEXCOORD_1":24},"indices":19,"material":0,"mode":4}]},{"name":"SM_Tool_5_ConvexHulls","primitives":[{"attributes":{"NORMAL":27,"POSITION":26,"TEXCOORD_0":28,"TEXCOORD_1":29},"indices":25,"material":1,"mode":4}]}],"nodes":[{"children":[1,2,3,4,5],"name":"SM_Tool_114","originalUnits":0.00999999977648258,"pivot":[0,0,0],"rotation":[0,0,0,1],"scale":[1,1,1],"translation":[0,0,0]},{"mesh":0,"name":"SM_Tool_5_LOD0","originalUnits":0.00999999977648258,"pivot":[0,0,0],"rotation":[0,0,0,1],"scale":[1,1,1],"translation":[0,0,0]},{"mesh":4,"name":"SM_Tool_5_ConvexHulls","originalUnits":0.00999999977648258,"pivot":[0,0,0],"rotation":[0,0,0,1],"scale":[1,1,1],"translation":[0,0,0]},{"mesh":1,"name":"SM_Tool_5_LOD1","originalUnits":0.00999999977648258,"pivot":[0,0,0],"rotation":[0,0,0,1],"scale":[1,1,1],"translation":[0,0,0]},{"mesh":2,"name":"SM_Tool_5_LOD2","originalUnits":0.00999999977648258,"pivot":[0,0,0],"rotation":[0,0,0,1],"scale":[1,1,1],"translation":[0,0,0]},{"mesh":3,"name":"SM_Tool_5_LOD3","originalUnits":0.00999999977648258,"pivot":[0,0,0],"rotation":[0,0,0,1],"scale":[1,1,1],"translation":[0,0,0]}],"samplers":[{}],"scene":0,"scenes":[{"name":"Root Scene","nodes":[0]}],"textures":[{"name":"MI_Tools_02","sampler":0,"source":0},{"name":"MI_Tools_02","sampler":0,"source":1}]}