{"accessors":[{"bufferView":0,"byteOffset":0,"componentType":5126,"count":1,"max":[0],"min":[0],"type":"SCALAR"},{"bufferView":1,"byteOffset":0,"componentType":5123,"count":7404,"type":"SCALAR"},{"bufferView":2,"byteOffset":0,"componentType":5126,"count":2470,"max":[0.140403985977173,0.0842149406671524,1.01616084575653],"min":[-0.13759896159172,-0.08421494066715,-1.01616084575653],"type":"VEC3"},{"bufferView":3,"byteOffset":0,"componentType":5126,"count":2470,"type":"VEC3"},{"bufferView":4,"byteOffset":0,"componentType":5126,"count":2470,"type":"VEC4"},{"bufferView":5,"byteOffset":0,"componentType":5126,"count":2470,"type":"VEC2"},{"bufferView":6,"byteOffset":0,"componentType":5126,"count":2470,"type":"VEC2"},{"bufferView":7,"byteOffset":0,"componentType":5123,"count":5550,"type":"SCALAR"},{"bufferView":8,"byteOffset":0,"componentType":5126,"count":1843,"max":[0.140403985977173,0.0843138471245766,1.01616084575653],"min":[-0.13759896159172,-0.08421494066715,-1.01616084575653],"type":"VEC3"},{"bufferView":9,"byteOffset":0,"componentType":5126,"count":1843,"type":"VEC3"},{"bufferView":10,"byteOffset":0,"componentType":5126,"count":1843,"type":"VEC4"},{"bufferView":11,"byteOffset":0,"componentType":5126,"count":1843,"type":"VEC2"},{"bufferView":12,"byteOffset":0,"componentType":5126,"count":1843,"type":"VEC2"},{"bufferView":13,"byteOffset":0,"componentType":5123,"count":3702,"type":"SCALAR"},{"bufferView":14,"byteOffset":0,"componentType":5126,"count":1206,"max":[0.140403985977173,0.0847945958375931,1.01616084575653],"min":[-0.13759896159172,-0.08421494066715,-1.01616084575653],"type":"VEC3"},{"bufferView":15,"byteOffset":0,"componentType":5126,"count":1206,"type":"VEC3"},{"bufferView":16,"byteOffset":0,"componentType":5126,"count":1206,"type":"VEC4"},{"bufferView":17,"byteOffset":0,"componentType":5126,"count":1206,"type":"VEC2"},{"bufferView":18,"byteOffset":0,"componentType":5126,"count":1206,"type":"VEC2"},{"bufferView":19,"byteOffset":0,"componentType":5123,"count":924,"type":"SCALAR"},{"bufferView":20,"byteOffset":0,"componentType":5126,"count":329,"max":[0.140403985977173,0.0937176868319511,1.01616084575653],"min":[-0.13759896159172,-0.08421494066715,-1.01616084575653],"type":"VEC3"},{"bufferView":21,"byteOffset":0,"componentType":5126,"count":329,"type":"VEC3"},{"bufferView":22,"byteOffset":0,"componentType":5126,"count":329,"type":"VEC4"},{"bufferView":23,"byteOffset":0,"componentType":5126,"count":329,"type":"VEC2"},{"bufferView":24,"byteOffset":0,"componentType":5126,"count":329,"type":"VEC2"},{"bufferView":25,"byteOffset":0,"componentType":5123,"count":246,"type":"SCALAR"},{"bufferView":26,"byteOffset":0,"componentType":5126,"count":49,"max":[0.146084517240524,0.0927315875887871,1.02032542228699],"min":[-0.14047689735889,-0.08861258625984,-1.02032542228699],"type":"VEC3"},{"bufferView":27,"byteOffset":0,"componentType":5126,"count":49,"type":"VEC3"},{"bufferView":28,"byteOffset":0,"componentType":5126,"count":49,"type":"VEC2"},{"bufferView":29,"byteOffset":0,"componentType":5126,"count":49,"type":"VEC2"}],"animations":[{"channels":[],"name":"Unreal Take","samplers":[]}],"asset":{"generator":"FBX2glTF v0.13.0","version":"2.0"},"bufferViews":[{"buffer":0,"byteLength":4,"byteOffset":0},{"buffer":0,"byteLength":14808,"byteOffset":4,"target":34963},{"buffer":0,"byteLength":29640,"byteOffset":14812,"target":34962},{"buffer":0,"byteLength":29640,"byteOffset":44452,"target":34962},{"buffer":0,"byteLength":39520,"byteOffset":74092,"target":34962},{"buffer":0,"byteLength":19760,"byteOffset":113612,"target":34962},{"buffer":0,"byteLength":19760,"byteOffset":133372,"target":34962},{"buffer":0,"byteLength":11100,"byteOffset":153132,"target":34963},{"buffer":0,"byteLength":22116,"byteOffset":164232,"target":34962},{"buffer":0,"byteLength":22116,"byteOffset":186348,"target":34962},{"buffer":0,"byteLength":29488,"byteOffset":208464,"target":34962},{"buffer":0,"byteLength":14744,"byteOffset":237952,"target":34962},{"buffer":0,"byteLength":14744,"byteOffset":252696,"target":34962},{"buffer":0,"byteLength":7404,"byteOffset":267440,"target":34963},{"buffer":0,"byteLength":14472,"byteOffset":274844,"target":34962},{"buffer":0,"byteLength":14472,"byteOffset":289316,"target":34962},{"buffer":0,"byteLength":19296,"byteOffset":303788,"target":34962},{"buffer":0,"byteLength":9648,"byteOffset":323084,"target":34962},{"buffer":0,"byteLength":9648,"byteOffset":332732,"target":34962},{"buffer":0,"byteLength":1848,"byteOffset":342380,"target":34963},{"buffer":0,"byteLength":3948,"byteOffset":344228,"target":34962},{"buffer":0,"byteLength":3948,"byteOffset":348176,"target":34962},{"buffer":0,"byteLength":5264,"byteOffset":352124,"target":34962},{"buffer":0,"byteLength":2632,"byteOffset":357388,"target":34962},{"buffer":0,"byteLength":2632,"byteOffset":360020,"target":34962},{"buffer":0,"byteLength":492,"byteOffset":362652,"target":34963},{"buffer":0,"byteLength":588,"byteOffset":363144,"target":34962},{"buffer":0,"byteLength":588,"byteOffset":363732,"target":34962},{"buffer":0,"byteLength":392,"byteOffset":364320,"target":34962},{"buffer":0,"byteLength":392,"byteOffset":364712,"target":34962}],"buffers":[{"byteLength":365104,"uri":"SM_Tool_Shelf.bin"}],"images":[{"name":"T_Woodprops_02_N","uri":"T_Woodprops_02_N.png"},{"name":"T_Woodprops_02_B","uri":"T_Woodprops_02_B.png"}],"materials":[{"alphaMode":"OPAQUE","doubleSided":false,"extras":{"fromFBX":{"isTruePBR":false,"shadingModel":"Phong"}},"name":"MI_WoodenToolBox","normalTexture":{"index":0,"texCoord":0},"pbrMetallicRoughness":{"baseColorFactor":[1,1,1,1],"baseColorTexture":{"index":1,"texCoord":0},"metallicFactor":0.400000005960464,"roughnessFactor":0.301511347293854}},{"alphaMode":"OPAQUE","doubleSided":false,"extras":{"fromFBX":{"isTruePBR":false,"shadingModel":"Lambert"}},"name":"DefaultMaterial","pbrMetallicRoughness":{"baseColorFactor":[0.5,0.5,0.5,1],"metallicFactor":0.200000002980232,"roughnessFactor":0.800000011920929}}],"meshes":[{"name":"SM_Tool_Shelf_LOD0","primitives":[{"attributes":{"NORMAL":3,"POSITION":2,"TANGENT":4,"TEXCOORD_0":5,"TEXCOORD_1":6},"indices":1,"material":0,"mode":4}]},{"name":"SM_Tool_Shelf_LOD1","primitives":[{"attributes":{"NORMAL":9,"POSITION":8,"TANGENT":10,"TEXCOORD_0":11,"TEXCOORD_1":12},"indices":7,"material":0,"mode":4}]},{"name":"SM_Tool_Shelf_LOD2","primitives":[{"attributes":{"NORMAL":15,"POSITION":14,"TANGENT":16,"TEXCOORD_0":17,"TEXCOORD_1":18},"indices":13,"material":0,"mode":4}]},{"name":"SM_Tool_Shelf_LOD3","primitives":[{"attributes":{"NORMAL":21,"POSITION":20,"TANGENT":22,"TEXCOORD_0":23,"TEXCOORD_1":24},"indices":19,"material":0,"mode":4}]},{"name":"SM_Tool_Shelf_ConvexHulls","primitives":[{"attributes":{"NORMAL":27,"POSITION":26,"TEXCOORD_0":28,"TEXCOORD_1":29},"indices":25,"material":1,"mode":4}]}],"nodes":[{"children":[1,2,3,4,5],"name":"SM_Tool_Shelf_130","originalUnits":0.00999999977648258,"pivot":[0,0,0],"rotation":[0,0,0,1],"scale":[1,1,1],"translation":[0,0,0]},{"mesh":0,"name":"SM_Tool_Shelf_LOD0","originalUnits":0.00999999977648258,"pivot":[0,0,0],"rotation":[0,0,0,1],"scale":[1,1,1],"translation":[0,0,0]},{"mesh":4,"name":"SM_Tool_Shelf_ConvexHulls","originalUnits":0.00999999977648258,"pivot":[0,0,0],"rotation":[0,0,0,1],"scale":[1,1,1],"translation":[0,0,0]},{"mesh":1,"name":"SM_Tool_Shelf_LOD1","originalUnits":0.00999999977648258,"pivot":[0,0,0],"rotation":[0,0,0,1],"scale":[1,1,1],"translation":[0,0,0]},{"mesh":2,"name":"SM_Tool_Shelf_LOD2","originalUnits":0.00999999977648258,"pivot":[0,0,0],"rotation":[0,0,0,1],"scale":[1,1,1],"translation":[0,0,0]},{"mesh":3,"name":"SM_Tool_Shelf_LOD3","originalUnits":0.00999999977648258,"pivot":[0,0,0],"rotation":[0,0,0,1],"scale":[1,1,1],"translation":[0,0,0]}],"samplers":[{}],"scene":0,"scenes":[{"name":"Root Scene","nodes":[0]}],"textures":[{"name":"MI_WoodenToolBox","sampler":0,"source":0},{"name":"MI_WoodenToolBox","sampler":0,"source":1}]}