{"accessors":[{"bufferView":0,"byteOffset":0,"componentType":5126,"count":1,"max":[0],"min":[0],"type":"SCALAR"},{"bufferView":1,"byteOffset":0,"componentType":5123,"count":1860,"type":"SCALAR"},{"bufferView":2,"byteOffset":0,"componentType":5126,"count":407,"max":[0.0131396483629942,0.0818992406129837,0.0131396483629942],"min":[-0.01313964836299,-0.08189924061298,-0.01313964836299],"type":"VEC3"},{"bufferView":3,"byteOffset":0,"componentType":5126,"count":407,"type":"VEC3"},{"bufferView":4,"byteOffset":0,"componentType":5126,"count":407,"type":"VEC4"},{"bufferView":5,"byteOffset":0,"componentType":5126,"count":407,"type":"VEC2"},{"bufferView":6,"byteOffset":0,"componentType":5126,"count":407,"type":"VEC2"},{"bufferView":7,"byteOffset":0,"componentType":5123,"count":1392,"type":"SCALAR"},{"bufferView":8,"byteOffset":0,"componentType":5126,"count":309,"max":[0.0128668807446957,0.0819046795368195,0.0128676043823361],"min":[-0.01293117180467,-0.08189924061298,-0.01286756340414],"type":"VEC3"},{"bufferView":9,"byteOffset":0,"componentType":5126,"count":309,"type":"VEC3"},{"bufferView":10,"byteOffset":0,"componentType":5126,"count":309,"type":"VEC4"},{"bufferView":11,"byteOffset":0,"componentType":5126,"count":309,"type":"VEC2"},{"bufferView":12,"byteOffset":0,"componentType":5126,"count":309,"type":"VEC2"},{"bufferView":13,"byteOffset":0,"componentType":5123,"count":930,"type":"SCALAR"},{"bufferView":14,"byteOffset":0,"componentType":5126,"count":221,"max":[0.0126647874712944,0.0819094181060791,0.0126918023452163],"min":[-0.01272776909173,-0.08189924061298,-0.01269172970206],"type":"VEC3"},{"bufferView":15,"byteOffset":0,"componentType":5126,"count":221,"type":"VEC3"},{"bufferView":16,"byteOffset":0,"componentType":5126,"count":221,"type":"VEC4"},{"bufferView":17,"byteOffset":0,"componentType":5126,"count":221,"type":"VEC2"},{"bufferView":18,"byteOffset":0,"componentType":5126,"count":221,"type":"VEC2"},{"bufferView":19,"byteOffset":0,"componentType":5123,"count":234,"type":"SCALAR"},{"bufferView":20,"byteOffset":0,"componentType":5126,"count":77,"max":[0.0125724077224731,0.0835026353597641,0.0122735593467951],"min":[-0.01280144881457,-0.08362434059381,-0.01369091961533],"type":"VEC3"},{"bufferView":21,"byteOffset":0,"componentType":5126,"count":77,"type":"VEC3"},{"bufferView":22,"byteOffset":0,"componentType":5126,"count":77,"type":"VEC4"},{"bufferView":23,"byteOffset":0,"componentType":5126,"count":77,"type":"VEC2"},{"bufferView":24,"byteOffset":0,"componentType":5126,"count":77,"type":"VEC2"},{"bufferView":25,"byteOffset":0,"componentType":5123,"count":84,"type":"SCALAR"},{"bufferView":26,"byteOffset":0,"componentType":5126,"count":16,"max":[0.0106760822236538,0.0806184560060501,0.0130213750526309],"min":[-0.01206685882062,-0.0823662430048,-0.01277713757008],"type":"VEC3"},{"bufferView":27,"byteOffset":0,"componentType":5126,"count":16,"type":"VEC3"},{"bufferView":28,"byteOffset":0,"componentType":5126,"count":16,"type":"VEC2"},{"bufferView":29,"byteOffset":0,"componentType":5126,"count":16,"type":"VEC2"}],"animations":[{"channels":[],"name":"Unreal Take","samplers":[]}],"asset":{"generator":"FBX2glTF v0.13.0","version":"2.0"},"bufferViews":[{"buffer":0,"byteLength":4,"byteOffset":0},{"buffer":0,"byteLength":3720,"byteOffset":4,"target":34963},{"buffer":0,"byteLength":4884,"byteOffset":3724,"target":34962},{"buffer":0,"byteLength":4884,"byteOffset":8608,"target":34962},{"buffer":0,"byteLength":6512,"byteOffset":13492,"target":34962},{"buffer":0,"byteLength":3256,"byteOffset":20004,"target":34962},{"buffer":0,"byteLength":3256,"byteOffset":23260,"target":34962},{"buffer":0,"byteLength":2784,"byteOffset":26516,"target":34963},{"buffer":0,"byteLength":3708,"byteOffset":29300,"target":34962},{"buffer":0,"byteLength":3708,"byteOffset":33008,"target":34962},{"buffer":0,"byteLength":4944,"byteOffset":36716,"target":34962},{"buffer":0,"byteLength":2472,"byteOffset":41660,"target":34962},{"buffer":0,"byteLength":2472,"byteOffset":44132,"target":34962},{"buffer":0,"byteLength":1860,"byteOffset":46604,"target":34963},{"buffer":0,"byteLength":2652,"byteOffset":48464,"target":34962},{"buffer":0,"byteLength":2652,"byteOffset":51116,"target":34962},{"buffer":0,"byteLength":3536,"byteOffset":53768,"target":34962},{"buffer":0,"byteLength":1768,"byteOffset":57304,"target":34962},{"buffer":0,"byteLength":1768,"byteOffset":59072,"target":34962},{"buffer":0,"byteLength":468,"byteOffset":60840,"target":34963},{"buffer":0,"byteLength":924,"byteOffset":61308,"target":34962},{"buffer":0,"byteLength":924,"byteOffset":62232,"target":34962},{"buffer":0,"byteLength":1232,"byteOffset":63156,"target":34962},{"buffer":0,"byteLength":616,"byteOffset":64388,"target":34962},{"buffer":0,"byteLength":616,"byteOffset":65004,"target":34962},{"buffer":0,"byteLength":168,"byteOffset":65620,"target":34963},{"buffer":0,"byteLength":192,"byteOffset":65788,"target":34962},{"buffer":0,"byteLength":192,"byteOffset":65980,"target":34962},{"buffer":0,"byteLength":128,"byteOffset":66172,"target":34962},{"buffer":0,"byteLength":128,"byteOffset":66300,"target":34962}],"buffers":[{"byteLength":66428,"uri":"SM_Tool_1.bin"}],"images":[{"name":"T_Tools_N","uri":"T_Tools_N.png"},{"name":"T_Tools_B","uri":"T_Tools_B.png"}],"materials":[{"alphaMode":"OPAQUE","doubleSided":false,"extras":{"fromFBX":{"isTruePBR":false,"shadingModel":"Phong"}},"name":"MI_Tools_02","normalTexture":{"index":0,"texCoord":0},"pbrMetallicRoughness":{"baseColorFactor":[1,1,1,1],"baseColorTexture":{"index":1,"texCoord":0},"metallicFactor":0.400000005960464,"roughnessFactor":0.301511347293854}},{"alphaMode":"OPAQUE","doubleSided":false,"extras":{"fromFBX":{"isTruePBR":false,"shadingModel":"Lambert"}},"name":"DefaultMaterial","pbrMetallicRoughness":{"baseColorFactor":[0.5,0.5,0.5,1],"metallicFactor":0.200000002980232,"roughnessFactor":0.800000011920929}}],"meshes":[{"name":"SM_Tool_1_LOD0","primitives":[{"attributes":{"NORMAL":3,"POSITION":2,"TANGENT":4,"TEXCOORD_0":5,"TEXCOORD_1":6},"indices":1,"material":0,"mode":4}]},{"name":"SM_Tool_1_LOD1","primitives":[{"attributes":{"NORMAL":9,"POSITION":8,"TANGENT":10,"TEXCOORD_0":11,"TEXCOORD_1":12},"indices":7,"material":0,"mode":4}]},{"name":"SM_Tool_1_LOD2","primitives":[{"attributes":{"NORMAL":15,"POSITION":14,"TANGENT":16,"TEXCOORD_0":17,"TEXCOORD_1":18},"indices":13,"material":0,"mode":4}]},{"name":"SM_Tool_1_LOD3","primitives":[{"attributes":{"NORMAL":21,"POSITION":20,"TANGENT":22,"TEXCOORD_0":23,"TEXCOORD_1":24},"indices":19,"material":0,"mode":4}]},{"name":"SM_Tool_1_ConvexHulls","primitives":[{"attributes":{"NORMAL":27,"POSITION":26,"TEXCOORD_0":28,"TEXCOORD_1":29},"indices":25,"material":1,"mode":4}]}],"nodes":[{"children":[1,2,3,4,5],"name":"SM_Tool_110","originalUnits":0.00999999977648258,"pivot":[0,0,0],"rotation":[0,0,0,1],"scale":[1,1,1],"translation":[0,0,0]},{"mesh":0,"name":"SM_Tool_1_LOD0","originalUnits":0.00999999977648258,"pivot":[0,0,0],"rotation":[0,0,0,1],"scale":[1,1,1],"translation":[0,0,0]},{"mesh":4,"name":"SM_Tool_1_ConvexHulls","originalUnits":0.00999999977648258,"pivot":[0,0,0],"rotation":[0,0,0,1],"scale":[1,1,1],"translation":[0,0,0]},{"mesh":1,"name":"SM_Tool_1_LOD1","originalUnits":0.00999999977648258,"pivot":[0,0,0],"rotation":[0,0,0,1],"scale":[1,1,1],"translation":[0,0,0]},{"mesh":2,"name":"SM_Tool_1_LOD2","originalUnits":0.00999999977648258,"pivot":[0,0,0],"rotation":[0,0,0,1],"scale":[1,1,1],"translation":[0,0,0]},{"mesh":3,"name":"SM_Tool_1_LOD3","originalUnits":0.00999999977648258,"pivot":[0,0,0],"rotation":[0,0,0,1],"scale":[1,1,1],"translation":[0,0,0]}],"samplers":[{}],"scene":0,"scenes":[{"name":"Root Scene","nodes":[0]}],"textures":[{"name":"MI_Tools_02","sampler":0,"source":0},{"name":"MI_Tools_02","sampler":0,"source":1}]}