{"accessors":[{"bufferView":0,"byteOffset":0,"componentType":5126,"count":1,"max":[0],"min":[0],"type":"SCALAR"},{"bufferView":1,"byteOffset":0,"componentType":5123,"count":6,"type":"SCALAR"},{"bufferView":2,"byteOffset":0,"componentType":5126,"count":4,"max":[0.0178713668137789,0.0151725420728326,0.112006016075611],"min":[-0.01787136681378,-0.01517254207283,-0.11200601607561],"type":"VEC3"},{"bufferView":3,"byteOffset":0,"componentType":5126,"count":4,"type":"VEC3"},{"bufferView":4,"byteOffset":0,"componentType":5126,"count":4,"type":"VEC4"},{"bufferView":5,"byteOffset":0,"componentType":5126,"count":4,"type":"VEC2"},{"bufferView":6,"byteOffset":0,"componentType":5126,"count":4,"type":"VEC2"},{"bufferView":7,"byteOffset":0,"componentType":5123,"count":6,"type":"SCALAR"},{"bufferView":8,"byteOffset":0,"componentType":5126,"count":4,"max":[0.0178713668137789,0.0151725420728326,0.112006016075611],"min":[-0.01787136681378,-0.01517254207283,-0.11200601607561],"type":"VEC3"},{"bufferView":9,"byteOffset":0,"componentType":5126,"count":4,"type":"VEC3"},{"bufferView":10,"byteOffset":0,"componentType":5126,"count":4,"type":"VEC4"},{"bufferView":11,"byteOffset":0,"componentType":5126,"count":4,"type":"VEC2"},{"bufferView":12,"byteOffset":0,"componentType":5126,"count":4,"type":"VEC2"},{"bufferView":13,"byteOffset":0,"componentType":5123,"count":6,"type":"SCALAR"},{"bufferView":14,"byteOffset":0,"componentType":5126,"count":4,"max":[0.0178713668137789,0.0151725420728326,0.112006016075611],"min":[-0.01787136681378,-0.01517254207283,-0.11200601607561],"type":"VEC3"},{"bufferView":15,"byteOffset":0,"componentType":5126,"count":4,"type":"VEC3"},{"bufferView":16,"byteOffset":0,"componentType":5126,"count":4,"type":"VEC4"},{"bufferView":17,"byteOffset":0,"componentType":5126,"count":4,"type":"VEC2"},{"bufferView":18,"byteOffset":0,"componentType":5126,"count":4,"type":"VEC2"},{"bufferView":19,"byteOffset":0,"componentType":5123,"count":6,"type":"SCALAR"},{"bufferView":20,"byteOffset":0,"componentType":5126,"count":4,"max":[0.0178713668137789,0.0151725420728326,0.112006016075611],"min":[-0.01787136681378,-0.01517254207283,-0.11200601607561],"type":"VEC3"},{"bufferView":21,"byteOffset":0,"componentType":5126,"count":4,"type":"VEC3"},{"bufferView":22,"byteOffset":0,"componentType":5126,"count":4,"type":"VEC4"},{"bufferView":23,"byteOffset":0,"componentType":5126,"count":4,"type":"VEC2"},{"bufferView":24,"byteOffset":0,"componentType":5126,"count":4,"type":"VEC2"},{"bufferView":25,"byteOffset":0,"componentType":5123,"count":84,"type":"SCALAR"},{"bufferView":26,"byteOffset":0,"componentType":5126,"count":16,"max":[0.0188713688403368,0.0168749988079071,0.114999994635582],"min":[-0.01887136697769,-0.01617253944278,-0.11499999463558],"type":"VEC3"},{"bufferView":27,"byteOffset":0,"componentType":5126,"count":16,"type":"VEC3"},{"bufferView":28,"byteOffset":0,"componentType":5126,"count":16,"type":"VEC2"},{"bufferView":29,"byteOffset":0,"componentType":5126,"count":16,"type":"VEC2"}],"animations":[{"channels":[],"name":"Unreal Take","samplers":[]}],"asset":{"generator":"FBX2glTF v0.13.0","version":"2.0"},"bufferViews":[{"buffer":0,"byteLength":4,"byteOffset":0},{"buffer":0,"byteLength":12,"byteOffset":4,"target":34963},{"buffer":0,"byteLength":48,"byteOffset":16,"target":34962},{"buffer":0,"byteLength":48,"byteOffset":64,"target":34962},{"buffer":0,"byteLength":64,"byteOffset":112,"target":34962},{"buffer":0,"byteLength":32,"byteOffset":176,"target":34962},{"buffer":0,"byteLength":32,"byteOffset":208,"target":34962},{"buffer":0,"byteLength":12,"byteOffset":240,"target":34963},{"buffer":0,"byteLength":48,"byteOffset":252,"target":34962},{"buffer":0,"byteLength":48,"byteOffset":300,"target":34962},{"buffer":0,"byteLength":64,"byteOffset":348,"target":34962},{"buffer":0,"byteLength":32,"byteOffset":412,"target":34962},{"buffer":0,"byteLength":32,"byteOffset":444,"target":34962},{"buffer":0,"byteLength":12,"byteOffset":476,"target":34963},{"buffer":0,"byteLength":48,"byteOffset":488,"target":34962},{"buffer":0,"byteLength":48,"byteOffset":536,"target":34962},{"buffer":0,"byteLength":64,"byteOffset":584,"target":34962},{"buffer":0,"byteLength":32,"byteOffset":648,"target":34962},{"buffer":0,"byteLength":32,"byteOffset":680,"target":34962},{"buffer":0,"byteLength":12,"byteOffset":712,"target":34963},{"buffer":0,"byteLength":48,"byteOffset":724,"target":34962},{"buffer":0,"byteLength":48,"byteOffset":772,"target":34962},{"buffer":0,"byteLength":64,"byteOffset":820,"target":34962},{"buffer":0,"byteLength":32,"byteOffset":884,"target":34962},{"buffer":0,"byteLength":32,"byteOffset":916,"target":34962},{"buffer":0,"byteLength":168,"byteOffset":948,"target":34963},{"buffer":0,"byteLength":192,"byteOffset":1116,"target":34962},{"buffer":0,"byteLength":192,"byteOffset":1308,"target":34962},{"buffer":0,"byteLength":128,"byteOffset":1500,"target":34962},{"buffer":0,"byteLength":128,"byteOffset":1628,"target":34962}],"buffers":[{"byteLength":1756,"uri":"SM_Tape_03.bin"}],"images":[{"name":"T_Paper_N","uri":"T_Paper_N.png"},{"name":"T_Paper_B","uri":"T_Paper_B.png"}],"materials":[{"alphaMode":"OPAQUE","doubleSided":false,"extras":{"fromFBX":{"isTruePBR":false,"shadingModel":"Lambert"}},"name":"MI_Paper_02","normalTexture":{"index":0,"texCoord":0},"pbrMetallicRoughness":{"baseColorFactor":[1,1,1,1],"baseColorTexture":{"index":1,"texCoord":0},"metallicFactor":0.200000002980232,"roughnessFactor":0.800000011920929}},{"alphaMode":"OPAQUE","doubleSided":false,"extras":{"fromFBX":{"isTruePBR":false,"shadingModel":"Lambert"}},"name":"DefaultMaterial","pbrMetallicRoughness":{"baseColorFactor":[0.5,0.5,0.5,1],"metallicFactor":0.200000002980232,"roughnessFactor":0.800000011920929}}],"meshes":[{"name":"SM_Tape_03_LOD0","primitives":[{"attributes":{"NORMAL":3,"POSITION":2,"TANGENT":4,"TEXCOORD_0":5,"TEXCOORD_1":6},"indices":1,"material":0,"mode":4}]},{"name":"SM_Tape_03_LOD1","primitives":[{"attributes":{"NORMAL":9,"POSITION":8,"TANGENT":10,"TEXCOORD_0":11,"TEXCOORD_1":12},"indices":7,"material":0,"mode":4}]},{"name":"SM_Tape_03_LOD2","primitives":[{"attributes":{"NORMAL":15,"POSITION":14,"TANGENT":16,"TEXCOORD_0":17,"TEXCOORD_1":18},"indices":13,"material":0,"mode":4}]},{"name":"SM_Tape_03_LOD3","primitives":[{"attributes":{"NORMAL":21,"POSITION":20,"TANGENT":22,"TEXCOORD_0":23,"TEXCOORD_1":24},"indices":19,"material":0,"mode":4}]},{"name":"SM_Tape_03_ConvexHulls","primitives":[{"attributes":{"NORMAL":27,"POSITION":26,"TEXCOORD_0":28,"TEXCOORD_1":29},"indices":25,"material":1,"mode":4}]}],"nodes":[{"children":[1,2,3,4,5],"name":"SM_Tape_98","originalUnits":0.00999999977648258,"pivot":[0,0,0],"rotation":[0,0,0,1],"scale":[1,1,1],"translation":[0,0,0]},{"mesh":0,"name":"SM_Tape_03_LOD0","originalUnits":0.00999999977648258,"pivot":[0,0,0],"rotation":[0,0,0,1],"scale":[1,1,1],"translation":[0,0,0]},{"mesh":4,"name":"SM_Tape_03_ConvexHulls","originalUnits":0.00999999977648258,"pivot":[0,0,0],"rotation":[0,0,0,1],"scale":[1,1,1],"translation":[0,0,0]},{"mesh":1,"name":"SM_Tape_03_LOD1","originalUnits":0.00999999977648258,"pivot":[0,0,0],"rotation":[0,0,0,1],"scale":[1,1,1],"translation":[0,0,0]},{"mesh":2,"name":"SM_Tape_03_LOD2","originalUnits":0.00999999977648258,"pivot":[0,0,0],"rotation":[0,0,0,1],"scale":[1,1,1],"translation":[0,0,0]},{"mesh":3,"name":"SM_Tape_03_LOD3","originalUnits":0.00999999977648258,"pivot":[0,0,0],"rotation":[0,0,0,1],"scale":[1,1,1],"translation":[0,0,0]}],"samplers":[{}],"scene":0,"scenes":[{"name":"Root Scene","nodes":[0]}],"textures":[{"name":"MI_Paper_02","sampler":0,"source":0},{"name":"MI_Paper_02","sampler":0,"source":1}]}