{"accessors":[{"bufferView":0,"byteOffset":0,"componentType":5126,"count":1,"max":[0],"min":[0],"type":"SCALAR"},{"bufferView":1,"byteOffset":0,"componentType":5123,"count":2184,"type":"SCALAR"},{"bufferView":2,"byteOffset":0,"componentType":5126,"count":467,"max":[0.0212359633296728,0.191044539213181,0.0212359614670277],"min":[-0.02123595960438,-0.19173169136047,-0.02123596146703],"type":"VEC3"},{"bufferView":3,"byteOffset":0,"componentType":5126,"count":467,"type":"VEC3"},{"bufferView":4,"byteOffset":0,"componentType":5126,"count":467,"type":"VEC4"},{"bufferView":5,"byteOffset":0,"componentType":5126,"count":467,"type":"VEC2"},{"bufferView":6,"byteOffset":0,"componentType":5126,"count":467,"type":"VEC2"},{"bufferView":7,"byteOffset":0,"componentType":5123,"count":1638,"type":"SCALAR"},{"bufferView":8,"byteOffset":0,"componentType":5126,"count":356,"max":[0.0209806635975838,0.191059216856956,0.0209832116961479],"min":[-0.020915877074,-0.19173169136047,-0.02080916054547],"type":"VEC3"},{"bufferView":9,"byteOffset":0,"componentType":5126,"count":356,"type":"VEC3"},{"bufferView":10,"byteOffset":0,"componentType":5126,"count":356,"type":"VEC4"},{"bufferView":11,"byteOffset":0,"componentType":5126,"count":356,"type":"VEC2"},{"bufferView":12,"byteOffset":0,"componentType":5126,"count":356,"type":"VEC2"},{"bufferView":13,"byteOffset":0,"componentType":5123,"count":1092,"type":"SCALAR"},{"bufferView":14,"byteOffset":0,"componentType":5126,"count":252,"max":[0.0207183007150888,0.191066548228264,0.0207234472036362],"min":[-0.02056033536792,-0.19173169136047,-0.02052217908204],"type":"VEC3"},{"bufferView":15,"byteOffset":0,"componentType":5126,"count":252,"type":"VEC3"},{"bufferView":16,"byteOffset":0,"componentType":5126,"count":252,"type":"VEC4"},{"bufferView":17,"byteOffset":0,"componentType":5126,"count":252,"type":"VEC2"},{"bufferView":18,"byteOffset":0,"componentType":5126,"count":252,"type":"VEC2"},{"bufferView":19,"byteOffset":0,"componentType":5123,"count":273,"type":"SCALAR"},{"bufferView":20,"byteOffset":0,"componentType":5126,"count":84,"max":[0.0210227109491825,0.192892789840698,0.0199817139655352],"min":[-0.02112481370568,-0.19398300349712,-0.01963368803263],"type":"VEC3"},{"bufferView":21,"byteOffset":0,"componentType":5126,"count":84,"type":"VEC3"},{"bufferView":22,"byteOffset":0,"componentType":5126,"count":84,"type":"VEC4"},{"bufferView":23,"byteOffset":0,"componentType":5126,"count":84,"type":"VEC2"},{"bufferView":24,"byteOffset":0,"componentType":5126,"count":84,"type":"VEC2"},{"bufferView":25,"byteOffset":0,"componentType":5123,"count":168,"type":"SCALAR"},{"bufferView":26,"byteOffset":0,"componentType":5126,"count":32,"max":[0.0201503206044436,0.187961786985397,0.0202251113951206],"min":[-0.01872514933348,-0.19258232414722,-0.02023687027395],"type":"VEC3"},{"bufferView":27,"byteOffset":0,"componentType":5126,"count":32,"type":"VEC3"},{"bufferView":28,"byteOffset":0,"componentType":5126,"count":32,"type":"VEC2"},{"bufferView":29,"byteOffset":0,"componentType":5126,"count":32,"type":"VEC2"}],"animations":[{"channels":[],"name":"Unreal Take","samplers":[]}],"asset":{"generator":"FBX2glTF v0.13.0","version":"2.0"},"bufferViews":[{"buffer":0,"byteLength":4,"byteOffset":0},{"buffer":0,"byteLength":4368,"byteOffset":4,"target":34963},{"buffer":0,"byteLength":5604,"byteOffset":4372,"target":34962},{"buffer":0,"byteLength":5604,"byteOffset":9976,"target":34962},{"buffer":0,"byteLength":7472,"byteOffset":15580,"target":34962},{"buffer":0,"byteLength":3736,"byteOffset":23052,"target":34962},{"buffer":0,"byteLength":3736,"byteOffset":26788,"target":34962},{"buffer":0,"byteLength":3276,"byteOffset":30524,"target":34963},{"buffer":0,"byteLength":4272,"byteOffset":33800,"target":34962},{"buffer":0,"byteLength":4272,"byteOffset":38072,"target":34962},{"buffer":0,"byteLength":5696,"byteOffset":42344,"target":34962},{"buffer":0,"byteLength":2848,"byteOffset":48040,"target":34962},{"buffer":0,"byteLength":2848,"byteOffset":50888,"target":34962},{"buffer":0,"byteLength":2184,"byteOffset":53736,"target":34963},{"buffer":0,"byteLength":3024,"byteOffset":55920,"target":34962},{"buffer":0,"byteLength":3024,"byteOffset":58944,"target":34962},{"buffer":0,"byteLength":4032,"byteOffset":61968,"target":34962},{"buffer":0,"byteLength":2016,"byteOffset":66000,"target":34962},{"buffer":0,"byteLength":2016,"byteOffset":68016,"target":34962},{"buffer":0,"byteLength":546,"byteOffset":70032,"target":34963},{"buffer":0,"byteLength":1008,"byteOffset":70580,"target":34962},{"buffer":0,"byteLength":1008,"byteOffset":71588,"target":34962},{"buffer":0,"byteLength":1344,"byteOffset":72596,"target":34962},{"buffer":0,"byteLength":672,"byteOffset":73940,"target":34962},{"buffer":0,"byteLength":672,"byteOffset":74612,"target":34962},{"buffer":0,"byteLength":336,"byteOffset":75284,"target":34963},{"buffer":0,"byteLength":384,"byteOffset":75620,"target":34962},{"buffer":0,"byteLength":384,"byteOffset":76004,"target":34962},{"buffer":0,"byteLength":256,"byteOffset":76388,"target":34962},{"buffer":0,"byteLength":256,"byteOffset":76644,"target":34962}],"buffers":[{"byteLength":76900,"uri":"SM_Tool_15.bin"}],"images":[{"name":"T_Tools_N","uri":"T_Tools_N.png"},{"name":"T_Tools_B","uri":"T_Tools_B.png"}],"materials":[{"alphaMode":"OPAQUE","doubleSided":false,"extras":{"fromFBX":{"isTruePBR":false,"shadingModel":"Phong"}},"name":"MI_Tools_02","normalTexture":{"index":0,"texCoord":0},"pbrMetallicRoughness":{"baseColorFactor":[1,1,1,1],"baseColorTexture":{"index":1,"texCoord":0},"metallicFactor":0.400000005960464,"roughnessFactor":0.301511347293854}},{"alphaMode":"OPAQUE","doubleSided":false,"extras":{"fromFBX":{"isTruePBR":false,"shadingModel":"Lambert"}},"name":"DefaultMaterial","pbrMetallicRoughness":{"baseColorFactor":[0.5,0.5,0.5,1],"metallicFactor":0.200000002980232,"roughnessFactor":0.800000011920929}}],"meshes":[{"name":"SM_Tool_15_LOD0","primitives":[{"attributes":{"NORMAL":3,"POSITION":2,"TANGENT":4,"TEXCOORD_0":5,"TEXCOORD_1":6},"indices":1,"material":0,"mode":4}]},{"name":"SM_Tool_15_LOD1","primitives":[{"attributes":{"NORMAL":9,"POSITION":8,"TANGENT":10,"TEXCOORD_0":11,"TEXCOORD_1":12},"indices":7,"material":0,"mode":4}]},{"name":"SM_Tool_15_LOD2","primitives":[{"attributes":{"NORMAL":15,"POSITION":14,"TANGENT":16,"TEXCOORD_0":17,"TEXCOORD_1":18},"indices":13,"material":0,"mode":4}]},{"name":"SM_Tool_15_LOD3","primitives":[{"attributes":{"NORMAL":21,"POSITION":20,"TANGENT":22,"TEXCOORD_0":23,"TEXCOORD_1":24},"indices":19,"material":0,"mode":4}]},{"name":"SM_Tool_15_ConvexHulls","primitives":[{"attributes":{"NORMAL":27,"POSITION":26,"TEXCOORD_0":28,"TEXCOORD_1":29},"indices":25,"material":1,"mode":4}]}],"nodes":[{"children":[1,2,3,4,5],"name":"SM_Tool_124","originalUnits":0.00999999977648258,"pivot":[0,0,0],"rotation":[0,0,0,1],"scale":[1,1,1],"translation":[0,0,0]},{"mesh":0,"name":"SM_Tool_15_LOD0","originalUnits":0.00999999977648258,"pivot":[0,0,0],"rotation":[0,0,0,1],"scale":[1,1,1],"translation":[0,0,0]},{"mesh":4,"name":"SM_Tool_15_ConvexHulls","originalUnits":0.00999999977648258,"pivot":[0,0,0],"rotation":[0,0,0,1],"scale":[1,1,1],"translation":[0,0,0]},{"mesh":1,"name":"SM_Tool_15_LOD1","originalUnits":0.00999999977648258,"pivot":[0,0,0],"rotation":[0,0,0,1],"scale":[1,1,1],"translation":[0,0,0]},{"mesh":2,"name":"SM_Tool_15_LOD2","originalUnits":0.00999999977648258,"pivot":[0,0,0],"rotation":[0,0,0,1],"scale":[1,1,1],"translation":[0,0,0]},{"mesh":3,"name":"SM_Tool_15_LOD3","originalUnits":0.00999999977648258,"pivot":[0,0,0],"rotation":[0,0,0,1],"scale":[1,1,1],"translation":[0,0,0]}],"samplers":[{}],"scene":0,"scenes":[{"name":"Root Scene","nodes":[0]}],"textures":[{"name":"MI_Tools_02","sampler":0,"source":0},{"name":"MI_Tools_02","sampler":0,"source":1}]}