{"accessors":[{"bufferView":0,"byteOffset":0,"componentType":5126,"count":1,"max":[0],"min":[0],"type":"SCALAR"},{"bufferView":1,"byteOffset":0,"componentType":5123,"count":2910,"type":"SCALAR"},{"bufferView":2,"byteOffset":0,"componentType":5126,"count":597,"max":[0.0216754171997309,0.166814491152763,0.0216754283756018],"min":[-0.0216754116118,-0.16681449115276,-0.02167540043592],"type":"VEC3"},{"bufferView":3,"byteOffset":0,"componentType":5126,"count":597,"type":"VEC3"},{"bufferView":4,"byteOffset":0,"componentType":5126,"count":597,"type":"VEC4"},{"bufferView":5,"byteOffset":0,"componentType":5126,"count":597,"type":"VEC2"},{"bufferView":6,"byteOffset":0,"componentType":5126,"count":597,"type":"VEC2"},{"bufferView":7,"byteOffset":0,"componentType":5123,"count":2184,"type":"SCALAR"},{"bufferView":8,"byteOffset":0,"componentType":5126,"count":455,"max":[0.0212237611413002,0.166814491152763,0.0212291572242975],"min":[-0.02122474648058,-0.16681449115276,-0.02122811041772],"type":"VEC3"},{"bufferView":9,"byteOffset":0,"componentType":5126,"count":455,"type":"VEC3"},{"bufferView":10,"byteOffset":0,"componentType":5126,"count":455,"type":"VEC4"},{"bufferView":11,"byteOffset":0,"componentType":5126,"count":455,"type":"VEC2"},{"bufferView":12,"byteOffset":0,"componentType":5126,"count":455,"type":"VEC2"},{"bufferView":13,"byteOffset":0,"componentType":5123,"count":1452,"type":"SCALAR"},{"bufferView":14,"byteOffset":0,"componentType":5126,"count":327,"max":[0.0211916584521532,0.166814491152763,0.0212291572242975],"min":[-0.02101239189506,-0.16681449115276,-0.0212707798928],"type":"VEC3"},{"bufferView":15,"byteOffset":0,"componentType":5126,"count":327,"type":"VEC3"},{"bufferView":16,"byteOffset":0,"componentType":5126,"count":327,"type":"VEC4"},{"bufferView":17,"byteOffset":0,"componentType":5126,"count":327,"type":"VEC2"},{"bufferView":18,"byteOffset":0,"componentType":5126,"count":327,"type":"VEC2"},{"bufferView":19,"byteOffset":0,"componentType":5123,"count":366,"type":"SCALAR"},{"bufferView":20,"byteOffset":0,"componentType":5126,"count":102,"max":[0.0190807674080133,0.166833773255348,0.0233913864940405],"min":[-0.02010152116418,-0.16681449115276,-0.02310780063272],"type":"VEC3"},{"bufferView":21,"byteOffset":0,"componentType":5126,"count":102,"type":"VEC3"},{"bufferView":22,"byteOffset":0,"componentType":5126,"count":102,"type":"VEC4"},{"bufferView":23,"byteOffset":0,"componentType":5126,"count":102,"type":"VEC2"},{"bufferView":24,"byteOffset":0,"componentType":5126,"count":102,"type":"VEC2"},{"bufferView":25,"byteOffset":0,"componentType":5123,"count":300,"type":"SCALAR"},{"bufferView":26,"byteOffset":0,"componentType":5126,"count":58,"max":[0.0201081391423941,0.164885252714157,0.0209402292966843],"min":[-0.01765426062047,-0.16759362816811,-0.02260653860867],"type":"VEC3"},{"bufferView":27,"byteOffset":0,"componentType":5126,"count":58,"type":"VEC3"},{"bufferView":28,"byteOffset":0,"componentType":5126,"count":58,"type":"VEC2"},{"bufferView":29,"byteOffset":0,"componentType":5126,"count":58,"type":"VEC2"}],"animations":[{"channels":[],"name":"Unreal Take","samplers":[]}],"asset":{"generator":"FBX2glTF v0.13.0","version":"2.0"},"bufferViews":[{"buffer":0,"byteLength":4,"byteOffset":0},{"buffer":0,"byteLength":5820,"byteOffset":4,"target":34963},{"buffer":0,"byteLength":7164,"byteOffset":5824,"target":34962},{"buffer":0,"byteLength":7164,"byteOffset":12988,"target":34962},{"buffer":0,"byteLength":9552,"byteOffset":20152,"target":34962},{"buffer":0,"byteLength":4776,"byteOffset":29704,"target":34962},{"buffer":0,"byteLength":4776,"byteOffset":34480,"target":34962},{"buffer":0,"byteLength":4368,"byteOffset":39256,"target":34963},{"buffer":0,"byteLength":5460,"byteOffset":43624,"target":34962},{"buffer":0,"byteLength":5460,"byteOffset":49084,"target":34962},{"buffer":0,"byteLength":7280,"byteOffset":54544,"target":34962},{"buffer":0,"byteLength":3640,"byteOffset":61824,"target":34962},{"buffer":0,"byteLength":3640,"byteOffset":65464,"target":34962},{"buffer":0,"byteLength":2904,"byteOffset":69104,"target":34963},{"buffer":0,"byteLength":3924,"byteOffset":72008,"target":34962},{"buffer":0,"byteLength":3924,"byteOffset":75932,"target":34962},{"buffer":0,"byteLength":5232,"byteOffset":79856,"target":34962},{"buffer":0,"byteLength":2616,"byteOffset":85088,"target":34962},{"buffer":0,"byteLength":2616,"byteOffset":87704,"target":34962},{"buffer":0,"byteLength":732,"byteOffset":90320,"target":34963},{"buffer":0,"byteLength":1224,"byteOffset":91052,"target":34962},{"buffer":0,"byteLength":1224,"byteOffset":92276,"target":34962},{"buffer":0,"byteLength":1632,"byteOffset":93500,"target":34962},{"buffer":0,"byteLength":816,"byteOffset":95132,"target":34962},{"buffer":0,"byteLength":816,"byteOffset":95948,"target":34962},{"buffer":0,"byteLength":600,"byteOffset":96764,"target":34963},{"buffer":0,"byteLength":696,"byteOffset":97364,"target":34962},{"buffer":0,"byteLength":696,"byteOffset":98060,"target":34962},{"buffer":0,"byteLength":464,"byteOffset":98756,"target":34962},{"buffer":0,"byteLength":464,"byteOffset":99220,"target":34962}],"buffers":[{"byteLength":99684,"uri":"SM_Tool_18.bin"}],"images":[{"name":"T_Tools_N","uri":"T_Tools_N.png"},{"name":"T_Tools_B","uri":"T_Tools_B.png"}],"materials":[{"alphaMode":"OPAQUE","doubleSided":false,"extras":{"fromFBX":{"isTruePBR":false,"shadingModel":"Phong"}},"name":"MI_Tools_02","normalTexture":{"index":0,"texCoord":0},"pbrMetallicRoughness":{"baseColorFactor":[1,1,1,1],"baseColorTexture":{"index":1,"texCoord":0},"metallicFactor":0.400000005960464,"roughnessFactor":0.301511347293854}},{"alphaMode":"OPAQUE","doubleSided":false,"extras":{"fromFBX":{"isTruePBR":false,"shadingModel":"Lambert"}},"name":"DefaultMaterial","pbrMetallicRoughness":{"baseColorFactor":[0.5,0.5,0.5,1],"metallicFactor":0.200000002980232,"roughnessFactor":0.800000011920929}}],"meshes":[{"name":"SM_Tool_18_LOD0","primitives":[{"attributes":{"NORMAL":3,"POSITION":2,"TANGENT":4,"TEXCOORD_0":5,"TEXCOORD_1":6},"indices":1,"material":0,"mode":4}]},{"name":"SM_Tool_18_LOD1","primitives":[{"attributes":{"NORMAL":9,"POSITION":8,"TANGENT":10,"TEXCOORD_0":11,"TEXCOORD_1":12},"indices":7,"material":0,"mode":4}]},{"name":"SM_Tool_18_LOD2","primitives":[{"attributes":{"NORMAL":15,"POSITION":14,"TANGENT":16,"TEXCOORD_0":17,"TEXCOORD_1":18},"indices":13,"material":0,"mode":4}]},{"name":"SM_Tool_18_LOD3","primitives":[{"attributes":{"NORMAL":21,"POSITION":20,"TANGENT":22,"TEXCOORD_0":23,"TEXCOORD_1":24},"indices":19,"material":0,"mode":4}]},{"name":"SM_Tool_18_ConvexHulls","primitives":[{"attributes":{"NORMAL":27,"POSITION":26,"TEXCOORD_0":28,"TEXCOORD_1":29},"indices":25,"material":1,"mode":4}]}],"nodes":[{"children":[1,2,3,4,5],"name":"SM_Tool_127","originalUnits":0.00999999977648258,"pivot":[0,0,0],"rotation":[0,0,0,1],"scale":[1,1,1],"translation":[0,0,0]},{"mesh":0,"name":"SM_Tool_18_LOD0","originalUnits":0.00999999977648258,"pivot":[0,0,0],"rotation":[0,0,0,1],"scale":[1,1,1],"translation":[0,0,0]},{"mesh":4,"name":"SM_Tool_18_ConvexHulls","originalUnits":0.00999999977648258,"pivot":[0,0,0],"rotation":[0,0,0,1],"scale":[1,1,1],"translation":[0,0,0]},{"mesh":1,"name":"SM_Tool_18_LOD1","originalUnits":0.00999999977648258,"pivot":[0,0,0],"rotation":[0,0,0,1],"scale":[1,1,1],"translation":[0,0,0]},{"mesh":2,"name":"SM_Tool_18_LOD2","originalUnits":0.00999999977648258,"pivot":[0,0,0],"rotation":[0,0,0,1],"scale":[1,1,1],"translation":[0,0,0]},{"mesh":3,"name":"SM_Tool_18_LOD3","originalUnits":0.00999999977648258,"pivot":[0,0,0],"rotation":[0,0,0,1],"scale":[1,1,1],"translation":[0,0,0]}],"samplers":[{}],"scene":0,"scenes":[{"name":"Root Scene","nodes":[0]}],"textures":[{"name":"MI_Tools_02","sampler":0,"source":0},{"name":"MI_Tools_02","sampler":0,"source":1}]}