{"accessors":[{"bufferView":0,"byteOffset":0,"componentType":5126,"count":1,"max":[0],"min":[0],"type":"SCALAR"},{"bufferView":1,"byteOffset":0,"componentType":5123,"count":2514,"type":"SCALAR"},{"bufferView":2,"byteOffset":0,"componentType":5126,"count":528,"max":[0.0131396492943168,0.116529978811741,0.0131395803764462],"min":[-0.01313964650035,-0.11652997881174,-0.01313971634954],"type":"VEC3"},{"bufferView":3,"byteOffset":0,"componentType":5126,"count":528,"type":"VEC3"},{"bufferView":4,"byteOffset":0,"componentType":5126,"count":528,"type":"VEC4"},{"bufferView":5,"byteOffset":0,"componentType":5126,"count":528,"type":"VEC2"},{"bufferView":6,"byteOffset":0,"componentType":5126,"count":528,"type":"VEC2"},{"bufferView":7,"byteOffset":0,"componentType":5123,"count":1884,"type":"SCALAR"},{"bufferView":8,"byteOffset":0,"componentType":5126,"count":397,"max":[0.0128668779507279,0.116534173488617,0.0128675252199173],"min":[-0.01293117459863,-0.11688872426748,-0.0128676276654],"type":"VEC3"},{"bufferView":9,"byteOffset":0,"componentType":5126,"count":397,"type":"VEC3"},{"bufferView":10,"byteOffset":0,"componentType":5126,"count":397,"type":"VEC4"},{"bufferView":11,"byteOffset":0,"componentType":5126,"count":397,"type":"VEC2"},{"bufferView":12,"byteOffset":0,"componentType":5126,"count":397,"type":"VEC2"},{"bufferView":13,"byteOffset":0,"componentType":5123,"count":1254,"type":"SCALAR"},{"bufferView":14,"byteOffset":0,"componentType":5126,"count":278,"max":[0.0126649783924222,0.116539992392063,0.0126917455345392],"min":[-0.01272767130285,-0.11688872426748,-0.01269182749093],"type":"VEC3"},{"bufferView":15,"byteOffset":0,"componentType":5126,"count":278,"type":"VEC3"},{"bufferView":16,"byteOffset":0,"componentType":5126,"count":278,"type":"VEC4"},{"bufferView":17,"byteOffset":0,"componentType":5126,"count":278,"type":"VEC2"},{"bufferView":18,"byteOffset":0,"componentType":5126,"count":278,"type":"VEC2"},{"bufferView":19,"byteOffset":0,"componentType":5123,"count":312,"type":"SCALAR"},{"bufferView":20,"byteOffset":0,"componentType":5126,"count":92,"max":[0.013614752329886,0.11823296546936,0.0135422218590975],"min":[-0.01229896303266,-0.11877166479826,-0.01194397453219],"type":"VEC3"},{"bufferView":21,"byteOffset":0,"componentType":5126,"count":92,"type":"VEC3"},{"bufferView":22,"byteOffset":0,"componentType":5126,"count":92,"type":"VEC4"},{"bufferView":23,"byteOffset":0,"componentType":5126,"count":92,"type":"VEC2"},{"bufferView":24,"byteOffset":0,"componentType":5126,"count":92,"type":"VEC2"},{"bufferView":25,"byteOffset":0,"componentType":5123,"count":168,"type":"SCALAR"},{"bufferView":26,"byteOffset":0,"componentType":5126,"count":32,"max":[0.0122479936107993,0.115463629364967,0.0124832047149539],"min":[-0.01250505074859,-0.11706954985857,-0.01251850090921],"type":"VEC3"},{"bufferView":27,"byteOffset":0,"componentType":5126,"count":32,"type":"VEC3"},{"bufferView":28,"byteOffset":0,"componentType":5126,"count":32,"type":"VEC2"},{"bufferView":29,"byteOffset":0,"componentType":5126,"count":32,"type":"VEC2"}],"animations":[{"channels":[],"name":"Unreal Take","samplers":[]}],"asset":{"generator":"FBX2glTF v0.13.0","version":"2.0"},"bufferViews":[{"buffer":0,"byteLength":4,"byteOffset":0},{"buffer":0,"byteLength":5028,"byteOffset":4,"target":34963},{"buffer":0,"byteLength":6336,"byteOffset":5032,"target":34962},{"buffer":0,"byteLength":6336,"byteOffset":11368,"target":34962},{"buffer":0,"byteLength":8448,"byteOffset":17704,"target":34962},{"buffer":0,"byteLength":4224,"byteOffset":26152,"target":34962},{"buffer":0,"byteLength":4224,"byteOffset":30376,"target":34962},{"buffer":0,"byteLength":3768,"byteOffset":34600,"target":34963},{"buffer":0,"byteLength":4764,"byteOffset":38368,"target":34962},{"buffer":0,"byteLength":4764,"byteOffset":43132,"target":34962},{"buffer":0,"byteLength":6352,"byteOffset":47896,"target":34962},{"buffer":0,"byteLength":3176,"byteOffset":54248,"target":34962},{"buffer":0,"byteLength":3176,"byteOffset":57424,"target":34962},{"buffer":0,"byteLength":2508,"byteOffset":60600,"target":34963},{"buffer":0,"byteLength":3336,"byteOffset":63108,"target":34962},{"buffer":0,"byteLength":3336,"byteOffset":66444,"target":34962},{"buffer":0,"byteLength":4448,"byteOffset":69780,"target":34962},{"buffer":0,"byteLength":2224,"byteOffset":74228,"target":34962},{"buffer":0,"byteLength":2224,"byteOffset":76452,"target":34962},{"buffer":0,"byteLength":624,"byteOffset":78676,"target":34963},{"buffer":0,"byteLength":1104,"byteOffset":79300,"target":34962},{"buffer":0,"byteLength":1104,"byteOffset":80404,"target":34962},{"buffer":0,"byteLength":1472,"byteOffset":81508,"target":34962},{"buffer":0,"byteLength":736,"byteOffset":82980,"target":34962},{"buffer":0,"byteLength":736,"byteOffset":83716,"target":34962},{"buffer":0,"byteLength":336,"byteOffset":84452,"target":34963},{"buffer":0,"byteLength":384,"byteOffset":84788,"target":34962},{"buffer":0,"byteLength":384,"byteOffset":85172,"target":34962},{"buffer":0,"byteLength":256,"byteOffset":85556,"target":34962},{"buffer":0,"byteLength":256,"byteOffset":85812,"target":34962}],"buffers":[{"byteLength":86068,"uri":"SM_Tool_13.bin"}],"images":[{"name":"T_Tools_N","uri":"T_Tools_N.png"},{"name":"T_Tools_B","uri":"T_Tools_B.png"}],"materials":[{"alphaMode":"OPAQUE","doubleSided":false,"extras":{"fromFBX":{"isTruePBR":false,"shadingModel":"Phong"}},"name":"MI_Tools_02","normalTexture":{"index":0,"texCoord":0},"pbrMetallicRoughness":{"baseColorFactor":[1,1,1,1],"baseColorTexture":{"index":1,"texCoord":0},"metallicFactor":0.400000005960464,"roughnessFactor":0.301511347293854}},{"alphaMode":"OPAQUE","doubleSided":false,"extras":{"fromFBX":{"isTruePBR":false,"shadingModel":"Lambert"}},"name":"DefaultMaterial","pbrMetallicRoughness":{"baseColorFactor":[0.5,0.5,0.5,1],"metallicFactor":0.200000002980232,"roughnessFactor":0.800000011920929}}],"meshes":[{"name":"SM_Tool_13_LOD0","primitives":[{"attributes":{"NORMAL":3,"POSITION":2,"TANGENT":4,"TEXCOORD_0":5,"TEXCOORD_1":6},"indices":1,"material":0,"mode":4}]},{"name":"SM_Tool_13_LOD1","primitives":[{"attributes":{"NORMAL":9,"POSITION":8,"TANGENT":10,"TEXCOORD_0":11,"TEXCOORD_1":12},"indices":7,"material":0,"mode":4}]},{"name":"SM_Tool_13_LOD2","primitives":[{"attributes":{"NORMAL":15,"POSITION":14,"TANGENT":16,"TEXCOORD_0":17,"TEXCOORD_1":18},"indices":13,"material":0,"mode":4}]},{"name":"SM_Tool_13_LOD3","primitives":[{"attributes":{"NORMAL":21,"POSITION":20,"TANGENT":22,"TEXCOORD_0":23,"TEXCOORD_1":24},"indices":19,"material":0,"mode":4}]},{"name":"SM_Tool_13_ConvexHulls","primitives":[{"attributes":{"NORMAL":27,"POSITION":26,"TEXCOORD_0":28,"TEXCOORD_1":29},"indices":25,"material":1,"mode":4}]}],"nodes":[{"children":[1,2,3,4,5],"name":"SM_Tool_122","originalUnits":0.00999999977648258,"pivot":[0,0,0],"rotation":[0,0,0,1],"scale":[1,1,1],"translation":[0,0,0]},{"mesh":0,"name":"SM_Tool_13_LOD0","originalUnits":0.00999999977648258,"pivot":[0,0,0],"rotation":[0,0,0,1],"scale":[1,1,1],"translation":[0,0,0]},{"mesh":4,"name":"SM_Tool_13_ConvexHulls","originalUnits":0.00999999977648258,"pivot":[0,0,0],"rotation":[0,0,0,1],"scale":[1,1,1],"translation":[0,0,0]},{"mesh":1,"name":"SM_Tool_13_LOD1","originalUnits":0.00999999977648258,"pivot":[0,0,0],"rotation":[0,0,0,1],"scale":[1,1,1],"translation":[0,0,0]},{"mesh":2,"name":"SM_Tool_13_LOD2","originalUnits":0.00999999977648258,"pivot":[0,0,0],"rotation":[0,0,0,1],"scale":[1,1,1],"translation":[0,0,0]},{"mesh":3,"name":"SM_Tool_13_LOD3","originalUnits":0.00999999977648258,"pivot":[0,0,0],"rotation":[0,0,0,1],"scale":[1,1,1],"translation":[0,0,0]}],"samplers":[{}],"scene":0,"scenes":[{"name":"Root Scene","nodes":[0]}],"textures":[{"name":"MI_Tools_02","sampler":0,"source":0},{"name":"MI_Tools_02","sampler":0,"source":1}]}