{"accessors":[{"bufferView":0,"byteOffset":0,"componentType":5126,"count":1,"max":[0],"min":[0],"type":"SCALAR"},{"bufferView":1,"byteOffset":0,"componentType":5123,"count":1860,"type":"SCALAR"},{"bufferView":2,"byteOffset":0,"componentType":5126,"count":409,"max":[0.0131396492943168,0.112470418214798,0.0131396483629942],"min":[-0.01313964650035,-0.1124704182148,-0.01313964836299],"type":"VEC3"},{"bufferView":3,"byteOffset":0,"componentType":5126,"count":409,"type":"VEC3"},{"bufferView":4,"byteOffset":0,"componentType":5126,"count":409,"type":"VEC4"},{"bufferView":5,"byteOffset":0,"componentType":5126,"count":409,"type":"VEC2"},{"bufferView":6,"byteOffset":0,"componentType":5126,"count":409,"type":"VEC2"},{"bufferView":7,"byteOffset":0,"componentType":5123,"count":1392,"type":"SCALAR"},{"bufferView":8,"byteOffset":0,"componentType":5126,"count":313,"max":[0.0128668798133731,0.112474620342255,0.012867609038949],"min":[-0.01293117273599,-0.1124704182148,-0.0128675615415],"type":"VEC3"},{"bufferView":9,"byteOffset":0,"componentType":5126,"count":313,"type":"VEC3"},{"bufferView":10,"byteOffset":0,"componentType":5126,"count":313,"type":"VEC4"},{"bufferView":11,"byteOffset":0,"componentType":5126,"count":313,"type":"VEC2"},{"bufferView":12,"byteOffset":0,"componentType":5126,"count":313,"type":"VEC2"},{"bufferView":13,"byteOffset":0,"componentType":5123,"count":930,"type":"SCALAR"},{"bufferView":14,"byteOffset":0,"componentType":5126,"count":223,"max":[0.0126649774610996,0.11248043179512,0.0126950107514858],"min":[-0.01272760611027,-0.1124704182148,-0.01269175391644],"type":"VEC3"},{"bufferView":15,"byteOffset":0,"componentType":5126,"count":223,"type":"VEC3"},{"bufferView":16,"byteOffset":0,"componentType":5126,"count":223,"type":"VEC4"},{"bufferView":17,"byteOffset":0,"componentType":5126,"count":223,"type":"VEC2"},{"bufferView":18,"byteOffset":0,"componentType":5126,"count":223,"type":"VEC2"},{"bufferView":19,"byteOffset":0,"componentType":5123,"count":234,"type":"SCALAR"},{"bufferView":20,"byteOffset":0,"componentType":5126,"count":79,"max":[0.0129520678892732,0.114217914640903,0.0138289071619511],"min":[-0.01190752629191,-0.11397458612919,-0.01257515139878],"type":"VEC3"},{"bufferView":21,"byteOffset":0,"componentType":5126,"count":79,"type":"VEC3"},{"bufferView":22,"byteOffset":0,"componentType":5126,"count":79,"type":"VEC4"},{"bufferView":23,"byteOffset":0,"componentType":5126,"count":79,"type":"VEC2"},{"bufferView":24,"byteOffset":0,"componentType":5126,"count":79,"type":"VEC2"},{"bufferView":25,"byteOffset":0,"componentType":5123,"count":210,"type":"SCALAR"},{"bufferView":26,"byteOffset":0,"componentType":5126,"count":41,"max":[0.012450554408133,0.111344784498215,0.0120813688263297],"min":[-0.01164063066244,-0.11309153586626,-0.01268760487437],"type":"VEC3"},{"bufferView":27,"byteOffset":0,"componentType":5126,"count":41,"type":"VEC3"},{"bufferView":28,"byteOffset":0,"componentType":5126,"count":41,"type":"VEC2"},{"bufferView":29,"byteOffset":0,"componentType":5126,"count":41,"type":"VEC2"}],"animations":[{"channels":[],"name":"Unreal Take","samplers":[]}],"asset":{"generator":"FBX2glTF v0.13.0","version":"2.0"},"bufferViews":[{"buffer":0,"byteLength":4,"byteOffset":0},{"buffer":0,"byteLength":3720,"byteOffset":4,"target":34963},{"buffer":0,"byteLength":4908,"byteOffset":3724,"target":34962},{"buffer":0,"byteLength":4908,"byteOffset":8632,"target":34962},{"buffer":0,"byteLength":6544,"byteOffset":13540,"target":34962},{"buffer":0,"byteLength":3272,"byteOffset":20084,"target":34962},{"buffer":0,"byteLength":3272,"byteOffset":23356,"target":34962},{"buffer":0,"byteLength":2784,"byteOffset":26628,"target":34963},{"buffer":0,"byteLength":3756,"byteOffset":29412,"target":34962},{"buffer":0,"byteLength":3756,"byteOffset":33168,"target":34962},{"buffer":0,"byteLength":5008,"byteOffset":36924,"target":34962},{"buffer":0,"byteLength":2504,"byteOffset":41932,"target":34962},{"buffer":0,"byteLength":2504,"byteOffset":44436,"target":34962},{"buffer":0,"byteLength":1860,"byteOffset":46940,"target":34963},{"buffer":0,"byteLength":2676,"byteOffset":48800,"target":34962},{"buffer":0,"byteLength":2676,"byteOffset":51476,"target":34962},{"buffer":0,"byteLength":3568,"byteOffset":54152,"target":34962},{"buffer":0,"byteLength":1784,"byteOffset":57720,"target":34962},{"buffer":0,"byteLength":1784,"byteOffset":59504,"target":34962},{"buffer":0,"byteLength":468,"byteOffset":61288,"target":34963},{"buffer":0,"byteLength":948,"byteOffset":61756,"target":34962},{"buffer":0,"byteLength":948,"byteOffset":62704,"target":34962},{"buffer":0,"byteLength":1264,"byteOffset":63652,"target":34962},{"buffer":0,"byteLength":632,"byteOffset":64916,"target":34962},{"buffer":0,"byteLength":632,"byteOffset":65548,"target":34962},{"buffer":0,"byteLength":420,"byteOffset":66180,"target":34963},{"buffer":0,"byteLength":492,"byteOffset":66600,"target":34962},{"buffer":0,"byteLength":492,"byteOffset":67092,"target":34962},{"buffer":0,"byteLength":328,"byteOffset":67584,"target":34962},{"buffer":0,"byteLength":328,"byteOffset":67912,"target":34962}],"buffers":[{"byteLength":68240,"uri":"SM_Tool_8.bin"}],"images":[{"name":"T_Tools_N","uri":"T_Tools_N.png"},{"name":"T_Tools_B","uri":"T_Tools_B.png"}],"materials":[{"alphaMode":"OPAQUE","doubleSided":false,"extras":{"fromFBX":{"isTruePBR":false,"shadingModel":"Phong"}},"name":"MI_Tools_02","normalTexture":{"index":0,"texCoord":0},"pbrMetallicRoughness":{"baseColorFactor":[1,1,1,1],"baseColorTexture":{"index":1,"texCoord":0},"metallicFactor":0.400000005960464,"roughnessFactor":0.301511347293854}},{"alphaMode":"OPAQUE","doubleSided":false,"extras":{"fromFBX":{"isTruePBR":false,"shadingModel":"Lambert"}},"name":"DefaultMaterial","pbrMetallicRoughness":{"baseColorFactor":[0.5,0.5,0.5,1],"metallicFactor":0.200000002980232,"roughnessFactor":0.800000011920929}}],"meshes":[{"name":"SM_Tool_8_LOD0","primitives":[{"attributes":{"NORMAL":3,"POSITION":2,"TANGENT":4,"TEXCOORD_0":5,"TEXCOORD_1":6},"indices":1,"material":0,"mode":4}]},{"name":"SM_Tool_8_LOD1","primitives":[{"attributes":{"NORMAL":9,"POSITION":8,"TANGENT":10,"TEXCOORD_0":11,"TEXCOORD_1":12},"indices":7,"material":0,"mode":4}]},{"name":"SM_Tool_8_LOD2","primitives":[{"attributes":{"NORMAL":15,"POSITION":14,"TANGENT":16,"TEXCOORD_0":17,"TEXCOORD_1":18},"indices":13,"material":0,"mode":4}]},{"name":"SM_Tool_8_LOD3","primitives":[{"attributes":{"NORMAL":21,"POSITION":20,"TANGENT":22,"TEXCOORD_0":23,"TEXCOORD_1":24},"indices":19,"material":0,"mode":4}]},{"name":"SM_Tool_8_ConvexHulls","primitives":[{"attributes":{"NORMAL":27,"POSITION":26,"TEXCOORD_0":28,"TEXCOORD_1":29},"indices":25,"material":1,"mode":4}]}],"nodes":[{"children":[1,2,3,4,5],"name":"SM_Tool_117","originalUnits":0.00999999977648258,"pivot":[0,0,0],"rotation":[0,0,0,1],"scale":[1,1,1],"translation":[0,0,0]},{"mesh":0,"name":"SM_Tool_8_LOD0","originalUnits":0.00999999977648258,"pivot":[0,0,0],"rotation":[0,0,0,1],"scale":[1,1,1],"translation":[0,0,0]},{"mesh":4,"name":"SM_Tool_8_ConvexHulls","originalUnits":0.00999999977648258,"pivot":[0,0,0],"rotation":[0,0,0,1],"scale":[1,1,1],"translation":[0,0,0]},{"mesh":1,"name":"SM_Tool_8_LOD1","originalUnits":0.00999999977648258,"pivot":[0,0,0],"rotation":[0,0,0,1],"scale":[1,1,1],"translation":[0,0,0]},{"mesh":2,"name":"SM_Tool_8_LOD2","originalUnits":0.00999999977648258,"pivot":[0,0,0],"rotation":[0,0,0,1],"scale":[1,1,1],"translation":[0,0,0]},{"mesh":3,"name":"SM_Tool_8_LOD3","originalUnits":0.00999999977648258,"pivot":[0,0,0],"rotation":[0,0,0,1],"scale":[1,1,1],"translation":[0,0,0]}],"samplers":[{}],"scene":0,"scenes":[{"name":"Root Scene","nodes":[0]}],"textures":[{"name":"MI_Tools_02","sampler":0,"source":0},{"name":"MI_Tools_02","sampler":0,"source":1}]}