{"accessors":[{"bufferView":0,"byteOffset":0,"componentType":5126,"count":1,"max":[0],"min":[0],"type":"SCALAR"},{"bufferView":1,"byteOffset":0,"componentType":5123,"count":2028,"type":"SCALAR"},{"bufferView":2,"byteOffset":0,"componentType":5126,"count":437,"max":[0.0131396483629942,0.0891623198986053,0.0131396483629942],"min":[-0.01313964836299,-0.08916231989861,-0.01313964836299],"type":"VEC3"},{"bufferView":3,"byteOffset":0,"componentType":5126,"count":437,"type":"VEC3"},{"bufferView":4,"byteOffset":0,"componentType":5126,"count":437,"type":"VEC4"},{"bufferView":5,"byteOffset":0,"componentType":5126,"count":437,"type":"VEC2"},{"bufferView":6,"byteOffset":0,"componentType":5126,"count":437,"type":"VEC2"},{"bufferView":7,"byteOffset":0,"componentType":5123,"count":1518,"type":"SCALAR"},{"bufferView":8,"byteOffset":0,"componentType":5126,"count":331,"max":[0.0128668816760182,0.0891665145754814,0.0128675885498524],"min":[-0.01293117366731,-0.08942397683859,-0.01286755781621],"type":"VEC3"},{"bufferView":9,"byteOffset":0,"componentType":5126,"count":331,"type":"VEC3"},{"bufferView":10,"byteOffset":0,"componentType":5126,"count":331,"type":"VEC4"},{"bufferView":11,"byteOffset":0,"componentType":5126,"count":331,"type":"VEC2"},{"bufferView":12,"byteOffset":0,"componentType":5126,"count":331,"type":"VEC2"},{"bufferView":13,"byteOffset":0,"componentType":5123,"count":1014,"type":"SCALAR"},{"bufferView":14,"byteOffset":0,"componentType":5126,"count":238,"max":[0.0126652428880334,0.089176632463932,0.0126949697732925],"min":[-0.01272755861282,-0.09006104618311,-0.01269172783941],"type":"VEC3"},{"bufferView":15,"byteOffset":0,"componentType":5126,"count":238,"type":"VEC3"},{"bufferView":16,"byteOffset":0,"componentType":5126,"count":238,"type":"VEC4"},{"bufferView":17,"byteOffset":0,"componentType":5126,"count":238,"type":"VEC2"},{"bufferView":18,"byteOffset":0,"componentType":5126,"count":238,"type":"VEC2"},{"bufferView":19,"byteOffset":0,"componentType":5123,"count":252,"type":"SCALAR"},{"bufferView":20,"byteOffset":0,"componentType":5126,"count":78,"max":[0.012566763907671,0.0904290452599525,0.0119056161493063],"min":[-0.0133469440043,-0.09053361415863,-0.01356495823711],"type":"VEC3"},{"bufferView":21,"byteOffset":0,"componentType":5126,"count":78,"type":"VEC3"},{"bufferView":22,"byteOffset":0,"componentType":5126,"count":78,"type":"VEC4"},{"bufferView":23,"byteOffset":0,"componentType":5126,"count":78,"type":"VEC2"},{"bufferView":24,"byteOffset":0,"componentType":5126,"count":78,"type":"VEC2"},{"bufferView":25,"byteOffset":0,"componentType":5123,"count":156,"type":"SCALAR"},{"bufferView":26,"byteOffset":0,"componentType":5126,"count":30,"max":[0.0109512638300657,0.0877132788300514,0.0119910500943661],"min":[-0.01146677322686,-0.08964917808771,-0.01229533925653],"type":"VEC3"},{"bufferView":27,"byteOffset":0,"componentType":5126,"count":30,"type":"VEC3"},{"bufferView":28,"byteOffset":0,"componentType":5126,"count":30,"type":"VEC2"},{"bufferView":29,"byteOffset":0,"componentType":5126,"count":30,"type":"VEC2"}],"animations":[{"channels":[],"name":"Unreal Take","samplers":[]}],"asset":{"generator":"FBX2glTF v0.13.0","version":"2.0"},"bufferViews":[{"buffer":0,"byteLength":4,"byteOffset":0},{"buffer":0,"byteLength":4056,"byteOffset":4,"target":34963},{"buffer":0,"byteLength":5244,"byteOffset":4060,"target":34962},{"buffer":0,"byteLength":5244,"byteOffset":9304,"target":34962},{"buffer":0,"byteLength":6992,"byteOffset":14548,"target":34962},{"buffer":0,"byteLength":3496,"byteOffset":21540,"target":34962},{"buffer":0,"byteLength":3496,"byteOffset":25036,"target":34962},{"buffer":0,"byteLength":3036,"byteOffset":28532,"target":34963},{"buffer":0,"byteLength":3972,"byteOffset":31568,"target":34962},{"buffer":0,"byteLength":3972,"byteOffset":35540,"target":34962},{"buffer":0,"byteLength":5296,"byteOffset":39512,"target":34962},{"buffer":0,"byteLength":2648,"byteOffset":44808,"target":34962},{"buffer":0,"byteLength":2648,"byteOffset":47456,"target":34962},{"buffer":0,"byteLength":2028,"byteOffset":50104,"target":34963},{"buffer":0,"byteLength":2856,"byteOffset":52132,"target":34962},{"buffer":0,"byteLength":2856,"byteOffset":54988,"target":34962},{"buffer":0,"byteLength":3808,"byteOffset":57844,"target":34962},{"buffer":0,"byteLength":1904,"byteOffset":61652,"target":34962},{"buffer":0,"byteLength":1904,"byteOffset":63556,"target":34962},{"buffer":0,"byteLength":504,"byteOffset":65460,"target":34963},{"buffer":0,"byteLength":936,"byteOffset":65964,"target":34962},{"buffer":0,"byteLength":936,"byteOffset":66900,"target":34962},{"buffer":0,"byteLength":1248,"byteOffset":67836,"target":34962},{"buffer":0,"byteLength":624,"byteOffset":69084,"target":34962},{"buffer":0,"byteLength":624,"byteOffset":69708,"target":34962},{"buffer":0,"byteLength":312,"byteOffset":70332,"target":34963},{"buffer":0,"byteLength":360,"byteOffset":70644,"target":34962},{"buffer":0,"byteLength":360,"byteOffset":71004,"target":34962},{"buffer":0,"byteLength":240,"byteOffset":71364,"target":34962},{"buffer":0,"byteLength":240,"byteOffset":71604,"target":34962}],"buffers":[{"byteLength":71844,"uri":"SM_Tool_2.bin"}],"images":[{"name":"T_Tools_N","uri":"T_Tools_N.png"},{"name":"T_Tools_B","uri":"T_Tools_B.png"}],"materials":[{"alphaMode":"OPAQUE","doubleSided":false,"extras":{"fromFBX":{"isTruePBR":false,"shadingModel":"Phong"}},"name":"MI_Tools_02","normalTexture":{"index":0,"texCoord":0},"pbrMetallicRoughness":{"baseColorFactor":[1,1,1,1],"baseColorTexture":{"index":1,"texCoord":0},"metallicFactor":0.400000005960464,"roughnessFactor":0.301511347293854}},{"alphaMode":"OPAQUE","doubleSided":false,"extras":{"fromFBX":{"isTruePBR":false,"shadingModel":"Lambert"}},"name":"DefaultMaterial","pbrMetallicRoughness":{"baseColorFactor":[0.5,0.5,0.5,1],"metallicFactor":0.200000002980232,"roughnessFactor":0.800000011920929}}],"meshes":[{"name":"SM_Tool_2_LOD0","primitives":[{"attributes":{"NORMAL":3,"POSITION":2,"TANGENT":4,"TEXCOORD_0":5,"TEXCOORD_1":6},"indices":1,"material":0,"mode":4}]},{"name":"SM_Tool_2_LOD1","primitives":[{"attributes":{"NORMAL":9,"POSITION":8,"TANGENT":10,"TEXCOORD_0":11,"TEXCOORD_1":12},"indices":7,"material":0,"mode":4}]},{"name":"SM_Tool_2_LOD2","primitives":[{"attributes":{"NORMAL":15,"POSITION":14,"TANGENT":16,"TEXCOORD_0":17,"TEXCOORD_1":18},"indices":13,"material":0,"mode":4}]},{"name":"SM_Tool_2_LOD3","primitives":[{"attributes":{"NORMAL":21,"POSITION":20,"TANGENT":22,"TEXCOORD_0":23,"TEXCOORD_1":24},"indices":19,"material":0,"mode":4}]},{"name":"SM_Tool_2_ConvexHulls","primitives":[{"attributes":{"NORMAL":27,"POSITION":26,"TEXCOORD_0":28,"TEXCOORD_1":29},"indices":25,"material":1,"mode":4}]}],"nodes":[{"children":[1,2,3,4,5],"name":"SM_Tool_111","originalUnits":0.00999999977648258,"pivot":[0,0,0],"rotation":[0,0,0,1],"scale":[1,1,1],"translation":[0,0,0]},{"mesh":0,"name":"SM_Tool_2_LOD0","originalUnits":0.00999999977648258,"pivot":[0,0,0],"rotation":[0,0,0,1],"scale":[1,1,1],"translation":[0,0,0]},{"mesh":4,"name":"SM_Tool_2_ConvexHulls","originalUnits":0.00999999977648258,"pivot":[0,0,0],"rotation":[0,0,0,1],"scale":[1,1,1],"translation":[0,0,0]},{"mesh":1,"name":"SM_Tool_2_LOD1","originalUnits":0.00999999977648258,"pivot":[0,0,0],"rotation":[0,0,0,1],"scale":[1,1,1],"translation":[0,0,0]},{"mesh":2,"name":"SM_Tool_2_LOD2","originalUnits":0.00999999977648258,"pivot":[0,0,0],"rotation":[0,0,0,1],"scale":[1,1,1],"translation":[0,0,0]},{"mesh":3,"name":"SM_Tool_2_LOD3","originalUnits":0.00999999977648258,"pivot":[0,0,0],"rotation":[0,0,0,1],"scale":[1,1,1],"translation":[0,0,0]}],"samplers":[{}],"scene":0,"scenes":[{"name":"Root Scene","nodes":[0]}],"textures":[{"name":"MI_Tools_02","sampler":0,"source":0},{"name":"MI_Tools_02","sampler":0,"source":1}]}