{"accessors":[{"bufferView":0,"byteOffset":0,"componentType":5126,"count":1,"max":[0],"min":[0],"type":"SCALAR"},{"bufferView":1,"byteOffset":0,"componentType":5123,"count":336,"type":"SCALAR"},{"bufferView":2,"byteOffset":0,"componentType":5126,"count":152,"max":[0.0826984792947769,0.0826983600854874,0.130657956004143],"min":[-0.08269859105349,-0.08269836008549,-0.12370666116476],"type":"VEC3"},{"bufferView":3,"byteOffset":0,"componentType":5126,"count":152,"type":"VEC3"},{"bufferView":4,"byteOffset":0,"componentType":5126,"count":152,"type":"VEC4"},{"bufferView":5,"byteOffset":0,"componentType":5126,"count":152,"type":"VEC2"},{"bufferView":6,"byteOffset":0,"componentType":5126,"count":152,"type":"VEC2"},{"bufferView":7,"byteOffset":0,"componentType":5123,"count":252,"type":"SCALAR"},{"bufferView":8,"byteOffset":0,"componentType":5126,"count":128,"max":[0.0826984792947769,0.0826983600854874,0.130729675292969],"min":[-0.08269859105349,-0.08269836008549,-0.12370666116476],"type":"VEC3"},{"bufferView":9,"byteOffset":0,"componentType":5126,"count":128,"type":"VEC3"},{"bufferView":10,"byteOffset":0,"componentType":5126,"count":128,"type":"VEC4"},{"bufferView":11,"byteOffset":0,"componentType":5126,"count":128,"type":"VEC2"},{"bufferView":12,"byteOffset":0,"componentType":5126,"count":128,"type":"VEC2"},{"bufferView":13,"byteOffset":0,"componentType":5123,"count":168,"type":"SCALAR"},{"bufferView":14,"byteOffset":0,"componentType":5126,"count":96,"max":[0.0826984792947769,0.0826983600854874,0.130729675292969],"min":[-0.08269859105349,-0.08269836008549,-0.12423499673605],"type":"VEC3"},{"bufferView":15,"byteOffset":0,"componentType":5126,"count":96,"type":"VEC3"},{"bufferView":16,"byteOffset":0,"componentType":5126,"count":96,"type":"VEC4"},{"bufferView":17,"byteOffset":0,"componentType":5126,"count":96,"type":"VEC2"},{"bufferView":18,"byteOffset":0,"componentType":5126,"count":96,"type":"VEC2"},{"bufferView":19,"byteOffset":0,"componentType":5123,"count":42,"type":"SCALAR"},{"bufferView":20,"byteOffset":0,"componentType":5126,"count":30,"max":[0.0722498595714569,0.0838584303855896,0.124381683766842],"min":[-0.08269859105349,-0.08473304659128,-0.10840804129839],"type":"VEC3"},{"bufferView":21,"byteOffset":0,"componentType":5126,"count":30,"type":"VEC3"},{"bufferView":22,"byteOffset":0,"componentType":5126,"count":30,"type":"VEC4"},{"bufferView":23,"byteOffset":0,"componentType":5126,"count":30,"type":"VEC2"},{"bufferView":24,"byteOffset":0,"componentType":5126,"count":30,"type":"VEC2"},{"bufferView":25,"byteOffset":0,"componentType":5123,"count":288,"type":"SCALAR"},{"bufferView":26,"byteOffset":0,"componentType":5126,"count":56,"max":[0.0813557058572769,0.0851771906018257,0.133305743336678],"min":[-0.08320032060146,-0.08449527621269,-0.12358509749174],"type":"VEC3"},{"bufferView":27,"byteOffset":0,"componentType":5126,"count":56,"type":"VEC3"},{"bufferView":28,"byteOffset":0,"componentType":5126,"count":56,"type":"VEC2"},{"bufferView":29,"byteOffset":0,"componentType":5126,"count":56,"type":"VEC2"}],"animations":[{"channels":[],"name":"Unreal Take","samplers":[]}],"asset":{"generator":"FBX2glTF v0.13.0","version":"2.0"},"bufferViews":[{"buffer":0,"byteLength":4,"byteOffset":0},{"buffer":0,"byteLength":672,"byteOffset":4,"target":34963},{"buffer":0,"byteLength":1824,"byteOffset":676,"target":34962},{"buffer":0,"byteLength":1824,"byteOffset":2500,"target":34962},{"buffer":0,"byteLength":2432,"byteOffset":4324,"target":34962},{"buffer":0,"byteLength":1216,"byteOffset":6756,"target":34962},{"buffer":0,"byteLength":1216,"byteOffset":7972,"target":34962},{"buffer":0,"byteLength":504,"byteOffset":9188,"target":34963},{"buffer":0,"byteLength":1536,"byteOffset":9692,"target":34962},{"buffer":0,"byteLength":1536,"byteOffset":11228,"target":34962},{"buffer":0,"byteLength":2048,"byteOffset":12764,"target":34962},{"buffer":0,"byteLength":1024,"byteOffset":14812,"target":34962},{"buffer":0,"byteLength":1024,"byteOffset":15836,"target":34962},{"buffer":0,"byteLength":336,"byteOffset":16860,"target":34963},{"buffer":0,"byteLength":1152,"byteOffset":17196,"target":34962},{"buffer":0,"byteLength":1152,"byteOffset":18348,"target":34962},{"buffer":0,"byteLength":1536,"byteOffset":19500,"target":34962},{"buffer":0,"byteLength":768,"byteOffset":21036,"target":34962},{"buffer":0,"byteLength":768,"byteOffset":21804,"target":34962},{"buffer":0,"byteLength":84,"byteOffset":22572,"target":34963},{"buffer":0,"byteLength":360,"byteOffset":22656,"target":34962},{"buffer":0,"byteLength":360,"byteOffset":23016,"target":34962},{"buffer":0,"byteLength":480,"byteOffset":23376,"target":34962},{"buffer":0,"byteLength":240,"byteOffset":23856,"target":34962},{"buffer":0,"byteLength":240,"byteOffset":24096,"target":34962},{"buffer":0,"byteLength":576,"byteOffset":24336,"target":34963},{"buffer":0,"byteLength":672,"byteOffset":24912,"target":34962},{"buffer":0,"byteLength":672,"byteOffset":25584,"target":34962},{"buffer":0,"byteLength":448,"byteOffset":26256,"target":34962},{"buffer":0,"byteLength":448,"byteOffset":26704,"target":34962}],"buffers":[{"byteLength":27152,"uri":"SM_Wall_Peg.bin"}],"images":[{"name":"T_Woodprops_02_N","uri":"T_Woodprops_02_N.png"},{"name":"T_Woodprops_02_B","uri":"T_Woodprops_02_B.png"}],"materials":[{"alphaMode":"OPAQUE","doubleSided":false,"extras":{"fromFBX":{"isTruePBR":false,"shadingModel":"Phong"}},"name":"MI_WoodenToolBox","normalTexture":{"index":0,"texCoord":0},"pbrMetallicRoughness":{"baseColorFactor":[1,1,1,1],"baseColorTexture":{"index":1,"texCoord":0},"metallicFactor":0.400000005960464,"roughnessFactor":0.301511347293854}},{"alphaMode":"OPAQUE","doubleSided":false,"extras":{"fromFBX":{"isTruePBR":false,"shadingModel":"Lambert"}},"name":"DefaultMaterial","pbrMetallicRoughness":{"baseColorFactor":[0.5,0.5,0.5,1],"metallicFactor":0.200000002980232,"roughnessFactor":0.800000011920929}}],"meshes":[{"name":"SM_Wall_Peg_LOD0","primitives":[{"attributes":{"NORMAL":3,"POSITION":2,"TANGENT":4,"TEXCOORD_0":5,"TEXCOORD_1":6},"indices":1,"material":0,"mode":4}]},{"name":"SM_Wall_Peg_LOD1","primitives":[{"attributes":{"NORMAL":9,"POSITION":8,"TANGENT":10,"TEXCOORD_0":11,"TEXCOORD_1":12},"indices":7,"material":0,"mode":4}]},{"name":"SM_Wall_Peg_LOD2","primitives":[{"attributes":{"NORMAL":15,"POSITION":14,"TANGENT":16,"TEXCOORD_0":17,"TEXCOORD_1":18},"indices":13,"material":0,"mode":4}]},{"name":"SM_Wall_Peg_LOD3","primitives":[{"attributes":{"NORMAL":21,"POSITION":20,"TANGENT":22,"TEXCOORD_0":23,"TEXCOORD_1":24},"indices":19,"material":0,"mode":4}]},{"name":"SM_Wall_Peg_ConvexHulls","primitives":[{"attributes":{"NORMAL":27,"POSITION":26,"TEXCOORD_0":28,"TEXCOORD_1":29},"indices":25,"material":1,"mode":4}]}],"nodes":[{"children":[1,2,3,4,5],"name":"SM_Wall_Peg_137","originalUnits":0.00999999977648258,"pivot":[0,0,0],"rotation":[0,0,0,1],"scale":[1,1,1],"translation":[0,0,0]},{"mesh":0,"name":"SM_Wall_Peg_LOD0","originalUnits":0.00999999977648258,"pivot":[0,0,0],"rotation":[0,0,0,1],"scale":[1,1,1],"translation":[0,0,0]},{"mesh":4,"name":"SM_Wall_Peg_ConvexHulls","originalUnits":0.00999999977648258,"pivot":[0,0,0],"rotation":[0,0,0,1],"scale":[1,1,1],"translation":[0,0,0]},{"mesh":1,"name":"SM_Wall_Peg_LOD1","originalUnits":0.00999999977648258,"pivot":[0,0,0],"rotation":[0,0,0,1],"scale":[1,1,1],"translation":[0,0,0]},{"mesh":2,"name":"SM_Wall_Peg_LOD2","originalUnits":0.00999999977648258,"pivot":[0,0,0],"rotation":[0,0,0,1],"scale":[1,1,1],"translation":[0,0,0]},{"mesh":3,"name":"SM_Wall_Peg_LOD3","originalUnits":0.00999999977648258,"pivot":[0,0,0],"rotation":[0,0,0,1],"scale":[1,1,1],"translation":[0,0,0]}],"samplers":[{}],"scene":0,"scenes":[{"name":"Root Scene","nodes":[0]}],"textures":[{"name":"MI_WoodenToolBox","sampler":0,"source":0},{"name":"MI_WoodenToolBox","sampler":0,"source":1}]}