{"accessors":[{"bufferView":0,"byteOffset":0,"componentType":5126,"count":1,"max":[0],"min":[0],"type":"SCALAR"},{"bufferView":1,"byteOffset":0,"componentType":5123,"count":2862,"type":"SCALAR"},{"bufferView":2,"byteOffset":0,"componentType":5126,"count":845,"max":[0.0825785845518112,1.184117436409,0.00000000100481289955212],"min":[-0.08257924765348,-1.18411755561829,-1.66030144691467],"type":"VEC3"},{"bufferView":3,"byteOffset":0,"componentType":5126,"count":845,"type":"VEC3"},{"bufferView":4,"byteOffset":0,"componentType":5126,"count":845,"type":"VEC4"},{"bufferView":5,"byteOffset":0,"componentType":5126,"count":845,"type":"VEC2"},{"bufferView":6,"byteOffset":0,"componentType":5126,"count":845,"type":"VEC2"},{"bufferView":7,"byteOffset":0,"componentType":5123,"count":2124,"type":"SCALAR"},{"bufferView":8,"byteOffset":0,"componentType":5126,"count":699,"max":[0.0825785845518112,1.184117436409,0.00000000100481289955212],"min":[-0.08345546573401,-1.18411755561829,-1.66030144691467],"type":"VEC3"},{"bufferView":9,"byteOffset":0,"componentType":5126,"count":699,"type":"VEC3"},{"bufferView":10,"byteOffset":0,"componentType":5126,"count":699,"type":"VEC4"},{"bufferView":11,"byteOffset":0,"componentType":5126,"count":699,"type":"VEC2"},{"bufferView":12,"byteOffset":0,"componentType":5126,"count":699,"type":"VEC2"},{"bufferView":13,"byteOffset":0,"componentType":5123,"count":1383,"type":"SCALAR"},{"bufferView":14,"byteOffset":0,"componentType":5126,"count":509,"max":[0.0825785845518112,1.184117436409,0.00000000100481289955212],"min":[-0.0834401473403,-1.18411755561829,-1.66030144691467],"type":"VEC3"},{"bufferView":15,"byteOffset":0,"componentType":5126,"count":509,"type":"VEC3"},{"bufferView":16,"byteOffset":0,"componentType":5126,"count":509,"type":"VEC4"},{"bufferView":17,"byteOffset":0,"componentType":5126,"count":509,"type":"VEC2"},{"bufferView":18,"byteOffset":0,"componentType":5126,"count":509,"type":"VEC2"},{"bufferView":19,"byteOffset":0,"componentType":5123,"count":291,"type":"SCALAR"},{"bufferView":20,"byteOffset":0,"componentType":5126,"count":133,"max":[0.0863774567842484,1.18420553207397,0.00000000100481289955212],"min":[-0.04874715209007,-1.18411755561829,-1.66030144691467],"type":"VEC3"},{"bufferView":21,"byteOffset":0,"componentType":5126,"count":133,"type":"VEC3"},{"bufferView":22,"byteOffset":0,"componentType":5126,"count":133,"type":"VEC4"},{"bufferView":23,"byteOffset":0,"componentType":5126,"count":133,"type":"VEC2"},{"bufferView":24,"byteOffset":0,"componentType":5126,"count":133,"type":"VEC2"},{"bufferView":25,"byteOffset":0,"componentType":5123,"count":111,"type":"SCALAR"},{"bufferView":26,"byteOffset":0,"componentType":5126,"count":63,"max":[0.0459873713552952,1.0702121257782,-0.05006927251816],"min":[0.00664079748094082,-0.71491730213165,-1.62458062171936],"type":"VEC3"},{"bufferView":27,"byteOffset":0,"componentType":5126,"count":63,"type":"VEC3"},{"bufferView":28,"byteOffset":0,"componentType":5126,"count":63,"type":"VEC4"},{"bufferView":29,"byteOffset":0,"componentType":5126,"count":63,"type":"VEC2"},{"bufferView":30,"byteOffset":0,"componentType":5123,"count":108,"type":"SCALAR"},{"bufferView":31,"byteOffset":0,"componentType":5126,"count":62,"max":[0.0459873713552952,1.0702121257782,-0.05006927251816],"min":[0.00664079748094082,-0.71491730213165,-1.62458062171936],"type":"VEC3"},{"bufferView":32,"byteOffset":0,"componentType":5126,"count":62,"type":"VEC3"},{"bufferView":33,"byteOffset":0,"componentType":5126,"count":62,"type":"VEC4"},{"bufferView":34,"byteOffset":0,"componentType":5126,"count":62,"type":"VEC2"},{"bufferView":35,"byteOffset":0,"componentType":5123,"count":105,"type":"SCALAR"},{"bufferView":36,"byteOffset":0,"componentType":5126,"count":61,"max":[0.0459873713552952,1.0702121257782,-0.05006927251816],"min":[0.00664079748094082,-0.71491730213165,-1.62458062171936],"type":"VEC3"},{"bufferView":37,"byteOffset":0,"componentType":5126,"count":61,"type":"VEC3"},{"bufferView":38,"byteOffset":0,"componentType":5126,"count":61,"type":"VEC4"},{"bufferView":39,"byteOffset":0,"componentType":5126,"count":61,"type":"VEC2"},{"bufferView":40,"byteOffset":0,"componentType":5123,"count":81,"type":"SCALAR"},{"bufferView":41,"byteOffset":0,"componentType":5126,"count":53,"max":[0.0459873713552952,1.0702121257782,-0.05006927251816],"min":[0.00664079748094082,-0.71491730213165,-1.62458062171936],"type":"VEC3"},{"bufferView":42,"byteOffset":0,"componentType":5126,"count":53,"type":"VEC3"},{"bufferView":43,"byteOffset":0,"componentType":5126,"count":53,"type":"VEC4"},{"bufferView":44,"byteOffset":0,"componentType":5126,"count":53,"type":"VEC2"},{"bufferView":45,"byteOffset":0,"componentType":5123,"count":234,"type":"SCALAR"},{"bufferView":46,"byteOffset":0,"componentType":5126,"count":47,"max":[0.094101257622242,1.19503939151764,0.0146831590682268],"min":[-0.08371793478727,-1.1950376033783,-1.67322599887848],"type":"VEC3"},{"bufferView":47,"byteOffset":0,"componentType":5126,"count":47,"type":"VEC3"},{"bufferView":48,"byteOffset":0,"componentType":5126,"count":47,"type":"VEC2"},{"bufferView":49,"byteOffset":0,"componentType":5126,"count":47,"type":"VEC2"}],"animations":[{"channels":[],"name":"Unreal Take","samplers":[]}],"asset":{"generator":"FBX2glTF v0.13.0","version":"2.0"},"bufferViews":[{"buffer":0,"byteLength":4,"byteOffset":0},{"buffer":0,"byteLength":5724,"byteOffset":4,"target":34963},{"buffer":0,"byteLength":10140,"byteOffset":5728,"target":34962},{"buffer":0,"byteLength":10140,"byteOffset":15868,"target":34962},{"buffer":0,"byteLength":13520,"byteOffset":26008,"target":34962},{"buffer":0,"byteLength":6760,"byteOffset":39528,"target":34962},{"buffer":0,"byteLength":6760,"byteOffset":46288,"target":34962},{"buffer":0,"byteLength":4248,"byteOffset":53048,"target":34963},{"buffer":0,"byteLength":8388,"byteOffset":57296,"target":34962},{"buffer":0,"byteLength":8388,"byteOffset":65684,"target":34962},{"buffer":0,"byteLength":11184,"byteOffset":74072,"target":34962},{"buffer":0,"byteLength":5592,"byteOffset":85256,"target":34962},{"buffer":0,"byteLength":5592,"byteOffset":90848,"target":34962},{"buffer":0,"byteLength":2766,"byteOffset":96440,"target":34963},{"buffer":0,"byteLength":6108,"byteOffset":99208,"target":34962},{"buffer":0,"byteLength":6108,"byteOffset":105316,"target":34962},{"buffer":0,"byteLength":8144,"byteOffset":111424,"target":34962},{"buffer":0,"byteLength":4072,"byteOffset":119568,"target":34962},{"buffer":0,"byteLength":4072,"byteOffset":123640,"target":34962},{"buffer":0,"byteLength":582,"byteOffset":127712,"target":34963},{"buffer":0,"byteLength":1596,"byteOffset":128296,"target":34962},{"buffer":0,"byteLength":1596,"byteOffset":129892,"target":34962},{"buffer":0,"byteLength":2128,"byteOffset":131488,"target":34962},{"buffer":0,"byteLength":1064,"byteOffset":133616,"target":34962},{"buffer":0,"byteLength":1064,"byteOffset":134680,"target":34962},{"buffer":0,"byteLength":222,"byteOffset":135744,"target":34963},{"buffer":0,"byteLength":756,"byteOffset":135968,"target":34962},{"buffer":0,"byteLength":756,"byteOffset":136724,"target":34962},{"buffer":0,"byteLength":1008,"byteOffset":137480,"target":34962},{"buffer":0,"byteLength":504,"byteOffset":138488,"target":34962},{"buffer":0,"byteLength":216,"byteOffset":138992,"target":34963},{"buffer":0,"byteLength":744,"byteOffset":139208,"target":34962},{"buffer":0,"byteLength":744,"byteOffset":139952,"target":34962},{"buffer":0,"byteLength":992,"byteOffset":140696,"target":34962},{"buffer":0,"byteLength":496,"byteOffset":141688,"target":34962},{"buffer":0,"byteLength":210,"byteOffset":142184,"target":34963},{"buffer":0,"byteLength":732,"byteOffset":142396,"target":34962},{"buffer":0,"byteLength":732,"byteOffset":143128,"target":34962},{"buffer":0,"byteLength":976,"byteOffset":143860,"target":34962},{"buffer":0,"byteLength":488,"byteOffset":144836,"target":34962},{"buffer":0,"byteLength":162,"byteOffset":145324,"target":34963},{"buffer":0,"byteLength":636,"byteOffset":145488,"target":34962},{"buffer":0,"byteLength":636,"byteOffset":146124,"target":34962},{"buffer":0,"byteLength":848,"byteOffset":146760,"target":34962},{"buffer":0,"byteLength":424,"byteOffset":147608,"target":34962},{"buffer":0,"byteLength":468,"byteOffset":148032,"target":34963},{"buffer":0,"byteLength":564,"byteOffset":148500,"target":34962},{"buffer":0,"byteLength":564,"byteOffset":149064,"target":34962},{"buffer":0,"byteLength":376,"byteOffset":149628,"target":34962},{"buffer":0,"byteLength":376,"byteOffset":150004,"target":34962}],"buffers":[{"byteLength":150380,"uri":"SM_Window_Frame_02.bin"}],"images":[{"name":"T_WoodBase_N","uri":"T_WoodBase_N.png"},{"name":"T_WoodBase_B","uri":"T_WoodBase_B.png"},{"name":"T_Window_Frame_02_N","uri":"T_Window_Frame_02_N.png"},{"name":"T_Window_Frame_02_B","uri":"T_Window_Frame_02_B.png"}],"materials":[{"alphaMode":"OPAQUE","doubleSided":false,"extras":{"fromFBX":{"isTruePBR":false,"shadingModel":"Phong"}},"name":"MI_WindowFrame","normalTexture":{"index":0,"texCoord":0},"pbrMetallicRoughness":{"baseColorFactor":[1,1,1,1],"baseColorTexture":{"index":1,"texCoord":0},"metallicFactor":0.400000005960464,"roughnessFactor":0.301511347293854}},{"alphaMode":"OPAQUE","doubleSided":false,"extras":{"fromFBX":{"isTruePBR":false,"shadingModel":"Phong"}},"name":"MI_WindowGlass_02","normalTexture":{"index":2,"texCoord":0},"pbrMetallicRoughness":{"baseColorFactor":[1,1,1,1],"baseColorTexture":{"index":3,"texCoord":0},"metallicFactor":0.400000005960464,"roughnessFactor":0.301511347293854}},{"alphaMode":"OPAQUE","doubleSided":false,"extras":{"fromFBX":{"isTruePBR":false,"shadingModel":"Lambert"}},"name":"DefaultMaterial","pbrMetallicRoughness":{"baseColorFactor":[0.5,0.5,0.5,1],"metallicFactor":0.200000002980232,"roughnessFactor":0.800000011920929}}],"meshes":[{"name":"SM_Window_Frame_02_LOD0","primitives":[{"attributes":{"NORMAL":3,"POSITION":2,"TANGENT":4,"TEXCOORD_0":5,"TEXCOORD_1":6},"indices":1,"material":0,"mode":4},{"attributes":{"NORMAL":27,"POSITION":26,"TANGENT":28,"TEXCOORD_0":29},"indices":25,"material":1,"mode":4}]},{"name":"SM_Window_Frame_02_LOD1","primitives":[{"attributes":{"NORMAL":9,"POSITION":8,"TANGENT":10,"TEXCOORD_0":11,"TEXCOORD_1":12},"indices":7,"material":0,"mode":4},{"attributes":{"NORMAL":32,"POSITION":31,"TANGENT":33,"TEXCOORD_0":34},"indices":30,"material":1,"mode":4}]},{"name":"SM_Window_Frame_02_LOD2","primitives":[{"attributes":{"NORMAL":15,"POSITION":14,"TANGENT":16,"TEXCOORD_0":17,"TEXCOORD_1":18},"indices":13,"material":0,"mode":4},{"attributes":{"NORMAL":37,"POSITION":36,"TANGENT":38,"TEXCOORD_0":39},"indices":35,"material":1,"mode":4}]},{"name":"SM_Window_Frame_02_LOD3","primitives":[{"attributes":{"NORMAL":21,"POSITION":20,"TANGENT":22,"TEXCOORD_0":23,"TEXCOORD_1":24},"indices":19,"material":0,"mode":4},{"attributes":{"NORMAL":42,"POSITION":41,"TANGENT":43,"TEXCOORD_0":44},"indices":40,"material":1,"mode":4}]},{"name":"SM_Window_Frame_02_ConvexHulls","primitives":[{"attributes":{"NORMAL":47,"POSITION":46,"TEXCOORD_0":48,"TEXCOORD_1":49},"indices":45,"material":2,"mode":4}]}],"nodes":[{"children":[1,2,3,4,5],"name":"SM_Window_Frame_02_142","originalUnits":0.00999999977648258,"pivot":[0,0,0],"rotation":[0,0,0,1],"scale":[1,1,1],"translation":[0,0,0]},{"mesh":0,"name":"SM_Window_Frame_02_LOD0","originalUnits":0.00999999977648258,"pivot":[0,0,0],"rotation":[0,0,0,1],"scale":[1,1,1],"translation":[0,0,0]},{"mesh":4,"name":"SM_Window_Frame_02_ConvexHulls","originalUnits":0.00999999977648258,"pivot":[0,0,0],"rotation":[0,0,0,1],"scale":[1,1,1],"translation":[0,0,0]},{"mesh":1,"name":"SM_Window_Frame_02_LOD1","originalUnits":0.00999999977648258,"pivot":[0,0,0],"rotation":[0,0,0,1],"scale":[1,1,1],"translation":[0,0,0]},{"mesh":2,"name":"SM_Window_Frame_02_LOD2","originalUnits":0.00999999977648258,"pivot":[0,0,0],"rotation":[0,0,0,1],"scale":[1,1,1],"translation":[0,0,0]},{"mesh":3,"name":"SM_Window_Frame_02_LOD3","originalUnits":0.00999999977648258,"pivot":[0,0,0],"rotation":[0,0,0,1],"scale":[1,1,1],"translation":[0,0,0]}],"samplers":[{}],"scene":0,"scenes":[{"name":"Root Scene","nodes":[0]}],"textures":[{"name":"MI_WindowFrame","sampler":0,"source":0},{"name":"MI_WindowFrame","sampler":0,"source":1},{"name":"MI_WindowGlass_02","sampler":0,"source":2},{"name":"MI_WindowGlass_02","sampler":0,"source":3}]}