{"accessors":[{"bufferView":0,"byteOffset":0,"componentType":5126,"count":1,"max":[0],"min":[0],"type":"SCALAR"},{"bufferView":1,"byteOffset":0,"componentType":5123,"count":66,"type":"SCALAR"},{"bufferView":2,"byteOffset":0,"componentType":5126,"count":44,"max":[-0.68271839618683,3.75335836410522,-4.13329839706421],"min":[-0.68271851539612,3.40657162666321,-5.87818384170532],"type":"VEC3"},{"bufferView":3,"byteOffset":0,"componentType":5126,"count":44,"type":"VEC3"},{"bufferView":4,"byteOffset":0,"componentType":5126,"count":44,"type":"VEC4"},{"bufferView":5,"byteOffset":0,"componentType":5126,"count":44,"type":"VEC2"},{"bufferView":6,"byteOffset":0,"componentType":5126,"count":44,"type":"VEC2"},{"bufferView":7,"byteOffset":0,"componentType":5123,"count":51,"type":"SCALAR"},{"bufferView":8,"byteOffset":0,"componentType":5126,"count":35,"max":[-0.68271839618683,3.75335836410522,-4.13329839706421],"min":[-0.68271851539612,3.40657162666321,-5.67375612258911],"type":"VEC3"},{"bufferView":9,"byteOffset":0,"componentType":5126,"count":35,"type":"VEC3"},{"bufferView":10,"byteOffset":0,"componentType":5126,"count":35,"type":"VEC4"},{"bufferView":11,"byteOffset":0,"componentType":5126,"count":35,"type":"VEC2"},{"bufferView":12,"byteOffset":0,"componentType":5126,"count":35,"type":"VEC2"},{"bufferView":13,"byteOffset":0,"componentType":5123,"count":33,"type":"SCALAR"},{"bufferView":14,"byteOffset":0,"componentType":5126,"count":23,"max":[-0.68271851539612,3.75335836410522,-4.13329839706421],"min":[-0.68271851539612,3.40657162666321,-5.11050415039062],"type":"VEC3"},{"bufferView":15,"byteOffset":0,"componentType":5126,"count":23,"type":"VEC3"},{"bufferView":16,"byteOffset":0,"componentType":5126,"count":23,"type":"VEC4"},{"bufferView":17,"byteOffset":0,"componentType":5126,"count":23,"type":"VEC2"},{"bufferView":18,"byteOffset":0,"componentType":5126,"count":23,"type":"VEC2"},{"bufferView":19,"byteOffset":0,"componentType":5123,"count":9,"type":"SCALAR"},{"bufferView":20,"byteOffset":0,"componentType":5126,"count":7,"max":[-0.68271851539612,3.75335836410522,-4.13329839706421],"min":[-0.68271851539612,3.40657162666321,-4.35879802703857],"type":"VEC3"},{"bufferView":21,"byteOffset":0,"componentType":5126,"count":7,"type":"VEC3"},{"bufferView":22,"byteOffset":0,"componentType":5126,"count":7,"type":"VEC4"},{"bufferView":23,"byteOffset":0,"componentType":5126,"count":7,"type":"VEC2"},{"bufferView":24,"byteOffset":0,"componentType":5126,"count":7,"type":"VEC2"}],"animations":[{"channels":[],"name":"Unreal Take","samplers":[]}],"asset":{"generator":"FBX2glTF v0.13.0","version":"2.0"},"bufferViews":[{"buffer":0,"byteLength":4,"byteOffset":0},{"buffer":0,"byteLength":132,"byteOffset":4,"target":34963},{"buffer":0,"byteLength":528,"byteOffset":136,"target":34962},{"buffer":0,"byteLength":528,"byteOffset":664,"target":34962},{"buffer":0,"byteLength":704,"byteOffset":1192,"target":34962},{"buffer":0,"byteLength":352,"byteOffset":1896,"target":34962},{"buffer":0,"byteLength":352,"byteOffset":2248,"target":34962},{"buffer":0,"byteLength":102,"byteOffset":2600,"target":34963},{"buffer":0,"byteLength":420,"byteOffset":2704,"target":34962},{"buffer":0,"byteLength":420,"byteOffset":3124,"target":34962},{"buffer":0,"byteLength":560,"byteOffset":3544,"target":34962},{"buffer":0,"byteLength":280,"byteOffset":4104,"target":34962},{"buffer":0,"byteLength":280,"byteOffset":4384,"target":34962},{"buffer":0,"byteLength":66,"byteOffset":4664,"target":34963},{"buffer":0,"byteLength":276,"byteOffset":4732,"target":34962},{"buffer":0,"byteLength":276,"byteOffset":5008,"target":34962},{"buffer":0,"byteLength":368,"byteOffset":5284,"target":34962},{"buffer":0,"byteLength":184,"byteOffset":5652,"target":34962},{"buffer":0,"byteLength":184,"byteOffset":5836,"target":34962},{"buffer":0,"byteLength":18,"byteOffset":6020,"target":34963},{"buffer":0,"byteLength":84,"byteOffset":6040,"target":34962},{"buffer":0,"byteLength":84,"byteOffset":6124,"target":34962},{"buffer":0,"byteLength":112,"byteOffset":6208,"target":34962},{"buffer":0,"byteLength":56,"byteOffset":6320,"target":34962},{"buffer":0,"byteLength":56,"byteOffset":6376,"target":34962}],"buffers":[{"byteLength":6432,"uri":"SM_Window_Wall_3.bin"}],"materials":[{"alphaMode":"OPAQUE","doubleSided":false,"extras":{"fromFBX":{"isTruePBR":false,"shadingModel":"Phong"}},"name":"MM_Decal_01","pbrMetallicRoughness":{"baseColorFactor":[0.800000011920929,0.800000011920929,0.800000011920929,1],"metallicFactor":0.400000005960464,"roughnessFactor":0.301511347293854}}],"meshes":[{"name":"SM_Window_Wall_3_LOD0","primitives":[{"attributes":{"NORMAL":3,"POSITION":2,"TANGENT":4,"TEXCOORD_0":5,"TEXCOORD_1":6},"indices":1,"material":0,"mode":4}]},{"name":"SM_Window_Wall_3_LOD1","primitives":[{"attributes":{"NORMAL":9,"POSITION":8,"TANGENT":10,"TEXCOORD_0":11,"TEXCOORD_1":12},"indices":7,"material":0,"mode":4}]},{"name":"SM_Window_Wall_3_LOD2","primitives":[{"attributes":{"NORMAL":15,"POSITION":14,"TANGENT":16,"TEXCOORD_0":17,"TEXCOORD_1":18},"indices":13,"material":0,"mode":4}]},{"name":"SM_Window_Wall_3_LOD3","primitives":[{"attributes":{"NORMAL":21,"POSITION":20,"TANGENT":22,"TEXCOORD_0":23,"TEXCOORD_1":24},"indices":19,"material":0,"mode":4}]}],"nodes":[{"children":[1,2,3,4],"name":"Window_Wall02__6","originalUnits":0.00999999977648258,"pivot":[0,0,0],"rotation":[0,0,0,1],"scale":[1,1,1],"translation":[0,0,0]},{"mesh":0,"name":"SM_Window_Wall_3_LOD0","originalUnits":0.00999999977648258,"pivot":[0,0,0],"rotation":[0,0,0,1],"scale":[1,1,1],"translation":[0,0,0]},{"mesh":1,"name":"SM_Window_Wall_3_LOD1","originalUnits":0.00999999977648258,"pivot":[0,0,0],"rotation":[0,0,0,1],"scale":[1,1,1],"translation":[0,0,0]},{"mesh":2,"name":"SM_Window_Wall_3_LOD2","originalUnits":0.00999999977648258,"pivot":[0,0,0],"rotation":[0,0,0,1],"scale":[1,1,1],"translation":[0,0,0]},{"mesh":3,"name":"SM_Window_Wall_3_LOD3","originalUnits":0.00999999977648258,"pivot":[0,0,0],"rotation":[0,0,0,1],"scale":[1,1,1],"translation":[0,0,0]}],"samplers":[{}],"scene":0,"scenes":[{"name":"Root Scene","nodes":[0]}]}