{"accessors":[{"bufferView":0,"byteOffset":0,"componentType":5126,"count":1,"max":[0],"min":[0],"type":"SCALAR"},{"bufferView":1,"byteOffset":0,"componentType":5123,"count":1233,"type":"SCALAR"},{"bufferView":2,"byteOffset":0,"componentType":5126,"count":420,"max":[0.628855586051941,5.69148874282837,1.89713501930237],"min":[-0.52742445468903,0.000000893178878413892,-1.89713501930237],"type":"VEC3"},{"bufferView":3,"byteOffset":0,"componentType":5126,"count":420,"type":"VEC3"},{"bufferView":4,"byteOffset":0,"componentType":5126,"count":420,"type":"VEC4"},{"bufferView":5,"byteOffset":0,"componentType":5126,"count":420,"type":"VEC2"},{"bufferView":6,"byteOffset":0,"componentType":5126,"count":420,"type":"VEC2"},{"bufferView":7,"byteOffset":0,"componentType":5123,"count":897,"type":"SCALAR"},{"bufferView":8,"byteOffset":0,"componentType":5126,"count":348,"max":[0.628855586051941,5.69148874282837,1.89713501930237],"min":[-0.52742445468903,-0.00000652663084,-1.89713501930237],"type":"VEC3"},{"bufferView":9,"byteOffset":0,"componentType":5126,"count":348,"type":"VEC3"},{"bufferView":10,"byteOffset":0,"componentType":5126,"count":348,"type":"VEC4"},{"bufferView":11,"byteOffset":0,"componentType":5126,"count":348,"type":"VEC2"},{"bufferView":12,"byteOffset":0,"componentType":5126,"count":348,"type":"VEC2"},{"bufferView":13,"byteOffset":0,"componentType":5123,"count":645,"type":"SCALAR"},{"bufferView":14,"byteOffset":0,"componentType":5126,"count":278,"max":[0.628855586051941,5.69148874282837,1.89713501930237],"min":[-0.54205858707428,0.000000893178878413892,-1.89713501930237],"type":"VEC3"},{"bufferView":15,"byteOffset":0,"componentType":5126,"count":278,"type":"VEC3"},{"bufferView":16,"byteOffset":0,"componentType":5126,"count":278,"type":"VEC4"},{"bufferView":17,"byteOffset":0,"componentType":5126,"count":278,"type":"VEC2"},{"bufferView":18,"byteOffset":0,"componentType":5126,"count":278,"type":"VEC2"},{"bufferView":19,"byteOffset":0,"componentType":5123,"count":168,"type":"SCALAR"},{"bufferView":20,"byteOffset":0,"componentType":5126,"count":94,"max":[0.628855586051941,5.69148874282837,1.89713501930237],"min":[-0.65168583393097,0.000000893178878413892,-1.89713478088379],"type":"VEC3"},{"bufferView":21,"byteOffset":0,"componentType":5126,"count":94,"type":"VEC3"},{"bufferView":22,"byteOffset":0,"componentType":5126,"count":94,"type":"VEC4"},{"bufferView":23,"byteOffset":0,"componentType":5126,"count":94,"type":"VEC2"},{"bufferView":24,"byteOffset":0,"componentType":5126,"count":94,"type":"VEC2"},{"bufferView":25,"byteOffset":0,"componentType":5123,"count":108,"type":"SCALAR"},{"bufferView":26,"byteOffset":0,"componentType":5126,"count":38,"max":[-0.2616054713726,3.9366295337677,1.04623019695282],"min":[-0.26160582900047,1.74956464767456,-1.04623079299927],"type":"VEC3"},{"bufferView":27,"byteOffset":0,"componentType":5126,"count":38,"type":"VEC3"},{"bufferView":28,"byteOffset":0,"componentType":5126,"count":38,"type":"VEC4"},{"bufferView":29,"byteOffset":0,"componentType":5126,"count":38,"type":"VEC2"},{"bufferView":30,"byteOffset":0,"componentType":5126,"count":38,"type":"VEC2"},{"bufferView":31,"byteOffset":0,"componentType":5123,"count":108,"type":"SCALAR"},{"bufferView":32,"byteOffset":0,"componentType":5126,"count":38,"max":[-0.2616054713726,3.9366295337677,1.04623019695282],"min":[-0.26160582900047,1.74956464767456,-1.04623079299927],"type":"VEC3"},{"bufferView":33,"byteOffset":0,"componentType":5126,"count":38,"type":"VEC3"},{"bufferView":34,"byteOffset":0,"componentType":5126,"count":38,"type":"VEC4"},{"bufferView":35,"byteOffset":0,"componentType":5126,"count":38,"type":"VEC2"},{"bufferView":36,"byteOffset":0,"componentType":5126,"count":38,"type":"VEC2"},{"bufferView":37,"byteOffset":0,"componentType":5123,"count":24,"type":"SCALAR"},{"bufferView":38,"byteOffset":0,"componentType":5126,"count":16,"max":[-0.2616054713726,3.90918660163879,1.04623019695282],"min":[-0.26160582900047,1.74956464767456,-1.04623079299927],"type":"VEC3"},{"bufferView":39,"byteOffset":0,"componentType":5126,"count":16,"type":"VEC3"},{"bufferView":40,"byteOffset":0,"componentType":5126,"count":16,"type":"VEC4"},{"bufferView":41,"byteOffset":0,"componentType":5126,"count":16,"type":"VEC2"},{"bufferView":42,"byteOffset":0,"componentType":5126,"count":16,"type":"VEC2"},{"bufferView":43,"byteOffset":0,"componentType":5123,"count":240,"type":"SCALAR"},{"bufferView":44,"byteOffset":0,"componentType":5126,"count":48,"max":[0.647485613822937,5.70929050445557,1.91434109210968],"min":[-0.5470814704895,-0.03585265949368,-1.91486299037933],"type":"VEC3"},{"bufferView":45,"byteOffset":0,"componentType":5126,"count":48,"type":"VEC3"},{"bufferView":46,"byteOffset":0,"componentType":5126,"count":48,"type":"VEC2"},{"bufferView":47,"byteOffset":0,"componentType":5126,"count":48,"type":"VEC2"}],"animations":[{"channels":[],"name":"Unreal Take","samplers":[]}],"asset":{"generator":"FBX2glTF v0.13.0","version":"2.0"},"bufferViews":[{"buffer":0,"byteLength":4,"byteOffset":0},{"buffer":0,"byteLength":2466,"byteOffset":4,"target":34963},{"buffer":0,"byteLength":5040,"byteOffset":2472,"target":34962},{"buffer":0,"byteLength":5040,"byteOffset":7512,"target":34962},{"buffer":0,"byteLength":6720,"byteOffset":12552,"target":34962},{"buffer":0,"byteLength":3360,"byteOffset":19272,"target":34962},{"buffer":0,"byteLength":3360,"byteOffset":22632,"target":34962},{"buffer":0,"byteLength":1794,"byteOffset":25992,"target":34963},{"buffer":0,"byteLength":4176,"byteOffset":27788,"target":34962},{"buffer":0,"byteLength":4176,"byteOffset":31964,"target":34962},{"buffer":0,"byteLength":5568,"byteOffset":36140,"target":34962},{"buffer":0,"byteLength":2784,"byteOffset":41708,"target":34962},{"buffer":0,"byteLength":2784,"byteOffset":44492,"target":34962},{"buffer":0,"byteLength":1290,"byteOffset":47276,"target":34963},{"buffer":0,"byteLength":3336,"byteOffset":48568,"target":34962},{"buffer":0,"byteLength":3336,"byteOffset":51904,"target":34962},{"buffer":0,"byteLength":4448,"byteOffset":55240,"target":34962},{"buffer":0,"byteLength":2224,"byteOffset":59688,"target":34962},{"buffer":0,"byteLength":2224,"byteOffset":61912,"target":34962},{"buffer":0,"byteLength":336,"byteOffset":64136,"target":34963},{"buffer":0,"byteLength":1128,"byteOffset":64472,"target":34962},{"buffer":0,"byteLength":1128,"byteOffset":65600,"target":34962},{"buffer":0,"byteLength":1504,"byteOffset":66728,"target":34962},{"buffer":0,"byteLength":752,"byteOffset":68232,"target":34962},{"buffer":0,"byteLength":752,"byteOffset":68984,"target":34962},{"buffer":0,"byteLength":216,"byteOffset":69736,"target":34963},{"buffer":0,"byteLength":456,"byteOffset":69952,"target":34962},{"buffer":0,"byteLength":456,"byteOffset":70408,"target":34962},{"buffer":0,"byteLength":608,"byteOffset":70864,"target":34962},{"buffer":0,"byteLength":304,"byteOffset":71472,"target":34962},{"buffer":0,"byteLength":304,"byteOffset":71776,"target":34962},{"buffer":0,"byteLength":216,"byteOffset":72080,"target":34963},{"buffer":0,"byteLength":456,"byteOffset":72296,"target":34962},{"buffer":0,"byteLength":456,"byteOffset":72752,"target":34962},{"buffer":0,"byteLength":608,"byteOffset":73208,"target":34962},{"buffer":0,"byteLength":304,"byteOffset":73816,"target":34962},{"buffer":0,"byteLength":304,"byteOffset":74120,"target":34962},{"buffer":0,"byteLength":48,"byteOffset":74424,"target":34963},{"buffer":0,"byteLength":192,"byteOffset":74472,"target":34962},{"buffer":0,"byteLength":192,"byteOffset":74664,"target":34962},{"buffer":0,"byteLength":256,"byteOffset":74856,"target":34962},{"buffer":0,"byteLength":128,"byteOffset":75112,"target":34962},{"buffer":0,"byteLength":128,"byteOffset":75240,"target":34962},{"buffer":0,"byteLength":480,"byteOffset":75368,"target":34963},{"buffer":0,"byteLength":576,"byteOffset":75848,"target":34962},{"buffer":0,"byteLength":576,"byteOffset":76424,"target":34962},{"buffer":0,"byteLength":384,"byteOffset":77000,"target":34962},{"buffer":0,"byteLength":384,"byteOffset":77384,"target":34962}],"buffers":[{"byteLength":77768,"uri":"SM_Wall_04.bin"}],"images":[{"name":"T_Bricks_N","uri":"T_Bricks_N.png"},{"name":"T_Bricks_B","uri":"T_Bricks_B.png"}],"materials":[{"alphaMode":"OPAQUE","doubleSided":false,"extras":{"fromFBX":{"isTruePBR":false,"shadingModel":"Phong"}},"name":"MM_Decal_01","pbrMetallicRoughness":{"baseColorFactor":[0.800000011920929,0.800000011920929,0.800000011920929,1],"metallicFactor":0.400000005960464,"roughnessFactor":0.301511347293854}},{"alphaMode":"OPAQUE","doubleSided":false,"extras":{"fromFBX":{"isTruePBR":false,"shadingModel":"Phong"}},"name":"MI_Brick_02","normalTexture":{"index":0,"texCoord":0},"pbrMetallicRoughness":{"baseColorFactor":[1,1,1,1],"baseColorTexture":{"index":1,"texCoord":0},"metallicFactor":0.400000005960464,"roughnessFactor":0.301511347293854}},{"alphaMode":"OPAQUE","doubleSided":false,"extras":{"fromFBX":{"isTruePBR":false,"shadingModel":"Lambert"}},"name":"DefaultMaterial","pbrMetallicRoughness":{"baseColorFactor":[0.5,0.5,0.5,1],"metallicFactor":0.200000002980232,"roughnessFactor":0.800000011920929}}],"meshes":[{"name":"SM_Wall_04_LOD0","primitives":[{"attributes":{"NORMAL":3,"POSITION":2,"TANGENT":4,"TEXCOORD_0":5,"TEXCOORD_1":6},"indices":1,"material":1,"mode":4},{"attributes":{"NORMAL":27,"POSITION":26,"TANGENT":28,"TEXCOORD_0":29,"TEXCOORD_1":30},"indices":25,"material":0,"mode":4}]},{"name":"SM_Wall_04_LOD1","primitives":[{"attributes":{"NORMAL":9,"POSITION":8,"TANGENT":10,"TEXCOORD_0":11,"TEXCOORD_1":12},"indices":7,"material":1,"mode":4},{"attributes":{"NORMAL":33,"POSITION":32,"TANGENT":34,"TEXCOORD_0":35,"TEXCOORD_1":36},"indices":31,"material":0,"mode":4}]},{"name":"SM_Wall_04_LOD2","primitives":[{"attributes":{"NORMAL":15,"POSITION":14,"TANGENT":16,"TEXCOORD_0":17,"TEXCOORD_1":18},"indices":13,"material":1,"mode":4},{"attributes":{"NORMAL":39,"POSITION":38,"TANGENT":40,"TEXCOORD_0":41,"TEXCOORD_1":42},"indices":37,"material":0,"mode":4}]},{"name":"SM_Wall_04_LOD3","primitives":[{"attributes":{"NORMAL":21,"POSITION":20,"TANGENT":22,"TEXCOORD_0":23,"TEXCOORD_1":24},"indices":19,"material":1,"mode":4}]},{"name":"SM_Wall_04_ConvexHulls","primitives":[{"attributes":{"NORMAL":45,"POSITION":44,"TEXCOORD_0":46,"TEXCOORD_1":47},"indices":43,"material":2,"mode":4}]}],"nodes":[{"children":[1,2,3,4,5],"name":"SM_Wall_04_134","originalUnits":0.00999999977648258,"pivot":[0,0,0],"rotation":[0,0,0,1],"scale":[1,1,1],"translation":[0,0,0]},{"mesh":0,"name":"SM_Wall_04_LOD0","originalUnits":0.00999999977648258,"pivot":[0,0,0],"rotation":[0,0,0,1],"scale":[1,1,1],"translation":[0,0,0]},{"mesh":4,"name":"SM_Wall_04_ConvexHulls","originalUnits":0.00999999977648258,"pivot":[0,0,0],"rotation":[0,0,0,1],"scale":[1,1,1],"translation":[0,0,0]},{"mesh":1,"name":"SM_Wall_04_LOD1","originalUnits":0.00999999977648258,"pivot":[0,0,0],"rotation":[0,0,0,1],"scale":[1,1,1],"translation":[0,0,0]},{"mesh":2,"name":"SM_Wall_04_LOD2","originalUnits":0.00999999977648258,"pivot":[0,0,0],"rotation":[0,0,0,1],"scale":[1,1,1],"translation":[0,0,0]},{"mesh":3,"name":"SM_Wall_04_LOD3","originalUnits":0.00999999977648258,"pivot":[0,0,0],"rotation":[0,0,0,1],"scale":[1,1,1],"translation":[0,0,0]}],"samplers":[{}],"scene":0,"scenes":[{"name":"Root Scene","nodes":[0]}],"textures":[{"name":"MI_Brick_02","sampler":0,"source":0},{"name":"MI_Brick_02","sampler":0,"source":1}]}