{"accessors":[{"bufferView":0,"byteOffset":0,"componentType":5126,"count":1,"max":[0],"min":[0],"type":"SCALAR"},{"bufferView":1,"byteOffset":0,"componentType":5123,"count":4536,"type":"SCALAR"},{"bufferView":2,"byteOffset":0,"componentType":5126,"count":1295,"max":[0.0839410498738289,1.60865020751953,1.66030180454254],"min":[-0.08394261449575,-1.60864996910095,0.000000915059786166239],"type":"VEC3"},{"bufferView":3,"byteOffset":0,"componentType":5126,"count":1295,"type":"VEC3"},{"bufferView":4,"byteOffset":0,"componentType":5126,"count":1295,"type":"VEC4"},{"bufferView":5,"byteOffset":0,"componentType":5126,"count":1295,"type":"VEC2"},{"bufferView":6,"byteOffset":0,"componentType":5126,"count":1295,"type":"VEC2"},{"bufferView":7,"byteOffset":0,"componentType":5123,"count":3351,"type":"SCALAR"},{"bufferView":8,"byteOffset":0,"componentType":5126,"count":1031,"max":[0.0839410498738289,1.60865020751953,1.66030180454254],"min":[-0.08481881767511,-1.60864996910095,0.000000915059786166239],"type":"VEC3"},{"bufferView":9,"byteOffset":0,"componentType":5126,"count":1031,"type":"VEC3"},{"bufferView":10,"byteOffset":0,"componentType":5126,"count":1031,"type":"VEC4"},{"bufferView":11,"byteOffset":0,"componentType":5126,"count":1031,"type":"VEC2"},{"bufferView":12,"byteOffset":0,"componentType":5126,"count":1031,"type":"VEC2"},{"bufferView":13,"byteOffset":0,"componentType":5123,"count":2181,"type":"SCALAR"},{"bufferView":14,"byteOffset":0,"componentType":5126,"count":742,"max":[0.084078386425972,1.60865020751953,1.66030180454254],"min":[-0.08480352908373,-1.60864996910095,0.000000915059786166239],"type":"VEC3"},{"bufferView":15,"byteOffset":0,"componentType":5126,"count":742,"type":"VEC3"},{"bufferView":16,"byteOffset":0,"componentType":5126,"count":742,"type":"VEC4"},{"bufferView":17,"byteOffset":0,"componentType":5126,"count":742,"type":"VEC2"},{"bufferView":18,"byteOffset":0,"componentType":5126,"count":742,"type":"VEC2"},{"bufferView":19,"byteOffset":0,"componentType":5123,"count":474,"type":"SCALAR"},{"bufferView":20,"byteOffset":0,"componentType":5126,"count":216,"max":[0.111509546637535,1.60623133182526,1.66030180454254],"min":[-0.06599596142769,-1.60864996910095,0.000000915059786166239],"type":"VEC3"},{"bufferView":21,"byteOffset":0,"componentType":5126,"count":216,"type":"VEC3"},{"bufferView":22,"byteOffset":0,"componentType":5126,"count":216,"type":"VEC4"},{"bufferView":23,"byteOffset":0,"componentType":5126,"count":216,"type":"VEC2"},{"bufferView":24,"byteOffset":0,"componentType":5126,"count":216,"type":"VEC2"},{"bufferView":25,"byteOffset":0,"componentType":5123,"count":216,"type":"SCALAR"},{"bufferView":26,"byteOffset":0,"componentType":5126,"count":106,"max":[0.0446541644632816,1.52852201461792,1.62023282051086],"min":[0.00354804890230298,-1.50110912322998,0.0457214340567589],"type":"VEC3"},{"bufferView":27,"byteOffset":0,"componentType":5126,"count":106,"type":"VEC3"},{"bufferView":28,"byteOffset":0,"componentType":5126,"count":106,"type":"VEC4"},{"bufferView":29,"byteOffset":0,"componentType":5126,"count":106,"type":"VEC2"},{"bufferView":30,"byteOffset":0,"componentType":5123,"count":213,"type":"SCALAR"},{"bufferView":31,"byteOffset":0,"componentType":5126,"count":105,"max":[0.0446541644632816,1.52852201461792,1.62023282051086],"min":[0.00354804890230298,-1.50110912322998,0.0457214340567589],"type":"VEC3"},{"bufferView":32,"byteOffset":0,"componentType":5126,"count":105,"type":"VEC3"},{"bufferView":33,"byteOffset":0,"componentType":5126,"count":105,"type":"VEC4"},{"bufferView":34,"byteOffset":0,"componentType":5126,"count":105,"type":"VEC2"},{"bufferView":35,"byteOffset":0,"componentType":5123,"count":195,"type":"SCALAR"},{"bufferView":36,"byteOffset":0,"componentType":5126,"count":99,"max":[0.0446541644632816,1.52852201461792,1.62023282051086],"min":[0.00354804890230298,-1.50110912322998,0.0457214340567589],"type":"VEC3"},{"bufferView":37,"byteOffset":0,"componentType":5126,"count":99,"type":"VEC3"},{"bufferView":38,"byteOffset":0,"componentType":5126,"count":99,"type":"VEC4"},{"bufferView":39,"byteOffset":0,"componentType":5126,"count":99,"type":"VEC2"},{"bufferView":40,"byteOffset":0,"componentType":5123,"count":120,"type":"SCALAR"},{"bufferView":41,"byteOffset":0,"componentType":5126,"count":74,"max":[0.0446541644632816,1.52852201461792,1.62023282051086],"min":[0.00354804890230298,-1.50110912322998,0.0457214340567589],"type":"VEC3"},{"bufferView":42,"byteOffset":0,"componentType":5126,"count":74,"type":"VEC3"},{"bufferView":43,"byteOffset":0,"componentType":5126,"count":74,"type":"VEC4"},{"bufferView":44,"byteOffset":0,"componentType":5126,"count":74,"type":"VEC2"},{"bufferView":45,"byteOffset":0,"componentType":5123,"count":300,"type":"SCALAR"},{"bufferView":46,"byteOffset":0,"componentType":5126,"count":58,"max":[0.101853743195534,1.61916780471802,1.67082822322845],"min":[-0.08369700610638,-1.62655937671661,-0.01788578741252],"type":"VEC3"},{"bufferView":47,"byteOffset":0,"componentType":5126,"count":58,"type":"VEC3"},{"bufferView":48,"byteOffset":0,"componentType":5126,"count":58,"type":"VEC2"},{"bufferView":49,"byteOffset":0,"componentType":5126,"count":58,"type":"VEC2"}],"animations":[{"channels":[],"name":"Unreal Take","samplers":[]}],"asset":{"generator":"FBX2glTF v0.13.0","version":"2.0"},"bufferViews":[{"buffer":0,"byteLength":4,"byteOffset":0},{"buffer":0,"byteLength":9072,"byteOffset":4,"target":34963},{"buffer":0,"byteLength":15540,"byteOffset":9076,"target":34962},{"buffer":0,"byteLength":15540,"byteOffset":24616,"target":34962},{"buffer":0,"byteLength":20720,"byteOffset":40156,"target":34962},{"buffer":0,"byteLength":10360,"byteOffset":60876,"target":34962},{"buffer":0,"byteLength":10360,"byteOffset":71236,"target":34962},{"buffer":0,"byteLength":6702,"byteOffset":81596,"target":34963},{"buffer":0,"byteLength":12372,"byteOffset":88300,"target":34962},{"buffer":0,"byteLength":12372,"byteOffset":100672,"target":34962},{"buffer":0,"byteLength":16496,"byteOffset":113044,"target":34962},{"buffer":0,"byteLength":8248,"byteOffset":129540,"target":34962},{"buffer":0,"byteLength":8248,"byteOffset":137788,"target":34962},{"buffer":0,"byteLength":4362,"byteOffset":146036,"target":34963},{"buffer":0,"byteLength":8904,"byteOffset":150400,"target":34962},{"buffer":0,"byteLength":8904,"byteOffset":159304,"target":34962},{"buffer":0,"byteLength":11872,"byteOffset":168208,"target":34962},{"buffer":0,"byteLength":5936,"byteOffset":180080,"target":34962},{"buffer":0,"byteLength":5936,"byteOffset":186016,"target":34962},{"buffer":0,"byteLength":948,"byteOffset":191952,"target":34963},{"buffer":0,"byteLength":2592,"byteOffset":192900,"target":34962},{"buffer":0,"byteLength":2592,"byteOffset":195492,"target":34962},{"buffer":0,"byteLength":3456,"byteOffset":198084,"target":34962},{"buffer":0,"byteLength":1728,"byteOffset":201540,"target":34962},{"buffer":0,"byteLength":1728,"byteOffset":203268,"target":34962},{"buffer":0,"byteLength":432,"byteOffset":204996,"target":34963},{"buffer":0,"byteLength":1272,"byteOffset":205428,"target":34962},{"buffer":0,"byteLength":1272,"byteOffset":206700,"target":34962},{"buffer":0,"byteLength":1696,"byteOffset":207972,"target":34962},{"buffer":0,"byteLength":848,"byteOffset":209668,"target":34962},{"buffer":0,"byteLength":426,"byteOffset":210516,"target":34963},{"buffer":0,"byteLength":1260,"byteOffset":210944,"target":34962},{"buffer":0,"byteLength":1260,"byteOffset":212204,"target":34962},{"buffer":0,"byteLength":1680,"byteOffset":213464,"target":34962},{"buffer":0,"byteLength":840,"byteOffset":215144,"target":34962},{"buffer":0,"byteLength":390,"byteOffset":215984,"target":34963},{"buffer":0,"byteLength":1188,"byteOffset":216376,"target":34962},{"buffer":0,"byteLength":1188,"byteOffset":217564,"target":34962},{"buffer":0,"byteLength":1584,"byteOffset":218752,"target":34962},{"buffer":0,"byteLength":792,"byteOffset":220336,"target":34962},{"buffer":0,"byteLength":240,"byteOffset":221128,"target":34963},{"buffer":0,"byteLength":888,"byteOffset":221368,"target":34962},{"buffer":0,"byteLength":888,"byteOffset":222256,"target":34962},{"buffer":0,"byteLength":1184,"byteOffset":223144,"target":34962},{"buffer":0,"byteLength":592,"byteOffset":224328,"target":34962},{"buffer":0,"byteLength":600,"byteOffset":224920,"target":34963},{"buffer":0,"byteLength":696,"byteOffset":225520,"target":34962},{"buffer":0,"byteLength":696,"byteOffset":226216,"target":34962},{"buffer":0,"byteLength":464,"byteOffset":226912,"target":34962},{"buffer":0,"byteLength":464,"byteOffset":227376,"target":34962}],"buffers":[{"byteLength":227840,"uri":"SM_Window_Frame.bin"}],"images":[{"name":"T_WoodBase_N","uri":"T_WoodBase_N.png"},{"name":"T_WoodBase_B","uri":"T_WoodBase_B.png"},{"name":"T_Window_Frame_N","uri":"T_Window_Frame_N.png"},{"name":"T_Window_Frame_B","uri":"T_Window_Frame_B.png"}],"materials":[{"alphaMode":"OPAQUE","doubleSided":false,"extras":{"fromFBX":{"isTruePBR":false,"shadingModel":"Phong"}},"name":"MI_WindowFrame","normalTexture":{"index":0,"texCoord":0},"pbrMetallicRoughness":{"baseColorFactor":[1,1,1,1],"baseColorTexture":{"index":1,"texCoord":0},"metallicFactor":0.400000005960464,"roughnessFactor":0.301511347293854}},{"alphaMode":"OPAQUE","doubleSided":false,"extras":{"fromFBX":{"isTruePBR":false,"shadingModel":"Phong"}},"name":"MI_WindowGlass_01","normalTexture":{"index":2,"texCoord":0},"pbrMetallicRoughness":{"baseColorFactor":[1,1,1,1],"baseColorTexture":{"index":3,"texCoord":0},"metallicFactor":0.400000005960464,"roughnessFactor":0.301511347293854}},{"alphaMode":"OPAQUE","doubleSided":false,"extras":{"fromFBX":{"isTruePBR":false,"shadingModel":"Lambert"}},"name":"DefaultMaterial","pbrMetallicRoughness":{"baseColorFactor":[0.5,0.5,0.5,1],"metallicFactor":0.200000002980232,"roughnessFactor":0.800000011920929}}],"meshes":[{"name":"SM_Window_Frame_LOD0","primitives":[{"attributes":{"NORMAL":3,"POSITION":2,"TANGENT":4,"TEXCOORD_0":5,"TEXCOORD_1":6},"indices":1,"material":0,"mode":4},{"attributes":{"NORMAL":27,"POSITION":26,"TANGENT":28,"TEXCOORD_0":29},"indices":25,"material":1,"mode":4}]},{"name":"SM_Window_Frame_LOD1","primitives":[{"attributes":{"NORMAL":9,"POSITION":8,"TANGENT":10,"TEXCOORD_0":11,"TEXCOORD_1":12},"indices":7,"material":0,"mode":4},{"attributes":{"NORMAL":32,"POSITION":31,"TANGENT":33,"TEXCOORD_0":34},"indices":30,"material":1,"mode":4}]},{"name":"SM_Window_Frame_LOD2","primitives":[{"attributes":{"NORMAL":15,"POSITION":14,"TANGENT":16,"TEXCOORD_0":17,"TEXCOORD_1":18},"indices":13,"material":0,"mode":4},{"attributes":{"NORMAL":37,"POSITION":36,"TANGENT":38,"TEXCOORD_0":39},"indices":35,"material":1,"mode":4}]},{"name":"SM_Window_Frame_LOD3","primitives":[{"attributes":{"NORMAL":21,"POSITION":20,"TANGENT":22,"TEXCOORD_0":23,"TEXCOORD_1":24},"indices":19,"material":0,"mode":4},{"attributes":{"NORMAL":42,"POSITION":41,"TANGENT":43,"TEXCOORD_0":44},"indices":40,"material":1,"mode":4}]},{"name":"SM_Window_Frame_ConvexHulls","primitives":[{"attributes":{"NORMAL":47,"POSITION":46,"TEXCOORD_0":48,"TEXCOORD_1":49},"indices":45,"material":2,"mode":4}]}],"nodes":[{"children":[1,2,3,4,5],"name":"SM_Window_Frame_141","originalUnits":0.00999999977648258,"pivot":[0,0,0],"rotation":[0,0,0,1],"scale":[1,1,1],"translation":[0,0,0]},{"mesh":0,"name":"SM_Window_Frame_LOD0","originalUnits":0.00999999977648258,"pivot":[0,0,0],"rotation":[0,0,0,1],"scale":[1,1,1],"translation":[0,0,0]},{"mesh":4,"name":"SM_Window_Frame_ConvexHulls","originalUnits":0.00999999977648258,"pivot":[0,0,0],"rotation":[0,0,0,1],"scale":[1,1,1],"translation":[0,0,0]},{"mesh":1,"name":"SM_Window_Frame_LOD1","originalUnits":0.00999999977648258,"pivot":[0,0,0],"rotation":[0,0,0,1],"scale":[1,1,1],"translation":[0,0,0]},{"mesh":2,"name":"SM_Window_Frame_LOD2","originalUnits":0.00999999977648258,"pivot":[0,0,0],"rotation":[0,0,0,1],"scale":[1,1,1],"translation":[0,0,0]},{"mesh":3,"name":"SM_Window_Frame_LOD3","originalUnits":0.00999999977648258,"pivot":[0,0,0],"rotation":[0,0,0,1],"scale":[1,1,1],"translation":[0,0,0]}],"samplers":[{}],"scene":0,"scenes":[{"name":"Root Scene","nodes":[0]}],"textures":[{"name":"MI_WindowFrame","sampler":0,"source":0},{"name":"MI_WindowFrame","sampler":0,"source":1},{"name":"MI_WindowGlass_01","sampler":0,"source":2},{"name":"MI_WindowGlass_01","sampler":0,"source":3}]}