{"accessors":[{"bufferView":0,"byteOffset":0,"componentType":5126,"count":1,"max":[0],"min":[0],"type":"SCALAR"},{"bufferView":1,"byteOffset":0,"componentType":5123,"count":12,"type":"SCALAR"},{"bufferView":2,"byteOffset":0,"componentType":5126,"count":6,"max":[0.035980511456728,5,5.50152826309204],"min":[0.0359803661704063,0.000000807801313840173,-1.39713513851166],"type":"VEC3"},{"bufferView":3,"byteOffset":0,"componentType":5126,"count":6,"type":"VEC3"},{"bufferView":4,"byteOffset":0,"componentType":5126,"count":6,"type":"VEC4"},{"bufferView":5,"byteOffset":0,"componentType":5126,"count":6,"type":"VEC2"},{"bufferView":6,"byteOffset":0,"componentType":5126,"count":6,"type":"VEC2"},{"bufferView":7,"byteOffset":0,"componentType":5123,"count":9,"type":"SCALAR"},{"bufferView":8,"byteOffset":0,"componentType":5126,"count":5,"max":[0.035980511456728,5,5.50152826309204],"min":[0.0359803773462772,0.000000807801313840173,-1.39713513851166],"type":"VEC3"},{"bufferView":9,"byteOffset":0,"componentType":5126,"count":5,"type":"VEC3"},{"bufferView":10,"byteOffset":0,"componentType":5126,"count":5,"type":"VEC4"},{"bufferView":11,"byteOffset":0,"componentType":5126,"count":5,"type":"VEC2"},{"bufferView":12,"byteOffset":0,"componentType":5126,"count":5,"type":"VEC2"},{"bufferView":13,"byteOffset":0,"componentType":5123,"count":6,"type":"SCALAR"},{"bufferView":14,"byteOffset":0,"componentType":5126,"count":4,"max":[0.035980511456728,5,5.50152826309204],"min":[0.0359803773462772,1.11172068119049,-1.39713501930237],"type":"VEC3"},{"bufferView":15,"byteOffset":0,"componentType":5126,"count":4,"type":"VEC3"},{"bufferView":16,"byteOffset":0,"componentType":5126,"count":4,"type":"VEC4"},{"bufferView":17,"byteOffset":0,"componentType":5126,"count":4,"type":"VEC2"},{"bufferView":18,"byteOffset":0,"componentType":5126,"count":4,"type":"VEC2"},{"bufferView":19,"byteOffset":0,"componentType":5123,"count":6,"type":"SCALAR"},{"bufferView":20,"byteOffset":0,"componentType":5126,"count":4,"max":[0.035980511456728,5,5.50152826309204],"min":[0.0359803773462772,1.11172068119049,-1.39713501930237],"type":"VEC3"},{"bufferView":21,"byteOffset":0,"componentType":5126,"count":4,"type":"VEC3"},{"bufferView":22,"byteOffset":0,"componentType":5126,"count":4,"type":"VEC4"},{"bufferView":23,"byteOffset":0,"componentType":5126,"count":4,"type":"VEC2"},{"bufferView":24,"byteOffset":0,"componentType":5126,"count":4,"type":"VEC2"},{"bufferView":25,"byteOffset":0,"componentType":5123,"count":36,"type":"SCALAR"},{"bufferView":26,"byteOffset":0,"componentType":5126,"count":8,"max":[0.0369277708232403,5.00124979019165,5.50252676010132],"min":[-0.21843756735325,-0.00125000043772,-1.3981351852417],"type":"VEC3"},{"bufferView":27,"byteOffset":0,"componentType":5126,"count":8,"type":"VEC3"},{"bufferView":28,"byteOffset":0,"componentType":5126,"count":8,"type":"VEC2"},{"bufferView":29,"byteOffset":0,"componentType":5126,"count":8,"type":"VEC2"}],"animations":[{"channels":[],"name":"Unreal Take","samplers":[]}],"asset":{"generator":"FBX2glTF v0.13.0","version":"2.0"},"bufferViews":[{"buffer":0,"byteLength":4,"byteOffset":0},{"buffer":0,"byteLength":24,"byteOffset":4,"target":34963},{"buffer":0,"byteLength":72,"byteOffset":28,"target":34962},{"buffer":0,"byteLength":72,"byteOffset":100,"target":34962},{"buffer":0,"byteLength":96,"byteOffset":172,"target":34962},{"buffer":0,"byteLength":48,"byteOffset":268,"target":34962},{"buffer":0,"byteLength":48,"byteOffset":316,"target":34962},{"buffer":0,"byteLength":18,"byteOffset":364,"target":34963},{"buffer":0,"byteLength":60,"byteOffset":384,"target":34962},{"buffer":0,"byteLength":60,"byteOffset":444,"target":34962},{"buffer":0,"byteLength":80,"byteOffset":504,"target":34962},{"buffer":0,"byteLength":40,"byteOffset":584,"target":34962},{"buffer":0,"byteLength":40,"byteOffset":624,"target":34962},{"buffer":0,"byteLength":12,"byteOffset":664,"target":34963},{"buffer":0,"byteLength":48,"byteOffset":676,"target":34962},{"buffer":0,"byteLength":48,"byteOffset":724,"target":34962},{"buffer":0,"byteLength":64,"byteOffset":772,"target":34962},{"buffer":0,"byteLength":32,"byteOffset":836,"target":34962},{"buffer":0,"byteLength":32,"byteOffset":868,"target":34962},{"buffer":0,"byteLength":12,"byteOffset":900,"target":34963},{"buffer":0,"byteLength":48,"byteOffset":912,"target":34962},{"buffer":0,"byteLength":48,"byteOffset":960,"target":34962},{"buffer":0,"byteLength":64,"byteOffset":1008,"target":34962},{"buffer":0,"byteLength":32,"byteOffset":1072,"target":34962},{"buffer":0,"byteLength":32,"byteOffset":1104,"target":34962},{"buffer":0,"byteLength":72,"byteOffset":1136,"target":34963},{"buffer":0,"byteLength":96,"byteOffset":1208,"target":34962},{"buffer":0,"byteLength":96,"byteOffset":1304,"target":34962},{"buffer":0,"byteLength":64,"byteOffset":1400,"target":34962},{"buffer":0,"byteLength":64,"byteOffset":1464,"target":34962}],"buffers":[{"byteLength":1528,"uri":"SM_Wall_03.bin"}],"images":[{"name":"T_Bricks_N","uri":"T_Bricks_N.png"},{"name":"T_Bricks_B","uri":"T_Bricks_B.png"}],"materials":[{"alphaMode":"OPAQUE","doubleSided":false,"extras":{"fromFBX":{"isTruePBR":false,"shadingModel":"Phong"}},"name":"MI_Brick_01","normalTexture":{"index":0,"texCoord":0},"pbrMetallicRoughness":{"baseColorFactor":[1,1,1,1],"baseColorTexture":{"index":1,"texCoord":0},"metallicFactor":0.400000005960464,"roughnessFactor":0.301511347293854}},{"alphaMode":"OPAQUE","doubleSided":false,"extras":{"fromFBX":{"isTruePBR":false,"shadingModel":"Lambert"}},"name":"DefaultMaterial","pbrMetallicRoughness":{"baseColorFactor":[0.5,0.5,0.5,1],"metallicFactor":0.200000002980232,"roughnessFactor":0.800000011920929}}],"meshes":[{"name":"SM_Wall_03_LOD0","primitives":[{"attributes":{"NORMAL":3,"POSITION":2,"TANGENT":4,"TEXCOORD_0":5,"TEXCOORD_1":6},"indices":1,"material":0,"mode":4}]},{"name":"SM_Wall_03_LOD1","primitives":[{"attributes":{"NORMAL":9,"POSITION":8,"TANGENT":10,"TEXCOORD_0":11,"TEXCOORD_1":12},"indices":7,"material":0,"mode":4}]},{"name":"SM_Wall_03_LOD2","primitives":[{"attributes":{"NORMAL":15,"POSITION":14,"TANGENT":16,"TEXCOORD_0":17,"TEXCOORD_1":18},"indices":13,"material":0,"mode":4}]},{"name":"SM_Wall_03_LOD3","primitives":[{"attributes":{"NORMAL":21,"POSITION":20,"TANGENT":22,"TEXCOORD_0":23,"TEXCOORD_1":24},"indices":19,"material":0,"mode":4}]},{"name":"SM_Wall_03_ConvexHulls","primitives":[{"attributes":{"NORMAL":27,"POSITION":26,"TEXCOORD_0":28,"TEXCOORD_1":29},"indices":25,"material":1,"mode":4}]}],"nodes":[{"children":[1,2,3,4,5],"name":"Base_pCube11","originalUnits":0.00999999977648258,"pivot":[0,0,0],"rotation":[0,0,0,1],"scale":[1,1,1],"translation":[0,0,0]},{"mesh":0,"name":"SM_Wall_03_LOD0","originalUnits":0.00999999977648258,"pivot":[0,0,0],"rotation":[0,0,0,1],"scale":[1,1,1],"translation":[0,0,0]},{"mesh":4,"name":"SM_Wall_03_ConvexHulls","originalUnits":0.00999999977648258,"pivot":[0,0,0],"rotation":[0,0,0,1],"scale":[1,1,1],"translation":[0,0,0]},{"mesh":1,"name":"SM_Wall_03_LOD1","originalUnits":0.00999999977648258,"pivot":[0,0,0],"rotation":[0,0,0,1],"scale":[1,1,1],"translation":[0,0,0]},{"mesh":2,"name":"SM_Wall_03_LOD2","originalUnits":0.00999999977648258,"pivot":[0,0,0],"rotation":[0,0,0,1],"scale":[1,1,1],"translation":[0,0,0]},{"mesh":3,"name":"SM_Wall_03_LOD3","originalUnits":0.00999999977648258,"pivot":[0,0,0],"rotation":[0,0,0,1],"scale":[1,1,1],"translation":[0,0,0]}],"samplers":[{}],"scene":0,"scenes":[{"name":"Root Scene","nodes":[0]}],"textures":[{"name":"MI_Brick_01","sampler":0,"source":0},{"name":"MI_Brick_01","sampler":0,"source":1}]}