{"accessors":[{"bufferView":0,"byteOffset":0,"componentType":5126,"count":1,"max":[0],"min":[0],"type":"SCALAR"},{"bufferView":1,"byteOffset":0,"componentType":5123,"count":432,"type":"SCALAR"},{"bufferView":2,"byteOffset":0,"componentType":5126,"count":99,"max":[0.0408737286925316,0.369323939085007,0.369324177503586],"min":[-0.04087372869253,-0.36932393908501,-0.36932417750359],"type":"VEC3"},{"bufferView":3,"byteOffset":0,"componentType":5126,"count":99,"type":"VEC3"},{"bufferView":4,"byteOffset":0,"componentType":5126,"count":99,"type":"VEC4"},{"bufferView":5,"byteOffset":0,"componentType":5126,"count":99,"type":"VEC2"},{"bufferView":6,"byteOffset":0,"componentType":5126,"count":99,"type":"VEC2"},{"bufferView":7,"byteOffset":0,"componentType":5123,"count":324,"type":"SCALAR"},{"bufferView":8,"byteOffset":0,"componentType":5126,"count":81,"max":[0.0408737286925316,0.369323939085007,0.369324177503586],"min":[-0.04131839796901,-0.36996731162071,-0.36996734142304],"type":"VEC3"},{"bufferView":9,"byteOffset":0,"componentType":5126,"count":81,"type":"VEC3"},{"bufferView":10,"byteOffset":0,"componentType":5126,"count":81,"type":"VEC4"},{"bufferView":11,"byteOffset":0,"componentType":5126,"count":81,"type":"VEC2"},{"bufferView":12,"byteOffset":0,"componentType":5126,"count":81,"type":"VEC2"},{"bufferView":13,"byteOffset":0,"componentType":5123,"count":216,"type":"SCALAR"},{"bufferView":14,"byteOffset":0,"componentType":5126,"count":58,"max":[0.0426292642951012,0.369323939085007,0.369324177503586],"min":[-0.04261497035623,-0.37030494213104,-0.37161254882813],"type":"VEC3"},{"bufferView":15,"byteOffset":0,"componentType":5126,"count":58,"type":"VEC3"},{"bufferView":16,"byteOffset":0,"componentType":5126,"count":58,"type":"VEC4"},{"bufferView":17,"byteOffset":0,"componentType":5126,"count":58,"type":"VEC2"},{"bufferView":18,"byteOffset":0,"componentType":5126,"count":58,"type":"VEC2"},{"bufferView":19,"byteOffset":0,"componentType":5123,"count":54,"type":"SCALAR"},{"bufferView":20,"byteOffset":0,"componentType":5126,"count":22,"max":[0.0494452230632305,0.366275012493134,0.369266152381897],"min":[-0.05706528201699,-0.37179362773895,-0.38049525022507],"type":"VEC3"},{"bufferView":21,"byteOffset":0,"componentType":5126,"count":22,"type":"VEC3"},{"bufferView":22,"byteOffset":0,"componentType":5126,"count":22,"type":"VEC4"},{"bufferView":23,"byteOffset":0,"componentType":5126,"count":22,"type":"VEC2"},{"bufferView":24,"byteOffset":0,"componentType":5126,"count":22,"type":"VEC2"},{"bufferView":25,"byteOffset":0,"componentType":5123,"count":336,"type":"SCALAR"},{"bufferView":26,"byteOffset":0,"componentType":5126,"count":62,"max":[0.0434620752930641,0.374253213405609,0.374253213405609],"min":[-0.04198691248894,-0.3750087916851,-0.3750087916851],"type":"VEC3"},{"bufferView":27,"byteOffset":0,"componentType":5126,"count":62,"type":"VEC3"},{"bufferView":28,"byteOffset":0,"componentType":5126,"count":62,"type":"VEC2"},{"bufferView":29,"byteOffset":0,"componentType":5126,"count":62,"type":"VEC2"}],"animations":[{"channels":[],"name":"Unreal Take","samplers":[]}],"asset":{"generator":"FBX2glTF v0.13.0","version":"2.0"},"bufferViews":[{"buffer":0,"byteLength":4,"byteOffset":0},{"buffer":0,"byteLength":864,"byteOffset":4,"target":34963},{"buffer":0,"byteLength":1188,"byteOffset":868,"target":34962},{"buffer":0,"byteLength":1188,"byteOffset":2056,"target":34962},{"buffer":0,"byteLength":1584,"byteOffset":3244,"target":34962},{"buffer":0,"byteLength":792,"byteOffset":4828,"target":34962},{"buffer":0,"byteLength":792,"byteOffset":5620,"target":34962},{"buffer":0,"byteLength":648,"byteOffset":6412,"target":34963},{"buffer":0,"byteLength":972,"byteOffset":7060,"target":34962},{"buffer":0,"byteLength":972,"byteOffset":8032,"target":34962},{"buffer":0,"byteLength":1296,"byteOffset":9004,"target":34962},{"buffer":0,"byteLength":648,"byteOffset":10300,"target":34962},{"buffer":0,"byteLength":648,"byteOffset":10948,"target":34962},{"buffer":0,"byteLength":432,"byteOffset":11596,"target":34963},{"buffer":0,"byteLength":696,"byteOffset":12028,"target":34962},{"buffer":0,"byteLength":696,"byteOffset":12724,"target":34962},{"buffer":0,"byteLength":928,"byteOffset":13420,"target":34962},{"buffer":0,"byteLength":464,"byteOffset":14348,"target":34962},{"buffer":0,"byteLength":464,"byteOffset":14812,"target":34962},{"buffer":0,"byteLength":108,"byteOffset":15276,"target":34963},{"buffer":0,"byteLength":264,"byteOffset":15384,"target":34962},{"buffer":0,"byteLength":264,"byteOffset":15648,"target":34962},{"buffer":0,"byteLength":352,"byteOffset":15912,"target":34962},{"buffer":0,"byteLength":176,"byteOffset":16264,"target":34962},{"buffer":0,"byteLength":176,"byteOffset":16440,"target":34962},{"buffer":0,"byteLength":672,"byteOffset":16616,"target":34963},{"buffer":0,"byteLength":744,"byteOffset":17288,"target":34962},{"buffer":0,"byteLength":744,"byteOffset":18032,"target":34962},{"buffer":0,"byteLength":496,"byteOffset":18776,"target":34962},{"buffer":0,"byteLength":496,"byteOffset":19272,"target":34962}],"buffers":[{"byteLength":19768,"uri":"SM_Wheel_Part.bin"}],"images":[{"name":"T_Woodprops_01_N","uri":"T_Woodprops_01_N.png"},{"name":"T_Woodprops_01_B","uri":"T_Woodprops_01_B.png"}],"materials":[{"alphaMode":"OPAQUE","doubleSided":false,"extras":{"fromFBX":{"isTruePBR":false,"shadingModel":"Phong"}},"name":"MI_Wheel","normalTexture":{"index":0,"texCoord":0},"pbrMetallicRoughness":{"baseColorFactor":[1,1,1,1],"baseColorTexture":{"index":1,"texCoord":0},"metallicFactor":0.400000005960464,"roughnessFactor":0.301511347293854}},{"alphaMode":"OPAQUE","doubleSided":false,"extras":{"fromFBX":{"isTruePBR":false,"shadingModel":"Lambert"}},"name":"DefaultMaterial","pbrMetallicRoughness":{"baseColorFactor":[0.5,0.5,0.5,1],"metallicFactor":0.200000002980232,"roughnessFactor":0.800000011920929}}],"meshes":[{"name":"SM_Wheel_Part_LOD0","primitives":[{"attributes":{"NORMAL":3,"POSITION":2,"TANGENT":4,"TEXCOORD_0":5,"TEXCOORD_1":6},"indices":1,"material":0,"mode":4}]},{"name":"SM_Wheel_Part_LOD1","primitives":[{"attributes":{"NORMAL":9,"POSITION":8,"TANGENT":10,"TEXCOORD_0":11,"TEXCOORD_1":12},"indices":7,"material":0,"mode":4}]},{"name":"SM_Wheel_Part_LOD2","primitives":[{"attributes":{"NORMAL":15,"POSITION":14,"TANGENT":16,"TEXCOORD_0":17,"TEXCOORD_1":18},"indices":13,"material":0,"mode":4}]},{"name":"SM_Wheel_Part_LOD3","primitives":[{"attributes":{"NORMAL":21,"POSITION":20,"TANGENT":22,"TEXCOORD_0":23,"TEXCOORD_1":24},"indices":19,"material":0,"mode":4}]},{"name":"SM_Wheel_Part_ConvexHulls","primitives":[{"attributes":{"NORMAL":27,"POSITION":26,"TEXCOORD_0":28,"TEXCOORD_1":29},"indices":25,"material":1,"mode":4}]}],"nodes":[{"children":[1,2,3,4,5],"name":"SM_Wheel_Part_139","originalUnits":0.00999999977648258,"pivot":[0,0,0],"rotation":[0,0,0,1],"scale":[1,1,1],"translation":[0,0,0]},{"mesh":0,"name":"SM_Wheel_Part_LOD0","originalUnits":0.00999999977648258,"pivot":[0,0,0],"rotation":[0,0,0,1],"scale":[1,1,1],"translation":[0,0,0]},{"mesh":4,"name":"SM_Wheel_Part_ConvexHulls","originalUnits":0.00999999977648258,"pivot":[0,0,0],"rotation":[0,0,0,1],"scale":[1,1,1],"translation":[0,0,0]},{"mesh":1,"name":"SM_Wheel_Part_LOD1","originalUnits":0.00999999977648258,"pivot":[0,0,0],"rotation":[0,0,0,1],"scale":[1,1,1],"translation":[0,0,0]},{"mesh":2,"name":"SM_Wheel_Part_LOD2","originalUnits":0.00999999977648258,"pivot":[0,0,0],"rotation":[0,0,0,1],"scale":[1,1,1],"translation":[0,0,0]},{"mesh":3,"name":"SM_Wheel_Part_LOD3","originalUnits":0.00999999977648258,"pivot":[0,0,0],"rotation":[0,0,0,1],"scale":[1,1,1],"translation":[0,0,0]}],"samplers":[{}],"scene":0,"scenes":[{"name":"Root Scene","nodes":[0]}],"textures":[{"name":"MI_Wheel","sampler":0,"source":0},{"name":"MI_Wheel","sampler":0,"source":1}]}