{"accessors":[{"bufferView":0,"byteOffset":0,"componentType":5126,"count":1,"max":[0],"min":[0],"type":"SCALAR"},{"bufferView":1,"byteOffset":0,"componentType":5123,"count":264,"type":"SCALAR"},{"bufferView":2,"byteOffset":0,"componentType":5126,"count":88,"max":[0.170304656028748,3.19998955726624,4.40295600891113],"min":[-0.19513484835625,0.0000105658309621504,-4.40295600891113],"type":"VEC3"},{"bufferView":3,"byteOffset":0,"componentType":5126,"count":88,"type":"VEC3"},{"bufferView":4,"byteOffset":0,"componentType":5126,"count":88,"type":"VEC4"},{"bufferView":5,"byteOffset":0,"componentType":5126,"count":88,"type":"VEC2"},{"bufferView":6,"byteOffset":0,"componentType":5126,"count":88,"type":"VEC2"},{"bufferView":7,"byteOffset":0,"componentType":5123,"count":252,"type":"SCALAR"},{"bufferView":8,"byteOffset":0,"componentType":5126,"count":84,"max":[0.170304656028748,3.19998955726624,4.40334510803223],"min":[-0.19513484835625,-0.00038177674287,-4.40295600891113],"type":"VEC3"},{"bufferView":9,"byteOffset":0,"componentType":5126,"count":84,"type":"VEC3"},{"bufferView":10,"byteOffset":0,"componentType":5126,"count":84,"type":"VEC4"},{"bufferView":11,"byteOffset":0,"componentType":5126,"count":84,"type":"VEC2"},{"bufferView":12,"byteOffset":0,"componentType":5126,"count":84,"type":"VEC2"},{"bufferView":13,"byteOffset":0,"componentType":5123,"count":246,"type":"SCALAR"},{"bufferView":14,"byteOffset":0,"componentType":5126,"count":86,"max":[0.170304656028748,3.21640348434448,4.40334510803223],"min":[-0.19513484835625,-0.00038177674287,-4.40295600891113],"type":"VEC3"},{"bufferView":15,"byteOffset":0,"componentType":5126,"count":86,"type":"VEC3"},{"bufferView":16,"byteOffset":0,"componentType":5126,"count":86,"type":"VEC4"},{"bufferView":17,"byteOffset":0,"componentType":5126,"count":86,"type":"VEC2"},{"bufferView":18,"byteOffset":0,"componentType":5126,"count":86,"type":"VEC2"},{"bufferView":19,"byteOffset":0,"componentType":5123,"count":96,"type":"SCALAR"},{"bufferView":20,"byteOffset":0,"componentType":5126,"count":40,"max":[0.212683886289597,3.22466421127319,4.40334510803223],"min":[-0.20614464581013,-0.00038177674287,-4.40295600891113],"type":"VEC3"},{"bufferView":21,"byteOffset":0,"componentType":5126,"count":40,"type":"VEC3"},{"bufferView":22,"byteOffset":0,"componentType":5126,"count":40,"type":"VEC4"},{"bufferView":23,"byteOffset":0,"componentType":5126,"count":40,"type":"VEC2"},{"bufferView":24,"byteOffset":0,"componentType":5126,"count":40,"type":"VEC2"},{"bufferView":25,"byteOffset":0,"componentType":5123,"count":1152,"type":"SCALAR"},{"bufferView":26,"byteOffset":0,"componentType":5126,"count":744,"max":[0.170304656028748,2.79908561706543,1.19768440723419],"min":[-0.19513484835625,0.400915414094925,-1.22251486778259],"type":"VEC3"},{"bufferView":27,"byteOffset":0,"componentType":5126,"count":744,"type":"VEC3"},{"bufferView":28,"byteOffset":0,"componentType":5126,"count":744,"type":"VEC4"},{"bufferView":29,"byteOffset":0,"componentType":5126,"count":744,"type":"VEC2"},{"bufferView":30,"byteOffset":0,"componentType":5126,"count":744,"type":"VEC2"},{"bufferView":31,"byteOffset":0,"componentType":5123,"count":810,"type":"SCALAR"},{"bufferView":32,"byteOffset":0,"componentType":5126,"count":554,"max":[0.172876715660095,2.79908561706543,1.19768440723419],"min":[-0.19770690798759,0.400915414094925,-1.22251486778259],"type":"VEC3"},{"bufferView":33,"byteOffset":0,"componentType":5126,"count":554,"type":"VEC3"},{"bufferView":34,"byteOffset":0,"componentType":5126,"count":554,"type":"VEC4"},{"bufferView":35,"byteOffset":0,"componentType":5126,"count":554,"type":"VEC2"},{"bufferView":36,"byteOffset":0,"componentType":5126,"count":554,"type":"VEC2"},{"bufferView":37,"byteOffset":0,"componentType":5123,"count":462,"type":"SCALAR"},{"bufferView":38,"byteOffset":0,"componentType":5126,"count":354,"max":[0.172632157802582,2.79908561706543,1.19768440723419],"min":[-0.1974623054266,0.400915414094925,-1.22251486778259],"type":"VEC3"},{"bufferView":39,"byteOffset":0,"componentType":5126,"count":354,"type":"VEC3"},{"bufferView":40,"byteOffset":0,"componentType":5126,"count":354,"type":"VEC4"},{"bufferView":41,"byteOffset":0,"componentType":5126,"count":354,"type":"VEC2"},{"bufferView":42,"byteOffset":0,"componentType":5126,"count":354,"type":"VEC2"},{"bufferView":43,"byteOffset":0,"componentType":5123,"count":81,"type":"SCALAR"},{"bufferView":44,"byteOffset":0,"componentType":5126,"count":81,"max":[0.212683886289597,2.81422805786133,1.18157196044922],"min":[-0.20614464581013,0.401228785514832,-1.07525110244751],"type":"VEC3"},{"bufferView":45,"byteOffset":0,"componentType":5126,"count":81,"type":"VEC3"},{"bufferView":46,"byteOffset":0,"componentType":5126,"count":81,"type":"VEC4"},{"bufferView":47,"byteOffset":0,"componentType":5126,"count":81,"type":"VEC2"},{"bufferView":48,"byteOffset":0,"componentType":5126,"count":81,"type":"VEC2"},{"bufferView":49,"byteOffset":0,"componentType":5123,"count":246,"type":"SCALAR"},{"bufferView":50,"byteOffset":0,"componentType":5126,"count":49,"max":[0.191574990749359,3.21149039268494,4.42422819137573],"min":[-0.23383148014545,-0.02224121242762,-4.42423343658447],"type":"VEC3"},{"bufferView":51,"byteOffset":0,"componentType":5126,"count":49,"type":"VEC3"},{"bufferView":52,"byteOffset":0,"componentType":5126,"count":49,"type":"VEC2"},{"bufferView":53,"byteOffset":0,"componentType":5126,"count":49,"type":"VEC2"}],"animations":[{"channels":[],"name":"Unreal Take","samplers":[]}],"asset":{"generator":"FBX2glTF v0.13.0","version":"2.0"},"bufferViews":[{"buffer":0,"byteLength":4,"byteOffset":0},{"buffer":0,"byteLength":528,"byteOffset":4,"target":34963},{"buffer":0,"byteLength":1056,"byteOffset":532,"target":34962},{"buffer":0,"byteLength":1056,"byteOffset":1588,"target":34962},{"buffer":0,"byteLength":1408,"byteOffset":2644,"target":34962},{"buffer":0,"byteLength":704,"byteOffset":4052,"target":34962},{"buffer":0,"byteLength":704,"byteOffset":4756,"target":34962},{"buffer":0,"byteLength":504,"byteOffset":5460,"target":34963},{"buffer":0,"byteLength":1008,"byteOffset":5964,"target":34962},{"buffer":0,"byteLength":1008,"byteOffset":6972,"target":34962},{"buffer":0,"byteLength":1344,"byteOffset":7980,"target":34962},{"buffer":0,"byteLength":672,"byteOffset":9324,"target":34962},{"buffer":0,"byteLength":672,"byteOffset":9996,"target":34962},{"buffer":0,"byteLength":492,"byteOffset":10668,"target":34963},{"buffer":0,"byteLength":1032,"byteOffset":11160,"target":34962},{"buffer":0,"byteLength":1032,"byteOffset":12192,"target":34962},{"buffer":0,"byteLength":1376,"byteOffset":13224,"target":34962},{"buffer":0,"byteLength":688,"byteOffset":14600,"target":34962},{"buffer":0,"byteLength":688,"byteOffset":15288,"target":34962},{"buffer":0,"byteLength":192,"byteOffset":15976,"target":34963},{"buffer":0,"byteLength":480,"byteOffset":16168,"target":34962},{"buffer":0,"byteLength":480,"byteOffset":16648,"target":34962},{"buffer":0,"byteLength":640,"byteOffset":17128,"target":34962},{"buffer":0,"byteLength":320,"byteOffset":17768,"target":34962},{"buffer":0,"byteLength":320,"byteOffset":18088,"target":34962},{"buffer":0,"byteLength":2304,"byteOffset":18408,"target":34963},{"buffer":0,"byteLength":8928,"byteOffset":20712,"target":34962},{"buffer":0,"byteLength":8928,"byteOffset":29640,"target":34962},{"buffer":0,"byteLength":11904,"byteOffset":38568,"target":34962},{"buffer":0,"byteLength":5952,"byteOffset":50472,"target":34962},{"buffer":0,"byteLength":5952,"byteOffset":56424,"target":34962},{"buffer":0,"byteLength":1620,"byteOffset":62376,"target":34963},{"buffer":0,"byteLength":6648,"byteOffset":63996,"target":34962},{"buffer":0,"byteLength":6648,"byteOffset":70644,"target":34962},{"buffer":0,"byteLength":8864,"byteOffset":77292,"target":34962},{"buffer":0,"byteLength":4432,"byteOffset":86156,"target":34962},{"buffer":0,"byteLength":4432,"byteOffset":90588,"target":34962},{"buffer":0,"byteLength":924,"byteOffset":95020,"target":34963},{"buffer":0,"byteLength":4248,"byteOffset":95944,"target":34962},{"buffer":0,"byteLength":4248,"byteOffset":100192,"target":34962},{"buffer":0,"byteLength":5664,"byteOffset":104440,"target":34962},{"buffer":0,"byteLength":2832,"byteOffset":110104,"target":34962},{"buffer":0,"byteLength":2832,"byteOffset":112936,"target":34962},{"buffer":0,"byteLength":162,"byteOffset":115768,"target":34963},{"buffer":0,"byteLength":972,"byteOffset":115932,"target":34962},{"buffer":0,"byteLength":972,"byteOffset":116904,"target":34962},{"buffer":0,"byteLength":1296,"byteOffset":117876,"target":34962},{"buffer":0,"byteLength":648,"byteOffset":119172,"target":34962},{"buffer":0,"byteLength":648,"byteOffset":119820,"target":34962},{"buffer":0,"byteLength":492,"byteOffset":120468,"target":34963},{"buffer":0,"byteLength":588,"byteOffset":120960,"target":34962},{"buffer":0,"byteLength":588,"byteOffset":121548,"target":34962},{"buffer":0,"byteLength":392,"byteOffset":122136,"target":34962},{"buffer":0,"byteLength":392,"byteOffset":122528,"target":34962}],"buffers":[{"byteLength":122920,"uri":"SM_Window_Wall_4.bin"}],"images":[{"name":"T_Bricks_N","uri":"T_Bricks_N.png"},{"name":"T_Bricks_B","uri":"T_Bricks_B.png"},{"name":"T_Bricks_N 1","uri":"T_Bricks_N.png"},{"name":"T_Bricks_B 1","uri":"T_Bricks_B.png"}],"materials":[{"alphaMode":"OPAQUE","doubleSided":false,"extras":{"fromFBX":{"isTruePBR":false,"shadingModel":"Phong"}},"name":"MI_Brick_01","normalTexture":{"index":0,"texCoord":0},"pbrMetallicRoughness":{"baseColorFactor":[1,1,1,1],"baseColorTexture":{"index":1,"texCoord":0},"metallicFactor":0.400000005960464,"roughnessFactor":0.301511347293854}},{"alphaMode":"OPAQUE","doubleSided":false,"extras":{"fromFBX":{"isTruePBR":false,"shadingModel":"Phong"}},"name":"MI_Brick_02","normalTexture":{"index":2,"texCoord":0},"pbrMetallicRoughness":{"baseColorFactor":[1,1,1,1],"baseColorTexture":{"index":3,"texCoord":0},"metallicFactor":0.400000005960464,"roughnessFactor":0.301511347293854}},{"alphaMode":"OPAQUE","doubleSided":false,"extras":{"fromFBX":{"isTruePBR":false,"shadingModel":"Lambert"}},"name":"DefaultMaterial","pbrMetallicRoughness":{"baseColorFactor":[0.5,0.5,0.5,1],"metallicFactor":0.200000002980232,"roughnessFactor":0.800000011920929}}],"meshes":[{"name":"SM_Window_Wall_4_LOD0","primitives":[{"attributes":{"NORMAL":3,"POSITION":2,"TANGENT":4,"TEXCOORD_0":5,"TEXCOORD_1":6},"indices":1,"material":0,"mode":4},{"attributes":{"NORMAL":27,"POSITION":26,"TANGENT":28,"TEXCOORD_0":29,"TEXCOORD_1":30},"indices":25,"material":1,"mode":4}]},{"name":"SM_Window_Wall_4_LOD1","primitives":[{"attributes":{"NORMAL":9,"POSITION":8,"TANGENT":10,"TEXCOORD_0":11,"TEXCOORD_1":12},"indices":7,"material":0,"mode":4},{"attributes":{"NORMAL":33,"POSITION":32,"TANGENT":34,"TEXCOORD_0":35,"TEXCOORD_1":36},"indices":31,"material":1,"mode":4}]},{"name":"SM_Window_Wall_4_LOD2","primitives":[{"attributes":{"NORMAL":15,"POSITION":14,"TANGENT":16,"TEXCOORD_0":17,"TEXCOORD_1":18},"indices":13,"material":0,"mode":4},{"attributes":{"NORMAL":39,"POSITION":38,"TANGENT":40,"TEXCOORD_0":41,"TEXCOORD_1":42},"indices":37,"material":1,"mode":4}]},{"name":"SM_Window_Wall_4_LOD3","primitives":[{"attributes":{"NORMAL":21,"POSITION":20,"TANGENT":22,"TEXCOORD_0":23,"TEXCOORD_1":24},"indices":19,"material":0,"mode":4},{"attributes":{"NORMAL":45,"POSITION":44,"TANGENT":46,"TEXCOORD_0":47,"TEXCOORD_1":48},"indices":43,"material":1,"mode":4}]},{"name":"SM_Window_Wall_4_ConvexHulls","primitives":[{"attributes":{"NORMAL":51,"POSITION":50,"TEXCOORD_0":52,"TEXCOORD_1":53},"indices":49,"material":2,"mode":4}]}],"nodes":[{"children":[1,2,3,4,5],"name":"Window_Wall4","originalUnits":0.00999999977648258,"pivot":[0,0,0],"rotation":[0,0,0,1],"scale":[1,1,1],"translation":[0,0,0]},{"mesh":0,"name":"SM_Window_Wall_4_LOD0","originalUnits":0.00999999977648258,"pivot":[0,0,0],"rotation":[0,0,0,1],"scale":[1,1,1],"translation":[0,0,0]},{"mesh":4,"name":"SM_Window_Wall_4_ConvexHulls","originalUnits":0.00999999977648258,"pivot":[0,0,0],"rotation":[0,0,0,1],"scale":[1,1,1],"translation":[0,0,0]},{"mesh":1,"name":"SM_Window_Wall_4_LOD1","originalUnits":0.00999999977648258,"pivot":[0,0,0],"rotation":[0,0,0,1],"scale":[1,1,1],"translation":[0,0,0]},{"mesh":2,"name":"SM_Window_Wall_4_LOD2","originalUnits":0.00999999977648258,"pivot":[0,0,0],"rotation":[0,0,0,1],"scale":[1,1,1],"translation":[0,0,0]},{"mesh":3,"name":"SM_Window_Wall_4_LOD3","originalUnits":0.00999999977648258,"pivot":[0,0,0],"rotation":[0,0,0,1],"scale":[1,1,1],"translation":[0,0,0]}],"samplers":[{}],"scene":0,"scenes":[{"name":"Root Scene","nodes":[0]}],"textures":[{"name":"MI_Brick_01","sampler":0,"source":0},{"name":"MI_Brick_01","sampler":0,"source":1},{"name":"MI_Brick_02","sampler":0,"source":2},{"name":"MI_Brick_02","sampler":0,"source":3}]}