{"accessors":[{"bufferView":0,"byteOffset":0,"componentType":5126,"count":1,"max":[0],"min":[0],"type":"SCALAR"},{"bufferView":1,"byteOffset":0,"componentType":5123,"count":35085,"type":"SCALAR"},{"bufferView":2,"byteOffset":0,"componentType":5126,"count":8731,"max":[0.923075556755066,1.00683379173279,1.23927140235901],"min":[-0.47520247101784,-0.00146551395301,-1.37419009208679],"type":"VEC3"},{"bufferView":3,"byteOffset":0,"componentType":5126,"count":8731,"type":"VEC3"},{"bufferView":4,"byteOffset":0,"componentType":5126,"count":8731,"type":"VEC4"},{"bufferView":5,"byteOffset":0,"componentType":5126,"count":8731,"type":"VEC2"},{"bufferView":6,"byteOffset":0,"componentType":5126,"count":8731,"type":"VEC2"},{"bufferView":7,"byteOffset":0,"componentType":5123,"count":26316,"type":"SCALAR"},{"bufferView":8,"byteOffset":0,"componentType":5126,"count":6995,"max":[0.92315274477005,1.00683379173279,1.23927140235901],"min":[-0.47520247101784,-0.00146551395301,-1.37430310249329],"type":"VEC3"},{"bufferView":9,"byteOffset":0,"componentType":5126,"count":6995,"type":"VEC3"},{"bufferView":10,"byteOffset":0,"componentType":5126,"count":6995,"type":"VEC4"},{"bufferView":11,"byteOffset":0,"componentType":5126,"count":6995,"type":"VEC2"},{"bufferView":12,"byteOffset":0,"componentType":5126,"count":6995,"type":"VEC2"},{"bufferView":13,"byteOffset":0,"componentType":5123,"count":17541,"type":"SCALAR"},{"bufferView":14,"byteOffset":0,"componentType":5126,"count":5084,"max":[0.923255145549774,1.00683379173279,1.23985457420349],"min":[-0.47497346997261,-0.00147362903226,-1.37470459938049],"type":"VEC3"},{"bufferView":15,"byteOffset":0,"componentType":5126,"count":5084,"type":"VEC3"},{"bufferView":16,"byteOffset":0,"componentType":5126,"count":5084,"type":"VEC4"},{"bufferView":17,"byteOffset":0,"componentType":5126,"count":5084,"type":"VEC2"},{"bufferView":18,"byteOffset":0,"componentType":5126,"count":5084,"type":"VEC2"},{"bufferView":19,"byteOffset":0,"componentType":5123,"count":4386,"type":"SCALAR"},{"bufferView":20,"byteOffset":0,"componentType":5126,"count":1822,"max":[0.924502372741699,1.00602853298187,1.23944926261902],"min":[-0.47275468707085,-0.00261960690841,-1.37350618839264],"type":"VEC3"},{"bufferView":21,"byteOffset":0,"componentType":5126,"count":1822,"type":"VEC3"},{"bufferView":22,"byteOffset":0,"componentType":5126,"count":1822,"type":"VEC4"},{"bufferView":23,"byteOffset":0,"componentType":5126,"count":1822,"type":"VEC2"},{"bufferView":24,"byteOffset":0,"componentType":5126,"count":1822,"type":"VEC2"},{"bufferView":25,"byteOffset":0,"componentType":5123,"count":762,"type":"SCALAR"},{"bufferView":26,"byteOffset":0,"componentType":5126,"count":155,"max":[0.940501928329468,1.02012920379639,1.24695551395416],"min":[-0.48247581720352,-0.01853922195733,-1.35567653179169],"type":"VEC3"},{"bufferView":27,"byteOffset":0,"componentType":5126,"count":155,"type":"VEC3"},{"bufferView":28,"byteOffset":0,"componentType":5126,"count":155,"type":"VEC2"},{"bufferView":29,"byteOffset":0,"componentType":5126,"count":155,"type":"VEC2"}],"animations":[{"channels":[],"name":"Unreal Take","samplers":[]}],"asset":{"generator":"FBX2glTF v0.13.0","version":"2.0"},"bufferViews":[{"buffer":0,"byteLength":4,"byteOffset":0},{"buffer":0,"byteLength":70170,"byteOffset":4,"target":34963},{"buffer":0,"byteLength":104772,"byteOffset":70176,"target":34962},{"buffer":0,"byteLength":104772,"byteOffset":174948,"target":34962},{"buffer":0,"byteLength":139696,"byteOffset":279720,"target":34962},{"buffer":0,"byteLength":69848,"byteOffset":419416,"target":34962},{"buffer":0,"byteLength":69848,"byteOffset":489264,"target":34962},{"buffer":0,"byteLength":52632,"byteOffset":559112,"target":34963},{"buffer":0,"byteLength":83940,"byteOffset":611744,"target":34962},{"buffer":0,"byteLength":83940,"byteOffset":695684,"target":34962},{"buffer":0,"byteLength":111920,"byteOffset":779624,"target":34962},{"buffer":0,"byteLength":55960,"byteOffset":891544,"target":34962},{"buffer":0,"byteLength":55960,"byteOffset":947504,"target":34962},{"buffer":0,"byteLength":35082,"byteOffset":1003464,"target":34963},{"buffer":0,"byteLength":61008,"byteOffset":1038548,"target":34962},{"buffer":0,"byteLength":61008,"byteOffset":1099556,"target":34962},{"buffer":0,"byteLength":81344,"byteOffset":1160564,"target":34962},{"buffer":0,"byteLength":40672,"byteOffset":1241908,"target":34962},{"buffer":0,"byteLength":40672,"byteOffset":1282580,"target":34962},{"buffer":0,"byteLength":8772,"byteOffset":1323252,"target":34963},{"buffer":0,"byteLength":21864,"byteOffset":1332024,"target":34962},{"buffer":0,"byteLength":21864,"byteOffset":1353888,"target":34962},{"buffer":0,"byteLength":29152,"byteOffset":1375752,"target":34962},{"buffer":0,"byteLength":14576,"byteOffset":1404904,"target":34962},{"buffer":0,"byteLength":14576,"byteOffset":1419480,"target":34962},{"buffer":0,"byteLength":1524,"byteOffset":1434056,"target":34963},{"buffer":0,"byteLength":1860,"byteOffset":1435580,"target":34962},{"buffer":0,"byteLength":1860,"byteOffset":1437440,"target":34962},{"buffer":0,"byteLength":1240,"byteOffset":1439300,"target":34962},{"buffer":0,"byteLength":1240,"byteOffset":1440540,"target":34962}],"buffers":[{"byteLength":1441780,"uri":"SM_Workbench_02.bin"}],"images":[{"name":"T_WorkBench_02_N","uri":"T_WorkBench_02_N.png"},{"name":"T_WorkBench_02_B","uri":"T_WorkBench_02_B.png"}],"materials":[{"alphaMode":"OPAQUE","doubleSided":false,"extras":{"fromFBX":{"isTruePBR":false,"shadingModel":"Phong"}},"name":"MI_WorkBench_03","normalTexture":{"index":0,"texCoord":0},"pbrMetallicRoughness":{"baseColorFactor":[1,1,1,1],"baseColorTexture":{"index":1,"texCoord":0},"metallicFactor":0.400000005960464,"roughnessFactor":0.301511347293854}},{"alphaMode":"OPAQUE","doubleSided":false,"extras":{"fromFBX":{"isTruePBR":false,"shadingModel":"Lambert"}},"name":"DefaultMaterial","pbrMetallicRoughness":{"baseColorFactor":[0.5,0.5,0.5,1],"metallicFactor":0.200000002980232,"roughnessFactor":0.800000011920929}}],"meshes":[{"name":"SM_Workbench_02_LOD0","primitives":[{"attributes":{"NORMAL":3,"POSITION":2,"TANGENT":4,"TEXCOORD_0":5,"TEXCOORD_1":6},"indices":1,"material":0,"mode":4}]},{"name":"SM_Workbench_02_LOD1","primitives":[{"attributes":{"NORMAL":9,"POSITION":8,"TANGENT":10,"TEXCOORD_0":11,"TEXCOORD_1":12},"indices":7,"material":0,"mode":4}]},{"name":"SM_Workbench_02_LOD2","primitives":[{"attributes":{"NORMAL":15,"POSITION":14,"TANGENT":16,"TEXCOORD_0":17,"TEXCOORD_1":18},"indices":13,"material":0,"mode":4}]},{"name":"SM_Workbench_02_LOD3","primitives":[{"attributes":{"NORMAL":21,"POSITION":20,"TANGENT":22,"TEXCOORD_0":23,"TEXCOORD_1":24},"indices":19,"material":0,"mode":4}]},{"name":"SM_Workbench_02_ConvexHulls","primitives":[{"attributes":{"NORMAL":27,"POSITION":26,"TEXCOORD_0":28,"TEXCOORD_1":29},"indices":25,"material":1,"mode":4}]}],"nodes":[{"children":[1,2,3,4,5],"name":"SM_Workbench_150","originalUnits":0.00999999977648258,"pivot":[0,0,0],"rotation":[0,0,0,1],"scale":[1,1,1],"translation":[0,0,0]},{"mesh":0,"name":"SM_Workbench_02_LOD0","originalUnits":0.00999999977648258,"pivot":[0,0,0],"rotation":[0,0,0,1],"scale":[1,1,1],"translation":[0,0,0]},{"mesh":4,"name":"SM_Workbench_02_ConvexHulls","originalUnits":0.00999999977648258,"pivot":[0,0,0],"rotation":[0,0,0,1],"scale":[1,1,1],"translation":[0,0,0]},{"mesh":1,"name":"SM_Workbench_02_LOD1","originalUnits":0.00999999977648258,"pivot":[0,0,0],"rotation":[0,0,0,1],"scale":[1,1,1],"translation":[0,0,0]},{"mesh":2,"name":"SM_Workbench_02_LOD2","originalUnits":0.00999999977648258,"pivot":[0,0,0],"rotation":[0,0,0,1],"scale":[1,1,1],"translation":[0,0,0]},{"mesh":3,"name":"SM_Workbench_02_LOD3","originalUnits":0.00999999977648258,"pivot":[0,0,0],"rotation":[0,0,0,1],"scale":[1,1,1],"translation":[0,0,0]}],"samplers":[{}],"scene":0,"scenes":[{"name":"Root Scene","nodes":[0]}],"textures":[{"name":"MI_WorkBench_03","sampler":0,"source":0},{"name":"MI_WorkBench_03","sampler":0,"source":1}]}