{"accessors":[{"bufferView":0,"byteOffset":0,"componentType":5126,"count":1,"max":[0],"min":[0],"type":"SCALAR"},{"bufferView":1,"byteOffset":0,"componentType":5123,"count":17088,"type":"SCALAR"},{"bufferView":2,"byteOffset":0,"componentType":5126,"count":3594,"max":[0.107133150100708,0.738647878170013,0.738648355007172],"min":[-0.14404726028442,-0.73864841461182,-0.73864853382111],"type":"VEC3"},{"bufferView":3,"byteOffset":0,"componentType":5126,"count":3594,"type":"VEC3"},{"bufferView":4,"byteOffset":0,"componentType":5126,"count":3594,"type":"VEC4"},{"bufferView":5,"byteOffset":0,"componentType":5126,"count":3594,"type":"VEC2"},{"bufferView":6,"byteOffset":0,"componentType":5126,"count":3594,"type":"VEC2"},{"bufferView":7,"byteOffset":0,"componentType":5123,"count":12816,"type":"SCALAR"},{"bufferView":8,"byteOffset":0,"componentType":5126,"count":2767,"max":[0.107185512781143,0.738647878170013,0.738648355007172],"min":[-0.14404726028442,-0.73864841461182,-0.73864853382111],"type":"VEC3"},{"bufferView":9,"byteOffset":0,"componentType":5126,"count":2767,"type":"VEC3"},{"bufferView":10,"byteOffset":0,"componentType":5126,"count":2767,"type":"VEC4"},{"bufferView":11,"byteOffset":0,"componentType":5126,"count":2767,"type":"VEC2"},{"bufferView":12,"byteOffset":0,"componentType":5126,"count":2767,"type":"VEC2"},{"bufferView":13,"byteOffset":0,"componentType":5123,"count":8544,"type":"SCALAR"},{"bufferView":14,"byteOffset":0,"componentType":5126,"count":1936,"max":[0.107325010001659,0.738647878170013,0.738648355007172],"min":[-0.14442077279091,-0.73864841461182,-0.73864853382111],"type":"VEC3"},{"bufferView":15,"byteOffset":0,"componentType":5126,"count":1936,"type":"VEC3"},{"bufferView":16,"byteOffset":0,"componentType":5126,"count":1936,"type":"VEC4"},{"bufferView":17,"byteOffset":0,"componentType":5126,"count":1936,"type":"VEC2"},{"bufferView":18,"byteOffset":0,"componentType":5126,"count":1936,"type":"VEC2"},{"bufferView":19,"byteOffset":0,"componentType":5123,"count":2136,"type":"SCALAR"},{"bufferView":20,"byteOffset":0,"componentType":5126,"count":637,"max":[0.10680989921093,0.738647878170013,0.738648355007172],"min":[-0.14821098744869,-0.73864841461182,-0.73864853382111],"type":"VEC3"},{"bufferView":21,"byteOffset":0,"componentType":5126,"count":637,"type":"VEC3"},{"bufferView":22,"byteOffset":0,"componentType":5126,"count":637,"type":"VEC4"},{"bufferView":23,"byteOffset":0,"componentType":5126,"count":637,"type":"VEC2"},{"bufferView":24,"byteOffset":0,"componentType":5126,"count":637,"type":"VEC2"},{"bufferView":25,"byteOffset":0,"componentType":5123,"count":336,"type":"SCALAR"},{"bufferView":26,"byteOffset":0,"componentType":5126,"count":64,"max":[0.112524747848511,0.729394435882568,0.729695320129395],"min":[-0.14627179503441,-0.70083343982697,-0.71515280008316],"type":"VEC3"},{"bufferView":27,"byteOffset":0,"componentType":5126,"count":64,"type":"VEC3"},{"bufferView":28,"byteOffset":0,"componentType":5126,"count":64,"type":"VEC2"},{"bufferView":29,"byteOffset":0,"componentType":5126,"count":64,"type":"VEC2"}],"animations":[{"channels":[],"name":"Unreal Take","samplers":[]}],"asset":{"generator":"FBX2glTF v0.13.0","version":"2.0"},"bufferViews":[{"buffer":0,"byteLength":4,"byteOffset":0},{"buffer":0,"byteLength":34176,"byteOffset":4,"target":34963},{"buffer":0,"byteLength":43128,"byteOffset":34180,"target":34962},{"buffer":0,"byteLength":43128,"byteOffset":77308,"target":34962},{"buffer":0,"byteLength":57504,"byteOffset":120436,"target":34962},{"buffer":0,"byteLength":28752,"byteOffset":177940,"target":34962},{"buffer":0,"byteLength":28752,"byteOffset":206692,"target":34962},{"buffer":0,"byteLength":25632,"byteOffset":235444,"target":34963},{"buffer":0,"byteLength":33204,"byteOffset":261076,"target":34962},{"buffer":0,"byteLength":33204,"byteOffset":294280,"target":34962},{"buffer":0,"byteLength":44272,"byteOffset":327484,"target":34962},{"buffer":0,"byteLength":22136,"byteOffset":371756,"target":34962},{"buffer":0,"byteLength":22136,"byteOffset":393892,"target":34962},{"buffer":0,"byteLength":17088,"byteOffset":416028,"target":34963},{"buffer":0,"byteLength":23232,"byteOffset":433116,"target":34962},{"buffer":0,"byteLength":23232,"byteOffset":456348,"target":34962},{"buffer":0,"byteLength":30976,"byteOffset":479580,"target":34962},{"buffer":0,"byteLength":15488,"byteOffset":510556,"target":34962},{"buffer":0,"byteLength":15488,"byteOffset":526044,"target":34962},{"buffer":0,"byteLength":4272,"byteOffset":541532,"target":34963},{"buffer":0,"byteLength":7644,"byteOffset":545804,"target":34962},{"buffer":0,"byteLength":7644,"byteOffset":553448,"target":34962},{"buffer":0,"byteLength":10192,"byteOffset":561092,"target":34962},{"buffer":0,"byteLength":5096,"byteOffset":571284,"target":34962},{"buffer":0,"byteLength":5096,"byteOffset":576380,"target":34962},{"buffer":0,"byteLength":672,"byteOffset":581476,"target":34963},{"buffer":0,"byteLength":768,"byteOffset":582148,"target":34962},{"buffer":0,"byteLength":768,"byteOffset":582916,"target":34962},{"buffer":0,"byteLength":512,"byteOffset":583684,"target":34962},{"buffer":0,"byteLength":512,"byteOffset":584196,"target":34962}],"buffers":[{"byteLength":584708,"uri":"SM_Wooden_Wheel.bin"}],"images":[{"name":"T_Woodprops_01_N","uri":"T_Woodprops_01_N.png"},{"name":"T_Woodprops_01_B","uri":"T_Woodprops_01_B.png"}],"materials":[{"alphaMode":"OPAQUE","doubleSided":false,"extras":{"fromFBX":{"isTruePBR":false,"shadingModel":"Phong"}},"name":"MI_Wheel","normalTexture":{"index":0,"texCoord":0},"pbrMetallicRoughness":{"baseColorFactor":[1,1,1,1],"baseColorTexture":{"index":1,"texCoord":0},"metallicFactor":0.400000005960464,"roughnessFactor":0.301511347293854}},{"alphaMode":"OPAQUE","doubleSided":false,"extras":{"fromFBX":{"isTruePBR":false,"shadingModel":"Lambert"}},"name":"DefaultMaterial","pbrMetallicRoughness":{"baseColorFactor":[0.5,0.5,0.5,1],"metallicFactor":0.200000002980232,"roughnessFactor":0.800000011920929}}],"meshes":[{"name":"SM_Wooden_Wheel_LOD0","primitives":[{"attributes":{"NORMAL":3,"POSITION":2,"TANGENT":4,"TEXCOORD_0":5,"TEXCOORD_1":6},"indices":1,"material":0,"mode":4}]},{"name":"SM_Wooden_Wheel_LOD1","primitives":[{"attributes":{"NORMAL":9,"POSITION":8,"TANGENT":10,"TEXCOORD_0":11,"TEXCOORD_1":12},"indices":7,"material":0,"mode":4}]},{"name":"SM_Wooden_Wheel_LOD2","primitives":[{"attributes":{"NORMAL":15,"POSITION":14,"TANGENT":16,"TEXCOORD_0":17,"TEXCOORD_1":18},"indices":13,"material":0,"mode":4}]},{"name":"SM_Wooden_Wheel_LOD3","primitives":[{"attributes":{"NORMAL":21,"POSITION":20,"TANGENT":22,"TEXCOORD_0":23,"TEXCOORD_1":24},"indices":19,"material":0,"mode":4}]},{"name":"SM_Wooden_Wheel_ConvexHulls","primitives":[{"attributes":{"NORMAL":27,"POSITION":26,"TEXCOORD_0":28,"TEXCOORD_1":29},"indices":25,"material":1,"mode":4}]}],"nodes":[{"children":[1,2,3,4,5],"name":"SM_Wooden_Wheel_148","originalUnits":0.00999999977648258,"pivot":[0,0,0],"rotation":[0,0,0,1],"scale":[1,1,1],"translation":[0,0,0]},{"mesh":0,"name":"SM_Wooden_Wheel_LOD0","originalUnits":0.00999999977648258,"pivot":[0,0,0],"rotation":[0,0,0,1],"scale":[1,1,1],"translation":[0,0,0]},{"mesh":4,"name":"SM_Wooden_Wheel_ConvexHulls","originalUnits":0.00999999977648258,"pivot":[0,0,0],"rotation":[0,0,0,1],"scale":[1,1,1],"translation":[0,0,0]},{"mesh":1,"name":"SM_Wooden_Wheel_LOD1","originalUnits":0.00999999977648258,"pivot":[0,0,0],"rotation":[0,0,0,1],"scale":[1,1,1],"translation":[0,0,0]},{"mesh":2,"name":"SM_Wooden_Wheel_LOD2","originalUnits":0.00999999977648258,"pivot":[0,0,0],"rotation":[0,0,0,1],"scale":[1,1,1],"translation":[0,0,0]},{"mesh":3,"name":"SM_Wooden_Wheel_LOD3","originalUnits":0.00999999977648258,"pivot":[0,0,0],"rotation":[0,0,0,1],"scale":[1,1,1],"translation":[0,0,0]}],"samplers":[{}],"scene":0,"scenes":[{"name":"Root Scene","nodes":[0]}],"textures":[{"name":"MI_Wheel","sampler":0,"source":0},{"name":"MI_Wheel","sampler":0,"source":1}]}