{"accessors":[{"bufferView":0,"byteOffset":0,"componentType":5126,"count":1,"max":[0],"min":[0],"type":"SCALAR"},{"bufferView":1,"byteOffset":0,"componentType":5123,"count":8823,"type":"SCALAR"},{"bufferView":2,"byteOffset":0,"componentType":5126,"count":4921,"max":[0.583914339542389,1.11256682872772,1.15903830528259],"min":[-0.6303608417511,0.0593875721096992,-1.59597754478455],"type":"VEC3"},{"bufferView":3,"byteOffset":0,"componentType":5126,"count":4921,"type":"VEC3"},{"bufferView":4,"byteOffset":0,"componentType":5126,"count":4921,"type":"VEC4"},{"bufferView":5,"byteOffset":0,"componentType":5126,"count":4921,"type":"VEC2"},{"bufferView":6,"byteOffset":0,"componentType":5126,"count":4921,"type":"VEC2"},{"bufferView":7,"byteOffset":0,"componentType":5123,"count":8487,"type":"SCALAR"},{"bufferView":8,"byteOffset":0,"componentType":5126,"count":4766,"max":[0.583914339542389,1.11256682872772,1.15903830528259],"min":[-0.6303608417511,0.0593875721096992,-1.59597754478455],"type":"VEC3"},{"bufferView":9,"byteOffset":0,"componentType":5126,"count":4766,"type":"VEC3"},{"bufferView":10,"byteOffset":0,"componentType":5126,"count":4766,"type":"VEC4"},{"bufferView":11,"byteOffset":0,"componentType":5126,"count":4766,"type":"VEC2"},{"bufferView":12,"byteOffset":0,"componentType":5126,"count":4766,"type":"VEC2"},{"bufferView":13,"byteOffset":0,"componentType":5123,"count":7428,"type":"SCALAR"},{"bufferView":14,"byteOffset":0,"componentType":5126,"count":4293,"max":[0.583914339542389,1.11256682872772,1.15903830528259],"min":[-0.6303608417511,0.0595442242920399,-1.59559154510498],"type":"VEC3"},{"bufferView":15,"byteOffset":0,"componentType":5126,"count":4293,"type":"VEC3"},{"bufferView":16,"byteOffset":0,"componentType":5126,"count":4293,"type":"VEC4"},{"bufferView":17,"byteOffset":0,"componentType":5126,"count":4293,"type":"VEC2"},{"bufferView":18,"byteOffset":0,"componentType":5126,"count":4293,"type":"VEC2"},{"bufferView":19,"byteOffset":0,"componentType":5123,"count":2232,"type":"SCALAR"},{"bufferView":20,"byteOffset":0,"componentType":5126,"count":1573,"max":[0.583885848522186,1.11635804176331,1.16006445884705],"min":[-0.63341623544693,0.0597938820719719,-1.58398306369781],"type":"VEC3"},{"bufferView":21,"byteOffset":0,"componentType":5126,"count":1573,"type":"VEC3"},{"bufferView":22,"byteOffset":0,"componentType":5126,"count":1573,"type":"VEC4"},{"bufferView":23,"byteOffset":0,"componentType":5126,"count":1573,"type":"VEC2"},{"bufferView":24,"byteOffset":0,"componentType":5126,"count":1573,"type":"VEC2"},{"bufferView":25,"byteOffset":0,"componentType":5123,"count":16146,"type":"SCALAR"},{"bufferView":26,"byteOffset":0,"componentType":5126,"count":8056,"max":[-0.18004748225212,1.12836122512817,-0.84347182512283],"min":[-0.95189028978348,0.69463849067688,-1.30705320835114],"type":"VEC3"},{"bufferView":27,"byteOffset":0,"componentType":5126,"count":8056,"type":"VEC3"},{"bufferView":28,"byteOffset":0,"componentType":5126,"count":8056,"type":"VEC4"},{"bufferView":29,"byteOffset":0,"componentType":5126,"count":8056,"type":"VEC2"},{"bufferView":30,"byteOffset":0,"componentType":5126,"count":8056,"type":"VEC2"},{"bufferView":31,"byteOffset":0,"componentType":5123,"count":10242,"type":"SCALAR"},{"bufferView":32,"byteOffset":0,"componentType":5126,"count":5571,"max":[-0.18001501262188,1.12836122512817,-0.84347182512283],"min":[-0.95189028978348,0.69463849067688,-1.30705320835114],"type":"VEC3"},{"bufferView":33,"byteOffset":0,"componentType":5126,"count":5571,"type":"VEC3"},{"bufferView":34,"byteOffset":0,"componentType":5126,"count":5571,"type":"VEC4"},{"bufferView":35,"byteOffset":0,"componentType":5126,"count":5571,"type":"VEC2"},{"bufferView":36,"byteOffset":0,"componentType":5126,"count":5571,"type":"VEC2"},{"bufferView":37,"byteOffset":0,"componentType":5123,"count":5055,"type":"SCALAR"},{"bufferView":38,"byteOffset":0,"componentType":5126,"count":3097,"max":[-0.18001501262188,1.12844967842102,-0.84327268600464],"min":[-0.95335453748703,0.694230794906616,-1.30787980556488],"type":"VEC3"},{"bufferView":39,"byteOffset":0,"componentType":5126,"count":3097,"type":"VEC3"},{"bufferView":40,"byteOffset":0,"componentType":5126,"count":3097,"type":"VEC4"},{"bufferView":41,"byteOffset":0,"componentType":5126,"count":3097,"type":"VEC2"},{"bufferView":42,"byteOffset":0,"componentType":5126,"count":3097,"type":"VEC2"},{"bufferView":43,"byteOffset":0,"componentType":5123,"count":888,"type":"SCALAR"},{"bufferView":44,"byteOffset":0,"componentType":5126,"count":648,"max":[-0.17738720774651,1.12814605236053,-0.83869755268097],"min":[-0.96245056390762,0.698755860328674,-1.31160569190979],"type":"VEC3"},{"bufferView":45,"byteOffset":0,"componentType":5126,"count":648,"type":"VEC3"},{"bufferView":46,"byteOffset":0,"componentType":5126,"count":648,"type":"VEC4"},{"bufferView":47,"byteOffset":0,"componentType":5126,"count":648,"type":"VEC2"},{"bufferView":48,"byteOffset":0,"componentType":5126,"count":648,"type":"VEC2"},{"bufferView":49,"byteOffset":0,"componentType":5123,"count":684,"type":"SCALAR"},{"bufferView":50,"byteOffset":0,"componentType":5126,"count":134,"max":[0.60431957244873,1.14872968196869,1.16804563999176],"min":[-0.92697554826736,0.0393220447003841,-1.60402595996857],"type":"VEC3"},{"bufferView":51,"byteOffset":0,"componentType":5126,"count":134,"type":"VEC3"},{"bufferView":52,"byteOffset":0,"componentType":5126,"count":134,"type":"VEC2"},{"bufferView":53,"byteOffset":0,"componentType":5126,"count":134,"type":"VEC2"}],"animations":[{"channels":[],"name":"Unreal Take","samplers":[]}],"asset":{"generator":"FBX2glTF v0.13.0","version":"2.0"},"bufferViews":[{"buffer":0,"byteLength":4,"byteOffset":0},{"buffer":0,"byteLength":17646,"byteOffset":4,"target":34963},{"buffer":0,"byteLength":59052,"byteOffset":17652,"target":34962},{"buffer":0,"byteLength":59052,"byteOffset":76704,"target":34962},{"buffer":0,"byteLength":78736,"byteOffset":135756,"target":34962},{"buffer":0,"byteLength":39368,"byteOffset":214492,"target":34962},{"buffer":0,"byteLength":39368,"byteOffset":253860,"target":34962},{"buffer":0,"byteLength":16974,"byteOffset":293228,"target":34963},{"buffer":0,"byteLength":57192,"byteOffset":310204,"target":34962},{"buffer":0,"byteLength":57192,"byteOffset":367396,"target":34962},{"buffer":0,"byteLength":76256,"byteOffset":424588,"target":34962},{"buffer":0,"byteLength":38128,"byteOffset":500844,"target":34962},{"buffer":0,"byteLength":38128,"byteOffset":538972,"target":34962},{"buffer":0,"byteLength":14856,"byteOffset":577100,"target":34963},{"buffer":0,"byteLength":51516,"byteOffset":591956,"target":34962},{"buffer":0,"byteLength":51516,"byteOffset":643472,"target":34962},{"buffer":0,"byteLength":68688,"byteOffset":694988,"target":34962},{"buffer":0,"byteLength":34344,"byteOffset":763676,"target":34962},{"buffer":0,"byteLength":34344,"byteOffset":798020,"target":34962},{"buffer":0,"byteLength":4464,"byteOffset":832364,"target":34963},{"buffer":0,"byteLength":18876,"byteOffset":836828,"target":34962},{"buffer":0,"byteLength":18876,"byteOffset":855704,"target":34962},{"buffer":0,"byteLength":25168,"byteOffset":874580,"target":34962},{"buffer":0,"byteLength":12584,"byteOffset":899748,"target":34962},{"buffer":0,"byteLength":12584,"byteOffset":912332,"target":34962},{"buffer":0,"byteLength":32292,"byteOffset":924916,"target":34963},{"buffer":0,"byteLength":96672,"byteOffset":957208,"target":34962},{"buffer":0,"byteLength":96672,"byteOffset":1053880,"target":34962},{"buffer":0,"byteLength":128896,"byteOffset":1150552,"target":34962},{"buffer":0,"byteLength":64448,"byteOffset":1279448,"target":34962},{"buffer":0,"byteLength":64448,"byteOffset":1343896,"target":34962},{"buffer":0,"byteLength":20484,"byteOffset":1408344,"target":34963},{"buffer":0,"byteLength":66852,"byteOffset":1428828,"target":34962},{"buffer":0,"byteLength":66852,"byteOffset":1495680,"target":34962},{"buffer":0,"byteLength":89136,"byteOffset":1562532,"target":34962},{"buffer":0,"byteLength":44568,"byteOffset":1651668,"target":34962},{"buffer":0,"byteLength":44568,"byteOffset":1696236,"target":34962},{"buffer":0,"byteLength":10110,"byteOffset":1740804,"target":34963},{"buffer":0,"byteLength":37164,"byteOffset":1750916,"target":34962},{"buffer":0,"byteLength":37164,"byteOffset":1788080,"target":34962},{"buffer":0,"byteLength":49552,"byteOffset":1825244,"target":34962},{"buffer":0,"byteLength":24776,"byteOffset":1874796,"target":34962},{"buffer":0,"byteLength":24776,"byteOffset":1899572,"target":34962},{"buffer":0,"byteLength":1776,"byteOffset":1924348,"target":34963},{"buffer":0,"byteLength":7776,"byteOffset":1926124,"target":34962},{"buffer":0,"byteLength":7776,"byteOffset":1933900,"target":34962},{"buffer":0,"byteLength":10368,"byteOffset":1941676,"target":34962},{"buffer":0,"byteLength":5184,"byteOffset":1952044,"target":34962},{"buffer":0,"byteLength":5184,"byteOffset":1957228,"target":34962},{"buffer":0,"byteLength":1368,"byteOffset":1962412,"target":34963},{"buffer":0,"byteLength":1608,"byteOffset":1963780,"target":34962},{"buffer":0,"byteLength":1608,"byteOffset":1965388,"target":34962},{"buffer":0,"byteLength":1072,"byteOffset":1966996,"target":34962},{"buffer":0,"byteLength":1072,"byteOffset":1968068,"target":34962}],"buffers":[{"byteLength":1969140,"uri":"SM_Workbench_03.bin"}],"images":[{"name":"T_WorkBench_N","uri":"T_WorkBench_N.png"},{"name":"T_WorkBench_B","uri":"T_WorkBench_B.png"},{"name":"T_Clamp_N","uri":"T_Clamp_N.png"},{"name":"T_Clamp_B","uri":"T_Clamp_B.png"}],"materials":[{"alphaMode":"OPAQUE","doubleSided":false,"extras":{"fromFBX":{"isTruePBR":false,"shadingModel":"Phong"}},"name":"MI_WorkBench_01","normalTexture":{"index":0,"texCoord":0},"pbrMetallicRoughness":{"baseColorFactor":[1,1,1,1],"baseColorTexture":{"index":1,"texCoord":0},"metallicFactor":0.400000005960464,"roughnessFactor":0.301511347293854}},{"alphaMode":"OPAQUE","doubleSided":false,"extras":{"fromFBX":{"isTruePBR":false,"shadingModel":"Phong"}},"name":"MI_WorkBenchClamp","normalTexture":{"index":2,"texCoord":0},"pbrMetallicRoughness":{"baseColorFactor":[1,1,1,1],"baseColorTexture":{"index":3,"texCoord":0},"metallicFactor":0.400000005960464,"roughnessFactor":0.301511347293854}},{"alphaMode":"OPAQUE","doubleSided":false,"extras":{"fromFBX":{"isTruePBR":false,"shadingModel":"Lambert"}},"name":"DefaultMaterial","pbrMetallicRoughness":{"baseColorFactor":[0.5,0.5,0.5,1],"metallicFactor":0.200000002980232,"roughnessFactor":0.800000011920929}}],"meshes":[{"name":"SM_Workbench_03_LOD0","primitives":[{"attributes":{"NORMAL":3,"POSITION":2,"TANGENT":4,"TEXCOORD_0":5,"TEXCOORD_1":6},"indices":1,"material":0,"mode":4},{"attributes":{"NORMAL":27,"POSITION":26,"TANGENT":28,"TEXCOORD_0":29,"TEXCOORD_1":30},"indices":25,"material":1,"mode":4}]},{"name":"SM_Workbench_03_LOD1","primitives":[{"attributes":{"NORMAL":9,"POSITION":8,"TANGENT":10,"TEXCOORD_0":11,"TEXCOORD_1":12},"indices":7,"material":0,"mode":4},{"attributes":{"NORMAL":33,"POSITION":32,"TANGENT":34,"TEXCOORD_0":35,"TEXCOORD_1":36},"indices":31,"material":1,"mode":4}]},{"name":"SM_Workbench_03_LOD2","primitives":[{"attributes":{"NORMAL":15,"POSITION":14,"TANGENT":16,"TEXCOORD_0":17,"TEXCOORD_1":18},"indices":13,"material":0,"mode":4},{"attributes":{"NORMAL":39,"POSITION":38,"TANGENT":40,"TEXCOORD_0":41,"TEXCOORD_1":42},"indices":37,"material":1,"mode":4}]},{"name":"SM_Workbench_03_LOD3","primitives":[{"attributes":{"NORMAL":21,"POSITION":20,"TANGENT":22,"TEXCOORD_0":23,"TEXCOORD_1":24},"indices":19,"material":0,"mode":4},{"attributes":{"NORMAL":45,"POSITION":44,"TANGENT":46,"TEXCOORD_0":47,"TEXCOORD_1":48},"indices":43,"material":1,"mode":4}]},{"name":"SM_Workbench_03_ConvexHulls","primitives":[{"attributes":{"NORMAL":51,"POSITION":50,"TEXCOORD_0":52,"TEXCOORD_1":53},"indices":49,"material":2,"mode":4}]}],"nodes":[{"children":[1,2,3,4,5],"name":"SM_Workbench_151","originalUnits":0.00999999977648258,"pivot":[0,0,0],"rotation":[0,0,0,1],"scale":[1,1,1],"translation":[0,0,0]},{"mesh":0,"name":"SM_Workbench_03_LOD0","originalUnits":0.00999999977648258,"pivot":[0,0,0],"rotation":[0,0,0,1],"scale":[1,1,1],"translation":[0,0,0]},{"mesh":4,"name":"SM_Workbench_03_ConvexHulls","originalUnits":0.00999999977648258,"pivot":[0,0,0],"rotation":[0,0,0,1],"scale":[1,1,1],"translation":[0,0,0]},{"mesh":1,"name":"SM_Workbench_03_LOD1","originalUnits":0.00999999977648258,"pivot":[0,0,0],"rotation":[0,0,0,1],"scale":[1,1,1],"translation":[0,0,0]},{"mesh":2,"name":"SM_Workbench_03_LOD2","originalUnits":0.00999999977648258,"pivot":[0,0,0],"rotation":[0,0,0,1],"scale":[1,1,1],"translation":[0,0,0]},{"mesh":3,"name":"SM_Workbench_03_LOD3","originalUnits":0.00999999977648258,"pivot":[0,0,0],"rotation":[0,0,0,1],"scale":[1,1,1],"translation":[0,0,0]}],"samplers":[{}],"scene":0,"scenes":[{"name":"Root Scene","nodes":[0]}],"textures":[{"name":"MI_WorkBench_01","sampler":0,"source":0},{"name":"MI_WorkBench_01","sampler":0,"source":1},{"name":"MI_WorkBenchClamp","sampler":0,"source":2},{"name":"MI_WorkBenchClamp","sampler":0,"source":3}]}