{"accessors":[{"bufferView":0,"byteOffset":0,"componentType":5126,"count":1,"max":[0],"min":[0],"type":"SCALAR"},{"bufferView":1,"byteOffset":0,"componentType":5123,"count":177,"type":"SCALAR"},{"bufferView":2,"byteOffset":0,"componentType":5126,"count":74,"max":[0.258034139871597,2.84574365615845,0.0000000671613094027634],"min":[-0.25803411006928,-2.84574389457703,-3.7942681312561],"type":"VEC3"},{"bufferView":3,"byteOffset":0,"componentType":5126,"count":74,"type":"VEC3"},{"bufferView":4,"byteOffset":0,"componentType":5126,"count":74,"type":"VEC4"},{"bufferView":5,"byteOffset":0,"componentType":5126,"count":74,"type":"VEC2"},{"bufferView":6,"byteOffset":0,"componentType":5126,"count":74,"type":"VEC2"},{"bufferView":7,"byteOffset":0,"componentType":5123,"count":171,"type":"SCALAR"},{"bufferView":8,"byteOffset":0,"componentType":5126,"count":72,"max":[0.258034139871597,2.84574365615845,0.0000000671613094027634],"min":[-0.25803411006928,-2.84574389457703,-3.7942681312561],"type":"VEC3"},{"bufferView":9,"byteOffset":0,"componentType":5126,"count":72,"type":"VEC3"},{"bufferView":10,"byteOffset":0,"componentType":5126,"count":72,"type":"VEC4"},{"bufferView":11,"byteOffset":0,"componentType":5126,"count":72,"type":"VEC2"},{"bufferView":12,"byteOffset":0,"componentType":5126,"count":72,"type":"VEC2"},{"bufferView":13,"byteOffset":0,"componentType":5123,"count":120,"type":"SCALAR"},{"bufferView":14,"byteOffset":0,"componentType":5126,"count":59,"max":[0.268344014883041,2.84696435928345,0.0002213580883108],"min":[-0.26927262544632,-2.84574389457703,-3.7942681312561],"type":"VEC3"},{"bufferView":15,"byteOffset":0,"componentType":5126,"count":59,"type":"VEC3"},{"bufferView":16,"byteOffset":0,"componentType":5126,"count":59,"type":"VEC4"},{"bufferView":17,"byteOffset":0,"componentType":5126,"count":59,"type":"VEC2"},{"bufferView":18,"byteOffset":0,"componentType":5126,"count":59,"type":"VEC2"},{"bufferView":19,"byteOffset":0,"componentType":5123,"count":60,"type":"SCALAR"},{"bufferView":20,"byteOffset":0,"componentType":5126,"count":42,"max":[0.268344014883041,2.84696435928345,0.0002213580883108],"min":[-0.26012963056564,-2.84574389457703,-3.7942681312561],"type":"VEC3"},{"bufferView":21,"byteOffset":0,"componentType":5126,"count":42,"type":"VEC3"},{"bufferView":22,"byteOffset":0,"componentType":5126,"count":42,"type":"VEC4"},{"bufferView":23,"byteOffset":0,"componentType":5126,"count":42,"type":"VEC2"},{"bufferView":24,"byteOffset":0,"componentType":5126,"count":42,"type":"VEC2"},{"bufferView":25,"byteOffset":0,"componentType":5123,"count":330,"type":"SCALAR"},{"bufferView":26,"byteOffset":0,"componentType":5126,"count":190,"max":[0.258033901453018,1.08033418655396,-0.86141049861908],"min":[-0.25803384184837,0.0665945336222649,-2.93285751342773],"type":"VEC3"},{"bufferView":27,"byteOffset":0,"componentType":5126,"count":190,"type":"VEC3"},{"bufferView":28,"byteOffset":0,"componentType":5126,"count":190,"type":"VEC4"},{"bufferView":29,"byteOffset":0,"componentType":5126,"count":190,"type":"VEC2"},{"bufferView":30,"byteOffset":0,"componentType":5126,"count":190,"type":"VEC2"},{"bufferView":31,"byteOffset":0,"componentType":5123,"count":210,"type":"SCALAR"},{"bufferView":32,"byteOffset":0,"componentType":5126,"count":138,"max":[0.264375180006027,1.08033418655396,-0.86141049861908],"min":[-0.25803384184837,0.0665945336222649,-2.93285751342773],"type":"VEC3"},{"bufferView":33,"byteOffset":0,"componentType":5126,"count":138,"type":"VEC3"},{"bufferView":34,"byteOffset":0,"componentType":5126,"count":138,"type":"VEC4"},{"bufferView":35,"byteOffset":0,"componentType":5126,"count":138,"type":"VEC2"},{"bufferView":36,"byteOffset":0,"componentType":5126,"count":138,"type":"VEC2"},{"bufferView":37,"byteOffset":0,"componentType":5123,"count":135,"type":"SCALAR"},{"bufferView":38,"byteOffset":0,"componentType":5126,"count":97,"max":[0.268777757883072,1.08033418655396,-0.8711730837822],"min":[-0.26927262544632,0.0665945336222649,-2.91624450683594],"type":"VEC3"},{"bufferView":39,"byteOffset":0,"componentType":5126,"count":97,"type":"VEC3"},{"bufferView":40,"byteOffset":0,"componentType":5126,"count":97,"type":"VEC4"},{"bufferView":41,"byteOffset":0,"componentType":5126,"count":97,"type":"VEC2"},{"bufferView":42,"byteOffset":0,"componentType":5126,"count":97,"type":"VEC2"},{"bufferView":43,"byteOffset":0,"componentType":5123,"count":6,"type":"SCALAR"},{"bufferView":44,"byteOffset":0,"componentType":5126,"count":6,"max":[0.26335933804512,0.865877985954285,-0.94658702611923],"min":[-0.26012963056564,0.106362588703632,-2.14951086044312],"type":"VEC3"},{"bufferView":45,"byteOffset":0,"componentType":5126,"count":6,"type":"VEC3"},{"bufferView":46,"byteOffset":0,"componentType":5126,"count":6,"type":"VEC4"},{"bufferView":47,"byteOffset":0,"componentType":5126,"count":6,"type":"VEC2"},{"bufferView":48,"byteOffset":0,"componentType":5126,"count":6,"type":"VEC2"}],"animations":[{"channels":[],"name":"Unreal Take","samplers":[]}],"asset":{"generator":"FBX2glTF v0.13.0","version":"2.0"},"bufferViews":[{"buffer":0,"byteLength":4,"byteOffset":0},{"buffer":0,"byteLength":354,"byteOffset":4,"target":34963},{"buffer":0,"byteLength":888,"byteOffset":360,"target":34962},{"buffer":0,"byteLength":888,"byteOffset":1248,"target":34962},{"buffer":0,"byteLength":1184,"byteOffset":2136,"target":34962},{"buffer":0,"byteLength":592,"byteOffset":3320,"target":34962},{"buffer":0,"byteLength":592,"byteOffset":3912,"target":34962},{"buffer":0,"byteLength":342,"byteOffset":4504,"target":34963},{"buffer":0,"byteLength":864,"byteOffset":4848,"target":34962},{"buffer":0,"byteLength":864,"byteOffset":5712,"target":34962},{"buffer":0,"byteLength":1152,"byteOffset":6576,"target":34962},{"buffer":0,"byteLength":576,"byteOffset":7728,"target":34962},{"buffer":0,"byteLength":576,"byteOffset":8304,"target":34962},{"buffer":0,"byteLength":240,"byteOffset":8880,"target":34963},{"buffer":0,"byteLength":708,"byteOffset":9120,"target":34962},{"buffer":0,"byteLength":708,"byteOffset":9828,"target":34962},{"buffer":0,"byteLength":944,"byteOffset":10536,"target":34962},{"buffer":0,"byteLength":472,"byteOffset":11480,"target":34962},{"buffer":0,"byteLength":472,"byteOffset":11952,"target":34962},{"buffer":0,"byteLength":120,"byteOffset":12424,"target":34963},{"buffer":0,"byteLength":504,"byteOffset":12544,"target":34962},{"buffer":0,"byteLength":504,"byteOffset":13048,"target":34962},{"buffer":0,"byteLength":672,"byteOffset":13552,"target":34962},{"buffer":0,"byteLength":336,"byteOffset":14224,"target":34962},{"buffer":0,"byteLength":336,"byteOffset":14560,"target":34962},{"buffer":0,"byteLength":660,"byteOffset":14896,"target":34963},{"buffer":0,"byteLength":2280,"byteOffset":15556,"target":34962},{"buffer":0,"byteLength":2280,"byteOffset":17836,"target":34962},{"buffer":0,"byteLength":3040,"byteOffset":20116,"target":34962},{"buffer":0,"byteLength":1520,"byteOffset":23156,"target":34962},{"buffer":0,"byteLength":1520,"byteOffset":24676,"target":34962},{"buffer":0,"byteLength":420,"byteOffset":26196,"target":34963},{"buffer":0,"byteLength":1656,"byteOffset":26616,"target":34962},{"buffer":0,"byteLength":1656,"byteOffset":28272,"target":34962},{"buffer":0,"byteLength":2208,"byteOffset":29928,"target":34962},{"buffer":0,"byteLength":1104,"byteOffset":32136,"target":34962},{"buffer":0,"byteLength":1104,"byteOffset":33240,"target":34962},{"buffer":0,"byteLength":270,"byteOffset":34344,"target":34963},{"buffer":0,"byteLength":1164,"byteOffset":34616,"target":34962},{"buffer":0,"byteLength":1164,"byteOffset":35780,"target":34962},{"buffer":0,"byteLength":1552,"byteOffset":36944,"target":34962},{"buffer":0,"byteLength":776,"byteOffset":38496,"target":34962},{"buffer":0,"byteLength":776,"byteOffset":39272,"target":34962},{"buffer":0,"byteLength":12,"byteOffset":40048,"target":34963},{"buffer":0,"byteLength":72,"byteOffset":40060,"target":34962},{"buffer":0,"byteLength":72,"byteOffset":40132,"target":34962},{"buffer":0,"byteLength":96,"byteOffset":40204,"target":34962},{"buffer":0,"byteLength":48,"byteOffset":40300,"target":34962},{"buffer":0,"byteLength":48,"byteOffset":40348,"target":34962}],"buffers":[{"byteLength":40396,"uri":"SM_Wall_02.bin"}],"images":[{"name":"T_Bricks_N","uri":"T_Bricks_N.png"},{"name":"T_Bricks_B","uri":"T_Bricks_B.png"},{"name":"T_Bricks_N 1","uri":"T_Bricks_N.png"},{"name":"T_Bricks_B 1","uri":"T_Bricks_B.png"}],"materials":[{"alphaMode":"OPAQUE","doubleSided":false,"extras":{"fromFBX":{"isTruePBR":false,"shadingModel":"Phong"}},"name":"MI_Brick_01","normalTexture":{"index":0,"texCoord":0},"pbrMetallicRoughness":{"baseColorFactor":[1,1,1,1],"baseColorTexture":{"index":1,"texCoord":0},"metallicFactor":0.400000005960464,"roughnessFactor":0.301511347293854}},{"alphaMode":"OPAQUE","doubleSided":false,"extras":{"fromFBX":{"isTruePBR":false,"shadingModel":"Phong"}},"name":"MI_Brick_02","normalTexture":{"index":2,"texCoord":0},"pbrMetallicRoughness":{"baseColorFactor":[1,1,1,1],"baseColorTexture":{"index":3,"texCoord":0},"metallicFactor":0.400000005960464,"roughnessFactor":0.301511347293854}}],"meshes":[{"name":"SM_Wall_02_LOD0","primitives":[{"attributes":{"NORMAL":3,"POSITION":2,"TANGENT":4,"TEXCOORD_0":5,"TEXCOORD_1":6},"indices":1,"material":0,"mode":4},{"attributes":{"NORMAL":27,"POSITION":26,"TANGENT":28,"TEXCOORD_0":29,"TEXCOORD_1":30},"indices":25,"material":1,"mode":4}]},{"name":"SM_Wall_02_LOD1","primitives":[{"attributes":{"NORMAL":9,"POSITION":8,"TANGENT":10,"TEXCOORD_0":11,"TEXCOORD_1":12},"indices":7,"material":0,"mode":4},{"attributes":{"NORMAL":33,"POSITION":32,"TANGENT":34,"TEXCOORD_0":35,"TEXCOORD_1":36},"indices":31,"material":1,"mode":4}]},{"name":"SM_Wall_02_LOD2","primitives":[{"attributes":{"NORMAL":15,"POSITION":14,"TANGENT":16,"TEXCOORD_0":17,"TEXCOORD_1":18},"indices":13,"material":0,"mode":4},{"attributes":{"NORMAL":39,"POSITION":38,"TANGENT":40,"TEXCOORD_0":41,"TEXCOORD_1":42},"indices":37,"material":1,"mode":4}]},{"name":"SM_Wall_02_LOD3","primitives":[{"attributes":{"NORMAL":21,"POSITION":20,"TANGENT":22,"TEXCOORD_0":23,"TEXCOORD_1":24},"indices":19,"material":0,"mode":4},{"attributes":{"NORMAL":45,"POSITION":44,"TANGENT":46,"TEXCOORD_0":47,"TEXCOORD_1":48},"indices":43,"material":1,"mode":4}]}],"nodes":[{"children":[1,2,3,4,5],"name":"SM_Wall_02_133","originalUnits":0.00999999977648258,"pivot":[0,0,0],"rotation":[0,0,0,1],"scale":[1,1,1],"translation":[0,0,0]},{"mesh":0,"name":"SM_Wall_02_LOD0","originalUnits":0.00999999977648258,"pivot":[0,0,0],"rotation":[0,0,0,1],"scale":[1,1,1],"translation":[0,0,0]},{"name":"SM_Wall_02_ConvexHulls","originalUnits":0.00999999977648258,"pivot":[0,0,0],"rotation":[0,0,0,1],"scale":[1,1,1],"translation":[0,0,0]},{"mesh":1,"name":"SM_Wall_02_LOD1","originalUnits":0.00999999977648258,"pivot":[0,0,0],"rotation":[0,0,0,1],"scale":[1,1,1],"translation":[0,0,0]},{"mesh":2,"name":"SM_Wall_02_LOD2","originalUnits":0.00999999977648258,"pivot":[0,0,0],"rotation":[0,0,0,1],"scale":[1,1,1],"translation":[0,0,0]},{"mesh":3,"name":"SM_Wall_02_LOD3","originalUnits":0.00999999977648258,"pivot":[0,0,0],"rotation":[0,0,0,1],"scale":[1,1,1],"translation":[0,0,0]}],"samplers":[{}],"scene":0,"scenes":[{"name":"Root Scene","nodes":[0]}],"textures":[{"name":"MI_Brick_01","sampler":0,"source":0},{"name":"MI_Brick_01","sampler":0,"source":1},{"name":"MI_Brick_02","sampler":0,"source":2},{"name":"MI_Brick_02","sampler":0,"source":3}]}