{"accessors":[{"bufferView":0,"byteOffset":0,"componentType":5126,"count":1,"max":[0],"min":[0],"type":"SCALAR"},{"bufferView":1,"byteOffset":0,"componentType":5123,"count":576,"type":"SCALAR"},{"bufferView":2,"byteOffset":0,"componentType":5126,"count":152,"max":[0.0198255926370621,0.266132771968842,0.0256348419934511],"min":[-0.01982559077442,-0.26613277196884,-0.02563484199345],"type":"VEC3"},{"bufferView":3,"byteOffset":0,"componentType":5126,"count":152,"type":"VEC3"},{"bufferView":4,"byteOffset":0,"componentType":5126,"count":152,"type":"VEC4"},{"bufferView":5,"byteOffset":0,"componentType":5126,"count":152,"type":"VEC2"},{"bufferView":6,"byteOffset":0,"componentType":5126,"count":152,"type":"VEC2"},{"bufferView":7,"byteOffset":0,"componentType":5123,"count":432,"type":"SCALAR"},{"bufferView":8,"byteOffset":0,"componentType":5126,"count":128,"max":[0.0198089424520731,0.266150534152985,0.0256348419934511],"min":[-0.01980793103576,-0.26613277196884,-0.02563484199345],"type":"VEC3"},{"bufferView":9,"byteOffset":0,"componentType":5126,"count":128,"type":"VEC3"},{"bufferView":10,"byteOffset":0,"componentType":5126,"count":128,"type":"VEC4"},{"bufferView":11,"byteOffset":0,"componentType":5126,"count":128,"type":"VEC2"},{"bufferView":12,"byteOffset":0,"componentType":5126,"count":128,"type":"VEC2"},{"bufferView":13,"byteOffset":0,"componentType":5123,"count":288,"type":"SCALAR"},{"bufferView":14,"byteOffset":0,"componentType":5126,"count":100,"max":[0.0198089424520731,0.266282916069031,0.0242037195712328],"min":[-0.01980793103576,-0.266427308321,-0.02420417778194],"type":"VEC3"},{"bufferView":15,"byteOffset":0,"componentType":5126,"count":100,"type":"VEC3"},{"bufferView":16,"byteOffset":0,"componentType":5126,"count":100,"type":"VEC4"},{"bufferView":17,"byteOffset":0,"componentType":5126,"count":100,"type":"VEC2"},{"bufferView":18,"byteOffset":0,"componentType":5126,"count":100,"type":"VEC2"},{"bufferView":19,"byteOffset":0,"componentType":5123,"count":72,"type":"SCALAR"},{"bufferView":20,"byteOffset":0,"componentType":5126,"count":40,"max":[0.019290279597044,0.26710319519043,0.0237999763339758],"min":[-0.02239830605686,-0.26646417379379,-0.02307107485831],"type":"VEC3"},{"bufferView":21,"byteOffset":0,"componentType":5126,"count":40,"type":"VEC3"},{"bufferView":22,"byteOffset":0,"componentType":5126,"count":40,"type":"VEC4"},{"bufferView":23,"byteOffset":0,"componentType":5126,"count":40,"type":"VEC2"},{"bufferView":24,"byteOffset":0,"componentType":5126,"count":40,"type":"VEC2"},{"bufferView":25,"byteOffset":0,"componentType":5123,"count":84,"type":"SCALAR"},{"bufferView":26,"byteOffset":0,"componentType":5126,"count":16,"max":[0.0203381720930338,0.267312526702881,0.0272828564047813],"min":[-0.01985747925937,-0.26732662320137,-0.02781593054533],"type":"VEC3"},{"bufferView":27,"byteOffset":0,"componentType":5126,"count":16,"type":"VEC3"},{"bufferView":28,"byteOffset":0,"componentType":5126,"count":16,"type":"VEC2"},{"bufferView":29,"byteOffset":0,"componentType":5126,"count":16,"type":"VEC2"}],"animations":[{"channels":[],"name":"Unreal Take","samplers":[]}],"asset":{"generator":"FBX2glTF v0.13.0","version":"2.0"},"bufferViews":[{"buffer":0,"byteLength":4,"byteOffset":0},{"buffer":0,"byteLength":1152,"byteOffset":4,"target":34963},{"buffer":0,"byteLength":1824,"byteOffset":1156,"target":34962},{"buffer":0,"byteLength":1824,"byteOffset":2980,"target":34962},{"buffer":0,"byteLength":2432,"byteOffset":4804,"target":34962},{"buffer":0,"byteLength":1216,"byteOffset":7236,"target":34962},{"buffer":0,"byteLength":1216,"byteOffset":8452,"target":34962},{"buffer":0,"byteLength":864,"byteOffset":9668,"target":34963},{"buffer":0,"byteLength":1536,"byteOffset":10532,"target":34962},{"buffer":0,"byteLength":1536,"byteOffset":12068,"target":34962},{"buffer":0,"byteLength":2048,"byteOffset":13604,"target":34962},{"buffer":0,"byteLength":1024,"byteOffset":15652,"target":34962},{"buffer":0,"byteLength":1024,"byteOffset":16676,"target":34962},{"buffer":0,"byteLength":576,"byteOffset":17700,"target":34963},{"buffer":0,"byteLength":1200,"byteOffset":18276,"target":34962},{"buffer":0,"byteLength":1200,"byteOffset":19476,"target":34962},{"buffer":0,"byteLength":1600,"byteOffset":20676,"target":34962},{"buffer":0,"byteLength":800,"byteOffset":22276,"target":34962},{"buffer":0,"byteLength":800,"byteOffset":23076,"target":34962},{"buffer":0,"byteLength":144,"byteOffset":23876,"target":34963},{"buffer":0,"byteLength":480,"byteOffset":24020,"target":34962},{"buffer":0,"byteLength":480,"byteOffset":24500,"target":34962},{"buffer":0,"byteLength":640,"byteOffset":24980,"target":34962},{"buffer":0,"byteLength":320,"byteOffset":25620,"target":34962},{"buffer":0,"byteLength":320,"byteOffset":25940,"target":34962},{"buffer":0,"byteLength":168,"byteOffset":26260,"target":34963},{"buffer":0,"byteLength":192,"byteOffset":26428,"target":34962},{"buffer":0,"byteLength":192,"byteOffset":26620,"target":34962},{"buffer":0,"byteLength":128,"byteOffset":26812,"target":34962},{"buffer":0,"byteLength":128,"byteOffset":26940,"target":34962}],"buffers":[{"byteLength":27068,"uri":"SM_Wheel_Pole.bin"}],"images":[{"name":"T_Woodprops_01_N","uri":"T_Woodprops_01_N.png"},{"name":"T_Woodprops_01_B","uri":"T_Woodprops_01_B.png"}],"materials":[{"alphaMode":"OPAQUE","doubleSided":false,"extras":{"fromFBX":{"isTruePBR":false,"shadingModel":"Phong"}},"name":"MI_Wheel","normalTexture":{"index":0,"texCoord":0},"pbrMetallicRoughness":{"baseColorFactor":[1,1,1,1],"baseColorTexture":{"index":1,"texCoord":0},"metallicFactor":0.400000005960464,"roughnessFactor":0.301511347293854}},{"alphaMode":"OPAQUE","doubleSided":false,"extras":{"fromFBX":{"isTruePBR":false,"shadingModel":"Lambert"}},"name":"DefaultMaterial","pbrMetallicRoughness":{"baseColorFactor":[0.5,0.5,0.5,1],"metallicFactor":0.200000002980232,"roughnessFactor":0.800000011920929}}],"meshes":[{"name":"SM_Wheel_Pole_LOD0","primitives":[{"attributes":{"NORMAL":3,"POSITION":2,"TANGENT":4,"TEXCOORD_0":5,"TEXCOORD_1":6},"indices":1,"material":0,"mode":4}]},{"name":"SM_Wheel_Pole_LOD1","primitives":[{"attributes":{"NORMAL":9,"POSITION":8,"TANGENT":10,"TEXCOORD_0":11,"TEXCOORD_1":12},"indices":7,"material":0,"mode":4}]},{"name":"SM_Wheel_Pole_LOD2","primitives":[{"attributes":{"NORMAL":15,"POSITION":14,"TANGENT":16,"TEXCOORD_0":17,"TEXCOORD_1":18},"indices":13,"material":0,"mode":4}]},{"name":"SM_Wheel_Pole_LOD3","primitives":[{"attributes":{"NORMAL":21,"POSITION":20,"TANGENT":22,"TEXCOORD_0":23,"TEXCOORD_1":24},"indices":19,"material":0,"mode":4}]},{"name":"SM_Wheel_Pole_ConvexHulls","primitives":[{"attributes":{"NORMAL":27,"POSITION":26,"TEXCOORD_0":28,"TEXCOORD_1":29},"indices":25,"material":1,"mode":4}]}],"nodes":[{"children":[1,2,3,4,5],"name":"SM_Wheel_Pole_140","originalUnits":0.00999999977648258,"pivot":[0,0,0],"rotation":[0,0,0,1],"scale":[1,1,1],"translation":[0,0,0]},{"mesh":0,"name":"SM_Wheel_Pole_LOD0","originalUnits":0.00999999977648258,"pivot":[0,0,0],"rotation":[0,0,0,1],"scale":[1,1,1],"translation":[0,0,0]},{"mesh":4,"name":"SM_Wheel_Pole_ConvexHulls","originalUnits":0.00999999977648258,"pivot":[0,0,0],"rotation":[0,0,0,1],"scale":[1,1,1],"translation":[0,0,0]},{"mesh":1,"name":"SM_Wheel_Pole_LOD1","originalUnits":0.00999999977648258,"pivot":[0,0,0],"rotation":[0,0,0,1],"scale":[1,1,1],"translation":[0,0,0]},{"mesh":2,"name":"SM_Wheel_Pole_LOD2","originalUnits":0.00999999977648258,"pivot":[0,0,0],"rotation":[0,0,0,1],"scale":[1,1,1],"translation":[0,0,0]},{"mesh":3,"name":"SM_Wheel_Pole_LOD3","originalUnits":0.00999999977648258,"pivot":[0,0,0],"rotation":[0,0,0,1],"scale":[1,1,1],"translation":[0,0,0]}],"samplers":[{}],"scene":0,"scenes":[{"name":"Root Scene","nodes":[0]}],"textures":[{"name":"MI_Wheel","sampler":0,"source":0},{"name":"MI_Wheel","sampler":0,"source":1}]}