{"accessors":[{"bufferView":0,"byteOffset":0,"componentType":5126,"count":1,"max":[0],"min":[0],"type":"SCALAR"},{"bufferView":1,"byteOffset":0,"componentType":5123,"count":8823,"type":"SCALAR"},{"bufferView":2,"byteOffset":0,"componentType":5126,"count":2449,"max":[0.669236838817596,1.17019939422607,1.89738595485687],"min":[-0.6799578666687,0.000000144749463970584,-1.7798388004303],"type":"VEC3"},{"bufferView":3,"byteOffset":0,"componentType":5126,"count":2449,"type":"VEC3"},{"bufferView":4,"byteOffset":0,"componentType":5126,"count":2449,"type":"VEC4"},{"bufferView":5,"byteOffset":0,"componentType":5126,"count":2449,"type":"VEC2"},{"bufferView":6,"byteOffset":0,"componentType":5126,"count":2449,"type":"VEC2"},{"bufferView":7,"byteOffset":0,"componentType":5123,"count":7143,"type":"SCALAR"},{"bufferView":8,"byteOffset":0,"componentType":5126,"count":2104,"max":[0.669236838817596,1.17019939422607,1.89795279502869],"min":[-0.6799578666687,-0.00043841995648,-1.78090524673462],"type":"VEC3"},{"bufferView":9,"byteOffset":0,"componentType":5126,"count":2104,"type":"VEC3"},{"bufferView":10,"byteOffset":0,"componentType":5126,"count":2104,"type":"VEC4"},{"bufferView":11,"byteOffset":0,"componentType":5126,"count":2104,"type":"VEC2"},{"bufferView":12,"byteOffset":0,"componentType":5126,"count":2104,"type":"VEC2"},{"bufferView":13,"byteOffset":0,"componentType":5123,"count":5289,"type":"SCALAR"},{"bufferView":14,"byteOffset":0,"componentType":5126,"count":1660,"max":[0.669205248355865,1.17019939422607,1.89772522449493],"min":[-0.67996335029602,-0.00180954986718,-1.78099465370178],"type":"VEC3"},{"bufferView":15,"byteOffset":0,"componentType":5126,"count":1660,"type":"VEC3"},{"bufferView":16,"byteOffset":0,"componentType":5126,"count":1660,"type":"VEC4"},{"bufferView":17,"byteOffset":0,"componentType":5126,"count":1660,"type":"VEC2"},{"bufferView":18,"byteOffset":0,"componentType":5126,"count":1660,"type":"VEC2"},{"bufferView":19,"byteOffset":0,"componentType":5123,"count":1368,"type":"SCALAR"},{"bufferView":20,"byteOffset":0,"componentType":5126,"count":670,"max":[0.669237971305847,1.16878640651703,1.89897501468658],"min":[-0.68212217092514,-0.00498261721805,-1.85929787158966],"type":"VEC3"},{"bufferView":21,"byteOffset":0,"componentType":5126,"count":670,"type":"VEC3"},{"bufferView":22,"byteOffset":0,"componentType":5126,"count":670,"type":"VEC4"},{"bufferView":23,"byteOffset":0,"componentType":5126,"count":670,"type":"VEC2"},{"bufferView":24,"byteOffset":0,"componentType":5126,"count":670,"type":"VEC2"},{"bufferView":25,"byteOffset":0,"componentType":5123,"count":16146,"type":"SCALAR"},{"bufferView":26,"byteOffset":0,"componentType":5126,"count":8055,"max":[-0.17960965633392,1.187748670578,-0.94372135400772],"min":[-1.03721284866333,0.7058345079422,-1.45881175994873],"type":"VEC3"},{"bufferView":27,"byteOffset":0,"componentType":5126,"count":8055,"type":"VEC3"},{"bufferView":28,"byteOffset":0,"componentType":5126,"count":8055,"type":"VEC4"},{"bufferView":29,"byteOffset":0,"componentType":5126,"count":8055,"type":"VEC2"},{"bufferView":30,"byteOffset":0,"componentType":5126,"count":8055,"type":"VEC2"},{"bufferView":31,"byteOffset":0,"componentType":5123,"count":11583,"type":"SCALAR"},{"bufferView":32,"byteOffset":0,"componentType":5126,"count":6136,"max":[-0.17957718670368,1.187748670578,-0.94372135400772],"min":[-1.03721284866333,0.7058345079422,-1.45881175994873],"type":"VEC3"},{"bufferView":33,"byteOffset":0,"componentType":5126,"count":6136,"type":"VEC3"},{"bufferView":34,"byteOffset":0,"componentType":5126,"count":6136,"type":"VEC4"},{"bufferView":35,"byteOffset":0,"componentType":5126,"count":6136,"type":"VEC2"},{"bufferView":36,"byteOffset":0,"componentType":5126,"count":6136,"type":"VEC2"},{"bufferView":37,"byteOffset":0,"componentType":5123,"count":7197,"type":"SCALAR"},{"bufferView":38,"byteOffset":0,"componentType":5126,"count":4138,"max":[-0.17957718670368,1.187748670578,-0.94372135400772],"min":[-1.03808009624481,0.705556213855743,-1.45881175994873],"type":"VEC3"},{"bufferView":39,"byteOffset":0,"componentType":5126,"count":4138,"type":"VEC3"},{"bufferView":40,"byteOffset":0,"componentType":5126,"count":4138,"type":"VEC4"},{"bufferView":41,"byteOffset":0,"componentType":5126,"count":4138,"type":"VEC2"},{"bufferView":42,"byteOffset":0,"componentType":5126,"count":4138,"type":"VEC2"},{"bufferView":43,"byteOffset":0,"componentType":5123,"count":1755,"type":"SCALAR"},{"bufferView":44,"byteOffset":0,"componentType":5126,"count":1217,"max":[-0.17665190994739,1.18956160545349,-0.94306516647339],"min":[-1.04182362556458,0.760352432727814,-1.45911049842834],"type":"VEC3"},{"bufferView":45,"byteOffset":0,"componentType":5126,"count":1217,"type":"VEC3"},{"bufferView":46,"byteOffset":0,"componentType":5126,"count":1217,"type":"VEC4"},{"bufferView":47,"byteOffset":0,"componentType":5126,"count":1217,"type":"VEC2"},{"bufferView":48,"byteOffset":0,"componentType":5126,"count":1217,"type":"VEC2"},{"bufferView":49,"byteOffset":0,"componentType":5123,"count":696,"type":"SCALAR"},{"bufferView":50,"byteOffset":0,"componentType":5126,"count":140,"max":[0.696155071258545,1.21238505840302,1.91380214691162],"min":[-1.05300211906433,-0.02711165696383,-1.79142665863037],"type":"VEC3"},{"bufferView":51,"byteOffset":0,"componentType":5126,"count":140,"type":"VEC3"},{"bufferView":52,"byteOffset":0,"componentType":5126,"count":140,"type":"VEC2"},{"bufferView":53,"byteOffset":0,"componentType":5126,"count":140,"type":"VEC2"}],"animations":[{"channels":[],"name":"Unreal Take","samplers":[]}],"asset":{"generator":"FBX2glTF v0.13.0","version":"2.0"},"bufferViews":[{"buffer":0,"byteLength":4,"byteOffset":0},{"buffer":0,"byteLength":17646,"byteOffset":4,"target":34963},{"buffer":0,"byteLength":29388,"byteOffset":17652,"target":34962},{"buffer":0,"byteLength":29388,"byteOffset":47040,"target":34962},{"buffer":0,"byteLength":39184,"byteOffset":76428,"target":34962},{"buffer":0,"byteLength":19592,"byteOffset":115612,"target":34962},{"buffer":0,"byteLength":19592,"byteOffset":135204,"target":34962},{"buffer":0,"byteLength":14286,"byteOffset":154796,"target":34963},{"buffer":0,"byteLength":25248,"byteOffset":169084,"target":34962},{"buffer":0,"byteLength":25248,"byteOffset":194332,"target":34962},{"buffer":0,"byteLength":33664,"byteOffset":219580,"target":34962},{"buffer":0,"byteLength":16832,"byteOffset":253244,"target":34962},{"buffer":0,"byteLength":16832,"byteOffset":270076,"target":34962},{"buffer":0,"byteLength":10578,"byteOffset":286908,"target":34963},{"buffer":0,"byteLength":19920,"byteOffset":297488,"target":34962},{"buffer":0,"byteLength":19920,"byteOffset":317408,"target":34962},{"buffer":0,"byteLength":26560,"byteOffset":337328,"target":34962},{"buffer":0,"byteLength":13280,"byteOffset":363888,"target":34962},{"buffer":0,"byteLength":13280,"byteOffset":377168,"target":34962},{"buffer":0,"byteLength":2736,"byteOffset":390448,"target":34963},{"buffer":0,"byteLength":8040,"byteOffset":393184,"target":34962},{"buffer":0,"byteLength":8040,"byteOffset":401224,"target":34962},{"buffer":0,"byteLength":10720,"byteOffset":409264,"target":34962},{"buffer":0,"byteLength":5360,"byteOffset":419984,"target":34962},{"buffer":0,"byteLength":5360,"byteOffset":425344,"target":34962},{"buffer":0,"byteLength":32292,"byteOffset":430704,"target":34963},{"buffer":0,"byteLength":96660,"byteOffset":462996,"target":34962},{"buffer":0,"byteLength":96660,"byteOffset":559656,"target":34962},{"buffer":0,"byteLength":128880,"byteOffset":656316,"target":34962},{"buffer":0,"byteLength":64440,"byteOffset":785196,"target":34962},{"buffer":0,"byteLength":64440,"byteOffset":849636,"target":34962},{"buffer":0,"byteLength":23166,"byteOffset":914076,"target":34963},{"buffer":0,"byteLength":73632,"byteOffset":937244,"target":34962},{"buffer":0,"byteLength":73632,"byteOffset":1010876,"target":34962},{"buffer":0,"byteLength":98176,"byteOffset":1084508,"target":34962},{"buffer":0,"byteLength":49088,"byteOffset":1182684,"target":34962},{"buffer":0,"byteLength":49088,"byteOffset":1231772,"target":34962},{"buffer":0,"byteLength":14394,"byteOffset":1280860,"target":34963},{"buffer":0,"byteLength":49656,"byteOffset":1295256,"target":34962},{"buffer":0,"byteLength":49656,"byteOffset":1344912,"target":34962},{"buffer":0,"byteLength":66208,"byteOffset":1394568,"target":34962},{"buffer":0,"byteLength":33104,"byteOffset":1460776,"target":34962},{"buffer":0,"byteLength":33104,"byteOffset":1493880,"target":34962},{"buffer":0,"byteLength":3510,"byteOffset":1526984,"target":34963},{"buffer":0,"byteLength":14604,"byteOffset":1530496,"target":34962},{"buffer":0,"byteLength":14604,"byteOffset":1545100,"target":34962},{"buffer":0,"byteLength":19472,"byteOffset":1559704,"target":34962},{"buffer":0,"byteLength":9736,"byteOffset":1579176,"target":34962},{"buffer":0,"byteLength":9736,"byteOffset":1588912,"target":34962},{"buffer":0,"byteLength":1392,"byteOffset":1598648,"target":34963},{"buffer":0,"byteLength":1680,"byteOffset":1600040,"target":34962},{"buffer":0,"byteLength":1680,"byteOffset":1601720,"target":34962},{"buffer":0,"byteLength":1120,"byteOffset":1603400,"target":34962},{"buffer":0,"byteLength":1120,"byteOffset":1604520,"target":34962}],"buffers":[{"byteLength":1605640,"uri":"SM_Workbench_01.bin"}],"images":[{"name":"T_WorkBench_N","uri":"T_WorkBench_N.png"},{"name":"T_WorkBench_B","uri":"T_WorkBench_B.png"},{"name":"T_Clamp_N","uri":"T_Clamp_N.png"},{"name":"T_Clamp_B","uri":"T_Clamp_B.png"}],"materials":[{"alphaMode":"OPAQUE","doubleSided":false,"extras":{"fromFBX":{"isTruePBR":false,"shadingModel":"Phong"}},"name":"MI_WorkBench_04","normalTexture":{"index":0,"texCoord":0},"pbrMetallicRoughness":{"baseColorFactor":[1,1,1,1],"baseColorTexture":{"index":1,"texCoord":0},"metallicFactor":0.400000005960464,"roughnessFactor":0.301511347293854}},{"alphaMode":"OPAQUE","doubleSided":false,"extras":{"fromFBX":{"isTruePBR":false,"shadingModel":"Phong"}},"name":"MI_WorkBenchClamp","normalTexture":{"index":2,"texCoord":0},"pbrMetallicRoughness":{"baseColorFactor":[1,1,1,1],"baseColorTexture":{"index":3,"texCoord":0},"metallicFactor":0.400000005960464,"roughnessFactor":0.301511347293854}},{"alphaMode":"OPAQUE","doubleSided":false,"extras":{"fromFBX":{"isTruePBR":false,"shadingModel":"Lambert"}},"name":"DefaultMaterial","pbrMetallicRoughness":{"baseColorFactor":[0.5,0.5,0.5,1],"metallicFactor":0.200000002980232,"roughnessFactor":0.800000011920929}}],"meshes":[{"name":"SM_Workbench_01_LOD0","primitives":[{"attributes":{"NORMAL":3,"POSITION":2,"TANGENT":4,"TEXCOORD_0":5,"TEXCOORD_1":6},"indices":1,"material":0,"mode":4},{"attributes":{"NORMAL":27,"POSITION":26,"TANGENT":28,"TEXCOORD_0":29,"TEXCOORD_1":30},"indices":25,"material":1,"mode":4}]},{"name":"SM_Workbench_01_LOD1","primitives":[{"attributes":{"NORMAL":9,"POSITION":8,"TANGENT":10,"TEXCOORD_0":11,"TEXCOORD_1":12},"indices":7,"material":0,"mode":4},{"attributes":{"NORMAL":33,"POSITION":32,"TANGENT":34,"TEXCOORD_0":35,"TEXCOORD_1":36},"indices":31,"material":1,"mode":4}]},{"name":"SM_Workbench_01_LOD2","primitives":[{"attributes":{"NORMAL":15,"POSITION":14,"TANGENT":16,"TEXCOORD_0":17,"TEXCOORD_1":18},"indices":13,"material":0,"mode":4},{"attributes":{"NORMAL":39,"POSITION":38,"TANGENT":40,"TEXCOORD_0":41,"TEXCOORD_1":42},"indices":37,"material":1,"mode":4}]},{"name":"SM_Workbench_01_LOD3","primitives":[{"attributes":{"NORMAL":21,"POSITION":20,"TANGENT":22,"TEXCOORD_0":23,"TEXCOORD_1":24},"indices":19,"material":0,"mode":4},{"attributes":{"NORMAL":45,"POSITION":44,"TANGENT":46,"TEXCOORD_0":47,"TEXCOORD_1":48},"indices":43,"material":1,"mode":4}]},{"name":"SM_Workbench_01_ConvexHulls","primitives":[{"attributes":{"NORMAL":51,"POSITION":50,"TEXCOORD_0":52,"TEXCOORD_1":53},"indices":49,"material":2,"mode":4}]}],"nodes":[{"children":[1,2,3,4,5],"name":"SM_Workbench_01_149","originalUnits":0.00999999977648258,"pivot":[0,0,0],"rotation":[0,0,0,1],"scale":[1,1,1],"translation":[0,0,0]},{"mesh":0,"name":"SM_Workbench_01_LOD0","originalUnits":0.00999999977648258,"pivot":[0,0,0],"rotation":[0,0,0,1],"scale":[1,1,1],"translation":[0,0,0]},{"mesh":4,"name":"SM_Workbench_01_ConvexHulls","originalUnits":0.00999999977648258,"pivot":[0,0,0],"rotation":[0,0,0,1],"scale":[1,1,1],"translation":[0,0,0]},{"mesh":1,"name":"SM_Workbench_01_LOD1","originalUnits":0.00999999977648258,"pivot":[0,0,0],"rotation":[0,0,0,1],"scale":[1,1,1],"translation":[0,0,0]},{"mesh":2,"name":"SM_Workbench_01_LOD2","originalUnits":0.00999999977648258,"pivot":[0,0,0],"rotation":[0,0,0,1],"scale":[1,1,1],"translation":[0,0,0]},{"mesh":3,"name":"SM_Workbench_01_LOD3","originalUnits":0.00999999977648258,"pivot":[0,0,0],"rotation":[0,0,0,1],"scale":[1,1,1],"translation":[0,0,0]}],"samplers":[{}],"scene":0,"scenes":[{"name":"Root Scene","nodes":[0]}],"textures":[{"name":"MI_WorkBench_04","sampler":0,"source":0},{"name":"MI_WorkBench_04","sampler":0,"source":1},{"name":"MI_WorkBenchClamp","sampler":0,"source":2},{"name":"MI_WorkBenchClamp","sampler":0,"source":3}]}