{"accessors":[{"bufferView":0,"byteOffset":0,"componentType":5126,"count":1,"max":[0],"min":[0],"type":"SCALAR"},{"bufferView":1,"byteOffset":0,"componentType":5123,"count":228,"type":"SCALAR"},{"bufferView":2,"byteOffset":0,"componentType":5126,"count":160,"max":[-0.22905983030796,3.93696331977844,3.352694272995],"min":[-0.26186722517014,2.89724779129028,-3.352694272995],"type":"VEC3"},{"bufferView":3,"byteOffset":0,"componentType":5126,"count":160,"type":"VEC3"},{"bufferView":4,"byteOffset":0,"componentType":5126,"count":160,"type":"VEC4"},{"bufferView":5,"byteOffset":0,"componentType":5126,"count":160,"type":"VEC2"},{"bufferView":6,"byteOffset":0,"componentType":5126,"count":160,"type":"VEC2"},{"bufferView":7,"byteOffset":0,"componentType":5123,"count":348,"type":"SCALAR"},{"bufferView":8,"byteOffset":0,"componentType":5126,"count":145,"max":[0.258034020662308,5,4.27242755889893],"min":[-0.25803366303444,0.000000912387577045592,-4.27242755889893],"type":"VEC3"},{"bufferView":9,"byteOffset":0,"componentType":5126,"count":145,"type":"VEC3"},{"bufferView":10,"byteOffset":0,"componentType":5126,"count":145,"type":"VEC4"},{"bufferView":11,"byteOffset":0,"componentType":5126,"count":145,"type":"VEC2"},{"bufferView":12,"byteOffset":0,"componentType":5126,"count":145,"type":"VEC2"},{"bufferView":13,"byteOffset":0,"componentType":5123,"count":330,"type":"SCALAR"},{"bufferView":14,"byteOffset":0,"componentType":5126,"count":139,"max":[0.258047163486481,5,4.27242755889893],"min":[-0.25803366303444,0.000000912387577045592,-4.27242755889893],"type":"VEC3"},{"bufferView":15,"byteOffset":0,"componentType":5126,"count":139,"type":"VEC3"},{"bufferView":16,"byteOffset":0,"componentType":5126,"count":139,"type":"VEC4"},{"bufferView":17,"byteOffset":0,"componentType":5126,"count":139,"type":"VEC2"},{"bufferView":18,"byteOffset":0,"componentType":5126,"count":139,"type":"VEC2"},{"bufferView":19,"byteOffset":0,"componentType":5123,"count":252,"type":"SCALAR"},{"bufferView":20,"byteOffset":0,"componentType":5126,"count":122,"max":[0.269915848970413,5.00464534759521,4.27242755889893],"min":[-0.25972574949264,0.000000912387577045592,-4.27242755889893],"type":"VEC3"},{"bufferView":21,"byteOffset":0,"componentType":5126,"count":122,"type":"VEC3"},{"bufferView":22,"byteOffset":0,"componentType":5126,"count":122,"type":"VEC4"},{"bufferView":23,"byteOffset":0,"componentType":5126,"count":122,"type":"VEC2"},{"bufferView":24,"byteOffset":0,"componentType":5126,"count":122,"type":"VEC2"},{"bufferView":25,"byteOffset":0,"componentType":5123,"count":117,"type":"SCALAR"},{"bufferView":26,"byteOffset":0,"componentType":5126,"count":73,"max":[0.278780311346054,5.00464534759521,4.27242755889893],"min":[-0.32329025864601,0.000000912387577045592,-4.27242755889893],"type":"VEC3"},{"bufferView":27,"byteOffset":0,"componentType":5126,"count":73,"type":"VEC3"},{"bufferView":28,"byteOffset":0,"componentType":5126,"count":73,"type":"VEC4"},{"bufferView":29,"byteOffset":0,"componentType":5126,"count":73,"type":"VEC2"},{"bufferView":30,"byteOffset":0,"componentType":5126,"count":73,"type":"VEC2"},{"bufferView":31,"byteOffset":0,"componentType":5123,"count":660,"type":"SCALAR"},{"bufferView":32,"byteOffset":0,"componentType":5126,"count":424,"max":[0.258033961057663,3.9260790348053,3.352694272995],"min":[-0.25803360342979,2.91233944892883,-3.352694272995],"type":"VEC3"},{"bufferView":33,"byteOffset":0,"componentType":5126,"count":424,"type":"VEC3"},{"bufferView":34,"byteOffset":0,"componentType":5126,"count":424,"type":"VEC4"},{"bufferView":35,"byteOffset":0,"componentType":5126,"count":424,"type":"VEC2"},{"bufferView":36,"byteOffset":0,"componentType":5126,"count":424,"type":"VEC2"},{"bufferView":37,"byteOffset":0,"componentType":5123,"count":594,"type":"SCALAR"},{"bufferView":38,"byteOffset":0,"componentType":5126,"count":386,"max":[0.258047163486481,3.9260790348053,3.352694272995],"min":[-0.25803360342979,2.91233944892883,-3.352694272995],"type":"VEC3"},{"bufferView":39,"byteOffset":0,"componentType":5126,"count":386,"type":"VEC3"},{"bufferView":40,"byteOffset":0,"componentType":5126,"count":386,"type":"VEC4"},{"bufferView":41,"byteOffset":0,"componentType":5126,"count":386,"type":"VEC2"},{"bufferView":42,"byteOffset":0,"componentType":5126,"count":386,"type":"VEC2"},{"bufferView":43,"byteOffset":0,"componentType":5123,"count":366,"type":"SCALAR"},{"bufferView":44,"byteOffset":0,"componentType":5126,"count":256,"max":[0.269915848970413,3.9260790348053,3.3340470790863],"min":[-0.27206248044968,2.91233944892883,-3.3340470790863],"type":"VEC3"},{"bufferView":45,"byteOffset":0,"componentType":5126,"count":256,"type":"VEC3"},{"bufferView":46,"byteOffset":0,"componentType":5126,"count":256,"type":"VEC4"},{"bufferView":47,"byteOffset":0,"componentType":5126,"count":256,"type":"VEC2"},{"bufferView":48,"byteOffset":0,"componentType":5126,"count":256,"type":"VEC2"},{"bufferView":49,"byteOffset":0,"componentType":5123,"count":39,"type":"SCALAR"},{"bufferView":50,"byteOffset":0,"componentType":5126,"count":31,"max":[0.278780311346054,3.81578969955444,3.25697708129883],"min":[-0.32329025864601,2.91233944892883,-3.2569797039032],"type":"VEC3"},{"bufferView":51,"byteOffset":0,"componentType":5126,"count":31,"type":"VEC3"},{"bufferView":52,"byteOffset":0,"componentType":5126,"count":31,"type":"VEC4"},{"bufferView":53,"byteOffset":0,"componentType":5126,"count":31,"type":"VEC2"},{"bufferView":54,"byteOffset":0,"componentType":5126,"count":31,"type":"VEC2"},{"bufferView":55,"byteOffset":0,"componentType":5123,"count":84,"type":"SCALAR"},{"bufferView":56,"byteOffset":0,"componentType":5126,"count":16,"max":[0.258892029523849,5.00124979019165,4.27342748641968],"min":[-0.26374861598015,-0.00125000311527,-4.27342748641968],"type":"VEC3"},{"bufferView":57,"byteOffset":0,"componentType":5126,"count":16,"type":"VEC3"},{"bufferView":58,"byteOffset":0,"componentType":5126,"count":16,"type":"VEC2"},{"bufferView":59,"byteOffset":0,"componentType":5126,"count":16,"type":"VEC2"}],"animations":[{"channels":[],"name":"Unreal Take","samplers":[]}],"asset":{"generator":"FBX2glTF v0.13.0","version":"2.0"},"bufferViews":[{"buffer":0,"byteLength":4,"byteOffset":0},{"buffer":0,"byteLength":456,"byteOffset":4,"target":34963},{"buffer":0,"byteLength":1920,"byteOffset":460,"target":34962},{"buffer":0,"byteLength":1920,"byteOffset":2380,"target":34962},{"buffer":0,"byteLength":2560,"byteOffset":4300,"target":34962},{"buffer":0,"byteLength":1280,"byteOffset":6860,"target":34962},{"buffer":0,"byteLength":1280,"byteOffset":8140,"target":34962},{"buffer":0,"byteLength":696,"byteOffset":9420,"target":34963},{"buffer":0,"byteLength":1740,"byteOffset":10116,"target":34962},{"buffer":0,"byteLength":1740,"byteOffset":11856,"target":34962},{"buffer":0,"byteLength":2320,"byteOffset":13596,"target":34962},{"buffer":0,"byteLength":1160,"byteOffset":15916,"target":34962},{"buffer":0,"byteLength":1160,"byteOffset":17076,"target":34962},{"buffer":0,"byteLength":660,"byteOffset":18236,"target":34963},{"buffer":0,"byteLength":1668,"byteOffset":18896,"target":34962},{"buffer":0,"byteLength":1668,"byteOffset":20564,"target":34962},{"buffer":0,"byteLength":2224,"byteOffset":22232,"target":34962},{"buffer":0,"byteLength":1112,"byteOffset":24456,"target":34962},{"buffer":0,"byteLength":1112,"byteOffset":25568,"target":34962},{"buffer":0,"byteLength":504,"byteOffset":26680,"target":34963},{"buffer":0,"byteLength":1464,"byteOffset":27184,"target":34962},{"buffer":0,"byteLength":1464,"byteOffset":28648,"target":34962},{"buffer":0,"byteLength":1952,"byteOffset":30112,"target":34962},{"buffer":0,"byteLength":976,"byteOffset":32064,"target":34962},{"buffer":0,"byteLength":976,"byteOffset":33040,"target":34962},{"buffer":0,"byteLength":234,"byteOffset":34016,"target":34963},{"buffer":0,"byteLength":876,"byteOffset":34252,"target":34962},{"buffer":0,"byteLength":876,"byteOffset":35128,"target":34962},{"buffer":0,"byteLength":1168,"byteOffset":36004,"target":34962},{"buffer":0,"byteLength":584,"byteOffset":37172,"target":34962},{"buffer":0,"byteLength":584,"byteOffset":37756,"target":34962},{"buffer":0,"byteLength":1320,"byteOffset":38340,"target":34963},{"buffer":0,"byteLength":5088,"byteOffset":39660,"target":34962},{"buffer":0,"byteLength":5088,"byteOffset":44748,"target":34962},{"buffer":0,"byteLength":6784,"byteOffset":49836,"target":34962},{"buffer":0,"byteLength":3392,"byteOffset":56620,"target":34962},{"buffer":0,"byteLength":3392,"byteOffset":60012,"target":34962},{"buffer":0,"byteLength":1188,"byteOffset":63404,"target":34963},{"buffer":0,"byteLength":4632,"byteOffset":64592,"target":34962},{"buffer":0,"byteLength":4632,"byteOffset":69224,"target":34962},{"buffer":0,"byteLength":6176,"byteOffset":73856,"target":34962},{"buffer":0,"byteLength":3088,"byteOffset":80032,"target":34962},{"buffer":0,"byteLength":3088,"byteOffset":83120,"target":34962},{"buffer":0,"byteLength":732,"byteOffset":86208,"target":34963},{"buffer":0,"byteLength":3072,"byteOffset":86940,"target":34962},{"buffer":0,"byteLength":3072,"byteOffset":90012,"target":34962},{"buffer":0,"byteLength":4096,"byteOffset":93084,"target":34962},{"buffer":0,"byteLength":2048,"byteOffset":97180,"target":34962},{"buffer":0,"byteLength":2048,"byteOffset":99228,"target":34962},{"buffer":0,"byteLength":78,"byteOffset":101276,"target":34963},{"buffer":0,"byteLength":372,"byteOffset":101356,"target":34962},{"buffer":0,"byteLength":372,"byteOffset":101728,"target":34962},{"buffer":0,"byteLength":496,"byteOffset":102100,"target":34962},{"buffer":0,"byteLength":248,"byteOffset":102596,"target":34962},{"buffer":0,"byteLength":248,"byteOffset":102844,"target":34962},{"buffer":0,"byteLength":168,"byteOffset":103092,"target":34963},{"buffer":0,"byteLength":192,"byteOffset":103260,"target":34962},{"buffer":0,"byteLength":192,"byteOffset":103452,"target":34962},{"buffer":0,"byteLength":128,"byteOffset":103644,"target":34962},{"buffer":0,"byteLength":128,"byteOffset":103772,"target":34962}],"buffers":[{"byteLength":103900,"uri":"SM_Wall_01.bin"}],"images":[{"name":"T_Default_Material_Grid_N","uri":"T_Default_Material_Grid_N.png"},{"name":"T_Default_Material_Grid_M","uri":"T_Default_Material_Grid_M.png"},{"name":"T_Bricks_N","uri":"T_Bricks_N.png"},{"name":"T_Bricks_B","uri":"T_Bricks_B.png"},{"name":"T_Bricks_N 1","uri":"T_Bricks_N.png"},{"name":"T_Bricks_B 1","uri":"T_Bricks_B.png"}],"materials":[{"alphaMode":"OPAQUE","doubleSided":false,"extras":{"fromFBX":{"isTruePBR":false,"shadingModel":"Phong"}},"name":"WorldGridMaterial","normalTexture":{"index":0,"texCoord":0},"pbrMetallicRoughness":{"baseColorFactor":[1,1,1,1],"baseColorTexture":{"index":1,"texCoord":0},"metallicFactor":0.400000005960464,"roughnessFactor":0.301511347293854}},{"alphaMode":"OPAQUE","doubleSided":false,"extras":{"fromFBX":{"isTruePBR":false,"shadingModel":"Phong"}},"name":"MI_Brick_01","normalTexture":{"index":2,"texCoord":0},"pbrMetallicRoughness":{"baseColorFactor":[1,1,1,1],"baseColorTexture":{"index":3,"texCoord":0},"metallicFactor":0.400000005960464,"roughnessFactor":0.301511347293854}},{"alphaMode":"OPAQUE","doubleSided":false,"extras":{"fromFBX":{"isTruePBR":false,"shadingModel":"Phong"}},"name":"MI_Brick_02","normalTexture":{"index":4,"texCoord":0},"pbrMetallicRoughness":{"baseColorFactor":[1,1,1,1],"baseColorTexture":{"index":5,"texCoord":0},"metallicFactor":0.400000005960464,"roughnessFactor":0.301511347293854}},{"alphaMode":"OPAQUE","doubleSided":false,"extras":{"fromFBX":{"isTruePBR":false,"shadingModel":"Lambert"}},"name":"DefaultMaterial","pbrMetallicRoughness":{"baseColorFactor":[0.5,0.5,0.5,1],"metallicFactor":0.200000002980232,"roughnessFactor":0.800000011920929}}],"meshes":[{"name":"SM_Wall_01_LOD0","primitives":[{"attributes":{"NORMAL":3,"POSITION":2,"TANGENT":4,"TEXCOORD_0":5,"TEXCOORD_1":6},"indices":1,"material":0,"mode":4},{"attributes":{"NORMAL":9,"POSITION":8,"TANGENT":10,"TEXCOORD_0":11,"TEXCOORD_1":12},"indices":7,"material":1,"mode":4},{"attributes":{"NORMAL":33,"POSITION":32,"TANGENT":34,"TEXCOORD_0":35,"TEXCOORD_1":36},"indices":31,"material":2,"mode":4}]},{"name":"SM_Wall_01_LOD1","primitives":[{"attributes":{"NORMAL":15,"POSITION":14,"TANGENT":16,"TEXCOORD_0":17,"TEXCOORD_1":18},"indices":13,"material":1,"mode":4},{"attributes":{"NORMAL":39,"POSITION":38,"TANGENT":40,"TEXCOORD_0":41,"TEXCOORD_1":42},"indices":37,"material":2,"mode":4}]},{"name":"SM_Wall_01_LOD2","primitives":[{"attributes":{"NORMAL":21,"POSITION":20,"TANGENT":22,"TEXCOORD_0":23,"TEXCOORD_1":24},"indices":19,"material":1,"mode":4},{"attributes":{"NORMAL":45,"POSITION":44,"TANGENT":46,"TEXCOORD_0":47,"TEXCOORD_1":48},"indices":43,"material":2,"mode":4}]},{"name":"SM_Wall_01_LOD3","primitives":[{"attributes":{"NORMAL":27,"POSITION":26,"TANGENT":28,"TEXCOORD_0":29,"TEXCOORD_1":30},"indices":25,"material":1,"mode":4},{"attributes":{"NORMAL":51,"POSITION":50,"TANGENT":52,"TEXCOORD_0":53,"TEXCOORD_1":54},"indices":49,"material":2,"mode":4}]},{"name":"SM_Wall_01_ConvexHulls","primitives":[{"attributes":{"NORMAL":57,"POSITION":56,"TEXCOORD_0":58,"TEXCOORD_1":59},"indices":55,"material":3,"mode":4}]}],"nodes":[{"children":[1,2,3,4,5],"name":"SM_Wall_01_132","originalUnits":0.00999999977648258,"pivot":[0,0,0],"rotation":[0,0,0,1],"scale":[1,1,1],"translation":[0,0,0]},{"mesh":0,"name":"SM_Wall_01_LOD0","originalUnits":0.00999999977648258,"pivot":[0,0,0],"rotation":[0,0,0,1],"scale":[1,1,1],"translation":[0,0,0]},{"mesh":4,"name":"SM_Wall_01_ConvexHulls","originalUnits":0.00999999977648258,"pivot":[0,0,0],"rotation":[0,0,0,1],"scale":[1,1,1],"translation":[0,0,0]},{"mesh":1,"name":"SM_Wall_01_LOD1","originalUnits":0.00999999977648258,"pivot":[0,0,0],"rotation":[0,0,0,1],"scale":[1,1,1],"translation":[0,0,0]},{"mesh":2,"name":"SM_Wall_01_LOD2","originalUnits":0.00999999977648258,"pivot":[0,0,0],"rotation":[0,0,0,1],"scale":[1,1,1],"translation":[0,0,0]},{"mesh":3,"name":"SM_Wall_01_LOD3","originalUnits":0.00999999977648258,"pivot":[0,0,0],"rotation":[0,0,0,1],"scale":[1,1,1],"translation":[0,0,0]}],"samplers":[{}],"scene":0,"scenes":[{"name":"Root Scene","nodes":[0]}],"textures":[{"name":"WorldGridMaterial","sampler":0,"source":0},{"name":"WorldGridMaterial","sampler":0,"source":1},{"name":"MI_Brick_01","sampler":0,"source":2},{"name":"MI_Brick_01","sampler":0,"source":3},{"name":"MI_Brick_02","sampler":0,"source":4},{"name":"MI_Brick_02","sampler":0,"source":5}]}