{"accessors":[{"bufferView":0,"byteOffset":0,"componentType":5126,"count":1,"max":[0],"min":[0],"type":"SCALAR"},{"bufferView":1,"byteOffset":0,"componentType":5123,"count":288,"type":"SCALAR"},{"bufferView":2,"byteOffset":0,"componentType":5126,"count":124,"max":[0.00000000953675005632704,0.00927554257214069,0.00927551090717316],"min":[-0.08478806912899,-0.00927557330579,-0.00927551370114],"type":"VEC3"},{"bufferView":3,"byteOffset":0,"componentType":5126,"count":124,"type":"VEC3"},{"bufferView":4,"byteOffset":0,"componentType":5126,"count":124,"type":"VEC4"},{"bufferView":5,"byteOffset":0,"componentType":5126,"count":124,"type":"VEC2"},{"bufferView":6,"byteOffset":0,"componentType":5126,"count":124,"type":"VEC2"},{"bufferView":7,"byteOffset":0,"componentType":5123,"count":216,"type":"SCALAR"},{"bufferView":8,"byteOffset":0,"componentType":5126,"count":104,"max":[0.00094156479462981,0.00932275783270597,0.00927551090717316],"min":[-0.08478806912899,-0.0096143335104,-0.00927551370114],"type":"VEC3"},{"bufferView":9,"byteOffset":0,"componentType":5126,"count":104,"type":"VEC3"},{"bufferView":10,"byteOffset":0,"componentType":5126,"count":104,"type":"VEC4"},{"bufferView":11,"byteOffset":0,"componentType":5126,"count":104,"type":"VEC2"},{"bufferView":12,"byteOffset":0,"componentType":5126,"count":104,"type":"VEC2"},{"bufferView":13,"byteOffset":0,"componentType":5123,"count":144,"type":"SCALAR"},{"bufferView":14,"byteOffset":0,"componentType":5126,"count":74,"max":[0.00094156479462981,0.00971371121704578,0.00881204567849636],"min":[-0.08503349125385,-0.0096143335104,-0.0083175599575],"type":"VEC3"},{"bufferView":15,"byteOffset":0,"componentType":5126,"count":74,"type":"VEC3"},{"bufferView":16,"byteOffset":0,"componentType":5126,"count":74,"type":"VEC4"},{"bufferView":17,"byteOffset":0,"componentType":5126,"count":74,"type":"VEC2"},{"bufferView":18,"byteOffset":0,"componentType":5126,"count":74,"type":"VEC2"},{"bufferView":19,"byteOffset":0,"componentType":5123,"count":36,"type":"SCALAR"},{"bufferView":20,"byteOffset":0,"componentType":5126,"count":26,"max":[0.0011317937169224,0.00609831139445305,0.00705637875944376],"min":[-0.08478806167841,-0.00576847558841,-0.00677655823529],"type":"VEC3"},{"bufferView":21,"byteOffset":0,"componentType":5126,"count":26,"type":"VEC3"},{"bufferView":22,"byteOffset":0,"componentType":5126,"count":26,"type":"VEC4"},{"bufferView":23,"byteOffset":0,"componentType":5126,"count":26,"type":"VEC2"},{"bufferView":24,"byteOffset":0,"componentType":5126,"count":26,"type":"VEC2"},{"bufferView":25,"byteOffset":0,"componentType":5123,"count":168,"type":"SCALAR"},{"bufferView":26,"byteOffset":0,"componentType":5126,"count":32,"max":[0.00026619379059411,0.00909413676708937,0.00920029822736979],"min":[-0.08467951416969,-0.00920455064625,-0.00926940795034],"type":"VEC3"},{"bufferView":27,"byteOffset":0,"componentType":5126,"count":32,"type":"VEC3"},{"bufferView":28,"byteOffset":0,"componentType":5126,"count":32,"type":"VEC2"},{"bufferView":29,"byteOffset":0,"componentType":5126,"count":32,"type":"VEC2"}],"animations":[{"channels":[],"name":"Unreal Take","samplers":[]}],"asset":{"generator":"FBX2glTF v0.13.0","version":"2.0"},"bufferViews":[{"buffer":0,"byteLength":4,"byteOffset":0},{"buffer":0,"byteLength":576,"byteOffset":4,"target":34963},{"buffer":0,"byteLength":1488,"byteOffset":580,"target":34962},{"buffer":0,"byteLength":1488,"byteOffset":2068,"target":34962},{"buffer":0,"byteLength":1984,"byteOffset":3556,"target":34962},{"buffer":0,"byteLength":992,"byteOffset":5540,"target":34962},{"buffer":0,"byteLength":992,"byteOffset":6532,"target":34962},{"buffer":0,"byteLength":432,"byteOffset":7524,"target":34963},{"buffer":0,"byteLength":1248,"byteOffset":7956,"target":34962},{"buffer":0,"byteLength":1248,"byteOffset":9204,"target":34962},{"buffer":0,"byteLength":1664,"byteOffset":10452,"target":34962},{"buffer":0,"byteLength":832,"byteOffset":12116,"target":34962},{"buffer":0,"byteLength":832,"byteOffset":12948,"target":34962},{"buffer":0,"byteLength":288,"byteOffset":13780,"target":34963},{"buffer":0,"byteLength":888,"byteOffset":14068,"target":34962},{"buffer":0,"byteLength":888,"byteOffset":14956,"target":34962},{"buffer":0,"byteLength":1184,"byteOffset":15844,"target":34962},{"buffer":0,"byteLength":592,"byteOffset":17028,"target":34962},{"buffer":0,"byteLength":592,"byteOffset":17620,"target":34962},{"buffer":0,"byteLength":72,"byteOffset":18212,"target":34963},{"buffer":0,"byteLength":312,"byteOffset":18284,"target":34962},{"buffer":0,"byteLength":312,"byteOffset":18596,"target":34962},{"buffer":0,"byteLength":416,"byteOffset":18908,"target":34962},{"buffer":0,"byteLength":208,"byteOffset":19324,"target":34962},{"buffer":0,"byteLength":208,"byteOffset":19532,"target":34962},{"buffer":0,"byteLength":336,"byteOffset":19740,"target":34963},{"buffer":0,"byteLength":384,"byteOffset":20076,"target":34962},{"buffer":0,"byteLength":384,"byteOffset":20460,"target":34962},{"buffer":0,"byteLength":256,"byteOffset":20844,"target":34962},{"buffer":0,"byteLength":256,"byteOffset":21100,"target":34962}],"buffers":[{"byteLength":21356,"uri":"SM_Wooden_Peg.bin"}],"images":[{"name":"T_Woodprops_02_N","uri":"T_Woodprops_02_N.png"},{"name":"T_Woodprops_02_B","uri":"T_Woodprops_02_B.png"}],"materials":[{"alphaMode":"OPAQUE","doubleSided":false,"extras":{"fromFBX":{"isTruePBR":false,"shadingModel":"Phong"}},"name":"MI_Brush_02","normalTexture":{"index":0,"texCoord":0},"pbrMetallicRoughness":{"baseColorFactor":[1,1,1,1],"baseColorTexture":{"index":1,"texCoord":0},"metallicFactor":0.400000005960464,"roughnessFactor":0.301511347293854}},{"alphaMode":"OPAQUE","doubleSided":false,"extras":{"fromFBX":{"isTruePBR":false,"shadingModel":"Lambert"}},"name":"DefaultMaterial","pbrMetallicRoughness":{"baseColorFactor":[0.5,0.5,0.5,1],"metallicFactor":0.200000002980232,"roughnessFactor":0.800000011920929}}],"meshes":[{"name":"SM_Wooden_Peg_LOD0","primitives":[{"attributes":{"NORMAL":3,"POSITION":2,"TANGENT":4,"TEXCOORD_0":5,"TEXCOORD_1":6},"indices":1,"material":0,"mode":4}]},{"name":"SM_Wooden_Peg_LOD1","primitives":[{"attributes":{"NORMAL":9,"POSITION":8,"TANGENT":10,"TEXCOORD_0":11,"TEXCOORD_1":12},"indices":7,"material":0,"mode":4}]},{"name":"SM_Wooden_Peg_LOD2","primitives":[{"attributes":{"NORMAL":15,"POSITION":14,"TANGENT":16,"TEXCOORD_0":17,"TEXCOORD_1":18},"indices":13,"material":0,"mode":4}]},{"name":"SM_Wooden_Peg_LOD3","primitives":[{"attributes":{"NORMAL":21,"POSITION":20,"TANGENT":22,"TEXCOORD_0":23,"TEXCOORD_1":24},"indices":19,"material":0,"mode":4}]},{"name":"SM_Wooden_Peg_ConvexHulls","primitives":[{"attributes":{"NORMAL":27,"POSITION":26,"TEXCOORD_0":28,"TEXCOORD_1":29},"indices":25,"material":1,"mode":4}]}],"nodes":[{"children":[1,2,3,4,5],"name":"SM_Wooden_Peg_147","originalUnits":0.00999999977648258,"pivot":[0,0,0],"rotation":[0,0,0,1],"scale":[1,1,1],"translation":[0,0,0]},{"mesh":0,"name":"SM_Wooden_Peg_LOD0","originalUnits":0.00999999977648258,"pivot":[0,0,0],"rotation":[0,0,0,1],"scale":[1,1,1],"translation":[0,0,0]},{"mesh":4,"name":"SM_Wooden_Peg_ConvexHulls","originalUnits":0.00999999977648258,"pivot":[0,0,0],"rotation":[0,0,0,1],"scale":[1,1,1],"translation":[0,0,0]},{"mesh":1,"name":"SM_Wooden_Peg_LOD1","originalUnits":0.00999999977648258,"pivot":[0,0,0],"rotation":[0,0,0,1],"scale":[1,1,1],"translation":[0,0,0]},{"mesh":2,"name":"SM_Wooden_Peg_LOD2","originalUnits":0.00999999977648258,"pivot":[0,0,0],"rotation":[0,0,0,1],"scale":[1,1,1],"translation":[0,0,0]},{"mesh":3,"name":"SM_Wooden_Peg_LOD3","originalUnits":0.00999999977648258,"pivot":[0,0,0],"rotation":[0,0,0,1],"scale":[1,1,1],"translation":[0,0,0]}],"samplers":[{}],"scene":0,"scenes":[{"name":"Root Scene","nodes":[0]}],"textures":[{"name":"MI_Brush_02","sampler":0,"source":0},{"name":"MI_Brush_02","sampler":0,"source":1}]}