{"accessors":[{"bufferView":0,"byteOffset":0,"componentType":5126,"count":1,"max":[0],"min":[0],"type":"SCALAR"},{"bufferView":1,"byteOffset":0,"componentType":5123,"count":3024,"type":"SCALAR"},{"bufferView":2,"byteOffset":0,"componentType":5126,"count":812,"max":[0.0629910826683044,0.848596274852753,0.831743061542511],"min":[-0.05961263924837,-0.85486257076263,-0.83174365758896],"type":"VEC3"},{"bufferView":3,"byteOffset":0,"componentType":5126,"count":812,"type":"VEC3"},{"bufferView":4,"byteOffset":0,"componentType":5126,"count":812,"type":"VEC4"},{"bufferView":5,"byteOffset":0,"componentType":5126,"count":812,"type":"VEC2"},{"bufferView":6,"byteOffset":0,"componentType":5126,"count":812,"type":"VEC2"},{"bufferView":7,"byteOffset":0,"componentType":5123,"count":2250,"type":"SCALAR"},{"bufferView":8,"byteOffset":0,"componentType":5126,"count":661,"max":[0.0630219206213951,0.848596274852753,0.831743061542511],"min":[-0.05964348092675,-0.85486257076263,-0.83174365758896],"type":"VEC3"},{"bufferView":9,"byteOffset":0,"componentType":5126,"count":661,"type":"VEC3"},{"bufferView":10,"byteOffset":0,"componentType":5126,"count":661,"type":"VEC4"},{"bufferView":11,"byteOffset":0,"componentType":5126,"count":661,"type":"VEC2"},{"bufferView":12,"byteOffset":0,"componentType":5126,"count":661,"type":"VEC2"},{"bufferView":13,"byteOffset":0,"componentType":5123,"count":1494,"type":"SCALAR"},{"bufferView":14,"byteOffset":0,"componentType":5126,"count":483,"max":[0.0629910826683044,0.848596274852753,0.831743061542511],"min":[-0.05961263924837,-0.85486257076263,-0.83174365758896],"type":"VEC3"},{"bufferView":15,"byteOffset":0,"componentType":5126,"count":483,"type":"VEC3"},{"bufferView":16,"byteOffset":0,"componentType":5126,"count":483,"type":"VEC4"},{"bufferView":17,"byteOffset":0,"componentType":5126,"count":483,"type":"VEC2"},{"bufferView":18,"byteOffset":0,"componentType":5126,"count":483,"type":"VEC2"},{"bufferView":19,"byteOffset":0,"componentType":5123,"count":318,"type":"SCALAR"},{"bufferView":20,"byteOffset":0,"componentType":5126,"count":138,"max":[0.0881895050406456,0.846807777881622,0.831743061542511],"min":[-0.08481098711491,-0.8530740737915,-0.83174365758896],"type":"VEC3"},{"bufferView":21,"byteOffset":0,"componentType":5126,"count":138,"type":"VEC3"},{"bufferView":22,"byteOffset":0,"componentType":5126,"count":138,"type":"VEC4"},{"bufferView":23,"byteOffset":0,"componentType":5126,"count":138,"type":"VEC2"},{"bufferView":24,"byteOffset":0,"componentType":5126,"count":138,"type":"VEC2"},{"bufferView":25,"byteOffset":0,"componentType":5123,"count":288,"type":"SCALAR"},{"bufferView":26,"byteOffset":0,"componentType":5126,"count":116,"max":[0.0235867854207754,0.770166635513306,0.754370093345642],"min":[0.0235865078866482,-0.77016663551331,-0.75437009334564],"type":"VEC3"},{"bufferView":27,"byteOffset":0,"componentType":5126,"count":116,"type":"VEC3"},{"bufferView":28,"byteOffset":0,"componentType":5126,"count":116,"type":"VEC4"},{"bufferView":29,"byteOffset":0,"componentType":5126,"count":116,"type":"VEC2"},{"bufferView":30,"byteOffset":0,"componentType":5123,"count":234,"type":"SCALAR"},{"bufferView":31,"byteOffset":0,"componentType":5126,"count":98,"max":[0.0235867854207754,0.770166635513306,0.754370093345642],"min":[0.0235865078866482,-0.77016663551331,-0.75437009334564],"type":"VEC3"},{"bufferView":32,"byteOffset":0,"componentType":5126,"count":98,"type":"VEC3"},{"bufferView":33,"byteOffset":0,"componentType":5126,"count":98,"type":"VEC4"},{"bufferView":34,"byteOffset":0,"componentType":5126,"count":98,"type":"VEC2"},{"bufferView":35,"byteOffset":0,"componentType":5123,"count":162,"type":"SCALAR"},{"bufferView":36,"byteOffset":0,"componentType":5126,"count":74,"max":[0.0235867854207754,0.770166635513306,0.754370093345642],"min":[0.0235865078866482,-0.77016663551331,-0.75437009334564],"type":"VEC3"},{"bufferView":37,"byteOffset":0,"componentType":5126,"count":74,"type":"VEC3"},{"bufferView":38,"byteOffset":0,"componentType":5126,"count":74,"type":"VEC4"},{"bufferView":39,"byteOffset":0,"componentType":5126,"count":74,"type":"VEC2"},{"bufferView":40,"byteOffset":0,"componentType":5123,"count":96,"type":"SCALAR"},{"bufferView":41,"byteOffset":0,"componentType":5126,"count":52,"max":[0.0235867835581303,0.770166635513306,0.754370093345642],"min":[0.0235865116119385,-0.77016663551331,-0.75437009334564],"type":"VEC3"},{"bufferView":42,"byteOffset":0,"componentType":5126,"count":52,"type":"VEC3"},{"bufferView":43,"byteOffset":0,"componentType":5126,"count":52,"type":"VEC4"},{"bufferView":44,"byteOffset":0,"componentType":5126,"count":52,"type":"VEC2"},{"bufferView":45,"byteOffset":0,"componentType":5123,"count":336,"type":"SCALAR"},{"bufferView":46,"byteOffset":0,"componentType":5126,"count":64,"max":[0.0687843263149261,0.854351162910461,0.842937707901001],"min":[-0.06936720013618,-0.86061751842499,-0.82597869634628],"type":"VEC3"},{"bufferView":47,"byteOffset":0,"componentType":5126,"count":64,"type":"VEC3"},{"bufferView":48,"byteOffset":0,"componentType":5126,"count":64,"type":"VEC2"},{"bufferView":49,"byteOffset":0,"componentType":5126,"count":64,"type":"VEC2"}],"animations":[{"channels":[],"name":"Unreal Take","samplers":[]}],"asset":{"generator":"FBX2glTF v0.13.0","version":"2.0"},"bufferViews":[{"buffer":0,"byteLength":4,"byteOffset":0},{"buffer":0,"byteLength":6048,"byteOffset":4,"target":34963},{"buffer":0,"byteLength":9744,"byteOffset":6052,"target":34962},{"buffer":0,"byteLength":9744,"byteOffset":15796,"target":34962},{"buffer":0,"byteLength":12992,"byteOffset":25540,"target":34962},{"buffer":0,"byteLength":6496,"byteOffset":38532,"target":34962},{"buffer":0,"byteLength":6496,"byteOffset":45028,"target":34962},{"buffer":0,"byteLength":4500,"byteOffset":51524,"target":34963},{"buffer":0,"byteLength":7932,"byteOffset":56024,"target":34962},{"buffer":0,"byteLength":7932,"byteOffset":63956,"target":34962},{"buffer":0,"byteLength":10576,"byteOffset":71888,"target":34962},{"buffer":0,"byteLength":5288,"byteOffset":82464,"target":34962},{"buffer":0,"byteLength":5288,"byteOffset":87752,"target":34962},{"buffer":0,"byteLength":2988,"byteOffset":93040,"target":34963},{"buffer":0,"byteLength":5796,"byteOffset":96028,"target":34962},{"buffer":0,"byteLength":5796,"byteOffset":101824,"target":34962},{"buffer":0,"byteLength":7728,"byteOffset":107620,"target":34962},{"buffer":0,"byteLength":3864,"byteOffset":115348,"target":34962},{"buffer":0,"byteLength":3864,"byteOffset":119212,"target":34962},{"buffer":0,"byteLength":636,"byteOffset":123076,"target":34963},{"buffer":0,"byteLength":1656,"byteOffset":123712,"target":34962},{"buffer":0,"byteLength":1656,"byteOffset":125368,"target":34962},{"buffer":0,"byteLength":2208,"byteOffset":127024,"target":34962},{"buffer":0,"byteLength":1104,"byteOffset":129232,"target":34962},{"buffer":0,"byteLength":1104,"byteOffset":130336,"target":34962},{"buffer":0,"byteLength":576,"byteOffset":131440,"target":34963},{"buffer":0,"byteLength":1392,"byteOffset":132016,"target":34962},{"buffer":0,"byteLength":1392,"byteOffset":133408,"target":34962},{"buffer":0,"byteLength":1856,"byteOffset":134800,"target":34962},{"buffer":0,"byteLength":928,"byteOffset":136656,"target":34962},{"buffer":0,"byteLength":468,"byteOffset":137584,"target":34963},{"buffer":0,"byteLength":1176,"byteOffset":138052,"target":34962},{"buffer":0,"byteLength":1176,"byteOffset":139228,"target":34962},{"buffer":0,"byteLength":1568,"byteOffset":140404,"target":34962},{"buffer":0,"byteLength":784,"byteOffset":141972,"target":34962},{"buffer":0,"byteLength":324,"byteOffset":142756,"target":34963},{"buffer":0,"byteLength":888,"byteOffset":143080,"target":34962},{"buffer":0,"byteLength":888,"byteOffset":143968,"target":34962},{"buffer":0,"byteLength":1184,"byteOffset":144856,"target":34962},{"buffer":0,"byteLength":592,"byteOffset":146040,"target":34962},{"buffer":0,"byteLength":192,"byteOffset":146632,"target":34963},{"buffer":0,"byteLength":624,"byteOffset":146824,"target":34962},{"buffer":0,"byteLength":624,"byteOffset":147448,"target":34962},{"buffer":0,"byteLength":832,"byteOffset":148072,"target":34962},{"buffer":0,"byteLength":416,"byteOffset":148904,"target":34962},{"buffer":0,"byteLength":672,"byteOffset":149320,"target":34963},{"buffer":0,"byteLength":768,"byteOffset":149992,"target":34962},{"buffer":0,"byteLength":768,"byteOffset":150760,"target":34962},{"buffer":0,"byteLength":512,"byteOffset":151528,"target":34962},{"buffer":0,"byteLength":512,"byteOffset":152040,"target":34962}],"buffers":[{"byteLength":152552,"uri":"SM_Window_Frame_03.bin"}],"images":[{"name":"T_WoodBase_N","uri":"T_WoodBase_N.png"},{"name":"T_WoodBase_B","uri":"T_WoodBase_B.png"},{"name":"T_Window_Frame_03_N","uri":"T_Window_Frame_03_N.png"},{"name":"T_Window_Frame_03_B","uri":"T_Window_Frame_03_B.png"}],"materials":[{"alphaMode":"OPAQUE","doubleSided":false,"extras":{"fromFBX":{"isTruePBR":false,"shadingModel":"Phong"}},"name":"MI_WindowFrame","normalTexture":{"index":0,"texCoord":0},"pbrMetallicRoughness":{"baseColorFactor":[1,1,1,1],"baseColorTexture":{"index":1,"texCoord":0},"metallicFactor":0.400000005960464,"roughnessFactor":0.301511347293854}},{"alphaMode":"OPAQUE","doubleSided":false,"extras":{"fromFBX":{"isTruePBR":false,"shadingModel":"Phong"}},"name":"MI_WindowGlass_03","normalTexture":{"index":2,"texCoord":0},"pbrMetallicRoughness":{"baseColorFactor":[1,1,1,1],"baseColorTexture":{"index":3,"texCoord":0},"metallicFactor":0.400000005960464,"roughnessFactor":0.301511347293854}},{"alphaMode":"OPAQUE","doubleSided":false,"extras":{"fromFBX":{"isTruePBR":false,"shadingModel":"Lambert"}},"name":"DefaultMaterial","pbrMetallicRoughness":{"baseColorFactor":[0.5,0.5,0.5,1],"metallicFactor":0.200000002980232,"roughnessFactor":0.800000011920929}}],"meshes":[{"name":"SM_Window_Frame_03_LOD0","primitives":[{"attributes":{"NORMAL":3,"POSITION":2,"TANGENT":4,"TEXCOORD_0":5,"TEXCOORD_1":6},"indices":1,"material":0,"mode":4},{"attributes":{"NORMAL":27,"POSITION":26,"TANGENT":28,"TEXCOORD_0":29},"indices":25,"material":1,"mode":4}]},{"name":"SM_Window_Frame_03_LOD1","primitives":[{"attributes":{"NORMAL":9,"POSITION":8,"TANGENT":10,"TEXCOORD_0":11,"TEXCOORD_1":12},"indices":7,"material":0,"mode":4},{"attributes":{"NORMAL":32,"POSITION":31,"TANGENT":33,"TEXCOORD_0":34},"indices":30,"material":1,"mode":4}]},{"name":"SM_Window_Frame_03_LOD2","primitives":[{"attributes":{"NORMAL":15,"POSITION":14,"TANGENT":16,"TEXCOORD_0":17,"TEXCOORD_1":18},"indices":13,"material":0,"mode":4},{"attributes":{"NORMAL":37,"POSITION":36,"TANGENT":38,"TEXCOORD_0":39},"indices":35,"material":1,"mode":4}]},{"name":"SM_Window_Frame_03_LOD3","primitives":[{"attributes":{"NORMAL":21,"POSITION":20,"TANGENT":22,"TEXCOORD_0":23,"TEXCOORD_1":24},"indices":19,"material":0,"mode":4},{"attributes":{"NORMAL":42,"POSITION":41,"TANGENT":43,"TEXCOORD_0":44},"indices":40,"material":1,"mode":4}]},{"name":"SM_Window_Frame_03_ConvexHulls","primitives":[{"attributes":{"NORMAL":47,"POSITION":46,"TEXCOORD_0":48,"TEXCOORD_1":49},"indices":45,"material":2,"mode":4}]}],"nodes":[{"children":[1,2,3,4,5],"name":"SM_Window_Frame_03_143","originalUnits":0.00999999977648258,"pivot":[0,0,0],"rotation":[0,0,0,1],"scale":[1,1,1],"translation":[0,0,0]},{"mesh":0,"name":"SM_Window_Frame_03_LOD0","originalUnits":0.00999999977648258,"pivot":[0,0,0],"rotation":[0,0,0,1],"scale":[1,1,1],"translation":[0,0,0]},{"mesh":4,"name":"SM_Window_Frame_03_ConvexHulls","originalUnits":0.00999999977648258,"pivot":[0,0,0],"rotation":[0,0,0,1],"scale":[1,1,1],"translation":[0,0,0]},{"mesh":1,"name":"SM_Window_Frame_03_LOD1","originalUnits":0.00999999977648258,"pivot":[0,0,0],"rotation":[0,0,0,1],"scale":[1,1,1],"translation":[0,0,0]},{"mesh":2,"name":"SM_Window_Frame_03_LOD2","originalUnits":0.00999999977648258,"pivot":[0,0,0],"rotation":[0,0,0,1],"scale":[1,1,1],"translation":[0,0,0]},{"mesh":3,"name":"SM_Window_Frame_03_LOD3","originalUnits":0.00999999977648258,"pivot":[0,0,0],"rotation":[0,0,0,1],"scale":[1,1,1],"translation":[0,0,0]}],"samplers":[{}],"scene":0,"scenes":[{"name":"Root Scene","nodes":[0]}],"textures":[{"name":"MI_WindowFrame","sampler":0,"source":0},{"name":"MI_WindowFrame","sampler":0,"source":1},{"name":"MI_WindowGlass_03","sampler":0,"source":2},{"name":"MI_WindowGlass_03","sampler":0,"source":3}]}