{"accessors":[{"bufferView":0,"byteOffset":0,"componentType":5126,"count":1,"max":[0],"min":[0],"type":"SCALAR"},{"bufferView":1,"byteOffset":0,"componentType":5123,"count":2220,"type":"SCALAR"},{"bufferView":2,"byteOffset":0,"componentType":5126,"count":675,"max":[0.13426972925663,0.430188357830048,0.277352899312973],"min":[-0.13426971435547,0.00000270066175289685,-0.27735289931297],"type":"VEC3"},{"bufferView":3,"byteOffset":0,"componentType":5126,"count":675,"type":"VEC3"},{"bufferView":4,"byteOffset":0,"componentType":5126,"count":675,"type":"VEC4"},{"bufferView":5,"byteOffset":0,"componentType":5126,"count":675,"type":"VEC2"},{"bufferView":6,"byteOffset":0,"componentType":5126,"count":675,"type":"VEC2"},{"bufferView":7,"byteOffset":0,"componentType":5123,"count":1662,"type":"SCALAR"},{"bufferView":8,"byteOffset":0,"componentType":5126,"count":546,"max":[0.13426972925663,0.430188357830048,0.277386873960495],"min":[-0.13426971435547,0.0000026228569822706,-0.27740862965584],"type":"VEC3"},{"bufferView":9,"byteOffset":0,"componentType":5126,"count":546,"type":"VEC3"},{"bufferView":10,"byteOffset":0,"componentType":5126,"count":546,"type":"VEC4"},{"bufferView":11,"byteOffset":0,"componentType":5126,"count":546,"type":"VEC2"},{"bufferView":12,"byteOffset":0,"componentType":5126,"count":546,"type":"VEC2"},{"bufferView":13,"byteOffset":0,"componentType":5123,"count":1110,"type":"SCALAR"},{"bufferView":14,"byteOffset":0,"componentType":5126,"count":403,"max":[0.134619161486626,0.430188357830048,0.277416527271271],"min":[-0.1346191316843,0.00000244657076109434,-0.27743637561798],"type":"VEC3"},{"bufferView":15,"byteOffset":0,"componentType":5126,"count":403,"type":"VEC3"},{"bufferView":16,"byteOffset":0,"componentType":5126,"count":403,"type":"VEC4"},{"bufferView":17,"byteOffset":0,"componentType":5126,"count":403,"type":"VEC2"},{"bufferView":18,"byteOffset":0,"componentType":5126,"count":403,"type":"VEC2"},{"bufferView":19,"byteOffset":0,"componentType":5123,"count":276,"type":"SCALAR"},{"bufferView":20,"byteOffset":0,"componentType":5126,"count":142,"max":[0.134301990270615,0.446095377206802,0.27825853228569],"min":[-0.13430193066597,0.00000244657076109434,-0.27914187312126],"type":"VEC3"},{"bufferView":21,"byteOffset":0,"componentType":5126,"count":142,"type":"VEC3"},{"bufferView":22,"byteOffset":0,"componentType":5126,"count":142,"type":"VEC4"},{"bufferView":23,"byteOffset":0,"componentType":5126,"count":142,"type":"VEC2"},{"bufferView":24,"byteOffset":0,"componentType":5126,"count":142,"type":"VEC2"},{"bufferView":25,"byteOffset":0,"componentType":5123,"count":294,"type":"SCALAR"},{"bufferView":26,"byteOffset":0,"componentType":5126,"count":57,"max":[0.139904946088791,0.431642949581146,0.280148714780807],"min":[-0.13426971435547,-0.0008988014888,-0.28009843826294],"type":"VEC3"},{"bufferView":27,"byteOffset":0,"componentType":5126,"count":57,"type":"VEC3"},{"bufferView":28,"byteOffset":0,"componentType":5126,"count":57,"type":"VEC2"},{"bufferView":29,"byteOffset":0,"componentType":5126,"count":57,"type":"VEC2"}],"animations":[{"channels":[],"name":"Unreal Take","samplers":[]}],"asset":{"generator":"FBX2glTF v0.13.0","version":"2.0"},"bufferViews":[{"buffer":0,"byteLength":4,"byteOffset":0},{"buffer":0,"byteLength":4440,"byteOffset":4,"target":34963},{"buffer":0,"byteLength":8100,"byteOffset":4444,"target":34962},{"buffer":0,"byteLength":8100,"byteOffset":12544,"target":34962},{"buffer":0,"byteLength":10800,"byteOffset":20644,"target":34962},{"buffer":0,"byteLength":5400,"byteOffset":31444,"target":34962},{"buffer":0,"byteLength":5400,"byteOffset":36844,"target":34962},{"buffer":0,"byteLength":3324,"byteOffset":42244,"target":34963},{"buffer":0,"byteLength":6552,"byteOffset":45568,"target":34962},{"buffer":0,"byteLength":6552,"byteOffset":52120,"target":34962},{"buffer":0,"byteLength":8736,"byteOffset":58672,"target":34962},{"buffer":0,"byteLength":4368,"byteOffset":67408,"target":34962},{"buffer":0,"byteLength":4368,"byteOffset":71776,"target":34962},{"buffer":0,"byteLength":2220,"byteOffset":76144,"target":34963},{"buffer":0,"byteLength":4836,"byteOffset":78364,"target":34962},{"buffer":0,"byteLength":4836,"byteOffset":83200,"target":34962},{"buffer":0,"byteLength":6448,"byteOffset":88036,"target":34962},{"buffer":0,"byteLength":3224,"byteOffset":94484,"target":34962},{"buffer":0,"byteLength":3224,"byteOffset":97708,"target":34962},{"buffer":0,"byteLength":552,"byteOffset":100932,"target":34963},{"buffer":0,"byteLength":1704,"byteOffset":101484,"target":34962},{"buffer":0,"byteLength":1704,"byteOffset":103188,"target":34962},{"buffer":0,"byteLength":2272,"byteOffset":104892,"target":34962},{"buffer":0,"byteLength":1136,"byteOffset":107164,"target":34962},{"buffer":0,"byteLength":1136,"byteOffset":108300,"target":34962},{"buffer":0,"byteLength":588,"byteOffset":109436,"target":34963},{"buffer":0,"byteLength":684,"byteOffset":110024,"target":34962},{"buffer":0,"byteLength":684,"byteOffset":110708,"target":34962},{"buffer":0,"byteLength":456,"byteOffset":111392,"target":34962},{"buffer":0,"byteLength":456,"byteOffset":111848,"target":34962}],"buffers":[{"byteLength":112304,"uri":"SM_Wood_Toolbox.bin"}],"images":[{"name":"T_Woodprops_02_N","uri":"T_Woodprops_02_N.png"},{"name":"T_Woodprops_02_B","uri":"T_Woodprops_02_B.png"}],"materials":[{"alphaMode":"OPAQUE","doubleSided":false,"extras":{"fromFBX":{"isTruePBR":false,"shadingModel":"Phong"}},"name":"MI_WoodenToolBox","normalTexture":{"index":0,"texCoord":0},"pbrMetallicRoughness":{"baseColorFactor":[1,1,1,1],"baseColorTexture":{"index":1,"texCoord":0},"metallicFactor":0.400000005960464,"roughnessFactor":0.301511347293854}},{"alphaMode":"OPAQUE","doubleSided":false,"extras":{"fromFBX":{"isTruePBR":false,"shadingModel":"Lambert"}},"name":"DefaultMaterial","pbrMetallicRoughness":{"baseColorFactor":[0.5,0.5,0.5,1],"metallicFactor":0.200000002980232,"roughnessFactor":0.800000011920929}}],"meshes":[{"name":"SM_Wood_Toolbox_LOD0","primitives":[{"attributes":{"NORMAL":3,"POSITION":2,"TANGENT":4,"TEXCOORD_0":5,"TEXCOORD_1":6},"indices":1,"material":0,"mode":4}]},{"name":"SM_Wood_Toolbox_LOD1","primitives":[{"attributes":{"NORMAL":9,"POSITION":8,"TANGENT":10,"TEXCOORD_0":11,"TEXCOORD_1":12},"indices":7,"material":0,"mode":4}]},{"name":"SM_Wood_Toolbox_LOD2","primitives":[{"attributes":{"NORMAL":15,"POSITION":14,"TANGENT":16,"TEXCOORD_0":17,"TEXCOORD_1":18},"indices":13,"material":0,"mode":4}]},{"name":"SM_Wood_Toolbox_LOD3","primitives":[{"attributes":{"NORMAL":21,"POSITION":20,"TANGENT":22,"TEXCOORD_0":23,"TEXCOORD_1":24},"indices":19,"material":0,"mode":4}]},{"name":"SM_Wood_Toolbox_ConvexHulls","primitives":[{"attributes":{"NORMAL":27,"POSITION":26,"TEXCOORD_0":28,"TEXCOORD_1":29},"indices":25,"material":1,"mode":4}]}],"nodes":[{"children":[1,2,3,4,5],"name":"SM_Wood_Toolbox_146","originalUnits":0.00999999977648258,"pivot":[0,0,0],"rotation":[0,0,0,1],"scale":[1,1,1],"translation":[0,0,0]},{"mesh":0,"name":"SM_Wood_Toolbox_LOD0","originalUnits":0.00999999977648258,"pivot":[0,0,0],"rotation":[0,0,0,1],"scale":[1,1,1],"translation":[0,0,0]},{"mesh":4,"name":"SM_Wood_Toolbox_ConvexHulls","originalUnits":0.00999999977648258,"pivot":[0,0,0],"rotation":[0,0,0,1],"scale":[1,1,1],"translation":[0,0,0]},{"mesh":1,"name":"SM_Wood_Toolbox_LOD1","originalUnits":0.00999999977648258,"pivot":[0,0,0],"rotation":[0,0,0,1],"scale":[1,1,1],"translation":[0,0,0]},{"mesh":2,"name":"SM_Wood_Toolbox_LOD2","originalUnits":0.00999999977648258,"pivot":[0,0,0],"rotation":[0,0,0,1],"scale":[1,1,1],"translation":[0,0,0]},{"mesh":3,"name":"SM_Wood_Toolbox_LOD3","originalUnits":0.00999999977648258,"pivot":[0,0,0],"rotation":[0,0,0,1],"scale":[1,1,1],"translation":[0,0,0]}],"samplers":[{}],"scene":0,"scenes":[{"name":"Root Scene","nodes":[0]}],"textures":[{"name":"MI_WoodenToolBox","sampler":0,"source":0},{"name":"MI_WoodenToolBox","sampler":0,"source":1}]}