{"accessors":[{"bufferView":0,"byteOffset":0,"componentType":5126,"count":1,"max":[0],"min":[0],"type":"SCALAR"},{"bufferView":1,"byteOffset":0,"componentType":5123,"count":5760,"type":"SCALAR"},{"bufferView":2,"byteOffset":0,"componentType":5126,"count":1247,"max":[0.125590205192566,0.110991954803467,0.110991969704628],"min":[-0.12559020519257,-0.11099198460579,-0.11099196970463],"type":"VEC3"},{"bufferView":3,"byteOffset":0,"componentType":5126,"count":1247,"type":"VEC3"},{"bufferView":4,"byteOffset":0,"componentType":5126,"count":1247,"type":"VEC4"},{"bufferView":5,"byteOffset":0,"componentType":5126,"count":1247,"type":"VEC2"},{"bufferView":6,"byteOffset":0,"componentType":5126,"count":1247,"type":"VEC2"},{"bufferView":7,"byteOffset":0,"componentType":5123,"count":4320,"type":"SCALAR"},{"bufferView":8,"byteOffset":0,"componentType":5126,"count":977,"max":[0.125647261738777,0.110991954803467,0.110991969704628],"min":[-0.12559020519257,-0.11099198460579,-0.11099196970463],"type":"VEC3"},{"bufferView":9,"byteOffset":0,"componentType":5126,"count":977,"type":"VEC3"},{"bufferView":10,"byteOffset":0,"componentType":5126,"count":977,"type":"VEC4"},{"bufferView":11,"byteOffset":0,"componentType":5126,"count":977,"type":"VEC2"},{"bufferView":12,"byteOffset":0,"componentType":5126,"count":977,"type":"VEC2"},{"bufferView":13,"byteOffset":0,"componentType":5123,"count":2880,"type":"SCALAR"},{"bufferView":14,"byteOffset":0,"componentType":5126,"count":653,"max":[0.125698193907738,0.110991954803467,0.111404098570347],"min":[-0.12573678791523,-0.11099198460579,-0.11177979409695],"type":"VEC3"},{"bufferView":15,"byteOffset":0,"componentType":5126,"count":653,"type":"VEC3"},{"bufferView":16,"byteOffset":0,"componentType":5126,"count":653,"type":"VEC4"},{"bufferView":17,"byteOffset":0,"componentType":5126,"count":653,"type":"VEC2"},{"bufferView":18,"byteOffset":0,"componentType":5126,"count":653,"type":"VEC2"},{"bufferView":19,"byteOffset":0,"componentType":5123,"count":720,"type":"SCALAR"},{"bufferView":20,"byteOffset":0,"componentType":5126,"count":211,"max":[0.126643896102905,0.112071417272091,0.113612852990627],"min":[-0.12920080125332,-0.12393718212843,-0.1125323176384],"type":"VEC3"},{"bufferView":21,"byteOffset":0,"componentType":5126,"count":211,"type":"VEC3"},{"bufferView":22,"byteOffset":0,"componentType":5126,"count":211,"type":"VEC4"},{"bufferView":23,"byteOffset":0,"componentType":5126,"count":211,"type":"VEC2"},{"bufferView":24,"byteOffset":0,"componentType":5126,"count":211,"type":"VEC2"},{"bufferView":25,"byteOffset":0,"componentType":5123,"count":336,"type":"SCALAR"},{"bufferView":26,"byteOffset":0,"componentType":5126,"count":64,"max":[0.124821223318577,0.109281435608864,0.1092768907547],"min":[-0.12541471421719,-0.1116760969162,-0.10636457055807],"type":"VEC3"},{"bufferView":27,"byteOffset":0,"componentType":5126,"count":64,"type":"VEC3"},{"bufferView":28,"byteOffset":0,"componentType":5126,"count":64,"type":"VEC2"},{"bufferView":29,"byteOffset":0,"componentType":5126,"count":64,"type":"VEC2"}],"animations":[{"channels":[],"name":"Unreal Take","samplers":[]}],"asset":{"generator":"FBX2glTF v0.13.0","version":"2.0"},"bufferViews":[{"buffer":0,"byteLength":4,"byteOffset":0},{"buffer":0,"byteLength":11520,"byteOffset":4,"target":34963},{"buffer":0,"byteLength":14964,"byteOffset":11524,"target":34962},{"buffer":0,"byteLength":14964,"byteOffset":26488,"target":34962},{"buffer":0,"byteLength":19952,"byteOffset":41452,"target":34962},{"buffer":0,"byteLength":9976,"byteOffset":61404,"target":34962},{"buffer":0,"byteLength":9976,"byteOffset":71380,"target":34962},{"buffer":0,"byteLength":8640,"byteOffset":81356,"target":34963},{"buffer":0,"byteLength":11724,"byteOffset":89996,"target":34962},{"buffer":0,"byteLength":11724,"byteOffset":101720,"target":34962},{"buffer":0,"byteLength":15632,"byteOffset":113444,"target":34962},{"buffer":0,"byteLength":7816,"byteOffset":129076,"target":34962},{"buffer":0,"byteLength":7816,"byteOffset":136892,"target":34962},{"buffer":0,"byteLength":5760,"byteOffset":144708,"target":34963},{"buffer":0,"byteLength":7836,"byteOffset":150468,"target":34962},{"buffer":0,"byteLength":7836,"byteOffset":158304,"target":34962},{"buffer":0,"byteLength":10448,"byteOffset":166140,"target":34962},{"buffer":0,"byteLength":5224,"byteOffset":176588,"target":34962},{"buffer":0,"byteLength":5224,"byteOffset":181812,"target":34962},{"buffer":0,"byteLength":1440,"byteOffset":187036,"target":34963},{"buffer":0,"byteLength":2532,"byteOffset":188476,"target":34962},{"buffer":0,"byteLength":2532,"byteOffset":191008,"target":34962},{"buffer":0,"byteLength":3376,"byteOffset":193540,"target":34962},{"buffer":0,"byteLength":1688,"byteOffset":196916,"target":34962},{"buffer":0,"byteLength":1688,"byteOffset":198604,"target":34962},{"buffer":0,"byteLength":672,"byteOffset":200292,"target":34963},{"buffer":0,"byteLength":768,"byteOffset":200964,"target":34962},{"buffer":0,"byteLength":768,"byteOffset":201732,"target":34962},{"buffer":0,"byteLength":512,"byteOffset":202500,"target":34962},{"buffer":0,"byteLength":512,"byteOffset":203012,"target":34962}],"buffers":[{"byteLength":203524,"uri":"SM_Wheel_middle.bin"}],"images":[{"name":"T_Woodprops_01_N","uri":"T_Woodprops_01_N.png"},{"name":"T_Woodprops_01_B","uri":"T_Woodprops_01_B.png"}],"materials":[{"alphaMode":"OPAQUE","doubleSided":false,"extras":{"fromFBX":{"isTruePBR":false,"shadingModel":"Phong"}},"name":"MI_Wheel","normalTexture":{"index":0,"texCoord":0},"pbrMetallicRoughness":{"baseColorFactor":[1,1,1,1],"baseColorTexture":{"index":1,"texCoord":0},"metallicFactor":0.400000005960464,"roughnessFactor":0.301511347293854}},{"alphaMode":"OPAQUE","doubleSided":false,"extras":{"fromFBX":{"isTruePBR":false,"shadingModel":"Lambert"}},"name":"DefaultMaterial","pbrMetallicRoughness":{"baseColorFactor":[0.5,0.5,0.5,1],"metallicFactor":0.200000002980232,"roughnessFactor":0.800000011920929}}],"meshes":[{"name":"SM_Wheel_middle_LOD0","primitives":[{"attributes":{"NORMAL":3,"POSITION":2,"TANGENT":4,"TEXCOORD_0":5,"TEXCOORD_1":6},"indices":1,"material":0,"mode":4}]},{"name":"SM_Wheel_middle_LOD1","primitives":[{"attributes":{"NORMAL":9,"POSITION":8,"TANGENT":10,"TEXCOORD_0":11,"TEXCOORD_1":12},"indices":7,"material":0,"mode":4}]},{"name":"SM_Wheel_middle_LOD2","primitives":[{"attributes":{"NORMAL":15,"POSITION":14,"TANGENT":16,"TEXCOORD_0":17,"TEXCOORD_1":18},"indices":13,"material":0,"mode":4}]},{"name":"SM_Wheel_middle_LOD3","primitives":[{"attributes":{"NORMAL":21,"POSITION":20,"TANGENT":22,"TEXCOORD_0":23,"TEXCOORD_1":24},"indices":19,"material":0,"mode":4}]},{"name":"SM_Wheel_middle_ConvexHulls","primitives":[{"attributes":{"NORMAL":27,"POSITION":26,"TEXCOORD_0":28,"TEXCOORD_1":29},"indices":25,"material":1,"mode":4}]}],"nodes":[{"children":[1,2,3,4,5],"name":"SM_Wheel_middle_138","originalUnits":0.00999999977648258,"pivot":[0,0,0],"rotation":[0,0,0,1],"scale":[1,1,1],"translation":[0,0,0]},{"mesh":0,"name":"SM_Wheel_middle_LOD0","originalUnits":0.00999999977648258,"pivot":[0,0,0],"rotation":[0,0,0,1],"scale":[1,1,1],"translation":[0,0,0]},{"mesh":4,"name":"SM_Wheel_middle_ConvexHulls","originalUnits":0.00999999977648258,"pivot":[0,0,0],"rotation":[0,0,0,1],"scale":[1,1,1],"translation":[0,0,0]},{"mesh":1,"name":"SM_Wheel_middle_LOD1","originalUnits":0.00999999977648258,"pivot":[0,0,0],"rotation":[0,0,0,1],"scale":[1,1,1],"translation":[0,0,0]},{"mesh":2,"name":"SM_Wheel_middle_LOD2","originalUnits":0.00999999977648258,"pivot":[0,0,0],"rotation":[0,0,0,1],"scale":[1,1,1],"translation":[0,0,0]},{"mesh":3,"name":"SM_Wheel_middle_LOD3","originalUnits":0.00999999977648258,"pivot":[0,0,0],"rotation":[0,0,0,1],"scale":[1,1,1],"translation":[0,0,0]}],"samplers":[{}],"scene":0,"scenes":[{"name":"Root Scene","nodes":[0]}],"textures":[{"name":"MI_Wheel","sampler":0,"source":0},{"name":"MI_Wheel","sampler":0,"source":1}]}