{"accessors":[{"bufferView":0,"byteOffset":0,"componentType":5126,"count":1,"max":[0],"min":[0],"type":"SCALAR"},{"bufferView":1,"byteOffset":0,"componentType":5123,"count":276,"type":"SCALAR"},{"bufferView":2,"byteOffset":0,"componentType":5126,"count":84,"max":[0.182719811797142,5,0.00255006994120777],"min":[-0.18271966278553,0.00000110403891540045,-6.89611434936523],"type":"VEC3"},{"bufferView":3,"byteOffset":0,"componentType":5126,"count":84,"type":"VEC3"},{"bufferView":4,"byteOffset":0,"componentType":5126,"count":84,"type":"VEC4"},{"bufferView":5,"byteOffset":0,"componentType":5126,"count":84,"type":"VEC2"},{"bufferView":6,"byteOffset":0,"componentType":5126,"count":84,"type":"VEC2"},{"bufferView":7,"byteOffset":0,"componentType":5123,"count":228,"type":"SCALAR"},{"bufferView":8,"byteOffset":0,"componentType":5126,"count":72,"max":[0.182720541954041,5.00041675567627,0.00255006994120777],"min":[-0.1827210187912,0.00000110403891540045,-6.89611434936523],"type":"VEC3"},{"bufferView":9,"byteOffset":0,"componentType":5126,"count":72,"type":"VEC3"},{"bufferView":10,"byteOffset":0,"componentType":5126,"count":72,"type":"VEC4"},{"bufferView":11,"byteOffset":0,"componentType":5126,"count":72,"type":"VEC2"},{"bufferView":12,"byteOffset":0,"componentType":5126,"count":72,"type":"VEC2"},{"bufferView":13,"byteOffset":0,"componentType":5123,"count":192,"type":"SCALAR"},{"bufferView":14,"byteOffset":0,"componentType":5126,"count":62,"max":[0.243947207927704,5.00041675567627,0.00255006994120777],"min":[-0.2058133482933,0.00000110403891540045,-6.89611434936523],"type":"VEC3"},{"bufferView":15,"byteOffset":0,"componentType":5126,"count":62,"type":"VEC3"},{"bufferView":16,"byteOffset":0,"componentType":5126,"count":62,"type":"VEC4"},{"bufferView":17,"byteOffset":0,"componentType":5126,"count":62,"type":"VEC2"},{"bufferView":18,"byteOffset":0,"componentType":5126,"count":62,"type":"VEC2"},{"bufferView":19,"byteOffset":0,"componentType":5123,"count":81,"type":"SCALAR"},{"bufferView":20,"byteOffset":0,"componentType":5126,"count":27,"max":[0.206740081310272,5.00041675567627,0.00255006994120777],"min":[-0.19845056533813,0.00000110403891540045,-6.89611434936523],"type":"VEC3"},{"bufferView":21,"byteOffset":0,"componentType":5126,"count":27,"type":"VEC3"},{"bufferView":22,"byteOffset":0,"componentType":5126,"count":27,"type":"VEC4"},{"bufferView":23,"byteOffset":0,"componentType":5126,"count":27,"type":"VEC2"},{"bufferView":24,"byteOffset":0,"componentType":5126,"count":27,"type":"VEC2"},{"bufferView":25,"byteOffset":0,"componentType":5123,"count":576,"type":"SCALAR"},{"bufferView":26,"byteOffset":0,"componentType":5126,"count":256,"max":[0.182719811797142,4.5990948677063,-2.23668241500854],"min":[-0.18271966278553,3.40001010894775,-4.65688180923462],"type":"VEC3"},{"bufferView":27,"byteOffset":0,"componentType":5126,"count":256,"type":"VEC3"},{"bufferView":28,"byteOffset":0,"componentType":5126,"count":256,"type":"VEC4"},{"bufferView":29,"byteOffset":0,"componentType":5126,"count":256,"type":"VEC2"},{"bufferView":30,"byteOffset":0,"componentType":5126,"count":256,"type":"VEC2"},{"bufferView":31,"byteOffset":0,"componentType":5123,"count":408,"type":"SCALAR"},{"bufferView":32,"byteOffset":0,"componentType":5126,"count":200,"max":[0.184893548488617,4.5990948677063,-2.23668241500854],"min":[-0.18489329516888,3.40001010894775,-4.65688180923462],"type":"VEC3"},{"bufferView":33,"byteOffset":0,"componentType":5126,"count":200,"type":"VEC3"},{"bufferView":34,"byteOffset":0,"componentType":5126,"count":200,"type":"VEC4"},{"bufferView":35,"byteOffset":0,"componentType":5126,"count":200,"type":"VEC2"},{"bufferView":36,"byteOffset":0,"componentType":5126,"count":200,"type":"VEC2"},{"bufferView":37,"byteOffset":0,"componentType":5123,"count":234,"type":"SCALAR"},{"bufferView":38,"byteOffset":0,"componentType":5126,"count":142,"max":[0.243947207927704,4.5990948677063,-2.23668241500854],"min":[-0.2058133482933,3.40066194534302,-4.65688180923462],"type":"VEC3"},{"bufferView":39,"byteOffset":0,"componentType":5126,"count":142,"type":"VEC3"},{"bufferView":40,"byteOffset":0,"componentType":5126,"count":142,"type":"VEC4"},{"bufferView":41,"byteOffset":0,"componentType":5126,"count":142,"type":"VEC2"},{"bufferView":42,"byteOffset":0,"componentType":5126,"count":142,"type":"VEC2"},{"bufferView":43,"byteOffset":0,"componentType":5123,"count":24,"type":"SCALAR"},{"bufferView":44,"byteOffset":0,"componentType":5126,"count":24,"max":[0.206740081310272,4.591628074646,-2.67462253570557],"min":[-0.19845056533813,3.85450124740601,-4.48083305358887],"type":"VEC3"},{"bufferView":45,"byteOffset":0,"componentType":5126,"count":24,"type":"VEC3"},{"bufferView":46,"byteOffset":0,"componentType":5126,"count":24,"type":"VEC4"},{"bufferView":47,"byteOffset":0,"componentType":5126,"count":24,"type":"VEC2"},{"bufferView":48,"byteOffset":0,"componentType":5126,"count":24,"type":"VEC2"},{"bufferView":49,"byteOffset":0,"componentType":5123,"count":36,"type":"SCALAR"},{"bufferView":50,"byteOffset":0,"componentType":5126,"count":8,"max":[0.183734998106956,5.00124979019165,0.00355007010512054],"min":[-0.18374998867512,-0.00125000218395,-6.89711427688599],"type":"VEC3"},{"bufferView":51,"byteOffset":0,"componentType":5126,"count":8,"type":"VEC3"},{"bufferView":52,"byteOffset":0,"componentType":5126,"count":8,"type":"VEC2"},{"bufferView":53,"byteOffset":0,"componentType":5126,"count":8,"type":"VEC2"}],"animations":[{"channels":[],"name":"Unreal Take","samplers":[]}],"asset":{"generator":"FBX2glTF v0.13.0","version":"2.0"},"bufferViews":[{"buffer":0,"byteLength":4,"byteOffset":0},{"buffer":0,"byteLength":552,"byteOffset":4,"target":34963},{"buffer":0,"byteLength":1008,"byteOffset":556,"target":34962},{"buffer":0,"byteLength":1008,"byteOffset":1564,"target":34962},{"buffer":0,"byteLength":1344,"byteOffset":2572,"target":34962},{"buffer":0,"byteLength":672,"byteOffset":3916,"target":34962},{"buffer":0,"byteLength":672,"byteOffset":4588,"target":34962},{"buffer":0,"byteLength":456,"byteOffset":5260,"target":34963},{"buffer":0,"byteLength":864,"byteOffset":5716,"target":34962},{"buffer":0,"byteLength":864,"byteOffset":6580,"target":34962},{"buffer":0,"byteLength":1152,"byteOffset":7444,"target":34962},{"buffer":0,"byteLength":576,"byteOffset":8596,"target":34962},{"buffer":0,"byteLength":576,"byteOffset":9172,"target":34962},{"buffer":0,"byteLength":384,"byteOffset":9748,"target":34963},{"buffer":0,"byteLength":744,"byteOffset":10132,"target":34962},{"buffer":0,"byteLength":744,"byteOffset":10876,"target":34962},{"buffer":0,"byteLength":992,"byteOffset":11620,"target":34962},{"buffer":0,"byteLength":496,"byteOffset":12612,"target":34962},{"buffer":0,"byteLength":496,"byteOffset":13108,"target":34962},{"buffer":0,"byteLength":162,"byteOffset":13604,"target":34963},{"buffer":0,"byteLength":324,"byteOffset":13768,"target":34962},{"buffer":0,"byteLength":324,"byteOffset":14092,"target":34962},{"buffer":0,"byteLength":432,"byteOffset":14416,"target":34962},{"buffer":0,"byteLength":216,"byteOffset":14848,"target":34962},{"buffer":0,"byteLength":216,"byteOffset":15064,"target":34962},{"buffer":0,"byteLength":1152,"byteOffset":15280,"target":34963},{"buffer":0,"byteLength":3072,"byteOffset":16432,"target":34962},{"buffer":0,"byteLength":3072,"byteOffset":19504,"target":34962},{"buffer":0,"byteLength":4096,"byteOffset":22576,"target":34962},{"buffer":0,"byteLength":2048,"byteOffset":26672,"target":34962},{"buffer":0,"byteLength":2048,"byteOffset":28720,"target":34962},{"buffer":0,"byteLength":816,"byteOffset":30768,"target":34963},{"buffer":0,"byteLength":2400,"byteOffset":31584,"target":34962},{"buffer":0,"byteLength":2400,"byteOffset":33984,"target":34962},{"buffer":0,"byteLength":3200,"byteOffset":36384,"target":34962},{"buffer":0,"byteLength":1600,"byteOffset":39584,"target":34962},{"buffer":0,"byteLength":1600,"byteOffset":41184,"target":34962},{"buffer":0,"byteLength":468,"byteOffset":42784,"target":34963},{"buffer":0,"byteLength":1704,"byteOffset":43252,"target":34962},{"buffer":0,"byteLength":1704,"byteOffset":44956,"target":34962},{"buffer":0,"byteLength":2272,"byteOffset":46660,"target":34962},{"buffer":0,"byteLength":1136,"byteOffset":48932,"target":34962},{"buffer":0,"byteLength":1136,"byteOffset":50068,"target":34962},{"buffer":0,"byteLength":48,"byteOffset":51204,"target":34963},{"buffer":0,"byteLength":288,"byteOffset":51252,"target":34962},{"buffer":0,"byteLength":288,"byteOffset":51540,"target":34962},{"buffer":0,"byteLength":384,"byteOffset":51828,"target":34962},{"buffer":0,"byteLength":192,"byteOffset":52212,"target":34962},{"buffer":0,"byteLength":192,"byteOffset":52404,"target":34962},{"buffer":0,"byteLength":72,"byteOffset":52596,"target":34963},{"buffer":0,"byteLength":96,"byteOffset":52668,"target":34962},{"buffer":0,"byteLength":96,"byteOffset":52764,"target":34962},{"buffer":0,"byteLength":64,"byteOffset":52860,"target":34962},{"buffer":0,"byteLength":64,"byteOffset":52924,"target":34962}],"buffers":[{"byteLength":52988,"uri":"SM_Window_Wall.bin"}],"images":[{"name":"T_Bricks_N","uri":"T_Bricks_N.png"},{"name":"T_Bricks_B","uri":"T_Bricks_B.png"},{"name":"T_Bricks_N 1","uri":"T_Bricks_N.png"},{"name":"T_Bricks_B 1","uri":"T_Bricks_B.png"}],"materials":[{"alphaMode":"OPAQUE","doubleSided":false,"extras":{"fromFBX":{"isTruePBR":false,"shadingModel":"Phong"}},"name":"MI_Brick_01","normalTexture":{"index":0,"texCoord":0},"pbrMetallicRoughness":{"baseColorFactor":[1,1,1,1],"baseColorTexture":{"index":1,"texCoord":0},"metallicFactor":0.400000005960464,"roughnessFactor":0.301511347293854}},{"alphaMode":"OPAQUE","doubleSided":false,"extras":{"fromFBX":{"isTruePBR":false,"shadingModel":"Phong"}},"name":"MI_Brick_02","normalTexture":{"index":2,"texCoord":0},"pbrMetallicRoughness":{"baseColorFactor":[1,1,1,1],"baseColorTexture":{"index":3,"texCoord":0},"metallicFactor":0.400000005960464,"roughnessFactor":0.301511347293854}},{"alphaMode":"OPAQUE","doubleSided":false,"extras":{"fromFBX":{"isTruePBR":false,"shadingModel":"Lambert"}},"name":"DefaultMaterial","pbrMetallicRoughness":{"baseColorFactor":[0.5,0.5,0.5,1],"metallicFactor":0.200000002980232,"roughnessFactor":0.800000011920929}}],"meshes":[{"name":"SM_Window_Wall_LOD0","primitives":[{"attributes":{"NORMAL":3,"POSITION":2,"TANGENT":4,"TEXCOORD_0":5,"TEXCOORD_1":6},"indices":1,"material":0,"mode":4},{"attributes":{"NORMAL":27,"POSITION":26,"TANGENT":28,"TEXCOORD_0":29,"TEXCOORD_1":30},"indices":25,"material":1,"mode":4}]},{"name":"SM_Window_Wall_LOD1","primitives":[{"attributes":{"NORMAL":9,"POSITION":8,"TANGENT":10,"TEXCOORD_0":11,"TEXCOORD_1":12},"indices":7,"material":0,"mode":4},{"attributes":{"NORMAL":33,"POSITION":32,"TANGENT":34,"TEXCOORD_0":35,"TEXCOORD_1":36},"indices":31,"material":1,"mode":4}]},{"name":"SM_Window_Wall_LOD2","primitives":[{"attributes":{"NORMAL":15,"POSITION":14,"TANGENT":16,"TEXCOORD_0":17,"TEXCOORD_1":18},"indices":13,"material":0,"mode":4},{"attributes":{"NORMAL":39,"POSITION":38,"TANGENT":40,"TEXCOORD_0":41,"TEXCOORD_1":42},"indices":37,"material":1,"mode":4}]},{"name":"SM_Window_Wall_LOD3","primitives":[{"attributes":{"NORMAL":21,"POSITION":20,"TANGENT":22,"TEXCOORD_0":23,"TEXCOORD_1":24},"indices":19,"material":0,"mode":4},{"attributes":{"NORMAL":45,"POSITION":44,"TANGENT":46,"TEXCOORD_0":47,"TEXCOORD_1":48},"indices":43,"material":1,"mode":4}]},{"name":"SM_Window_Wall_ConvexHulls","primitives":[{"attributes":{"NORMAL":51,"POSITION":50,"TEXCOORD_0":52,"TEXCOORD_1":53},"indices":49,"material":2,"mode":4}]}],"nodes":[{"children":[1,2,3,4,5],"name":"SM_Window_Wall_144","originalUnits":0.00999999977648258,"pivot":[0,0,0],"rotation":[0,0,0,1],"scale":[1,1,1],"translation":[0,0,0]},{"mesh":0,"name":"SM_Window_Wall_LOD0","originalUnits":0.00999999977648258,"pivot":[0,0,0],"rotation":[0,0,0,1],"scale":[1,1,1],"translation":[0,0,0]},{"mesh":4,"name":"SM_Window_Wall_ConvexHulls","originalUnits":0.00999999977648258,"pivot":[0,0,0],"rotation":[0,0,0,1],"scale":[1,1,1],"translation":[0,0,0]},{"mesh":1,"name":"SM_Window_Wall_LOD1","originalUnits":0.00999999977648258,"pivot":[0,0,0],"rotation":[0,0,0,1],"scale":[1,1,1],"translation":[0,0,0]},{"mesh":2,"name":"SM_Window_Wall_LOD2","originalUnits":0.00999999977648258,"pivot":[0,0,0],"rotation":[0,0,0,1],"scale":[1,1,1],"translation":[0,0,0]},{"mesh":3,"name":"SM_Window_Wall_LOD3","originalUnits":0.00999999977648258,"pivot":[0,0,0],"rotation":[0,0,0,1],"scale":[1,1,1],"translation":[0,0,0]}],"samplers":[{}],"scene":0,"scenes":[{"name":"Root Scene","nodes":[0]}],"textures":[{"name":"MI_Brick_01","sampler":0,"source":0},{"name":"MI_Brick_01","sampler":0,"source":1},{"name":"MI_Brick_02","sampler":0,"source":2},{"name":"MI_Brick_02","sampler":0,"source":3}]}