{"accessors":[{"bufferView":0,"byteOffset":0,"componentType":5126,"count":1,"max":[0],"min":[0],"type":"SCALAR"},{"bufferView":1,"byteOffset":0,"componentType":5123,"count":288,"type":"SCALAR"},{"bufferView":2,"byteOffset":0,"componentType":5126,"count":84,"max":[-0.00000017689479,5,-1.13956201076508],"min":[-0.18271878361702,0.000000915527323286369,-5.5425181388855],"type":"VEC3"},{"bufferView":3,"byteOffset":0,"componentType":5126,"count":84,"type":"VEC3"},{"bufferView":4,"byteOffset":0,"componentType":5126,"count":84,"type":"VEC4"},{"bufferView":5,"byteOffset":0,"componentType":5126,"count":84,"type":"VEC2"},{"bufferView":6,"byteOffset":0,"componentType":5126,"count":84,"type":"VEC2"},{"bufferView":7,"byteOffset":0,"componentType":5123,"count":180,"type":"SCALAR"},{"bufferView":8,"byteOffset":0,"componentType":5126,"count":59,"max":[0.000020699369997601,5,-1.13956201076508],"min":[-0.18273968994618,0.000000915527323286369,-5.5425181388855],"type":"VEC3"},{"bufferView":9,"byteOffset":0,"componentType":5126,"count":59,"type":"VEC3"},{"bufferView":10,"byteOffset":0,"componentType":5126,"count":59,"type":"VEC4"},{"bufferView":11,"byteOffset":0,"componentType":5126,"count":59,"type":"VEC2"},{"bufferView":12,"byteOffset":0,"componentType":5126,"count":59,"type":"VEC2"},{"bufferView":13,"byteOffset":0,"componentType":5123,"count":144,"type":"SCALAR"},{"bufferView":14,"byteOffset":0,"componentType":5126,"count":44,"max":[0.0138442283496261,5,-1.13956201076508],"min":[-0.20736567676067,0.000000915527323286369,-5.5425181388855],"type":"VEC3"},{"bufferView":15,"byteOffset":0,"componentType":5126,"count":44,"type":"VEC3"},{"bufferView":16,"byteOffset":0,"componentType":5126,"count":44,"type":"VEC4"},{"bufferView":17,"byteOffset":0,"componentType":5126,"count":44,"type":"VEC2"},{"bufferView":18,"byteOffset":0,"componentType":5126,"count":44,"type":"VEC2"},{"bufferView":19,"byteOffset":0,"componentType":5123,"count":63,"type":"SCALAR"},{"bufferView":20,"byteOffset":0,"componentType":5126,"count":20,"max":[0.0518690347671509,5,-1.13956201076508],"min":[-0.25653624534607,0.000000915527323286369,-5.5425181388855],"type":"VEC3"},{"bufferView":21,"byteOffset":0,"componentType":5126,"count":20,"type":"VEC3"},{"bufferView":22,"byteOffset":0,"componentType":5126,"count":20,"type":"VEC4"},{"bufferView":23,"byteOffset":0,"componentType":5126,"count":20,"type":"VEC2"},{"bufferView":24,"byteOffset":0,"componentType":5126,"count":20,"type":"VEC2"},{"bufferView":25,"byteOffset":0,"componentType":5123,"count":324,"type":"SCALAR"},{"bufferView":26,"byteOffset":0,"componentType":5126,"count":144,"max":[-0.0000002072933,3.74188160896301,-2.58578181266785],"min":[-0.18271872401237,3.37572264671326,-4.30778169631958],"type":"VEC3"},{"bufferView":27,"byteOffset":0,"componentType":5126,"count":144,"type":"VEC3"},{"bufferView":28,"byteOffset":0,"componentType":5126,"count":144,"type":"VEC4"},{"bufferView":29,"byteOffset":0,"componentType":5126,"count":144,"type":"VEC2"},{"bufferView":30,"byteOffset":0,"componentType":5126,"count":144,"type":"VEC2"},{"bufferView":31,"byteOffset":0,"componentType":5123,"count":276,"type":"SCALAR"},{"bufferView":32,"byteOffset":0,"componentType":5126,"count":128,"max":[-0.0000002072932,3.74187970161438,-2.585768699646],"min":[-0.18271872401237,3.36325788497925,-4.30779695510864],"type":"VEC3"},{"bufferView":33,"byteOffset":0,"componentType":5126,"count":128,"type":"VEC3"},{"bufferView":34,"byteOffset":0,"componentType":5126,"count":128,"type":"VEC4"},{"bufferView":35,"byteOffset":0,"componentType":5126,"count":128,"type":"VEC2"},{"bufferView":36,"byteOffset":0,"componentType":5126,"count":128,"type":"VEC2"},{"bufferView":37,"byteOffset":0,"componentType":5123,"count":162,"type":"SCALAR"},{"bufferView":38,"byteOffset":0,"componentType":5126,"count":90,"max":[0.0138442283496261,3.74187970161438,-2.585768699646],"min":[-0.20736567676067,3.35286712646484,-4.30779695510864],"type":"VEC3"},{"bufferView":39,"byteOffset":0,"componentType":5126,"count":90,"type":"VEC3"},{"bufferView":40,"byteOffset":0,"componentType":5126,"count":90,"type":"VEC4"},{"bufferView":41,"byteOffset":0,"componentType":5126,"count":90,"type":"VEC2"},{"bufferView":42,"byteOffset":0,"componentType":5126,"count":90,"type":"VEC2"},{"bufferView":43,"byteOffset":0,"componentType":5123,"count":15,"type":"SCALAR"},{"bufferView":44,"byteOffset":0,"componentType":5126,"count":15,"max":[0.0518690347671509,3.73165845870972,-2.73186588287354],"min":[-0.25653624534607,3.35530519485474,-4.10983657836914],"type":"VEC3"},{"bufferView":45,"byteOffset":0,"componentType":5126,"count":15,"type":"VEC3"},{"bufferView":46,"byteOffset":0,"componentType":5126,"count":15,"type":"VEC4"},{"bufferView":47,"byteOffset":0,"componentType":5126,"count":15,"type":"VEC2"},{"bufferView":48,"byteOffset":0,"componentType":5126,"count":15,"type":"VEC2"},{"bufferView":49,"byteOffset":0,"componentType":5123,"count":36,"type":"SCALAR"},{"bufferView":50,"byteOffset":0,"componentType":5126,"count":8,"max":[0.00112503732088953,5.00124979019165,-1.13856208324432],"min":[-0.18374997377396,-0.00124999997206,-5.54351806640625],"type":"VEC3"},{"bufferView":51,"byteOffset":0,"componentType":5126,"count":8,"type":"VEC3"},{"bufferView":52,"byteOffset":0,"componentType":5126,"count":8,"type":"VEC2"},{"bufferView":53,"byteOffset":0,"componentType":5126,"count":8,"type":"VEC2"}],"animations":[{"channels":[],"name":"Unreal Take","samplers":[]}],"asset":{"generator":"FBX2glTF v0.13.0","version":"2.0"},"bufferViews":[{"buffer":0,"byteLength":4,"byteOffset":0},{"buffer":0,"byteLength":576,"byteOffset":4,"target":34963},{"buffer":0,"byteLength":1008,"byteOffset":580,"target":34962},{"buffer":0,"byteLength":1008,"byteOffset":1588,"target":34962},{"buffer":0,"byteLength":1344,"byteOffset":2596,"target":34962},{"buffer":0,"byteLength":672,"byteOffset":3940,"target":34962},{"buffer":0,"byteLength":672,"byteOffset":4612,"target":34962},{"buffer":0,"byteLength":360,"byteOffset":5284,"target":34963},{"buffer":0,"byteLength":708,"byteOffset":5644,"target":34962},{"buffer":0,"byteLength":708,"byteOffset":6352,"target":34962},{"buffer":0,"byteLength":944,"byteOffset":7060,"target":34962},{"buffer":0,"byteLength":472,"byteOffset":8004,"target":34962},{"buffer":0,"byteLength":472,"byteOffset":8476,"target":34962},{"buffer":0,"byteLength":288,"byteOffset":8948,"target":34963},{"buffer":0,"byteLength":528,"byteOffset":9236,"target":34962},{"buffer":0,"byteLength":528,"byteOffset":9764,"target":34962},{"buffer":0,"byteLength":704,"byteOffset":10292,"target":34962},{"buffer":0,"byteLength":352,"byteOffset":10996,"target":34962},{"buffer":0,"byteLength":352,"byteOffset":11348,"target":34962},{"buffer":0,"byteLength":126,"byteOffset":11700,"target":34963},{"buffer":0,"byteLength":240,"byteOffset":11828,"target":34962},{"buffer":0,"byteLength":240,"byteOffset":12068,"target":34962},{"buffer":0,"byteLength":320,"byteOffset":12308,"target":34962},{"buffer":0,"byteLength":160,"byteOffset":12628,"target":34962},{"buffer":0,"byteLength":160,"byteOffset":12788,"target":34962},{"buffer":0,"byteLength":648,"byteOffset":12948,"target":34963},{"buffer":0,"byteLength":1728,"byteOffset":13596,"target":34962},{"buffer":0,"byteLength":1728,"byteOffset":15324,"target":34962},{"buffer":0,"byteLength":2304,"byteOffset":17052,"target":34962},{"buffer":0,"byteLength":1152,"byteOffset":19356,"target":34962},{"buffer":0,"byteLength":1152,"byteOffset":20508,"target":34962},{"buffer":0,"byteLength":552,"byteOffset":21660,"target":34963},{"buffer":0,"byteLength":1536,"byteOffset":22212,"target":34962},{"buffer":0,"byteLength":1536,"byteOffset":23748,"target":34962},{"buffer":0,"byteLength":2048,"byteOffset":25284,"target":34962},{"buffer":0,"byteLength":1024,"byteOffset":27332,"target":34962},{"buffer":0,"byteLength":1024,"byteOffset":28356,"target":34962},{"buffer":0,"byteLength":324,"byteOffset":29380,"target":34963},{"buffer":0,"byteLength":1080,"byteOffset":29704,"target":34962},{"buffer":0,"byteLength":1080,"byteOffset":30784,"target":34962},{"buffer":0,"byteLength":1440,"byteOffset":31864,"target":34962},{"buffer":0,"byteLength":720,"byteOffset":33304,"target":34962},{"buffer":0,"byteLength":720,"byteOffset":34024,"target":34962},{"buffer":0,"byteLength":30,"byteOffset":34744,"target":34963},{"buffer":0,"byteLength":180,"byteOffset":34776,"target":34962},{"buffer":0,"byteLength":180,"byteOffset":34956,"target":34962},{"buffer":0,"byteLength":240,"byteOffset":35136,"target":34962},{"buffer":0,"byteLength":120,"byteOffset":35376,"target":34962},{"buffer":0,"byteLength":120,"byteOffset":35496,"target":34962},{"buffer":0,"byteLength":72,"byteOffset":35616,"target":34963},{"buffer":0,"byteLength":96,"byteOffset":35688,"target":34962},{"buffer":0,"byteLength":96,"byteOffset":35784,"target":34962},{"buffer":0,"byteLength":64,"byteOffset":35880,"target":34962},{"buffer":0,"byteLength":64,"byteOffset":35944,"target":34962}],"buffers":[{"byteLength":36008,"uri":"SM_Window_Wall_2.bin"}],"images":[{"name":"T_Bricks_N","uri":"T_Bricks_N.png"},{"name":"T_Bricks_B","uri":"T_Bricks_B.png"},{"name":"T_Bricks_N 1","uri":"T_Bricks_N.png"},{"name":"T_Bricks_B 1","uri":"T_Bricks_B.png"}],"materials":[{"alphaMode":"OPAQUE","doubleSided":false,"extras":{"fromFBX":{"isTruePBR":false,"shadingModel":"Phong"}},"name":"MI_Brick_01","normalTexture":{"index":0,"texCoord":0},"pbrMetallicRoughness":{"baseColorFactor":[1,1,1,1],"baseColorTexture":{"index":1,"texCoord":0},"metallicFactor":0.400000005960464,"roughnessFactor":0.301511347293854}},{"alphaMode":"OPAQUE","doubleSided":false,"extras":{"fromFBX":{"isTruePBR":false,"shadingModel":"Phong"}},"name":"MI_Brick_02","normalTexture":{"index":2,"texCoord":0},"pbrMetallicRoughness":{"baseColorFactor":[1,1,1,1],"baseColorTexture":{"index":3,"texCoord":0},"metallicFactor":0.400000005960464,"roughnessFactor":0.301511347293854}},{"alphaMode":"OPAQUE","doubleSided":false,"extras":{"fromFBX":{"isTruePBR":false,"shadingModel":"Lambert"}},"name":"DefaultMaterial","pbrMetallicRoughness":{"baseColorFactor":[0.5,0.5,0.5,1],"metallicFactor":0.200000002980232,"roughnessFactor":0.800000011920929}}],"meshes":[{"name":"SM_Window_Wall_2_LOD0","primitives":[{"attributes":{"NORMAL":3,"POSITION":2,"TANGENT":4,"TEXCOORD_0":5,"TEXCOORD_1":6},"indices":1,"material":0,"mode":4},{"attributes":{"NORMAL":27,"POSITION":26,"TANGENT":28,"TEXCOORD_0":29,"TEXCOORD_1":30},"indices":25,"material":1,"mode":4}]},{"name":"SM_Window_Wall_2_LOD1","primitives":[{"attributes":{"NORMAL":9,"POSITION":8,"TANGENT":10,"TEXCOORD_0":11,"TEXCOORD_1":12},"indices":7,"material":0,"mode":4},{"attributes":{"NORMAL":33,"POSITION":32,"TANGENT":34,"TEXCOORD_0":35,"TEXCOORD_1":36},"indices":31,"material":1,"mode":4}]},{"name":"SM_Window_Wall_2_LOD2","primitives":[{"attributes":{"NORMAL":15,"POSITION":14,"TANGENT":16,"TEXCOORD_0":17,"TEXCOORD_1":18},"indices":13,"material":0,"mode":4},{"attributes":{"NORMAL":39,"POSITION":38,"TANGENT":40,"TEXCOORD_0":41,"TEXCOORD_1":42},"indices":37,"material":1,"mode":4}]},{"name":"SM_Window_Wall_2_LOD3","primitives":[{"attributes":{"NORMAL":21,"POSITION":20,"TANGENT":22,"TEXCOORD_0":23,"TEXCOORD_1":24},"indices":19,"material":0,"mode":4},{"attributes":{"NORMAL":45,"POSITION":44,"TANGENT":46,"TEXCOORD_0":47,"TEXCOORD_1":48},"indices":43,"material":1,"mode":4}]},{"name":"SM_Window_Wall_2_ConvexHulls","primitives":[{"attributes":{"NORMAL":51,"POSITION":50,"TEXCOORD_0":52,"TEXCOORD_1":53},"indices":49,"material":2,"mode":4}]}],"nodes":[{"children":[1,2,3,4,5],"name":"SM_Window_Wall2_145","originalUnits":0.00999999977648258,"pivot":[0,0,0],"rotation":[0,0,0,1],"scale":[1,1,1],"translation":[0,0,0]},{"mesh":0,"name":"SM_Window_Wall_2_LOD0","originalUnits":0.00999999977648258,"pivot":[0,0,0],"rotation":[0,0,0,1],"scale":[1,1,1],"translation":[0,0,0]},{"mesh":4,"name":"SM_Window_Wall_2_ConvexHulls","originalUnits":0.00999999977648258,"pivot":[0,0,0],"rotation":[0,0,0,1],"scale":[1,1,1],"translation":[0,0,0]},{"mesh":1,"name":"SM_Window_Wall_2_LOD1","originalUnits":0.00999999977648258,"pivot":[0,0,0],"rotation":[0,0,0,1],"scale":[1,1,1],"translation":[0,0,0]},{"mesh":2,"name":"SM_Window_Wall_2_LOD2","originalUnits":0.00999999977648258,"pivot":[0,0,0],"rotation":[0,0,0,1],"scale":[1,1,1],"translation":[0,0,0]},{"mesh":3,"name":"SM_Window_Wall_2_LOD3","originalUnits":0.00999999977648258,"pivot":[0,0,0],"rotation":[0,0,0,1],"scale":[1,1,1],"translation":[0,0,0]}],"samplers":[{}],"scene":0,"scenes":[{"name":"Root Scene","nodes":[0]}],"textures":[{"name":"MI_Brick_01","sampler":0,"source":0},{"name":"MI_Brick_01","sampler":0,"source":1},{"name":"MI_Brick_02","sampler":0,"source":2},{"name":"MI_Brick_02","sampler":0,"source":3}]}